M48
; DRILL file {KiCad 8.0.6-8.0.6-0~ubuntu24.04.1} date 2024-10-17T13:47:09+0200
; FORMAT={-:-/ absolute / inch / decimal}
; #@! TF.CreationDate,2024-10-17T13:47:09+02:00
; #@! TF.GenerationSoftware,Kicad,Pcbnew,8.0.6-8.0.6-0~ubuntu24.04.1
; #@! TF.FileFunction,Plated,1,2,PTH
FMAT,2
INCH
; #@! TA.AperFunction,Plated,PTH,ComponentDrill
T1C0.0079
; #@! TA.AperFunction,Plated,PTH,ViaDrill
T2C0.0118
; #@! TA.AperFunction,Plated,PTH,ComponentDrill
T3C0.0276
; #@! TA.AperFunction,Plated,PTH,ComponentDrill
T4C0.0315
; #@! TA.AperFunction,Plated,PTH,ComponentDrill
T5C0.0394
; #@! TA.AperFunction,Plated,PTH,ComponentDrill
T6C0.1693
%
G90
G05
T1
X3.3661Y-3.0319
X3.3661Y-3.0713
X3.3661Y-3.1106
X3.3711Y-2.4409
X3.3711Y-2.4803
X3.3711Y-2.5197
X3.4173Y-3.0319
X3.4173Y-3.0713
X3.4173Y-3.1106
X3.4222Y-2.4409
X3.4222Y-2.4803
X3.4222Y-2.5197
T2
X1.7072Y-2.4061
X1.7362Y-2.6181
X1.7602Y-2.8612
X1.7968Y-2.9139
X1.811Y-1.689
X1.8327Y-2.4255
X1.8346Y-3.2598
X2.0729Y-1.8606
X2.1417Y-2.8937
X2.2008Y-2.4173
X2.2239Y-2.796
X2.2992Y-1.9173
X2.4331Y-2.8937
X2.5658Y-2.5477
X2.8387Y-2.994
X2.9488Y-3.0945
X3.017Y-3.0908
X3.0469Y-2.3912
X3.1142Y-3.0039
X3.3346Y-3.2677
X3.3898Y-2.6969
X3.3898Y-2.8701
X3.3937Y-2.2756
X3.4247Y-3.157
X3.4961Y-3.5079
X3.5732Y-2.4015
X3.5958Y-2.4565
X3.5984Y-2.8189
T3
X2.0087Y-2.0827
X2.0087Y-2.2067
X2.2087Y-2.0827
X2.2087Y-2.2067
X2.8346Y-2.3937
X2.8346Y-2.5937
X2.8386Y-2.6807
X2.8386Y-2.8807
T4
X2.374Y-2.0551
X2.374Y-2.2146
X2.5709Y-2.0551
X2.5709Y-2.2146
X2.7165Y-2.0276
X2.7165Y-2.2244
T5
X1.5866Y-2.8252
X1.5866Y-2.9252
X1.5866Y-3.0252
X1.5866Y-3.1252
X1.5866Y-3.2252
X1.5866Y-3.3252
X1.5866Y-3.4252
X1.5866Y-3.5252
X1.5984Y-1.6543
X1.5984Y-1.7543
X1.5984Y-1.8543
X1.5984Y-1.9543
X1.5984Y-2.0543
X1.5984Y-2.1543
X1.5984Y-2.2543
X1.5984Y-2.3543
X1.5984Y-2.4543
X1.5984Y-2.5543
X1.963Y-2.6102
X1.989Y-3.7323
X1.9984Y-1.7087
X2.0213Y-3.0945
X2.063Y-2.6102
X2.089Y-3.7323
X2.0984Y-1.7087
X2.1213Y-3.0945
X2.163Y-2.6102
X2.189Y-3.7323
X2.1984Y-1.7087
X2.2213Y-3.0945
X2.263Y-2.6102
X2.289Y-3.7323
X2.2984Y-1.7087
X2.3213Y-3.0945
X2.363Y-2.6102
X2.389Y-3.7323
X2.3984Y-1.7087
X2.4213Y-3.0945
X2.463Y-2.6102
X2.489Y-3.7323
X2.4984Y-1.7087
X2.5213Y-3.0945
X2.563Y-2.6102
X2.589Y-3.7323
X2.689Y-3.7323
X2.7567Y-1.7047
X2.8567Y-1.7047
X2.9409Y-2.126
X2.9567Y-1.7047
X3.0142Y-3.7402
X3.0567Y-1.7047
X3.1142Y-3.7402
X3.1378Y-2.126
X3.2142Y-3.7402
X3.3142Y-3.7402
X3.4104Y-1.6693
X3.5104Y-1.6693
T6
X1.2126Y-1.5669
X1.2165Y-3.8937
X4.0394Y-2.3661
X4.0394Y-3.8858
X4.0433Y-1.5748
X4.0433Y-3.126
M30
