%TF.GenerationSoftware,KiCad,Pcbnew,8.0.6-8.0.6-0~ubuntu24.04.1*%
%TF.CreationDate,2024-10-17T13:47:06+02:00*%
%TF.ProjectId,K3NG-rotator-shield,4b334e47-2d72-46f7-9461-746f722d7368,rev?*%
%TF.SameCoordinates,Original*%
%TF.FileFunction,Drillmap*%
%TF.FilePolarity,Positive*%
%FSLAX45Y45*%
G04 Gerber Fmt 4.5, Leading zero omitted, Abs format (unit mm)*
G04 Created by KiCad (PCBNEW 8.0.6-8.0.6-0~ubuntu24.04.1) date 2024-10-17 13:47:06*
%MOMM*%
%LPD*%
G01*
G04 APERTURE LIST*
%ADD10C,0.050000*%
%ADD11C,0.200000*%
G04 APERTURE END LIST*
D10*
X2580000Y-3410000D02*
X10770000Y-3410000D01*
X10770000Y-10420000D01*
X2580000Y-10420000D01*
X2580000Y-3410000D01*
D11*
X2838277Y-10733984D02*
X2838277Y-10533984D01*
X2838277Y-10533984D02*
X2885896Y-10533984D01*
X2885896Y-10533984D02*
X2914467Y-10543508D01*
X2914467Y-10543508D02*
X2933515Y-10562555D01*
X2933515Y-10562555D02*
X2943039Y-10581603D01*
X2943039Y-10581603D02*
X2952562Y-10619698D01*
X2952562Y-10619698D02*
X2952562Y-10648270D01*
X2952562Y-10648270D02*
X2943039Y-10686365D01*
X2943039Y-10686365D02*
X2933515Y-10705412D01*
X2933515Y-10705412D02*
X2914467Y-10724460D01*
X2914467Y-10724460D02*
X2885896Y-10733984D01*
X2885896Y-10733984D02*
X2838277Y-10733984D01*
X3038277Y-10733984D02*
X3038277Y-10600650D01*
X3038277Y-10638746D02*
X3047801Y-10619698D01*
X3047801Y-10619698D02*
X3057324Y-10610174D01*
X3057324Y-10610174D02*
X3076372Y-10600650D01*
X3076372Y-10600650D02*
X3095420Y-10600650D01*
X3162086Y-10733984D02*
X3162086Y-10600650D01*
X3162086Y-10533984D02*
X3152562Y-10543508D01*
X3152562Y-10543508D02*
X3162086Y-10553031D01*
X3162086Y-10553031D02*
X3171610Y-10543508D01*
X3171610Y-10543508D02*
X3162086Y-10533984D01*
X3162086Y-10533984D02*
X3162086Y-10553031D01*
X3285896Y-10733984D02*
X3266848Y-10724460D01*
X3266848Y-10724460D02*
X3257324Y-10705412D01*
X3257324Y-10705412D02*
X3257324Y-10533984D01*
X3390658Y-10733984D02*
X3371610Y-10724460D01*
X3371610Y-10724460D02*
X3362086Y-10705412D01*
X3362086Y-10705412D02*
X3362086Y-10533984D01*
X3619229Y-10733984D02*
X3619229Y-10533984D01*
X3619229Y-10533984D02*
X3685896Y-10676841D01*
X3685896Y-10676841D02*
X3752562Y-10533984D01*
X3752562Y-10533984D02*
X3752562Y-10733984D01*
X3933515Y-10733984D02*
X3933515Y-10629222D01*
X3933515Y-10629222D02*
X3923991Y-10610174D01*
X3923991Y-10610174D02*
X3904943Y-10600650D01*
X3904943Y-10600650D02*
X3866848Y-10600650D01*
X3866848Y-10600650D02*
X3847801Y-10610174D01*
X3933515Y-10724460D02*
X3914467Y-10733984D01*
X3914467Y-10733984D02*
X3866848Y-10733984D01*
X3866848Y-10733984D02*
X3847801Y-10724460D01*
X3847801Y-10724460D02*
X3838277Y-10705412D01*
X3838277Y-10705412D02*
X3838277Y-10686365D01*
X3838277Y-10686365D02*
X3847801Y-10667317D01*
X3847801Y-10667317D02*
X3866848Y-10657793D01*
X3866848Y-10657793D02*
X3914467Y-10657793D01*
X3914467Y-10657793D02*
X3933515Y-10648270D01*
X4028753Y-10600650D02*
X4028753Y-10800650D01*
X4028753Y-10610174D02*
X4047801Y-10600650D01*
X4047801Y-10600650D02*
X4085896Y-10600650D01*
X4085896Y-10600650D02*
X4104943Y-10610174D01*
X4104943Y-10610174D02*
X4114467Y-10619698D01*
X4114467Y-10619698D02*
X4123991Y-10638746D01*
X4123991Y-10638746D02*
X4123991Y-10695889D01*
X4123991Y-10695889D02*
X4114467Y-10714936D01*
X4114467Y-10714936D02*
X4104943Y-10724460D01*
X4104943Y-10724460D02*
X4085896Y-10733984D01*
X4085896Y-10733984D02*
X4047801Y-10733984D01*
X4047801Y-10733984D02*
X4028753Y-10724460D01*
X4209705Y-10714936D02*
X4219229Y-10724460D01*
X4219229Y-10724460D02*
X4209705Y-10733984D01*
X4209705Y-10733984D02*
X4200182Y-10724460D01*
X4200182Y-10724460D02*
X4209705Y-10714936D01*
X4209705Y-10714936D02*
X4209705Y-10733984D01*
X4209705Y-10610174D02*
X4219229Y-10619698D01*
X4219229Y-10619698D02*
X4209705Y-10629222D01*
X4209705Y-10629222D02*
X4200182Y-10619698D01*
X4200182Y-10619698D02*
X4209705Y-10610174D01*
X4209705Y-10610174D02*
X4209705Y-10629222D01*
M02*
