%TF.GenerationSoftware,KiCad,Pcbnew,8.0.6-8.0.6-0~ubuntu24.04.1*%
%TF.CreationDate,2024-10-18T14:58:40+02:00*%
%TF.ProjectId,K3NG-rotator-shield,4b334e47-2d72-46f7-9461-746f722d7368,rev?*%
%TF.SameCoordinates,Original*%
%TF.FileFunction,Copper,L2,Bot*%
%TF.FilePolarity,Positive*%
%FSLAX46Y46*%
G04 Gerber Fmt 4.6, Leading zero omitted, Abs format (unit mm)*
G04 Created by KiCad (PCBNEW 8.0.6-8.0.6-0~ubuntu24.04.1) date 2024-10-18 14:58:40*
%MOMM*%
%LPD*%
G01*
G04 APERTURE LIST*
%TA.AperFunction,ComponentPad*%
%ADD10C,1.600000*%
%TD*%
%TA.AperFunction,ComponentPad*%
%ADD11C,7.500000*%
%TD*%
%TA.AperFunction,ComponentPad*%
%ADD12R,1.700000X1.700000*%
%TD*%
%TA.AperFunction,ComponentPad*%
%ADD13O,1.700000X1.700000*%
%TD*%
%TA.AperFunction,ComponentPad*%
%ADD14C,0.500000*%
%TD*%
%TA.AperFunction,SMDPad,CuDef*%
%ADD15R,1.800000X2.500000*%
%TD*%
%TA.AperFunction,ComponentPad*%
%ADD16C,1.400000*%
%TD*%
%TA.AperFunction,ComponentPad*%
%ADD17O,1.400000X1.400000*%
%TD*%
%TA.AperFunction,ComponentPad*%
%ADD18R,2.000000X2.000000*%
%TD*%
%TA.AperFunction,ComponentPad*%
%ADD19C,2.000000*%
%TD*%
%TA.AperFunction,ViaPad*%
%ADD20C,0.600000*%
%TD*%
%TA.AperFunction,Conductor*%
%ADD21C,1.000000*%
%TD*%
G04 APERTURE END LIST*
D10*
%TO.P,C2,1*%
%TO.N,/ElevationV*%
X60300000Y-56250000D03*
%TO.P,C2,2*%
%TO.N,GND*%
X65300000Y-56250000D03*
%TD*%
D11*
%TO.P,J5,1,Pin_1*%
%TO.N,GND*%
X30900000Y-98900000D03*
%TD*%
D12*
%TO.P,J2,1,Pin_1*%
%TO.N,RotateCCW-OUT*%
X76560000Y-95000000D03*
D13*
%TO.P,J2,2,Pin_2*%
X79100000Y-95000000D03*
%TO.P,J2,3,Pin_3*%
%TO.N,RotateDown-OUT*%
X81640000Y-95000000D03*
%TO.P,J2,4,Pin_4*%
%TO.N,RotateUP-OUT*%
X84180000Y-95000000D03*
%TD*%
D14*
%TO.P,U1,9,9*%
%TO.N,GND*%
X85625000Y-62000000D03*
X85625000Y-63000000D03*
X85625000Y-64000000D03*
D15*
X86275000Y-63000000D03*
D14*
X86925000Y-62000000D03*
X86925000Y-63000000D03*
X86925000Y-64000000D03*
%TD*%
D16*
%TO.P,R1,1*%
%TO.N,/ElevationV*%
X51020000Y-52900000D03*
D17*
%TO.P,R1,2*%
%TO.N,Net-(J9-Pin_1)*%
X56100000Y-52900000D03*
%TD*%
D16*
%TO.P,R3,1*%
%TO.N,IPRO1*%
X72100000Y-73170000D03*
D17*
%TO.P,R3,2*%
%TO.N,GND*%
X72100000Y-68090000D03*
%TD*%
D12*
%TO.P,J3,1,Pin_1*%
%TO.N,VM*%
X86625000Y-42400000D03*
D13*
%TO.P,J3,2,Pin_2*%
%TO.N,GND*%
X89165000Y-42400000D03*
%TD*%
D18*
%TO.P,C4,1*%
%TO.N,VM*%
X79700000Y-54000000D03*
D19*
%TO.P,C4,2*%
%TO.N,GND*%
X74700000Y-54000000D03*
%TD*%
D12*
%TO.P,J9,1,Pin_1*%
%TO.N,Net-(J9-Pin_1)*%
X50760000Y-43400000D03*
D13*
%TO.P,J9,2,Pin_2*%
%TO.N,Net-(J9-Pin_2)*%
X53300000Y-43400000D03*
%TO.P,J9,3,Pin_3*%
%TO.N,IPRO2*%
X55840000Y-43400000D03*
%TO.P,J9,4,Pin_4*%
%TO.N,IPRO1*%
X58380000Y-43400000D03*
%TO.P,J9,5,Pin_5*%
%TO.N,Net-(J7-Pin_5)*%
X60920000Y-43400000D03*
%TO.P,J9,6,Pin_6*%
%TO.N,/ACD0*%
X63460000Y-43400000D03*
%TD*%
D12*
%TO.P,J1,1,Pin_1*%
%TO.N,unconnected-(J1-Pin_1-Pad1)*%
X40300000Y-89540000D03*
D13*
%TO.P,J1,2,Pin_2*%
%TO.N,unconnected-(J1-Pin_2-Pad2)*%
X40300000Y-87000000D03*
%TO.P,J1,3,Pin_3*%
%TO.N,/Turn CW*%
X40300000Y-84460000D03*
%TO.P,J1,4,Pin_4*%
%TO.N,/Turn CCW*%
X40300000Y-81920000D03*
%TO.P,J1,5,Pin_5*%
%TO.N,/UP*%
X40300000Y-79380000D03*
%TO.P,J1,6,Pin_6*%
%TO.N,/DOWN*%
X40300000Y-76840000D03*
%TO.P,J1,7,Pin_7*%
%TO.N,Net-(J1-Pin_7)*%
X40300000Y-74300000D03*
%TO.P,J1,8,Pin_8*%
%TO.N,RotateDown*%
X40300000Y-71760000D03*
%TD*%
D12*
%TO.P,J11,1,Pin_1*%
%TO.N,RotateUP*%
X40600000Y-64880000D03*
D13*
%TO.P,J11,2,Pin_2*%
%TO.N,RotateCCW*%
X40600000Y-62340000D03*
%TO.P,J11,3,Pin_3*%
%TO.N,RotateCW*%
X40600000Y-59800000D03*
%TO.P,J11,4,Pin_4*%
%TO.N,unconnected-(J11-Pin_4-Pad4)*%
X40600000Y-57260000D03*
%TO.P,J11,5,Pin_5*%
%TO.N,unconnected-(J11-Pin_5-Pad5)*%
X40600000Y-54720000D03*
%TO.P,J11,6,Pin_6*%
%TO.N,unconnected-(J11-Pin_6-Pad6)*%
X40600000Y-52180000D03*
%TO.P,J11,7,Pin_7*%
%TO.N,GND*%
X40600000Y-49640000D03*
%TO.P,J11,8,Pin_8*%
%TO.N,unconnected-(J11-Pin_8-Pad8)*%
X40600000Y-47100000D03*
%TO.P,J11,9,Pin_9*%
%TO.N,/SDA*%
X40600000Y-44560000D03*
%TO.P,J11,10,Pin_10*%
%TO.N,/SCL*%
X40600000Y-42020000D03*
%TD*%
D12*
%TO.P,J7,1,Pin_1*%
%TO.N,/ElevationV*%
X51340000Y-78600000D03*
D13*
%TO.P,J7,2,Pin_2*%
%TO.N,/AzimuthV*%
X53880000Y-78600000D03*
%TO.P,J7,3,Pin_3*%
%TO.N,unconnected-(J7-Pin_3-Pad3)*%
X56420000Y-78600000D03*
%TO.P,J7,4,Pin_4*%
%TO.N,unconnected-(J7-Pin_4-Pad4)*%
X58960000Y-78600000D03*
%TO.P,J7,5,Pin_5*%
%TO.N,Net-(J7-Pin_5)*%
X61500000Y-78600000D03*
%TO.P,J7,6,Pin_6*%
%TO.N,/ACD0*%
X64040000Y-78600000D03*
%TD*%
D11*
%TO.P,J12,1,Pin_1*%
%TO.N,GND*%
X102600000Y-98700000D03*
%TD*%
D12*
%TO.P,J4,1,Pin_1*%
%TO.N,/SDA*%
X70020000Y-43300000D03*
D13*
%TO.P,J4,2,Pin_2*%
%TO.N,/SCL*%
X72560000Y-43300000D03*
%TO.P,J4,3,Pin_3*%
%TO.N,5V*%
X75100000Y-43300000D03*
%TO.P,J4,4,Pin_4*%
%TO.N,GND*%
X77640000Y-43300000D03*
%TD*%
D16*
%TO.P,R2,1*%
%TO.N,/AzimuthV*%
X51020000Y-56050000D03*
D17*
%TO.P,R2,2*%
%TO.N,Net-(J9-Pin_2)*%
X56100000Y-56050000D03*
%TD*%
D12*
%TO.P,J6,1,Pin_1*%
%TO.N,GND*%
X51500000Y-65000000D03*
D13*
%TO.P,J6,2,Pin_2*%
X54040000Y-65000000D03*
%TO.P,J6,3,Pin_3*%
%TO.N,/Turn CW*%
X56580000Y-65000000D03*
%TO.P,J6,4,Pin_4*%
%TO.N,/Turn CCW*%
X59120000Y-65000000D03*
%TO.P,J6,5,Pin_5*%
%TO.N,/UP*%
X61660000Y-65000000D03*
%TO.P,J6,6,Pin_6*%
%TO.N,/DOWN*%
X64200000Y-65000000D03*
%TO.P,J6,7,Pin_7*%
%TO.N,Net-(J1-Pin_7)*%
X66740000Y-65000000D03*
%TD*%
D16*
%TO.P,R4,1*%
%TO.N,IPRO2*%
X72000000Y-60800000D03*
D17*
%TO.P,R4,2*%
%TO.N,GND*%
X72000000Y-65880000D03*
%TD*%
D12*
%TO.P,J8,1,Pin_1*%
%TO.N,unconnected-(J8-Pin_1-Pad1)*%
X50520000Y-94800000D03*
D13*
%TO.P,J8,2,Pin_2*%
%TO.N,GND*%
X53060000Y-94800000D03*
%TO.P,J8,3,Pin_3*%
X55600000Y-94800000D03*
%TO.P,J8,4,Pin_4*%
%TO.N,5V*%
X58140000Y-94800000D03*
%TO.P,J8,5,Pin_5*%
%TO.N,Vref*%
X60680000Y-94800000D03*
%TO.P,J8,6,Pin_6*%
%TO.N,unconnected-(J8-Pin_6-Pad6)*%
X63220000Y-94800000D03*
%TO.P,J8,7,Pin_7*%
%TO.N,unconnected-(J8-Pin_7-Pad7)*%
X65760000Y-94800000D03*
%TO.P,J8,8,Pin_8*%
%TO.N,unconnected-(J8-Pin_8-Pad8)*%
X68300000Y-94800000D03*
%TD*%
D14*
%TO.P,U2,9,9*%
%TO.N,GND*%
X85500000Y-77010000D03*
X85500000Y-78010000D03*
X85500000Y-79010000D03*
D15*
X86150000Y-78010000D03*
D14*
X86800000Y-77010000D03*
X86800000Y-78010000D03*
X86800000Y-79010000D03*
%TD*%
D11*
%TO.P,J13,1,Pin_1*%
%TO.N,GND*%
X102600000Y-60100000D03*
%TD*%
%TO.P,J14,1,Pin_1*%
%TO.N,GND*%
X102700000Y-40000000D03*
%TD*%
D10*
%TO.P,C3,1*%
%TO.N,VM*%
X69000000Y-56500000D03*
%TO.P,C3,2*%
%TO.N,GND*%
X69000000Y-51500000D03*
%TD*%
D11*
%TO.P,J10,1,Pin_1*%
%TO.N,GND*%
X30800000Y-39800000D03*
%TD*%
%TO.P,J15,1,Pin_1*%
%TO.N,GND*%
X102700000Y-79400000D03*
%TD*%
D10*
%TO.P,C1,1*%
%TO.N,/AzimuthV*%
X60300000Y-52200000D03*
%TO.P,C1,2*%
%TO.N,GND*%
X65300000Y-52200000D03*
%TD*%
D20*
%TO.N,GND*%
X46000000Y-42750000D03*
X88000000Y-59000000D03*
X87000000Y-59000000D03*
X86000000Y-59000000D03*
X85000000Y-59000000D03*
X84000000Y-59000000D03*
X93000000Y-81000000D03*
X93000000Y-79000000D03*
X93000000Y-76000000D03*
X93000000Y-74000000D03*
X93000000Y-71000000D03*
X93000000Y-68000000D03*
X93000000Y-65000000D03*
X92000000Y-63000000D03*
X47000000Y-71750000D03*
X65500000Y-61750000D03*
X80250000Y-82500000D03*
X82000000Y-82500000D03*
X83750000Y-82500000D03*
X90000000Y-72250000D03*
X90000000Y-70500000D03*
X90000000Y-69250000D03*
X85750000Y-72250000D03*
X85750000Y-70500000D03*
X85750000Y-69000000D03*
X45750000Y-81000000D03*
X45500000Y-75000000D03*
X66250000Y-69500000D03*
X45250000Y-56250000D03*
X45250000Y-52500000D03*
X57750000Y-49500000D03*
X70000000Y-73750000D03*
X51500000Y-62000000D03*
X49750000Y-62000000D03*
X48000000Y-65000000D03*
%TO.N,Net-(J9-Pin_1)*%
X52444900Y-50109800D03*
%TO.N,/Turn CW*%
X44122900Y-65740700D03*
%TO.N,Net-(J1-Pin_7)*%
X44750000Y-70500000D03*
%TO.N,RotateUP-OUT*%
X90663200Y-76472600D03*
%TO.N,VM*%
X88150700Y-80877700D03*
X88742300Y-67685000D03*
%TO.N,/AzimuthV*%
X74763600Y-60478500D03*
%TO.N,RotateCCW*%
X45285500Y-61301900D03*
%TO.N,Vref*%
X79945700Y-72374400D03*
%TO.N,RotateUP*%
X47691500Y-67793600D03*
X49640700Y-71596500D03*
%TO.N,Net-(J7-Pin_5)*%
X73388500Y-55313800D03*
X61923200Y-47180600D03*
%TD*%
D21*
%TO.N,Net-(J1-Pin_7)*%
X44750000Y-71700000D02*
X42150000Y-74300000D01*
X42150000Y-74300000D02*
X40300000Y-74300000D01*
X44750000Y-70500000D02*
X44750000Y-71700000D01*
%TO.N,/Turn CW*%
X56580000Y-65000000D02*
X52580000Y-61000000D01*
X52580000Y-61000000D02*
X48863600Y-61000000D01*
X48863600Y-61000000D02*
X44122900Y-65740700D01*
%TO.N,Net-(J9-Pin_2)*%
X56100000Y-56050000D02*
X56100000Y-54350000D01*
X53576600Y-45526600D02*
X53300000Y-45250000D01*
X53576600Y-52266800D02*
X53576600Y-45526600D01*
X55659800Y-54350000D02*
X53576600Y-52266800D01*
X56100000Y-54350000D02*
X55659800Y-54350000D01*
X53300000Y-43400000D02*
X53300000Y-45250000D01*
%TO.N,Net-(J9-Pin_1)*%
X50760000Y-48424900D02*
X52444900Y-50109800D01*
X50760000Y-43400000D02*
X50760000Y-48424900D01*
%TO.N,/ACD0*%
X63460000Y-56488800D02*
X63460000Y-43400000D01*
X68222900Y-61251700D02*
X63460000Y-56488800D01*
X68222900Y-72567100D02*
X68222900Y-61251700D01*
X64040000Y-76750000D02*
X68222900Y-72567100D01*
X64040000Y-78600000D02*
X64040000Y-76750000D01*
%TO.N,/Turn CCW*%
X38809500Y-80429500D02*
X40300000Y-81920000D01*
X38809500Y-71152100D02*
X38809500Y-80429500D01*
X41523600Y-68438000D02*
X38809500Y-71152100D01*
X44470300Y-68438000D02*
X41523600Y-68438000D01*
X46426600Y-66481700D02*
X44470300Y-68438000D01*
X57638300Y-66481700D02*
X46426600Y-66481700D01*
X59120000Y-65000000D02*
X57638300Y-66481700D01*
%TO.N,/DOWN*%
X40300000Y-76840000D02*
X42150000Y-76840000D01*
X52360000Y-76840000D02*
X64200000Y-65000000D01*
X42150000Y-76840000D02*
X52360000Y-76840000D01*
%TO.N,RotateUP-OUT*%
X90663200Y-86666800D02*
X84180000Y-93150000D01*
X90663200Y-76472600D02*
X90663200Y-86666800D01*
X84180000Y-95000000D02*
X84180000Y-93150000D01*
%TO.N,VM*%
X88425800Y-67685000D02*
X88150700Y-67960100D01*
X88742300Y-67685000D02*
X88425800Y-67685000D01*
X88150700Y-80877700D02*
X88150700Y-67960100D01*
X79700000Y-59509400D02*
X88150700Y-67960100D01*
X79700000Y-54000000D02*
X79700000Y-59509400D01*
X86625000Y-45075000D02*
X86625000Y-42400000D01*
X79700000Y-52000000D02*
X86625000Y-45075000D01*
X79700000Y-54000000D02*
X79700000Y-52000000D01*
%TO.N,/ElevationV*%
X59152400Y-57397600D02*
X60300000Y-56250000D01*
X55517600Y-57397600D02*
X59152400Y-57397600D01*
X51020000Y-52900000D02*
X55517600Y-57397600D01*
X51020000Y-50341300D02*
X51020000Y-52900000D01*
X41215900Y-40537200D02*
X51020000Y-50341300D01*
X39976400Y-40537200D02*
X41215900Y-40537200D01*
X37668900Y-42844700D02*
X39976400Y-40537200D01*
X37668900Y-89540100D02*
X37668900Y-42844700D01*
X39200300Y-91071500D02*
X37668900Y-89540100D01*
X41361900Y-91071500D02*
X39200300Y-91071500D01*
X51340000Y-81093400D02*
X41361900Y-91071500D01*
X51340000Y-78600000D02*
X51340000Y-81093400D01*
%TO.N,/AzimuthV*%
X74763600Y-74132200D02*
X74763600Y-60478500D01*
X67630600Y-81265200D02*
X74763600Y-74132200D01*
X56545200Y-81265200D02*
X67630600Y-81265200D01*
X53880000Y-78600000D02*
X56545200Y-81265200D01*
%TO.N,RotateCCW*%
X44247400Y-62340000D02*
X45285500Y-61301900D01*
X40600000Y-62340000D02*
X44247400Y-62340000D01*
%TO.N,Vref*%
X79945700Y-73684300D02*
X79945700Y-72374400D01*
X60680000Y-92950000D02*
X79945700Y-73684300D01*
X60680000Y-94800000D02*
X60680000Y-92950000D01*
%TO.N,RotateUP*%
X49640700Y-69742800D02*
X49640700Y-71596500D01*
X47691500Y-67793600D02*
X49640700Y-69742800D01*
%TO.N,IPRO2*%
X72000000Y-48119100D02*
X72000000Y-60800000D01*
X64524200Y-40643300D02*
X72000000Y-48119100D01*
X58596700Y-40643300D02*
X64524200Y-40643300D01*
X55840000Y-43400000D02*
X58596700Y-40643300D01*
%TO.N,IPRO1*%
X70476700Y-71546700D02*
X72100000Y-73170000D01*
X70476700Y-48276000D02*
X70476700Y-71546700D01*
X64051800Y-41851100D02*
X70476700Y-48276000D01*
X59928900Y-41851100D02*
X64051800Y-41851100D01*
X58380000Y-43400000D02*
X59928900Y-41851100D01*
%TO.N,5V*%
X76332100Y-46382100D02*
X75100000Y-45150000D01*
X76332100Y-74757900D02*
X76332100Y-46382100D01*
X58140000Y-92950000D02*
X76332100Y-74757900D01*
X58140000Y-94800000D02*
X58140000Y-92950000D01*
X75100000Y-43300000D02*
X75100000Y-45150000D01*
%TO.N,Net-(J7-Pin_5)*%
X73481800Y-55407100D02*
X73388500Y-55313800D01*
X73481800Y-73741400D02*
X73481800Y-55407100D01*
X67115600Y-80107600D02*
X73481800Y-73741400D01*
X63007600Y-80107600D02*
X67115600Y-80107600D01*
X61500000Y-78600000D02*
X63007600Y-80107600D01*
X60920000Y-46177400D02*
X60920000Y-43400000D01*
X61923200Y-47180600D02*
X60920000Y-46177400D01*
%TD*%
%TA.AperFunction,Conductor*%
%TO.N,GND*%
G36*
X49932539Y-77860185D02*
G01*
X49978294Y-77912989D01*
X49989500Y-77964500D01*
X49989500Y-79497870D01*
X49989501Y-79497876D01*
X49995908Y-79557483D01*
X50046202Y-79692328D01*
X50046206Y-79692335D01*
X50132452Y-79807544D01*
X50132455Y-79807547D01*
X50247665Y-79893794D01*
X50247667Y-79893794D01*
X50247669Y-79893796D01*
X50258830Y-79897958D01*
X50314764Y-79939826D01*
X50339184Y-80005289D01*
X50339500Y-80014141D01*
X50339500Y-80627617D01*
X50319815Y-80694656D01*
X50303181Y-80715298D01*
X41862180Y-89156299D01*
X41800857Y-89189784D01*
X41731165Y-89184800D01*
X41675232Y-89142928D01*
X41650815Y-89077464D01*
X41650499Y-89068618D01*
X41650499Y-88642129D01*
X41650498Y-88642123D01*
X41650497Y-88642116D01*
X41644091Y-88582517D01*
X41593796Y-88447669D01*
X41593795Y-88447668D01*
X41593793Y-88447664D01*
X41507547Y-88332455D01*
X41507544Y-88332452D01*
X41392335Y-88246206D01*
X41392328Y-88246202D01*
X41260917Y-88197189D01*
X41204983Y-88155318D01*
X41180566Y-88089853D01*
X41195418Y-88021580D01*
X41216563Y-87993332D01*
X41338495Y-87871401D01*
X41474035Y-87677830D01*
X41573903Y-87463663D01*
X41635063Y-87235408D01*
X41655659Y-87000000D01*
X41635063Y-86764592D01*
X41573903Y-86536337D01*
X41474035Y-86322171D01*
X41436144Y-86268056D01*
X41338494Y-86128597D01*
X41171402Y-85961506D01*
X41171396Y-85961501D01*
X40985842Y-85831575D01*
X40942217Y-85776998D01*
X40935023Y-85707500D01*
X40966546Y-85645145D01*
X40985842Y-85628425D01*
X41008026Y-85612891D01*
X41171401Y-85498495D01*
X41338495Y-85331401D01*
X41474035Y-85137830D01*
X41573903Y-84923663D01*
X41635063Y-84695408D01*
X41655659Y-84460000D01*
X41635063Y-84224592D01*
X41573903Y-83996337D01*
X41474035Y-83782171D01*
X41338495Y-83588599D01*
X41338494Y-83588597D01*
X41171402Y-83421506D01*
X41171396Y-83421501D01*
X40985842Y-83291575D01*
X40942217Y-83236998D01*
X40935023Y-83167500D01*
X40966546Y-83105145D01*
X40985842Y-83088425D01*
X41008026Y-83072891D01*
X41171401Y-82958495D01*
X41338495Y-82791401D01*
X41474035Y-82597830D01*
X41573903Y-82383663D01*
X41635063Y-82155408D01*
X41655659Y-81920000D01*
X41635063Y-81684592D01*
X41573903Y-81456337D01*
X41474035Y-81242171D01*
X41438865Y-81191942D01*
X41338494Y-81048597D01*
X41171402Y-80881506D01*
X41171396Y-80881501D01*
X40985842Y-80751575D01*
X40942217Y-80696998D01*
X40935023Y-80627500D01*
X40966546Y-80565145D01*
X40985842Y-80548425D01*
X41008026Y-80532891D01*
X41171401Y-80418495D01*
X41338495Y-80251401D01*
X41474035Y-80057830D01*
X41573903Y-79843663D01*
X41635063Y-79615408D01*
X41655659Y-79380000D01*
X41635063Y-79144592D01*
X41573903Y-78916337D01*
X41474035Y-78702171D01*
X41402495Y-78600000D01*
X41338494Y-78508597D01*
X41171402Y-78341506D01*
X41171396Y-78341501D01*
X40985842Y-78211575D01*
X40942217Y-78156998D01*
X40935023Y-78087500D01*
X40966546Y-78025145D01*
X40985842Y-78008425D01*
X41120469Y-77914158D01*
X41171401Y-77878495D01*
X41173077Y-77876819D01*
X41173995Y-77876317D01*
X41175544Y-77875018D01*
X41175805Y-77875329D01*
X41234400Y-77843334D01*
X41260758Y-77840500D01*
X42051459Y-77840500D01*
X49865500Y-77840500D01*
X49932539Y-77860185D01*
G37*
%TD.AperFunction*%
%TA.AperFunction,Conductor*%
G36*
X64812350Y-44030321D02*
G01*
X64832264Y-44046484D01*
X69439881Y-48654101D01*
X69473366Y-48715424D01*
X69476200Y-48741782D01*
X69476200Y-55119620D01*
X69456515Y-55186659D01*
X69403711Y-55232414D01*
X69334553Y-55242358D01*
X69320107Y-55239395D01*
X69226697Y-55214366D01*
X69226693Y-55214365D01*
X69226692Y-55214365D01*
X69226691Y-55214364D01*
X69226686Y-55214364D01*
X69000002Y-55194532D01*
X68999998Y-55194532D01*
X68773313Y-55214364D01*
X68773302Y-55214366D01*
X68553511Y-55273258D01*
X68553502Y-55273261D01*
X68347267Y-55369431D01*
X68347265Y-55369432D01*
X68160858Y-55499954D01*
X67999954Y-55660858D01*
X67869432Y-55847265D01*
X67869431Y-55847267D01*
X67773261Y-56053502D01*
X67773258Y-56053511D01*
X67714366Y-56273302D01*
X67714364Y-56273313D01*
X67694532Y-56499998D01*
X67694532Y-56500001D01*
X67714364Y-56726686D01*
X67714366Y-56726697D01*
X67773258Y-56946488D01*
X67773261Y-56946497D01*
X67869431Y-57152732D01*
X67869432Y-57152734D01*
X67999954Y-57339141D01*
X68160858Y-57500045D01*
X68160861Y-57500047D01*
X68347266Y-57630568D01*
X68553504Y-57726739D01*
X68773308Y-57785635D01*
X68935230Y-57799801D01*
X68999998Y-57805468D01*
X69000000Y-57805468D01*
X69000002Y-57805468D01*
X69056673Y-57800509D01*
X69226692Y-57785635D01*
X69320109Y-57760604D01*
X69389956Y-57762267D01*
X69447819Y-57801429D01*
X69475323Y-57865657D01*
X69476200Y-57880379D01*
X69476200Y-71645241D01*
X69479426Y-71661459D01*
X69514647Y-71838529D01*
X69514650Y-71838538D01*
X69528566Y-71872132D01*
X69528567Y-71872138D01*
X69528568Y-71872138D01*
X69590064Y-72020606D01*
X69590071Y-72020619D01*
X69699560Y-72184482D01*
X69843237Y-72328159D01*
X69843259Y-72328179D01*
X70895401Y-73380321D01*
X70926986Y-73434067D01*
X70975770Y-73605525D01*
X70975775Y-73605538D01*
X71074938Y-73804683D01*
X71074943Y-73804691D01*
X71209020Y-73982238D01*
X71373437Y-74132123D01*
X71373439Y-74132125D01*
X71427295Y-74165471D01*
X71473931Y-74217499D01*
X71485035Y-74286480D01*
X71457082Y-74350515D01*
X71449699Y-74358579D01*
X66737499Y-79070781D01*
X66676176Y-79104266D01*
X66649818Y-79107100D01*
X65463864Y-79107100D01*
X65396825Y-79087415D01*
X65351070Y-79034611D01*
X65341126Y-78965453D01*
X65344089Y-78951007D01*
X65353379Y-78916335D01*
X65375063Y-78835408D01*
X65395659Y-78600000D01*
X65375063Y-78364592D01*
X65313903Y-78136337D01*
X65214035Y-77922171D01*
X65208425Y-77914158D01*
X65078494Y-77728597D01*
X65076819Y-77726922D01*
X65076315Y-77726000D01*
X65075014Y-77724449D01*
X65075325Y-77724187D01*
X65043334Y-77665599D01*
X65040500Y-77639241D01*
X65040500Y-77215781D01*
X65060185Y-77148742D01*
X65076814Y-77128105D01*
X68860678Y-73344241D01*
X68860682Y-73344239D01*
X69000039Y-73204882D01*
X69109532Y-73041014D01*
X69176986Y-72878164D01*
X69184951Y-72858936D01*
X69208430Y-72740900D01*
X69223400Y-72665641D01*
X69223400Y-61153159D01*
X69223400Y-61153156D01*
X69202383Y-61047500D01*
X69194936Y-61010064D01*
X69194936Y-61010063D01*
X69194936Y-61010061D01*
X69184952Y-60959871D01*
X69184951Y-60959864D01*
X69167926Y-60918764D01*
X69153441Y-60883792D01*
X69153429Y-60883765D01*
X69109535Y-60777792D01*
X69109533Y-60777788D01*
X69109532Y-60777786D01*
X69000039Y-60613918D01*
X68860682Y-60474561D01*
X68860681Y-60474560D01*
X64496819Y-56110698D01*
X64463334Y-56049375D01*
X64460500Y-56023017D01*
X64460500Y-44360758D01*
X64480185Y-44293719D01*
X64496819Y-44273077D01*
X64498495Y-44271401D01*
X64634035Y-44077830D01*
X64634037Y-44077823D01*
X64636740Y-44073144D01*
X64638781Y-44074322D01*
X64678275Y-44029383D01*
X64745450Y-44010168D01*
X64812350Y-44030321D01*
G37*
%TD.AperFunction*%
%TA.AperFunction,Conductor*%
G36*
X65554855Y-65666546D02*
G01*
X65571575Y-65685842D01*
X65678985Y-65839240D01*
X65701505Y-65871401D01*
X65868599Y-66038495D01*
X65965384Y-66106265D01*
X66062165Y-66174032D01*
X66062167Y-66174033D01*
X66062170Y-66174035D01*
X66276337Y-66273903D01*
X66504592Y-66335063D01*
X66675056Y-66349977D01*
X66739999Y-66355659D01*
X66740000Y-66355659D01*
X66740001Y-66355659D01*
X66787182Y-66351531D01*
X66975408Y-66335063D01*
X67066310Y-66310706D01*
X67136156Y-66312369D01*
X67194018Y-66351531D01*
X67221523Y-66415759D01*
X67222400Y-66430481D01*
X67222400Y-72101317D01*
X67202715Y-72168356D01*
X67186081Y-72188998D01*
X65242956Y-74132123D01*
X63402221Y-75972858D01*
X63402218Y-75972861D01*
X63332538Y-76042540D01*
X63262859Y-76112219D01*
X63153371Y-76276080D01*
X63153364Y-76276093D01*
X63136926Y-76315781D01*
X63136926Y-76315782D01*
X63077949Y-76458163D01*
X63077947Y-76458171D01*
X63060047Y-76548163D01*
X63060047Y-76548164D01*
X63039500Y-76651456D01*
X63039500Y-77639241D01*
X63019815Y-77706280D01*
X63003181Y-77726922D01*
X63001505Y-77728597D01*
X62871575Y-77914158D01*
X62816998Y-77957783D01*
X62747500Y-77964977D01*
X62685145Y-77933454D01*
X62668425Y-77914158D01*
X62538494Y-77728597D01*
X62371402Y-77561506D01*
X62371395Y-77561501D01*
X62177834Y-77425967D01*
X62177830Y-77425965D01*
X62177828Y-77425964D01*
X61963663Y-77326097D01*
X61963659Y-77326096D01*
X61963655Y-77326094D01*
X61735413Y-77264938D01*
X61735403Y-77264936D01*
X61500001Y-77244341D01*
X61499999Y-77244341D01*
X61264596Y-77264936D01*
X61264586Y-77264938D01*
X61036344Y-77326094D01*
X61036335Y-77326098D01*
X60822171Y-77425964D01*
X60822169Y-77425965D01*
X60628597Y-77561505D01*
X60461505Y-77728597D01*
X60331575Y-77914158D01*
X60276998Y-77957783D01*
X60207500Y-77964977D01*
X60145145Y-77933454D01*
X60128425Y-77914158D01*
X59998494Y-77728597D01*
X59831402Y-77561506D01*
X59831395Y-77561501D01*
X59637834Y-77425967D01*
X59637830Y-77425965D01*
X59637828Y-77425964D01*
X59423663Y-77326097D01*
X59423659Y-77326096D01*
X59423655Y-77326094D01*
X59195413Y-77264938D01*
X59195403Y-77264936D01*
X58960001Y-77244341D01*
X58959999Y-77244341D01*
X58724596Y-77264936D01*
X58724586Y-77264938D01*
X58496344Y-77326094D01*
X58496335Y-77326098D01*
X58282171Y-77425964D01*
X58282169Y-77425965D01*
X58088597Y-77561505D01*
X57921505Y-77728597D01*
X57791575Y-77914158D01*
X57736998Y-77957783D01*
X57667500Y-77964977D01*
X57605145Y-77933454D01*
X57588425Y-77914158D01*
X57458494Y-77728597D01*
X57291402Y-77561506D01*
X57291395Y-77561501D01*
X57097834Y-77425967D01*
X57097830Y-77425965D01*
X57097828Y-77425964D01*
X56883663Y-77326097D01*
X56883659Y-77326096D01*
X56883655Y-77326094D01*
X56655413Y-77264938D01*
X56655403Y-77264936D01*
X56420001Y-77244341D01*
X56419999Y-77244341D01*
X56184596Y-77264936D01*
X56184586Y-77264938D01*
X55956344Y-77326094D01*
X55956335Y-77326098D01*
X55742171Y-77425964D01*
X55742169Y-77425965D01*
X55548597Y-77561505D01*
X55381505Y-77728597D01*
X55251575Y-77914158D01*
X55196998Y-77957783D01*
X55127500Y-77964977D01*
X55065145Y-77933454D01*
X55048425Y-77914158D01*
X54918494Y-77728597D01*
X54751402Y-77561506D01*
X54751395Y-77561501D01*
X54557834Y-77425967D01*
X54557830Y-77425965D01*
X54557828Y-77425964D01*
X54343663Y-77326097D01*
X54343659Y-77326096D01*
X54343655Y-77326094D01*
X54115413Y-77264938D01*
X54115403Y-77264936D01*
X53880001Y-77244341D01*
X53879998Y-77244341D01*
X53661125Y-77263490D01*
X53592625Y-77249723D01*
X53542442Y-77201108D01*
X53526509Y-77133079D01*
X53549884Y-77067236D01*
X53562630Y-77052288D01*
X64233031Y-66381888D01*
X64294352Y-66348405D01*
X64309896Y-66346044D01*
X64435408Y-66335063D01*
X64663663Y-66273903D01*
X64877830Y-66174035D01*
X65071401Y-66038495D01*
X65238495Y-65871401D01*
X65368425Y-65685842D01*
X65423002Y-65642217D01*
X65492500Y-65635023D01*
X65554855Y-65666546D01*
G37*
%TD.AperFunction*%
%TA.AperFunction,Conductor*%
G36*
X60474855Y-65666546D02*
G01*
X60491575Y-65685842D01*
X60598985Y-65839240D01*
X60621505Y-65871401D01*
X60788599Y-66038495D01*
X60885384Y-66106265D01*
X60982165Y-66174032D01*
X60982167Y-66174033D01*
X60982170Y-66174035D01*
X61196337Y-66273903D01*
X61196342Y-66273904D01*
X61196346Y-66273906D01*
X61237184Y-66284848D01*
X61296845Y-66321212D01*
X61327375Y-66384059D01*
X61319081Y-66453434D01*
X61292773Y-66492304D01*
X51981899Y-75803181D01*
X51920576Y-75836666D01*
X51894218Y-75839500D01*
X41260758Y-75839500D01*
X41193719Y-75819815D01*
X41173077Y-75803181D01*
X41171402Y-75801506D01*
X41171396Y-75801501D01*
X40985842Y-75671575D01*
X40942217Y-75616998D01*
X40935023Y-75547500D01*
X40966546Y-75485145D01*
X40985842Y-75468425D01*
X41008026Y-75452891D01*
X41171401Y-75338495D01*
X41173077Y-75336819D01*
X41173995Y-75336317D01*
X41175544Y-75335018D01*
X41175805Y-75335329D01*
X41234400Y-75303334D01*
X41260758Y-75300500D01*
X42248542Y-75300500D01*
X42267870Y-75296655D01*
X42345188Y-75281275D01*
X42441836Y-75262051D01*
X42514834Y-75231814D01*
X42623914Y-75186632D01*
X42787782Y-75077139D01*
X42927139Y-74937782D01*
X42927139Y-74937780D01*
X42937347Y-74927573D01*
X42937348Y-74927570D01*
X45527139Y-72337782D01*
X45539355Y-72319500D01*
X45636632Y-72173914D01*
X45698364Y-72024878D01*
X45712051Y-71991836D01*
X45730220Y-71900492D01*
X45742544Y-71838538D01*
X45742544Y-71838535D01*
X45750500Y-71798541D01*
X45750500Y-70401456D01*
X45712052Y-70208170D01*
X45712051Y-70208169D01*
X45712051Y-70208165D01*
X45690949Y-70157220D01*
X45636635Y-70026092D01*
X45636628Y-70026079D01*
X45527139Y-69862218D01*
X45527136Y-69862214D01*
X45387785Y-69722863D01*
X45387781Y-69722860D01*
X45223920Y-69613371D01*
X45223907Y-69613364D01*
X45041839Y-69537950D01*
X45041829Y-69537947D01*
X45014203Y-69532452D01*
X44952292Y-69500066D01*
X44917718Y-69439350D01*
X44921459Y-69369581D01*
X44962326Y-69312909D01*
X44969484Y-69307747D01*
X45108082Y-69215139D01*
X45247439Y-69075782D01*
X45247440Y-69075780D01*
X45254506Y-69068714D01*
X45254509Y-69068710D01*
X46483838Y-67839380D01*
X46545159Y-67805897D01*
X46614851Y-67810881D01*
X46670784Y-67852753D01*
X46693134Y-67902872D01*
X46729447Y-68085428D01*
X46729449Y-68085436D01*
X46804867Y-68267510D01*
X46804872Y-68267520D01*
X46914360Y-68431380D01*
X46914363Y-68431384D01*
X48603881Y-70120901D01*
X48637366Y-70182224D01*
X48640200Y-70208582D01*
X48640200Y-71695041D01*
X48640200Y-71695043D01*
X48640199Y-71695043D01*
X48678647Y-71888329D01*
X48678650Y-71888339D01*
X48754064Y-72070407D01*
X48754071Y-72070420D01*
X48863560Y-72234281D01*
X48863563Y-72234285D01*
X49002914Y-72373636D01*
X49002918Y-72373639D01*
X49166779Y-72483128D01*
X49166792Y-72483135D01*
X49348860Y-72558549D01*
X49348865Y-72558551D01*
X49348869Y-72558551D01*
X49348870Y-72558552D01*
X49542156Y-72597000D01*
X49542159Y-72597000D01*
X49739243Y-72597000D01*
X49869282Y-72571132D01*
X49932535Y-72558551D01*
X50114614Y-72483132D01*
X50278482Y-72373639D01*
X50417839Y-72234282D01*
X50527332Y-72070414D01*
X50602751Y-71888335D01*
X50641200Y-71695041D01*
X50641200Y-69644259D01*
X50641200Y-69644256D01*
X50602752Y-69450970D01*
X50602751Y-69450969D01*
X50602751Y-69450965D01*
X50545567Y-69312909D01*
X50527335Y-69268892D01*
X50527328Y-69268879D01*
X50417839Y-69105018D01*
X50417836Y-69105014D01*
X50275386Y-68962564D01*
X50275355Y-68962535D01*
X49006701Y-67693881D01*
X48973216Y-67632558D01*
X48978200Y-67562866D01*
X49020072Y-67506933D01*
X49085536Y-67482516D01*
X49094382Y-67482200D01*
X57736842Y-67482200D01*
X57756170Y-67478355D01*
X57833488Y-67462975D01*
X57930136Y-67443751D01*
X57983465Y-67421661D01*
X58112214Y-67368332D01*
X58276082Y-67258839D01*
X58415439Y-67119482D01*
X58415440Y-67119479D01*
X58422506Y-67112414D01*
X58422509Y-67112410D01*
X59153030Y-66381888D01*
X59214351Y-66348405D01*
X59229894Y-66346044D01*
X59355408Y-66335063D01*
X59583663Y-66273903D01*
X59797830Y-66174035D01*
X59991401Y-66038495D01*
X60158495Y-65871401D01*
X60288425Y-65685842D01*
X60343002Y-65642217D01*
X60412500Y-65635023D01*
X60474855Y-65666546D01*
G37*
%TD.AperFunction*%
%TA.AperFunction,Conductor*%
G36*
X71645988Y-61950292D02*
G01*
X71670060Y-61959618D01*
X71888757Y-62000500D01*
X71888759Y-62000500D01*
X72111241Y-62000500D01*
X72111243Y-62000500D01*
X72329940Y-61959618D01*
X72329943Y-61959616D01*
X72334515Y-61958762D01*
X72404030Y-61965793D01*
X72458708Y-62009290D01*
X72481191Y-62075444D01*
X72481300Y-62080651D01*
X72481300Y-71837018D01*
X72461615Y-71904057D01*
X72408811Y-71949812D01*
X72339653Y-71959756D01*
X72276097Y-71930731D01*
X72269619Y-71924699D01*
X71513519Y-71168599D01*
X71480034Y-71107276D01*
X71477200Y-71080918D01*
X71477200Y-62065920D01*
X71496885Y-61998881D01*
X71549689Y-61953126D01*
X71618847Y-61943182D01*
X71645988Y-61950292D01*
G37*
%TD.AperFunction*%
%TA.AperFunction,Conductor*%
G36*
X39372062Y-42658969D02*
G01*
X39427996Y-42700840D01*
X39430304Y-42704027D01*
X39561505Y-42891401D01*
X39561506Y-42891402D01*
X39728597Y-43058493D01*
X39728603Y-43058498D01*
X39914158Y-43188425D01*
X39957783Y-43243002D01*
X39964977Y-43312500D01*
X39933454Y-43374855D01*
X39914158Y-43391575D01*
X39728597Y-43521505D01*
X39561505Y-43688597D01*
X39425965Y-43882169D01*
X39425964Y-43882171D01*
X39326098Y-44096335D01*
X39326094Y-44096344D01*
X39264938Y-44324586D01*
X39264936Y-44324596D01*
X39244341Y-44559999D01*
X39244341Y-44560000D01*
X39264936Y-44795403D01*
X39264938Y-44795413D01*
X39326094Y-45023655D01*
X39326096Y-45023659D01*
X39326097Y-45023663D01*
X39424533Y-45234760D01*
X39425965Y-45237830D01*
X39425967Y-45237834D01*
X39561501Y-45431395D01*
X39561506Y-45431402D01*
X39728597Y-45598493D01*
X39728603Y-45598498D01*
X39914158Y-45728425D01*
X39957783Y-45783002D01*
X39964977Y-45852500D01*
X39933454Y-45914855D01*
X39914158Y-45931575D01*
X39728597Y-46061505D01*
X39561505Y-46228597D01*
X39425965Y-46422169D01*
X39425964Y-46422171D01*
X39326098Y-46636335D01*
X39326094Y-46636344D01*
X39264938Y-46864586D01*
X39264936Y-46864596D01*
X39244341Y-47099999D01*
X39244341Y-47100000D01*
X39264936Y-47335403D01*
X39264938Y-47335413D01*
X39326094Y-47563655D01*
X39326096Y-47563659D01*
X39326097Y-47563663D01*
X39373762Y-47665880D01*
X39425965Y-47777830D01*
X39425967Y-47777834D01*
X39534281Y-47932521D01*
X39561505Y-47971401D01*
X39728599Y-48138495D01*
X39734536Y-48142652D01*
X39922165Y-48274032D01*
X39922167Y-48274033D01*
X39922170Y-48274035D01*
X40136337Y-48373903D01*
X40364592Y-48435063D01*
X40552918Y-48451539D01*
X40599999Y-48455659D01*
X40600000Y-48455659D01*
X40600001Y-48455659D01*
X40639234Y-48452226D01*
X40835408Y-48435063D01*
X41063663Y-48373903D01*
X41277830Y-48274035D01*
X41471401Y-48138495D01*
X41638495Y-47971401D01*
X41774035Y-47777830D01*
X41873903Y-47563663D01*
X41935063Y-47335408D01*
X41955659Y-47100000D01*
X41935063Y-46864592D01*
X41873903Y-46636337D01*
X41774035Y-46422171D01*
X41676976Y-46283555D01*
X41638494Y-46228597D01*
X41471402Y-46061506D01*
X41471396Y-46061501D01*
X41285842Y-45931575D01*
X41242217Y-45876998D01*
X41235023Y-45807500D01*
X41266546Y-45745145D01*
X41285842Y-45728425D01*
X41435090Y-45623920D01*
X41471401Y-45598495D01*
X41638495Y-45431401D01*
X41774035Y-45237830D01*
X41873903Y-45023663D01*
X41935063Y-44795408D01*
X41955659Y-44560000D01*
X41935063Y-44324592D01*
X41873903Y-44096337D01*
X41774035Y-43882171D01*
X41696916Y-43772032D01*
X41638494Y-43688597D01*
X41471402Y-43521506D01*
X41471396Y-43521501D01*
X41285842Y-43391575D01*
X41242217Y-43336998D01*
X41235023Y-43267500D01*
X41266546Y-43205145D01*
X41285842Y-43188425D01*
X41308026Y-43172891D01*
X41471401Y-43058495D01*
X41638495Y-42891401D01*
X41766524Y-42708555D01*
X41821100Y-42664932D01*
X41890598Y-42657738D01*
X41952953Y-42689261D01*
X41955779Y-42691999D01*
X49983181Y-50719401D01*
X50016666Y-50780724D01*
X50019500Y-50807082D01*
X50019500Y-52191229D01*
X49999815Y-52258268D01*
X49995234Y-52264837D01*
X49994944Y-52265305D01*
X49895775Y-52464461D01*
X49895769Y-52464476D01*
X49834885Y-52678462D01*
X49834884Y-52678464D01*
X49814357Y-52899999D01*
X49814357Y-52900000D01*
X49834884Y-53121535D01*
X49834885Y-53121537D01*
X49895769Y-53335523D01*
X49895775Y-53335538D01*
X49994938Y-53534683D01*
X49994943Y-53534691D01*
X50129020Y-53712238D01*
X50293437Y-53862123D01*
X50293439Y-53862125D01*
X50482595Y-53979245D01*
X50482596Y-53979245D01*
X50482599Y-53979247D01*
X50690060Y-54059618D01*
X50744115Y-54069722D01*
X50806395Y-54101390D01*
X50809010Y-54103930D01*
X51368760Y-54663680D01*
X51402245Y-54725003D01*
X51397261Y-54794695D01*
X51355389Y-54850628D01*
X51289925Y-54875045D01*
X51258294Y-54873250D01*
X51213041Y-54864790D01*
X51131243Y-54849500D01*
X50908757Y-54849500D01*
X50690060Y-54890382D01*
X50579555Y-54933192D01*
X50482601Y-54970752D01*
X50482595Y-54970754D01*
X50293439Y-55087874D01*
X50293437Y-55087876D01*
X50129020Y-55237761D01*
X49994943Y-55415308D01*
X49994938Y-55415316D01*
X49895775Y-55614461D01*
X49895769Y-55614476D01*
X49834885Y-55828462D01*
X49834884Y-55828464D01*
X49814357Y-56049999D01*
X49814357Y-56050000D01*
X49834884Y-56271535D01*
X49834885Y-56271537D01*
X49895769Y-56485523D01*
X49895775Y-56485538D01*
X49994938Y-56684683D01*
X49994943Y-56684691D01*
X50129020Y-56862238D01*
X50293437Y-57012123D01*
X50293439Y-57012125D01*
X50482595Y-57129245D01*
X50482596Y-57129245D01*
X50482599Y-57129247D01*
X50690060Y-57209618D01*
X50908757Y-57250500D01*
X50908759Y-57250500D01*
X51131241Y-57250500D01*
X51131243Y-57250500D01*
X51349940Y-57209618D01*
X51557401Y-57129247D01*
X51746562Y-57012124D01*
X51910981Y-56862236D01*
X52045058Y-56684689D01*
X52144229Y-56485528D01*
X52205115Y-56271536D01*
X52225643Y-56050000D01*
X52205115Y-55828464D01*
X52204062Y-55822832D01*
X52205218Y-55822615D01*
X52205754Y-55758784D01*
X52244020Y-55700325D01*
X52307817Y-55671834D01*
X52376890Y-55682358D01*
X52412115Y-55707035D01*
X54737335Y-58032255D01*
X54737364Y-58032286D01*
X54879814Y-58174736D01*
X54879818Y-58174739D01*
X55043679Y-58284228D01*
X55043692Y-58284235D01*
X55172433Y-58337561D01*
X55215344Y-58355335D01*
X55225764Y-58359651D01*
X55322412Y-58378875D01*
X55370735Y-58388487D01*
X55419058Y-58398100D01*
X55419059Y-58398100D01*
X59250942Y-58398100D01*
X59270270Y-58394255D01*
X59347588Y-58378875D01*
X59444236Y-58359651D01*
X59497565Y-58337561D01*
X59626314Y-58284232D01*
X59790182Y-58174739D01*
X59929539Y-58035382D01*
X59929539Y-58035380D01*
X59939747Y-58025173D01*
X59939748Y-58025170D01*
X60388034Y-57576885D01*
X60449355Y-57543402D01*
X60464900Y-57541041D01*
X60526692Y-57535635D01*
X60746496Y-57476739D01*
X60952734Y-57380568D01*
X61139139Y-57250047D01*
X61300047Y-57089139D01*
X61430568Y-56902734D01*
X61526739Y-56696496D01*
X61585635Y-56476692D01*
X61605468Y-56250000D01*
X61585635Y-56023308D01*
X61533427Y-55828464D01*
X61526741Y-55803511D01*
X61526738Y-55803502D01*
X61430568Y-55597266D01*
X61300047Y-55410861D01*
X61300045Y-55410858D01*
X61139141Y-55249954D01*
X60952734Y-55119432D01*
X60952732Y-55119431D01*
X60746497Y-55023261D01*
X60746488Y-55023258D01*
X60526697Y-54964366D01*
X60526693Y-54964365D01*
X60526692Y-54964365D01*
X60526691Y-54964364D01*
X60526686Y-54964364D01*
X60300002Y-54944532D01*
X60299998Y-54944532D01*
X60073313Y-54964364D01*
X60073302Y-54964366D01*
X59853511Y-55023258D01*
X59853502Y-55023261D01*
X59647267Y-55119431D01*
X59647265Y-55119432D01*
X59460858Y-55249954D01*
X59299954Y-55410858D01*
X59169432Y-55597265D01*
X59169431Y-55597267D01*
X59073261Y-55803502D01*
X59073258Y-55803511D01*
X59014365Y-56023307D01*
X59008959Y-56085093D01*
X58983506Y-56150161D01*
X58973113Y-56161965D01*
X58810469Y-56324611D01*
X58774299Y-56360781D01*
X58712976Y-56394266D01*
X58686617Y-56397100D01*
X57409501Y-56397100D01*
X57342462Y-56377415D01*
X57296707Y-56324611D01*
X57286030Y-56261659D01*
X57287111Y-56250000D01*
X57305643Y-56050000D01*
X57285115Y-55828464D01*
X57224229Y-55614472D01*
X57215661Y-55597266D01*
X57125055Y-55415305D01*
X57122038Y-55410432D01*
X57123187Y-55409720D01*
X57100853Y-55350583D01*
X57100500Y-55341229D01*
X57100500Y-54251456D01*
X57062052Y-54058170D01*
X57062051Y-54058169D01*
X57062051Y-54058165D01*
X57055425Y-54042169D01*
X56986635Y-53876092D01*
X56986630Y-53876083D01*
X56979219Y-53864992D01*
X56958340Y-53798315D01*
X56976823Y-53730935D01*
X56990704Y-53712538D01*
X56990963Y-53712252D01*
X56990981Y-53712236D01*
X57125058Y-53534689D01*
X57224229Y-53335528D01*
X57285115Y-53121536D01*
X57305643Y-52900000D01*
X57301735Y-52857830D01*
X57285115Y-52678464D01*
X57285114Y-52678462D01*
X57276019Y-52646497D01*
X57224229Y-52464472D01*
X57217054Y-52450062D01*
X57125061Y-52265316D01*
X57125056Y-52265308D01*
X57075736Y-52199998D01*
X58994532Y-52199998D01*
X58994532Y-52200001D01*
X59014364Y-52426686D01*
X59014366Y-52426697D01*
X59073258Y-52646488D01*
X59073261Y-52646497D01*
X59169431Y-52852732D01*
X59169432Y-52852734D01*
X59299954Y-53039141D01*
X59460858Y-53200045D01*
X59460861Y-53200047D01*
X59647266Y-53330568D01*
X59853504Y-53426739D01*
X60073308Y-53485635D01*
X60235230Y-53499801D01*
X60299998Y-53505468D01*
X60300000Y-53505468D01*
X60300002Y-53505468D01*
X60356673Y-53500509D01*
X60526692Y-53485635D01*
X60746496Y-53426739D01*
X60952734Y-53330568D01*
X61139139Y-53200047D01*
X61300047Y-53039139D01*
X61430568Y-52852734D01*
X61526739Y-52646496D01*
X61585635Y-52426692D01*
X61605468Y-52200000D01*
X61585635Y-51973308D01*
X61526739Y-51753504D01*
X61430568Y-51547266D01*
X61300047Y-51360861D01*
X61300045Y-51360858D01*
X61139141Y-51199954D01*
X60952734Y-51069432D01*
X60952732Y-51069431D01*
X60746497Y-50973261D01*
X60746488Y-50973258D01*
X60526697Y-50914366D01*
X60526693Y-50914365D01*
X60526692Y-50914365D01*
X60526691Y-50914364D01*
X60526686Y-50914364D01*
X60300002Y-50894532D01*
X60299998Y-50894532D01*
X60073313Y-50914364D01*
X60073302Y-50914366D01*
X59853511Y-50973258D01*
X59853502Y-50973261D01*
X59647267Y-51069431D01*
X59647265Y-51069432D01*
X59460858Y-51199954D01*
X59299954Y-51360858D01*
X59169432Y-51547265D01*
X59169431Y-51547267D01*
X59073261Y-51753502D01*
X59073258Y-51753511D01*
X59014366Y-51973302D01*
X59014364Y-51973313D01*
X58994532Y-52199998D01*
X57075736Y-52199998D01*
X56990979Y-52087761D01*
X56826562Y-51937876D01*
X56826560Y-51937874D01*
X56637404Y-51820754D01*
X56637398Y-51820752D01*
X56429940Y-51740382D01*
X56211243Y-51699500D01*
X55988757Y-51699500D01*
X55770060Y-51740382D01*
X55638864Y-51791207D01*
X55562601Y-51820752D01*
X55562595Y-51820754D01*
X55373439Y-51937874D01*
X55373437Y-51937876D01*
X55209019Y-52087762D01*
X55124281Y-52199973D01*
X55068172Y-52241608D01*
X54998460Y-52246299D01*
X54937647Y-52212926D01*
X54613419Y-51888698D01*
X54579934Y-51827375D01*
X54577100Y-51801017D01*
X54577100Y-45428056D01*
X54538652Y-45234770D01*
X54538651Y-45234769D01*
X54538651Y-45234765D01*
X54513292Y-45173543D01*
X54463235Y-45052692D01*
X54463228Y-45052679D01*
X54353739Y-44888818D01*
X54353736Y-44888814D01*
X54336819Y-44871897D01*
X54303334Y-44810574D01*
X54300500Y-44784216D01*
X54300500Y-44360758D01*
X54320185Y-44293719D01*
X54336819Y-44273077D01*
X54338495Y-44271401D01*
X54468425Y-44085842D01*
X54523002Y-44042217D01*
X54592500Y-44035023D01*
X54654855Y-44066546D01*
X54671575Y-44085842D01*
X54801500Y-44271395D01*
X54801505Y-44271401D01*
X54968599Y-44438495D01*
X55065384Y-44506265D01*
X55162165Y-44574032D01*
X55162167Y-44574033D01*
X55162170Y-44574035D01*
X55376337Y-44673903D01*
X55376343Y-44673904D01*
X55376344Y-44673905D01*
X55414826Y-44684216D01*
X55604592Y-44735063D01*
X55792918Y-44751539D01*
X55839999Y-44755659D01*
X55840000Y-44755659D01*
X55840001Y-44755659D01*
X55879234Y-44752226D01*
X56075408Y-44735063D01*
X56303663Y-44673903D01*
X56517830Y-44574035D01*
X56711401Y-44438495D01*
X56878495Y-44271401D01*
X57008425Y-44085842D01*
X57063002Y-44042217D01*
X57132500Y-44035023D01*
X57194855Y-44066546D01*
X57211575Y-44085842D01*
X57341500Y-44271395D01*
X57341505Y-44271401D01*
X57508599Y-44438495D01*
X57605384Y-44506265D01*
X57702165Y-44574032D01*
X57702167Y-44574033D01*
X57702170Y-44574035D01*
X57916337Y-44673903D01*
X57916343Y-44673904D01*
X57916344Y-44673905D01*
X57954826Y-44684216D01*
X58144592Y-44735063D01*
X58332918Y-44751539D01*
X58379999Y-44755659D01*
X58380000Y-44755659D01*
X58380001Y-44755659D01*
X58419234Y-44752226D01*
X58615408Y-44735063D01*
X58843663Y-44673903D01*
X59057830Y-44574035D01*
X59251401Y-44438495D01*
X59418495Y-44271401D01*
X59548425Y-44085842D01*
X59603002Y-44042217D01*
X59672500Y-44035023D01*
X59734855Y-44066546D01*
X59751575Y-44085842D01*
X59881501Y-44271396D01*
X59881506Y-44271402D01*
X59883181Y-44273077D01*
X59883682Y-44273995D01*
X59884982Y-44275544D01*
X59884670Y-44275805D01*
X59916666Y-44334400D01*
X59919500Y-44360758D01*
X59919500Y-46275941D01*
X59919500Y-46275943D01*
X59919499Y-46275943D01*
X59957947Y-46469229D01*
X59957950Y-46469239D01*
X60033364Y-46651307D01*
X60033371Y-46651320D01*
X60142860Y-46815181D01*
X60142863Y-46815185D01*
X60286537Y-46958859D01*
X60286559Y-46958879D01*
X61285415Y-47957736D01*
X61285419Y-47957739D01*
X61449279Y-48067227D01*
X61449283Y-48067229D01*
X61449286Y-48067231D01*
X61631364Y-48142651D01*
X61824655Y-48181099D01*
X61824658Y-48181100D01*
X61824660Y-48181100D01*
X62021742Y-48181100D01*
X62021743Y-48181099D01*
X62215036Y-48142651D01*
X62288049Y-48112407D01*
X62357516Y-48104939D01*
X62419995Y-48136213D01*
X62455648Y-48196302D01*
X62459500Y-48226969D01*
X62459500Y-56587344D01*
X62497947Y-56780630D01*
X62497949Y-56780637D01*
X62504452Y-56796334D01*
X62504454Y-56796340D01*
X62573368Y-56962714D01*
X62573369Y-56962717D01*
X62682859Y-57126580D01*
X62682860Y-57126581D01*
X62682861Y-57126582D01*
X62822218Y-57265939D01*
X62822219Y-57265939D01*
X62829286Y-57273006D01*
X62829285Y-57273006D01*
X62829289Y-57273009D01*
X67186081Y-61629801D01*
X67219566Y-61691124D01*
X67222400Y-61717482D01*
X67222400Y-63569517D01*
X67202715Y-63636556D01*
X67149911Y-63682311D01*
X67080753Y-63692255D01*
X67066308Y-63689292D01*
X66975416Y-63664939D01*
X66975412Y-63664938D01*
X66975408Y-63664937D01*
X66975406Y-63664936D01*
X66975403Y-63664936D01*
X66740001Y-63644341D01*
X66739999Y-63644341D01*
X66504596Y-63664936D01*
X66504586Y-63664938D01*
X66276344Y-63726094D01*
X66276335Y-63726098D01*
X66062171Y-63825964D01*
X66062169Y-63825965D01*
X65868597Y-63961505D01*
X65701505Y-64128597D01*
X65571575Y-64314158D01*
X65516998Y-64357783D01*
X65447500Y-64364977D01*
X65385145Y-64333454D01*
X65368425Y-64314158D01*
X65238494Y-64128597D01*
X65071402Y-63961506D01*
X65071395Y-63961501D01*
X64877834Y-63825967D01*
X64877830Y-63825965D01*
X64795693Y-63787664D01*
X64663663Y-63726097D01*
X64663659Y-63726096D01*
X64663655Y-63726094D01*
X64435413Y-63664938D01*
X64435403Y-63664936D01*
X64200001Y-63644341D01*
X64199999Y-63644341D01*
X63964596Y-63664936D01*
X63964586Y-63664938D01*
X63736344Y-63726094D01*
X63736335Y-63726098D01*
X63522171Y-63825964D01*
X63522169Y-63825965D01*
X63328597Y-63961505D01*
X63161505Y-64128597D01*
X63031575Y-64314158D01*
X62976998Y-64357783D01*
X62907500Y-64364977D01*
X62845145Y-64333454D01*
X62828425Y-64314158D01*
X62698494Y-64128597D01*
X62531402Y-63961506D01*
X62531395Y-63961501D01*
X62337834Y-63825967D01*
X62337830Y-63825965D01*
X62255693Y-63787664D01*
X62123663Y-63726097D01*
X62123659Y-63726096D01*
X62123655Y-63726094D01*
X61895413Y-63664938D01*
X61895403Y-63664936D01*
X61660001Y-63644341D01*
X61659999Y-63644341D01*
X61424596Y-63664936D01*
X61424586Y-63664938D01*
X61196344Y-63726094D01*
X61196335Y-63726098D01*
X60982171Y-63825964D01*
X60982169Y-63825965D01*
X60788597Y-63961505D01*
X60621505Y-64128597D01*
X60491575Y-64314158D01*
X60436998Y-64357783D01*
X60367500Y-64364977D01*
X60305145Y-64333454D01*
X60288425Y-64314158D01*
X60158494Y-64128597D01*
X59991402Y-63961506D01*
X59991395Y-63961501D01*
X59797834Y-63825967D01*
X59797830Y-63825965D01*
X59715693Y-63787664D01*
X59583663Y-63726097D01*
X59583659Y-63726096D01*
X59583655Y-63726094D01*
X59355413Y-63664938D01*
X59355403Y-63664936D01*
X59120001Y-63644341D01*
X59119999Y-63644341D01*
X58884596Y-63664936D01*
X58884586Y-63664938D01*
X58656344Y-63726094D01*
X58656335Y-63726098D01*
X58442171Y-63825964D01*
X58442169Y-63825965D01*
X58248597Y-63961505D01*
X58081505Y-64128597D01*
X57951575Y-64314158D01*
X57896998Y-64357783D01*
X57827500Y-64364977D01*
X57765145Y-64333454D01*
X57748425Y-64314158D01*
X57618494Y-64128597D01*
X57451402Y-63961506D01*
X57451395Y-63961501D01*
X57257834Y-63825967D01*
X57257830Y-63825965D01*
X57175693Y-63787664D01*
X57043663Y-63726097D01*
X57043659Y-63726096D01*
X57043655Y-63726094D01*
X56815413Y-63664938D01*
X56815403Y-63664936D01*
X56689901Y-63653955D01*
X56624833Y-63628502D01*
X56613029Y-63618108D01*
X53364209Y-60369289D01*
X53364206Y-60369285D01*
X53364206Y-60369286D01*
X53357139Y-60362219D01*
X53357139Y-60362218D01*
X53217782Y-60222861D01*
X53217781Y-60222860D01*
X53217780Y-60222859D01*
X53053920Y-60113371D01*
X53053911Y-60113366D01*
X52981315Y-60083296D01*
X52925165Y-60060038D01*
X52871836Y-60037949D01*
X52871832Y-60037948D01*
X52871828Y-60037946D01*
X52775188Y-60018724D01*
X52678544Y-59999500D01*
X52678541Y-59999500D01*
X48765059Y-59999500D01*
X48765055Y-59999500D01*
X48668412Y-60018724D01*
X48571767Y-60037947D01*
X48571761Y-60037949D01*
X48518434Y-60060037D01*
X48518434Y-60060038D01*
X48472915Y-60078892D01*
X48389689Y-60113366D01*
X48389679Y-60113371D01*
X48225819Y-60222859D01*
X48185024Y-60263655D01*
X48086461Y-60362218D01*
X43345763Y-65102915D01*
X43345760Y-65102919D01*
X43236272Y-65266779D01*
X43236267Y-65266789D01*
X43160849Y-65448863D01*
X43160847Y-65448871D01*
X43122400Y-65642155D01*
X43122400Y-65839244D01*
X43160847Y-66032528D01*
X43160849Y-66032536D01*
X43236267Y-66214610D01*
X43236272Y-66214620D01*
X43345760Y-66378480D01*
X43345763Y-66378484D01*
X43485115Y-66517836D01*
X43485119Y-66517839D01*
X43648979Y-66627327D01*
X43648983Y-66627329D01*
X43648986Y-66627331D01*
X43831064Y-66702751D01*
X44024355Y-66741199D01*
X44024358Y-66741200D01*
X44024360Y-66741200D01*
X44221442Y-66741200D01*
X44221443Y-66741199D01*
X44414736Y-66702751D01*
X44480489Y-66675514D01*
X44549957Y-66668046D01*
X44612436Y-66699321D01*
X44648089Y-66759409D01*
X44645596Y-66829235D01*
X44615622Y-66877757D01*
X44092199Y-67401181D01*
X44030876Y-67434666D01*
X44004518Y-67437500D01*
X41425058Y-67437500D01*
X41408524Y-67440789D01*
X41391990Y-67444078D01*
X41391989Y-67444078D01*
X41231770Y-67475947D01*
X41231760Y-67475950D01*
X41200070Y-67489077D01*
X41049688Y-67551366D01*
X41049679Y-67551371D01*
X40885819Y-67660859D01*
X40816140Y-67730538D01*
X40746461Y-67800218D01*
X38881081Y-69665598D01*
X38819758Y-69699083D01*
X38750066Y-69694099D01*
X38694133Y-69652227D01*
X38669716Y-69586763D01*
X38669400Y-69577917D01*
X38669400Y-52179999D01*
X39244341Y-52179999D01*
X39244341Y-52180000D01*
X39264936Y-52415403D01*
X39264938Y-52415413D01*
X39326094Y-52643655D01*
X39326096Y-52643659D01*
X39326097Y-52643663D01*
X39371353Y-52740714D01*
X39425965Y-52857830D01*
X39425967Y-52857834D01*
X39491993Y-52952128D01*
X39561228Y-53051006D01*
X39561501Y-53051395D01*
X39561506Y-53051402D01*
X39728597Y-53218493D01*
X39728603Y-53218498D01*
X39914158Y-53348425D01*
X39957783Y-53403002D01*
X39964977Y-53472500D01*
X39933454Y-53534855D01*
X39914158Y-53551575D01*
X39728597Y-53681505D01*
X39561505Y-53848597D01*
X39425965Y-54042169D01*
X39425964Y-54042171D01*
X39326098Y-54256335D01*
X39326094Y-54256344D01*
X39264938Y-54484586D01*
X39264936Y-54484596D01*
X39244341Y-54719999D01*
X39244341Y-54720000D01*
X39264936Y-54955403D01*
X39264938Y-54955413D01*
X39326094Y-55183655D01*
X39326096Y-55183659D01*
X39326097Y-55183663D01*
X39403933Y-55350583D01*
X39425965Y-55397830D01*
X39425967Y-55397834D01*
X39561501Y-55591395D01*
X39561506Y-55591402D01*
X39728597Y-55758493D01*
X39728603Y-55758498D01*
X39914158Y-55888425D01*
X39957783Y-55943002D01*
X39964977Y-56012500D01*
X39933454Y-56074855D01*
X39914158Y-56091575D01*
X39728597Y-56221505D01*
X39561505Y-56388597D01*
X39425965Y-56582169D01*
X39425964Y-56582171D01*
X39326098Y-56796335D01*
X39326096Y-56796340D01*
X39264938Y-57024586D01*
X39264936Y-57024596D01*
X39244341Y-57259999D01*
X39244341Y-57260000D01*
X39264936Y-57495403D01*
X39264938Y-57495413D01*
X39326094Y-57723655D01*
X39326096Y-57723659D01*
X39326097Y-57723663D01*
X39392310Y-57865657D01*
X39425965Y-57937830D01*
X39425967Y-57937834D01*
X39561501Y-58131395D01*
X39561506Y-58131402D01*
X39728597Y-58298493D01*
X39728603Y-58298498D01*
X39914158Y-58428425D01*
X39957783Y-58483002D01*
X39964977Y-58552500D01*
X39933454Y-58614855D01*
X39914158Y-58631575D01*
X39728597Y-58761505D01*
X39561505Y-58928597D01*
X39425965Y-59122169D01*
X39425964Y-59122171D01*
X39326098Y-59336335D01*
X39326094Y-59336344D01*
X39264938Y-59564586D01*
X39264936Y-59564596D01*
X39244341Y-59799999D01*
X39244341Y-59800000D01*
X39264936Y-60035403D01*
X39264938Y-60035413D01*
X39326094Y-60263655D01*
X39326096Y-60263659D01*
X39326097Y-60263663D01*
X39396791Y-60415267D01*
X39425965Y-60477830D01*
X39425967Y-60477834D01*
X39561501Y-60671395D01*
X39561506Y-60671402D01*
X39728597Y-60838493D01*
X39728603Y-60838498D01*
X39914158Y-60968425D01*
X39957783Y-61023002D01*
X39964977Y-61092500D01*
X39933454Y-61154855D01*
X39914158Y-61171575D01*
X39728597Y-61301505D01*
X39561505Y-61468597D01*
X39425965Y-61662169D01*
X39425964Y-61662171D01*
X39326098Y-61876335D01*
X39326094Y-61876344D01*
X39264938Y-62104586D01*
X39264936Y-62104596D01*
X39244341Y-62339999D01*
X39244341Y-62340000D01*
X39264936Y-62575403D01*
X39264938Y-62575413D01*
X39326094Y-62803655D01*
X39326096Y-62803659D01*
X39326097Y-62803663D01*
X39407288Y-62977778D01*
X39425965Y-63017830D01*
X39425967Y-63017834D01*
X39561501Y-63211395D01*
X39561506Y-63211402D01*
X39683430Y-63333326D01*
X39716915Y-63394649D01*
X39711931Y-63464341D01*
X39670059Y-63520274D01*
X39639083Y-63537189D01*
X39507669Y-63586203D01*
X39507664Y-63586206D01*
X39392455Y-63672452D01*
X39392452Y-63672455D01*
X39306206Y-63787664D01*
X39306202Y-63787671D01*
X39255908Y-63922517D01*
X39251717Y-63961505D01*
X39249501Y-63982123D01*
X39249500Y-63982135D01*
X39249500Y-65777870D01*
X39249501Y-65777876D01*
X39255908Y-65837483D01*
X39306202Y-65972328D01*
X39306206Y-65972335D01*
X39392452Y-66087544D01*
X39392455Y-66087547D01*
X39507664Y-66173793D01*
X39507671Y-66173797D01*
X39642517Y-66224091D01*
X39642516Y-66224091D01*
X39649444Y-66224835D01*
X39702127Y-66230500D01*
X41497872Y-66230499D01*
X41557483Y-66224091D01*
X41692331Y-66173796D01*
X41807546Y-66087546D01*
X41893796Y-65972331D01*
X41944091Y-65837483D01*
X41950500Y-65777873D01*
X41950499Y-63982128D01*
X41944091Y-63922517D01*
X41908080Y-63825967D01*
X41893797Y-63787671D01*
X41893793Y-63787664D01*
X41807547Y-63672455D01*
X41807544Y-63672452D01*
X41692335Y-63586206D01*
X41692328Y-63586202D01*
X41677527Y-63580682D01*
X41621593Y-63538811D01*
X41597176Y-63473346D01*
X41612028Y-63405073D01*
X41661433Y-63355668D01*
X41720860Y-63340500D01*
X44345942Y-63340500D01*
X44365270Y-63336655D01*
X44442588Y-63321275D01*
X44539236Y-63302051D01*
X44592565Y-63279961D01*
X44721314Y-63226632D01*
X44885182Y-63117139D01*
X45024539Y-62977782D01*
X45024540Y-62977779D01*
X45031606Y-62970714D01*
X45031608Y-62970710D01*
X46062639Y-61939681D01*
X46172131Y-61775814D01*
X46247551Y-61593736D01*
X46286000Y-61400440D01*
X46286000Y-61203360D01*
X46286000Y-61203357D01*
X46285999Y-61203355D01*
X46247551Y-61010064D01*
X46172131Y-60827986D01*
X46172129Y-60827983D01*
X46172127Y-60827979D01*
X46062639Y-60664119D01*
X46062636Y-60664115D01*
X45923284Y-60524763D01*
X45923280Y-60524760D01*
X45759420Y-60415272D01*
X45759410Y-60415267D01*
X45577336Y-60339849D01*
X45577328Y-60339847D01*
X45384043Y-60301400D01*
X45384040Y-60301400D01*
X45186960Y-60301400D01*
X45186957Y-60301400D01*
X44993671Y-60339847D01*
X44993663Y-60339849D01*
X44811589Y-60415267D01*
X44811579Y-60415272D01*
X44647719Y-60524760D01*
X44647715Y-60524763D01*
X43869299Y-61303181D01*
X43807976Y-61336666D01*
X43781618Y-61339500D01*
X41560758Y-61339500D01*
X41493719Y-61319815D01*
X41473077Y-61303181D01*
X41471402Y-61301506D01*
X41471396Y-61301501D01*
X41285842Y-61171575D01*
X41242217Y-61116998D01*
X41235023Y-61047500D01*
X41266546Y-60985145D01*
X41285842Y-60968425D01*
X41406746Y-60883767D01*
X41471401Y-60838495D01*
X41638495Y-60671401D01*
X41774035Y-60477830D01*
X41873903Y-60263663D01*
X41935063Y-60035408D01*
X41955659Y-59800000D01*
X41935063Y-59564592D01*
X41888626Y-59391285D01*
X41873905Y-59336344D01*
X41873904Y-59336343D01*
X41873903Y-59336337D01*
X41774035Y-59122171D01*
X41737488Y-59069975D01*
X41638494Y-58928597D01*
X41471402Y-58761506D01*
X41471396Y-58761501D01*
X41285842Y-58631575D01*
X41242217Y-58576998D01*
X41235023Y-58507500D01*
X41266546Y-58445145D01*
X41285842Y-58428425D01*
X41329150Y-58398100D01*
X41471401Y-58298495D01*
X41638495Y-58131401D01*
X41774035Y-57937830D01*
X41873903Y-57723663D01*
X41935063Y-57495408D01*
X41955659Y-57260000D01*
X41935063Y-57024592D01*
X41873903Y-56796337D01*
X41774035Y-56582171D01*
X41716500Y-56500001D01*
X41638494Y-56388597D01*
X41471402Y-56221506D01*
X41471396Y-56221501D01*
X41285842Y-56091575D01*
X41242217Y-56036998D01*
X41235023Y-55967500D01*
X41266546Y-55905145D01*
X41285842Y-55888425D01*
X41308026Y-55872891D01*
X41471401Y-55758495D01*
X41638495Y-55591401D01*
X41774035Y-55397830D01*
X41873903Y-55183663D01*
X41935063Y-54955408D01*
X41955659Y-54720000D01*
X41935063Y-54484592D01*
X41873903Y-54256337D01*
X41774035Y-54042171D01*
X41729976Y-53979247D01*
X41638494Y-53848597D01*
X41471402Y-53681506D01*
X41471396Y-53681501D01*
X41285842Y-53551575D01*
X41242217Y-53496998D01*
X41235023Y-53427500D01*
X41266546Y-53365145D01*
X41285842Y-53348425D01*
X41311346Y-53330567D01*
X41471401Y-53218495D01*
X41638495Y-53051401D01*
X41774035Y-52857830D01*
X41873903Y-52643663D01*
X41935063Y-52415408D01*
X41955659Y-52180000D01*
X41935063Y-51944592D01*
X41883862Y-51753504D01*
X41873905Y-51716344D01*
X41873904Y-51716343D01*
X41873903Y-51716337D01*
X41774035Y-51502171D01*
X41676040Y-51362218D01*
X41638494Y-51308597D01*
X41471402Y-51141506D01*
X41471395Y-51141501D01*
X41277834Y-51005967D01*
X41277830Y-51005965D01*
X41207696Y-50973261D01*
X41063663Y-50906097D01*
X41063659Y-50906096D01*
X41063655Y-50906094D01*
X40835413Y-50844938D01*
X40835403Y-50844936D01*
X40600001Y-50824341D01*
X40599999Y-50824341D01*
X40364596Y-50844936D01*
X40364586Y-50844938D01*
X40136344Y-50906094D01*
X40136335Y-50906098D01*
X39922171Y-51005964D01*
X39922169Y-51005965D01*
X39728597Y-51141505D01*
X39561505Y-51308597D01*
X39425965Y-51502169D01*
X39425964Y-51502171D01*
X39326098Y-51716335D01*
X39326094Y-51716344D01*
X39264938Y-51944586D01*
X39264936Y-51944596D01*
X39244341Y-52179999D01*
X38669400Y-52179999D01*
X38669400Y-43310481D01*
X38689085Y-43243442D01*
X38705715Y-43222804D01*
X39241050Y-42687468D01*
X39302371Y-42653985D01*
X39372062Y-42658969D01*
G37*
%TD.AperFunction*%
%TA.AperFunction,Conductor*%
G36*
X52181257Y-62020185D02*
G01*
X52201899Y-62036819D01*
X55198108Y-65033029D01*
X55231593Y-65094352D01*
X55233955Y-65109901D01*
X55244936Y-65235403D01*
X55244938Y-65235413D01*
X55268971Y-65325107D01*
X55267308Y-65394957D01*
X55228145Y-65452820D01*
X55163916Y-65480323D01*
X55149196Y-65481200D01*
X46328055Y-65481200D01*
X46231412Y-65500424D01*
X46134767Y-65519647D01*
X46134761Y-65519649D01*
X46081434Y-65541738D01*
X46081432Y-65541739D01*
X46069010Y-65546884D01*
X45999540Y-65554351D01*
X45937062Y-65523075D01*
X45901411Y-65462985D01*
X45903907Y-65393160D01*
X45933879Y-65344641D01*
X49241701Y-62036819D01*
X49303024Y-62003334D01*
X49329382Y-62000500D01*
X52114218Y-62000500D01*
X52181257Y-62020185D01*
G37*
%TD.AperFunction*%
%TA.AperFunction,Conductor*%
G36*
X73914855Y-43966546D02*
G01*
X73931575Y-43985842D01*
X74061501Y-44171396D01*
X74061506Y-44171402D01*
X74063181Y-44173077D01*
X74063682Y-44173995D01*
X74064982Y-44175544D01*
X74064670Y-44175805D01*
X74096666Y-44234400D01*
X74099500Y-44260758D01*
X74099500Y-45248544D01*
X74135872Y-45431398D01*
X74137948Y-45441833D01*
X74137949Y-45441838D01*
X74213364Y-45623907D01*
X74213371Y-45623920D01*
X74322859Y-45787780D01*
X74322860Y-45787781D01*
X74322861Y-45787782D01*
X74462218Y-45927139D01*
X74462219Y-45927139D01*
X74469286Y-45934206D01*
X74469285Y-45934206D01*
X74469289Y-45934209D01*
X75295281Y-46760201D01*
X75328766Y-46821524D01*
X75331600Y-46847882D01*
X75331600Y-59445261D01*
X75311915Y-59512300D01*
X75259111Y-59558055D01*
X75189953Y-59567999D01*
X75160148Y-59559822D01*
X75055439Y-59516450D01*
X75055429Y-59516447D01*
X74862143Y-59478000D01*
X74862141Y-59478000D01*
X74665059Y-59478000D01*
X74630490Y-59484876D01*
X74560899Y-59478647D01*
X74505722Y-59435784D01*
X74482478Y-59369894D01*
X74482300Y-59363258D01*
X74482300Y-55308556D01*
X74443852Y-55115270D01*
X74443851Y-55115269D01*
X74443851Y-55115265D01*
X74432506Y-55087876D01*
X74368435Y-54933192D01*
X74368428Y-54933179D01*
X74258939Y-54769318D01*
X74258936Y-54769314D01*
X74116498Y-54626876D01*
X74116469Y-54626849D01*
X74026281Y-54536661D01*
X74026280Y-54536660D01*
X74026279Y-54536659D01*
X73862420Y-54427172D01*
X73862410Y-54427167D01*
X73680336Y-54351749D01*
X73680328Y-54351747D01*
X73487043Y-54313300D01*
X73487040Y-54313300D01*
X73289960Y-54313300D01*
X73289955Y-54313300D01*
X73148691Y-54341399D01*
X73079099Y-54335172D01*
X73023922Y-54292308D01*
X73000678Y-54226419D01*
X73000500Y-54219782D01*
X73000500Y-48020556D01*
X72962052Y-47827269D01*
X72962050Y-47827263D01*
X72958373Y-47818386D01*
X72958372Y-47818380D01*
X72958371Y-47818381D01*
X72917572Y-47719883D01*
X72917572Y-47719882D01*
X72886635Y-47645193D01*
X72886634Y-47645192D01*
X72886632Y-47645186D01*
X72788861Y-47498861D01*
X72777140Y-47481319D01*
X72777138Y-47481316D01*
X72777135Y-47481313D01*
X70158001Y-44862180D01*
X70124516Y-44800857D01*
X70129500Y-44731165D01*
X70171372Y-44675232D01*
X70236836Y-44650815D01*
X70245682Y-44650499D01*
X70917871Y-44650499D01*
X70917872Y-44650499D01*
X70977483Y-44644091D01*
X71112331Y-44593796D01*
X71227546Y-44507546D01*
X71313796Y-44392331D01*
X71362810Y-44260916D01*
X71404681Y-44204984D01*
X71470145Y-44180566D01*
X71538418Y-44195417D01*
X71566673Y-44216569D01*
X71688599Y-44338495D01*
X71772403Y-44397175D01*
X71882165Y-44474032D01*
X71882167Y-44474033D01*
X71882170Y-44474035D01*
X72096337Y-44573903D01*
X72096343Y-44573904D01*
X72096344Y-44573905D01*
X72151285Y-44588626D01*
X72324592Y-44635063D01*
X72504634Y-44650815D01*
X72559999Y-44655659D01*
X72560000Y-44655659D01*
X72560001Y-44655659D01*
X72615366Y-44650815D01*
X72795408Y-44635063D01*
X73023663Y-44573903D01*
X73237830Y-44474035D01*
X73431401Y-44338495D01*
X73598495Y-44171401D01*
X73728425Y-43985842D01*
X73783002Y-43942217D01*
X73852500Y-43935023D01*
X73914855Y-43966546D01*
G37*
%TD.AperFunction*%
%TA.AperFunction,Conductor*%
G36*
X107142539Y-34620185D02*
G01*
X107188294Y-34672989D01*
X107199500Y-34724500D01*
X107199500Y-103575500D01*
X107179815Y-103642539D01*
X107127011Y-103688294D01*
X107075500Y-103699500D01*
X26424500Y-103699500D01*
X26357461Y-103679815D01*
X26311706Y-103627011D01*
X26300500Y-103575500D01*
X26300500Y-93902135D01*
X49169500Y-93902135D01*
X49169500Y-95697870D01*
X49169501Y-95697876D01*
X49175908Y-95757483D01*
X49226202Y-95892328D01*
X49226206Y-95892335D01*
X49312452Y-96007544D01*
X49312455Y-96007547D01*
X49427664Y-96093793D01*
X49427671Y-96093797D01*
X49562517Y-96144091D01*
X49562516Y-96144091D01*
X49569444Y-96144835D01*
X49622127Y-96150500D01*
X51417872Y-96150499D01*
X51477483Y-96144091D01*
X51612331Y-96093796D01*
X51727546Y-96007546D01*
X51813796Y-95892331D01*
X51864091Y-95757483D01*
X51870500Y-95697873D01*
X51870499Y-93902128D01*
X51864091Y-93842517D01*
X51862869Y-93839241D01*
X51813797Y-93707671D01*
X51813793Y-93707664D01*
X51727547Y-93592455D01*
X51727544Y-93592452D01*
X51612335Y-93506206D01*
X51612328Y-93506202D01*
X51477482Y-93455908D01*
X51477483Y-93455908D01*
X51417883Y-93449501D01*
X51417881Y-93449500D01*
X51417873Y-93449500D01*
X51417864Y-93449500D01*
X49622129Y-93449500D01*
X49622123Y-93449501D01*
X49562516Y-93455908D01*
X49427671Y-93506202D01*
X49427664Y-93506206D01*
X49312455Y-93592452D01*
X49312452Y-93592455D01*
X49226206Y-93707664D01*
X49226202Y-93707671D01*
X49175908Y-93842517D01*
X49173427Y-93865599D01*
X49169501Y-93902123D01*
X49169500Y-93902135D01*
X26300500Y-93902135D01*
X26300500Y-89638643D01*
X36668399Y-89638643D01*
X36706847Y-89831929D01*
X36706850Y-89831939D01*
X36782264Y-90014007D01*
X36782271Y-90014020D01*
X36891759Y-90177880D01*
X36891760Y-90177881D01*
X36891761Y-90177882D01*
X37031118Y-90317239D01*
X37031119Y-90317239D01*
X37038186Y-90324306D01*
X37038185Y-90324306D01*
X37038189Y-90324309D01*
X38562515Y-91848637D01*
X38562519Y-91848640D01*
X38726379Y-91958128D01*
X38726385Y-91958131D01*
X38726386Y-91958132D01*
X38908465Y-92033552D01*
X39058363Y-92063368D01*
X39087293Y-92069122D01*
X39101758Y-92072000D01*
X39101759Y-92072000D01*
X41460442Y-92072000D01*
X41479770Y-92068155D01*
X41557088Y-92052775D01*
X41653736Y-92033551D01*
X41707065Y-92011461D01*
X41835814Y-91958132D01*
X41999682Y-91848639D01*
X42139039Y-91709282D01*
X42139039Y-91709280D01*
X42149247Y-91699073D01*
X42149248Y-91699070D01*
X52117139Y-81731182D01*
X52168150Y-81654839D01*
X52226632Y-81567314D01*
X52302051Y-81385235D01*
X52306327Y-81363741D01*
X52308740Y-81351614D01*
X52340499Y-81191944D01*
X52340500Y-81191942D01*
X52340500Y-80014141D01*
X52360185Y-79947102D01*
X52412989Y-79901347D01*
X52421149Y-79897966D01*
X52432331Y-79893796D01*
X52444286Y-79884847D01*
X52470447Y-79865261D01*
X52547546Y-79807546D01*
X52633796Y-79692331D01*
X52682810Y-79560916D01*
X52724681Y-79504984D01*
X52790145Y-79480566D01*
X52858418Y-79495417D01*
X52886673Y-79516569D01*
X53008599Y-79638495D01*
X53105384Y-79706265D01*
X53202165Y-79774032D01*
X53202167Y-79774033D01*
X53202170Y-79774035D01*
X53416337Y-79873903D01*
X53644592Y-79935063D01*
X53770097Y-79946043D01*
X53835165Y-79971495D01*
X53846970Y-79981890D01*
X55764935Y-81899855D01*
X55764964Y-81899886D01*
X55907414Y-82042336D01*
X55907418Y-82042339D01*
X56071279Y-82151828D01*
X56071292Y-82151835D01*
X56200033Y-82205161D01*
X56242944Y-82222935D01*
X56253364Y-82227251D01*
X56350012Y-82246475D01*
X56398335Y-82256087D01*
X56446658Y-82265700D01*
X56446659Y-82265700D01*
X56446660Y-82265700D01*
X56643740Y-82265700D01*
X67110017Y-82265700D01*
X67177056Y-82285385D01*
X67222811Y-82338189D01*
X67232755Y-82407347D01*
X67203730Y-82470903D01*
X67197698Y-82477381D01*
X57502220Y-92172859D01*
X57502218Y-92172861D01*
X57432538Y-92242540D01*
X57362859Y-92312219D01*
X57253371Y-92476079D01*
X57253364Y-92476092D01*
X57177950Y-92658160D01*
X57177947Y-92658170D01*
X57139500Y-92851456D01*
X57139500Y-93839241D01*
X57119815Y-93906280D01*
X57103181Y-93926922D01*
X57101505Y-93928597D01*
X56965965Y-94122169D01*
X56965964Y-94122171D01*
X56866098Y-94336335D01*
X56866094Y-94336344D01*
X56804938Y-94564586D01*
X56804936Y-94564596D01*
X56784341Y-94799999D01*
X56784341Y-94800000D01*
X56804936Y-95035403D01*
X56804938Y-95035413D01*
X56866094Y-95263655D01*
X56866096Y-95263659D01*
X56866097Y-95263663D01*
X56870000Y-95272032D01*
X56965965Y-95477830D01*
X56965967Y-95477834D01*
X57074281Y-95632521D01*
X57101505Y-95671401D01*
X57268599Y-95838495D01*
X57353404Y-95897876D01*
X57462165Y-95974032D01*
X57462167Y-95974033D01*
X57462170Y-95974035D01*
X57676337Y-96073903D01*
X57904592Y-96135063D01*
X58081034Y-96150500D01*
X58139999Y-96155659D01*
X58140000Y-96155659D01*
X58140001Y-96155659D01*
X58198966Y-96150500D01*
X58375408Y-96135063D01*
X58603663Y-96073903D01*
X58817830Y-95974035D01*
X59011401Y-95838495D01*
X59178495Y-95671401D01*
X59308425Y-95485842D01*
X59363002Y-95442217D01*
X59432500Y-95435023D01*
X59494855Y-95466546D01*
X59511575Y-95485842D01*
X59641500Y-95671395D01*
X59641505Y-95671401D01*
X59808599Y-95838495D01*
X59893404Y-95897876D01*
X60002165Y-95974032D01*
X60002167Y-95974033D01*
X60002170Y-95974035D01*
X60216337Y-96073903D01*
X60444592Y-96135063D01*
X60621034Y-96150500D01*
X60679999Y-96155659D01*
X60680000Y-96155659D01*
X60680001Y-96155659D01*
X60738966Y-96150500D01*
X60915408Y-96135063D01*
X61143663Y-96073903D01*
X61357830Y-95974035D01*
X61551401Y-95838495D01*
X61718495Y-95671401D01*
X61848425Y-95485842D01*
X61903002Y-95442217D01*
X61972500Y-95435023D01*
X62034855Y-95466546D01*
X62051575Y-95485842D01*
X62181500Y-95671395D01*
X62181505Y-95671401D01*
X62348599Y-95838495D01*
X62433404Y-95897876D01*
X62542165Y-95974032D01*
X62542167Y-95974033D01*
X62542170Y-95974035D01*
X62756337Y-96073903D01*
X62984592Y-96135063D01*
X63161034Y-96150500D01*
X63219999Y-96155659D01*
X63220000Y-96155659D01*
X63220001Y-96155659D01*
X63278966Y-96150500D01*
X63455408Y-96135063D01*
X63683663Y-96073903D01*
X63897830Y-95974035D01*
X64091401Y-95838495D01*
X64258495Y-95671401D01*
X64388425Y-95485842D01*
X64443002Y-95442217D01*
X64512500Y-95435023D01*
X64574855Y-95466546D01*
X64591575Y-95485842D01*
X64721500Y-95671395D01*
X64721505Y-95671401D01*
X64888599Y-95838495D01*
X64973404Y-95897876D01*
X65082165Y-95974032D01*
X65082167Y-95974033D01*
X65082170Y-95974035D01*
X65296337Y-96073903D01*
X65524592Y-96135063D01*
X65701034Y-96150500D01*
X65759999Y-96155659D01*
X65760000Y-96155659D01*
X65760001Y-96155659D01*
X65818966Y-96150500D01*
X65995408Y-96135063D01*
X66223663Y-96073903D01*
X66437830Y-95974035D01*
X66631401Y-95838495D01*
X66798495Y-95671401D01*
X66928425Y-95485842D01*
X66983002Y-95442217D01*
X67052500Y-95435023D01*
X67114855Y-95466546D01*
X67131575Y-95485842D01*
X67261500Y-95671395D01*
X67261505Y-95671401D01*
X67428599Y-95838495D01*
X67513404Y-95897876D01*
X67622165Y-95974032D01*
X67622167Y-95974033D01*
X67622170Y-95974035D01*
X67836337Y-96073903D01*
X68064592Y-96135063D01*
X68241034Y-96150500D01*
X68299999Y-96155659D01*
X68300000Y-96155659D01*
X68300001Y-96155659D01*
X68358966Y-96150500D01*
X68535408Y-96135063D01*
X68763663Y-96073903D01*
X68977830Y-95974035D01*
X69171401Y-95838495D01*
X69338495Y-95671401D01*
X69474035Y-95477830D01*
X69573903Y-95263663D01*
X69635063Y-95035408D01*
X69655659Y-94800000D01*
X69652561Y-94764596D01*
X69635063Y-94564596D01*
X69635063Y-94564592D01*
X69573903Y-94336337D01*
X69474035Y-94122171D01*
X69468425Y-94114158D01*
X69460006Y-94102135D01*
X75209500Y-94102135D01*
X75209500Y-95897870D01*
X75209501Y-95897876D01*
X75215908Y-95957483D01*
X75266202Y-96092328D01*
X75266206Y-96092335D01*
X75352452Y-96207544D01*
X75352455Y-96207547D01*
X75467664Y-96293793D01*
X75467671Y-96293797D01*
X75602517Y-96344091D01*
X75602516Y-96344091D01*
X75609444Y-96344835D01*
X75662127Y-96350500D01*
X77457872Y-96350499D01*
X77517483Y-96344091D01*
X77652331Y-96293796D01*
X77767546Y-96207546D01*
X77853796Y-96092331D01*
X77902810Y-95960916D01*
X77944681Y-95904984D01*
X78010145Y-95880566D01*
X78078418Y-95895417D01*
X78106673Y-95916569D01*
X78228599Y-96038495D01*
X78307573Y-96093793D01*
X78422165Y-96174032D01*
X78422167Y-96174033D01*
X78422170Y-96174035D01*
X78636337Y-96273903D01*
X78864592Y-96335063D01*
X79041034Y-96350500D01*
X79099999Y-96355659D01*
X79100000Y-96355659D01*
X79100001Y-96355659D01*
X79158966Y-96350500D01*
X79335408Y-96335063D01*
X79563663Y-96273903D01*
X79777830Y-96174035D01*
X79971401Y-96038495D01*
X80138495Y-95871401D01*
X80268425Y-95685842D01*
X80323002Y-95642217D01*
X80392500Y-95635023D01*
X80454855Y-95666546D01*
X80471575Y-95685842D01*
X80601500Y-95871395D01*
X80601505Y-95871401D01*
X80768599Y-96038495D01*
X80847573Y-96093793D01*
X80962165Y-96174032D01*
X80962167Y-96174033D01*
X80962170Y-96174035D01*
X81176337Y-96273903D01*
X81404592Y-96335063D01*
X81581034Y-96350500D01*
X81639999Y-96355659D01*
X81640000Y-96355659D01*
X81640001Y-96355659D01*
X81698966Y-96350500D01*
X81875408Y-96335063D01*
X82103663Y-96273903D01*
X82317830Y-96174035D01*
X82511401Y-96038495D01*
X82678495Y-95871401D01*
X82808425Y-95685842D01*
X82863002Y-95642217D01*
X82932500Y-95635023D01*
X82994855Y-95666546D01*
X83011575Y-95685842D01*
X83141500Y-95871395D01*
X83141505Y-95871401D01*
X83308599Y-96038495D01*
X83387573Y-96093793D01*
X83502165Y-96174032D01*
X83502167Y-96174033D01*
X83502170Y-96174035D01*
X83716337Y-96273903D01*
X83944592Y-96335063D01*
X84121034Y-96350500D01*
X84179999Y-96355659D01*
X84180000Y-96355659D01*
X84180001Y-96355659D01*
X84238966Y-96350500D01*
X84415408Y-96335063D01*
X84643663Y-96273903D01*
X84857830Y-96174035D01*
X85051401Y-96038495D01*
X85218495Y-95871401D01*
X85354035Y-95677830D01*
X85453903Y-95463663D01*
X85515063Y-95235408D01*
X85535659Y-95000000D01*
X85515063Y-94764592D01*
X85453903Y-94536337D01*
X85354035Y-94322171D01*
X85348425Y-94314158D01*
X85218494Y-94128597D01*
X85216819Y-94126922D01*
X85216315Y-94126000D01*
X85215014Y-94124449D01*
X85215325Y-94124187D01*
X85183334Y-94065599D01*
X85180500Y-94039241D01*
X85180500Y-93615782D01*
X85200185Y-93548743D01*
X85216819Y-93528101D01*
X87045853Y-91699067D01*
X91440339Y-87304582D01*
X91448856Y-87291835D01*
X91549832Y-87140714D01*
X91625251Y-86958635D01*
X91663700Y-86765341D01*
X91663700Y-76374059D01*
X91663700Y-76374056D01*
X91625252Y-76180770D01*
X91625251Y-76180769D01*
X91625251Y-76180765D01*
X91596858Y-76112218D01*
X91549835Y-75998692D01*
X91549828Y-75998679D01*
X91440339Y-75834818D01*
X91440336Y-75834814D01*
X91300985Y-75695463D01*
X91300981Y-75695460D01*
X91137120Y-75585971D01*
X91137107Y-75585964D01*
X90955039Y-75510550D01*
X90955029Y-75510547D01*
X90761743Y-75472100D01*
X90761741Y-75472100D01*
X90564659Y-75472100D01*
X90564657Y-75472100D01*
X90371370Y-75510547D01*
X90371360Y-75510550D01*
X90189292Y-75585964D01*
X90189279Y-75585971D01*
X90025418Y-75695460D01*
X90025414Y-75695463D01*
X89886063Y-75834814D01*
X89886060Y-75834818D01*
X89776571Y-75998679D01*
X89776564Y-75998692D01*
X89701150Y-76180760D01*
X89701147Y-76180770D01*
X89662700Y-76374056D01*
X89662700Y-86201017D01*
X89643015Y-86268056D01*
X89626381Y-86288698D01*
X83542220Y-92372859D01*
X83542218Y-92372861D01*
X83472538Y-92442540D01*
X83402859Y-92512219D01*
X83293371Y-92676079D01*
X83293366Y-92676089D01*
X83240037Y-92804836D01*
X83220726Y-92851460D01*
X83220725Y-92851463D01*
X83217950Y-92858161D01*
X83217946Y-92858175D01*
X83179500Y-93051454D01*
X83179500Y-94039241D01*
X83159815Y-94106280D01*
X83143181Y-94126922D01*
X83141505Y-94128597D01*
X83011575Y-94314158D01*
X82956998Y-94357783D01*
X82887500Y-94364977D01*
X82825145Y-94333454D01*
X82808425Y-94314158D01*
X82678494Y-94128597D01*
X82511402Y-93961506D01*
X82511395Y-93961501D01*
X82317834Y-93825967D01*
X82317830Y-93825965D01*
X82317828Y-93825964D01*
X82103663Y-93726097D01*
X82103659Y-93726096D01*
X82103655Y-93726094D01*
X81875413Y-93664938D01*
X81875403Y-93664936D01*
X81640001Y-93644341D01*
X81639999Y-93644341D01*
X81404596Y-93664936D01*
X81404586Y-93664938D01*
X81176344Y-93726094D01*
X81176335Y-93726098D01*
X80962171Y-93825964D01*
X80962169Y-93825965D01*
X80768597Y-93961505D01*
X80601505Y-94128597D01*
X80471575Y-94314158D01*
X80416998Y-94357783D01*
X80347500Y-94364977D01*
X80285145Y-94333454D01*
X80268425Y-94314158D01*
X80138494Y-94128597D01*
X79971402Y-93961506D01*
X79971395Y-93961501D01*
X79777834Y-93825967D01*
X79777830Y-93825965D01*
X79777828Y-93825964D01*
X79563663Y-93726097D01*
X79563659Y-93726096D01*
X79563655Y-93726094D01*
X79335413Y-93664938D01*
X79335403Y-93664936D01*
X79100001Y-93644341D01*
X79099999Y-93644341D01*
X78864596Y-93664936D01*
X78864586Y-93664938D01*
X78636344Y-93726094D01*
X78636335Y-93726098D01*
X78422171Y-93825964D01*
X78422169Y-93825965D01*
X78228600Y-93961503D01*
X78106673Y-94083430D01*
X78045350Y-94116914D01*
X77975658Y-94111930D01*
X77919725Y-94070058D01*
X77902810Y-94039081D01*
X77853797Y-93907671D01*
X77853793Y-93907664D01*
X77767547Y-93792455D01*
X77767544Y-93792452D01*
X77652335Y-93706206D01*
X77652328Y-93706202D01*
X77517482Y-93655908D01*
X77517483Y-93655908D01*
X77457883Y-93649501D01*
X77457881Y-93649500D01*
X77457873Y-93649500D01*
X77457864Y-93649500D01*
X75662129Y-93649500D01*
X75662123Y-93649501D01*
X75602516Y-93655908D01*
X75467671Y-93706202D01*
X75467664Y-93706206D01*
X75352455Y-93792452D01*
X75352452Y-93792455D01*
X75266206Y-93907664D01*
X75266202Y-93907671D01*
X75215908Y-94042517D01*
X75209501Y-94102116D01*
X75209500Y-94102135D01*
X69460006Y-94102135D01*
X69338494Y-93928597D01*
X69171402Y-93761506D01*
X69171395Y-93761501D01*
X68977834Y-93625967D01*
X68977830Y-93625965D01*
X68977828Y-93625964D01*
X68763663Y-93526097D01*
X68763659Y-93526096D01*
X68763655Y-93526094D01*
X68535413Y-93464938D01*
X68535403Y-93464936D01*
X68300001Y-93444341D01*
X68299999Y-93444341D01*
X68064596Y-93464936D01*
X68064586Y-93464938D01*
X67836344Y-93526094D01*
X67836337Y-93526096D01*
X67836337Y-93526097D01*
X67822816Y-93532401D01*
X67622171Y-93625964D01*
X67622169Y-93625965D01*
X67428597Y-93761505D01*
X67261505Y-93928597D01*
X67131575Y-94114158D01*
X67076998Y-94157783D01*
X67007500Y-94164977D01*
X66945145Y-94133454D01*
X66928425Y-94114158D01*
X66798494Y-93928597D01*
X66631402Y-93761506D01*
X66631395Y-93761501D01*
X66437834Y-93625967D01*
X66437830Y-93625965D01*
X66437828Y-93625964D01*
X66223663Y-93526097D01*
X66223659Y-93526096D01*
X66223655Y-93526094D01*
X65995413Y-93464938D01*
X65995403Y-93464936D01*
X65760001Y-93444341D01*
X65759999Y-93444341D01*
X65524596Y-93464936D01*
X65524586Y-93464938D01*
X65296344Y-93526094D01*
X65296337Y-93526096D01*
X65296337Y-93526097D01*
X65282816Y-93532401D01*
X65082171Y-93625964D01*
X65082169Y-93625965D01*
X64888597Y-93761505D01*
X64721505Y-93928597D01*
X64591575Y-94114158D01*
X64536998Y-94157783D01*
X64467500Y-94164977D01*
X64405145Y-94133454D01*
X64388425Y-94114158D01*
X64258494Y-93928597D01*
X64091402Y-93761506D01*
X64091395Y-93761501D01*
X63897834Y-93625967D01*
X63897830Y-93625965D01*
X63897828Y-93625964D01*
X63683663Y-93526097D01*
X63683659Y-93526096D01*
X63683655Y-93526094D01*
X63455413Y-93464938D01*
X63455403Y-93464936D01*
X63220001Y-93444341D01*
X63219999Y-93444341D01*
X62984596Y-93464936D01*
X62984586Y-93464938D01*
X62756344Y-93526094D01*
X62756337Y-93526096D01*
X62756337Y-93526097D01*
X62742816Y-93532401D01*
X62542171Y-93625964D01*
X62542169Y-93625965D01*
X62348597Y-93761505D01*
X62181505Y-93928597D01*
X62051575Y-94114158D01*
X61996998Y-94157783D01*
X61927500Y-94164977D01*
X61865145Y-94133454D01*
X61848425Y-94114158D01*
X61718494Y-93928597D01*
X61716819Y-93926922D01*
X61716315Y-93926000D01*
X61715014Y-93924449D01*
X61715325Y-93924187D01*
X61683334Y-93865599D01*
X61680500Y-93839241D01*
X61680500Y-93415781D01*
X61700185Y-93348742D01*
X61716814Y-93328105D01*
X80583478Y-74461441D01*
X80583482Y-74461439D01*
X80722839Y-74322082D01*
X80832332Y-74158214D01*
X80832335Y-74158207D01*
X80905222Y-73982242D01*
X80905223Y-73982239D01*
X80907749Y-73976140D01*
X80907751Y-73976136D01*
X80946200Y-73782840D01*
X80946200Y-73585760D01*
X80946200Y-72275859D01*
X80946200Y-72275856D01*
X80907752Y-72082570D01*
X80907751Y-72082569D01*
X80907751Y-72082565D01*
X80907749Y-72082560D01*
X80832335Y-71900492D01*
X80832328Y-71900479D01*
X80722839Y-71736618D01*
X80722836Y-71736614D01*
X80583485Y-71597263D01*
X80583481Y-71597260D01*
X80419620Y-71487771D01*
X80419607Y-71487764D01*
X80237539Y-71412350D01*
X80237529Y-71412347D01*
X80044243Y-71373900D01*
X80044241Y-71373900D01*
X79847159Y-71373900D01*
X79847157Y-71373900D01*
X79653870Y-71412347D01*
X79653860Y-71412350D01*
X79471792Y-71487764D01*
X79471779Y-71487771D01*
X79307918Y-71597260D01*
X79307914Y-71597263D01*
X79168563Y-71736614D01*
X79168560Y-71736618D01*
X79059071Y-71900479D01*
X79059064Y-71900492D01*
X78983650Y-72082560D01*
X78983647Y-72082570D01*
X78945200Y-72275856D01*
X78945200Y-73218517D01*
X78925515Y-73285556D01*
X78908881Y-73306198D01*
X77544281Y-74670798D01*
X77482958Y-74704283D01*
X77413266Y-74699299D01*
X77357333Y-74657427D01*
X77332916Y-74591963D01*
X77332600Y-74583117D01*
X77332600Y-52952135D01*
X78199500Y-52952135D01*
X78199500Y-55047870D01*
X78199501Y-55047876D01*
X78205908Y-55107483D01*
X78256202Y-55242328D01*
X78256206Y-55242335D01*
X78342452Y-55357544D01*
X78342455Y-55357547D01*
X78457664Y-55443793D01*
X78457671Y-55443797D01*
X78592517Y-55494091D01*
X78600062Y-55495874D01*
X78599523Y-55498151D01*
X78653287Y-55520408D01*
X78693147Y-55577793D01*
X78699500Y-55616975D01*
X78699500Y-59607941D01*
X78699500Y-59607943D01*
X78699499Y-59607943D01*
X78737947Y-59801229D01*
X78737950Y-59801239D01*
X78813364Y-59983307D01*
X78813371Y-59983320D01*
X78922859Y-60147180D01*
X78922860Y-60147181D01*
X78922861Y-60147182D01*
X79062218Y-60286539D01*
X79062219Y-60286539D01*
X79069286Y-60293606D01*
X79069285Y-60293606D01*
X79069289Y-60293609D01*
X87113881Y-68338201D01*
X87147366Y-68399524D01*
X87150200Y-68425882D01*
X87150200Y-80976241D01*
X87150200Y-80976243D01*
X87150199Y-80976243D01*
X87188647Y-81169529D01*
X87188650Y-81169539D01*
X87264064Y-81351607D01*
X87264071Y-81351620D01*
X87373560Y-81515481D01*
X87373563Y-81515485D01*
X87512914Y-81654836D01*
X87512918Y-81654839D01*
X87676779Y-81764328D01*
X87676792Y-81764335D01*
X87858860Y-81839749D01*
X87858865Y-81839751D01*
X87858869Y-81839751D01*
X87858870Y-81839752D01*
X88052156Y-81878200D01*
X88052159Y-81878200D01*
X88249243Y-81878200D01*
X88379282Y-81852332D01*
X88442535Y-81839751D01*
X88624614Y-81764332D01*
X88788482Y-81654839D01*
X88927839Y-81515482D01*
X89037332Y-81351614D01*
X89112751Y-81169535D01*
X89136807Y-81048599D01*
X89151200Y-80976243D01*
X89151200Y-68680705D01*
X89170885Y-68613666D01*
X89211767Y-68575944D01*
X89211148Y-68575017D01*
X89380082Y-68462139D01*
X89519436Y-68322785D01*
X89519439Y-68322782D01*
X89628932Y-68158914D01*
X89704351Y-67976835D01*
X89729033Y-67852753D01*
X89742800Y-67783543D01*
X89742800Y-67586456D01*
X89704352Y-67393170D01*
X89704351Y-67393169D01*
X89704351Y-67393165D01*
X89648712Y-67258839D01*
X89628935Y-67211092D01*
X89628928Y-67211079D01*
X89519439Y-67047218D01*
X89519436Y-67047214D01*
X89380085Y-66907863D01*
X89380081Y-66907860D01*
X89216220Y-66798371D01*
X89216207Y-66798364D01*
X89034139Y-66722950D01*
X89034129Y-66722947D01*
X88840843Y-66684500D01*
X88840841Y-66684500D01*
X88341383Y-66684500D01*
X88274344Y-66664815D01*
X88253702Y-66648181D01*
X80736819Y-59131298D01*
X80703334Y-59069975D01*
X80700500Y-59043617D01*
X80700500Y-55616976D01*
X80720185Y-55549937D01*
X80772989Y-55504182D01*
X80800135Y-55496736D01*
X80799932Y-55495876D01*
X80807479Y-55494092D01*
X80807481Y-55494091D01*
X80807483Y-55494091D01*
X80942331Y-55443796D01*
X81057546Y-55357546D01*
X81143796Y-55242331D01*
X81194091Y-55107483D01*
X81200500Y-55047873D01*
X81200499Y-52952128D01*
X81194091Y-52892517D01*
X81179252Y-52852732D01*
X81143797Y-52757671D01*
X81143793Y-52757664D01*
X81057547Y-52642455D01*
X81057544Y-52642452D01*
X80942335Y-52556206D01*
X80942328Y-52556202D01*
X80843710Y-52519420D01*
X80787776Y-52477549D01*
X80763359Y-52412084D01*
X80778211Y-52343811D01*
X80799359Y-52315560D01*
X87262778Y-45852141D01*
X87262782Y-45852139D01*
X87402139Y-45712782D01*
X87511632Y-45548914D01*
X87587051Y-45366835D01*
X87625500Y-45173541D01*
X87625500Y-43814141D01*
X87645185Y-43747102D01*
X87697989Y-43701347D01*
X87706149Y-43697966D01*
X87717331Y-43693796D01*
X87724274Y-43688599D01*
X87755447Y-43665261D01*
X87832546Y-43607546D01*
X87918796Y-43492331D01*
X87969091Y-43357483D01*
X87975500Y-43297873D01*
X87975499Y-41502128D01*
X87969091Y-41442517D01*
X87918796Y-41307669D01*
X87918795Y-41307668D01*
X87918793Y-41307664D01*
X87832547Y-41192455D01*
X87832544Y-41192452D01*
X87717335Y-41106206D01*
X87717328Y-41106202D01*
X87582482Y-41055908D01*
X87582483Y-41055908D01*
X87522883Y-41049501D01*
X87522881Y-41049500D01*
X87522873Y-41049500D01*
X87522864Y-41049500D01*
X85727129Y-41049500D01*
X85727123Y-41049501D01*
X85667516Y-41055908D01*
X85532671Y-41106202D01*
X85532664Y-41106206D01*
X85417455Y-41192452D01*
X85417452Y-41192455D01*
X85331206Y-41307664D01*
X85331202Y-41307671D01*
X85280908Y-41442517D01*
X85274501Y-41502116D01*
X85274501Y-41502123D01*
X85274500Y-41502135D01*
X85274500Y-43297870D01*
X85274501Y-43297876D01*
X85280908Y-43357483D01*
X85331202Y-43492328D01*
X85331206Y-43492335D01*
X85417452Y-43607544D01*
X85417455Y-43607547D01*
X85532665Y-43693794D01*
X85532667Y-43693794D01*
X85532669Y-43693796D01*
X85543830Y-43697958D01*
X85599764Y-43739826D01*
X85624184Y-43805289D01*
X85624500Y-43814141D01*
X85624500Y-44609217D01*
X85604815Y-44676256D01*
X85588181Y-44696898D01*
X82327343Y-47957736D01*
X79062221Y-51222858D01*
X79062218Y-51222861D01*
X78992538Y-51292540D01*
X78922859Y-51362219D01*
X78813371Y-51526079D01*
X78813364Y-51526092D01*
X78771997Y-51625964D01*
X78771997Y-51625965D01*
X78737949Y-51708163D01*
X78737947Y-51708171D01*
X78728930Y-51753503D01*
X78699500Y-51901455D01*
X78699500Y-52383023D01*
X78679815Y-52450062D01*
X78627011Y-52495817D01*
X78599865Y-52503266D01*
X78600068Y-52504124D01*
X78592520Y-52505907D01*
X78457671Y-52556202D01*
X78457664Y-52556206D01*
X78342455Y-52642452D01*
X78342452Y-52642455D01*
X78256206Y-52757664D01*
X78256202Y-52757671D01*
X78205908Y-52892517D01*
X78199501Y-52952116D01*
X78199501Y-52952123D01*
X78199500Y-52952135D01*
X77332600Y-52952135D01*
X77332600Y-46486775D01*
X77332601Y-46486754D01*
X77332601Y-46283557D01*
X77332600Y-46283555D01*
X77331085Y-46275941D01*
X77294152Y-46090265D01*
X77226096Y-45925965D01*
X77218733Y-45908188D01*
X77218728Y-45908179D01*
X77109240Y-45744319D01*
X77109237Y-45744315D01*
X76136819Y-44771897D01*
X76103334Y-44710574D01*
X76100500Y-44684216D01*
X76100500Y-44260758D01*
X76120185Y-44193719D01*
X76136819Y-44173077D01*
X76138495Y-44171401D01*
X76274035Y-43977830D01*
X76373903Y-43763663D01*
X76435063Y-43535408D01*
X76455659Y-43300000D01*
X76435063Y-43064592D01*
X76373903Y-42836337D01*
X76274035Y-42622171D01*
X76268425Y-42614158D01*
X76138494Y-42428597D01*
X75971402Y-42261506D01*
X75971395Y-42261501D01*
X75777834Y-42125967D01*
X75777830Y-42125965D01*
X75735457Y-42106206D01*
X75563663Y-42026097D01*
X75563659Y-42026096D01*
X75563655Y-42026094D01*
X75335413Y-41964938D01*
X75335403Y-41964936D01*
X75100001Y-41944341D01*
X75099999Y-41944341D01*
X74864596Y-41964936D01*
X74864586Y-41964938D01*
X74636344Y-42026094D01*
X74636335Y-42026098D01*
X74422171Y-42125964D01*
X74422169Y-42125965D01*
X74228597Y-42261505D01*
X74061505Y-42428597D01*
X73931575Y-42614158D01*
X73876998Y-42657783D01*
X73807500Y-42664977D01*
X73745145Y-42633454D01*
X73728425Y-42614158D01*
X73598494Y-42428597D01*
X73431402Y-42261506D01*
X73431395Y-42261501D01*
X73237834Y-42125967D01*
X73237830Y-42125965D01*
X73195457Y-42106206D01*
X73023663Y-42026097D01*
X73023659Y-42026096D01*
X73023655Y-42026094D01*
X72795413Y-41964938D01*
X72795403Y-41964936D01*
X72560001Y-41944341D01*
X72559999Y-41944341D01*
X72324596Y-41964936D01*
X72324586Y-41964938D01*
X72096344Y-42026094D01*
X72096335Y-42026098D01*
X71882171Y-42125964D01*
X71882169Y-42125965D01*
X71688600Y-42261503D01*
X71566673Y-42383430D01*
X71505350Y-42416914D01*
X71435658Y-42411930D01*
X71379725Y-42370058D01*
X71362810Y-42339081D01*
X71313797Y-42207671D01*
X71313793Y-42207664D01*
X71227547Y-42092455D01*
X71227544Y-42092452D01*
X71112335Y-42006206D01*
X71112328Y-42006202D01*
X70977482Y-41955908D01*
X70977483Y-41955908D01*
X70917883Y-41949501D01*
X70917881Y-41949500D01*
X70917873Y-41949500D01*
X70917864Y-41949500D01*
X69122129Y-41949500D01*
X69122123Y-41949501D01*
X69062516Y-41955908D01*
X68927671Y-42006202D01*
X68927664Y-42006206D01*
X68812455Y-42092452D01*
X68812452Y-42092455D01*
X68726206Y-42207664D01*
X68726202Y-42207671D01*
X68675908Y-42342517D01*
X68669501Y-42402116D01*
X68669500Y-42402135D01*
X68669500Y-43074318D01*
X68649815Y-43141357D01*
X68597011Y-43187112D01*
X68527853Y-43197056D01*
X68464297Y-43168031D01*
X68457819Y-43161999D01*
X65308409Y-40012589D01*
X65308406Y-40012585D01*
X65308406Y-40012586D01*
X65301339Y-40005519D01*
X65301339Y-40005518D01*
X65161982Y-39866161D01*
X65161981Y-39866160D01*
X65161980Y-39866159D01*
X64998120Y-39756671D01*
X64998111Y-39756666D01*
X64925515Y-39726596D01*
X64869365Y-39703338D01*
X64816036Y-39681249D01*
X64816032Y-39681248D01*
X64816028Y-39681246D01*
X64719388Y-39662024D01*
X64622744Y-39642800D01*
X64622741Y-39642800D01*
X58701375Y-39642800D01*
X58701355Y-39642799D01*
X58695241Y-39642799D01*
X58498160Y-39642799D01*
X58498157Y-39642799D01*
X58304872Y-39681246D01*
X58304864Y-39681248D01*
X58122788Y-39756666D01*
X58122779Y-39756671D01*
X57958919Y-39866159D01*
X57958915Y-39866162D01*
X55806969Y-42018108D01*
X55745646Y-42051593D01*
X55730097Y-42053955D01*
X55604596Y-42064936D01*
X55604586Y-42064938D01*
X55376344Y-42126094D01*
X55376335Y-42126098D01*
X55162171Y-42225964D01*
X55162169Y-42225965D01*
X54968597Y-42361505D01*
X54801505Y-42528597D01*
X54671575Y-42714158D01*
X54616998Y-42757783D01*
X54547500Y-42764977D01*
X54485145Y-42733454D01*
X54468425Y-42714158D01*
X54338494Y-42528597D01*
X54171402Y-42361506D01*
X54171395Y-42361501D01*
X53977834Y-42225967D01*
X53977830Y-42225965D01*
X53977828Y-42225964D01*
X53763663Y-42126097D01*
X53763659Y-42126096D01*
X53763655Y-42126094D01*
X53535413Y-42064938D01*
X53535403Y-42064936D01*
X53300001Y-42044341D01*
X53299999Y-42044341D01*
X53064596Y-42064936D01*
X53064586Y-42064938D01*
X52836344Y-42126094D01*
X52836335Y-42126098D01*
X52622171Y-42225964D01*
X52622169Y-42225965D01*
X52428600Y-42361503D01*
X52306673Y-42483430D01*
X52245350Y-42516914D01*
X52175658Y-42511930D01*
X52119725Y-42470058D01*
X52102810Y-42439081D01*
X52053797Y-42307671D01*
X52053793Y-42307664D01*
X51967547Y-42192455D01*
X51967544Y-42192452D01*
X51852335Y-42106206D01*
X51852328Y-42106202D01*
X51717482Y-42055908D01*
X51717483Y-42055908D01*
X51657883Y-42049501D01*
X51657881Y-42049500D01*
X51657873Y-42049500D01*
X51657864Y-42049500D01*
X49862129Y-42049500D01*
X49862123Y-42049501D01*
X49802516Y-42055908D01*
X49667671Y-42106202D01*
X49667664Y-42106206D01*
X49552455Y-42192452D01*
X49552452Y-42192455D01*
X49466206Y-42307664D01*
X49466202Y-42307671D01*
X49415908Y-42442517D01*
X49409501Y-42502116D01*
X49409500Y-42502135D01*
X49409500Y-44297870D01*
X49409501Y-44297876D01*
X49415908Y-44357483D01*
X49466202Y-44492328D01*
X49466206Y-44492335D01*
X49552452Y-44607544D01*
X49552455Y-44607547D01*
X49667665Y-44693794D01*
X49667667Y-44693794D01*
X49667669Y-44693796D01*
X49678830Y-44697958D01*
X49734764Y-44739826D01*
X49759184Y-44805289D01*
X49759500Y-44814141D01*
X49759500Y-47366518D01*
X49739815Y-47433557D01*
X49687011Y-47479312D01*
X49617853Y-47489256D01*
X49554297Y-47460231D01*
X49547819Y-47454199D01*
X41997379Y-39903759D01*
X41997359Y-39903737D01*
X41853685Y-39760063D01*
X41853681Y-39760060D01*
X41689820Y-39650571D01*
X41689811Y-39650566D01*
X41617215Y-39620496D01*
X41561065Y-39597238D01*
X41507736Y-39575149D01*
X41507732Y-39575148D01*
X41507728Y-39575146D01*
X41411088Y-39555924D01*
X41314444Y-39536700D01*
X41314441Y-39536700D01*
X39877859Y-39536700D01*
X39877855Y-39536700D01*
X39781212Y-39555924D01*
X39684567Y-39575147D01*
X39684561Y-39575149D01*
X39631234Y-39597237D01*
X39631234Y-39597238D01*
X39585715Y-39616092D01*
X39502489Y-39650566D01*
X39502479Y-39650571D01*
X39338619Y-39760059D01*
X39268940Y-39829738D01*
X39199261Y-39899418D01*
X39199258Y-39899421D01*
X37031121Y-42067558D01*
X37031118Y-42067561D01*
X36992477Y-42106202D01*
X36891759Y-42206919D01*
X36782271Y-42370779D01*
X36782264Y-42370792D01*
X36706850Y-42552860D01*
X36706847Y-42552870D01*
X36668400Y-42746156D01*
X36668400Y-42746159D01*
X36668400Y-89638641D01*
X36668400Y-89638643D01*
X36668399Y-89638643D01*
X26300500Y-89638643D01*
X26300500Y-34724500D01*
X26320185Y-34657461D01*
X26372989Y-34611706D01*
X26424500Y-34600500D01*
X107075500Y-34600500D01*
X107142539Y-34620185D01*
G37*
%TD.AperFunction*%
%TD*%
M02*
