%TF.GenerationSoftware,KiCad,Pcbnew,8.0.6-8.0.6-0~ubuntu24.04.1*%
%TF.CreationDate,2024-10-19T11:53:00+02:00*%
%TF.ProjectId,K3NG-rotator-shield,4b334e47-2d72-46f7-9461-746f722d7368,rev?*%
%TF.SameCoordinates,Original*%
%TF.FileFunction,Legend,Bot*%
%TF.FilePolarity,Positive*%
%FSLAX46Y46*%
G04 Gerber Fmt 4.6, Leading zero omitted, Abs format (unit mm)*
G04 Created by KiCad (PCBNEW 8.0.6-8.0.6-0~ubuntu24.04.1) date 2024-10-19 11:53:00*
%MOMM*%
%LPD*%
G01*
G04 APERTURE LIST*
%ADD10C,0.150000*%
G04 APERTURE END LIST*
D10*
X186235104Y-26805714D02*
X186235104Y-27281904D01*
X186520819Y-26710476D02*
X185520819Y-27043809D01*
X185520819Y-27043809D02*
X186520819Y-27377142D01*
X186520819Y-28234285D02*
X186520819Y-27662857D01*
X186520819Y-27948571D02*
X185520819Y-27948571D01*
X185520819Y-27948571D02*
X185663676Y-27853333D01*
X185663676Y-27853333D02*
X185758914Y-27758095D01*
X185758914Y-27758095D02*
X185806533Y-27662857D01*
X164073580Y-87463999D02*
X164121200Y-87416380D01*
X164121200Y-87416380D02*
X164168819Y-87463999D01*
X164168819Y-87463999D02*
X164121200Y-87511618D01*
X164121200Y-87511618D02*
X164073580Y-87463999D01*
X164073580Y-87463999D02*
X164168819Y-87463999D01*
X180150180Y-89218094D02*
X181150180Y-89218094D01*
X181150180Y-89218094D02*
X181150180Y-88979999D01*
X181150180Y-88979999D02*
X181102561Y-88837142D01*
X181102561Y-88837142D02*
X181007323Y-88741904D01*
X181007323Y-88741904D02*
X180912085Y-88694285D01*
X180912085Y-88694285D02*
X180721609Y-88646666D01*
X180721609Y-88646666D02*
X180578752Y-88646666D01*
X180578752Y-88646666D02*
X180388276Y-88694285D01*
X180388276Y-88694285D02*
X180293038Y-88741904D01*
X180293038Y-88741904D02*
X180197800Y-88837142D01*
X180197800Y-88837142D02*
X180150180Y-88979999D01*
X180150180Y-88979999D02*
X180150180Y-89218094D01*
X181150180Y-88027618D02*
X181150180Y-87932380D01*
X181150180Y-87932380D02*
X181102561Y-87837142D01*
X181102561Y-87837142D02*
X181054942Y-87789523D01*
X181054942Y-87789523D02*
X180959704Y-87741904D01*
X180959704Y-87741904D02*
X180769228Y-87694285D01*
X180769228Y-87694285D02*
X180531133Y-87694285D01*
X180531133Y-87694285D02*
X180340657Y-87741904D01*
X180340657Y-87741904D02*
X180245419Y-87789523D01*
X180245419Y-87789523D02*
X180197800Y-87837142D01*
X180197800Y-87837142D02*
X180150180Y-87932380D01*
X180150180Y-87932380D02*
X180150180Y-88027618D01*
X180150180Y-88027618D02*
X180197800Y-88122856D01*
X180197800Y-88122856D02*
X180245419Y-88170475D01*
X180245419Y-88170475D02*
X180340657Y-88218094D01*
X180340657Y-88218094D02*
X180531133Y-88265713D01*
X180531133Y-88265713D02*
X180769228Y-88265713D01*
X180769228Y-88265713D02*
X180959704Y-88218094D01*
X180959704Y-88218094D02*
X181054942Y-88170475D01*
X181054942Y-88170475D02*
X181102561Y-88122856D01*
X181102561Y-88122856D02*
X181150180Y-88027618D01*
%TO.C,A1*%
X131710000Y-24980000D02*
X131710000Y-124040000D01*
X131710000Y-124040000D02*
X132980000Y-124040000D01*
X132980000Y-124040000D02*
X135520000Y-126580000D01*
X135520000Y-126580000D02*
X169810000Y-126580000D01*
X169810000Y-126580000D02*
X172350000Y-124040000D01*
X172350000Y-124040000D02*
X183526000Y-124040000D01*
X185050000Y-24980000D02*
X131710000Y-24980000D01*
X185050000Y-24980000D02*
X185050000Y-122516000D01*
X185050000Y-122516000D02*
X183526000Y-124040000D01*
%TD*%
M02*
