%TF.GenerationSoftware,KiCad,Pcbnew,8.0.6-8.0.6-0~ubuntu24.04.1*%
%TF.CreationDate,2024-10-17T13:49:59+02:00*%
%TF.ProjectId,K3NG-rotator-shield,4b334e47-2d72-46f7-9461-746f722d7368,rev?*%
%TF.SameCoordinates,Original*%
%TF.FileFunction,Soldermask,Bot*%
%TF.FilePolarity,Negative*%
%FSLAX46Y46*%
G04 Gerber Fmt 4.6, Leading zero omitted, Abs format (unit mm)*
G04 Created by KiCad (PCBNEW 8.0.6-8.0.6-0~ubuntu24.04.1) date 2024-10-17 13:49:59*
%MOMM*%
%LPD*%
G01*
G04 APERTURE LIST*
%ADD10C,7.500000*%
%ADD11R,1.700000X1.700000*%
%ADD12O,1.700000X1.700000*%
%ADD13C,1.600000*%
%ADD14C,1.400000*%
%ADD15O,1.400000X1.400000*%
%ADD16R,2.000000X2.000000*%
%ADD17C,2.000000*%
G04 APERTURE END LIST*
D10*
%TO.C,J15*%
X102700000Y-79400000D03*
%TD*%
%TO.C,J14*%
X102700000Y-40000000D03*
%TD*%
%TO.C,J13*%
X102600000Y-60100000D03*
%TD*%
%TO.C,J12*%
X102600000Y-98700000D03*
%TD*%
%TO.C,J10*%
X30800000Y-39800000D03*
%TD*%
%TO.C,J5*%
X30900000Y-98900000D03*
%TD*%
D11*
%TO.C,J8*%
X50520000Y-94800000D03*
D12*
X53060000Y-94800000D03*
X55600000Y-94800000D03*
X58140000Y-94800000D03*
X60680000Y-94800000D03*
X63220000Y-94800000D03*
X65760000Y-94800000D03*
X68300000Y-94800000D03*
%TD*%
D13*
%TO.C,C1*%
X60300000Y-52200000D03*
X65300000Y-52200000D03*
%TD*%
%TO.C,C3*%
X69000000Y-56500000D03*
X69000000Y-51500000D03*
%TD*%
D14*
%TO.C,R4*%
X72000000Y-60800000D03*
D15*
X72000000Y-65880000D03*
%TD*%
D11*
%TO.C,J6*%
X49860000Y-66300000D03*
D12*
X52400000Y-66300000D03*
X54940000Y-66300000D03*
X57480000Y-66300000D03*
X60020000Y-66300000D03*
X62560000Y-66300000D03*
X65100000Y-66300000D03*
%TD*%
D14*
%TO.C,R2*%
X51020000Y-56050000D03*
D15*
X56100000Y-56050000D03*
%TD*%
D11*
%TO.C,J4*%
X70020000Y-43300000D03*
D12*
X72560000Y-43300000D03*
X75100000Y-43300000D03*
X77640000Y-43300000D03*
%TD*%
D11*
%TO.C,J7*%
X51340000Y-78600000D03*
D12*
X53880000Y-78600000D03*
X56420000Y-78600000D03*
X58960000Y-78600000D03*
X61500000Y-78600000D03*
X64040000Y-78600000D03*
%TD*%
D11*
%TO.C,J11*%
X40600000Y-64880000D03*
D12*
X40600000Y-62340000D03*
X40600000Y-59800000D03*
X40600000Y-57260000D03*
X40600000Y-54720000D03*
X40600000Y-52180000D03*
X40600000Y-49640000D03*
X40600000Y-47100000D03*
X40600000Y-44560000D03*
X40600000Y-42020000D03*
%TD*%
D11*
%TO.C,J1*%
X40300000Y-89540000D03*
D12*
X40300000Y-87000000D03*
X40300000Y-84460000D03*
X40300000Y-81920000D03*
X40300000Y-79380000D03*
X40300000Y-76840000D03*
X40300000Y-74300000D03*
X40300000Y-71760000D03*
%TD*%
D11*
%TO.C,J9*%
X50760000Y-43400000D03*
D12*
X53300000Y-43400000D03*
X55840000Y-43400000D03*
X58380000Y-43400000D03*
X60920000Y-43400000D03*
X63460000Y-43400000D03*
%TD*%
D16*
%TO.C,C4*%
X79700000Y-54000000D03*
D17*
X74700000Y-54000000D03*
%TD*%
D11*
%TO.C,J3*%
X86625000Y-42400000D03*
D12*
X89165000Y-42400000D03*
%TD*%
D14*
%TO.C,R3*%
X72100000Y-73170000D03*
D15*
X72100000Y-68090000D03*
%TD*%
D14*
%TO.C,R1*%
X51020000Y-52900000D03*
D15*
X56100000Y-52900000D03*
%TD*%
D11*
%TO.C,J2*%
X76560000Y-95000000D03*
D12*
X79100000Y-95000000D03*
X81640000Y-95000000D03*
X84180000Y-95000000D03*
%TD*%
D13*
%TO.C,C2*%
X60300000Y-56250000D03*
X65300000Y-56250000D03*
%TD*%
G36*
X107643039Y-54819685D02*
G01*
X107688794Y-54872489D01*
X107700000Y-54924000D01*
X107700000Y-84776000D01*
X107680315Y-84843039D01*
X107627511Y-84888794D01*
X107576000Y-84900000D01*
X97324412Y-84900000D01*
X97257373Y-84880315D01*
X97211618Y-84827511D01*
X97200413Y-84775588D01*
X97299589Y-54923588D01*
X97319496Y-54856614D01*
X97372452Y-54811035D01*
X97423588Y-54800000D01*
X107576000Y-54800000D01*
X107643039Y-54819685D01*
G37*
M02*
