%TF.GenerationSoftware,KiCad,Pcbnew,8.0.6-8.0.6-0~ubuntu24.04.1*%
%TF.CreationDate,2024-10-17T13:49:59+02:00*%
%TF.ProjectId,K3NG-rotator-shield,4b334e47-2d72-46f7-9461-746f722d7368,rev?*%
%TF.SameCoordinates,Original*%
%TF.FileFunction,Copper,L1,Top*%
%TF.FilePolarity,Positive*%
%FSLAX46Y46*%
G04 Gerber Fmt 4.6, Leading zero omitted, Abs format (unit mm)*
G04 Created by KiCad (PCBNEW 8.0.6-8.0.6-0~ubuntu24.04.1) date 2024-10-17 13:49:59*
%MOMM*%
%LPD*%
G01*
G04 APERTURE LIST*
G04 Aperture macros list*
%AMRoundRect*
0 Rectangle with rounded corners*
0 $1 Rounding radius*
0 $2 $3 $4 $5 $6 $7 $8 $9 X,Y pos of 4 corners*
0 Add a 4 corners polygon primitive as box body*
4,1,4,$2,$3,$4,$5,$6,$7,$8,$9,$2,$3,0*
0 Add four circle primitives for the rounded corners*
1,1,$1+$1,$2,$3*
1,1,$1+$1,$4,$5*
1,1,$1+$1,$6,$7*
1,1,$1+$1,$8,$9*
0 Add four rect primitives between the rounded corners*
20,1,$1+$1,$2,$3,$4,$5,0*
20,1,$1+$1,$4,$5,$6,$7,0*
20,1,$1+$1,$6,$7,$8,$9,0*
20,1,$1+$1,$8,$9,$2,$3,0*%
G04 Aperture macros list end*
%TA.AperFunction,ComponentPad*%
%ADD10C,7.500000*%
%TD*%
%TA.AperFunction,ComponentPad*%
%ADD11R,1.700000X1.700000*%
%TD*%
%TA.AperFunction,ComponentPad*%
%ADD12O,1.700000X1.700000*%
%TD*%
%TA.AperFunction,ComponentPad*%
%ADD13C,1.600000*%
%TD*%
%TA.AperFunction,SMDPad,CuDef*%
%ADD14RoundRect,0.150000X-0.825000X-0.150000X0.825000X-0.150000X0.825000X0.150000X-0.825000X0.150000X0*%
%TD*%
%TA.AperFunction,HeatsinkPad*%
%ADD15C,0.500000*%
%TD*%
%TA.AperFunction,HeatsinkPad*%
%ADD16R,2.290000X3.000000*%
%TD*%
%TA.AperFunction,ComponentPad*%
%ADD17C,1.400000*%
%TD*%
%TA.AperFunction,ComponentPad*%
%ADD18O,1.400000X1.400000*%
%TD*%
%TA.AperFunction,ComponentPad*%
%ADD19R,2.000000X2.000000*%
%TD*%
%TA.AperFunction,ComponentPad*%
%ADD20C,2.000000*%
%TD*%
%TA.AperFunction,ViaPad*%
%ADD21C,0.600000*%
%TD*%
%TA.AperFunction,Conductor*%
%ADD22C,2.000000*%
%TD*%
%TA.AperFunction,Conductor*%
%ADD23C,1.000000*%
%TD*%
%TA.AperFunction,Conductor*%
%ADD24C,0.601000*%
%TD*%
G04 APERTURE END LIST*
D10*
%TO.P,J15,1,Pin_1*%
%TO.N,GND*%
X102700000Y-79400000D03*
%TD*%
%TO.P,J14,1,Pin_1*%
%TO.N,GND*%
X102700000Y-40000000D03*
%TD*%
%TO.P,J13,1,Pin_1*%
%TO.N,GND*%
X102600000Y-60100000D03*
%TD*%
%TO.P,J12,1,Pin_1*%
%TO.N,GND*%
X102600000Y-98700000D03*
%TD*%
%TO.P,J10,1,Pin_1*%
%TO.N,GND*%
X30800000Y-39800000D03*
%TD*%
%TO.P,J5,1,Pin_1*%
%TO.N,GND*%
X30900000Y-98900000D03*
%TD*%
D11*
%TO.P,J8,1,Pin_1*%
%TO.N,unconnected-(J8-Pin_1-Pad1)*%
X50520000Y-94800000D03*
D12*
%TO.P,J8,2,Pin_2*%
%TO.N,GND*%
X53060000Y-94800000D03*
%TO.P,J8,3,Pin_3*%
X55600000Y-94800000D03*
%TO.P,J8,4,Pin_4*%
%TO.N,5V*%
X58140000Y-94800000D03*
%TO.P,J8,5,Pin_5*%
%TO.N,Vref*%
X60680000Y-94800000D03*
%TO.P,J8,6,Pin_6*%
%TO.N,unconnected-(J8-Pin_6-Pad6)*%
X63220000Y-94800000D03*
%TO.P,J8,7,Pin_7*%
%TO.N,unconnected-(J8-Pin_7-Pad7)*%
X65760000Y-94800000D03*
%TO.P,J8,8,Pin_8*%
%TO.N,unconnected-(J8-Pin_8-Pad8)*%
X68300000Y-94800000D03*
%TD*%
D13*
%TO.P,C1,1*%
%TO.N,/AzimuthV*%
X60300000Y-52200000D03*
%TO.P,C1,2*%
%TO.N,GND*%
X65300000Y-52200000D03*
%TD*%
%TO.P,C3,1*%
%TO.N,VM*%
X69000000Y-56500000D03*
%TO.P,C3,2*%
%TO.N,GND*%
X69000000Y-51500000D03*
%TD*%
D14*
%TO.P,U2,1,1*%
%TO.N,IPRO1*%
X83675000Y-76105000D03*
%TO.P,U2,2,2*%
%TO.N,RotateUP*%
X83675000Y-77375000D03*
%TO.P,U2,3,3*%
%TO.N,RotateDown*%
X83675000Y-78645000D03*
%TO.P,U2,4,4*%
%TO.N,Vref*%
X83675000Y-79915000D03*
%TO.P,U2,5,5*%
%TO.N,VM*%
X88625000Y-79915000D03*
%TO.P,U2,6,6*%
%TO.N,RotateDown-OUT*%
X88625000Y-78645000D03*
%TO.P,U2,7,7*%
%TO.N,GND*%
X88625000Y-77375000D03*
%TO.P,U2,8,8*%
%TO.N,RotateUP-OUT*%
X88625000Y-76105000D03*
D15*
%TO.P,U2,9,9*%
%TO.N,GND*%
X85500000Y-77010000D03*
X85500000Y-78010000D03*
X85500000Y-79010000D03*
D16*
X86150000Y-78010000D03*
D15*
X86800000Y-77010000D03*
X86800000Y-78010000D03*
X86800000Y-79010000D03*
%TD*%
D17*
%TO.P,R4,1*%
%TO.N,IPRO2*%
X72000000Y-60800000D03*
D18*
%TO.P,R4,2*%
%TO.N,GND*%
X72000000Y-65880000D03*
%TD*%
D11*
%TO.P,J6,1,Pin_1*%
%TO.N,GND*%
X49860000Y-66300000D03*
D12*
%TO.P,J6,2,Pin_2*%
X52400000Y-66300000D03*
%TO.P,J6,3,Pin_3*%
%TO.N,/Turn CW*%
X54940000Y-66300000D03*
%TO.P,J6,4,Pin_4*%
%TO.N,/Turn CCW*%
X57480000Y-66300000D03*
%TO.P,J6,5,Pin_5*%
%TO.N,/UP*%
X60020000Y-66300000D03*
%TO.P,J6,6,Pin_6*%
%TO.N,/DOWN*%
X62560000Y-66300000D03*
%TO.P,J6,7,Pin_7*%
%TO.N,Net-(J1-Pin_7)*%
X65100000Y-66300000D03*
%TD*%
D17*
%TO.P,R2,1*%
%TO.N,/AzimuthV*%
X51020000Y-56050000D03*
D18*
%TO.P,R2,2*%
%TO.N,Net-(J9-Pin_2)*%
X56100000Y-56050000D03*
%TD*%
D11*
%TO.P,J4,1,Pin_1*%
%TO.N,/SDA*%
X70020000Y-43300000D03*
D12*
%TO.P,J4,2,Pin_2*%
%TO.N,/SCL*%
X72560000Y-43300000D03*
%TO.P,J4,3,Pin_3*%
%TO.N,5V*%
X75100000Y-43300000D03*
%TO.P,J4,4,Pin_4*%
%TO.N,GND*%
X77640000Y-43300000D03*
%TD*%
D11*
%TO.P,J7,1,Pin_1*%
%TO.N,/ElevationV*%
X51340000Y-78600000D03*
D12*
%TO.P,J7,2,Pin_2*%
%TO.N,/AzimuthV*%
X53880000Y-78600000D03*
%TO.P,J7,3,Pin_3*%
%TO.N,unconnected-(J7-Pin_3-Pad3)*%
X56420000Y-78600000D03*
%TO.P,J7,4,Pin_4*%
%TO.N,unconnected-(J7-Pin_4-Pad4)*%
X58960000Y-78600000D03*
%TO.P,J7,5,Pin_5*%
%TO.N,Net-(J7-Pin_5)*%
X61500000Y-78600000D03*
%TO.P,J7,6,Pin_6*%
%TO.N,/ACD0*%
X64040000Y-78600000D03*
%TD*%
D11*
%TO.P,J11,1,Pin_1*%
%TO.N,RotateUP*%
X40600000Y-64880000D03*
D12*
%TO.P,J11,2,Pin_2*%
%TO.N,RotateCCW*%
X40600000Y-62340000D03*
%TO.P,J11,3,Pin_3*%
%TO.N,RotateCW*%
X40600000Y-59800000D03*
%TO.P,J11,4,Pin_4*%
%TO.N,unconnected-(J11-Pin_4-Pad4)*%
X40600000Y-57260000D03*
%TO.P,J11,5,Pin_5*%
%TO.N,unconnected-(J11-Pin_5-Pad5)*%
X40600000Y-54720000D03*
%TO.P,J11,6,Pin_6*%
%TO.N,unconnected-(J11-Pin_6-Pad6)*%
X40600000Y-52180000D03*
%TO.P,J11,7,Pin_7*%
%TO.N,GND*%
X40600000Y-49640000D03*
%TO.P,J11,8,Pin_8*%
%TO.N,unconnected-(J11-Pin_8-Pad8)*%
X40600000Y-47100000D03*
%TO.P,J11,9,Pin_9*%
%TO.N,/SDA*%
X40600000Y-44560000D03*
%TO.P,J11,10,Pin_10*%
%TO.N,/SCL*%
X40600000Y-42020000D03*
%TD*%
D11*
%TO.P,J1,1,Pin_1*%
%TO.N,unconnected-(J1-Pin_1-Pad1)*%
X40300000Y-89540000D03*
D12*
%TO.P,J1,2,Pin_2*%
%TO.N,unconnected-(J1-Pin_2-Pad2)*%
X40300000Y-87000000D03*
%TO.P,J1,3,Pin_3*%
%TO.N,/Turn CW*%
X40300000Y-84460000D03*
%TO.P,J1,4,Pin_4*%
%TO.N,/Turn CCW*%
X40300000Y-81920000D03*
%TO.P,J1,5,Pin_5*%
%TO.N,/UP*%
X40300000Y-79380000D03*
%TO.P,J1,6,Pin_6*%
%TO.N,/DOWN*%
X40300000Y-76840000D03*
%TO.P,J1,7,Pin_7*%
%TO.N,Net-(J1-Pin_7)*%
X40300000Y-74300000D03*
%TO.P,J1,8,Pin_8*%
%TO.N,RotateDown*%
X40300000Y-71760000D03*
%TD*%
D11*
%TO.P,J9,1,Pin_1*%
%TO.N,Net-(J9-Pin_1)*%
X50760000Y-43400000D03*
D12*
%TO.P,J9,2,Pin_2*%
%TO.N,Net-(J9-Pin_2)*%
X53300000Y-43400000D03*
%TO.P,J9,3,Pin_3*%
%TO.N,IPRO2*%
X55840000Y-43400000D03*
%TO.P,J9,4,Pin_4*%
%TO.N,IPRO1*%
X58380000Y-43400000D03*
%TO.P,J9,5,Pin_5*%
%TO.N,Net-(J7-Pin_5)*%
X60920000Y-43400000D03*
%TO.P,J9,6,Pin_6*%
%TO.N,/ACD0*%
X63460000Y-43400000D03*
%TD*%
D19*
%TO.P,C4,1*%
%TO.N,VM*%
X79700000Y-54000000D03*
D20*
%TO.P,C4,2*%
%TO.N,GND*%
X74700000Y-54000000D03*
%TD*%
D11*
%TO.P,J3,1,Pin_1*%
%TO.N,VM*%
X86625000Y-42400000D03*
D12*
%TO.P,J3,2,Pin_2*%
%TO.N,GND*%
X89165000Y-42400000D03*
%TD*%
D17*
%TO.P,R3,1*%
%TO.N,IPRO1*%
X72100000Y-73170000D03*
D18*
%TO.P,R3,2*%
%TO.N,GND*%
X72100000Y-68090000D03*
%TD*%
D17*
%TO.P,R1,1*%
%TO.N,/ElevationV*%
X51020000Y-52900000D03*
D18*
%TO.P,R1,2*%
%TO.N,Net-(J9-Pin_1)*%
X56100000Y-52900000D03*
%TD*%
D14*
%TO.P,U1,1,1*%
%TO.N,IPRO2*%
X83800000Y-61095000D03*
%TO.P,U1,2,2*%
%TO.N,RotateCCW*%
X83800000Y-62365000D03*
%TO.P,U1,3,3*%
%TO.N,RotateCW*%
X83800000Y-63635000D03*
%TO.P,U1,4,4*%
%TO.N,Vref*%
X83800000Y-64905000D03*
%TO.P,U1,5,5*%
%TO.N,VM*%
X88750000Y-64905000D03*
%TO.P,U1,6,6*%
%TO.N,RotateCCW-OUT*%
X88750000Y-63635000D03*
%TO.P,U1,7,7*%
%TO.N,GND*%
X88750000Y-62365000D03*
%TO.P,U1,8,8*%
%TO.N,RotateCCW-OUT*%
X88750000Y-61095000D03*
D15*
%TO.P,U1,9,9*%
%TO.N,GND*%
X85625000Y-62000000D03*
X85625000Y-63000000D03*
X85625000Y-64000000D03*
D16*
X86275000Y-63000000D03*
D15*
X86925000Y-62000000D03*
X86925000Y-63000000D03*
X86925000Y-64000000D03*
%TD*%
D11*
%TO.P,J2,1,Pin_1*%
%TO.N,RotateCCW-OUT*%
X76560000Y-95000000D03*
D12*
%TO.P,J2,2,Pin_2*%
X79100000Y-95000000D03*
%TO.P,J2,3,Pin_3*%
%TO.N,RotateDown-OUT*%
X81640000Y-95000000D03*
%TO.P,J2,4,Pin_4*%
%TO.N,RotateUP-OUT*%
X84180000Y-95000000D03*
%TD*%
D13*
%TO.P,C2,1*%
%TO.N,/ElevationV*%
X60300000Y-56250000D03*
%TO.P,C2,2*%
%TO.N,GND*%
X65300000Y-56250000D03*
%TD*%
D21*
%TO.N,GND*%
X96300000Y-78200000D03*
X96200000Y-65800000D03*
X96300000Y-71000000D03*
X86100000Y-82700000D03*
X91400000Y-75600000D03*
X91500000Y-68600000D03*
X90800000Y-58200000D03*
X92000000Y-59500000D03*
X84700000Y-83000000D03*
X86100000Y-72900000D03*
X86100000Y-68500000D03*
X88800000Y-89100000D03*
X74900000Y-78600000D03*
X79100000Y-76300000D03*
X46000000Y-42900000D03*
X86200000Y-57800000D03*
X91400000Y-71600000D03*
X46600000Y-82800000D03*
X61800000Y-73500000D03*
X54400000Y-73500000D03*
X44100000Y-66500000D03*
X55900000Y-61400000D03*
X58400000Y-48700000D03*
%TO.N,Net-(J9-Pin_1)*%
X52652400Y-47258600D03*
%TO.N,/Turn CCW*%
X44709600Y-72675500D03*
%TO.N,/UP*%
X56488100Y-71017600D03*
%TO.N,/Turn CW*%
X45639200Y-74013400D03*
%TO.N,RotateCCW-OUT*%
X91334100Y-62394200D03*
X90758300Y-60997200D03*
%TO.N,VM*%
X86986400Y-80188200D03*
%TO.N,RotateCCW*%
X43361900Y-61115300D03*
%TO.N,RotateUP*%
X72103300Y-76048200D03*
%TO.N,RotateDown*%
X46550700Y-61608500D03*
X77392500Y-60736100D03*
X76632900Y-78506500D03*
%TO.N,Net-(J7-Pin_5)*%
X65170100Y-64712300D03*
%TD*%
D22*
%TO.N,RotateUP-OUT*%
X94100000Y-85100000D02*
X92700000Y-86500000D01*
X93700000Y-78500000D02*
X93900000Y-78700000D01*
X93900000Y-84900000D02*
X94100000Y-85100000D01*
D23*
X89494200Y-76105000D02*
X88625000Y-76105000D01*
D22*
X93900000Y-78700000D02*
X93900000Y-84900000D01*
X92700000Y-86500000D02*
X92700000Y-87800000D01*
X92700000Y-87800000D02*
X85500000Y-95000000D01*
D23*
X93700000Y-78500000D02*
X91889200Y-78500000D01*
X91889200Y-78500000D02*
X89494200Y-76105000D01*
X85500000Y-95000000D02*
X84180000Y-95000000D01*
D22*
%TO.N,VM*%
X92465800Y-64565800D02*
X94400000Y-62631600D01*
X94400000Y-62631600D02*
X94400000Y-58500000D01*
X94400000Y-58500000D02*
X89900000Y-54000000D01*
X89900000Y-54000000D02*
X85368800Y-54000000D01*
D23*
%TO.N,RotateDown-OUT*%
X90277300Y-79549200D02*
X91200000Y-80471900D01*
D22*
X91200000Y-80471900D02*
X91200000Y-83590000D01*
X91200000Y-83590000D02*
X81640000Y-93150000D01*
D23*
X81640000Y-93150000D02*
X81640000Y-95000000D01*
%TO.N,Net-(J9-Pin_1)*%
X52652400Y-47752400D02*
X56100000Y-51200000D01*
X52652400Y-47258600D02*
X52652400Y-47752400D01*
X56100000Y-52900000D02*
X56100000Y-51200000D01*
%TO.N,/SCL*%
X43020000Y-41450000D02*
X72560000Y-41450000D01*
X42450000Y-42020000D02*
X43020000Y-41450000D01*
X40600000Y-42020000D02*
X42450000Y-42020000D01*
X72560000Y-43300000D02*
X72560000Y-41450000D01*
%TO.N,/SDA*%
X66587500Y-44882500D02*
X68170000Y-43300000D01*
X42772500Y-44882500D02*
X66587500Y-44882500D01*
X42450000Y-44560000D02*
X42772500Y-44882500D01*
X40600000Y-44560000D02*
X42450000Y-44560000D01*
X70020000Y-43300000D02*
X68170000Y-43300000D01*
%TO.N,/Turn CCW*%
X44709600Y-68857000D02*
X44709600Y-72675500D01*
X48748300Y-64818300D02*
X44709600Y-68857000D01*
X55998300Y-64818300D02*
X48748300Y-64818300D01*
X57480000Y-66300000D02*
X55998300Y-64818300D01*
%TO.N,/UP*%
X44926200Y-79380000D02*
X40300000Y-79380000D01*
X53288600Y-71017600D02*
X44926200Y-79380000D01*
X56488100Y-71017600D02*
X53288600Y-71017600D01*
%TO.N,/Turn CW*%
X51517200Y-68135400D02*
X45639200Y-74013400D01*
X53104600Y-68135400D02*
X51517200Y-68135400D01*
X54940000Y-66300000D02*
X53104600Y-68135400D01*
%TO.N,/DOWN*%
X44473700Y-76840000D02*
X40300000Y-76840000D01*
X51857200Y-69456500D02*
X44473700Y-76840000D01*
X59403500Y-69456500D02*
X51857200Y-69456500D01*
X62560000Y-66300000D02*
X59403500Y-69456500D01*
%TO.N,Net-(J1-Pin_7)*%
X54412200Y-76987800D02*
X65100000Y-66300000D01*
X50310900Y-76987800D02*
X54412200Y-76987800D01*
X48769400Y-78529300D02*
X50310900Y-76987800D01*
X48769400Y-83706700D02*
X48769400Y-78529300D01*
X41454400Y-91021700D02*
X48769400Y-83706700D01*
X39184400Y-91021700D02*
X41454400Y-91021700D01*
X38806800Y-90644100D02*
X39184400Y-91021700D01*
X38806800Y-75793200D02*
X38806800Y-90644100D01*
X40300000Y-74300000D02*
X38806800Y-75793200D01*
D24*
%TO.N,RotateDown-OUT*%
X89373100Y-78645000D02*
X88625000Y-78645000D01*
X90277300Y-79549200D02*
X89373100Y-78645000D01*
D23*
%TO.N,RotateCCW-OUT*%
X90779600Y-62948700D02*
X90779600Y-63295800D01*
X91334100Y-62394200D02*
X90779600Y-62948700D01*
D24*
X89089200Y-63295800D02*
X88750000Y-63635000D01*
X90779600Y-63295800D02*
X89089200Y-63295800D01*
D23*
X88847800Y-60997200D02*
X88750000Y-61095000D01*
X90758300Y-60997200D02*
X88847800Y-60997200D01*
%TO.N,VM*%
X88351800Y-80188200D02*
X88625000Y-79915000D01*
X86986400Y-80188200D02*
X88351800Y-80188200D01*
X75200000Y-56500000D02*
X69000000Y-56500000D01*
X77700000Y-54000000D02*
X75200000Y-56500000D01*
X79700000Y-54000000D02*
X77700000Y-54000000D01*
X86625000Y-42400000D02*
X86625000Y-44250000D01*
D22*
X85368800Y-45506200D02*
X85368800Y-54000000D01*
D23*
X86625000Y-44250000D02*
X85368800Y-45506200D01*
D22*
X85368800Y-54000000D02*
X79700000Y-54000000D01*
D23*
%TO.N,/ElevationV*%
X58525000Y-54475000D02*
X60300000Y-56250000D01*
X58525000Y-54474900D02*
X58525000Y-54475000D01*
X52594900Y-54474900D02*
X58525000Y-54474900D01*
X51020000Y-52900000D02*
X52594900Y-54474900D01*
%TO.N,RotateCCW*%
X78982200Y-62365000D02*
X83800000Y-62365000D01*
X78347700Y-62999500D02*
X78982200Y-62365000D01*
X76454900Y-62999500D02*
X78347700Y-62999500D01*
X76197300Y-62741900D02*
X76454900Y-62999500D01*
X44988500Y-62741900D02*
X76197300Y-62741900D01*
X43361900Y-61115300D02*
X44988500Y-62741900D01*
%TO.N,Vref*%
X60680000Y-94800000D02*
X60680000Y-92950000D01*
X74033400Y-79596600D02*
X60680000Y-92950000D01*
X70720100Y-76283300D02*
X74033400Y-79596600D01*
X70720100Y-72640300D02*
X70720100Y-76283300D01*
X78455400Y-64905000D02*
X70720100Y-72640300D01*
X83800000Y-64905000D02*
X78455400Y-64905000D01*
X83363800Y-80226200D02*
X83675000Y-79915000D01*
X74663000Y-80226200D02*
X83363800Y-80226200D01*
X74033400Y-79596600D02*
X74663000Y-80226200D01*
%TO.N,RotateUP*%
X75381000Y-76048200D02*
X76568000Y-77235200D01*
X72103300Y-76048200D02*
X75381000Y-76048200D01*
D24*
X76707800Y-77375000D02*
X76568000Y-77235200D01*
X83675000Y-77375000D02*
X76707800Y-77375000D01*
D23*
%TO.N,RotateDown*%
X81670200Y-78506500D02*
X82230800Y-79067100D01*
X76632900Y-78506500D02*
X81670200Y-78506500D01*
D24*
X82747800Y-79067100D02*
X83147400Y-78667500D01*
X82230800Y-79067100D02*
X82747800Y-79067100D01*
D23*
X83652500Y-78667500D02*
X83675000Y-78645000D01*
X83147400Y-78667500D02*
X83652500Y-78667500D01*
X76061700Y-59405300D02*
X77392500Y-60736100D01*
X70304800Y-59405300D02*
X76061700Y-59405300D01*
X70303300Y-59403800D02*
X70304800Y-59405300D01*
X48755400Y-59403800D02*
X70303300Y-59403800D01*
X46550700Y-61608500D02*
X48755400Y-59403800D01*
%TO.N,RotateCW*%
X42903100Y-62257000D02*
X42903100Y-62754400D01*
X40600000Y-59953900D02*
X42903100Y-62257000D01*
X40600000Y-59800000D02*
X40600000Y-59953900D01*
D24*
X83503300Y-63931700D02*
X83800000Y-63635000D01*
X76068700Y-63931700D02*
X83503300Y-63931700D01*
X75811100Y-63674100D02*
X76068700Y-63931700D01*
X43822800Y-63674100D02*
X75811100Y-63674100D01*
X42903100Y-62754400D02*
X43822800Y-63674100D01*
D23*
%TO.N,IPRO2*%
X78651700Y-61095000D02*
X83800000Y-61095000D01*
X77878900Y-61867800D02*
X78651700Y-61095000D01*
X76923700Y-61867800D02*
X77878900Y-61867800D01*
X75855900Y-60800000D02*
X76923700Y-61867800D01*
X72000000Y-60800000D02*
X75855900Y-60800000D01*
%TO.N,IPRO1*%
X80740000Y-73170000D02*
X83675000Y-76105000D01*
X72100000Y-73170000D02*
X80740000Y-73170000D01*
%TO.N,Net-(J7-Pin_5)*%
X66581700Y-71668300D02*
X61500000Y-76750000D01*
X66581700Y-65683200D02*
X66581700Y-71668300D01*
X65610800Y-64712300D02*
X66581700Y-65683200D01*
X65170100Y-64712300D02*
X65610800Y-64712300D01*
X61500000Y-78600000D02*
X61500000Y-76750000D01*
D24*
%TO.N,VM*%
X92465800Y-64565800D02*
X89089200Y-64565800D01*
X89089200Y-64565800D02*
X88750000Y-64905000D01*
%TD*%
%TA.AperFunction,Conductor*%
%TO.N,GND*%
G36*
X91229926Y-85784615D02*
G01*
X91285859Y-85826487D01*
X91310276Y-85891951D01*
X91304523Y-85939115D01*
X91236447Y-86148627D01*
X91236447Y-86148630D01*
X91199500Y-86381902D01*
X91199500Y-87127110D01*
X91179815Y-87194149D01*
X91163181Y-87214791D01*
X84700762Y-93677209D01*
X84639439Y-93710694D01*
X84580988Y-93709303D01*
X84415413Y-93664938D01*
X84415403Y-93664936D01*
X84180001Y-93644341D01*
X84179999Y-93644341D01*
X83944596Y-93664936D01*
X83944586Y-93664938D01*
X83716344Y-93726094D01*
X83716335Y-93726098D01*
X83502171Y-93825964D01*
X83502169Y-93825965D01*
X83308597Y-93961505D01*
X83141508Y-94128594D01*
X83011574Y-94314160D01*
X82956997Y-94357784D01*
X82887498Y-94364977D01*
X82825144Y-94333455D01*
X82808429Y-94314164D01*
X82781387Y-94275544D01*
X82759061Y-94209340D01*
X82776072Y-94141573D01*
X82795278Y-94116747D01*
X91098912Y-85813115D01*
X91160234Y-85779631D01*
X91229926Y-85784615D01*
G37*
%TD.AperFunction*%
%TA.AperFunction,Conductor*%
G36*
X47729691Y-78093941D02*
G01*
X47785624Y-78135813D01*
X47810041Y-78201277D01*
X47807974Y-78234314D01*
X47768900Y-78430754D01*
X47768900Y-83240917D01*
X47749215Y-83307956D01*
X47732581Y-83328598D01*
X41862180Y-89198999D01*
X41800857Y-89232484D01*
X41731165Y-89227500D01*
X41675232Y-89185628D01*
X41650815Y-89120164D01*
X41650499Y-89111318D01*
X41650499Y-88642129D01*
X41650498Y-88642123D01*
X41644091Y-88582516D01*
X41593797Y-88447671D01*
X41593793Y-88447664D01*
X41507547Y-88332455D01*
X41507544Y-88332452D01*
X41392335Y-88246206D01*
X41392328Y-88246202D01*
X41260917Y-88197189D01*
X41204983Y-88155318D01*
X41180566Y-88089853D01*
X41195418Y-88021580D01*
X41216563Y-87993332D01*
X41338495Y-87871401D01*
X41474035Y-87677830D01*
X41573903Y-87463663D01*
X41635063Y-87235408D01*
X41655659Y-87000000D01*
X41635063Y-86764592D01*
X41573903Y-86536337D01*
X41474035Y-86322171D01*
X41424607Y-86251579D01*
X41338494Y-86128597D01*
X41171402Y-85961506D01*
X41171396Y-85961501D01*
X40985842Y-85831575D01*
X40942217Y-85776998D01*
X40935023Y-85707500D01*
X40966546Y-85645145D01*
X40985842Y-85628425D01*
X41008026Y-85612891D01*
X41171401Y-85498495D01*
X41338495Y-85331401D01*
X41474035Y-85137830D01*
X41573903Y-84923663D01*
X41635063Y-84695408D01*
X41655659Y-84460000D01*
X41635063Y-84224592D01*
X41588626Y-84051285D01*
X41573905Y-83996344D01*
X41573904Y-83996343D01*
X41573903Y-83996337D01*
X41474035Y-83782171D01*
X41338495Y-83588599D01*
X41338494Y-83588597D01*
X41171402Y-83421506D01*
X41171396Y-83421501D01*
X40985842Y-83291575D01*
X40942217Y-83236998D01*
X40935023Y-83167500D01*
X40966546Y-83105145D01*
X40985842Y-83088425D01*
X41008026Y-83072891D01*
X41171401Y-82958495D01*
X41338495Y-82791401D01*
X41474035Y-82597830D01*
X41573903Y-82383663D01*
X41635063Y-82155408D01*
X41655659Y-81920000D01*
X41635063Y-81684592D01*
X41573903Y-81456337D01*
X41474035Y-81242171D01*
X41463203Y-81226700D01*
X41338494Y-81048597D01*
X41171402Y-80881506D01*
X41171396Y-80881501D01*
X40985842Y-80751575D01*
X40942217Y-80696998D01*
X40935023Y-80627500D01*
X40966546Y-80565145D01*
X40985842Y-80548425D01*
X41102314Y-80466870D01*
X41171401Y-80418495D01*
X41173077Y-80416819D01*
X41173995Y-80416317D01*
X41175544Y-80415018D01*
X41175805Y-80415329D01*
X41234400Y-80383334D01*
X41260758Y-80380500D01*
X45024742Y-80380500D01*
X45044070Y-80376655D01*
X45121388Y-80361275D01*
X45218036Y-80342051D01*
X45272676Y-80319418D01*
X45400114Y-80266632D01*
X45563982Y-80157139D01*
X45703339Y-80017782D01*
X45703339Y-80017780D01*
X45713547Y-80007573D01*
X45713548Y-80007570D01*
X47598679Y-78122440D01*
X47659999Y-78088957D01*
X47729691Y-78093941D01*
G37*
%TD.AperFunction*%
%TA.AperFunction,Conductor*%
G36*
X74982257Y-77068385D02*
G01*
X75002899Y-77085019D01*
X75756099Y-77838220D01*
X75789584Y-77899543D01*
X75784600Y-77969235D01*
X75771521Y-77994790D01*
X75746273Y-78032577D01*
X75746264Y-78032593D01*
X75670850Y-78214660D01*
X75670847Y-78214670D01*
X75632400Y-78407956D01*
X75632400Y-78407959D01*
X75632400Y-78605041D01*
X75632400Y-78605043D01*
X75632399Y-78605043D01*
X75670847Y-78798329D01*
X75670850Y-78798339D01*
X75746264Y-78980407D01*
X75746271Y-78980419D01*
X75781277Y-79032809D01*
X75802155Y-79099486D01*
X75783671Y-79166866D01*
X75731692Y-79213557D01*
X75678175Y-79225700D01*
X75128782Y-79225700D01*
X75061743Y-79206015D01*
X75041101Y-79189381D01*
X73112101Y-77260381D01*
X73078616Y-77199058D01*
X73083600Y-77129366D01*
X73125472Y-77073433D01*
X73190936Y-77049016D01*
X73199782Y-77048700D01*
X74915218Y-77048700D01*
X74982257Y-77068385D01*
G37*
%TD.AperFunction*%
%TA.AperFunction,Conductor*%
G36*
X65494956Y-67612691D02*
G01*
X65552819Y-67651853D01*
X65580323Y-67716082D01*
X65581200Y-67730803D01*
X65581200Y-71202517D01*
X65561515Y-71269556D01*
X65544881Y-71290198D01*
X63212910Y-73622169D01*
X60862221Y-75972858D01*
X60862218Y-75972861D01*
X60826978Y-76008101D01*
X60722859Y-76112219D01*
X60613371Y-76276080D01*
X60613366Y-76276089D01*
X60579617Y-76357569D01*
X60537950Y-76458161D01*
X60537947Y-76458171D01*
X60525228Y-76522115D01*
X60525228Y-76522116D01*
X60499500Y-76651456D01*
X60499500Y-77639241D01*
X60479815Y-77706280D01*
X60463181Y-77726922D01*
X60461505Y-77728597D01*
X60331575Y-77914158D01*
X60276998Y-77957783D01*
X60207500Y-77964977D01*
X60145145Y-77933454D01*
X60128425Y-77914158D01*
X59998494Y-77728597D01*
X59831402Y-77561506D01*
X59831395Y-77561501D01*
X59637834Y-77425967D01*
X59637830Y-77425965D01*
X59565794Y-77392374D01*
X59423663Y-77326097D01*
X59423659Y-77326096D01*
X59423655Y-77326094D01*
X59195413Y-77264938D01*
X59195403Y-77264936D01*
X58960001Y-77244341D01*
X58959999Y-77244341D01*
X58724596Y-77264936D01*
X58724586Y-77264938D01*
X58496344Y-77326094D01*
X58496335Y-77326098D01*
X58282171Y-77425964D01*
X58282169Y-77425965D01*
X58088597Y-77561505D01*
X57921505Y-77728597D01*
X57791575Y-77914158D01*
X57736998Y-77957783D01*
X57667500Y-77964977D01*
X57605145Y-77933454D01*
X57588425Y-77914158D01*
X57458494Y-77728597D01*
X57291402Y-77561506D01*
X57291395Y-77561501D01*
X57097834Y-77425967D01*
X57097830Y-77425965D01*
X57025794Y-77392374D01*
X56883663Y-77326097D01*
X56883659Y-77326096D01*
X56883655Y-77326094D01*
X56655413Y-77264938D01*
X56655403Y-77264936D01*
X56420001Y-77244341D01*
X56419999Y-77244341D01*
X56184596Y-77264936D01*
X56184586Y-77264938D01*
X55956344Y-77326094D01*
X55956335Y-77326098D01*
X55742171Y-77425964D01*
X55742167Y-77425966D01*
X55724967Y-77438010D01*
X55658761Y-77460336D01*
X55590994Y-77443323D01*
X55543182Y-77392374D01*
X55530506Y-77323663D01*
X55556990Y-77259007D01*
X55566157Y-77248761D01*
X65133031Y-67681888D01*
X65194352Y-67648405D01*
X65209896Y-67646044D01*
X65335408Y-67635063D01*
X65425108Y-67611028D01*
X65494956Y-67612691D01*
G37*
%TD.AperFunction*%
%TA.AperFunction,Conductor*%
G36*
X80341257Y-74190185D02*
G01*
X80361899Y-74206819D01*
X82163181Y-76008101D01*
X82196666Y-76069424D01*
X82199500Y-76095782D01*
X82199500Y-76320701D01*
X82202401Y-76357567D01*
X82202402Y-76357569D01*
X82209453Y-76381840D01*
X82219205Y-76415404D01*
X82219006Y-76485274D01*
X82181064Y-76543944D01*
X82117426Y-76572788D01*
X82100129Y-76574000D01*
X77373083Y-76574000D01*
X77306044Y-76554315D01*
X77285402Y-76537681D01*
X76165209Y-75417489D01*
X76165206Y-75417485D01*
X76165206Y-75417486D01*
X76158139Y-75410419D01*
X76158139Y-75410418D01*
X76018782Y-75271061D01*
X76018781Y-75271060D01*
X76018780Y-75271059D01*
X75854920Y-75161571D01*
X75854907Y-75161564D01*
X75717140Y-75104500D01*
X75717139Y-75104500D01*
X75672836Y-75086149D01*
X75672828Y-75086147D01*
X75576188Y-75066924D01*
X75479544Y-75047700D01*
X75479541Y-75047700D01*
X72004759Y-75047700D01*
X72004754Y-75047700D01*
X71868791Y-75074745D01*
X71799200Y-75068518D01*
X71744022Y-75025655D01*
X71720778Y-74959765D01*
X71720600Y-74953128D01*
X71720600Y-74469699D01*
X71740285Y-74402660D01*
X71793089Y-74356905D01*
X71862247Y-74346961D01*
X71867359Y-74347806D01*
X71988757Y-74370500D01*
X71988758Y-74370500D01*
X72211241Y-74370500D01*
X72211243Y-74370500D01*
X72429940Y-74329618D01*
X72637401Y-74249247D01*
X72734586Y-74189073D01*
X72799863Y-74170500D01*
X80274218Y-74170500D01*
X80341257Y-74190185D01*
G37*
%TD.AperFunction*%
%TA.AperFunction,Conductor*%
G36*
X59295755Y-70476685D02*
G01*
X59341510Y-70529489D01*
X59351454Y-70598647D01*
X59322429Y-70662203D01*
X59316397Y-70668681D01*
X54034099Y-75950981D01*
X53972776Y-75984466D01*
X53946418Y-75987300D01*
X50212357Y-75987300D01*
X50148147Y-76000072D01*
X50116041Y-76006459D01*
X50015914Y-76026375D01*
X49946322Y-76020148D01*
X49891145Y-75977284D01*
X49867901Y-75911394D01*
X49883969Y-75843398D01*
X49904038Y-75817081D01*
X53666702Y-72054419D01*
X53728025Y-72020934D01*
X53754383Y-72018100D01*
X56586643Y-72018100D01*
X56716682Y-71992232D01*
X56779935Y-71979651D01*
X56962014Y-71904232D01*
X57125882Y-71794739D01*
X57265239Y-71655382D01*
X57374732Y-71491514D01*
X57450151Y-71309435D01*
X57488600Y-71116141D01*
X57488600Y-70919059D01*
X57488600Y-70919056D01*
X57450152Y-70725770D01*
X57450151Y-70725769D01*
X57450151Y-70725765D01*
X57409842Y-70628451D01*
X57402374Y-70558983D01*
X57433649Y-70496504D01*
X57493738Y-70460852D01*
X57524404Y-70457000D01*
X59228716Y-70457000D01*
X59295755Y-70476685D01*
G37*
%TD.AperFunction*%
%TA.AperFunction,Conductor*%
G36*
X53576235Y-65838485D02*
G01*
X53621990Y-65891289D01*
X53631934Y-65960447D01*
X53628971Y-65974893D01*
X53604938Y-66064586D01*
X53604936Y-66064596D01*
X53593955Y-66190097D01*
X53568501Y-66255166D01*
X53558108Y-66266969D01*
X52726499Y-67098581D01*
X52665176Y-67132066D01*
X52638818Y-67134900D01*
X51418656Y-67134900D01*
X51225371Y-67173346D01*
X51225367Y-67173348D01*
X51225365Y-67173348D01*
X51225364Y-67173349D01*
X51149945Y-67204588D01*
X51149943Y-67204589D01*
X51043285Y-67248768D01*
X51043285Y-67248769D01*
X51043284Y-67248769D01*
X50879422Y-67358257D01*
X50879414Y-67358263D01*
X45921781Y-72315897D01*
X45860458Y-72349382D01*
X45790766Y-72344398D01*
X45734833Y-72302526D01*
X45710416Y-72237062D01*
X45710100Y-72228216D01*
X45710100Y-69322782D01*
X45729785Y-69255743D01*
X45746419Y-69235101D01*
X49126402Y-65855119D01*
X49187725Y-65821634D01*
X49214083Y-65818800D01*
X53509196Y-65818800D01*
X53576235Y-65838485D01*
G37*
%TD.AperFunction*%
%TA.AperFunction,Conductor*%
G36*
X70200150Y-60405644D02*
G01*
X70200194Y-60405203D01*
X70206257Y-60405800D01*
X70206259Y-60405800D01*
X70403340Y-60405800D01*
X70699810Y-60405800D01*
X70766849Y-60425485D01*
X70812604Y-60478289D01*
X70822548Y-60547447D01*
X70819076Y-60563735D01*
X70814884Y-60578464D01*
X70794357Y-60799999D01*
X70794357Y-60800000D01*
X70814884Y-61021535D01*
X70814885Y-61021537D01*
X70875769Y-61235523D01*
X70875775Y-61235538D01*
X70974938Y-61434683D01*
X70974943Y-61434691D01*
X71018239Y-61492024D01*
X71051597Y-61536197D01*
X71056488Y-61542673D01*
X71081180Y-61608034D01*
X71066615Y-61676369D01*
X71017418Y-61725982D01*
X70957534Y-61741400D01*
X48132082Y-61741400D01*
X48065043Y-61721715D01*
X48019288Y-61668911D01*
X48009344Y-61599753D01*
X48038369Y-61536197D01*
X48044401Y-61529719D01*
X48504121Y-61070000D01*
X49133502Y-60440619D01*
X49194825Y-60407134D01*
X49221183Y-60404300D01*
X70186504Y-60404300D01*
X70200150Y-60405644D01*
G37*
%TD.AperFunction*%
%TA.AperFunction,Conductor*%
G36*
X49352539Y-42470185D02*
G01*
X49398294Y-42522989D01*
X49409500Y-42574500D01*
X49409500Y-43188425D01*
X49409501Y-43758000D01*
X49389816Y-43825039D01*
X49337013Y-43870794D01*
X49285501Y-43882000D01*
X43238283Y-43882000D01*
X43171244Y-43862315D01*
X43150606Y-43845685D01*
X43087782Y-43782861D01*
X43087781Y-43782860D01*
X43087780Y-43782859D01*
X42923920Y-43673371D01*
X42923907Y-43673364D01*
X42776287Y-43612219D01*
X42741837Y-43597949D01*
X42741829Y-43597947D01*
X42645188Y-43578724D01*
X42548544Y-43559500D01*
X42548541Y-43559500D01*
X41560758Y-43559500D01*
X41493719Y-43539815D01*
X41473077Y-43523181D01*
X41471402Y-43521506D01*
X41471396Y-43521501D01*
X41285842Y-43391575D01*
X41242217Y-43336998D01*
X41235023Y-43267500D01*
X41266546Y-43205145D01*
X41285842Y-43188425D01*
X41319887Y-43164586D01*
X41471401Y-43058495D01*
X41473077Y-43056819D01*
X41473995Y-43056317D01*
X41475544Y-43055018D01*
X41475805Y-43055329D01*
X41534400Y-43023334D01*
X41560758Y-43020500D01*
X42548542Y-43020500D01*
X42567870Y-43016655D01*
X42645188Y-43001275D01*
X42741836Y-42982051D01*
X42795165Y-42959961D01*
X42923914Y-42906632D01*
X43087782Y-42797139D01*
X43227139Y-42657782D01*
X43227140Y-42657779D01*
X43398102Y-42486817D01*
X43459425Y-42453334D01*
X43485782Y-42450500D01*
X49285500Y-42450500D01*
X49352539Y-42470185D01*
G37*
%TD.AperFunction*%
%TA.AperFunction,Conductor*%
G36*
X107142539Y-34620185D02*
G01*
X107188294Y-34672989D01*
X107199500Y-34724500D01*
X107199500Y-103575500D01*
X107179815Y-103642539D01*
X107127011Y-103688294D01*
X107075500Y-103699500D01*
X26424500Y-103699500D01*
X26357461Y-103679815D01*
X26311706Y-103627011D01*
X26300500Y-103575500D01*
X26300500Y-93902135D01*
X49169500Y-93902135D01*
X49169500Y-95697870D01*
X49169501Y-95697876D01*
X49175908Y-95757483D01*
X49226202Y-95892328D01*
X49226206Y-95892335D01*
X49312452Y-96007544D01*
X49312455Y-96007547D01*
X49427664Y-96093793D01*
X49427671Y-96093797D01*
X49562517Y-96144091D01*
X49562516Y-96144091D01*
X49566479Y-96144517D01*
X49622127Y-96150500D01*
X51417872Y-96150499D01*
X51477483Y-96144091D01*
X51612331Y-96093796D01*
X51727546Y-96007546D01*
X51813796Y-95892331D01*
X51864091Y-95757483D01*
X51870500Y-95697873D01*
X51870499Y-93902128D01*
X51864091Y-93842517D01*
X51862869Y-93839241D01*
X51813797Y-93707671D01*
X51813793Y-93707664D01*
X51727547Y-93592455D01*
X51727544Y-93592452D01*
X51612335Y-93506206D01*
X51612328Y-93506202D01*
X51477482Y-93455908D01*
X51477483Y-93455908D01*
X51417883Y-93449501D01*
X51417881Y-93449500D01*
X51417873Y-93449500D01*
X51417864Y-93449500D01*
X49622129Y-93449500D01*
X49622123Y-93449501D01*
X49562516Y-93455908D01*
X49427671Y-93506202D01*
X49427664Y-93506206D01*
X49312455Y-93592452D01*
X49312452Y-93592455D01*
X49226206Y-93707664D01*
X49226202Y-93707671D01*
X49175908Y-93842517D01*
X49173427Y-93865599D01*
X49169501Y-93902123D01*
X49169500Y-93902135D01*
X26300500Y-93902135D01*
X26300500Y-75694654D01*
X37806300Y-75694654D01*
X37806300Y-90742644D01*
X37842206Y-90923157D01*
X37844747Y-90935932D01*
X37844748Y-90935935D01*
X37920164Y-91118007D01*
X37920171Y-91118020D01*
X38029660Y-91281881D01*
X38029663Y-91281885D01*
X38173337Y-91425559D01*
X38173359Y-91425579D01*
X38404135Y-91656355D01*
X38404164Y-91656386D01*
X38546614Y-91798836D01*
X38546618Y-91798839D01*
X38710479Y-91908328D01*
X38710492Y-91908335D01*
X38839233Y-91961661D01*
X38882144Y-91979435D01*
X38892564Y-91983751D01*
X38989212Y-92002975D01*
X39037535Y-92012587D01*
X39085858Y-92022200D01*
X39085859Y-92022200D01*
X41552942Y-92022200D01*
X41572270Y-92018355D01*
X41649588Y-92002975D01*
X41746236Y-91983751D01*
X41799565Y-91961661D01*
X41928314Y-91908332D01*
X42092182Y-91798839D01*
X42231539Y-91659482D01*
X42231540Y-91659479D01*
X42238606Y-91652414D01*
X42238609Y-91652410D01*
X49407178Y-84483841D01*
X49407182Y-84483839D01*
X49546539Y-84344482D01*
X49656032Y-84180614D01*
X49731451Y-83998535D01*
X49731889Y-83996337D01*
X49746578Y-83922491D01*
X49769899Y-83805244D01*
X49769900Y-83805241D01*
X49769900Y-79638816D01*
X49789585Y-79571777D01*
X49842389Y-79526022D01*
X49911547Y-79516078D01*
X49975103Y-79545103D01*
X50010082Y-79595483D01*
X50046202Y-79692328D01*
X50046206Y-79692335D01*
X50132452Y-79807544D01*
X50132455Y-79807547D01*
X50247664Y-79893793D01*
X50247671Y-79893797D01*
X50382517Y-79944091D01*
X50382516Y-79944091D01*
X50389444Y-79944835D01*
X50442127Y-79950500D01*
X52237872Y-79950499D01*
X52297483Y-79944091D01*
X52432331Y-79893796D01*
X52547546Y-79807546D01*
X52633796Y-79692331D01*
X52682810Y-79560916D01*
X52724681Y-79504984D01*
X52790145Y-79480566D01*
X52858418Y-79495417D01*
X52886673Y-79516569D01*
X53008599Y-79638495D01*
X53095435Y-79699298D01*
X53202165Y-79774032D01*
X53202167Y-79774033D01*
X53202170Y-79774035D01*
X53416337Y-79873903D01*
X53644592Y-79935063D01*
X53821034Y-79950500D01*
X53879999Y-79955659D01*
X53880000Y-79955659D01*
X53880001Y-79955659D01*
X53938966Y-79950500D01*
X54115408Y-79935063D01*
X54343663Y-79873903D01*
X54557830Y-79774035D01*
X54751401Y-79638495D01*
X54918495Y-79471401D01*
X55048425Y-79285842D01*
X55103002Y-79242217D01*
X55172500Y-79235023D01*
X55234855Y-79266546D01*
X55251575Y-79285842D01*
X55381500Y-79471395D01*
X55381505Y-79471401D01*
X55548599Y-79638495D01*
X55635435Y-79699298D01*
X55742165Y-79774032D01*
X55742167Y-79774033D01*
X55742170Y-79774035D01*
X55956337Y-79873903D01*
X56184592Y-79935063D01*
X56361034Y-79950500D01*
X56419999Y-79955659D01*
X56420000Y-79955659D01*
X56420001Y-79955659D01*
X56478966Y-79950500D01*
X56655408Y-79935063D01*
X56883663Y-79873903D01*
X57097830Y-79774035D01*
X57291401Y-79638495D01*
X57458495Y-79471401D01*
X57588425Y-79285842D01*
X57643002Y-79242217D01*
X57712500Y-79235023D01*
X57774855Y-79266546D01*
X57791575Y-79285842D01*
X57921500Y-79471395D01*
X57921505Y-79471401D01*
X58088599Y-79638495D01*
X58175435Y-79699298D01*
X58282165Y-79774032D01*
X58282167Y-79774033D01*
X58282170Y-79774035D01*
X58496337Y-79873903D01*
X58724592Y-79935063D01*
X58901034Y-79950500D01*
X58959999Y-79955659D01*
X58960000Y-79955659D01*
X58960001Y-79955659D01*
X59018966Y-79950500D01*
X59195408Y-79935063D01*
X59423663Y-79873903D01*
X59637830Y-79774035D01*
X59831401Y-79638495D01*
X59998495Y-79471401D01*
X60128425Y-79285842D01*
X60183002Y-79242217D01*
X60252500Y-79235023D01*
X60314855Y-79266546D01*
X60331575Y-79285842D01*
X60461500Y-79471395D01*
X60461505Y-79471401D01*
X60628599Y-79638495D01*
X60715435Y-79699298D01*
X60822165Y-79774032D01*
X60822167Y-79774033D01*
X60822170Y-79774035D01*
X61036337Y-79873903D01*
X61264592Y-79935063D01*
X61441034Y-79950500D01*
X61499999Y-79955659D01*
X61500000Y-79955659D01*
X61500001Y-79955659D01*
X61558966Y-79950500D01*
X61735408Y-79935063D01*
X61963663Y-79873903D01*
X62177830Y-79774035D01*
X62371401Y-79638495D01*
X62538495Y-79471401D01*
X62668425Y-79285842D01*
X62723002Y-79242217D01*
X62792500Y-79235023D01*
X62854855Y-79266546D01*
X62871575Y-79285842D01*
X63001500Y-79471395D01*
X63001505Y-79471401D01*
X63168599Y-79638495D01*
X63255435Y-79699298D01*
X63362165Y-79774032D01*
X63362167Y-79774033D01*
X63362170Y-79774035D01*
X63576337Y-79873903D01*
X63804592Y-79935063D01*
X63981034Y-79950500D01*
X64039999Y-79955659D01*
X64040000Y-79955659D01*
X64040001Y-79955659D01*
X64098966Y-79950500D01*
X64275408Y-79935063D01*
X64503663Y-79873903D01*
X64717830Y-79774035D01*
X64911401Y-79638495D01*
X65078495Y-79471401D01*
X65214035Y-79277830D01*
X65313903Y-79063663D01*
X65375063Y-78835408D01*
X65395659Y-78600000D01*
X65375063Y-78364592D01*
X65313903Y-78136337D01*
X65214035Y-77922171D01*
X65208425Y-77914158D01*
X65078494Y-77728597D01*
X64911402Y-77561506D01*
X64911395Y-77561501D01*
X64717834Y-77425967D01*
X64717830Y-77425965D01*
X64645794Y-77392374D01*
X64503663Y-77326097D01*
X64503659Y-77326096D01*
X64503655Y-77326094D01*
X64275413Y-77264938D01*
X64275403Y-77264936D01*
X64040001Y-77244341D01*
X64039999Y-77244341D01*
X63804596Y-77264936D01*
X63804586Y-77264938D01*
X63576344Y-77326094D01*
X63576335Y-77326098D01*
X63362171Y-77425964D01*
X63362169Y-77425965D01*
X63168597Y-77561505D01*
X63001505Y-77728597D01*
X62871575Y-77914158D01*
X62816998Y-77957783D01*
X62747500Y-77964977D01*
X62685145Y-77933454D01*
X62668425Y-77914158D01*
X62538494Y-77728597D01*
X62536819Y-77726922D01*
X62536315Y-77726000D01*
X62535014Y-77724449D01*
X62535325Y-77724187D01*
X62503334Y-77665599D01*
X62500500Y-77639241D01*
X62500500Y-77215781D01*
X62520185Y-77148742D01*
X62536814Y-77128105D01*
X67219478Y-72445441D01*
X67219482Y-72445439D01*
X67358839Y-72306082D01*
X67468332Y-72142214D01*
X67529141Y-71995408D01*
X67543751Y-71960136D01*
X67554871Y-71904235D01*
X67569383Y-71831272D01*
X67582200Y-71766840D01*
X67582200Y-71569760D01*
X67582200Y-65584659D01*
X67582200Y-65584656D01*
X67553045Y-65438089D01*
X67543751Y-65391364D01*
X67512285Y-65315398D01*
X67468332Y-65209286D01*
X67468331Y-65209285D01*
X67468328Y-65209279D01*
X67358839Y-65045418D01*
X67358836Y-65045414D01*
X67216386Y-64902964D01*
X67216355Y-64902935D01*
X67000201Y-64686781D01*
X66966716Y-64625458D01*
X66971700Y-64555766D01*
X67013572Y-64499833D01*
X67079036Y-64475416D01*
X67087882Y-64475100D01*
X75427952Y-64475100D01*
X75494991Y-64494785D01*
X75515634Y-64511420D01*
X75558088Y-64553875D01*
X75558089Y-64553876D01*
X75689287Y-64641539D01*
X75835052Y-64701916D01*
X75835057Y-64701918D01*
X75989803Y-64732699D01*
X75989806Y-64732700D01*
X75989808Y-64732700D01*
X76147592Y-64732700D01*
X76913418Y-64732700D01*
X76980457Y-64752385D01*
X77026212Y-64805189D01*
X77036156Y-64874347D01*
X77007131Y-64937903D01*
X77001099Y-64944380D01*
X70082321Y-71863158D01*
X70082318Y-71863161D01*
X70041251Y-71904228D01*
X69942959Y-72002519D01*
X69833471Y-72166379D01*
X69833466Y-72166389D01*
X69793077Y-72263895D01*
X69785011Y-72283371D01*
X69780137Y-72295137D01*
X69770049Y-72319494D01*
X69770047Y-72319499D01*
X69758050Y-72348461D01*
X69758047Y-72348469D01*
X69719600Y-72541756D01*
X69719600Y-76381844D01*
X69758047Y-76575129D01*
X69758049Y-76575135D01*
X69767279Y-76597417D01*
X69767280Y-76597421D01*
X69833464Y-76757206D01*
X69833471Y-76757219D01*
X69942960Y-76921082D01*
X70086637Y-77064759D01*
X70086659Y-77064779D01*
X72530798Y-79508918D01*
X72564283Y-79570241D01*
X72559299Y-79639933D01*
X72530798Y-79684280D01*
X66275964Y-85939115D01*
X60042220Y-92172859D01*
X60042218Y-92172861D01*
X59972538Y-92242540D01*
X59902859Y-92312219D01*
X59793371Y-92476079D01*
X59793364Y-92476092D01*
X59717950Y-92658160D01*
X59717947Y-92658170D01*
X59679500Y-92851456D01*
X59679500Y-93839241D01*
X59659815Y-93906280D01*
X59643181Y-93926922D01*
X59641505Y-93928597D01*
X59511575Y-94114158D01*
X59456998Y-94157783D01*
X59387500Y-94164977D01*
X59325145Y-94133454D01*
X59308425Y-94114158D01*
X59178494Y-93928597D01*
X59011402Y-93761506D01*
X59011395Y-93761501D01*
X58817834Y-93625967D01*
X58817830Y-93625965D01*
X58817828Y-93625964D01*
X58603663Y-93526097D01*
X58603659Y-93526096D01*
X58603655Y-93526094D01*
X58375413Y-93464938D01*
X58375403Y-93464936D01*
X58140001Y-93444341D01*
X58139999Y-93444341D01*
X57904596Y-93464936D01*
X57904586Y-93464938D01*
X57676344Y-93526094D01*
X57676335Y-93526098D01*
X57462171Y-93625964D01*
X57462169Y-93625965D01*
X57268597Y-93761505D01*
X57101505Y-93928597D01*
X56965965Y-94122169D01*
X56965964Y-94122171D01*
X56866098Y-94336335D01*
X56866094Y-94336344D01*
X56804938Y-94564586D01*
X56804936Y-94564596D01*
X56784341Y-94799999D01*
X56784341Y-94800000D01*
X56804936Y-95035403D01*
X56804938Y-95035413D01*
X56866094Y-95263655D01*
X56866096Y-95263659D01*
X56866097Y-95263663D01*
X56870000Y-95272032D01*
X56965965Y-95477830D01*
X56965967Y-95477834D01*
X57074281Y-95632521D01*
X57101505Y-95671401D01*
X57268599Y-95838495D01*
X57353404Y-95897876D01*
X57462165Y-95974032D01*
X57462167Y-95974033D01*
X57462170Y-95974035D01*
X57676337Y-96073903D01*
X57904592Y-96135063D01*
X58081034Y-96150500D01*
X58139999Y-96155659D01*
X58140000Y-96155659D01*
X58140001Y-96155659D01*
X58198966Y-96150500D01*
X58375408Y-96135063D01*
X58603663Y-96073903D01*
X58817830Y-95974035D01*
X59011401Y-95838495D01*
X59178495Y-95671401D01*
X59308425Y-95485842D01*
X59363002Y-95442217D01*
X59432500Y-95435023D01*
X59494855Y-95466546D01*
X59511575Y-95485842D01*
X59641500Y-95671395D01*
X59641505Y-95671401D01*
X59808599Y-95838495D01*
X59893404Y-95897876D01*
X60002165Y-95974032D01*
X60002167Y-95974033D01*
X60002170Y-95974035D01*
X60216337Y-96073903D01*
X60444592Y-96135063D01*
X60621034Y-96150500D01*
X60679999Y-96155659D01*
X60680000Y-96155659D01*
X60680001Y-96155659D01*
X60738966Y-96150500D01*
X60915408Y-96135063D01*
X61143663Y-96073903D01*
X61357830Y-95974035D01*
X61551401Y-95838495D01*
X61718495Y-95671401D01*
X61848425Y-95485842D01*
X61903002Y-95442217D01*
X61972500Y-95435023D01*
X62034855Y-95466546D01*
X62051575Y-95485842D01*
X62181500Y-95671395D01*
X62181505Y-95671401D01*
X62348599Y-95838495D01*
X62433404Y-95897876D01*
X62542165Y-95974032D01*
X62542167Y-95974033D01*
X62542170Y-95974035D01*
X62756337Y-96073903D01*
X62984592Y-96135063D01*
X63161034Y-96150500D01*
X63219999Y-96155659D01*
X63220000Y-96155659D01*
X63220001Y-96155659D01*
X63278966Y-96150500D01*
X63455408Y-96135063D01*
X63683663Y-96073903D01*
X63897830Y-95974035D01*
X64091401Y-95838495D01*
X64258495Y-95671401D01*
X64388425Y-95485842D01*
X64443002Y-95442217D01*
X64512500Y-95435023D01*
X64574855Y-95466546D01*
X64591575Y-95485842D01*
X64721500Y-95671395D01*
X64721505Y-95671401D01*
X64888599Y-95838495D01*
X64973404Y-95897876D01*
X65082165Y-95974032D01*
X65082167Y-95974033D01*
X65082170Y-95974035D01*
X65296337Y-96073903D01*
X65524592Y-96135063D01*
X65701034Y-96150500D01*
X65759999Y-96155659D01*
X65760000Y-96155659D01*
X65760001Y-96155659D01*
X65818966Y-96150500D01*
X65995408Y-96135063D01*
X66223663Y-96073903D01*
X66437830Y-95974035D01*
X66631401Y-95838495D01*
X66798495Y-95671401D01*
X66928425Y-95485842D01*
X66983002Y-95442217D01*
X67052500Y-95435023D01*
X67114855Y-95466546D01*
X67131575Y-95485842D01*
X67261500Y-95671395D01*
X67261505Y-95671401D01*
X67428599Y-95838495D01*
X67513404Y-95897876D01*
X67622165Y-95974032D01*
X67622167Y-95974033D01*
X67622170Y-95974035D01*
X67836337Y-96073903D01*
X68064592Y-96135063D01*
X68241034Y-96150500D01*
X68299999Y-96155659D01*
X68300000Y-96155659D01*
X68300001Y-96155659D01*
X68358966Y-96150500D01*
X68535408Y-96135063D01*
X68763663Y-96073903D01*
X68977830Y-95974035D01*
X69171401Y-95838495D01*
X69338495Y-95671401D01*
X69474035Y-95477830D01*
X69573903Y-95263663D01*
X69635063Y-95035408D01*
X69655659Y-94800000D01*
X69635063Y-94564592D01*
X69573903Y-94336337D01*
X69474035Y-94122171D01*
X69470235Y-94116743D01*
X69460006Y-94102135D01*
X75209500Y-94102135D01*
X75209500Y-95897870D01*
X75209501Y-95897876D01*
X75215908Y-95957483D01*
X75266202Y-96092328D01*
X75266206Y-96092335D01*
X75352452Y-96207544D01*
X75352455Y-96207547D01*
X75467664Y-96293793D01*
X75467671Y-96293797D01*
X75602517Y-96344091D01*
X75602516Y-96344091D01*
X75609444Y-96344835D01*
X75662127Y-96350500D01*
X77457872Y-96350499D01*
X77517483Y-96344091D01*
X77652331Y-96293796D01*
X77767546Y-96207546D01*
X77853796Y-96092331D01*
X77902810Y-95960916D01*
X77944681Y-95904984D01*
X78010145Y-95880566D01*
X78078418Y-95895417D01*
X78106673Y-95916569D01*
X78228599Y-96038495D01*
X78307573Y-96093793D01*
X78422165Y-96174032D01*
X78422167Y-96174033D01*
X78422170Y-96174035D01*
X78636337Y-96273903D01*
X78636343Y-96273904D01*
X78636344Y-96273905D01*
X78654848Y-96278863D01*
X78864592Y-96335063D01*
X79041034Y-96350500D01*
X79099999Y-96355659D01*
X79100000Y-96355659D01*
X79100001Y-96355659D01*
X79158966Y-96350500D01*
X79335408Y-96335063D01*
X79563663Y-96273903D01*
X79777830Y-96174035D01*
X79971401Y-96038495D01*
X80138495Y-95871401D01*
X80268425Y-95685842D01*
X80323002Y-95642217D01*
X80392500Y-95635023D01*
X80454855Y-95666546D01*
X80471575Y-95685842D01*
X80578462Y-95838493D01*
X80601505Y-95871401D01*
X80768599Y-96038495D01*
X80847573Y-96093793D01*
X80962165Y-96174032D01*
X80962167Y-96174033D01*
X80962170Y-96174035D01*
X81176337Y-96273903D01*
X81176343Y-96273904D01*
X81176344Y-96273905D01*
X81194848Y-96278863D01*
X81404592Y-96335063D01*
X81581034Y-96350500D01*
X81639999Y-96355659D01*
X81640000Y-96355659D01*
X81640001Y-96355659D01*
X81698966Y-96350500D01*
X81875408Y-96335063D01*
X82103663Y-96273903D01*
X82317830Y-96174035D01*
X82511401Y-96038495D01*
X82678495Y-95871401D01*
X82808425Y-95685842D01*
X82863002Y-95642217D01*
X82932500Y-95635023D01*
X82994855Y-95666546D01*
X83011575Y-95685842D01*
X83118462Y-95838493D01*
X83141505Y-95871401D01*
X83308599Y-96038495D01*
X83387573Y-96093793D01*
X83502165Y-96174032D01*
X83502167Y-96174033D01*
X83502170Y-96174035D01*
X83716337Y-96273903D01*
X83716343Y-96273904D01*
X83716344Y-96273905D01*
X83734848Y-96278863D01*
X83944592Y-96335063D01*
X84121034Y-96350500D01*
X84179999Y-96355659D01*
X84180000Y-96355659D01*
X84180001Y-96355659D01*
X84238966Y-96350500D01*
X84415408Y-96335063D01*
X84631357Y-96277200D01*
X84701204Y-96278863D01*
X84719739Y-96286488D01*
X84795438Y-96325058D01*
X84924003Y-96390566D01*
X84924005Y-96390566D01*
X84924008Y-96390568D01*
X85044412Y-96429689D01*
X85148631Y-96463553D01*
X85381903Y-96500500D01*
X85381908Y-96500500D01*
X85618097Y-96500500D01*
X85851368Y-96463553D01*
X86075992Y-96390568D01*
X86286434Y-96283343D01*
X86477510Y-96144517D01*
X93844518Y-88777510D01*
X93983343Y-88586433D01*
X94090568Y-88375992D01*
X94163553Y-88151368D01*
X94173296Y-88089853D01*
X94200500Y-87918097D01*
X94200500Y-87172888D01*
X94220185Y-87105849D01*
X94236815Y-87085211D01*
X95070441Y-86251584D01*
X95070448Y-86251579D01*
X95077508Y-86244519D01*
X95077510Y-86244518D01*
X95244518Y-86077510D01*
X95383343Y-85886434D01*
X95490568Y-85675992D01*
X95563553Y-85451369D01*
X95582555Y-85331395D01*
X95600500Y-85218097D01*
X95600500Y-84981902D01*
X95563553Y-84748631D01*
X95529689Y-84644412D01*
X95490568Y-84524008D01*
X95490566Y-84524005D01*
X95490566Y-84524003D01*
X95415375Y-84376433D01*
X95415368Y-84376419D01*
X95414008Y-84373749D01*
X95400500Y-84317468D01*
X95400500Y-78581902D01*
X95363553Y-78348631D01*
X95319020Y-78211575D01*
X95290568Y-78124008D01*
X95290566Y-78124005D01*
X95290566Y-78124003D01*
X95232478Y-78010000D01*
X95183343Y-77913567D01*
X95167324Y-77891519D01*
X95044518Y-77722490D01*
X94677510Y-77355483D01*
X94486434Y-77216657D01*
X94451894Y-77199058D01*
X94275996Y-77109433D01*
X94051368Y-77036446D01*
X93818097Y-76999500D01*
X93818092Y-76999500D01*
X93581908Y-76999500D01*
X93581903Y-76999500D01*
X93348631Y-77036446D01*
X93124003Y-77109433D01*
X92913565Y-77216657D01*
X92722488Y-77355484D01*
X92722487Y-77355485D01*
X92614792Y-77463181D01*
X92553469Y-77496666D01*
X92527111Y-77499500D01*
X92354983Y-77499500D01*
X92287944Y-77479815D01*
X92267302Y-77463181D01*
X90278409Y-75474289D01*
X90278406Y-75474285D01*
X90278406Y-75474286D01*
X90271339Y-75467219D01*
X90271339Y-75467218D01*
X90131982Y-75327861D01*
X90131981Y-75327860D01*
X90131980Y-75327859D01*
X89968120Y-75218371D01*
X89968107Y-75218364D01*
X89830987Y-75161568D01*
X89830986Y-75161568D01*
X89786036Y-75142949D01*
X89786028Y-75142947D01*
X89689388Y-75123724D01*
X89592744Y-75104500D01*
X89592741Y-75104500D01*
X88526459Y-75104500D01*
X88526457Y-75104500D01*
X88333170Y-75142947D01*
X88333160Y-75142950D01*
X88151088Y-75218366D01*
X88053456Y-75283602D01*
X87986778Y-75304480D01*
X87984565Y-75304500D01*
X87734298Y-75304500D01*
X87697432Y-75307401D01*
X87697426Y-75307402D01*
X87539606Y-75353254D01*
X87539603Y-75353255D01*
X87398137Y-75436917D01*
X87398129Y-75436923D01*
X87281923Y-75553129D01*
X87281917Y-75553137D01*
X87198255Y-75694603D01*
X87198254Y-75694606D01*
X87152402Y-75852426D01*
X87152401Y-75852432D01*
X87149500Y-75889298D01*
X87149500Y-76320701D01*
X87152401Y-76357567D01*
X87152402Y-76357569D01*
X87198254Y-76515393D01*
X87198255Y-76515396D01*
X87198256Y-76515398D01*
X87202229Y-76522116D01*
X87281917Y-76656862D01*
X87281923Y-76656870D01*
X87398129Y-76773076D01*
X87398133Y-76773079D01*
X87398135Y-76773081D01*
X87539602Y-76856744D01*
X87581224Y-76868836D01*
X87697426Y-76902597D01*
X87697429Y-76902597D01*
X87697431Y-76902598D01*
X87734306Y-76905500D01*
X87984565Y-76905500D01*
X88051604Y-76925185D01*
X88053456Y-76926398D01*
X88151086Y-76991632D01*
X88151087Y-76991632D01*
X88151088Y-76991633D01*
X88327680Y-77064779D01*
X88333165Y-77067051D01*
X88333169Y-77067051D01*
X88333170Y-77067052D01*
X88526456Y-77105500D01*
X88526459Y-77105500D01*
X89028418Y-77105500D01*
X89095457Y-77125185D01*
X89116099Y-77141819D01*
X89607151Y-77632871D01*
X89640636Y-77694194D01*
X89635652Y-77763886D01*
X89593780Y-77819819D01*
X89528316Y-77844236D01*
X89518129Y-77844402D01*
X89518129Y-77844500D01*
X89463170Y-77844500D01*
X89452970Y-77843999D01*
X89451992Y-77843999D01*
X89294208Y-77843999D01*
X89288094Y-77843999D01*
X89288074Y-77844000D01*
X88545118Y-77844000D01*
X88534940Y-77844500D01*
X87734298Y-77844500D01*
X87697432Y-77847401D01*
X87697426Y-77847402D01*
X87539606Y-77893254D01*
X87539603Y-77893255D01*
X87398137Y-77976917D01*
X87398129Y-77976923D01*
X87281923Y-78093129D01*
X87281917Y-78093137D01*
X87198255Y-78234603D01*
X87198254Y-78234606D01*
X87152402Y-78392426D01*
X87152401Y-78392432D01*
X87149500Y-78429298D01*
X87149500Y-78860701D01*
X87152401Y-78897567D01*
X87152402Y-78897573D01*
X87190617Y-79029105D01*
X87190418Y-79098974D01*
X87152476Y-79157644D01*
X87088838Y-79186488D01*
X87071541Y-79187700D01*
X86887857Y-79187700D01*
X86694570Y-79226147D01*
X86694560Y-79226150D01*
X86512492Y-79301564D01*
X86512479Y-79301571D01*
X86348618Y-79411060D01*
X86348614Y-79411063D01*
X86209263Y-79550414D01*
X86209260Y-79550418D01*
X86099771Y-79714279D01*
X86099764Y-79714292D01*
X86024350Y-79896360D01*
X86024347Y-79896370D01*
X85985900Y-80089656D01*
X85985900Y-80089659D01*
X85985900Y-80286741D01*
X85985900Y-80286743D01*
X85985899Y-80286743D01*
X86024347Y-80480029D01*
X86024350Y-80480039D01*
X86099764Y-80662107D01*
X86099771Y-80662120D01*
X86209260Y-80825981D01*
X86209263Y-80825985D01*
X86348614Y-80965336D01*
X86348618Y-80965339D01*
X86512479Y-81074828D01*
X86512492Y-81074835D01*
X86694560Y-81150249D01*
X86694565Y-81150251D01*
X86694569Y-81150251D01*
X86694570Y-81150252D01*
X86887856Y-81188700D01*
X86887859Y-81188700D01*
X88450342Y-81188700D01*
X88469670Y-81184855D01*
X88546988Y-81169475D01*
X88643636Y-81150251D01*
X88696965Y-81128161D01*
X88825714Y-81074832D01*
X88989582Y-80965339D01*
X89128939Y-80825982D01*
X89128940Y-80825979D01*
X89136006Y-80818914D01*
X89136007Y-80818911D01*
X89203103Y-80751817D01*
X89264427Y-80718333D01*
X89290783Y-80715500D01*
X89515686Y-80715500D01*
X89515694Y-80715500D01*
X89552569Y-80712598D01*
X89552570Y-80712597D01*
X89553215Y-80712480D01*
X89553580Y-80712518D01*
X89558886Y-80712101D01*
X89558963Y-80713085D01*
X89622701Y-80719796D01*
X89677201Y-80763517D01*
X89699411Y-80829763D01*
X89699500Y-80834461D01*
X89699500Y-82917110D01*
X89679815Y-82984149D01*
X89663181Y-83004791D01*
X80495484Y-92172488D01*
X80356657Y-92363565D01*
X80249433Y-92574003D01*
X80176446Y-92798631D01*
X80139500Y-93031902D01*
X80139500Y-93268097D01*
X80176446Y-93501368D01*
X80249433Y-93725996D01*
X80356657Y-93936434D01*
X80497871Y-94130797D01*
X80521351Y-94196604D01*
X80505526Y-94264658D01*
X80499129Y-94274805D01*
X80471575Y-94314157D01*
X80416998Y-94357783D01*
X80347500Y-94364977D01*
X80285145Y-94333455D01*
X80268424Y-94314158D01*
X80268423Y-94314157D01*
X80195030Y-94209340D01*
X80138494Y-94128597D01*
X79971402Y-93961506D01*
X79971395Y-93961501D01*
X79777834Y-93825967D01*
X79777830Y-93825965D01*
X79777828Y-93825964D01*
X79563663Y-93726097D01*
X79563659Y-93726096D01*
X79563655Y-93726094D01*
X79335413Y-93664938D01*
X79335403Y-93664936D01*
X79100001Y-93644341D01*
X79099999Y-93644341D01*
X78864596Y-93664936D01*
X78864586Y-93664938D01*
X78636344Y-93726094D01*
X78636335Y-93726098D01*
X78422171Y-93825964D01*
X78422169Y-93825965D01*
X78228600Y-93961503D01*
X78106673Y-94083430D01*
X78045350Y-94116914D01*
X77975658Y-94111930D01*
X77919725Y-94070058D01*
X77902810Y-94039081D01*
X77853797Y-93907671D01*
X77853793Y-93907664D01*
X77767547Y-93792455D01*
X77767544Y-93792452D01*
X77652335Y-93706206D01*
X77652328Y-93706202D01*
X77517482Y-93655908D01*
X77517483Y-93655908D01*
X77457883Y-93649501D01*
X77457881Y-93649500D01*
X77457873Y-93649500D01*
X77457864Y-93649500D01*
X75662129Y-93649500D01*
X75662123Y-93649501D01*
X75602516Y-93655908D01*
X75467671Y-93706202D01*
X75467664Y-93706206D01*
X75352455Y-93792452D01*
X75352452Y-93792455D01*
X75266206Y-93907664D01*
X75266202Y-93907671D01*
X75215908Y-94042517D01*
X75209501Y-94102116D01*
X75209500Y-94102135D01*
X69460006Y-94102135D01*
X69338494Y-93928597D01*
X69171402Y-93761506D01*
X69171395Y-93761501D01*
X68977834Y-93625967D01*
X68977830Y-93625965D01*
X68977828Y-93625964D01*
X68763663Y-93526097D01*
X68763659Y-93526096D01*
X68763655Y-93526094D01*
X68535413Y-93464938D01*
X68535403Y-93464936D01*
X68300001Y-93444341D01*
X68299999Y-93444341D01*
X68064596Y-93464936D01*
X68064586Y-93464938D01*
X67836344Y-93526094D01*
X67836335Y-93526098D01*
X67622171Y-93625964D01*
X67622169Y-93625965D01*
X67428597Y-93761505D01*
X67261505Y-93928597D01*
X67131575Y-94114158D01*
X67076998Y-94157783D01*
X67007500Y-94164977D01*
X66945145Y-94133454D01*
X66928425Y-94114158D01*
X66798494Y-93928597D01*
X66631402Y-93761506D01*
X66631395Y-93761501D01*
X66437834Y-93625967D01*
X66437830Y-93625965D01*
X66437828Y-93625964D01*
X66223663Y-93526097D01*
X66223659Y-93526096D01*
X66223655Y-93526094D01*
X65995413Y-93464938D01*
X65995403Y-93464936D01*
X65760001Y-93444341D01*
X65759999Y-93444341D01*
X65524596Y-93464936D01*
X65524586Y-93464938D01*
X65296344Y-93526094D01*
X65296335Y-93526098D01*
X65082171Y-93625964D01*
X65082169Y-93625965D01*
X64888597Y-93761505D01*
X64721505Y-93928597D01*
X64591575Y-94114158D01*
X64536998Y-94157783D01*
X64467500Y-94164977D01*
X64405145Y-94133454D01*
X64388425Y-94114158D01*
X64258494Y-93928597D01*
X64091402Y-93761506D01*
X64091395Y-93761501D01*
X63897834Y-93625967D01*
X63897830Y-93625965D01*
X63897828Y-93625964D01*
X63683663Y-93526097D01*
X63683659Y-93526096D01*
X63683655Y-93526094D01*
X63455413Y-93464938D01*
X63455403Y-93464936D01*
X63220001Y-93444341D01*
X63219999Y-93444341D01*
X62984596Y-93464936D01*
X62984586Y-93464938D01*
X62756344Y-93526094D01*
X62756335Y-93526098D01*
X62542171Y-93625964D01*
X62542169Y-93625965D01*
X62348597Y-93761505D01*
X62181505Y-93928597D01*
X62051575Y-94114158D01*
X61996998Y-94157783D01*
X61927500Y-94164977D01*
X61865145Y-94133454D01*
X61848425Y-94114158D01*
X61718494Y-93928597D01*
X61716819Y-93926922D01*
X61716315Y-93926000D01*
X61715014Y-93924449D01*
X61715325Y-93924187D01*
X61683334Y-93865599D01*
X61680500Y-93839241D01*
X61680500Y-93415782D01*
X61700185Y-93348743D01*
X61716819Y-93328101D01*
X67830129Y-87214791D01*
X73963070Y-81081849D01*
X74024391Y-81048366D01*
X74094083Y-81053350D01*
X74119640Y-81066430D01*
X74189079Y-81112828D01*
X74189092Y-81112835D01*
X74317833Y-81166161D01*
X74360744Y-81183935D01*
X74371164Y-81188251D01*
X74467812Y-81207475D01*
X74516135Y-81217087D01*
X74564458Y-81226700D01*
X74564459Y-81226700D01*
X83462342Y-81226700D01*
X83481670Y-81222855D01*
X83558988Y-81207475D01*
X83655636Y-81188251D01*
X83708965Y-81166161D01*
X83837714Y-81112832D01*
X84001582Y-81003339D01*
X84140939Y-80863982D01*
X84140939Y-80863980D01*
X84151147Y-80853773D01*
X84151148Y-80853770D01*
X84222444Y-80782475D01*
X84253104Y-80751817D01*
X84314428Y-80718333D01*
X84340784Y-80715500D01*
X84565686Y-80715500D01*
X84565694Y-80715500D01*
X84602569Y-80712598D01*
X84602571Y-80712597D01*
X84602573Y-80712597D01*
X84656264Y-80696998D01*
X84760398Y-80666744D01*
X84901865Y-80583081D01*
X85018081Y-80466865D01*
X85101744Y-80325398D01*
X85147598Y-80167569D01*
X85150500Y-80130694D01*
X85150500Y-79699306D01*
X85147598Y-79662431D01*
X85140737Y-79638816D01*
X85101745Y-79504606D01*
X85101744Y-79504603D01*
X85101744Y-79504602D01*
X85018081Y-79363135D01*
X85018078Y-79363132D01*
X85013298Y-79356969D01*
X85015750Y-79355066D01*
X84989155Y-79306421D01*
X84994104Y-79236726D01*
X85014940Y-79204304D01*
X85013298Y-79203031D01*
X85018075Y-79196870D01*
X85018081Y-79196865D01*
X85101744Y-79055398D01*
X85147598Y-78897569D01*
X85150500Y-78860694D01*
X85150500Y-78429306D01*
X85147598Y-78392431D01*
X85143841Y-78379500D01*
X85101745Y-78234606D01*
X85101744Y-78234603D01*
X85101744Y-78234602D01*
X85018081Y-78093135D01*
X85018078Y-78093132D01*
X85013298Y-78086969D01*
X85015750Y-78085066D01*
X84989155Y-78036421D01*
X84994104Y-77966726D01*
X85014940Y-77934304D01*
X85013298Y-77933031D01*
X85018084Y-77926861D01*
X85065075Y-77847402D01*
X85101744Y-77785398D01*
X85147598Y-77627569D01*
X85150500Y-77590694D01*
X85150500Y-77159306D01*
X85147598Y-77122431D01*
X85143821Y-77109432D01*
X85101745Y-76964606D01*
X85101744Y-76964603D01*
X85101744Y-76964602D01*
X85018081Y-76823135D01*
X85018078Y-76823132D01*
X85013298Y-76816969D01*
X85015750Y-76815066D01*
X84989155Y-76766421D01*
X84994104Y-76696726D01*
X85014940Y-76664304D01*
X85013298Y-76663031D01*
X85018075Y-76656870D01*
X85018081Y-76656865D01*
X85101744Y-76515398D01*
X85147598Y-76357569D01*
X85150500Y-76320694D01*
X85150500Y-75889306D01*
X85147598Y-75852431D01*
X85143841Y-75839500D01*
X85113836Y-75736224D01*
X85101744Y-75694602D01*
X85018081Y-75553135D01*
X85018079Y-75553133D01*
X85018076Y-75553129D01*
X84901870Y-75436923D01*
X84901862Y-75436917D01*
X84760396Y-75353255D01*
X84760393Y-75353254D01*
X84602573Y-75307402D01*
X84602567Y-75307401D01*
X84565701Y-75304500D01*
X84565694Y-75304500D01*
X84340782Y-75304500D01*
X84273743Y-75284815D01*
X84253101Y-75268181D01*
X81521479Y-72536559D01*
X81521459Y-72536537D01*
X81377785Y-72392863D01*
X81377781Y-72392860D01*
X81213920Y-72283371D01*
X81213911Y-72283366D01*
X81141315Y-72253296D01*
X81085165Y-72230038D01*
X81031836Y-72207949D01*
X81031832Y-72207948D01*
X81031828Y-72207946D01*
X80935188Y-72188724D01*
X80838544Y-72169500D01*
X80838541Y-72169500D01*
X72905181Y-72169500D01*
X72838142Y-72149815D01*
X72792387Y-72097011D01*
X72782443Y-72027853D01*
X72811468Y-71964297D01*
X72817500Y-71957819D01*
X78833501Y-65941819D01*
X78894824Y-65908334D01*
X78921182Y-65905500D01*
X83898543Y-65905500D01*
X84028582Y-65879632D01*
X84091835Y-65867051D01*
X84273914Y-65791632D01*
X84371544Y-65726398D01*
X84438222Y-65705520D01*
X84440435Y-65705500D01*
X84690686Y-65705500D01*
X84690694Y-65705500D01*
X84727569Y-65702598D01*
X84727571Y-65702597D01*
X84727573Y-65702597D01*
X84769191Y-65690505D01*
X84885398Y-65656744D01*
X85026865Y-65573081D01*
X85143081Y-65456865D01*
X85226744Y-65315398D01*
X85272598Y-65157569D01*
X85275500Y-65120694D01*
X85275500Y-64689306D01*
X85272598Y-64652431D01*
X85243965Y-64553878D01*
X85226745Y-64494606D01*
X85226744Y-64494603D01*
X85226744Y-64494602D01*
X85143081Y-64353135D01*
X85143078Y-64353132D01*
X85138298Y-64346969D01*
X85140750Y-64345066D01*
X85114155Y-64296421D01*
X85119104Y-64226726D01*
X85139940Y-64194304D01*
X85138298Y-64193031D01*
X85143075Y-64186870D01*
X85143081Y-64186865D01*
X85226744Y-64045398D01*
X85272598Y-63887569D01*
X85275500Y-63850694D01*
X85275500Y-63419306D01*
X85272598Y-63382431D01*
X85271454Y-63378495D01*
X85227822Y-63228314D01*
X85226744Y-63224602D01*
X85143081Y-63083135D01*
X85143078Y-63083132D01*
X85138298Y-63076969D01*
X85140750Y-63075066D01*
X85114155Y-63026421D01*
X85119104Y-62956726D01*
X85139940Y-62924304D01*
X85138298Y-62923031D01*
X85143075Y-62916870D01*
X85143081Y-62916865D01*
X85226744Y-62775398D01*
X85272598Y-62617569D01*
X85275500Y-62580694D01*
X85275500Y-62149306D01*
X85272598Y-62112431D01*
X85269673Y-62102364D01*
X85226745Y-61954606D01*
X85226744Y-61954603D01*
X85226744Y-61954602D01*
X85143081Y-61813135D01*
X85143078Y-61813132D01*
X85138298Y-61806969D01*
X85140750Y-61805066D01*
X85114155Y-61756421D01*
X85119104Y-61686726D01*
X85139940Y-61654304D01*
X85138298Y-61653031D01*
X85143075Y-61646870D01*
X85143081Y-61646865D01*
X85226744Y-61505398D01*
X85272598Y-61347569D01*
X85275500Y-61310694D01*
X85275500Y-60879306D01*
X85272598Y-60842431D01*
X85271455Y-60838498D01*
X85226745Y-60684606D01*
X85226744Y-60684603D01*
X85226744Y-60684602D01*
X85143081Y-60543135D01*
X85143079Y-60543133D01*
X85143076Y-60543129D01*
X85026870Y-60426923D01*
X85026862Y-60426917D01*
X84948681Y-60380681D01*
X84885398Y-60343256D01*
X84885397Y-60343255D01*
X84885396Y-60343255D01*
X84885393Y-60343254D01*
X84727573Y-60297402D01*
X84727567Y-60297401D01*
X84690701Y-60294500D01*
X84690694Y-60294500D01*
X84440435Y-60294500D01*
X84373396Y-60274815D01*
X84371544Y-60273602D01*
X84273911Y-60208366D01*
X84091839Y-60132950D01*
X84091829Y-60132947D01*
X83898543Y-60094500D01*
X83898541Y-60094500D01*
X78553159Y-60094500D01*
X78553157Y-60094500D01*
X78472381Y-60110568D01*
X78472380Y-60110568D01*
X78359871Y-60132947D01*
X78359859Y-60132950D01*
X78323013Y-60148212D01*
X78253544Y-60155679D01*
X78191065Y-60124403D01*
X78172461Y-60102540D01*
X78169642Y-60098322D01*
X78169636Y-60098314D01*
X76845909Y-58774589D01*
X76845906Y-58774585D01*
X76845906Y-58774586D01*
X76838839Y-58767519D01*
X76838839Y-58767518D01*
X76699482Y-58628161D01*
X76699481Y-58628160D01*
X76699480Y-58628159D01*
X76535620Y-58518671D01*
X76535607Y-58518664D01*
X76405895Y-58464937D01*
X76353536Y-58443249D01*
X76353528Y-58443247D01*
X76256888Y-58424024D01*
X76160244Y-58404800D01*
X76160241Y-58404800D01*
X70421596Y-58404800D01*
X70407949Y-58403455D01*
X70407906Y-58403897D01*
X70401844Y-58403300D01*
X70401841Y-58403300D01*
X48656859Y-58403300D01*
X48656854Y-58403300D01*
X48624791Y-58409676D01*
X48624792Y-58409677D01*
X48463570Y-58441746D01*
X48463564Y-58441748D01*
X48281488Y-58517166D01*
X48281479Y-58517171D01*
X48117619Y-58626659D01*
X48117615Y-58626662D01*
X45773563Y-60970715D01*
X45773560Y-60970719D01*
X45664072Y-61134579D01*
X45664067Y-61134589D01*
X45588649Y-61316663D01*
X45588647Y-61316671D01*
X45550200Y-61509955D01*
X45550200Y-61589317D01*
X45530515Y-61656356D01*
X45477711Y-61702111D01*
X45408553Y-61712055D01*
X45344997Y-61683030D01*
X45338519Y-61676998D01*
X43999684Y-60338163D01*
X43999680Y-60338160D01*
X43835820Y-60228672D01*
X43835810Y-60228667D01*
X43653736Y-60153249D01*
X43653728Y-60153247D01*
X43460443Y-60114800D01*
X43460440Y-60114800D01*
X43263360Y-60114800D01*
X43263357Y-60114800D01*
X43070071Y-60153247D01*
X43070063Y-60153249D01*
X42887989Y-60228667D01*
X42887979Y-60228672D01*
X42724119Y-60338160D01*
X42724115Y-60338163D01*
X42649331Y-60412948D01*
X42588008Y-60446433D01*
X42518316Y-60441449D01*
X42473969Y-60412948D01*
X41988931Y-59927910D01*
X41955446Y-59866587D01*
X41953084Y-59829425D01*
X41955659Y-59800000D01*
X41935063Y-59564592D01*
X41873903Y-59336337D01*
X41774035Y-59122171D01*
X41748154Y-59085208D01*
X41638494Y-58928597D01*
X41471402Y-58761506D01*
X41471396Y-58761501D01*
X41285842Y-58631575D01*
X41242217Y-58576998D01*
X41235023Y-58507500D01*
X41266546Y-58445145D01*
X41285842Y-58428425D01*
X41352275Y-58381908D01*
X41471401Y-58298495D01*
X41638495Y-58131401D01*
X41774035Y-57937830D01*
X41873903Y-57723663D01*
X41935063Y-57495408D01*
X41955659Y-57260000D01*
X41935063Y-57024592D01*
X41873903Y-56796337D01*
X41774035Y-56582171D01*
X41716500Y-56500001D01*
X41638494Y-56388597D01*
X41471402Y-56221506D01*
X41471396Y-56221501D01*
X41285842Y-56091575D01*
X41242217Y-56036998D01*
X41235023Y-55967500D01*
X41266546Y-55905145D01*
X41285842Y-55888425D01*
X41308026Y-55872891D01*
X41471401Y-55758495D01*
X41638495Y-55591401D01*
X41774035Y-55397830D01*
X41873903Y-55183663D01*
X41935063Y-54955408D01*
X41955659Y-54720000D01*
X41935063Y-54484592D01*
X41873903Y-54256337D01*
X41774035Y-54042171D01*
X41729976Y-53979247D01*
X41638494Y-53848597D01*
X41471402Y-53681506D01*
X41471396Y-53681501D01*
X41285842Y-53551575D01*
X41242217Y-53496998D01*
X41235023Y-53427500D01*
X41266546Y-53365145D01*
X41285842Y-53348425D01*
X41331484Y-53316466D01*
X41471401Y-53218495D01*
X41638495Y-53051401D01*
X41744508Y-52899999D01*
X49814357Y-52899999D01*
X49814357Y-52900000D01*
X49834884Y-53121535D01*
X49834885Y-53121537D01*
X49895769Y-53335523D01*
X49895775Y-53335538D01*
X49994938Y-53534683D01*
X49994943Y-53534691D01*
X50129020Y-53712238D01*
X50293437Y-53862123D01*
X50293439Y-53862125D01*
X50482595Y-53979245D01*
X50482596Y-53979245D01*
X50482599Y-53979247D01*
X50690060Y-54059618D01*
X50744115Y-54069722D01*
X50806395Y-54101390D01*
X50809010Y-54103930D01*
X51368760Y-54663680D01*
X51402245Y-54725003D01*
X51397261Y-54794695D01*
X51355389Y-54850628D01*
X51289925Y-54875045D01*
X51258294Y-54873250D01*
X51213041Y-54864790D01*
X51131243Y-54849500D01*
X50908757Y-54849500D01*
X50690060Y-54890382D01*
X50605577Y-54923111D01*
X50482601Y-54970752D01*
X50482595Y-54970754D01*
X50293439Y-55087874D01*
X50293437Y-55087876D01*
X50129020Y-55237761D01*
X49994943Y-55415308D01*
X49994938Y-55415316D01*
X49895775Y-55614461D01*
X49895769Y-55614476D01*
X49834885Y-55828462D01*
X49834884Y-55828464D01*
X49814357Y-56049999D01*
X49814357Y-56050000D01*
X49834884Y-56271535D01*
X49834885Y-56271537D01*
X49895769Y-56485523D01*
X49895775Y-56485538D01*
X49994938Y-56684683D01*
X49994943Y-56684691D01*
X50129020Y-56862238D01*
X50293437Y-57012123D01*
X50293439Y-57012125D01*
X50482595Y-57129245D01*
X50482596Y-57129245D01*
X50482599Y-57129247D01*
X50690060Y-57209618D01*
X50908757Y-57250500D01*
X50908759Y-57250500D01*
X51131241Y-57250500D01*
X51131243Y-57250500D01*
X51349940Y-57209618D01*
X51557401Y-57129247D01*
X51746562Y-57012124D01*
X51910981Y-56862236D01*
X52045058Y-56684689D01*
X52144229Y-56485528D01*
X52205115Y-56271536D01*
X52225643Y-56050000D01*
X52205115Y-55828464D01*
X52144229Y-55614472D01*
X52144224Y-55614461D01*
X52144222Y-55614456D01*
X52139307Y-55604585D01*
X52127046Y-55535800D01*
X52153919Y-55471305D01*
X52211395Y-55431577D01*
X52281226Y-55429231D01*
X52297756Y-55434752D01*
X52303064Y-55436951D01*
X52378655Y-55451987D01*
X52408081Y-55457840D01*
X52496356Y-55475400D01*
X52496359Y-55475400D01*
X52496360Y-55475400D01*
X52693440Y-55475400D01*
X54851138Y-55475400D01*
X54918177Y-55495085D01*
X54963932Y-55547889D01*
X54973876Y-55617047D01*
X54970404Y-55633334D01*
X54914885Y-55828461D01*
X54914884Y-55828464D01*
X54894357Y-56049999D01*
X54894357Y-56050000D01*
X54914884Y-56271535D01*
X54914885Y-56271537D01*
X54975769Y-56485523D01*
X54975775Y-56485538D01*
X55074938Y-56684683D01*
X55074943Y-56684691D01*
X55209020Y-56862238D01*
X55373437Y-57012123D01*
X55373439Y-57012125D01*
X55562595Y-57129245D01*
X55562596Y-57129245D01*
X55562599Y-57129247D01*
X55770060Y-57209618D01*
X55988757Y-57250500D01*
X55988759Y-57250500D01*
X56211241Y-57250500D01*
X56211243Y-57250500D01*
X56429940Y-57209618D01*
X56637401Y-57129247D01*
X56826562Y-57012124D01*
X56990981Y-56862236D01*
X57125058Y-56684689D01*
X57224229Y-56485528D01*
X57285115Y-56271536D01*
X57305643Y-56050000D01*
X57285115Y-55828464D01*
X57229596Y-55633334D01*
X57230183Y-55563467D01*
X57268449Y-55505008D01*
X57332247Y-55476518D01*
X57348862Y-55475400D01*
X58059118Y-55475400D01*
X58126157Y-55495085D01*
X58146799Y-55511719D01*
X58973111Y-56338031D01*
X59006596Y-56399354D01*
X59008958Y-56414902D01*
X59014364Y-56476688D01*
X59014366Y-56476697D01*
X59073258Y-56696488D01*
X59073261Y-56696497D01*
X59169431Y-56902732D01*
X59169432Y-56902734D01*
X59299954Y-57089141D01*
X59460858Y-57250045D01*
X59460861Y-57250047D01*
X59647266Y-57380568D01*
X59853504Y-57476739D01*
X59853509Y-57476740D01*
X59853511Y-57476741D01*
X59906415Y-57490916D01*
X60073308Y-57535635D01*
X60235230Y-57549801D01*
X60299998Y-57555468D01*
X60300000Y-57555468D01*
X60300002Y-57555468D01*
X60356673Y-57550509D01*
X60526692Y-57535635D01*
X60746496Y-57476739D01*
X60952734Y-57380568D01*
X61139139Y-57250047D01*
X61300047Y-57089139D01*
X61430568Y-56902734D01*
X61526739Y-56696496D01*
X61579390Y-56499998D01*
X67694532Y-56499998D01*
X67694532Y-56500001D01*
X67714364Y-56726686D01*
X67714366Y-56726697D01*
X67773258Y-56946488D01*
X67773261Y-56946497D01*
X67869431Y-57152732D01*
X67869432Y-57152734D01*
X67999954Y-57339141D01*
X68160858Y-57500045D01*
X68160861Y-57500047D01*
X68347266Y-57630568D01*
X68553504Y-57726739D01*
X68773308Y-57785635D01*
X68935230Y-57799801D01*
X68999998Y-57805468D01*
X69000000Y-57805468D01*
X69000002Y-57805468D01*
X69056673Y-57800509D01*
X69226692Y-57785635D01*
X69446496Y-57726739D01*
X69652734Y-57630568D01*
X69806465Y-57522924D01*
X69872671Y-57500598D01*
X69877588Y-57500500D01*
X75298542Y-57500500D01*
X75324164Y-57495403D01*
X75395188Y-57481275D01*
X75491836Y-57462051D01*
X75545165Y-57439961D01*
X75673914Y-57386632D01*
X75837782Y-57277139D01*
X75977139Y-57137782D01*
X75977140Y-57137779D01*
X75984206Y-57130714D01*
X75984208Y-57130710D01*
X78015559Y-55099360D01*
X78076880Y-55065877D01*
X78146572Y-55070861D01*
X78202505Y-55112733D01*
X78219420Y-55143710D01*
X78256202Y-55242328D01*
X78256206Y-55242335D01*
X78342452Y-55357544D01*
X78342455Y-55357547D01*
X78457664Y-55443793D01*
X78457671Y-55443797D01*
X78592517Y-55494091D01*
X78592516Y-55494091D01*
X78599444Y-55494835D01*
X78652127Y-55500500D01*
X79571905Y-55500499D01*
X79571919Y-55500500D01*
X79581908Y-55500500D01*
X85250708Y-55500500D01*
X85486892Y-55500500D01*
X89227111Y-55500500D01*
X89294150Y-55520185D01*
X89314792Y-55536819D01*
X92863181Y-59085208D01*
X92896666Y-59146531D01*
X92899500Y-59172889D01*
X92899500Y-61958710D01*
X92879815Y-62025749D01*
X92863181Y-62046391D01*
X92544981Y-62364591D01*
X92483658Y-62398076D01*
X92413966Y-62393092D01*
X92358033Y-62351220D01*
X92335683Y-62301101D01*
X92309915Y-62171559D01*
X92296151Y-62102365D01*
X92220731Y-61920286D01*
X92220730Y-61920285D01*
X92220727Y-61920279D01*
X92111239Y-61756419D01*
X92111236Y-61756415D01*
X91971884Y-61617063D01*
X91971880Y-61617060D01*
X91808020Y-61507572D01*
X91808010Y-61507567D01*
X91770486Y-61492024D01*
X91716083Y-61448183D01*
X91694018Y-61381888D01*
X91703377Y-61330013D01*
X91720351Y-61289035D01*
X91743716Y-61171575D01*
X91758800Y-61095743D01*
X91758800Y-60898656D01*
X91720352Y-60705370D01*
X91720351Y-60705369D01*
X91720351Y-60705365D01*
X91720349Y-60705360D01*
X91644935Y-60523292D01*
X91644928Y-60523279D01*
X91535439Y-60359418D01*
X91535436Y-60359414D01*
X91396085Y-60220063D01*
X91396081Y-60220060D01*
X91232220Y-60110571D01*
X91232207Y-60110564D01*
X91050139Y-60035150D01*
X91050129Y-60035147D01*
X90856843Y-59996700D01*
X90856841Y-59996700D01*
X88749259Y-59996700D01*
X88749257Y-59996700D01*
X88680833Y-60010311D01*
X88680832Y-60010311D01*
X88555971Y-60035147D01*
X88555963Y-60035149D01*
X88514218Y-60052441D01*
X88514217Y-60052441D01*
X88373892Y-60110564D01*
X88373879Y-60110571D01*
X88210018Y-60220060D01*
X88210014Y-60220063D01*
X88171899Y-60258180D01*
X88110577Y-60291666D01*
X88084217Y-60294500D01*
X87859298Y-60294500D01*
X87822432Y-60297401D01*
X87822426Y-60297402D01*
X87664606Y-60343254D01*
X87664603Y-60343255D01*
X87523137Y-60426917D01*
X87523129Y-60426923D01*
X87406923Y-60543129D01*
X87406917Y-60543137D01*
X87323255Y-60684603D01*
X87323254Y-60684606D01*
X87277402Y-60842426D01*
X87277401Y-60842432D01*
X87274500Y-60879298D01*
X87274500Y-60879306D01*
X87274500Y-61310694D01*
X87275423Y-61322428D01*
X87277401Y-61347567D01*
X87277402Y-61347573D01*
X87323254Y-61505393D01*
X87323255Y-61505396D01*
X87406917Y-61646862D01*
X87406923Y-61646870D01*
X87523129Y-61763076D01*
X87523133Y-61763079D01*
X87523135Y-61763081D01*
X87664602Y-61846744D01*
X87706224Y-61858836D01*
X87822426Y-61892597D01*
X87822429Y-61892597D01*
X87822431Y-61892598D01*
X87859306Y-61895500D01*
X88109567Y-61895500D01*
X88176606Y-61915185D01*
X88178421Y-61916373D01*
X88276086Y-61981631D01*
X88458164Y-62057051D01*
X88651455Y-62095499D01*
X88651458Y-62095500D01*
X88651460Y-62095500D01*
X88848542Y-62095500D01*
X88848543Y-62095499D01*
X89041836Y-62057051D01*
X89162333Y-62007138D01*
X89209785Y-61997700D01*
X90016317Y-61997700D01*
X90083356Y-62017385D01*
X90129111Y-62070189D01*
X90139055Y-62139347D01*
X90110030Y-62202903D01*
X90104011Y-62209367D01*
X90053228Y-62260150D01*
X90002459Y-62310919D01*
X89916417Y-62439691D01*
X89862805Y-62484496D01*
X89813315Y-62494800D01*
X89010305Y-62494800D01*
X88855564Y-62525580D01*
X88855552Y-62525583D01*
X88709787Y-62585960D01*
X88578591Y-62673622D01*
X88522807Y-62729407D01*
X88467022Y-62785192D01*
X88467019Y-62785195D01*
X88467015Y-62785198D01*
X88459541Y-62792672D01*
X88454035Y-62798178D01*
X88392715Y-62831665D01*
X88366352Y-62834500D01*
X87859298Y-62834500D01*
X87822432Y-62837401D01*
X87822426Y-62837402D01*
X87664606Y-62883254D01*
X87664603Y-62883255D01*
X87523137Y-62966917D01*
X87523129Y-62966923D01*
X87406923Y-63083129D01*
X87406917Y-63083137D01*
X87323255Y-63224603D01*
X87323254Y-63224606D01*
X87277402Y-63382426D01*
X87277401Y-63382432D01*
X87274500Y-63419298D01*
X87274500Y-63850701D01*
X87277401Y-63887567D01*
X87277402Y-63887573D01*
X87323254Y-64045393D01*
X87323255Y-64045396D01*
X87406917Y-64186862D01*
X87411702Y-64193031D01*
X87409256Y-64194927D01*
X87435857Y-64243642D01*
X87430873Y-64313334D01*
X87410069Y-64345703D01*
X87411702Y-64346969D01*
X87406917Y-64353137D01*
X87323255Y-64494603D01*
X87323254Y-64494606D01*
X87277402Y-64652426D01*
X87277401Y-64652432D01*
X87274500Y-64689298D01*
X87274500Y-65120701D01*
X87277401Y-65157567D01*
X87277402Y-65157573D01*
X87323254Y-65315393D01*
X87323255Y-65315396D01*
X87390202Y-65428599D01*
X87406918Y-65456864D01*
X87406923Y-65456870D01*
X87523129Y-65573076D01*
X87523133Y-65573079D01*
X87523135Y-65573081D01*
X87664602Y-65656744D01*
X87692940Y-65664977D01*
X87822426Y-65702597D01*
X87822429Y-65702597D01*
X87822431Y-65702598D01*
X87859306Y-65705500D01*
X88659930Y-65705500D01*
X88670130Y-65706001D01*
X88671108Y-65706001D01*
X88829870Y-65706001D01*
X88840070Y-65705500D01*
X89640686Y-65705500D01*
X89640694Y-65705500D01*
X89677569Y-65702598D01*
X89677571Y-65702597D01*
X89677573Y-65702597D01*
X89719191Y-65690505D01*
X89835398Y-65656744D01*
X89976865Y-65573081D01*
X90093081Y-65456865D01*
X90110342Y-65427677D01*
X90161412Y-65379995D01*
X90217074Y-65366800D01*
X91129859Y-65366800D01*
X91196898Y-65386485D01*
X91230176Y-65417913D01*
X91321283Y-65543310D01*
X91488290Y-65710317D01*
X91679366Y-65849143D01*
X91691095Y-65855119D01*
X91889803Y-65956366D01*
X91889805Y-65956366D01*
X91889808Y-65956368D01*
X92010212Y-65995489D01*
X92114431Y-66029353D01*
X92347703Y-66066300D01*
X92347708Y-66066300D01*
X92583897Y-66066300D01*
X92817168Y-66029353D01*
X93041792Y-65956368D01*
X93252234Y-65849143D01*
X93443310Y-65710317D01*
X95544517Y-63609110D01*
X95683343Y-63418033D01*
X95790568Y-63207592D01*
X95863553Y-62982968D01*
X95867709Y-62956726D01*
X95900500Y-62749697D01*
X95900500Y-58381902D01*
X95863553Y-58148631D01*
X95790566Y-57924003D01*
X95730169Y-57805468D01*
X95730168Y-57805467D01*
X95720063Y-57785635D01*
X95690055Y-57726739D01*
X95683344Y-57713567D01*
X95544833Y-57522925D01*
X95544517Y-57522490D01*
X90877510Y-52855483D01*
X90686434Y-52716657D01*
X90475996Y-52609433D01*
X90251368Y-52536446D01*
X90018097Y-52499500D01*
X90018092Y-52499500D01*
X86993300Y-52499500D01*
X86926261Y-52479815D01*
X86880506Y-52427011D01*
X86869300Y-52375500D01*
X86869300Y-45471981D01*
X86888985Y-45404942D01*
X86905615Y-45384304D01*
X87262778Y-45027141D01*
X87262782Y-45027139D01*
X87402139Y-44887782D01*
X87511632Y-44723914D01*
X87566826Y-44590664D01*
X87587051Y-44541836D01*
X87589667Y-44528688D01*
X87615165Y-44400500D01*
X87615165Y-44400499D01*
X87617927Y-44386613D01*
X87625500Y-44348541D01*
X87625500Y-43814141D01*
X87645185Y-43747102D01*
X87697989Y-43701347D01*
X87706149Y-43697966D01*
X87717331Y-43693796D01*
X87724274Y-43688599D01*
X87755447Y-43665261D01*
X87832546Y-43607546D01*
X87918796Y-43492331D01*
X87969091Y-43357483D01*
X87975500Y-43297873D01*
X87975499Y-41502128D01*
X87969091Y-41442517D01*
X87935127Y-41351456D01*
X87918797Y-41307671D01*
X87918793Y-41307664D01*
X87832547Y-41192455D01*
X87832544Y-41192452D01*
X87717335Y-41106206D01*
X87717328Y-41106202D01*
X87582482Y-41055908D01*
X87582483Y-41055908D01*
X87522883Y-41049501D01*
X87522881Y-41049500D01*
X87522873Y-41049500D01*
X87522864Y-41049500D01*
X85727129Y-41049500D01*
X85727123Y-41049501D01*
X85667516Y-41055908D01*
X85532671Y-41106202D01*
X85532664Y-41106206D01*
X85417455Y-41192452D01*
X85417452Y-41192455D01*
X85331206Y-41307664D01*
X85331202Y-41307671D01*
X85280908Y-41442517D01*
X85274501Y-41502116D01*
X85274501Y-41502123D01*
X85274500Y-41502135D01*
X85274500Y-43297870D01*
X85274501Y-43297876D01*
X85280908Y-43357483D01*
X85331202Y-43492328D01*
X85331206Y-43492335D01*
X85417452Y-43607544D01*
X85417455Y-43607547D01*
X85532664Y-43693793D01*
X85538392Y-43696921D01*
X85587797Y-43746327D01*
X85602648Y-43814600D01*
X85578230Y-43880064D01*
X85566646Y-43893434D01*
X85490697Y-43969382D01*
X85429377Y-44002866D01*
X85403018Y-44005700D01*
X85250703Y-44005700D01*
X85017431Y-44042646D01*
X84792803Y-44115633D01*
X84582366Y-44222857D01*
X84529982Y-44260917D01*
X84391290Y-44361683D01*
X84391288Y-44361685D01*
X84391287Y-44361685D01*
X84224285Y-44528687D01*
X84224285Y-44528688D01*
X84224283Y-44528690D01*
X84179256Y-44590664D01*
X84085457Y-44719766D01*
X83978233Y-44930203D01*
X83905246Y-45154831D01*
X83868300Y-45388102D01*
X83868300Y-52375500D01*
X83848615Y-52442539D01*
X83795811Y-52488294D01*
X83744300Y-52499500D01*
X78652129Y-52499500D01*
X78652123Y-52499501D01*
X78592516Y-52505908D01*
X78457671Y-52556202D01*
X78457664Y-52556206D01*
X78342455Y-52642452D01*
X78342452Y-52642455D01*
X78256206Y-52757664D01*
X78256202Y-52757671D01*
X78205908Y-52892517D01*
X78204126Y-52900062D01*
X78201853Y-52899525D01*
X78179571Y-52953312D01*
X78122177Y-52993157D01*
X78083024Y-52999500D01*
X77601455Y-52999500D01*
X77504812Y-53018724D01*
X77408167Y-53037947D01*
X77408161Y-53037949D01*
X77354834Y-53060037D01*
X77354834Y-53060038D01*
X77309315Y-53078892D01*
X77226089Y-53113366D01*
X77226079Y-53113371D01*
X77062219Y-53222859D01*
X76992540Y-53292538D01*
X76922861Y-53362218D01*
X76922858Y-53362221D01*
X74821899Y-55463181D01*
X74760576Y-55496666D01*
X74734218Y-55499500D01*
X69877588Y-55499500D01*
X69810549Y-55479815D01*
X69806465Y-55477075D01*
X69786622Y-55463181D01*
X69652734Y-55369432D01*
X69627245Y-55357546D01*
X69446497Y-55273261D01*
X69446488Y-55273258D01*
X69226697Y-55214366D01*
X69226693Y-55214365D01*
X69226692Y-55214365D01*
X69226691Y-55214364D01*
X69226686Y-55214364D01*
X69000002Y-55194532D01*
X68999998Y-55194532D01*
X68773313Y-55214364D01*
X68773302Y-55214366D01*
X68553511Y-55273258D01*
X68553502Y-55273261D01*
X68347267Y-55369431D01*
X68347265Y-55369432D01*
X68160858Y-55499954D01*
X67999954Y-55660858D01*
X67869432Y-55847265D01*
X67869431Y-55847267D01*
X67773261Y-56053502D01*
X67773258Y-56053511D01*
X67714366Y-56273302D01*
X67714364Y-56273313D01*
X67694532Y-56499998D01*
X61579390Y-56499998D01*
X61585635Y-56476692D01*
X61605468Y-56250000D01*
X61585635Y-56023308D01*
X61533427Y-55828464D01*
X61526741Y-55803511D01*
X61526738Y-55803502D01*
X61460223Y-55660861D01*
X61430568Y-55597266D01*
X61300047Y-55410861D01*
X61300045Y-55410858D01*
X61139141Y-55249954D01*
X60952734Y-55119432D01*
X60952732Y-55119431D01*
X60746497Y-55023261D01*
X60746488Y-55023258D01*
X60526697Y-54964366D01*
X60526688Y-54964364D01*
X60464902Y-54958958D01*
X60399834Y-54933504D01*
X60388031Y-54923111D01*
X59306914Y-53841994D01*
X59305948Y-53840928D01*
X59302140Y-53837120D01*
X59302139Y-53837118D01*
X59162782Y-53697761D01*
X59162781Y-53697760D01*
X59162780Y-53697759D01*
X58998920Y-53588271D01*
X58998907Y-53588264D01*
X58816839Y-53512850D01*
X58816829Y-53512847D01*
X58623543Y-53474400D01*
X58623541Y-53474400D01*
X57348919Y-53474400D01*
X57281880Y-53454715D01*
X57236125Y-53401911D01*
X57226181Y-53332753D01*
X57229653Y-53316466D01*
X57285114Y-53121538D01*
X57285115Y-53121537D01*
X57285115Y-53121536D01*
X57305643Y-52900000D01*
X57301735Y-52857830D01*
X57285115Y-52678464D01*
X57285114Y-52678462D01*
X57276019Y-52646497D01*
X57224229Y-52464472D01*
X57205419Y-52426697D01*
X57125055Y-52265305D01*
X57122038Y-52260432D01*
X57123187Y-52259720D01*
X57100853Y-52200583D01*
X57100831Y-52199998D01*
X58994532Y-52199998D01*
X58994532Y-52200001D01*
X59014364Y-52426686D01*
X59014366Y-52426697D01*
X59073258Y-52646488D01*
X59073261Y-52646497D01*
X59169431Y-52852732D01*
X59169432Y-52852734D01*
X59299954Y-53039141D01*
X59460858Y-53200045D01*
X59460861Y-53200047D01*
X59647266Y-53330568D01*
X59853504Y-53426739D01*
X60073308Y-53485635D01*
X60235230Y-53499801D01*
X60299998Y-53505468D01*
X60300000Y-53505468D01*
X60300002Y-53505468D01*
X60356673Y-53500509D01*
X60526692Y-53485635D01*
X60746496Y-53426739D01*
X60952734Y-53330568D01*
X61139139Y-53200047D01*
X61300047Y-53039139D01*
X61430568Y-52852734D01*
X61526739Y-52646496D01*
X61585635Y-52426692D01*
X61605468Y-52200000D01*
X61585635Y-51973308D01*
X61526739Y-51753504D01*
X61430568Y-51547266D01*
X61300047Y-51360861D01*
X61300045Y-51360858D01*
X61139141Y-51199954D01*
X60952734Y-51069432D01*
X60952732Y-51069431D01*
X60746497Y-50973261D01*
X60746488Y-50973258D01*
X60526697Y-50914366D01*
X60526693Y-50914365D01*
X60526692Y-50914365D01*
X60526691Y-50914364D01*
X60526686Y-50914364D01*
X60300002Y-50894532D01*
X60299998Y-50894532D01*
X60073313Y-50914364D01*
X60073302Y-50914366D01*
X59853511Y-50973258D01*
X59853502Y-50973261D01*
X59647267Y-51069431D01*
X59647265Y-51069432D01*
X59460858Y-51199954D01*
X59299954Y-51360858D01*
X59169432Y-51547265D01*
X59169431Y-51547267D01*
X59073261Y-51753502D01*
X59073258Y-51753511D01*
X59014366Y-51973302D01*
X59014364Y-51973313D01*
X58994532Y-52199998D01*
X57100831Y-52199998D01*
X57100500Y-52191229D01*
X57100500Y-51101458D01*
X57100499Y-51101457D01*
X57075000Y-50973261D01*
X57075000Y-50973258D01*
X57062053Y-50908172D01*
X57062052Y-50908165D01*
X56986632Y-50726086D01*
X56986631Y-50726085D01*
X56986628Y-50726079D01*
X56877140Y-50562219D01*
X56877137Y-50562215D01*
X53689219Y-47374297D01*
X53655734Y-47312974D01*
X53652900Y-47286616D01*
X53652900Y-47160056D01*
X53614452Y-46966770D01*
X53614451Y-46966769D01*
X53614451Y-46966765D01*
X53572130Y-46864592D01*
X53539035Y-46784692D01*
X53539028Y-46784679D01*
X53429539Y-46620818D01*
X53429536Y-46620814D01*
X53290185Y-46481463D01*
X53290181Y-46481460D01*
X53126320Y-46371971D01*
X53126307Y-46371964D01*
X52944239Y-46296550D01*
X52944229Y-46296547D01*
X52750943Y-46258100D01*
X52750941Y-46258100D01*
X52553859Y-46258100D01*
X52553857Y-46258100D01*
X52360570Y-46296547D01*
X52360560Y-46296550D01*
X52178492Y-46371964D01*
X52178479Y-46371971D01*
X52014618Y-46481460D01*
X52014614Y-46481463D01*
X51875263Y-46620814D01*
X51875260Y-46620818D01*
X51765771Y-46784679D01*
X51765764Y-46784692D01*
X51690350Y-46966760D01*
X51690347Y-46966770D01*
X51651900Y-47160056D01*
X51651900Y-47850944D01*
X51690347Y-48044228D01*
X51690349Y-48044236D01*
X51698604Y-48064165D01*
X51698604Y-48064166D01*
X51765764Y-48226307D01*
X51765771Y-48226320D01*
X51875259Y-48390180D01*
X51875260Y-48390181D01*
X51875261Y-48390182D01*
X52014618Y-48529539D01*
X52014619Y-48529539D01*
X52021686Y-48536606D01*
X52021685Y-48536606D01*
X52021689Y-48536609D01*
X55063181Y-51578101D01*
X55096666Y-51639424D01*
X55099500Y-51665782D01*
X55099500Y-52191229D01*
X55079815Y-52258268D01*
X55075234Y-52264837D01*
X55074944Y-52265305D01*
X54975775Y-52464461D01*
X54975769Y-52464476D01*
X54914885Y-52678462D01*
X54914884Y-52678464D01*
X54894357Y-52899999D01*
X54894357Y-52900000D01*
X54914884Y-53121535D01*
X54914885Y-53121538D01*
X54970347Y-53316466D01*
X54969760Y-53386333D01*
X54931494Y-53444792D01*
X54867696Y-53473282D01*
X54851081Y-53474400D01*
X53060682Y-53474400D01*
X52993643Y-53454715D01*
X52973001Y-53438081D01*
X52224598Y-52689678D01*
X52193013Y-52635932D01*
X52144229Y-52464472D01*
X52125576Y-52427011D01*
X52045061Y-52265316D01*
X52045056Y-52265308D01*
X51910979Y-52087761D01*
X51746562Y-51937876D01*
X51746560Y-51937874D01*
X51557404Y-51820754D01*
X51557398Y-51820752D01*
X51349940Y-51740382D01*
X51131243Y-51699500D01*
X50908757Y-51699500D01*
X50690060Y-51740382D01*
X50558864Y-51791207D01*
X50482601Y-51820752D01*
X50482595Y-51820754D01*
X50293439Y-51937874D01*
X50293437Y-51937876D01*
X50129020Y-52087761D01*
X49994943Y-52265308D01*
X49994938Y-52265316D01*
X49895775Y-52464461D01*
X49895769Y-52464476D01*
X49834885Y-52678462D01*
X49834884Y-52678464D01*
X49814357Y-52899999D01*
X41744508Y-52899999D01*
X41774035Y-52857830D01*
X41873903Y-52643663D01*
X41935063Y-52415408D01*
X41955659Y-52180000D01*
X41935063Y-51944592D01*
X41873903Y-51716337D01*
X41774035Y-51502171D01*
X41638495Y-51308599D01*
X41638494Y-51308597D01*
X41471402Y-51141506D01*
X41471395Y-51141501D01*
X41277834Y-51005967D01*
X41277830Y-51005965D01*
X41277828Y-51005964D01*
X41063663Y-50906097D01*
X41063659Y-50906096D01*
X41063655Y-50906094D01*
X40835413Y-50844938D01*
X40835403Y-50844936D01*
X40600001Y-50824341D01*
X40599999Y-50824341D01*
X40364596Y-50844936D01*
X40364586Y-50844938D01*
X40136344Y-50906094D01*
X40136335Y-50906098D01*
X39922171Y-51005964D01*
X39922169Y-51005965D01*
X39728597Y-51141505D01*
X39561505Y-51308597D01*
X39425965Y-51502169D01*
X39425964Y-51502171D01*
X39326098Y-51716335D01*
X39326094Y-51716344D01*
X39264938Y-51944586D01*
X39264936Y-51944596D01*
X39244341Y-52179999D01*
X39244341Y-52180000D01*
X39264936Y-52415403D01*
X39264938Y-52415413D01*
X39326094Y-52643655D01*
X39326096Y-52643659D01*
X39326097Y-52643663D01*
X39360135Y-52716657D01*
X39425965Y-52857830D01*
X39425967Y-52857834D01*
X39492822Y-52953312D01*
X39552920Y-53039141D01*
X39561501Y-53051395D01*
X39561506Y-53051402D01*
X39728597Y-53218493D01*
X39728603Y-53218498D01*
X39914158Y-53348425D01*
X39957783Y-53403002D01*
X39964977Y-53472500D01*
X39933454Y-53534855D01*
X39914158Y-53551575D01*
X39728597Y-53681505D01*
X39561505Y-53848597D01*
X39425965Y-54042169D01*
X39425964Y-54042171D01*
X39326098Y-54256335D01*
X39326094Y-54256344D01*
X39264938Y-54484586D01*
X39264936Y-54484596D01*
X39244341Y-54719999D01*
X39244341Y-54720000D01*
X39264936Y-54955403D01*
X39264938Y-54955413D01*
X39326094Y-55183655D01*
X39326096Y-55183659D01*
X39326097Y-55183663D01*
X39407179Y-55357544D01*
X39425965Y-55397830D01*
X39425967Y-55397834D01*
X39561501Y-55591395D01*
X39561506Y-55591402D01*
X39728597Y-55758493D01*
X39728603Y-55758498D01*
X39914158Y-55888425D01*
X39957783Y-55943002D01*
X39964977Y-56012500D01*
X39933454Y-56074855D01*
X39914158Y-56091575D01*
X39728597Y-56221505D01*
X39561505Y-56388597D01*
X39425965Y-56582169D01*
X39425964Y-56582171D01*
X39326098Y-56796335D01*
X39326094Y-56796344D01*
X39264938Y-57024586D01*
X39264936Y-57024596D01*
X39244341Y-57259999D01*
X39244341Y-57260000D01*
X39264936Y-57495403D01*
X39264938Y-57495413D01*
X39326094Y-57723655D01*
X39326096Y-57723659D01*
X39326097Y-57723663D01*
X39419517Y-57924003D01*
X39425965Y-57937830D01*
X39425967Y-57937834D01*
X39561501Y-58131395D01*
X39561506Y-58131402D01*
X39728597Y-58298493D01*
X39728603Y-58298498D01*
X39914158Y-58428425D01*
X39957783Y-58483002D01*
X39964977Y-58552500D01*
X39933454Y-58614855D01*
X39914158Y-58631575D01*
X39728597Y-58761505D01*
X39561505Y-58928597D01*
X39425965Y-59122169D01*
X39425964Y-59122171D01*
X39326098Y-59336335D01*
X39326094Y-59336344D01*
X39264938Y-59564586D01*
X39264936Y-59564596D01*
X39244341Y-59799999D01*
X39244341Y-59800000D01*
X39264936Y-60035403D01*
X39264938Y-60035413D01*
X39326094Y-60263655D01*
X39326096Y-60263659D01*
X39326097Y-60263663D01*
X39392304Y-60405644D01*
X39425965Y-60477830D01*
X39425967Y-60477834D01*
X39561501Y-60671395D01*
X39561506Y-60671402D01*
X39728597Y-60838493D01*
X39728603Y-60838498D01*
X39914158Y-60968425D01*
X39957783Y-61023002D01*
X39964977Y-61092500D01*
X39933454Y-61154855D01*
X39914158Y-61171575D01*
X39728597Y-61301505D01*
X39561505Y-61468597D01*
X39425965Y-61662169D01*
X39425964Y-61662171D01*
X39326098Y-61876335D01*
X39326094Y-61876344D01*
X39264938Y-62104586D01*
X39264936Y-62104596D01*
X39244341Y-62339999D01*
X39244341Y-62340000D01*
X39264936Y-62575403D01*
X39264938Y-62575413D01*
X39326094Y-62803655D01*
X39326096Y-62803659D01*
X39326097Y-62803663D01*
X39382353Y-62924304D01*
X39425965Y-63017830D01*
X39425967Y-63017834D01*
X39471692Y-63083135D01*
X39561501Y-63211396D01*
X39561506Y-63211402D01*
X39683430Y-63333326D01*
X39716915Y-63394649D01*
X39711931Y-63464341D01*
X39670059Y-63520274D01*
X39639083Y-63537189D01*
X39507669Y-63586203D01*
X39507664Y-63586206D01*
X39392455Y-63672452D01*
X39392452Y-63672455D01*
X39306206Y-63787664D01*
X39306202Y-63787671D01*
X39255908Y-63922517D01*
X39249501Y-63982116D01*
X39249501Y-63982123D01*
X39249500Y-63982135D01*
X39249500Y-65777870D01*
X39249501Y-65777876D01*
X39255908Y-65837483D01*
X39306202Y-65972328D01*
X39306206Y-65972335D01*
X39392452Y-66087544D01*
X39392455Y-66087547D01*
X39507664Y-66173793D01*
X39507671Y-66173797D01*
X39642517Y-66224091D01*
X39642516Y-66224091D01*
X39649444Y-66224835D01*
X39702127Y-66230500D01*
X41497872Y-66230499D01*
X41557483Y-66224091D01*
X41692331Y-66173796D01*
X41807546Y-66087546D01*
X41893796Y-65972331D01*
X41944091Y-65837483D01*
X41950500Y-65777873D01*
X41950499Y-63982128D01*
X41944091Y-63922517D01*
X41931056Y-63887569D01*
X41893797Y-63787671D01*
X41893793Y-63787664D01*
X41807547Y-63672455D01*
X41807544Y-63672452D01*
X41692335Y-63586206D01*
X41692328Y-63586202D01*
X41560917Y-63537189D01*
X41504983Y-63495318D01*
X41480566Y-63429853D01*
X41495418Y-63361580D01*
X41516563Y-63333332D01*
X41638495Y-63211401D01*
X41741939Y-63063666D01*
X41796514Y-63020043D01*
X41866013Y-63012849D01*
X41928368Y-63044372D01*
X41958074Y-63087338D01*
X42016466Y-63228311D01*
X42016471Y-63228320D01*
X42125960Y-63392181D01*
X42125963Y-63392185D01*
X42265314Y-63531536D01*
X42265318Y-63531539D01*
X42429179Y-63641028D01*
X42429192Y-63641035D01*
X42505048Y-63672455D01*
X42611265Y-63716451D01*
X42725545Y-63739183D01*
X42787454Y-63771566D01*
X42789033Y-63773118D01*
X43197496Y-64181581D01*
X43197525Y-64181612D01*
X43312188Y-64296275D01*
X43312196Y-64296281D01*
X43411716Y-64362778D01*
X43411717Y-64362778D01*
X43443384Y-64383937D01*
X43589157Y-64444318D01*
X43589161Y-64444318D01*
X43589162Y-64444319D01*
X43743905Y-64475101D01*
X43743908Y-64475101D01*
X43907806Y-64475101D01*
X43907826Y-64475100D01*
X47377217Y-64475100D01*
X47444256Y-64494785D01*
X47490011Y-64547589D01*
X47499955Y-64616747D01*
X47470930Y-64680303D01*
X47464898Y-64686781D01*
X44071820Y-68079859D01*
X44071818Y-68079861D01*
X44002138Y-68149540D01*
X43932459Y-68219219D01*
X43822971Y-68383079D01*
X43822966Y-68383088D01*
X43776840Y-68494449D01*
X43747550Y-68565159D01*
X43747548Y-68565164D01*
X43746612Y-68569874D01*
X43709100Y-68758454D01*
X43709100Y-68758459D01*
X43709100Y-72774041D01*
X43709100Y-72774043D01*
X43709099Y-72774043D01*
X43747547Y-72967329D01*
X43747550Y-72967339D01*
X43822964Y-73149407D01*
X43822971Y-73149420D01*
X43932460Y-73313281D01*
X43932463Y-73313285D01*
X44071814Y-73452636D01*
X44071818Y-73452639D01*
X44235679Y-73562128D01*
X44235692Y-73562135D01*
X44380629Y-73622169D01*
X44417765Y-73637551D01*
X44483813Y-73650689D01*
X44561734Y-73666189D01*
X44623645Y-73698574D01*
X44658219Y-73759290D01*
X44659160Y-73811997D01*
X44638700Y-73914855D01*
X44638700Y-74111944D01*
X44677147Y-74305228D01*
X44677149Y-74305236D01*
X44752567Y-74487310D01*
X44752572Y-74487320D01*
X44862060Y-74651180D01*
X44862063Y-74651184D01*
X44967148Y-74756269D01*
X45000633Y-74817592D01*
X44995649Y-74887284D01*
X44967148Y-74931631D01*
X44095599Y-75803181D01*
X44034276Y-75836666D01*
X44007918Y-75839500D01*
X41260758Y-75839500D01*
X41193719Y-75819815D01*
X41173077Y-75803181D01*
X41171402Y-75801506D01*
X41171396Y-75801501D01*
X40985842Y-75671575D01*
X40942217Y-75616998D01*
X40935023Y-75547500D01*
X40966546Y-75485145D01*
X40985842Y-75468425D01*
X41058590Y-75417486D01*
X41171401Y-75338495D01*
X41338495Y-75171401D01*
X41474035Y-74977830D01*
X41573903Y-74763663D01*
X41635063Y-74535408D01*
X41655659Y-74300000D01*
X41635063Y-74064592D01*
X41573903Y-73836337D01*
X41474035Y-73622171D01*
X41431996Y-73562132D01*
X41338494Y-73428597D01*
X41171402Y-73261506D01*
X41171396Y-73261501D01*
X40985842Y-73131575D01*
X40942217Y-73076998D01*
X40935023Y-73007500D01*
X40966546Y-72945145D01*
X40985842Y-72928425D01*
X41008026Y-72912891D01*
X41171401Y-72798495D01*
X41338495Y-72631401D01*
X41474035Y-72437830D01*
X41573903Y-72223663D01*
X41635063Y-71995408D01*
X41655659Y-71760000D01*
X41635063Y-71524592D01*
X41573903Y-71296337D01*
X41474035Y-71082171D01*
X41359824Y-70919059D01*
X41338494Y-70888597D01*
X41171402Y-70721506D01*
X41171395Y-70721501D01*
X40977834Y-70585967D01*
X40977830Y-70585965D01*
X40919967Y-70558983D01*
X40763663Y-70486097D01*
X40763659Y-70486096D01*
X40763655Y-70486094D01*
X40535413Y-70424938D01*
X40535403Y-70424936D01*
X40300001Y-70404341D01*
X40299999Y-70404341D01*
X40064596Y-70424936D01*
X40064586Y-70424938D01*
X39836344Y-70486094D01*
X39836335Y-70486098D01*
X39622171Y-70585964D01*
X39622169Y-70585965D01*
X39428597Y-70721505D01*
X39261505Y-70888597D01*
X39125965Y-71082169D01*
X39125964Y-71082171D01*
X39026098Y-71296335D01*
X39026094Y-71296344D01*
X38964938Y-71524586D01*
X38964936Y-71524596D01*
X38944341Y-71759999D01*
X38944341Y-71760000D01*
X38964936Y-71995403D01*
X38964936Y-71995405D01*
X38964937Y-71995408D01*
X38971777Y-72020934D01*
X39026094Y-72223655D01*
X39026096Y-72223659D01*
X39026097Y-72223663D01*
X39125965Y-72437830D01*
X39125967Y-72437834D01*
X39261501Y-72631395D01*
X39261506Y-72631402D01*
X39428597Y-72798493D01*
X39428603Y-72798498D01*
X39614158Y-72928425D01*
X39657783Y-72983002D01*
X39664977Y-73052500D01*
X39633454Y-73114855D01*
X39614158Y-73131575D01*
X39428597Y-73261505D01*
X39261505Y-73428597D01*
X39125965Y-73622169D01*
X39125964Y-73622171D01*
X39026098Y-73836335D01*
X39026094Y-73836344D01*
X38964938Y-74064586D01*
X38964936Y-74064596D01*
X38953955Y-74190097D01*
X38928501Y-74255166D01*
X38918108Y-74266969D01*
X38351754Y-74833325D01*
X38169020Y-75016059D01*
X38169018Y-75016061D01*
X38118155Y-75066924D01*
X38029659Y-75155419D01*
X37920171Y-75319279D01*
X37920164Y-75319292D01*
X37882420Y-75410418D01*
X37871444Y-75436917D01*
X37851800Y-75484342D01*
X37851799Y-75484344D01*
X37844750Y-75501359D01*
X37844747Y-75501370D01*
X37806300Y-75694654D01*
X26300500Y-75694654D01*
X26300500Y-42019999D01*
X39244341Y-42019999D01*
X39244341Y-42020000D01*
X39264936Y-42255403D01*
X39264938Y-42255413D01*
X39326094Y-42483655D01*
X39326096Y-42483659D01*
X39326097Y-42483663D01*
X39402531Y-42647576D01*
X39425965Y-42697830D01*
X39425967Y-42697834D01*
X39561501Y-42891395D01*
X39561506Y-42891402D01*
X39728597Y-43058493D01*
X39728603Y-43058498D01*
X39914158Y-43188425D01*
X39957783Y-43243002D01*
X39964977Y-43312500D01*
X39933454Y-43374855D01*
X39914158Y-43391575D01*
X39728597Y-43521505D01*
X39561505Y-43688597D01*
X39425965Y-43882169D01*
X39425964Y-43882171D01*
X39326098Y-44096335D01*
X39326094Y-44096344D01*
X39264938Y-44324586D01*
X39264936Y-44324596D01*
X39244341Y-44559999D01*
X39244341Y-44560000D01*
X39264936Y-44795403D01*
X39264938Y-44795413D01*
X39326094Y-45023655D01*
X39326096Y-45023659D01*
X39326097Y-45023663D01*
X39387262Y-45154831D01*
X39425965Y-45237830D01*
X39425967Y-45237834D01*
X39561501Y-45431395D01*
X39561506Y-45431402D01*
X39728597Y-45598493D01*
X39728603Y-45598498D01*
X39914158Y-45728425D01*
X39957783Y-45783002D01*
X39964977Y-45852500D01*
X39933454Y-45914855D01*
X39914158Y-45931575D01*
X39728597Y-46061505D01*
X39561505Y-46228597D01*
X39425965Y-46422169D01*
X39425964Y-46422171D01*
X39326098Y-46636335D01*
X39326094Y-46636344D01*
X39264938Y-46864586D01*
X39264936Y-46864596D01*
X39244341Y-47099999D01*
X39244341Y-47100000D01*
X39264936Y-47335403D01*
X39264938Y-47335413D01*
X39326094Y-47563655D01*
X39326096Y-47563659D01*
X39326097Y-47563663D01*
X39368157Y-47653860D01*
X39425965Y-47777830D01*
X39425967Y-47777834D01*
X39477157Y-47850940D01*
X39561505Y-47971401D01*
X39728599Y-48138495D01*
X39825384Y-48206265D01*
X39922165Y-48274032D01*
X39922167Y-48274033D01*
X39922170Y-48274035D01*
X40136337Y-48373903D01*
X40364592Y-48435063D01*
X40552918Y-48451539D01*
X40599999Y-48455659D01*
X40600000Y-48455659D01*
X40600001Y-48455659D01*
X40639234Y-48452226D01*
X40835408Y-48435063D01*
X41063663Y-48373903D01*
X41277830Y-48274035D01*
X41471401Y-48138495D01*
X41638495Y-47971401D01*
X41774035Y-47777830D01*
X41873903Y-47563663D01*
X41935063Y-47335408D01*
X41955659Y-47100000D01*
X41935063Y-46864592D01*
X41873903Y-46636337D01*
X41774035Y-46422171D01*
X41638495Y-46228599D01*
X41638494Y-46228597D01*
X41471402Y-46061506D01*
X41471396Y-46061501D01*
X41285842Y-45931575D01*
X41242217Y-45876998D01*
X41235023Y-45807500D01*
X41266546Y-45745145D01*
X41285842Y-45728425D01*
X41384078Y-45659639D01*
X41471401Y-45598495D01*
X41473077Y-45596819D01*
X41473995Y-45596317D01*
X41475544Y-45595018D01*
X41475805Y-45595329D01*
X41534400Y-45563334D01*
X41560758Y-45560500D01*
X41984217Y-45560500D01*
X42051256Y-45580185D01*
X42071893Y-45596814D01*
X42134718Y-45659639D01*
X42134719Y-45659640D01*
X42298579Y-45769128D01*
X42298592Y-45769135D01*
X42427333Y-45822461D01*
X42470244Y-45840235D01*
X42480664Y-45844551D01*
X42577312Y-45863775D01*
X42625635Y-45873387D01*
X42673958Y-45883000D01*
X42673959Y-45883000D01*
X66686042Y-45883000D01*
X66705370Y-45879155D01*
X66782688Y-45863775D01*
X66879336Y-45844551D01*
X66932665Y-45822461D01*
X67061414Y-45769132D01*
X67225282Y-45659639D01*
X67364639Y-45520282D01*
X67364640Y-45520279D01*
X67371706Y-45513214D01*
X67371708Y-45513210D01*
X68526568Y-44358351D01*
X68587889Y-44324868D01*
X68657581Y-44329852D01*
X68713514Y-44371724D01*
X68723082Y-44386613D01*
X68726205Y-44392334D01*
X68812452Y-44507544D01*
X68812455Y-44507547D01*
X68927664Y-44593793D01*
X68927671Y-44593797D01*
X69062517Y-44644091D01*
X69062516Y-44644091D01*
X69069444Y-44644835D01*
X69122127Y-44650500D01*
X70917872Y-44650499D01*
X70977483Y-44644091D01*
X71112331Y-44593796D01*
X71227546Y-44507546D01*
X71313796Y-44392331D01*
X71362810Y-44260916D01*
X71404681Y-44204984D01*
X71470145Y-44180566D01*
X71538418Y-44195417D01*
X71566673Y-44216569D01*
X71688599Y-44338495D01*
X71777150Y-44400499D01*
X71882165Y-44474032D01*
X71882167Y-44474033D01*
X71882170Y-44474035D01*
X72096337Y-44573903D01*
X72324592Y-44635063D01*
X72501034Y-44650500D01*
X72559999Y-44655659D01*
X72560000Y-44655659D01*
X72560001Y-44655659D01*
X72618966Y-44650500D01*
X72795408Y-44635063D01*
X73023663Y-44573903D01*
X73237830Y-44474035D01*
X73431401Y-44338495D01*
X73598495Y-44171401D01*
X73728425Y-43985842D01*
X73783002Y-43942217D01*
X73852500Y-43935023D01*
X73914855Y-43966546D01*
X73931575Y-43985842D01*
X74061500Y-44171395D01*
X74061505Y-44171401D01*
X74228599Y-44338495D01*
X74317150Y-44400499D01*
X74422165Y-44474032D01*
X74422167Y-44474033D01*
X74422170Y-44474035D01*
X74636337Y-44573903D01*
X74864592Y-44635063D01*
X75041034Y-44650500D01*
X75099999Y-44655659D01*
X75100000Y-44655659D01*
X75100001Y-44655659D01*
X75158966Y-44650500D01*
X75335408Y-44635063D01*
X75563663Y-44573903D01*
X75777830Y-44474035D01*
X75971401Y-44338495D01*
X76138495Y-44171401D01*
X76274035Y-43977830D01*
X76373903Y-43763663D01*
X76435063Y-43535408D01*
X76455659Y-43300000D01*
X76435063Y-43064592D01*
X76373903Y-42836337D01*
X76274035Y-42622171D01*
X76268425Y-42614158D01*
X76138494Y-42428597D01*
X75971402Y-42261506D01*
X75971395Y-42261501D01*
X75962693Y-42255408D01*
X75932521Y-42234281D01*
X75777834Y-42125967D01*
X75777830Y-42125965D01*
X75777828Y-42125964D01*
X75563663Y-42026097D01*
X75563659Y-42026096D01*
X75563655Y-42026094D01*
X75335413Y-41964938D01*
X75335403Y-41964936D01*
X75100001Y-41944341D01*
X75099999Y-41944341D01*
X74864596Y-41964936D01*
X74864586Y-41964938D01*
X74636344Y-42026094D01*
X74636335Y-42026098D01*
X74422171Y-42125964D01*
X74422169Y-42125965D01*
X74228597Y-42261505D01*
X74061505Y-42428597D01*
X73931575Y-42614158D01*
X73876998Y-42657783D01*
X73807500Y-42664977D01*
X73745145Y-42633454D01*
X73728425Y-42614158D01*
X73598494Y-42428597D01*
X73596819Y-42426922D01*
X73596315Y-42426000D01*
X73595014Y-42424449D01*
X73595325Y-42424187D01*
X73563334Y-42365599D01*
X73560500Y-42339241D01*
X73560500Y-41351456D01*
X73522052Y-41158170D01*
X73522051Y-41158169D01*
X73522051Y-41158165D01*
X73500528Y-41106204D01*
X73446635Y-40976092D01*
X73446628Y-40976079D01*
X73337139Y-40812218D01*
X73337136Y-40812214D01*
X73197785Y-40672863D01*
X73197781Y-40672860D01*
X73033920Y-40563371D01*
X73033907Y-40563364D01*
X72851839Y-40487950D01*
X72851829Y-40487947D01*
X72658543Y-40449500D01*
X72658541Y-40449500D01*
X42921459Y-40449500D01*
X42921455Y-40449500D01*
X42824812Y-40468724D01*
X42728167Y-40487947D01*
X42728161Y-40487949D01*
X42674834Y-40510037D01*
X42674834Y-40510038D01*
X42631918Y-40527814D01*
X42546084Y-40563368D01*
X42546083Y-40563368D01*
X42423045Y-40645579D01*
X42423046Y-40645580D01*
X42382218Y-40672859D01*
X42382215Y-40672862D01*
X42071898Y-40983181D01*
X42010575Y-41016666D01*
X41984217Y-41019500D01*
X41560758Y-41019500D01*
X41493719Y-40999815D01*
X41473077Y-40983181D01*
X41471402Y-40981506D01*
X41471395Y-40981501D01*
X41277834Y-40845967D01*
X41277830Y-40845965D01*
X41277828Y-40845964D01*
X41063663Y-40746097D01*
X41063659Y-40746096D01*
X41063655Y-40746094D01*
X40835413Y-40684938D01*
X40835403Y-40684936D01*
X40600001Y-40664341D01*
X40599999Y-40664341D01*
X40364596Y-40684936D01*
X40364586Y-40684938D01*
X40136344Y-40746094D01*
X40136335Y-40746098D01*
X39922171Y-40845964D01*
X39922169Y-40845965D01*
X39728597Y-40981505D01*
X39561505Y-41148597D01*
X39425965Y-41342169D01*
X39425964Y-41342171D01*
X39326098Y-41556335D01*
X39326094Y-41556344D01*
X39264938Y-41784586D01*
X39264936Y-41784596D01*
X39244341Y-42019999D01*
X26300500Y-42019999D01*
X26300500Y-34724500D01*
X26320185Y-34657461D01*
X26372989Y-34611706D01*
X26424500Y-34600500D01*
X107075500Y-34600500D01*
X107142539Y-34620185D01*
G37*
%TD.AperFunction*%
%TD*%
M02*
