%TF.GenerationSoftware,KiCad,Pcbnew,8.0.6-8.0.6-0~ubuntu24.04.1*%
%TF.CreationDate,2024-10-17T13:49:59+02:00*%
%TF.ProjectId,K3NG-rotator-shield,4b334e47-2d72-46f7-9461-746f722d7368,rev?*%
%TF.SameCoordinates,Original*%
%TF.FileFunction,Copper,L2,Bot*%
%TF.FilePolarity,Positive*%
%FSLAX46Y46*%
G04 Gerber Fmt 4.6, Leading zero omitted, Abs format (unit mm)*
G04 Created by KiCad (PCBNEW 8.0.6-8.0.6-0~ubuntu24.04.1) date 2024-10-17 13:49:59*
%MOMM*%
%LPD*%
G01*
G04 APERTURE LIST*
%TA.AperFunction,ComponentPad*%
%ADD10C,7.500000*%
%TD*%
%TA.AperFunction,ComponentPad*%
%ADD11R,1.700000X1.700000*%
%TD*%
%TA.AperFunction,ComponentPad*%
%ADD12O,1.700000X1.700000*%
%TD*%
%TA.AperFunction,ComponentPad*%
%ADD13C,1.600000*%
%TD*%
%TA.AperFunction,HeatsinkPad*%
%ADD14C,0.500000*%
%TD*%
%TA.AperFunction,HeatsinkPad*%
%ADD15R,1.800000X2.500000*%
%TD*%
%TA.AperFunction,ComponentPad*%
%ADD16C,1.400000*%
%TD*%
%TA.AperFunction,ComponentPad*%
%ADD17O,1.400000X1.400000*%
%TD*%
%TA.AperFunction,ComponentPad*%
%ADD18R,2.000000X2.000000*%
%TD*%
%TA.AperFunction,ComponentPad*%
%ADD19C,2.000000*%
%TD*%
%TA.AperFunction,ViaPad*%
%ADD20C,0.600000*%
%TD*%
%TA.AperFunction,Conductor*%
%ADD21C,1.000000*%
%TD*%
%TA.AperFunction,Conductor*%
%ADD22C,2.000000*%
%TD*%
G04 APERTURE END LIST*
D10*
%TO.P,J15,1,Pin_1*%
%TO.N,GND*%
X102700000Y-79400000D03*
%TD*%
%TO.P,J14,1,Pin_1*%
%TO.N,GND*%
X102700000Y-40000000D03*
%TD*%
%TO.P,J13,1,Pin_1*%
%TO.N,GND*%
X102600000Y-60100000D03*
%TD*%
%TO.P,J12,1,Pin_1*%
%TO.N,GND*%
X102600000Y-98700000D03*
%TD*%
%TO.P,J10,1,Pin_1*%
%TO.N,GND*%
X30800000Y-39800000D03*
%TD*%
%TO.P,J5,1,Pin_1*%
%TO.N,GND*%
X30900000Y-98900000D03*
%TD*%
D11*
%TO.P,J8,1,Pin_1*%
%TO.N,unconnected-(J8-Pin_1-Pad1)*%
X50520000Y-94800000D03*
D12*
%TO.P,J8,2,Pin_2*%
%TO.N,GND*%
X53060000Y-94800000D03*
%TO.P,J8,3,Pin_3*%
X55600000Y-94800000D03*
%TO.P,J8,4,Pin_4*%
%TO.N,5V*%
X58140000Y-94800000D03*
%TO.P,J8,5,Pin_5*%
%TO.N,Vref*%
X60680000Y-94800000D03*
%TO.P,J8,6,Pin_6*%
%TO.N,unconnected-(J8-Pin_6-Pad6)*%
X63220000Y-94800000D03*
%TO.P,J8,7,Pin_7*%
%TO.N,unconnected-(J8-Pin_7-Pad7)*%
X65760000Y-94800000D03*
%TO.P,J8,8,Pin_8*%
%TO.N,unconnected-(J8-Pin_8-Pad8)*%
X68300000Y-94800000D03*
%TD*%
D13*
%TO.P,C1,1*%
%TO.N,/AzimuthV*%
X60300000Y-52200000D03*
%TO.P,C1,2*%
%TO.N,GND*%
X65300000Y-52200000D03*
%TD*%
%TO.P,C3,1*%
%TO.N,VM*%
X69000000Y-56500000D03*
%TO.P,C3,2*%
%TO.N,GND*%
X69000000Y-51500000D03*
%TD*%
D14*
%TO.P,U2,9,9*%
%TO.N,GND*%
X85500000Y-77010000D03*
X85500000Y-78010000D03*
X85500000Y-79010000D03*
D15*
X86150000Y-78010000D03*
D14*
X86800000Y-77010000D03*
X86800000Y-78010000D03*
X86800000Y-79010000D03*
%TD*%
D16*
%TO.P,R4,1*%
%TO.N,IPRO2*%
X72000000Y-60800000D03*
D17*
%TO.P,R4,2*%
%TO.N,GND*%
X72000000Y-65880000D03*
%TD*%
D11*
%TO.P,J6,1,Pin_1*%
%TO.N,GND*%
X49860000Y-66300000D03*
D12*
%TO.P,J6,2,Pin_2*%
X52400000Y-66300000D03*
%TO.P,J6,3,Pin_3*%
%TO.N,/Turn CW*%
X54940000Y-66300000D03*
%TO.P,J6,4,Pin_4*%
%TO.N,/Turn CCW*%
X57480000Y-66300000D03*
%TO.P,J6,5,Pin_5*%
%TO.N,/UP*%
X60020000Y-66300000D03*
%TO.P,J6,6,Pin_6*%
%TO.N,/DOWN*%
X62560000Y-66300000D03*
%TO.P,J6,7,Pin_7*%
%TO.N,Net-(J1-Pin_7)*%
X65100000Y-66300000D03*
%TD*%
D16*
%TO.P,R2,1*%
%TO.N,/AzimuthV*%
X51020000Y-56050000D03*
D17*
%TO.P,R2,2*%
%TO.N,Net-(J9-Pin_2)*%
X56100000Y-56050000D03*
%TD*%
D11*
%TO.P,J4,1,Pin_1*%
%TO.N,/SDA*%
X70020000Y-43300000D03*
D12*
%TO.P,J4,2,Pin_2*%
%TO.N,/SCL*%
X72560000Y-43300000D03*
%TO.P,J4,3,Pin_3*%
%TO.N,5V*%
X75100000Y-43300000D03*
%TO.P,J4,4,Pin_4*%
%TO.N,GND*%
X77640000Y-43300000D03*
%TD*%
D11*
%TO.P,J7,1,Pin_1*%
%TO.N,/ElevationV*%
X51340000Y-78600000D03*
D12*
%TO.P,J7,2,Pin_2*%
%TO.N,/AzimuthV*%
X53880000Y-78600000D03*
%TO.P,J7,3,Pin_3*%
%TO.N,unconnected-(J7-Pin_3-Pad3)*%
X56420000Y-78600000D03*
%TO.P,J7,4,Pin_4*%
%TO.N,unconnected-(J7-Pin_4-Pad4)*%
X58960000Y-78600000D03*
%TO.P,J7,5,Pin_5*%
%TO.N,Net-(J7-Pin_5)*%
X61500000Y-78600000D03*
%TO.P,J7,6,Pin_6*%
%TO.N,/ACD0*%
X64040000Y-78600000D03*
%TD*%
D11*
%TO.P,J11,1,Pin_1*%
%TO.N,RotateUP*%
X40600000Y-64880000D03*
D12*
%TO.P,J11,2,Pin_2*%
%TO.N,RotateCCW*%
X40600000Y-62340000D03*
%TO.P,J11,3,Pin_3*%
%TO.N,RotateCW*%
X40600000Y-59800000D03*
%TO.P,J11,4,Pin_4*%
%TO.N,unconnected-(J11-Pin_4-Pad4)*%
X40600000Y-57260000D03*
%TO.P,J11,5,Pin_5*%
%TO.N,unconnected-(J11-Pin_5-Pad5)*%
X40600000Y-54720000D03*
%TO.P,J11,6,Pin_6*%
%TO.N,unconnected-(J11-Pin_6-Pad6)*%
X40600000Y-52180000D03*
%TO.P,J11,7,Pin_7*%
%TO.N,GND*%
X40600000Y-49640000D03*
%TO.P,J11,8,Pin_8*%
%TO.N,unconnected-(J11-Pin_8-Pad8)*%
X40600000Y-47100000D03*
%TO.P,J11,9,Pin_9*%
%TO.N,/SDA*%
X40600000Y-44560000D03*
%TO.P,J11,10,Pin_10*%
%TO.N,/SCL*%
X40600000Y-42020000D03*
%TD*%
D11*
%TO.P,J1,1,Pin_1*%
%TO.N,unconnected-(J1-Pin_1-Pad1)*%
X40300000Y-89540000D03*
D12*
%TO.P,J1,2,Pin_2*%
%TO.N,unconnected-(J1-Pin_2-Pad2)*%
X40300000Y-87000000D03*
%TO.P,J1,3,Pin_3*%
%TO.N,/Turn CW*%
X40300000Y-84460000D03*
%TO.P,J1,4,Pin_4*%
%TO.N,/Turn CCW*%
X40300000Y-81920000D03*
%TO.P,J1,5,Pin_5*%
%TO.N,/UP*%
X40300000Y-79380000D03*
%TO.P,J1,6,Pin_6*%
%TO.N,/DOWN*%
X40300000Y-76840000D03*
%TO.P,J1,7,Pin_7*%
%TO.N,Net-(J1-Pin_7)*%
X40300000Y-74300000D03*
%TO.P,J1,8,Pin_8*%
%TO.N,RotateDown*%
X40300000Y-71760000D03*
%TD*%
D11*
%TO.P,J9,1,Pin_1*%
%TO.N,Net-(J9-Pin_1)*%
X50760000Y-43400000D03*
D12*
%TO.P,J9,2,Pin_2*%
%TO.N,Net-(J9-Pin_2)*%
X53300000Y-43400000D03*
%TO.P,J9,3,Pin_3*%
%TO.N,IPRO2*%
X55840000Y-43400000D03*
%TO.P,J9,4,Pin_4*%
%TO.N,IPRO1*%
X58380000Y-43400000D03*
%TO.P,J9,5,Pin_5*%
%TO.N,Net-(J7-Pin_5)*%
X60920000Y-43400000D03*
%TO.P,J9,6,Pin_6*%
%TO.N,/ACD0*%
X63460000Y-43400000D03*
%TD*%
D18*
%TO.P,C4,1*%
%TO.N,VM*%
X79700000Y-54000000D03*
D19*
%TO.P,C4,2*%
%TO.N,GND*%
X74700000Y-54000000D03*
%TD*%
D11*
%TO.P,J3,1,Pin_1*%
%TO.N,VM*%
X86625000Y-42400000D03*
D12*
%TO.P,J3,2,Pin_2*%
%TO.N,GND*%
X89165000Y-42400000D03*
%TD*%
D16*
%TO.P,R3,1*%
%TO.N,IPRO1*%
X72100000Y-73170000D03*
D17*
%TO.P,R3,2*%
%TO.N,GND*%
X72100000Y-68090000D03*
%TD*%
D16*
%TO.P,R1,1*%
%TO.N,/ElevationV*%
X51020000Y-52900000D03*
D17*
%TO.P,R1,2*%
%TO.N,Net-(J9-Pin_1)*%
X56100000Y-52900000D03*
%TD*%
D14*
%TO.P,U1,9,9*%
%TO.N,GND*%
X85625000Y-62000000D03*
X85625000Y-63000000D03*
X85625000Y-64000000D03*
D15*
X86275000Y-63000000D03*
D14*
X86925000Y-62000000D03*
X86925000Y-63000000D03*
X86925000Y-64000000D03*
%TD*%
D11*
%TO.P,J2,1,Pin_1*%
%TO.N,RotateCCW-OUT*%
X76560000Y-95000000D03*
D12*
%TO.P,J2,2,Pin_2*%
X79100000Y-95000000D03*
%TO.P,J2,3,Pin_3*%
%TO.N,RotateDown-OUT*%
X81640000Y-95000000D03*
%TO.P,J2,4,Pin_4*%
%TO.N,RotateUP-OUT*%
X84180000Y-95000000D03*
%TD*%
D13*
%TO.P,C2,1*%
%TO.N,/ElevationV*%
X60300000Y-56250000D03*
%TO.P,C2,2*%
%TO.N,GND*%
X65300000Y-56250000D03*
%TD*%
D20*
%TO.N,GND*%
X96300000Y-78200000D03*
X96200000Y-65800000D03*
X96300000Y-71000000D03*
X86100000Y-82700000D03*
X91400000Y-75600000D03*
X91500000Y-68600000D03*
X90800000Y-58200000D03*
X92000000Y-59500000D03*
X84700000Y-83000000D03*
X86100000Y-72900000D03*
X86100000Y-68500000D03*
X88800000Y-89100000D03*
X74900000Y-78600000D03*
X79100000Y-76300000D03*
X46000000Y-42900000D03*
X86200000Y-57800000D03*
X91400000Y-71600000D03*
X46600000Y-82800000D03*
X61800000Y-73500000D03*
X54400000Y-73500000D03*
X44100000Y-66500000D03*
X55900000Y-61400000D03*
X58400000Y-48700000D03*
%TO.N,Net-(J9-Pin_1)*%
X52652400Y-47258600D03*
%TO.N,/Turn CCW*%
X44709600Y-72675500D03*
%TO.N,/UP*%
X56488100Y-71017600D03*
%TO.N,/Turn CW*%
X45639200Y-74013400D03*
%TO.N,RotateCCW-OUT*%
X91334100Y-62394200D03*
X90758300Y-60997200D03*
%TO.N,VM*%
X86986400Y-80188200D03*
%TO.N,RotateCCW*%
X43361900Y-61115300D03*
%TO.N,RotateUP*%
X72103300Y-76048200D03*
%TO.N,RotateDown*%
X46550700Y-61608500D03*
X77392500Y-60736100D03*
X76632900Y-78506500D03*
%TO.N,Net-(J7-Pin_5)*%
X65170100Y-64712300D03*
%TD*%
D21*
%TO.N,RotateCCW-OUT*%
X76500000Y-95060000D02*
X76500000Y-97200000D01*
D22*
X76500000Y-97200000D02*
X77693543Y-98393543D01*
X77693543Y-98393543D02*
X87206457Y-98393543D01*
X87206457Y-98393543D02*
X93800000Y-91800000D01*
X93800000Y-91800000D02*
X93800000Y-64860100D01*
D21*
X76560000Y-95000000D02*
X76500000Y-95060000D01*
X90758300Y-60997200D02*
X89200000Y-62555500D01*
X79100000Y-93150000D02*
X79100000Y-95000000D01*
D22*
X89200000Y-62555500D02*
X89200000Y-83050000D01*
X89200000Y-83050000D02*
X79100000Y-93150000D01*
D21*
X93800000Y-64860100D02*
X91334100Y-62394200D01*
%TO.N,Net-(J9-Pin_2)*%
X56100000Y-56050000D02*
X56100000Y-54350000D01*
X53300000Y-43400000D02*
X53300000Y-45250000D01*
X53784100Y-45734100D02*
X53300000Y-45250000D01*
X53784100Y-52474300D02*
X53784100Y-45734100D01*
X55659800Y-54350000D02*
X53784100Y-52474300D01*
X56100000Y-54350000D02*
X55659800Y-54350000D01*
%TO.N,Net-(J9-Pin_1)*%
X50760000Y-45366200D02*
X52652400Y-47258600D01*
X50760000Y-43400000D02*
X50760000Y-45366200D01*
%TO.N,/ACD0*%
X63460000Y-43400000D02*
X63460000Y-45250000D01*
X64040000Y-78600000D02*
X64040000Y-76750000D01*
X66742000Y-48532000D02*
X63460000Y-45250000D01*
X66742000Y-74048000D02*
X66742000Y-48532000D01*
X64040000Y-76750000D02*
X66742000Y-74048000D01*
%TO.N,/Turn CCW*%
X44507500Y-77712500D02*
X40300000Y-81920000D01*
X44507500Y-72877600D02*
X44507500Y-77712500D01*
X44709600Y-72675500D02*
X44507500Y-72877600D01*
%TO.N,/UP*%
X59355700Y-68150000D02*
X56488100Y-71017600D01*
X60020000Y-68150000D02*
X59355700Y-68150000D01*
X60020000Y-66300000D02*
X60020000Y-68150000D01*
%TO.N,/Turn CW*%
X45639200Y-79120800D02*
X40300000Y-84460000D01*
X45639200Y-74013400D02*
X45639200Y-79120800D01*
%TO.N,VM*%
X85284800Y-80188200D02*
X86986400Y-80188200D01*
X79700000Y-74603400D02*
X85284800Y-80188200D01*
X79700000Y-54000000D02*
X79700000Y-74603400D01*
%TO.N,/ElevationV*%
X49200200Y-54719800D02*
X51020000Y-52900000D01*
X49200100Y-54719800D02*
X49200200Y-54719800D01*
X49200100Y-61253500D02*
X49200100Y-54719800D01*
X47238700Y-63214900D02*
X49200100Y-61253500D01*
X47238700Y-72648700D02*
X47238700Y-63214900D01*
X51340000Y-76750000D02*
X47238700Y-72648700D01*
X51340000Y-78600000D02*
X51340000Y-76750000D01*
%TO.N,/AzimuthV*%
X53880000Y-78600000D02*
X53880000Y-76750000D01*
X60300000Y-53802200D02*
X60300000Y-52200000D01*
X56711200Y-57391000D02*
X60300000Y-53802200D01*
X51020000Y-57391000D02*
X56711200Y-57391000D01*
X51020000Y-61728000D02*
X51020000Y-57391000D01*
X48378300Y-64369700D02*
X51020000Y-61728000D01*
X48378300Y-71248300D02*
X48378300Y-64369700D01*
X53880000Y-76750000D02*
X48378300Y-71248300D01*
X51020000Y-57391000D02*
X51020000Y-56050000D01*
%TO.N,RotateCCW*%
X42450000Y-62027200D02*
X43361900Y-61115300D01*
X42450000Y-62340000D02*
X42450000Y-62027200D01*
X40600000Y-62340000D02*
X42450000Y-62340000D01*
%TO.N,RotateUP*%
X57129800Y-91021700D02*
X72103300Y-76048200D01*
X39182400Y-91021700D02*
X57129800Y-91021700D01*
X38818300Y-90657600D02*
X39182400Y-91021700D01*
X38818300Y-68511700D02*
X38818300Y-90657600D01*
X40600000Y-66730000D02*
X38818300Y-68511700D01*
X40600000Y-64880000D02*
X40600000Y-66730000D01*
%TO.N,RotateDown*%
X42150000Y-66009200D02*
X46550700Y-61608500D01*
X42150000Y-68060000D02*
X42150000Y-66009200D01*
X40300000Y-69910000D02*
X42150000Y-68060000D01*
X77392500Y-77746900D02*
X76632900Y-78506500D01*
X77392500Y-60736100D02*
X77392500Y-77746900D01*
X40300000Y-71760000D02*
X40300000Y-69910000D01*
%TO.N,IPRO2*%
X72000000Y-48130300D02*
X72000000Y-60800000D01*
X64646200Y-40776500D02*
X72000000Y-48130300D01*
X58463500Y-40776500D02*
X64646200Y-40776500D01*
X55840000Y-43400000D02*
X58463500Y-40776500D01*
%TO.N,IPRO1*%
X70486400Y-71556400D02*
X72100000Y-73170000D01*
X70486400Y-48300600D02*
X70486400Y-71556400D01*
X64102100Y-41916300D02*
X70486400Y-48300600D01*
X59863700Y-41916300D02*
X64102100Y-41916300D01*
X58380000Y-43400000D02*
X59863700Y-41916300D01*
%TO.N,5V*%
X75147600Y-75942400D02*
X58140000Y-92950000D01*
X75147600Y-56744900D02*
X75147600Y-75942400D01*
X76346000Y-55546500D02*
X75147600Y-56744900D01*
X76346000Y-46396000D02*
X76346000Y-55546500D01*
X75100000Y-45150000D02*
X76346000Y-46396000D01*
X75100000Y-43300000D02*
X75100000Y-45150000D01*
X58140000Y-94800000D02*
X58140000Y-92950000D01*
%TO.N,Net-(J7-Pin_5)*%
X62210200Y-61752400D02*
X65170100Y-64712300D01*
X62210200Y-46540200D02*
X62210200Y-61752400D01*
X60920000Y-45250000D02*
X62210200Y-46540200D01*
X60920000Y-43400000D02*
X60920000Y-45250000D01*
%TD*%
%TA.AperFunction,Conductor*%
%TO.N,GND*%
G36*
X90905703Y-63381169D02*
G01*
X90912181Y-63387201D01*
X92263181Y-64738201D01*
X92296666Y-64799524D01*
X92299500Y-64825882D01*
X92299500Y-91127111D01*
X92279815Y-91194150D01*
X92263181Y-91214792D01*
X86621249Y-96856724D01*
X86559926Y-96890209D01*
X86533568Y-96893043D01*
X78366433Y-96893043D01*
X78299394Y-96873358D01*
X78278752Y-96856724D01*
X77784454Y-96362427D01*
X77750969Y-96301104D01*
X77755953Y-96231413D01*
X77772866Y-96200439D01*
X77853796Y-96092331D01*
X77902810Y-95960916D01*
X77944681Y-95904984D01*
X78010145Y-95880566D01*
X78078418Y-95895417D01*
X78106673Y-95916569D01*
X78228599Y-96038495D01*
X78305485Y-96092331D01*
X78422165Y-96174032D01*
X78422167Y-96174033D01*
X78422170Y-96174035D01*
X78636337Y-96273903D01*
X78636343Y-96273904D01*
X78636344Y-96273905D01*
X78691285Y-96288626D01*
X78864592Y-96335063D01*
X79052918Y-96351539D01*
X79099999Y-96355659D01*
X79100000Y-96355659D01*
X79100001Y-96355659D01*
X79139234Y-96352226D01*
X79335408Y-96335063D01*
X79563663Y-96273903D01*
X79777830Y-96174035D01*
X79971401Y-96038495D01*
X80138495Y-95871401D01*
X80268425Y-95685842D01*
X80323002Y-95642217D01*
X80392500Y-95635023D01*
X80454855Y-95666546D01*
X80471575Y-95685842D01*
X80601500Y-95871395D01*
X80601505Y-95871401D01*
X80768599Y-96038495D01*
X80845485Y-96092331D01*
X80962165Y-96174032D01*
X80962167Y-96174033D01*
X80962170Y-96174035D01*
X81176337Y-96273903D01*
X81176343Y-96273904D01*
X81176344Y-96273905D01*
X81231285Y-96288626D01*
X81404592Y-96335063D01*
X81592918Y-96351539D01*
X81639999Y-96355659D01*
X81640000Y-96355659D01*
X81640001Y-96355659D01*
X81679234Y-96352226D01*
X81875408Y-96335063D01*
X82103663Y-96273903D01*
X82317830Y-96174035D01*
X82511401Y-96038495D01*
X82678495Y-95871401D01*
X82808425Y-95685842D01*
X82863002Y-95642217D01*
X82932500Y-95635023D01*
X82994855Y-95666546D01*
X83011575Y-95685842D01*
X83141500Y-95871395D01*
X83141505Y-95871401D01*
X83308599Y-96038495D01*
X83385485Y-96092331D01*
X83502165Y-96174032D01*
X83502167Y-96174033D01*
X83502170Y-96174035D01*
X83716337Y-96273903D01*
X83716343Y-96273904D01*
X83716344Y-96273905D01*
X83771285Y-96288626D01*
X83944592Y-96335063D01*
X84132918Y-96351539D01*
X84179999Y-96355659D01*
X84180000Y-96355659D01*
X84180001Y-96355659D01*
X84219234Y-96352226D01*
X84415408Y-96335063D01*
X84643663Y-96273903D01*
X84857830Y-96174035D01*
X85051401Y-96038495D01*
X85218495Y-95871401D01*
X85354035Y-95677830D01*
X85453903Y-95463663D01*
X85515063Y-95235408D01*
X85535659Y-95000000D01*
X85515063Y-94764592D01*
X85453903Y-94536337D01*
X85354035Y-94322171D01*
X85348425Y-94314158D01*
X85218494Y-94128597D01*
X85051402Y-93961506D01*
X85051395Y-93961501D01*
X84857834Y-93825967D01*
X84857830Y-93825965D01*
X84857828Y-93825964D01*
X84643663Y-93726097D01*
X84643659Y-93726096D01*
X84643655Y-93726094D01*
X84415413Y-93664938D01*
X84415403Y-93664936D01*
X84180001Y-93644341D01*
X84179999Y-93644341D01*
X83944596Y-93664936D01*
X83944586Y-93664938D01*
X83716344Y-93726094D01*
X83716335Y-93726098D01*
X83502171Y-93825964D01*
X83502169Y-93825965D01*
X83308597Y-93961505D01*
X83141505Y-94128597D01*
X83011575Y-94314158D01*
X82956998Y-94357783D01*
X82887500Y-94364977D01*
X82825145Y-94333454D01*
X82808425Y-94314158D01*
X82678494Y-94128597D01*
X82511402Y-93961506D01*
X82511395Y-93961501D01*
X82317834Y-93825967D01*
X82317830Y-93825965D01*
X82317828Y-93825964D01*
X82103663Y-93726097D01*
X82103659Y-93726096D01*
X82103655Y-93726094D01*
X81875413Y-93664938D01*
X81875403Y-93664936D01*
X81640001Y-93644341D01*
X81639999Y-93644341D01*
X81404596Y-93664936D01*
X81404586Y-93664938D01*
X81176344Y-93726094D01*
X81176335Y-93726098D01*
X80962171Y-93825964D01*
X80962169Y-93825965D01*
X80768597Y-93961505D01*
X80601508Y-94128594D01*
X80471574Y-94314160D01*
X80416997Y-94357784D01*
X80347498Y-94364977D01*
X80285144Y-94333455D01*
X80268429Y-94314164D01*
X80241387Y-94275544D01*
X80219061Y-94209340D01*
X80236072Y-94141573D01*
X80255278Y-94116747D01*
X90344517Y-84027510D01*
X90483343Y-83836434D01*
X90590568Y-83625992D01*
X90663553Y-83401368D01*
X90700500Y-83168097D01*
X90700500Y-63474882D01*
X90720185Y-63407843D01*
X90772989Y-63362088D01*
X90842147Y-63352144D01*
X90905703Y-63381169D01*
G37*
%TD.AperFunction*%
%TA.AperFunction,Conductor*%
G36*
X73914855Y-43966546D02*
G01*
X73931575Y-43985842D01*
X74061501Y-44171396D01*
X74061506Y-44171402D01*
X74063181Y-44173077D01*
X74063682Y-44173995D01*
X74064982Y-44175544D01*
X74064670Y-44175805D01*
X74096666Y-44234400D01*
X74099500Y-44260758D01*
X74099500Y-45248541D01*
X74101816Y-45260186D01*
X74103303Y-45267658D01*
X74103303Y-45267660D01*
X74137948Y-45441834D01*
X74138126Y-45442262D01*
X74138156Y-45442335D01*
X74213364Y-45623907D01*
X74213371Y-45623920D01*
X74322860Y-45787781D01*
X74322863Y-45787785D01*
X74466537Y-45931459D01*
X74466559Y-45931479D01*
X75309181Y-46774101D01*
X75342666Y-46835424D01*
X75345500Y-46861782D01*
X75345500Y-55080717D01*
X75325815Y-55147756D01*
X75309181Y-55168398D01*
X74509820Y-55967759D01*
X74509818Y-55967761D01*
X74465079Y-56012500D01*
X74370459Y-56107119D01*
X74260971Y-56270979D01*
X74260964Y-56270992D01*
X74211464Y-56390500D01*
X74185699Y-56452703D01*
X74185631Y-56452867D01*
X74185549Y-56453061D01*
X74147100Y-56646356D01*
X74147100Y-75476617D01*
X74127415Y-75543656D01*
X74110781Y-75564298D01*
X73287431Y-76387647D01*
X73226108Y-76421132D01*
X73156416Y-76416148D01*
X73100483Y-76374276D01*
X73076066Y-76308812D01*
X73078132Y-76275777D01*
X73103800Y-76146740D01*
X73103800Y-75949660D01*
X73103800Y-75949657D01*
X73103799Y-75949655D01*
X73082755Y-75843859D01*
X73065351Y-75756364D01*
X73007623Y-75616998D01*
X72989932Y-75574287D01*
X72953267Y-75519414D01*
X72880440Y-75410419D01*
X72880438Y-75410417D01*
X72880436Y-75410414D01*
X72741085Y-75271063D01*
X72577212Y-75161567D01*
X72395136Y-75086149D01*
X72395128Y-75086147D01*
X72201843Y-75047700D01*
X72201840Y-75047700D01*
X72004760Y-75047700D01*
X72004757Y-75047700D01*
X71811471Y-75086147D01*
X71811463Y-75086149D01*
X71629387Y-75161567D01*
X71465514Y-75271063D01*
X71465513Y-75271064D01*
X56751699Y-89984881D01*
X56690376Y-90018366D01*
X56664018Y-90021200D01*
X41774500Y-90021200D01*
X41707461Y-90001515D01*
X41661706Y-89948711D01*
X41650500Y-89897200D01*
X41650499Y-88642129D01*
X41650498Y-88642123D01*
X41644091Y-88582516D01*
X41593797Y-88447671D01*
X41593793Y-88447664D01*
X41507547Y-88332455D01*
X41507544Y-88332452D01*
X41392335Y-88246206D01*
X41392328Y-88246202D01*
X41260917Y-88197189D01*
X41204983Y-88155318D01*
X41180566Y-88089853D01*
X41195418Y-88021580D01*
X41216563Y-87993332D01*
X41338495Y-87871401D01*
X41474035Y-87677830D01*
X41573903Y-87463663D01*
X41635063Y-87235408D01*
X41655659Y-87000000D01*
X41635063Y-86764592D01*
X41573903Y-86536337D01*
X41474035Y-86322171D01*
X41338495Y-86128599D01*
X41338494Y-86128597D01*
X41171402Y-85961506D01*
X41171396Y-85961501D01*
X40985842Y-85831575D01*
X40942217Y-85776998D01*
X40935023Y-85707500D01*
X40966546Y-85645145D01*
X40985842Y-85628425D01*
X41008026Y-85612891D01*
X41171401Y-85498495D01*
X41338495Y-85331401D01*
X41474035Y-85137830D01*
X41573903Y-84923663D01*
X41635063Y-84695408D01*
X41646043Y-84569900D01*
X41671495Y-84504833D01*
X41681882Y-84493036D01*
X46276978Y-79897941D01*
X46276982Y-79897939D01*
X46416339Y-79758582D01*
X46525832Y-79594714D01*
X46601251Y-79412635D01*
X46607219Y-79382635D01*
X46639700Y-79219340D01*
X46639700Y-79022260D01*
X46639700Y-73914859D01*
X46639700Y-73914856D01*
X46607652Y-73753743D01*
X46613879Y-73684151D01*
X46656742Y-73628974D01*
X46722632Y-73605729D01*
X46790629Y-73621797D01*
X46816950Y-73641870D01*
X50281646Y-77106566D01*
X50315131Y-77167889D01*
X50310147Y-77237581D01*
X50268275Y-77293514D01*
X50253390Y-77303080D01*
X50247665Y-77306205D01*
X50132455Y-77392452D01*
X50132452Y-77392455D01*
X50046206Y-77507664D01*
X50046202Y-77507671D01*
X49995908Y-77642517D01*
X49989501Y-77702116D01*
X49989500Y-77702135D01*
X49989500Y-79497870D01*
X49989501Y-79497876D01*
X49995908Y-79557483D01*
X50046202Y-79692328D01*
X50046206Y-79692335D01*
X50132452Y-79807544D01*
X50132455Y-79807547D01*
X50247664Y-79893793D01*
X50247671Y-79893797D01*
X50382517Y-79944091D01*
X50382516Y-79944091D01*
X50389444Y-79944835D01*
X50442127Y-79950500D01*
X52237872Y-79950499D01*
X52297483Y-79944091D01*
X52432331Y-79893796D01*
X52547546Y-79807546D01*
X52633796Y-79692331D01*
X52682810Y-79560916D01*
X52724681Y-79504984D01*
X52790145Y-79480566D01*
X52858418Y-79495417D01*
X52886673Y-79516569D01*
X53008599Y-79638495D01*
X53105384Y-79706265D01*
X53202165Y-79774032D01*
X53202167Y-79774033D01*
X53202170Y-79774035D01*
X53416337Y-79873903D01*
X53644592Y-79935063D01*
X53821034Y-79950500D01*
X53879999Y-79955659D01*
X53880000Y-79955659D01*
X53880001Y-79955659D01*
X53938966Y-79950500D01*
X54115408Y-79935063D01*
X54343663Y-79873903D01*
X54557830Y-79774035D01*
X54751401Y-79638495D01*
X54918495Y-79471401D01*
X55048425Y-79285842D01*
X55103002Y-79242217D01*
X55172500Y-79235023D01*
X55234855Y-79266546D01*
X55251575Y-79285842D01*
X55381500Y-79471395D01*
X55381505Y-79471401D01*
X55548599Y-79638495D01*
X55645384Y-79706265D01*
X55742165Y-79774032D01*
X55742167Y-79774033D01*
X55742170Y-79774035D01*
X55956337Y-79873903D01*
X56184592Y-79935063D01*
X56361034Y-79950500D01*
X56419999Y-79955659D01*
X56420000Y-79955659D01*
X56420001Y-79955659D01*
X56478966Y-79950500D01*
X56655408Y-79935063D01*
X56883663Y-79873903D01*
X57097830Y-79774035D01*
X57291401Y-79638495D01*
X57458495Y-79471401D01*
X57588425Y-79285842D01*
X57643002Y-79242217D01*
X57712500Y-79235023D01*
X57774855Y-79266546D01*
X57791575Y-79285842D01*
X57921500Y-79471395D01*
X57921505Y-79471401D01*
X58088599Y-79638495D01*
X58185384Y-79706265D01*
X58282165Y-79774032D01*
X58282167Y-79774033D01*
X58282170Y-79774035D01*
X58496337Y-79873903D01*
X58724592Y-79935063D01*
X58901034Y-79950500D01*
X58959999Y-79955659D01*
X58960000Y-79955659D01*
X58960001Y-79955659D01*
X59018966Y-79950500D01*
X59195408Y-79935063D01*
X59423663Y-79873903D01*
X59637830Y-79774035D01*
X59831401Y-79638495D01*
X59998495Y-79471401D01*
X60128425Y-79285842D01*
X60183002Y-79242217D01*
X60252500Y-79235023D01*
X60314855Y-79266546D01*
X60331575Y-79285842D01*
X60461500Y-79471395D01*
X60461505Y-79471401D01*
X60628599Y-79638495D01*
X60725384Y-79706265D01*
X60822165Y-79774032D01*
X60822167Y-79774033D01*
X60822170Y-79774035D01*
X61036337Y-79873903D01*
X61264592Y-79935063D01*
X61441034Y-79950500D01*
X61499999Y-79955659D01*
X61500000Y-79955659D01*
X61500001Y-79955659D01*
X61558966Y-79950500D01*
X61735408Y-79935063D01*
X61963663Y-79873903D01*
X62177830Y-79774035D01*
X62371401Y-79638495D01*
X62538495Y-79471401D01*
X62668425Y-79285842D01*
X62723002Y-79242217D01*
X62792500Y-79235023D01*
X62854855Y-79266546D01*
X62871575Y-79285842D01*
X63001500Y-79471395D01*
X63001505Y-79471401D01*
X63168599Y-79638495D01*
X63265384Y-79706265D01*
X63362165Y-79774032D01*
X63362167Y-79774033D01*
X63362170Y-79774035D01*
X63576337Y-79873903D01*
X63804592Y-79935063D01*
X63981034Y-79950500D01*
X64039999Y-79955659D01*
X64040000Y-79955659D01*
X64040001Y-79955659D01*
X64098966Y-79950500D01*
X64275408Y-79935063D01*
X64503663Y-79873903D01*
X64717830Y-79774035D01*
X64911401Y-79638495D01*
X65078495Y-79471401D01*
X65214035Y-79277830D01*
X65313903Y-79063663D01*
X65375063Y-78835408D01*
X65395659Y-78600000D01*
X65375063Y-78364592D01*
X65313903Y-78136337D01*
X65214035Y-77922171D01*
X65208425Y-77914158D01*
X65078494Y-77728597D01*
X65076819Y-77726922D01*
X65076315Y-77726000D01*
X65075014Y-77724449D01*
X65075325Y-77724187D01*
X65043334Y-77665599D01*
X65040500Y-77639241D01*
X65040500Y-77215781D01*
X65060185Y-77148742D01*
X65076814Y-77128105D01*
X67379778Y-74825141D01*
X67379782Y-74825139D01*
X67519139Y-74685782D01*
X67628632Y-74521914D01*
X67704051Y-74339835D01*
X67726834Y-74225299D01*
X67742500Y-74146543D01*
X67742500Y-57364735D01*
X67762185Y-57297696D01*
X67814989Y-57251941D01*
X67884147Y-57241997D01*
X67947703Y-57271022D01*
X67968074Y-57293611D01*
X67992972Y-57329169D01*
X67999955Y-57339142D01*
X68160858Y-57500045D01*
X68160861Y-57500047D01*
X68347266Y-57630568D01*
X68553504Y-57726739D01*
X68773308Y-57785635D01*
X68935230Y-57799801D01*
X68999998Y-57805468D01*
X69000000Y-57805468D01*
X69000002Y-57805468D01*
X69056673Y-57800509D01*
X69226692Y-57785635D01*
X69329808Y-57758005D01*
X69399656Y-57759668D01*
X69457519Y-57798830D01*
X69485023Y-57863059D01*
X69485900Y-57877780D01*
X69485900Y-71654944D01*
X69524347Y-71848228D01*
X69524349Y-71848236D01*
X69541703Y-71890132D01*
X69541703Y-71890133D01*
X69599764Y-72030307D01*
X69599771Y-72030320D01*
X69709260Y-72194181D01*
X69709263Y-72194185D01*
X69852937Y-72337859D01*
X69852959Y-72337879D01*
X70895401Y-73380321D01*
X70926986Y-73434067D01*
X70975770Y-73605525D01*
X70975775Y-73605538D01*
X71074938Y-73804683D01*
X71074943Y-73804691D01*
X71209020Y-73982238D01*
X71373437Y-74132123D01*
X71373439Y-74132125D01*
X71562595Y-74249245D01*
X71562596Y-74249245D01*
X71562599Y-74249247D01*
X71770060Y-74329618D01*
X71988757Y-74370500D01*
X71988759Y-74370500D01*
X72211241Y-74370500D01*
X72211243Y-74370500D01*
X72429940Y-74329618D01*
X72637401Y-74249247D01*
X72826562Y-74132124D01*
X72990981Y-73982236D01*
X73125058Y-73804689D01*
X73224229Y-73605528D01*
X73285115Y-73391536D01*
X73305643Y-73170000D01*
X73302082Y-73131575D01*
X73285115Y-72948464D01*
X73285114Y-72948462D01*
X73284170Y-72945145D01*
X73224229Y-72734472D01*
X73172906Y-72631402D01*
X73125061Y-72535316D01*
X73125056Y-72535308D01*
X72990979Y-72357761D01*
X72826562Y-72207876D01*
X72826560Y-72207874D01*
X72637404Y-72090754D01*
X72637398Y-72090751D01*
X72449862Y-72018100D01*
X72429940Y-72010382D01*
X72429936Y-72010381D01*
X72429931Y-72010380D01*
X72375883Y-72000276D01*
X72313603Y-71968608D01*
X72310989Y-71966069D01*
X71523219Y-71178299D01*
X71489734Y-71116976D01*
X71486900Y-71090618D01*
X71486900Y-62069678D01*
X71506585Y-62002639D01*
X71559389Y-61956884D01*
X71628547Y-61946940D01*
X71655683Y-61954048D01*
X71670060Y-61959618D01*
X71888757Y-62000500D01*
X71888759Y-62000500D01*
X72111241Y-62000500D01*
X72111243Y-62000500D01*
X72329940Y-61959618D01*
X72537401Y-61879247D01*
X72726562Y-61762124D01*
X72890981Y-61612236D01*
X73025058Y-61434689D01*
X73124229Y-61235528D01*
X73185115Y-61021536D01*
X73205643Y-60800000D01*
X73196874Y-60705371D01*
X73185115Y-60578464D01*
X73185114Y-60578462D01*
X73169413Y-60523279D01*
X73124229Y-60364472D01*
X73111127Y-60338160D01*
X73025055Y-60165305D01*
X73022038Y-60160432D01*
X73023187Y-60159720D01*
X73000853Y-60100583D01*
X73000500Y-60091229D01*
X73000500Y-48031758D01*
X73000499Y-48031757D01*
X72991524Y-47986632D01*
X72962052Y-47838465D01*
X72886632Y-47656386D01*
X72886631Y-47656385D01*
X72886628Y-47656379D01*
X72777140Y-47492519D01*
X72777137Y-47492515D01*
X70146801Y-44862180D01*
X70113316Y-44800857D01*
X70118300Y-44731165D01*
X70160172Y-44675232D01*
X70225636Y-44650815D01*
X70234482Y-44650499D01*
X70917871Y-44650499D01*
X70917872Y-44650499D01*
X70977483Y-44644091D01*
X71112331Y-44593796D01*
X71227546Y-44507546D01*
X71313796Y-44392331D01*
X71362810Y-44260916D01*
X71404681Y-44204984D01*
X71470145Y-44180566D01*
X71538418Y-44195417D01*
X71566673Y-44216569D01*
X71688599Y-44338495D01*
X71772403Y-44397175D01*
X71882165Y-44474032D01*
X71882167Y-44474033D01*
X71882170Y-44474035D01*
X72096337Y-44573903D01*
X72096343Y-44573904D01*
X72096344Y-44573905D01*
X72151285Y-44588626D01*
X72324592Y-44635063D01*
X72504634Y-44650815D01*
X72559999Y-44655659D01*
X72560000Y-44655659D01*
X72560001Y-44655659D01*
X72615366Y-44650815D01*
X72795408Y-44635063D01*
X73023663Y-44573903D01*
X73237830Y-44474035D01*
X73431401Y-44338495D01*
X73598495Y-44171401D01*
X73728425Y-43985842D01*
X73783002Y-43942217D01*
X73852500Y-43935023D01*
X73914855Y-43966546D01*
G37*
%TD.AperFunction*%
%TA.AperFunction,Conductor*%
G36*
X46157534Y-63519100D02*
G01*
X46213467Y-63560972D01*
X46237884Y-63626436D01*
X46238200Y-63635282D01*
X46238200Y-72747240D01*
X46242158Y-72767136D01*
X46242157Y-72767136D01*
X46242158Y-72767139D01*
X46276647Y-72940529D01*
X46276648Y-72940535D01*
X46276649Y-72940536D01*
X46287750Y-72967335D01*
X46289605Y-72971813D01*
X46297075Y-73041281D01*
X46265802Y-73103761D01*
X46205714Y-73139415D01*
X46135889Y-73136924D01*
X46116596Y-73128628D01*
X46113117Y-73126768D01*
X45931039Y-73051350D01*
X45931029Y-73051347D01*
X45787065Y-73022710D01*
X45725154Y-72990325D01*
X45690580Y-72929609D01*
X45689640Y-72876903D01*
X45710101Y-72774040D01*
X45710101Y-72576959D01*
X45710101Y-72576955D01*
X45675636Y-72403692D01*
X45671652Y-72383664D01*
X45612067Y-72239814D01*
X45596233Y-72201587D01*
X45596228Y-72201578D01*
X45486740Y-72037718D01*
X45486737Y-72037714D01*
X45347385Y-71898362D01*
X45347381Y-71898359D01*
X45183521Y-71788871D01*
X45183512Y-71788866D01*
X45001436Y-71713448D01*
X45001428Y-71713446D01*
X44808144Y-71674999D01*
X44808141Y-71674999D01*
X44611060Y-71674999D01*
X44611057Y-71674999D01*
X44417772Y-71713446D01*
X44417764Y-71713448D01*
X44235688Y-71788866D01*
X44235679Y-71788871D01*
X44071819Y-71898359D01*
X44071815Y-71898362D01*
X43730363Y-72239814D01*
X43730360Y-72239818D01*
X43620871Y-72403679D01*
X43620864Y-72403692D01*
X43567628Y-72532219D01*
X43549099Y-72576953D01*
X43549097Y-72576959D01*
X43545450Y-72585761D01*
X43545446Y-72585774D01*
X43507000Y-72779054D01*
X43507000Y-77246717D01*
X43487315Y-77313756D01*
X43470681Y-77334398D01*
X41792304Y-79012774D01*
X41730981Y-79046259D01*
X41661289Y-79041275D01*
X41605356Y-78999403D01*
X41584848Y-78957185D01*
X41573906Y-78916346D01*
X41573904Y-78916342D01*
X41573903Y-78916337D01*
X41474035Y-78702171D01*
X41406027Y-78605044D01*
X41338494Y-78508597D01*
X41171402Y-78341506D01*
X41171396Y-78341501D01*
X40985842Y-78211575D01*
X40942217Y-78156998D01*
X40935023Y-78087500D01*
X40966546Y-78025145D01*
X40985842Y-78008425D01*
X41120469Y-77914158D01*
X41171401Y-77878495D01*
X41338495Y-77711401D01*
X41474035Y-77517830D01*
X41573903Y-77303663D01*
X41635063Y-77075408D01*
X41655659Y-76840000D01*
X41635063Y-76604592D01*
X41584570Y-76416148D01*
X41573905Y-76376344D01*
X41573904Y-76376343D01*
X41573903Y-76376337D01*
X41474035Y-76162171D01*
X41463231Y-76146740D01*
X41338494Y-75968597D01*
X41171402Y-75801506D01*
X41171396Y-75801501D01*
X40985842Y-75671575D01*
X40942217Y-75616998D01*
X40935023Y-75547500D01*
X40966546Y-75485145D01*
X40985842Y-75468425D01*
X41068690Y-75410414D01*
X41171401Y-75338495D01*
X41338495Y-75171401D01*
X41474035Y-74977830D01*
X41573903Y-74763663D01*
X41635063Y-74535408D01*
X41655659Y-74300000D01*
X41635063Y-74064592D01*
X41573903Y-73836337D01*
X41474035Y-73622171D01*
X41473774Y-73621797D01*
X41338494Y-73428597D01*
X41171402Y-73261506D01*
X41171396Y-73261501D01*
X40985842Y-73131575D01*
X40942217Y-73076998D01*
X40935023Y-73007500D01*
X40966546Y-72945145D01*
X40985842Y-72928425D01*
X41059426Y-72876901D01*
X41171401Y-72798495D01*
X41338495Y-72631401D01*
X41474035Y-72437830D01*
X41573903Y-72223663D01*
X41635063Y-71995408D01*
X41655659Y-71760000D01*
X41635063Y-71524592D01*
X41573903Y-71296337D01*
X41474035Y-71082171D01*
X41359821Y-70919055D01*
X41338494Y-70888597D01*
X41336819Y-70886922D01*
X41336315Y-70886000D01*
X41335014Y-70884449D01*
X41335325Y-70884187D01*
X41303334Y-70825599D01*
X41300500Y-70799241D01*
X41300500Y-70375781D01*
X41320185Y-70308742D01*
X41336814Y-70288105D01*
X42787778Y-68837141D01*
X42787782Y-68837139D01*
X42927139Y-68697782D01*
X43036632Y-68533914D01*
X43112051Y-68351835D01*
X43150500Y-68158541D01*
X43150500Y-66474982D01*
X43170185Y-66407943D01*
X43186819Y-66387301D01*
X46026519Y-63547601D01*
X46087842Y-63514116D01*
X46157534Y-63519100D01*
G37*
%TD.AperFunction*%
%TA.AperFunction,Conductor*%
G36*
X58999228Y-56620404D02*
G01*
X59055161Y-56662276D01*
X59072412Y-56694166D01*
X59073257Y-56696487D01*
X59169431Y-56902732D01*
X59169432Y-56902734D01*
X59299954Y-57089141D01*
X59460858Y-57250045D01*
X59460861Y-57250047D01*
X59647266Y-57380568D01*
X59853504Y-57476739D01*
X60073308Y-57535635D01*
X60235230Y-57549801D01*
X60299998Y-57555468D01*
X60300000Y-57555468D01*
X60300002Y-57555468D01*
X60356673Y-57550509D01*
X60526692Y-57535635D01*
X60746496Y-57476739D01*
X60952734Y-57380568D01*
X61014578Y-57337264D01*
X61080783Y-57314938D01*
X61148550Y-57331948D01*
X61196363Y-57382896D01*
X61209700Y-57438840D01*
X61209700Y-61850941D01*
X61215330Y-61879247D01*
X61222049Y-61913021D01*
X61222049Y-61913023D01*
X61248147Y-62044233D01*
X61248149Y-62044236D01*
X61270238Y-62097565D01*
X61289092Y-62143083D01*
X61323566Y-62226311D01*
X61323571Y-62226320D01*
X61433059Y-62390180D01*
X61433060Y-62390181D01*
X61433061Y-62390182D01*
X61572418Y-62529539D01*
X61572419Y-62529539D01*
X61579486Y-62536606D01*
X61579485Y-62536606D01*
X61579488Y-62536608D01*
X64178811Y-65135932D01*
X64212295Y-65197253D01*
X64207311Y-65266945D01*
X64178811Y-65311292D01*
X64061503Y-65428600D01*
X63931575Y-65614158D01*
X63876998Y-65657783D01*
X63807500Y-65664977D01*
X63745145Y-65633454D01*
X63728425Y-65614158D01*
X63598494Y-65428597D01*
X63431402Y-65261506D01*
X63431395Y-65261501D01*
X63237834Y-65125967D01*
X63237830Y-65125965D01*
X63237828Y-65125964D01*
X63023663Y-65026097D01*
X63023659Y-65026096D01*
X63023655Y-65026094D01*
X62795413Y-64964938D01*
X62795403Y-64964936D01*
X62560001Y-64944341D01*
X62559999Y-64944341D01*
X62324596Y-64964936D01*
X62324586Y-64964938D01*
X62096344Y-65026094D01*
X62096335Y-65026098D01*
X61882171Y-65125964D01*
X61882169Y-65125965D01*
X61688597Y-65261505D01*
X61521505Y-65428597D01*
X61391575Y-65614158D01*
X61336998Y-65657783D01*
X61267500Y-65664977D01*
X61205145Y-65633454D01*
X61188425Y-65614158D01*
X61058494Y-65428597D01*
X60891402Y-65261506D01*
X60891395Y-65261501D01*
X60697834Y-65125967D01*
X60697830Y-65125965D01*
X60697828Y-65125964D01*
X60483663Y-65026097D01*
X60483659Y-65026096D01*
X60483655Y-65026094D01*
X60255413Y-64964938D01*
X60255403Y-64964936D01*
X60020001Y-64944341D01*
X60019999Y-64944341D01*
X59784596Y-64964936D01*
X59784586Y-64964938D01*
X59556344Y-65026094D01*
X59556335Y-65026098D01*
X59342171Y-65125964D01*
X59342169Y-65125965D01*
X59148597Y-65261505D01*
X58981505Y-65428597D01*
X58851575Y-65614158D01*
X58796998Y-65657783D01*
X58727500Y-65664977D01*
X58665145Y-65633454D01*
X58648425Y-65614158D01*
X58518494Y-65428597D01*
X58351402Y-65261506D01*
X58351395Y-65261501D01*
X58157834Y-65125967D01*
X58157830Y-65125965D01*
X58157828Y-65125964D01*
X57943663Y-65026097D01*
X57943659Y-65026096D01*
X57943655Y-65026094D01*
X57715413Y-64964938D01*
X57715403Y-64964936D01*
X57480001Y-64944341D01*
X57479999Y-64944341D01*
X57244596Y-64964936D01*
X57244586Y-64964938D01*
X57016344Y-65026094D01*
X57016335Y-65026098D01*
X56802171Y-65125964D01*
X56802169Y-65125965D01*
X56608597Y-65261505D01*
X56441505Y-65428597D01*
X56311575Y-65614158D01*
X56256998Y-65657783D01*
X56187500Y-65664977D01*
X56125145Y-65633454D01*
X56108425Y-65614158D01*
X55978494Y-65428597D01*
X55811402Y-65261506D01*
X55811395Y-65261501D01*
X55617834Y-65125967D01*
X55617830Y-65125965D01*
X55617828Y-65125964D01*
X55403663Y-65026097D01*
X55403659Y-65026096D01*
X55403655Y-65026094D01*
X55175413Y-64964938D01*
X55175403Y-64964936D01*
X54940001Y-64944341D01*
X54939999Y-64944341D01*
X54704596Y-64964936D01*
X54704586Y-64964938D01*
X54476344Y-65026094D01*
X54476335Y-65026098D01*
X54262171Y-65125964D01*
X54262169Y-65125965D01*
X54068597Y-65261505D01*
X53901505Y-65428597D01*
X53765965Y-65622169D01*
X53765964Y-65622171D01*
X53666098Y-65836335D01*
X53666094Y-65836344D01*
X53604938Y-66064586D01*
X53604936Y-66064596D01*
X53584341Y-66299999D01*
X53584341Y-66300000D01*
X53604936Y-66535403D01*
X53604938Y-66535413D01*
X53666094Y-66763655D01*
X53666096Y-66763659D01*
X53666097Y-66763663D01*
X53670000Y-66772032D01*
X53765965Y-66977830D01*
X53765967Y-66977834D01*
X53874281Y-67132521D01*
X53901505Y-67171401D01*
X54068599Y-67338495D01*
X54117676Y-67372859D01*
X54262165Y-67474032D01*
X54262167Y-67474033D01*
X54262170Y-67474035D01*
X54476337Y-67573903D01*
X54704592Y-67635063D01*
X54892918Y-67651539D01*
X54939999Y-67655659D01*
X54940000Y-67655659D01*
X54940001Y-67655659D01*
X54979234Y-67652226D01*
X55175408Y-67635063D01*
X55403663Y-67573903D01*
X55617830Y-67474035D01*
X55811401Y-67338495D01*
X55978495Y-67171401D01*
X56108425Y-66985842D01*
X56163002Y-66942217D01*
X56232500Y-66935023D01*
X56294855Y-66966546D01*
X56311575Y-66985842D01*
X56441500Y-67171395D01*
X56441505Y-67171401D01*
X56608599Y-67338495D01*
X56657676Y-67372859D01*
X56802165Y-67474032D01*
X56802167Y-67474033D01*
X56802170Y-67474035D01*
X57016337Y-67573903D01*
X57244592Y-67635063D01*
X57432918Y-67651539D01*
X57479999Y-67655659D01*
X57480000Y-67655659D01*
X57480001Y-67655659D01*
X57519234Y-67652226D01*
X57715408Y-67635063D01*
X57943663Y-67573903D01*
X58157830Y-67474035D01*
X58351401Y-67338495D01*
X58518495Y-67171401D01*
X58648425Y-66985842D01*
X58703002Y-66942217D01*
X58772500Y-66935023D01*
X58834855Y-66966546D01*
X58851575Y-66985842D01*
X58920991Y-67084979D01*
X58943318Y-67151185D01*
X58926308Y-67218952D01*
X58885576Y-67258075D01*
X58886851Y-67259983D01*
X58717919Y-67372859D01*
X58648240Y-67442538D01*
X58578561Y-67512218D01*
X55710963Y-70379815D01*
X55710960Y-70379819D01*
X55601472Y-70543679D01*
X55601467Y-70543689D01*
X55526049Y-70725763D01*
X55526047Y-70725771D01*
X55487600Y-70919055D01*
X55487600Y-71116144D01*
X55526047Y-71309428D01*
X55526049Y-71309436D01*
X55601467Y-71491510D01*
X55601472Y-71491520D01*
X55710960Y-71655380D01*
X55710963Y-71655384D01*
X55850315Y-71794736D01*
X55850319Y-71794739D01*
X56014179Y-71904227D01*
X56014183Y-71904229D01*
X56014186Y-71904231D01*
X56196264Y-71979651D01*
X56350749Y-72010380D01*
X56389555Y-72018099D01*
X56389558Y-72018100D01*
X56389560Y-72018100D01*
X56586642Y-72018100D01*
X56586643Y-72018099D01*
X56779936Y-71979651D01*
X56962014Y-71904231D01*
X57125881Y-71794739D01*
X59733801Y-69186819D01*
X59795124Y-69153334D01*
X59821482Y-69150500D01*
X60118543Y-69150500D01*
X60248582Y-69124632D01*
X60311835Y-69112051D01*
X60493914Y-69036632D01*
X60657782Y-68927139D01*
X60797139Y-68787782D01*
X60906632Y-68623914D01*
X60982051Y-68441835D01*
X61020500Y-68248541D01*
X61020500Y-67260758D01*
X61040185Y-67193719D01*
X61056819Y-67173077D01*
X61058495Y-67171401D01*
X61188425Y-66985842D01*
X61243002Y-66942217D01*
X61312500Y-66935023D01*
X61374855Y-66966546D01*
X61391575Y-66985842D01*
X61521500Y-67171395D01*
X61521505Y-67171401D01*
X61688599Y-67338495D01*
X61737676Y-67372859D01*
X61882165Y-67474032D01*
X61882167Y-67474033D01*
X61882170Y-67474035D01*
X62096337Y-67573903D01*
X62324592Y-67635063D01*
X62512918Y-67651539D01*
X62559999Y-67655659D01*
X62560000Y-67655659D01*
X62560001Y-67655659D01*
X62599234Y-67652226D01*
X62795408Y-67635063D01*
X63023663Y-67573903D01*
X63237830Y-67474035D01*
X63431401Y-67338495D01*
X63598495Y-67171401D01*
X63728425Y-66985842D01*
X63783002Y-66942217D01*
X63852500Y-66935023D01*
X63914855Y-66966546D01*
X63931575Y-66985842D01*
X64061500Y-67171395D01*
X64061505Y-67171401D01*
X64228599Y-67338495D01*
X64277676Y-67372859D01*
X64422165Y-67474032D01*
X64422167Y-67474033D01*
X64422170Y-67474035D01*
X64636337Y-67573903D01*
X64864592Y-67635063D01*
X65052918Y-67651539D01*
X65099999Y-67655659D01*
X65100000Y-67655659D01*
X65100001Y-67655659D01*
X65139234Y-67652226D01*
X65335408Y-67635063D01*
X65563663Y-67573903D01*
X65565096Y-67573234D01*
X65565785Y-67573129D01*
X65568744Y-67572053D01*
X65568960Y-67572647D01*
X65634172Y-67562743D01*
X65697956Y-67591262D01*
X65736196Y-67649738D01*
X65741500Y-67685617D01*
X65741500Y-73582217D01*
X65721815Y-73649256D01*
X65705181Y-73669898D01*
X64549940Y-74825139D01*
X63402221Y-75972858D01*
X63402218Y-75972861D01*
X63334139Y-76040940D01*
X63262859Y-76112219D01*
X63153371Y-76276079D01*
X63153364Y-76276092D01*
X63077950Y-76458160D01*
X63077947Y-76458170D01*
X63039500Y-76651456D01*
X63039500Y-77639241D01*
X63019815Y-77706280D01*
X63003181Y-77726922D01*
X63001505Y-77728597D01*
X62871575Y-77914158D01*
X62816998Y-77957783D01*
X62747500Y-77964977D01*
X62685145Y-77933454D01*
X62668425Y-77914158D01*
X62538494Y-77728597D01*
X62371402Y-77561506D01*
X62371395Y-77561501D01*
X62177834Y-77425967D01*
X62177830Y-77425965D01*
X62177828Y-77425964D01*
X61963663Y-77326097D01*
X61963659Y-77326096D01*
X61963655Y-77326094D01*
X61735413Y-77264938D01*
X61735403Y-77264936D01*
X61500001Y-77244341D01*
X61499999Y-77244341D01*
X61264596Y-77264936D01*
X61264586Y-77264938D01*
X61036344Y-77326094D01*
X61036335Y-77326098D01*
X60822171Y-77425964D01*
X60822169Y-77425965D01*
X60628597Y-77561505D01*
X60461505Y-77728597D01*
X60331575Y-77914158D01*
X60276998Y-77957783D01*
X60207500Y-77964977D01*
X60145145Y-77933454D01*
X60128425Y-77914158D01*
X59998494Y-77728597D01*
X59831402Y-77561506D01*
X59831395Y-77561501D01*
X59637834Y-77425967D01*
X59637830Y-77425965D01*
X59637828Y-77425964D01*
X59423663Y-77326097D01*
X59423659Y-77326096D01*
X59423655Y-77326094D01*
X59195413Y-77264938D01*
X59195403Y-77264936D01*
X58960001Y-77244341D01*
X58959999Y-77244341D01*
X58724596Y-77264936D01*
X58724586Y-77264938D01*
X58496344Y-77326094D01*
X58496335Y-77326098D01*
X58282171Y-77425964D01*
X58282169Y-77425965D01*
X58088597Y-77561505D01*
X57921505Y-77728597D01*
X57791575Y-77914158D01*
X57736998Y-77957783D01*
X57667500Y-77964977D01*
X57605145Y-77933454D01*
X57588425Y-77914158D01*
X57458494Y-77728597D01*
X57291402Y-77561506D01*
X57291395Y-77561501D01*
X57097834Y-77425967D01*
X57097830Y-77425965D01*
X57097828Y-77425964D01*
X56883663Y-77326097D01*
X56883659Y-77326096D01*
X56883655Y-77326094D01*
X56655413Y-77264938D01*
X56655403Y-77264936D01*
X56420001Y-77244341D01*
X56419999Y-77244341D01*
X56184596Y-77264936D01*
X56184586Y-77264938D01*
X55956344Y-77326094D01*
X55956335Y-77326098D01*
X55742171Y-77425964D01*
X55742169Y-77425965D01*
X55548597Y-77561505D01*
X55381505Y-77728597D01*
X55251575Y-77914158D01*
X55196998Y-77957783D01*
X55127500Y-77964977D01*
X55065145Y-77933454D01*
X55048425Y-77914158D01*
X54918494Y-77728597D01*
X54916819Y-77726922D01*
X54916315Y-77726000D01*
X54915014Y-77724449D01*
X54915325Y-77724187D01*
X54883334Y-77665599D01*
X54880500Y-77639241D01*
X54880500Y-76651456D01*
X54842052Y-76458170D01*
X54842051Y-76458169D01*
X54842051Y-76458165D01*
X54826712Y-76421132D01*
X54766635Y-76276092D01*
X54766628Y-76276079D01*
X54657140Y-76112219D01*
X54594501Y-76049580D01*
X54517782Y-75972861D01*
X54517781Y-75972860D01*
X49415119Y-70870198D01*
X49381634Y-70808875D01*
X49378800Y-70782517D01*
X49378800Y-64835481D01*
X49398485Y-64768442D01*
X49415114Y-64747805D01*
X51657778Y-62505141D01*
X51657782Y-62505139D01*
X51797139Y-62365782D01*
X51906632Y-62201914D01*
X51946946Y-62104586D01*
X51959961Y-62073166D01*
X51959961Y-62073165D01*
X51961405Y-62069678D01*
X51982051Y-62019836D01*
X52012634Y-61866086D01*
X52020500Y-61826541D01*
X52020500Y-58515500D01*
X52040185Y-58448461D01*
X52092989Y-58402706D01*
X52144500Y-58391500D01*
X56809742Y-58391500D01*
X56829070Y-58387655D01*
X56906388Y-58372275D01*
X57003036Y-58353051D01*
X57056365Y-58330961D01*
X57185114Y-58277632D01*
X57348982Y-58168139D01*
X57488339Y-58028782D01*
X57488339Y-58028780D01*
X57498547Y-58018573D01*
X57498549Y-58018570D01*
X58868215Y-56648903D01*
X58929536Y-56615420D01*
X58999228Y-56620404D01*
G37*
%TD.AperFunction*%
%TA.AperFunction,Conductor*%
G36*
X63415903Y-46621269D02*
G01*
X63422381Y-46627301D01*
X65705181Y-48910101D01*
X65738666Y-48971424D01*
X65741500Y-48997782D01*
X65741500Y-63569417D01*
X65721815Y-63636456D01*
X65669011Y-63682211D01*
X65599853Y-63692155D01*
X65536297Y-63663130D01*
X65529819Y-63657098D01*
X63247019Y-61374298D01*
X63213534Y-61312975D01*
X63210700Y-61286617D01*
X63210700Y-46714982D01*
X63230385Y-46647943D01*
X63283189Y-46602188D01*
X63352347Y-46592244D01*
X63415903Y-46621269D01*
G37*
%TD.AperFunction*%
%TA.AperFunction,Conductor*%
G36*
X64815778Y-44046154D02*
G01*
X64826879Y-44056000D01*
X69449581Y-48678701D01*
X69483066Y-48740024D01*
X69485900Y-48766382D01*
X69485900Y-55122219D01*
X69466215Y-55189258D01*
X69413411Y-55235013D01*
X69344253Y-55244957D01*
X69329807Y-55241994D01*
X69226697Y-55214366D01*
X69226693Y-55214365D01*
X69226692Y-55214365D01*
X69226691Y-55214364D01*
X69226686Y-55214364D01*
X69000002Y-55194532D01*
X68999998Y-55194532D01*
X68773313Y-55214364D01*
X68773302Y-55214366D01*
X68553511Y-55273258D01*
X68553502Y-55273261D01*
X68347267Y-55369431D01*
X68347265Y-55369432D01*
X68160858Y-55499954D01*
X67999953Y-55660859D01*
X67968075Y-55706387D01*
X67913498Y-55750012D01*
X67844000Y-55757206D01*
X67781645Y-55725683D01*
X67746231Y-55665453D01*
X67742500Y-55635264D01*
X67742500Y-48433456D01*
X67722236Y-48331589D01*
X67710788Y-48274035D01*
X67710787Y-48274032D01*
X67704052Y-48240169D01*
X67704051Y-48240168D01*
X67704051Y-48240164D01*
X67646200Y-48100500D01*
X67628632Y-48058086D01*
X67570707Y-47971395D01*
X67519139Y-47894217D01*
X67376686Y-47751764D01*
X67376655Y-47751735D01*
X64496819Y-44871899D01*
X64463334Y-44810576D01*
X64460500Y-44784218D01*
X64460500Y-44360758D01*
X64480185Y-44293719D01*
X64496819Y-44273077D01*
X64498495Y-44271401D01*
X64634035Y-44077830D01*
X64637140Y-44073396D01*
X64639092Y-44074763D01*
X64682297Y-44033507D01*
X64750894Y-44020234D01*
X64815778Y-44046154D01*
G37*
%TD.AperFunction*%
%TA.AperFunction,Conductor*%
G36*
X59734855Y-44066546D02*
G01*
X59751575Y-44085842D01*
X59881501Y-44271396D01*
X59881506Y-44271402D01*
X59883181Y-44273077D01*
X59883682Y-44273995D01*
X59884982Y-44275544D01*
X59884670Y-44275805D01*
X59916666Y-44334400D01*
X59919500Y-44360758D01*
X59919500Y-45348541D01*
X59919500Y-45348543D01*
X59919499Y-45348543D01*
X59957947Y-45541829D01*
X59957950Y-45541839D01*
X60033364Y-45723907D01*
X60033371Y-45723920D01*
X60142859Y-45887780D01*
X60142860Y-45887781D01*
X60142861Y-45887782D01*
X60282218Y-46027139D01*
X60282219Y-46027139D01*
X60289286Y-46034206D01*
X60289285Y-46034206D01*
X60289289Y-46034209D01*
X61173381Y-46918301D01*
X61206866Y-46979624D01*
X61209700Y-47005982D01*
X61209700Y-51011159D01*
X61190015Y-51078198D01*
X61137211Y-51123953D01*
X61068053Y-51133897D01*
X61014578Y-51112735D01*
X60965253Y-51078198D01*
X60952734Y-51069432D01*
X60952732Y-51069431D01*
X60746497Y-50973261D01*
X60746488Y-50973258D01*
X60526697Y-50914366D01*
X60526693Y-50914365D01*
X60526692Y-50914365D01*
X60526691Y-50914364D01*
X60526686Y-50914364D01*
X60300002Y-50894532D01*
X60299998Y-50894532D01*
X60073313Y-50914364D01*
X60073302Y-50914366D01*
X59853511Y-50973258D01*
X59853502Y-50973261D01*
X59647267Y-51069431D01*
X59647265Y-51069432D01*
X59460858Y-51199954D01*
X59299954Y-51360858D01*
X59169432Y-51547265D01*
X59169431Y-51547267D01*
X59073261Y-51753502D01*
X59073258Y-51753511D01*
X59014366Y-51973302D01*
X59014364Y-51973313D01*
X58994532Y-52199998D01*
X58994532Y-52200001D01*
X59014364Y-52426686D01*
X59014366Y-52426697D01*
X59073258Y-52646488D01*
X59073261Y-52646496D01*
X59169432Y-52852734D01*
X59239024Y-52952123D01*
X59277075Y-53006465D01*
X59299402Y-53072671D01*
X59299500Y-53077588D01*
X59299500Y-53336416D01*
X59279815Y-53403455D01*
X59263181Y-53424097D01*
X57312181Y-55375097D01*
X57250858Y-55408582D01*
X57181166Y-55403598D01*
X57125233Y-55361726D01*
X57100816Y-55296262D01*
X57100500Y-55287416D01*
X57100500Y-54251456D01*
X57062052Y-54058170D01*
X57062051Y-54058169D01*
X57062051Y-54058165D01*
X57029363Y-53979248D01*
X56986635Y-53876092D01*
X56986630Y-53876083D01*
X56979219Y-53864992D01*
X56958340Y-53798315D01*
X56976823Y-53730935D01*
X56990704Y-53712538D01*
X56990963Y-53712252D01*
X56990981Y-53712236D01*
X57125058Y-53534689D01*
X57224229Y-53335528D01*
X57285115Y-53121536D01*
X57305643Y-52900000D01*
X57301735Y-52857830D01*
X57285115Y-52678464D01*
X57285114Y-52678462D01*
X57276019Y-52646497D01*
X57224229Y-52464472D01*
X57224224Y-52464461D01*
X57125061Y-52265316D01*
X57125056Y-52265308D01*
X56990979Y-52087761D01*
X56826562Y-51937876D01*
X56826560Y-51937874D01*
X56637404Y-51820754D01*
X56637398Y-51820752D01*
X56429940Y-51740382D01*
X56211243Y-51699500D01*
X55988757Y-51699500D01*
X55770060Y-51740382D01*
X55638864Y-51791207D01*
X55562601Y-51820752D01*
X55562595Y-51820754D01*
X55373439Y-51937874D01*
X55373437Y-51937876D01*
X55209019Y-52087762D01*
X55124281Y-52199973D01*
X55068172Y-52241608D01*
X54998460Y-52246299D01*
X54937647Y-52212926D01*
X54820919Y-52096198D01*
X54787434Y-52034875D01*
X54784600Y-52008517D01*
X54784600Y-45635556D01*
X54750622Y-45464743D01*
X54746151Y-45442265D01*
X54746005Y-45441914D01*
X54745996Y-45441827D01*
X54745974Y-45441837D01*
X54724061Y-45388934D01*
X54670735Y-45260192D01*
X54670728Y-45260179D01*
X54561239Y-45096318D01*
X54561236Y-45096314D01*
X54418786Y-44953864D01*
X54418755Y-44953835D01*
X54336819Y-44871899D01*
X54303334Y-44810576D01*
X54300500Y-44784218D01*
X54300500Y-44360758D01*
X54320185Y-44293719D01*
X54336819Y-44273077D01*
X54338495Y-44271401D01*
X54468425Y-44085842D01*
X54523002Y-44042217D01*
X54592500Y-44035023D01*
X54654855Y-44066546D01*
X54671575Y-44085842D01*
X54801500Y-44271395D01*
X54801505Y-44271401D01*
X54968599Y-44438495D01*
X55065384Y-44506265D01*
X55162165Y-44574032D01*
X55162167Y-44574033D01*
X55162170Y-44574035D01*
X55376337Y-44673903D01*
X55376343Y-44673904D01*
X55376344Y-44673905D01*
X55431285Y-44688626D01*
X55604592Y-44735063D01*
X55792918Y-44751539D01*
X55839999Y-44755659D01*
X55840000Y-44755659D01*
X55840001Y-44755659D01*
X55879234Y-44752226D01*
X56075408Y-44735063D01*
X56303663Y-44673903D01*
X56517830Y-44574035D01*
X56711401Y-44438495D01*
X56878495Y-44271401D01*
X57008425Y-44085842D01*
X57063002Y-44042217D01*
X57132500Y-44035023D01*
X57194855Y-44066546D01*
X57211575Y-44085842D01*
X57341500Y-44271395D01*
X57341505Y-44271401D01*
X57508599Y-44438495D01*
X57605384Y-44506265D01*
X57702165Y-44574032D01*
X57702167Y-44574033D01*
X57702170Y-44574035D01*
X57916337Y-44673903D01*
X57916343Y-44673904D01*
X57916344Y-44673905D01*
X57971285Y-44688626D01*
X58144592Y-44735063D01*
X58332918Y-44751539D01*
X58379999Y-44755659D01*
X58380000Y-44755659D01*
X58380001Y-44755659D01*
X58419234Y-44752226D01*
X58615408Y-44735063D01*
X58843663Y-44673903D01*
X59057830Y-44574035D01*
X59251401Y-44438495D01*
X59418495Y-44271401D01*
X59548425Y-44085842D01*
X59603002Y-44042217D01*
X59672500Y-44035023D01*
X59734855Y-44066546D01*
G37*
%TD.AperFunction*%
%TA.AperFunction,Conductor*%
G36*
X107142539Y-34620185D02*
G01*
X107188294Y-34672989D01*
X107199500Y-34724500D01*
X107199500Y-103575500D01*
X107179815Y-103642539D01*
X107127011Y-103688294D01*
X107075500Y-103699500D01*
X26424500Y-103699500D01*
X26357461Y-103679815D01*
X26311706Y-103627011D01*
X26300500Y-103575500D01*
X26300500Y-97081902D01*
X74999500Y-97081902D01*
X74999500Y-97318097D01*
X75036446Y-97551368D01*
X75109433Y-97775996D01*
X75216657Y-97986434D01*
X75355484Y-98177511D01*
X75355485Y-98177512D01*
X76716034Y-99538062D01*
X76716039Y-99538066D01*
X76882698Y-99659149D01*
X76907110Y-99676886D01*
X77041202Y-99745209D01*
X77117546Y-99784109D01*
X77117548Y-99784109D01*
X77117551Y-99784111D01*
X77237955Y-99823232D01*
X77342174Y-99857096D01*
X77575446Y-99894043D01*
X77575451Y-99894043D01*
X87324554Y-99894043D01*
X87557825Y-99857096D01*
X87782449Y-99784111D01*
X87992891Y-99676886D01*
X88183967Y-99538060D01*
X94944517Y-92777510D01*
X95083343Y-92586434D01*
X95190568Y-92375992D01*
X95263553Y-92151368D01*
X95269865Y-92111513D01*
X95300500Y-91918097D01*
X95300500Y-64742002D01*
X95263553Y-64508731D01*
X95190566Y-64284103D01*
X95083342Y-64073666D01*
X94944517Y-63882590D01*
X94777510Y-63715583D01*
X94586433Y-63576757D01*
X94375996Y-63469533D01*
X94151368Y-63396546D01*
X93918097Y-63359600D01*
X93918092Y-63359600D01*
X93765782Y-63359600D01*
X93698743Y-63339915D01*
X93678101Y-63323281D01*
X91971884Y-61617063D01*
X91971880Y-61617060D01*
X91808020Y-61507572D01*
X91808010Y-61507567D01*
X91770486Y-61492024D01*
X91716083Y-61448183D01*
X91694018Y-61381888D01*
X91703379Y-61330009D01*
X91714492Y-61303181D01*
X91720351Y-61289036D01*
X91758800Y-61095740D01*
X91758800Y-60898660D01*
X91758800Y-60898657D01*
X91758799Y-60898655D01*
X91750067Y-60854756D01*
X91720351Y-60705364D01*
X91644931Y-60523286D01*
X91644929Y-60523283D01*
X91644927Y-60523279D01*
X91535439Y-60359419D01*
X91535436Y-60359415D01*
X91396084Y-60220063D01*
X91396080Y-60220060D01*
X91232220Y-60110572D01*
X91232210Y-60110567D01*
X91050136Y-60035149D01*
X91050128Y-60035147D01*
X90856843Y-59996700D01*
X90856840Y-59996700D01*
X90659760Y-59996700D01*
X90659757Y-59996700D01*
X90466471Y-60035147D01*
X90466463Y-60035149D01*
X90284389Y-60110567D01*
X90284379Y-60110572D01*
X90120519Y-60220060D01*
X90120515Y-60220063D01*
X89321899Y-61018681D01*
X89260576Y-61052166D01*
X89234218Y-61055000D01*
X89081903Y-61055000D01*
X88848631Y-61091946D01*
X88624003Y-61164933D01*
X88413566Y-61272157D01*
X88304550Y-61351362D01*
X88222490Y-61410983D01*
X88222488Y-61410985D01*
X88222487Y-61410985D01*
X88055485Y-61577987D01*
X88055485Y-61577988D01*
X88055483Y-61577990D01*
X88027097Y-61617060D01*
X87916657Y-61769066D01*
X87809433Y-61979503D01*
X87736446Y-62204131D01*
X87699500Y-62437402D01*
X87699500Y-79229398D01*
X87679815Y-79296437D01*
X87627011Y-79342192D01*
X87557853Y-79352136D01*
X87506610Y-79332501D01*
X87460318Y-79301570D01*
X87460307Y-79301564D01*
X87278239Y-79226150D01*
X87278229Y-79226147D01*
X87084943Y-79187700D01*
X87084941Y-79187700D01*
X85750582Y-79187700D01*
X85683543Y-79168015D01*
X85662901Y-79151381D01*
X80736819Y-74225299D01*
X80703334Y-74163976D01*
X80700500Y-74137618D01*
X80700500Y-55616976D01*
X80720185Y-55549937D01*
X80772989Y-55504182D01*
X80800135Y-55496736D01*
X80799932Y-55495876D01*
X80807479Y-55494092D01*
X80807481Y-55494091D01*
X80807483Y-55494091D01*
X80942331Y-55443796D01*
X81057546Y-55357546D01*
X81143796Y-55242331D01*
X81194091Y-55107483D01*
X81200500Y-55047873D01*
X81200499Y-52952128D01*
X81194091Y-52892517D01*
X81179252Y-52852732D01*
X81143797Y-52757671D01*
X81143793Y-52757664D01*
X81057547Y-52642455D01*
X81057544Y-52642452D01*
X80942335Y-52556206D01*
X80942328Y-52556202D01*
X80807482Y-52505908D01*
X80807483Y-52505908D01*
X80747883Y-52499501D01*
X80747881Y-52499500D01*
X80747873Y-52499500D01*
X80747864Y-52499500D01*
X78652129Y-52499500D01*
X78652123Y-52499501D01*
X78592516Y-52505908D01*
X78457671Y-52556202D01*
X78457664Y-52556206D01*
X78342455Y-52642452D01*
X78342452Y-52642455D01*
X78256206Y-52757664D01*
X78256202Y-52757671D01*
X78205908Y-52892517D01*
X78199920Y-52948220D01*
X78199501Y-52952123D01*
X78199500Y-52952135D01*
X78199500Y-55047870D01*
X78199501Y-55047876D01*
X78205908Y-55107483D01*
X78256202Y-55242328D01*
X78256206Y-55242335D01*
X78342452Y-55357544D01*
X78342455Y-55357547D01*
X78457664Y-55443793D01*
X78457671Y-55443797D01*
X78592517Y-55494091D01*
X78600062Y-55495874D01*
X78599523Y-55498151D01*
X78653287Y-55520408D01*
X78693147Y-55577793D01*
X78699500Y-55616975D01*
X78699500Y-74701941D01*
X78699500Y-74701943D01*
X78699499Y-74701943D01*
X78737947Y-74895229D01*
X78737950Y-74895239D01*
X78813364Y-75077307D01*
X78813371Y-75077320D01*
X78922860Y-75241181D01*
X78922863Y-75241185D01*
X79066537Y-75384859D01*
X79066559Y-75384879D01*
X84504535Y-80822855D01*
X84504564Y-80822886D01*
X84647014Y-80965336D01*
X84647018Y-80965339D01*
X84810879Y-81074828D01*
X84810892Y-81074835D01*
X84939633Y-81128161D01*
X84982544Y-81145935D01*
X84992964Y-81150251D01*
X85089612Y-81169475D01*
X85137935Y-81179087D01*
X85186258Y-81188700D01*
X85186259Y-81188700D01*
X87084943Y-81188700D01*
X87214982Y-81162832D01*
X87278235Y-81150251D01*
X87460314Y-81074832D01*
X87506609Y-81043899D01*
X87573286Y-81023021D01*
X87640666Y-81041505D01*
X87687357Y-81093484D01*
X87699500Y-81147001D01*
X87699500Y-82377111D01*
X87679815Y-82444150D01*
X87663181Y-82464792D01*
X77955485Y-92172487D01*
X77955484Y-92172488D01*
X77816657Y-92363565D01*
X77709433Y-92574003D01*
X77636446Y-92798631D01*
X77599500Y-93031902D01*
X77599500Y-93268097D01*
X77636449Y-93501382D01*
X77636626Y-93502120D01*
X77636611Y-93502407D01*
X77637209Y-93506180D01*
X77636415Y-93506305D01*
X77633120Y-93571902D01*
X77592443Y-93628710D01*
X77527511Y-93654509D01*
X77502797Y-93654330D01*
X77457873Y-93649500D01*
X77457864Y-93649500D01*
X75662129Y-93649500D01*
X75662123Y-93649501D01*
X75602516Y-93655908D01*
X75467671Y-93706202D01*
X75467664Y-93706206D01*
X75352455Y-93792452D01*
X75352452Y-93792455D01*
X75266206Y-93907664D01*
X75266202Y-93907671D01*
X75215908Y-94042517D01*
X75209501Y-94102116D01*
X75209500Y-94102135D01*
X75209500Y-95897870D01*
X75209501Y-95897876D01*
X75215908Y-95957483D01*
X75266202Y-96092328D01*
X75266206Y-96092334D01*
X75304695Y-96143750D01*
X75329112Y-96209214D01*
X75314260Y-96277487D01*
X75305746Y-96290946D01*
X75216657Y-96413565D01*
X75109433Y-96624003D01*
X75036446Y-96848631D01*
X74999500Y-97081902D01*
X26300500Y-97081902D01*
X26300500Y-93902135D01*
X49169500Y-93902135D01*
X49169500Y-95697870D01*
X49169501Y-95697876D01*
X49175908Y-95757483D01*
X49226202Y-95892328D01*
X49226206Y-95892335D01*
X49312452Y-96007544D01*
X49312455Y-96007547D01*
X49427664Y-96093793D01*
X49427671Y-96093797D01*
X49562517Y-96144091D01*
X49562516Y-96144091D01*
X49569444Y-96144835D01*
X49622127Y-96150500D01*
X51417872Y-96150499D01*
X51477483Y-96144091D01*
X51612331Y-96093796D01*
X51727546Y-96007546D01*
X51813796Y-95892331D01*
X51864091Y-95757483D01*
X51870500Y-95697873D01*
X51870499Y-93902128D01*
X51864091Y-93842517D01*
X51862869Y-93839241D01*
X51813797Y-93707671D01*
X51813793Y-93707664D01*
X51727547Y-93592455D01*
X51727544Y-93592452D01*
X51612335Y-93506206D01*
X51612328Y-93506202D01*
X51477482Y-93455908D01*
X51477483Y-93455908D01*
X51417883Y-93449501D01*
X51417881Y-93449500D01*
X51417873Y-93449500D01*
X51417864Y-93449500D01*
X49622129Y-93449500D01*
X49622123Y-93449501D01*
X49562516Y-93455908D01*
X49427671Y-93506202D01*
X49427664Y-93506206D01*
X49312455Y-93592452D01*
X49312452Y-93592455D01*
X49226206Y-93707664D01*
X49226202Y-93707671D01*
X49175908Y-93842517D01*
X49173427Y-93865599D01*
X49169501Y-93902123D01*
X49169500Y-93902135D01*
X26300500Y-93902135D01*
X26300500Y-68413156D01*
X37817800Y-68413156D01*
X37817800Y-90756143D01*
X37851021Y-90923158D01*
X37851022Y-90923158D01*
X37851022Y-90923160D01*
X37856249Y-90949435D01*
X37856250Y-90949437D01*
X37856250Y-90949439D01*
X37931664Y-91131507D01*
X37931671Y-91131520D01*
X38041160Y-91295381D01*
X38041163Y-91295385D01*
X38184837Y-91439059D01*
X38184859Y-91439079D01*
X38402135Y-91656355D01*
X38402164Y-91656386D01*
X38544614Y-91798836D01*
X38544618Y-91798839D01*
X38708479Y-91908328D01*
X38708492Y-91908335D01*
X38837233Y-91961661D01*
X38880144Y-91979435D01*
X38890564Y-91983751D01*
X38987212Y-92002975D01*
X39035535Y-92012587D01*
X39083858Y-92022200D01*
X39083859Y-92022200D01*
X57228342Y-92022200D01*
X57252666Y-92017361D01*
X57324988Y-92002975D01*
X57357381Y-91996531D01*
X57426967Y-92002759D01*
X57482144Y-92045623D01*
X57505388Y-92111513D01*
X57489320Y-92179510D01*
X57469248Y-92205830D01*
X57362860Y-92312218D01*
X57253371Y-92476079D01*
X57253364Y-92476092D01*
X57177950Y-92658160D01*
X57177947Y-92658170D01*
X57139500Y-92851456D01*
X57139500Y-93839241D01*
X57119815Y-93906280D01*
X57103181Y-93926922D01*
X57101505Y-93928597D01*
X56965965Y-94122169D01*
X56965964Y-94122171D01*
X56866098Y-94336335D01*
X56866094Y-94336344D01*
X56804938Y-94564586D01*
X56804936Y-94564596D01*
X56784341Y-94799999D01*
X56784341Y-94800000D01*
X56804936Y-95035403D01*
X56804938Y-95035413D01*
X56866094Y-95263655D01*
X56866096Y-95263659D01*
X56866097Y-95263663D01*
X56870000Y-95272032D01*
X56965965Y-95477830D01*
X56965967Y-95477834D01*
X57074281Y-95632521D01*
X57101505Y-95671401D01*
X57268599Y-95838495D01*
X57353404Y-95897876D01*
X57462165Y-95974032D01*
X57462167Y-95974033D01*
X57462170Y-95974035D01*
X57676337Y-96073903D01*
X57904592Y-96135063D01*
X58081034Y-96150500D01*
X58139999Y-96155659D01*
X58140000Y-96155659D01*
X58140001Y-96155659D01*
X58198966Y-96150500D01*
X58375408Y-96135063D01*
X58603663Y-96073903D01*
X58817830Y-95974035D01*
X59011401Y-95838495D01*
X59178495Y-95671401D01*
X59308425Y-95485842D01*
X59363002Y-95442217D01*
X59432500Y-95435023D01*
X59494855Y-95466546D01*
X59511575Y-95485842D01*
X59641500Y-95671395D01*
X59641505Y-95671401D01*
X59808599Y-95838495D01*
X59893404Y-95897876D01*
X60002165Y-95974032D01*
X60002167Y-95974033D01*
X60002170Y-95974035D01*
X60216337Y-96073903D01*
X60444592Y-96135063D01*
X60621034Y-96150500D01*
X60679999Y-96155659D01*
X60680000Y-96155659D01*
X60680001Y-96155659D01*
X60738966Y-96150500D01*
X60915408Y-96135063D01*
X61143663Y-96073903D01*
X61357830Y-95974035D01*
X61551401Y-95838495D01*
X61718495Y-95671401D01*
X61848425Y-95485842D01*
X61903002Y-95442217D01*
X61972500Y-95435023D01*
X62034855Y-95466546D01*
X62051575Y-95485842D01*
X62181500Y-95671395D01*
X62181505Y-95671401D01*
X62348599Y-95838495D01*
X62433404Y-95897876D01*
X62542165Y-95974032D01*
X62542167Y-95974033D01*
X62542170Y-95974035D01*
X62756337Y-96073903D01*
X62984592Y-96135063D01*
X63161034Y-96150500D01*
X63219999Y-96155659D01*
X63220000Y-96155659D01*
X63220001Y-96155659D01*
X63278966Y-96150500D01*
X63455408Y-96135063D01*
X63683663Y-96073903D01*
X63897830Y-95974035D01*
X64091401Y-95838495D01*
X64258495Y-95671401D01*
X64388425Y-95485842D01*
X64443002Y-95442217D01*
X64512500Y-95435023D01*
X64574855Y-95466546D01*
X64591575Y-95485842D01*
X64721500Y-95671395D01*
X64721505Y-95671401D01*
X64888599Y-95838495D01*
X64973404Y-95897876D01*
X65082165Y-95974032D01*
X65082167Y-95974033D01*
X65082170Y-95974035D01*
X65296337Y-96073903D01*
X65524592Y-96135063D01*
X65701034Y-96150500D01*
X65759999Y-96155659D01*
X65760000Y-96155659D01*
X65760001Y-96155659D01*
X65818966Y-96150500D01*
X65995408Y-96135063D01*
X66223663Y-96073903D01*
X66437830Y-95974035D01*
X66631401Y-95838495D01*
X66798495Y-95671401D01*
X66928425Y-95485842D01*
X66983002Y-95442217D01*
X67052500Y-95435023D01*
X67114855Y-95466546D01*
X67131575Y-95485842D01*
X67261500Y-95671395D01*
X67261505Y-95671401D01*
X67428599Y-95838495D01*
X67513404Y-95897876D01*
X67622165Y-95974032D01*
X67622167Y-95974033D01*
X67622170Y-95974035D01*
X67836337Y-96073903D01*
X68064592Y-96135063D01*
X68241034Y-96150500D01*
X68299999Y-96155659D01*
X68300000Y-96155659D01*
X68300001Y-96155659D01*
X68358966Y-96150500D01*
X68535408Y-96135063D01*
X68763663Y-96073903D01*
X68977830Y-95974035D01*
X69171401Y-95838495D01*
X69338495Y-95671401D01*
X69474035Y-95477830D01*
X69573903Y-95263663D01*
X69635063Y-95035408D01*
X69655659Y-94800000D01*
X69652561Y-94764596D01*
X69635063Y-94564596D01*
X69635063Y-94564592D01*
X69573903Y-94336337D01*
X69474035Y-94122171D01*
X69470235Y-94116743D01*
X69338494Y-93928597D01*
X69171402Y-93761506D01*
X69171395Y-93761501D01*
X68977834Y-93625967D01*
X68977830Y-93625965D01*
X68977828Y-93625964D01*
X68763663Y-93526097D01*
X68763659Y-93526096D01*
X68763655Y-93526094D01*
X68535413Y-93464938D01*
X68535403Y-93464936D01*
X68300001Y-93444341D01*
X68299999Y-93444341D01*
X68064596Y-93464936D01*
X68064586Y-93464938D01*
X67836344Y-93526094D01*
X67836335Y-93526098D01*
X67622171Y-93625964D01*
X67622169Y-93625965D01*
X67428597Y-93761505D01*
X67261505Y-93928597D01*
X67131575Y-94114158D01*
X67076998Y-94157783D01*
X67007500Y-94164977D01*
X66945145Y-94133454D01*
X66928425Y-94114158D01*
X66798494Y-93928597D01*
X66631402Y-93761506D01*
X66631395Y-93761501D01*
X66437834Y-93625967D01*
X66437830Y-93625965D01*
X66437828Y-93625964D01*
X66223663Y-93526097D01*
X66223659Y-93526096D01*
X66223655Y-93526094D01*
X65995413Y-93464938D01*
X65995403Y-93464936D01*
X65760001Y-93444341D01*
X65759999Y-93444341D01*
X65524596Y-93464936D01*
X65524586Y-93464938D01*
X65296344Y-93526094D01*
X65296335Y-93526098D01*
X65082171Y-93625964D01*
X65082169Y-93625965D01*
X64888597Y-93761505D01*
X64721505Y-93928597D01*
X64591575Y-94114158D01*
X64536998Y-94157783D01*
X64467500Y-94164977D01*
X64405145Y-94133454D01*
X64388425Y-94114158D01*
X64258494Y-93928597D01*
X64091402Y-93761506D01*
X64091395Y-93761501D01*
X63897834Y-93625967D01*
X63897830Y-93625965D01*
X63897828Y-93625964D01*
X63683663Y-93526097D01*
X63683659Y-93526096D01*
X63683655Y-93526094D01*
X63455413Y-93464938D01*
X63455403Y-93464936D01*
X63220001Y-93444341D01*
X63219999Y-93444341D01*
X62984596Y-93464936D01*
X62984586Y-93464938D01*
X62756344Y-93526094D01*
X62756335Y-93526098D01*
X62542171Y-93625964D01*
X62542169Y-93625965D01*
X62348597Y-93761505D01*
X62181505Y-93928597D01*
X62051575Y-94114158D01*
X61996998Y-94157783D01*
X61927500Y-94164977D01*
X61865145Y-94133454D01*
X61848425Y-94114158D01*
X61718494Y-93928597D01*
X61551402Y-93761506D01*
X61551395Y-93761501D01*
X61357834Y-93625967D01*
X61357830Y-93625965D01*
X61357828Y-93625964D01*
X61143663Y-93526097D01*
X61143659Y-93526096D01*
X61143655Y-93526094D01*
X60915413Y-93464938D01*
X60915403Y-93464936D01*
X60680001Y-93444341D01*
X60679999Y-93444341D01*
X60444596Y-93464936D01*
X60444586Y-93464938D01*
X60216344Y-93526094D01*
X60216335Y-93526098D01*
X60002171Y-93625964D01*
X60002169Y-93625965D01*
X59808597Y-93761505D01*
X59641505Y-93928597D01*
X59511575Y-94114158D01*
X59456998Y-94157783D01*
X59387500Y-94164977D01*
X59325145Y-94133454D01*
X59308425Y-94114158D01*
X59178494Y-93928597D01*
X59176819Y-93926922D01*
X59176315Y-93926000D01*
X59175014Y-93924449D01*
X59175325Y-93924187D01*
X59143334Y-93865599D01*
X59140500Y-93839241D01*
X59140500Y-93415782D01*
X59160185Y-93348743D01*
X59176819Y-93328101D01*
X75924737Y-76580184D01*
X75924737Y-76580183D01*
X75924740Y-76580181D01*
X76034232Y-76416314D01*
X76109652Y-76234235D01*
X76133923Y-76112218D01*
X76146383Y-76049580D01*
X76178768Y-75987669D01*
X76239484Y-75953095D01*
X76309253Y-75956834D01*
X76365925Y-75997701D01*
X76391506Y-76062719D01*
X76392000Y-76073771D01*
X76392000Y-77281117D01*
X76372315Y-77348156D01*
X76355681Y-77368798D01*
X75855763Y-77868715D01*
X75855760Y-77868719D01*
X75746272Y-78032579D01*
X75746267Y-78032589D01*
X75670849Y-78214663D01*
X75670847Y-78214671D01*
X75632400Y-78407955D01*
X75632400Y-78605044D01*
X75670847Y-78798328D01*
X75670849Y-78798336D01*
X75746267Y-78980410D01*
X75746272Y-78980420D01*
X75855760Y-79144280D01*
X75855763Y-79144284D01*
X75995115Y-79283636D01*
X75995119Y-79283639D01*
X76158979Y-79393127D01*
X76158983Y-79393129D01*
X76158986Y-79393131D01*
X76341064Y-79468551D01*
X76488476Y-79497873D01*
X76534355Y-79506999D01*
X76534358Y-79507000D01*
X76534360Y-79507000D01*
X76731442Y-79507000D01*
X76731443Y-79506999D01*
X76924736Y-79468551D01*
X77106814Y-79393131D01*
X77270681Y-79283639D01*
X78169640Y-78384681D01*
X78279132Y-78220814D01*
X78354552Y-78038735D01*
X78393001Y-77845440D01*
X78393001Y-77648359D01*
X78393001Y-77643249D01*
X78393000Y-77643223D01*
X78393000Y-60637556D01*
X78354552Y-60444270D01*
X78354551Y-60444269D01*
X78354551Y-60444265D01*
X78321500Y-60364472D01*
X78279135Y-60262192D01*
X78279128Y-60262179D01*
X78169639Y-60098318D01*
X78169636Y-60098314D01*
X78030285Y-59958963D01*
X78030281Y-59958960D01*
X77866420Y-59849471D01*
X77866407Y-59849464D01*
X77684339Y-59774050D01*
X77684329Y-59774047D01*
X77491043Y-59735600D01*
X77491041Y-59735600D01*
X77293959Y-59735600D01*
X77293957Y-59735600D01*
X77100670Y-59774047D01*
X77100660Y-59774050D01*
X76918592Y-59849464D01*
X76918579Y-59849471D01*
X76754718Y-59958960D01*
X76754714Y-59958963D01*
X76615363Y-60098314D01*
X76615360Y-60098318D01*
X76505871Y-60262179D01*
X76505864Y-60262192D01*
X76430450Y-60444260D01*
X76430447Y-60444270D01*
X76393717Y-60628924D01*
X76361332Y-60690835D01*
X76300616Y-60725409D01*
X76230847Y-60721669D01*
X76174175Y-60680802D01*
X76148593Y-60615784D01*
X76148100Y-60604732D01*
X76148100Y-57210682D01*
X76167785Y-57143643D01*
X76184419Y-57123001D01*
X76645145Y-56662276D01*
X77123140Y-56184281D01*
X77232632Y-56020414D01*
X77308052Y-55838335D01*
X77346501Y-55645040D01*
X77346501Y-55447959D01*
X77346501Y-55442849D01*
X77346500Y-55442823D01*
X77346500Y-46297456D01*
X77308052Y-46104170D01*
X77308051Y-46104169D01*
X77308051Y-46104165D01*
X77279075Y-46034209D01*
X77232635Y-45922092D01*
X77232628Y-45922079D01*
X77123139Y-45758218D01*
X77123136Y-45758214D01*
X76980686Y-45615764D01*
X76980655Y-45615735D01*
X76136819Y-44771899D01*
X76103334Y-44710576D01*
X76100500Y-44684218D01*
X76100500Y-44260758D01*
X76120185Y-44193719D01*
X76136819Y-44173077D01*
X76138495Y-44171401D01*
X76274035Y-43977830D01*
X76373903Y-43763663D01*
X76435063Y-43535408D01*
X76455659Y-43300000D01*
X76435063Y-43064592D01*
X76373903Y-42836337D01*
X76274035Y-42622171D01*
X76268425Y-42614158D01*
X76138494Y-42428597D01*
X75971402Y-42261506D01*
X75971395Y-42261501D01*
X75962693Y-42255408D01*
X75894518Y-42207671D01*
X75777834Y-42125967D01*
X75777830Y-42125965D01*
X75735457Y-42106206D01*
X75563663Y-42026097D01*
X75563659Y-42026096D01*
X75563655Y-42026094D01*
X75335413Y-41964938D01*
X75335403Y-41964936D01*
X75100001Y-41944341D01*
X75099999Y-41944341D01*
X74864596Y-41964936D01*
X74864586Y-41964938D01*
X74636344Y-42026094D01*
X74636335Y-42026098D01*
X74422171Y-42125964D01*
X74422169Y-42125965D01*
X74228597Y-42261505D01*
X74061505Y-42428597D01*
X73931575Y-42614158D01*
X73876998Y-42657783D01*
X73807500Y-42664977D01*
X73745145Y-42633454D01*
X73728425Y-42614158D01*
X73598494Y-42428597D01*
X73431402Y-42261506D01*
X73431395Y-42261501D01*
X73422693Y-42255408D01*
X73354518Y-42207671D01*
X73237834Y-42125967D01*
X73237830Y-42125965D01*
X73195457Y-42106206D01*
X73023663Y-42026097D01*
X73023659Y-42026096D01*
X73023655Y-42026094D01*
X72795413Y-41964938D01*
X72795403Y-41964936D01*
X72560001Y-41944341D01*
X72559999Y-41944341D01*
X72324596Y-41964936D01*
X72324586Y-41964938D01*
X72096344Y-42026094D01*
X72096335Y-42026098D01*
X71882171Y-42125964D01*
X71882169Y-42125965D01*
X71688600Y-42261503D01*
X71566673Y-42383430D01*
X71505350Y-42416914D01*
X71435658Y-42411930D01*
X71379725Y-42370058D01*
X71362810Y-42339081D01*
X71313797Y-42207671D01*
X71313793Y-42207664D01*
X71227547Y-42092455D01*
X71227544Y-42092452D01*
X71112335Y-42006206D01*
X71112328Y-42006202D01*
X70977482Y-41955908D01*
X70977483Y-41955908D01*
X70917883Y-41949501D01*
X70917881Y-41949500D01*
X70917873Y-41949500D01*
X70917864Y-41949500D01*
X69122129Y-41949500D01*
X69122123Y-41949501D01*
X69062516Y-41955908D01*
X68927671Y-42006202D01*
X68927664Y-42006206D01*
X68812455Y-42092452D01*
X68812452Y-42092455D01*
X68726206Y-42207664D01*
X68726202Y-42207671D01*
X68675908Y-42342517D01*
X68669501Y-42402116D01*
X68669500Y-42402135D01*
X68669500Y-43085518D01*
X68649815Y-43152557D01*
X68597011Y-43198312D01*
X68527853Y-43208256D01*
X68464297Y-43179231D01*
X68457819Y-43173199D01*
X66786755Y-41502135D01*
X85274500Y-41502135D01*
X85274500Y-43297870D01*
X85274501Y-43297876D01*
X85280908Y-43357483D01*
X85331202Y-43492328D01*
X85331206Y-43492335D01*
X85417452Y-43607544D01*
X85417455Y-43607547D01*
X85532664Y-43693793D01*
X85532671Y-43693797D01*
X85667517Y-43744091D01*
X85667516Y-43744091D01*
X85674444Y-43744835D01*
X85727127Y-43750500D01*
X87522872Y-43750499D01*
X87582483Y-43744091D01*
X87717331Y-43693796D01*
X87832546Y-43607546D01*
X87918796Y-43492331D01*
X87969091Y-43357483D01*
X87975500Y-43297873D01*
X87975499Y-41502128D01*
X87969091Y-41442517D01*
X87931664Y-41342171D01*
X87918797Y-41307671D01*
X87918793Y-41307664D01*
X87832547Y-41192455D01*
X87832544Y-41192452D01*
X87717335Y-41106206D01*
X87717328Y-41106202D01*
X87582482Y-41055908D01*
X87582483Y-41055908D01*
X87522883Y-41049501D01*
X87522881Y-41049500D01*
X87522873Y-41049500D01*
X87522864Y-41049500D01*
X85727129Y-41049500D01*
X85727123Y-41049501D01*
X85667516Y-41055908D01*
X85532671Y-41106202D01*
X85532664Y-41106206D01*
X85417455Y-41192452D01*
X85417452Y-41192455D01*
X85331206Y-41307664D01*
X85331202Y-41307671D01*
X85280908Y-41442517D01*
X85274501Y-41502116D01*
X85274501Y-41502123D01*
X85274500Y-41502135D01*
X66786755Y-41502135D01*
X65430409Y-40145789D01*
X65430406Y-40145785D01*
X65430406Y-40145786D01*
X65423339Y-40138719D01*
X65423339Y-40138718D01*
X65283982Y-39999361D01*
X65283981Y-39999360D01*
X65283980Y-39999359D01*
X65120120Y-39889871D01*
X65120111Y-39889866D01*
X65047515Y-39859796D01*
X64991365Y-39836538D01*
X64938036Y-39814449D01*
X64938032Y-39814448D01*
X64938028Y-39814446D01*
X64841388Y-39795224D01*
X64744744Y-39776000D01*
X64744741Y-39776000D01*
X58364959Y-39776000D01*
X58364955Y-39776000D01*
X58268312Y-39795224D01*
X58171667Y-39814447D01*
X58171661Y-39814449D01*
X58118334Y-39836537D01*
X58118334Y-39836538D01*
X58072815Y-39855392D01*
X57989589Y-39889866D01*
X57989579Y-39889871D01*
X57825718Y-39999360D01*
X57825714Y-39999363D01*
X55806969Y-42018108D01*
X55745646Y-42051593D01*
X55730097Y-42053955D01*
X55604596Y-42064936D01*
X55604586Y-42064938D01*
X55376344Y-42126094D01*
X55376335Y-42126098D01*
X55162171Y-42225964D01*
X55162169Y-42225965D01*
X54968597Y-42361505D01*
X54801505Y-42528597D01*
X54671575Y-42714158D01*
X54616998Y-42757783D01*
X54547500Y-42764977D01*
X54485145Y-42733454D01*
X54468425Y-42714158D01*
X54338494Y-42528597D01*
X54171402Y-42361506D01*
X54171395Y-42361501D01*
X53977834Y-42225967D01*
X53977830Y-42225965D01*
X53977828Y-42225964D01*
X53763663Y-42126097D01*
X53763659Y-42126096D01*
X53763655Y-42126094D01*
X53535413Y-42064938D01*
X53535403Y-42064936D01*
X53300001Y-42044341D01*
X53299999Y-42044341D01*
X53064596Y-42064936D01*
X53064586Y-42064938D01*
X52836344Y-42126094D01*
X52836335Y-42126098D01*
X52622171Y-42225964D01*
X52622169Y-42225965D01*
X52428600Y-42361503D01*
X52306673Y-42483430D01*
X52245350Y-42516914D01*
X52175658Y-42511930D01*
X52119725Y-42470058D01*
X52102810Y-42439081D01*
X52053797Y-42307671D01*
X52053793Y-42307664D01*
X51967547Y-42192455D01*
X51967544Y-42192452D01*
X51852335Y-42106206D01*
X51852328Y-42106202D01*
X51717482Y-42055908D01*
X51717483Y-42055908D01*
X51657883Y-42049501D01*
X51657881Y-42049500D01*
X51657873Y-42049500D01*
X51657864Y-42049500D01*
X49862129Y-42049500D01*
X49862123Y-42049501D01*
X49802516Y-42055908D01*
X49667671Y-42106202D01*
X49667664Y-42106206D01*
X49552455Y-42192452D01*
X49552452Y-42192455D01*
X49466206Y-42307664D01*
X49466202Y-42307671D01*
X49415908Y-42442517D01*
X49409501Y-42502116D01*
X49409500Y-42502135D01*
X49409500Y-44297870D01*
X49409501Y-44297876D01*
X49415908Y-44357483D01*
X49466202Y-44492328D01*
X49466206Y-44492335D01*
X49552452Y-44607544D01*
X49552455Y-44607547D01*
X49667665Y-44693794D01*
X49667667Y-44693794D01*
X49667669Y-44693796D01*
X49678830Y-44697958D01*
X49734764Y-44739826D01*
X49759184Y-44805289D01*
X49759500Y-44814141D01*
X49759500Y-45464743D01*
X49782058Y-45578149D01*
X49797946Y-45658028D01*
X49797949Y-45658037D01*
X49873364Y-45840107D01*
X49873371Y-45840120D01*
X49982859Y-46003980D01*
X49982860Y-46003981D01*
X49982861Y-46003982D01*
X50122218Y-46143339D01*
X50122219Y-46143339D01*
X50129286Y-46150406D01*
X50129285Y-46150406D01*
X50129289Y-46150409D01*
X52014613Y-48035735D01*
X52014614Y-48035736D01*
X52014617Y-48035738D01*
X52014619Y-48035740D01*
X52123614Y-48108567D01*
X52178487Y-48145232D01*
X52269525Y-48182941D01*
X52360564Y-48220651D01*
X52553855Y-48259099D01*
X52553858Y-48259100D01*
X52659600Y-48259100D01*
X52726639Y-48278785D01*
X52772394Y-48331589D01*
X52783600Y-48383100D01*
X52783600Y-52572841D01*
X52783600Y-52572843D01*
X52783599Y-52572843D01*
X52822047Y-52766129D01*
X52822050Y-52766139D01*
X52897464Y-52948207D01*
X52897471Y-52948220D01*
X53006959Y-53112080D01*
X53006960Y-53112081D01*
X53006961Y-53112082D01*
X53146318Y-53251439D01*
X53146319Y-53251439D01*
X53153386Y-53258506D01*
X53153385Y-53258506D01*
X53153388Y-53258508D01*
X54882660Y-54987781D01*
X54882661Y-54987782D01*
X55022018Y-55127139D01*
X55044392Y-55142088D01*
X55089195Y-55195697D01*
X55099500Y-55245189D01*
X55099500Y-55341229D01*
X55079815Y-55408268D01*
X55075234Y-55414837D01*
X55074944Y-55415305D01*
X54975775Y-55614461D01*
X54975769Y-55614476D01*
X54914885Y-55828462D01*
X54914884Y-55828464D01*
X54894357Y-56049999D01*
X54894357Y-56050000D01*
X54913358Y-56255059D01*
X54899943Y-56323629D01*
X54851586Y-56374060D01*
X54789887Y-56390500D01*
X52330113Y-56390500D01*
X52263074Y-56370815D01*
X52217319Y-56318011D01*
X52206642Y-56255059D01*
X52225643Y-56050000D01*
X52225643Y-56049999D01*
X52205115Y-55828464D01*
X52205114Y-55828462D01*
X52185206Y-55758493D01*
X52144229Y-55614472D01*
X52144224Y-55614461D01*
X52045061Y-55415316D01*
X52045056Y-55415308D01*
X51910979Y-55237761D01*
X51746562Y-55087876D01*
X51746560Y-55087874D01*
X51557404Y-54970754D01*
X51557398Y-54970752D01*
X51349940Y-54890382D01*
X51131243Y-54849500D01*
X50908757Y-54849500D01*
X50883876Y-54854151D01*
X50781703Y-54873250D01*
X50712188Y-54866219D01*
X50657510Y-54822721D01*
X50635028Y-54756567D01*
X50651881Y-54688760D01*
X50671232Y-54663686D01*
X51230990Y-54103928D01*
X51292311Y-54070445D01*
X51295838Y-54069731D01*
X51349940Y-54059618D01*
X51557401Y-53979247D01*
X51746562Y-53862124D01*
X51910981Y-53712236D01*
X52045058Y-53534689D01*
X52144229Y-53335528D01*
X52205115Y-53121536D01*
X52225643Y-52900000D01*
X52221735Y-52857830D01*
X52205115Y-52678464D01*
X52205114Y-52678462D01*
X52196019Y-52646497D01*
X52144229Y-52464472D01*
X52144224Y-52464461D01*
X52045061Y-52265316D01*
X52045056Y-52265308D01*
X51910979Y-52087761D01*
X51746562Y-51937876D01*
X51746560Y-51937874D01*
X51557404Y-51820754D01*
X51557398Y-51820752D01*
X51349940Y-51740382D01*
X51131243Y-51699500D01*
X50908757Y-51699500D01*
X50690060Y-51740382D01*
X50558864Y-51791207D01*
X50482601Y-51820752D01*
X50482595Y-51820754D01*
X50293439Y-51937874D01*
X50293437Y-51937876D01*
X50129020Y-52087761D01*
X49994943Y-52265308D01*
X49994936Y-52265320D01*
X49895775Y-52464462D01*
X49895768Y-52464480D01*
X49846985Y-52635932D01*
X49815400Y-52689678D01*
X48567144Y-53937934D01*
X48566076Y-53938903D01*
X48422959Y-54082019D01*
X48313471Y-54245879D01*
X48313464Y-54245892D01*
X48238050Y-54427960D01*
X48238047Y-54427970D01*
X48199600Y-54621256D01*
X48199600Y-60787717D01*
X48179915Y-60854756D01*
X48163281Y-60875398D01*
X47705267Y-61333411D01*
X47643944Y-61366896D01*
X47574252Y-61361912D01*
X47518319Y-61320040D01*
X47503025Y-61293182D01*
X47501309Y-61289040D01*
X47449903Y-61164933D01*
X47437335Y-61134591D01*
X47437328Y-61134578D01*
X47327840Y-60970718D01*
X47327837Y-60970714D01*
X47188485Y-60831362D01*
X47188481Y-60831359D01*
X47024621Y-60721871D01*
X47024612Y-60721866D01*
X46842536Y-60646448D01*
X46842528Y-60646446D01*
X46649245Y-60608000D01*
X46649241Y-60608000D01*
X46452160Y-60608000D01*
X46452155Y-60608000D01*
X46258872Y-60646446D01*
X46258864Y-60646448D01*
X46076788Y-60721866D01*
X46076779Y-60721871D01*
X45912919Y-60831359D01*
X45912915Y-60831362D01*
X42162180Y-64582098D01*
X42100857Y-64615583D01*
X42031165Y-64610599D01*
X41975232Y-64568727D01*
X41950815Y-64503263D01*
X41950499Y-64494417D01*
X41950499Y-63982129D01*
X41950498Y-63982123D01*
X41950497Y-63982116D01*
X41944091Y-63922517D01*
X41929199Y-63882590D01*
X41893797Y-63787671D01*
X41893793Y-63787664D01*
X41807547Y-63672455D01*
X41807544Y-63672452D01*
X41692335Y-63586206D01*
X41692328Y-63586202D01*
X41677527Y-63580682D01*
X41621593Y-63538811D01*
X41597176Y-63473346D01*
X41612028Y-63405073D01*
X41661433Y-63355668D01*
X41720860Y-63340500D01*
X42548543Y-63340500D01*
X42678582Y-63314632D01*
X42741835Y-63302051D01*
X42923914Y-63226632D01*
X43087782Y-63117139D01*
X43227139Y-62977782D01*
X43336632Y-62813914D01*
X43412051Y-62631835D01*
X43442397Y-62479272D01*
X43474780Y-62417365D01*
X43476216Y-62415902D01*
X44139039Y-61753082D01*
X44248531Y-61589215D01*
X44323951Y-61407136D01*
X44362400Y-61213841D01*
X44362400Y-61016760D01*
X44362400Y-61016757D01*
X44362399Y-61016755D01*
X44353241Y-60970714D01*
X44323951Y-60823465D01*
X44248531Y-60641386D01*
X44248530Y-60641385D01*
X44248527Y-60641379D01*
X44139039Y-60477519D01*
X44139036Y-60477515D01*
X43999684Y-60338163D01*
X43999680Y-60338160D01*
X43835820Y-60228672D01*
X43835811Y-60228667D01*
X43653735Y-60153249D01*
X43653727Y-60153247D01*
X43460443Y-60114800D01*
X43460440Y-60114800D01*
X43263359Y-60114800D01*
X43263356Y-60114800D01*
X43070071Y-60153247D01*
X43070063Y-60153249D01*
X42887987Y-60228667D01*
X42887978Y-60228672D01*
X42724118Y-60338160D01*
X42724114Y-60338163D01*
X41812220Y-61250059D01*
X41759098Y-61303181D01*
X41697775Y-61336666D01*
X41671417Y-61339500D01*
X41560758Y-61339500D01*
X41493719Y-61319815D01*
X41473077Y-61303181D01*
X41471402Y-61301506D01*
X41471396Y-61301501D01*
X41285842Y-61171575D01*
X41242217Y-61116998D01*
X41235023Y-61047500D01*
X41266546Y-60985145D01*
X41285842Y-60968425D01*
X41308026Y-60952891D01*
X41471401Y-60838495D01*
X41638495Y-60671401D01*
X41774035Y-60477830D01*
X41873903Y-60263663D01*
X41935063Y-60035408D01*
X41955659Y-59800000D01*
X41935063Y-59564592D01*
X41873903Y-59336337D01*
X41774035Y-59122171D01*
X41638495Y-58928599D01*
X41638494Y-58928597D01*
X41471402Y-58761506D01*
X41471396Y-58761501D01*
X41285842Y-58631575D01*
X41242217Y-58576998D01*
X41235023Y-58507500D01*
X41266546Y-58445145D01*
X41285842Y-58428425D01*
X41393488Y-58353050D01*
X41471401Y-58298495D01*
X41638495Y-58131401D01*
X41774035Y-57937830D01*
X41873903Y-57723663D01*
X41935063Y-57495408D01*
X41955659Y-57260000D01*
X41935063Y-57024592D01*
X41888626Y-56851285D01*
X41873905Y-56796344D01*
X41873904Y-56796343D01*
X41873903Y-56796337D01*
X41774035Y-56582171D01*
X41683635Y-56453065D01*
X41638494Y-56388597D01*
X41471402Y-56221506D01*
X41471396Y-56221501D01*
X41285842Y-56091575D01*
X41242217Y-56036998D01*
X41235023Y-55967500D01*
X41266546Y-55905145D01*
X41285842Y-55888425D01*
X41371478Y-55828462D01*
X41471401Y-55758495D01*
X41638495Y-55591401D01*
X41774035Y-55397830D01*
X41873903Y-55183663D01*
X41935063Y-54955408D01*
X41955659Y-54720000D01*
X41935063Y-54484592D01*
X41873903Y-54256337D01*
X41774035Y-54042171D01*
X41729976Y-53979247D01*
X41638494Y-53848597D01*
X41471402Y-53681506D01*
X41471396Y-53681501D01*
X41285842Y-53551575D01*
X41242217Y-53496998D01*
X41235023Y-53427500D01*
X41266546Y-53365145D01*
X41285842Y-53348425D01*
X41414259Y-53258506D01*
X41471401Y-53218495D01*
X41638495Y-53051401D01*
X41774035Y-52857830D01*
X41873903Y-52643663D01*
X41935063Y-52415408D01*
X41955659Y-52180000D01*
X41935063Y-51944592D01*
X41873903Y-51716337D01*
X41774035Y-51502171D01*
X41638495Y-51308599D01*
X41638494Y-51308597D01*
X41471402Y-51141506D01*
X41471395Y-51141501D01*
X41460535Y-51133897D01*
X41430313Y-51112735D01*
X41277834Y-51005967D01*
X41277830Y-51005965D01*
X41207696Y-50973261D01*
X41063663Y-50906097D01*
X41063659Y-50906096D01*
X41063655Y-50906094D01*
X40835413Y-50844938D01*
X40835403Y-50844936D01*
X40600001Y-50824341D01*
X40599999Y-50824341D01*
X40364596Y-50844936D01*
X40364586Y-50844938D01*
X40136344Y-50906094D01*
X40136335Y-50906098D01*
X39922171Y-51005964D01*
X39922169Y-51005965D01*
X39728597Y-51141505D01*
X39561505Y-51308597D01*
X39425965Y-51502169D01*
X39425964Y-51502171D01*
X39326098Y-51716335D01*
X39326094Y-51716344D01*
X39264938Y-51944586D01*
X39264936Y-51944596D01*
X39244341Y-52179999D01*
X39244341Y-52180000D01*
X39264936Y-52415403D01*
X39264938Y-52415413D01*
X39326094Y-52643655D01*
X39326096Y-52643659D01*
X39326097Y-52643663D01*
X39379257Y-52757664D01*
X39425965Y-52857830D01*
X39425967Y-52857834D01*
X39561501Y-53051395D01*
X39561506Y-53051402D01*
X39728597Y-53218493D01*
X39728603Y-53218498D01*
X39914158Y-53348425D01*
X39957783Y-53403002D01*
X39964977Y-53472500D01*
X39933454Y-53534855D01*
X39914158Y-53551575D01*
X39728597Y-53681505D01*
X39561505Y-53848597D01*
X39425965Y-54042169D01*
X39425964Y-54042171D01*
X39326098Y-54256335D01*
X39326094Y-54256344D01*
X39264938Y-54484586D01*
X39264936Y-54484596D01*
X39244341Y-54719999D01*
X39244341Y-54720000D01*
X39264936Y-54955403D01*
X39264938Y-54955413D01*
X39326094Y-55183655D01*
X39326096Y-55183659D01*
X39326097Y-55183663D01*
X39407179Y-55357544D01*
X39425965Y-55397830D01*
X39425967Y-55397834D01*
X39561501Y-55591395D01*
X39561506Y-55591402D01*
X39728597Y-55758493D01*
X39728603Y-55758498D01*
X39914158Y-55888425D01*
X39957783Y-55943002D01*
X39964977Y-56012500D01*
X39933454Y-56074855D01*
X39914158Y-56091575D01*
X39728597Y-56221505D01*
X39561505Y-56388597D01*
X39425965Y-56582169D01*
X39425964Y-56582171D01*
X39326098Y-56796335D01*
X39326094Y-56796344D01*
X39264938Y-57024586D01*
X39264936Y-57024596D01*
X39244341Y-57259999D01*
X39244341Y-57260000D01*
X39264936Y-57495403D01*
X39264938Y-57495413D01*
X39326094Y-57723655D01*
X39326096Y-57723659D01*
X39326097Y-57723663D01*
X39391099Y-57863059D01*
X39425965Y-57937830D01*
X39425967Y-57937834D01*
X39561501Y-58131395D01*
X39561506Y-58131402D01*
X39728597Y-58298493D01*
X39728603Y-58298498D01*
X39914158Y-58428425D01*
X39957783Y-58483002D01*
X39964977Y-58552500D01*
X39933454Y-58614855D01*
X39914158Y-58631575D01*
X39728597Y-58761505D01*
X39561505Y-58928597D01*
X39425965Y-59122169D01*
X39425964Y-59122171D01*
X39326098Y-59336335D01*
X39326094Y-59336344D01*
X39264938Y-59564586D01*
X39264936Y-59564596D01*
X39244341Y-59799999D01*
X39244341Y-59800000D01*
X39264936Y-60035403D01*
X39264938Y-60035413D01*
X39326094Y-60263655D01*
X39326096Y-60263659D01*
X39326097Y-60263663D01*
X39360836Y-60338160D01*
X39425965Y-60477830D01*
X39425967Y-60477834D01*
X39561501Y-60671395D01*
X39561506Y-60671402D01*
X39728597Y-60838493D01*
X39728603Y-60838498D01*
X39914158Y-60968425D01*
X39957783Y-61023002D01*
X39964977Y-61092500D01*
X39933454Y-61154855D01*
X39914158Y-61171575D01*
X39728597Y-61301505D01*
X39561505Y-61468597D01*
X39425965Y-61662169D01*
X39425964Y-61662171D01*
X39326098Y-61876335D01*
X39326094Y-61876344D01*
X39264938Y-62104586D01*
X39264936Y-62104596D01*
X39244341Y-62339999D01*
X39244341Y-62340000D01*
X39264936Y-62575403D01*
X39264938Y-62575413D01*
X39326094Y-62803655D01*
X39326096Y-62803659D01*
X39326097Y-62803663D01*
X39330880Y-62813920D01*
X39425965Y-63017830D01*
X39425967Y-63017834D01*
X39561501Y-63211395D01*
X39561506Y-63211402D01*
X39683430Y-63333326D01*
X39716915Y-63394649D01*
X39711931Y-63464341D01*
X39670059Y-63520274D01*
X39639083Y-63537189D01*
X39507669Y-63586203D01*
X39507664Y-63586206D01*
X39392455Y-63672452D01*
X39392452Y-63672455D01*
X39306206Y-63787664D01*
X39306202Y-63787671D01*
X39255908Y-63922517D01*
X39249501Y-63982116D01*
X39249501Y-63982123D01*
X39249500Y-63982135D01*
X39249500Y-65777870D01*
X39249501Y-65777876D01*
X39255908Y-65837483D01*
X39306202Y-65972328D01*
X39306206Y-65972335D01*
X39392452Y-66087544D01*
X39392455Y-66087547D01*
X39507662Y-66173792D01*
X39513386Y-66176917D01*
X39562793Y-66226320D01*
X39577648Y-66294592D01*
X39553235Y-66360058D01*
X39541645Y-66373433D01*
X38830100Y-67084979D01*
X38180520Y-67734559D01*
X38180518Y-67734561D01*
X38110838Y-67804240D01*
X38041159Y-67873919D01*
X37931671Y-68037779D01*
X37931664Y-68037792D01*
X37856250Y-68219860D01*
X37856247Y-68219870D01*
X37817800Y-68413156D01*
X26300500Y-68413156D01*
X26300500Y-42019999D01*
X39244341Y-42019999D01*
X39244341Y-42020000D01*
X39264936Y-42255403D01*
X39264938Y-42255413D01*
X39326094Y-42483655D01*
X39326096Y-42483659D01*
X39326097Y-42483663D01*
X39347051Y-42528599D01*
X39425965Y-42697830D01*
X39425967Y-42697834D01*
X39561501Y-42891395D01*
X39561506Y-42891402D01*
X39728597Y-43058493D01*
X39728603Y-43058498D01*
X39914158Y-43188425D01*
X39957783Y-43243002D01*
X39964977Y-43312500D01*
X39933454Y-43374855D01*
X39914158Y-43391575D01*
X39728597Y-43521505D01*
X39561505Y-43688597D01*
X39425965Y-43882169D01*
X39425964Y-43882171D01*
X39326098Y-44096335D01*
X39326094Y-44096344D01*
X39264938Y-44324586D01*
X39264936Y-44324596D01*
X39244341Y-44559999D01*
X39244341Y-44560000D01*
X39264936Y-44795403D01*
X39264938Y-44795413D01*
X39326094Y-45023655D01*
X39326096Y-45023659D01*
X39326097Y-45023663D01*
X39350137Y-45075217D01*
X39425965Y-45237830D01*
X39425967Y-45237834D01*
X39561501Y-45431395D01*
X39561506Y-45431402D01*
X39728597Y-45598493D01*
X39728603Y-45598498D01*
X39914158Y-45728425D01*
X39957783Y-45783002D01*
X39964977Y-45852500D01*
X39933454Y-45914855D01*
X39914158Y-45931575D01*
X39728597Y-46061505D01*
X39561505Y-46228597D01*
X39425965Y-46422169D01*
X39425964Y-46422171D01*
X39326098Y-46636335D01*
X39326094Y-46636344D01*
X39264938Y-46864586D01*
X39264936Y-46864596D01*
X39244341Y-47099999D01*
X39244341Y-47100000D01*
X39264936Y-47335403D01*
X39264938Y-47335413D01*
X39326094Y-47563655D01*
X39326096Y-47563659D01*
X39326097Y-47563663D01*
X39369335Y-47656386D01*
X39425965Y-47777830D01*
X39425967Y-47777834D01*
X39468421Y-47838464D01*
X39561505Y-47971401D01*
X39728599Y-48138495D01*
X39825384Y-48206265D01*
X39922165Y-48274032D01*
X39922167Y-48274033D01*
X39922170Y-48274035D01*
X40136337Y-48373903D01*
X40364592Y-48435063D01*
X40552918Y-48451539D01*
X40599999Y-48455659D01*
X40600000Y-48455659D01*
X40600001Y-48455659D01*
X40639234Y-48452226D01*
X40835408Y-48435063D01*
X41063663Y-48373903D01*
X41277830Y-48274035D01*
X41471401Y-48138495D01*
X41638495Y-47971401D01*
X41774035Y-47777830D01*
X41873903Y-47563663D01*
X41935063Y-47335408D01*
X41955659Y-47100000D01*
X41935063Y-46864592D01*
X41873903Y-46636337D01*
X41774035Y-46422171D01*
X41764921Y-46409154D01*
X41638494Y-46228597D01*
X41471402Y-46061506D01*
X41471396Y-46061501D01*
X41285842Y-45931575D01*
X41242217Y-45876998D01*
X41235023Y-45807500D01*
X41266546Y-45745145D01*
X41285842Y-45728425D01*
X41435090Y-45623920D01*
X41471401Y-45598495D01*
X41638495Y-45431401D01*
X41774035Y-45237830D01*
X41873903Y-45023663D01*
X41935063Y-44795408D01*
X41955659Y-44560000D01*
X41935063Y-44324592D01*
X41873903Y-44096337D01*
X41774035Y-43882171D01*
X41696916Y-43772032D01*
X41638494Y-43688597D01*
X41471402Y-43521506D01*
X41471396Y-43521501D01*
X41285842Y-43391575D01*
X41242217Y-43336998D01*
X41235023Y-43267500D01*
X41266546Y-43205145D01*
X41285842Y-43188425D01*
X41432808Y-43085518D01*
X41471401Y-43058495D01*
X41638495Y-42891401D01*
X41774035Y-42697830D01*
X41873903Y-42483663D01*
X41935063Y-42255408D01*
X41955659Y-42020000D01*
X41955493Y-42018108D01*
X41950842Y-41964938D01*
X41935063Y-41784592D01*
X41873903Y-41556337D01*
X41774035Y-41342171D01*
X41669204Y-41192455D01*
X41638494Y-41148597D01*
X41471402Y-40981506D01*
X41471395Y-40981501D01*
X41277834Y-40845967D01*
X41277830Y-40845965D01*
X41277828Y-40845964D01*
X41063663Y-40746097D01*
X41063659Y-40746096D01*
X41063655Y-40746094D01*
X40835413Y-40684938D01*
X40835403Y-40684936D01*
X40600001Y-40664341D01*
X40599999Y-40664341D01*
X40364596Y-40684936D01*
X40364586Y-40684938D01*
X40136344Y-40746094D01*
X40136335Y-40746098D01*
X39922171Y-40845964D01*
X39922169Y-40845965D01*
X39728597Y-40981505D01*
X39561505Y-41148597D01*
X39425965Y-41342169D01*
X39425964Y-41342171D01*
X39326098Y-41556335D01*
X39326094Y-41556344D01*
X39264938Y-41784586D01*
X39264936Y-41784596D01*
X39244341Y-42019999D01*
X26300500Y-42019999D01*
X26300500Y-34724500D01*
X26320185Y-34657461D01*
X26372989Y-34611706D01*
X26424500Y-34600500D01*
X107075500Y-34600500D01*
X107142539Y-34620185D01*
G37*
%TD.AperFunction*%
%TD*%
M02*
