%TF.GenerationSoftware,KiCad,Pcbnew,8.0.6-8.0.6-0~ubuntu24.04.1*%
%TF.CreationDate,2024-10-19T11:53:00+02:00*%
%TF.ProjectId,K3NG-rotator-shield,4b334e47-2d72-46f7-9461-746f722d7368,rev?*%
%TF.SameCoordinates,Original*%
%TF.FileFunction,Copper,L2,Bot*%
%TF.FilePolarity,Positive*%
%FSLAX46Y46*%
G04 Gerber Fmt 4.6, Leading zero omitted, Abs format (unit mm)*
G04 Created by KiCad (PCBNEW 8.0.6-8.0.6-0~ubuntu24.04.1) date 2024-10-19 11:53:00*
%MOMM*%
%LPD*%
G01*
G04 APERTURE LIST*
%TA.AperFunction,ComponentPad*%
%ADD10C,1.600000*%
%TD*%
%TA.AperFunction,ComponentPad*%
%ADD11C,7.500000*%
%TD*%
%TA.AperFunction,ComponentPad*%
%ADD12C,0.500000*%
%TD*%
%TA.AperFunction,SMDPad,CuDef*%
%ADD13R,1.800000X2.500000*%
%TD*%
%TA.AperFunction,ComponentPad*%
%ADD14O,1.727200X1.727200*%
%TD*%
%TA.AperFunction,ComponentPad*%
%ADD15R,1.727200X1.727200*%
%TD*%
%TA.AperFunction,ComponentPad*%
%ADD16C,1.400000*%
%TD*%
%TA.AperFunction,ComponentPad*%
%ADD17O,1.400000X1.400000*%
%TD*%
%TA.AperFunction,ComponentPad*%
%ADD18R,1.700000X1.700000*%
%TD*%
%TA.AperFunction,ComponentPad*%
%ADD19O,1.700000X1.700000*%
%TD*%
%TA.AperFunction,ComponentPad*%
%ADD20R,2.000000X2.000000*%
%TD*%
%TA.AperFunction,ComponentPad*%
%ADD21C,2.000000*%
%TD*%
%TA.AperFunction,ViaPad*%
%ADD22C,0.600000*%
%TD*%
%TA.AperFunction,Conductor*%
%ADD23C,0.600000*%
%TD*%
%TA.AperFunction,Conductor*%
%ADD24C,2.000000*%
%TD*%
G04 APERTURE END LIST*
D10*
%TO.P,C1,1*%
%TO.N,/AzimuthV*%
X159280000Y-79150000D03*
%TO.P,C1,2*%
%TO.N,GND*%
X164280000Y-79150000D03*
%TD*%
D11*
%TO.P,J15,1,Pin_1*%
%TO.N,GND*%
X183750000Y-155250000D03*
%TD*%
D10*
%TO.P,C3,1*%
%TO.N,VM*%
X169250000Y-136000000D03*
%TO.P,C3,2*%
%TO.N,GND*%
X169250000Y-131000000D03*
%TD*%
D11*
%TO.P,J14,1,Pin_1*%
%TO.N,GND*%
X133250000Y-155000000D03*
%TD*%
D12*
%TO.P,U2,9,9*%
%TO.N,GND*%
X170625000Y-144835000D03*
X170625000Y-145835000D03*
X170625000Y-146835000D03*
D13*
X171275000Y-145835000D03*
D12*
X171925000Y-144835000D03*
X171925000Y-145835000D03*
X171925000Y-146835000D03*
%TD*%
D14*
%TO.P,A1,*%
%TO.N,*%
X134250000Y-52920000D03*
%TO.P,A1,3V3,3.3V*%
%TO.N,Vref*%
X134250000Y-60540000D03*
%TO.P,A1,5V1,5V*%
%TO.N,5V*%
X134250000Y-63080000D03*
%TO.P,A1,5V2,SPI_5V*%
%TO.N,unconnected-(A1-SPI_5V-Pad5V2)*%
X162190000Y-91147000D03*
%TO.P,A1,5V3,5V*%
%TO.N,unconnected-(A1-5V-Pad5V3)*%
X182510000Y-118960000D03*
%TO.P,A1,5V4,5V*%
%TO.N,unconnected-(A1-5V-Pad5V4)*%
X182510000Y-121500000D03*
%TO.P,A1,A0,A0*%
%TO.N,Net-(A1-PadA0)*%
X134250000Y-75780000D03*
%TO.P,A1,A1,A1*%
%TO.N,Net-(A1-PadA1)*%
X134250000Y-78320000D03*
%TO.P,A1,A2,A2*%
%TO.N,IPRO1*%
X134250000Y-80860000D03*
%TO.P,A1,A3,A3*%
%TO.N,IPRO2*%
X134250000Y-83400000D03*
%TO.P,A1,A4,A4*%
%TO.N,unconnected-(A1-PadA4)*%
X134250000Y-85940000D03*
%TO.P,A1,A5,A5*%
%TO.N,unconnected-(A1-PadA5)*%
X134250000Y-88480000D03*
%TO.P,A1,A6,A6*%
%TO.N,unconnected-(A1-PadA6)*%
X134250000Y-91020000D03*
%TO.P,A1,A7,A7*%
%TO.N,unconnected-(A1-PadA7)*%
X134250000Y-93560000D03*
%TO.P,A1,A8,A8*%
%TO.N,unconnected-(A1-PadA8)*%
X134250000Y-98640000D03*
%TO.P,A1,A9,A9*%
%TO.N,unconnected-(A1-PadA9)*%
X134250000Y-101180000D03*
%TO.P,A1,A10,A10*%
%TO.N,unconnected-(A1-PadA10)*%
X134250000Y-103720000D03*
%TO.P,A1,A11,A11*%
%TO.N,unconnected-(A1-PadA11)*%
X134250000Y-106260000D03*
%TO.P,A1,A12,A12*%
%TO.N,unconnected-(A1-PadA12)*%
X134250000Y-108800000D03*
%TO.P,A1,A13,A13*%
%TO.N,unconnected-(A1-PadA13)*%
X134250000Y-111340000D03*
%TO.P,A1,A14,A14*%
%TO.N,unconnected-(A1-PadA14)*%
X134250000Y-113880000D03*
%TO.P,A1,A15,A15*%
%TO.N,unconnected-(A1-PadA15)*%
X134250000Y-116420000D03*
%TO.P,A1,AREF,AREF*%
%TO.N,unconnected-(A1-PadAREF)*%
X182510000Y-48856000D03*
%TO.P,A1,D0,D0/RX0*%
%TO.N,unconnected-(A1-D0{slash}RX0-PadD0)*%
X182510000Y-88480000D03*
%TO.P,A1,D1,D1/TX0*%
%TO.N,unconnected-(A1-D1{slash}TX0-PadD1)*%
X182510000Y-85940000D03*
%TO.P,A1,D2,D2_INT0*%
%TO.N,unconnected-(A1-D2_INT0-PadD2)*%
X182510000Y-83400000D03*
%TO.P,A1,D3,D3_INT1*%
%TO.N,unconnected-(A1-D3_INT1-PadD3)*%
X182510000Y-80860000D03*
%TO.P,A1,D4,D4*%
%TO.N,unconnected-(A1-PadD4)*%
X182510000Y-78320000D03*
%TO.P,A1,D5,D5*%
%TO.N,RotateUP*%
X182510000Y-75780000D03*
%TO.P,A1,D6,D6*%
%TO.N,RotateCCW*%
X182510000Y-73240000D03*
%TO.P,A1,D7,D7*%
%TO.N,RotateCW*%
X182510000Y-70700000D03*
%TO.P,A1,D8,D8*%
%TO.N,RotateDown*%
X182510000Y-66636000D03*
%TO.P,A1,D9,D9*%
%TO.N,unconnected-(A1-PadD9)*%
X182510000Y-64096000D03*
%TO.P,A1,D10,D10*%
%TO.N,unconnected-(A1-PadD10)*%
X182510000Y-61556000D03*
%TO.P,A1,D11,D11*%
%TO.N,unconnected-(A1-PadD11)*%
X182510000Y-59016000D03*
%TO.P,A1,D12,D12*%
%TO.N,unconnected-(A1-PadD12)*%
X182510000Y-56476000D03*
%TO.P,A1,D13,D13*%
%TO.N,unconnected-(A1-PadD13)*%
X182510000Y-53936000D03*
%TO.P,A1,D14,D14/TX3*%
%TO.N,unconnected-(A1-D14{slash}TX3-PadD14)*%
X182510000Y-93560000D03*
%TO.P,A1,D15,D15/RX3*%
%TO.N,unconnected-(A1-D15{slash}RX3-PadD15)*%
X182510000Y-96100000D03*
%TO.P,A1,D16,D16/TX2*%
%TO.N,unconnected-(A1-D16{slash}TX2-PadD16)*%
X182510000Y-98640000D03*
%TO.P,A1,D17,D17/RX2*%
%TO.N,unconnected-(A1-D17{slash}RX2-PadD17)*%
X182510000Y-101180000D03*
%TO.P,A1,D18,D18/TX1*%
%TO.N,unconnected-(A1-D18{slash}TX1-PadD18)*%
X182510000Y-103720000D03*
%TO.P,A1,D19,D19/RX1*%
%TO.N,unconnected-(A1-D19{slash}RX1-PadD19)*%
X182510000Y-106260000D03*
%TO.P,A1,D20,D20/SDA*%
%TO.N,unconnected-(A1-D20{slash}SDA-PadD20)*%
X182510000Y-108800000D03*
%TO.P,A1,D21,D21/SCL*%
%TO.N,unconnected-(A1-D21{slash}SCL-PadD21)*%
X182510000Y-111340000D03*
%TO.P,A1,D22,D22*%
%TO.N,unconnected-(A1-PadD22)*%
X179970000Y-118960000D03*
%TO.P,A1,D23,D23*%
%TO.N,unconnected-(A1-PadD23)*%
X179970000Y-121500000D03*
%TO.P,A1,D24,D24*%
%TO.N,unconnected-(A1-PadD24)*%
X177430000Y-118960000D03*
%TO.P,A1,D25,D25*%
%TO.N,unconnected-(A1-PadD25)*%
X177430000Y-121500000D03*
%TO.P,A1,D26,D26*%
%TO.N,unconnected-(A1-PadD26)*%
X174890000Y-118960000D03*
%TO.P,A1,D27,D27*%
%TO.N,unconnected-(A1-PadD27)*%
X174890000Y-121500000D03*
%TO.P,A1,D28,D28*%
%TO.N,unconnected-(A1-PadD28)*%
X172350000Y-118960000D03*
%TO.P,A1,D29,D29*%
%TO.N,unconnected-(A1-PadD29)*%
X172350000Y-121500000D03*
%TO.P,A1,D30,D30*%
%TO.N,unconnected-(A1-PadD30)*%
X169810000Y-118960000D03*
%TO.P,A1,D31,D31*%
%TO.N,unconnected-(A1-PadD31)*%
X169810000Y-121500000D03*
%TO.P,A1,D32,D32*%
%TO.N,unconnected-(A1-PadD32)*%
X167270000Y-118960000D03*
%TO.P,A1,D33,D33*%
%TO.N,unconnected-(A1-PadD33)*%
X167270000Y-121500000D03*
%TO.P,A1,D34,D34*%
%TO.N,unconnected-(A1-PadD34)*%
X164730000Y-118960000D03*
%TO.P,A1,D35,D35*%
%TO.N,unconnected-(A1-PadD35)*%
X164730000Y-121500000D03*
%TO.P,A1,D36,D36*%
%TO.N,unconnected-(A1-PadD36)*%
X162190000Y-118960000D03*
%TO.P,A1,D37,D37*%
%TO.N,unconnected-(A1-PadD37)*%
X162190000Y-121500000D03*
%TO.P,A1,D38,D38*%
%TO.N,unconnected-(A1-PadD38)*%
X159650000Y-118960000D03*
%TO.P,A1,D39,D39*%
%TO.N,unconnected-(A1-PadD39)*%
X159650000Y-121500000D03*
%TO.P,A1,D40,D40*%
%TO.N,unconnected-(A1-PadD40)*%
X157110000Y-118960000D03*
%TO.P,A1,D41,D41*%
%TO.N,unconnected-(A1-PadD41)*%
X157110000Y-121500000D03*
%TO.P,A1,D42,D42*%
%TO.N,unconnected-(A1-PadD42)*%
X154570000Y-118960000D03*
%TO.P,A1,D43,D43*%
%TO.N,/Turn CW*%
X154570000Y-121500000D03*
%TO.P,A1,D44,D44*%
%TO.N,/Turn CCW*%
X152030000Y-118960000D03*
%TO.P,A1,D45,D45*%
%TO.N,/UP*%
X152030000Y-121500000D03*
%TO.P,A1,D46,D46*%
%TO.N,/DOWN*%
X149490000Y-118960000D03*
%TO.P,A1,D47,D47*%
%TO.N,Net-(J6-Pin_7)*%
X149490000Y-121500000D03*
%TO.P,A1,D48,D48*%
%TO.N,unconnected-(A1-PadD48)*%
X146950000Y-118960000D03*
%TO.P,A1,D49,D49*%
%TO.N,unconnected-(A1-PadD49)*%
X146950000Y-121500000D03*
%TO.P,A1,D50,D50_MISO*%
%TO.N,unconnected-(A1-D50_MISO-PadD50)*%
X144410000Y-118960000D03*
%TO.P,A1,D51,D51_MOSI*%
%TO.N,unconnected-(A1-D51_MOSI-PadD51)*%
X144410000Y-121500000D03*
%TO.P,A1,D52,D52_SCK*%
%TO.N,unconnected-(A1-D52_SCK-PadD52)*%
X141870000Y-118960000D03*
%TO.P,A1,D53,D53_CS*%
%TO.N,unconnected-(A1-D53_CS-PadD53)*%
X141870000Y-121500000D03*
D15*
%TO.P,A1,GND1,GND*%
%TO.N,GND*%
X182510000Y-51396000D03*
%TO.P,A1,GND2,GND*%
X134250000Y-65620000D03*
%TO.P,A1,GND3,GND*%
X134250000Y-68160000D03*
%TO.P,A1,GND4,SPI_GND*%
X157110000Y-91147000D03*
%TO.P,A1,GND5,GND*%
X139330000Y-118960000D03*
%TO.P,A1,GND6,GND*%
X139330000Y-121500000D03*
D14*
%TO.P,A1,IORF,IOREF*%
%TO.N,unconnected-(A1-IOREF-PadIORF)*%
X134250000Y-55460000D03*
%TO.P,A1,MISO,SPI_MISO*%
%TO.N,unconnected-(A1-SPI_MISO-PadMISO)*%
X162190000Y-88607000D03*
%TO.P,A1,MOSI,SPI_MOSI*%
%TO.N,unconnected-(A1-SPI_MOSI-PadMOSI)*%
X159650000Y-91147000D03*
%TO.P,A1,RST1,RESET*%
%TO.N,unconnected-(A1-RESET-PadRST1)*%
X134250000Y-58000000D03*
%TO.P,A1,RST2,SPI_RESET*%
%TO.N,unconnected-(A1-SPI_RESET-PadRST2)*%
X157110000Y-88607000D03*
%TO.P,A1,SCK,SPI_SCK*%
%TO.N,unconnected-(A1-SPI_SCK-PadSCK)*%
X159650000Y-88607000D03*
%TO.P,A1,SCL,SCL*%
%TO.N,/SCL*%
X182510000Y-43776000D03*
%TO.P,A1,SDA,SDA*%
%TO.N,/SDA*%
X182510000Y-46316000D03*
%TO.P,A1,VIN,VIN*%
%TO.N,unconnected-(A1-PadVIN)*%
X134250000Y-70700000D03*
%TD*%
D16*
%TO.P,R4,1*%
%TO.N,IPRO2*%
X142920000Y-132500000D03*
D17*
%TO.P,R4,2*%
%TO.N,GND*%
X148000000Y-132500000D03*
%TD*%
D18*
%TO.P,J6,1,Pin_1*%
%TO.N,GND*%
X150980000Y-103800000D03*
D19*
%TO.P,J6,2,Pin_2*%
X153520000Y-103800000D03*
%TO.P,J6,3,Pin_3*%
%TO.N,/Turn CW*%
X156060000Y-103800000D03*
%TO.P,J6,4,Pin_4*%
%TO.N,/Turn CCW*%
X158600000Y-103800000D03*
%TO.P,J6,5,Pin_5*%
%TO.N,/UP*%
X161140000Y-103800000D03*
%TO.P,J6,6,Pin_6*%
%TO.N,/DOWN*%
X163680000Y-103800000D03*
%TO.P,J6,7,Pin_7*%
%TO.N,Net-(J6-Pin_7)*%
X166220000Y-103800000D03*
%TD*%
D16*
%TO.P,R2,1*%
%TO.N,/AzimuthV*%
X150000000Y-83000000D03*
D17*
%TO.P,R2,2*%
%TO.N,Net-(A1-PadA0)*%
X155080000Y-83000000D03*
%TD*%
D18*
%TO.P,J4,1,Pin_1*%
%TO.N,/SDA*%
X153720000Y-55600000D03*
D19*
%TO.P,J4,2,Pin_2*%
%TO.N,/SCL*%
X156260000Y-55600000D03*
%TO.P,J4,3,Pin_3*%
%TO.N,5V*%
X158800000Y-55600000D03*
%TO.P,J4,4,Pin_4*%
%TO.N,GND*%
X161340000Y-55600000D03*
%TD*%
D18*
%TO.P,J7,1,Pin_1*%
%TO.N,/AzimuthV*%
X151120000Y-69200000D03*
D19*
%TO.P,J7,2,Pin_2*%
%TO.N,/ElevationV*%
X153660000Y-69200000D03*
%TO.P,J7,3,Pin_3*%
%TO.N,unconnected-(J7-Pin_3-Pad3)*%
X156200000Y-69200000D03*
%TO.P,J7,4,Pin_4*%
%TO.N,unconnected-(J7-Pin_4-Pad4)*%
X158740000Y-69200000D03*
%TO.P,J7,5,Pin_5*%
%TO.N,unconnected-(J7-Pin_5-Pad5)*%
X161280000Y-69200000D03*
%TO.P,J7,6,Pin_6*%
%TO.N,unconnected-(J7-Pin_6-Pad6)*%
X163820000Y-69200000D03*
%TD*%
D20*
%TO.P,C4,1*%
%TO.N,VM*%
X180750000Y-133250000D03*
D21*
%TO.P,C4,2*%
%TO.N,GND*%
X175750000Y-133250000D03*
%TD*%
D18*
%TO.P,J3,1,Pin_1*%
%TO.N,VM*%
X133000000Y-136540000D03*
D19*
%TO.P,J3,2,Pin_2*%
%TO.N,GND*%
X133000000Y-134000000D03*
%TD*%
D16*
%TO.P,R3,1*%
%TO.N,IPRO1*%
X148000000Y-136500000D03*
D17*
%TO.P,R3,2*%
%TO.N,GND*%
X142920000Y-136500000D03*
%TD*%
D16*
%TO.P,R1,1*%
%TO.N,/ElevationV*%
X150000000Y-79850000D03*
D17*
%TO.P,R1,2*%
%TO.N,Net-(A1-PadA1)*%
X155080000Y-79850000D03*
%TD*%
D12*
%TO.P,U1,9,9*%
%TO.N,GND*%
X145705000Y-144835000D03*
X145705000Y-145835000D03*
X145705000Y-146835000D03*
D13*
X146355000Y-145835000D03*
D12*
X147005000Y-144835000D03*
X147005000Y-145835000D03*
X147005000Y-146835000D03*
%TD*%
D18*
%TO.P,J2,1,Pin_1*%
%TO.N,RotateCW-OUT*%
X185800000Y-148020000D03*
D19*
%TO.P,J2,2,Pin_2*%
%TO.N,RotateCCW-OUT*%
X185800000Y-145480000D03*
%TO.P,J2,3,Pin_3*%
%TO.N,RotateDown-OUT*%
X185800000Y-142940000D03*
%TO.P,J2,4,Pin_4*%
%TO.N,RotateUP-OUT*%
X185800000Y-140400000D03*
%TD*%
D10*
%TO.P,C2,1*%
%TO.N,/ElevationV*%
X159280000Y-83200000D03*
%TO.P,C2,2*%
%TO.N,GND*%
X164280000Y-83200000D03*
%TD*%
D22*
%TO.N,GND*%
X166000000Y-146800000D03*
%TO.N,IPRO1*%
X169268400Y-141699800D03*
%TO.N,RotateDown*%
X180578800Y-125579700D03*
%TO.N,GND*%
X158000000Y-146400000D03*
%TO.N,Vref*%
X147124700Y-147880800D03*
X167546500Y-147071900D03*
%TO.N,RotateCCW-OUT*%
X151072800Y-143133100D03*
%TO.N,RotateCW-OUT*%
X151179700Y-146211100D03*
%TD*%
D23*
%TO.N,5V*%
X158800000Y-55600000D02*
X151320000Y-63080000D01*
X151320000Y-63080000D02*
X134250000Y-63080000D01*
%TO.N,IPRO1*%
X131939000Y-123159500D02*
X145279500Y-136500000D01*
X148000000Y-136500000D02*
X153199800Y-141699800D01*
X153199800Y-141699800D02*
X169268400Y-141699800D01*
X134250000Y-80860000D02*
X131939000Y-83171000D01*
X131939000Y-83171000D02*
X131939000Y-123159500D01*
X145279500Y-136500000D02*
X148000000Y-136500000D01*
%TO.N,IPRO2*%
X136535700Y-85685700D02*
X136535700Y-126115700D01*
X134250000Y-83400000D02*
X136535700Y-85685700D01*
X136535700Y-126115700D02*
X142920000Y-132500000D01*
%TO.N,RotateDown*%
X184825400Y-70415000D02*
X184825400Y-121333100D01*
X182510000Y-66636000D02*
X182510000Y-68099600D01*
X182510000Y-68099600D02*
X184825400Y-70415000D01*
X184825400Y-121333100D02*
X180578800Y-125579700D01*
%TO.N,Vref*%
X165224100Y-144749500D02*
X167546500Y-147071900D01*
X150256000Y-144749500D02*
X165224100Y-144749500D01*
X147124700Y-147880800D02*
X150256000Y-144749500D01*
%TO.N,/AzimuthV*%
X151662700Y-83000000D02*
X153237700Y-81425000D01*
X150000000Y-83000000D02*
X151662700Y-83000000D01*
X157005000Y-81425000D02*
X159280000Y-79150000D01*
X153237700Y-81425000D02*
X157005000Y-81425000D01*
%TO.N,/ElevationV*%
X153660000Y-76190000D02*
X150000000Y-79850000D01*
X153660000Y-69200000D02*
X153660000Y-76190000D01*
D24*
%TO.N,VM*%
X178450000Y-133250000D02*
X178450000Y-133609400D01*
X180750000Y-133250000D02*
X178450000Y-133250000D01*
X178450000Y-133609400D02*
X176059400Y-136000000D01*
X176059400Y-136000000D02*
X169250000Y-136000000D01*
%TO.N,RotateCCW-OUT*%
X151072800Y-143133100D02*
X172746600Y-143133100D01*
X175093500Y-145480000D02*
X185800000Y-145480000D01*
X172746600Y-143133100D02*
X175093500Y-145480000D01*
D23*
%TO.N,/DOWN*%
X163200000Y-105250000D02*
X149490000Y-118960000D01*
X163680000Y-103800000D02*
X163680000Y-105250000D01*
X163680000Y-105250000D02*
X163200000Y-105250000D01*
%TO.N,/Turn CW*%
X137267400Y-122829000D02*
X137267400Y-117644500D01*
X154570000Y-121500000D02*
X152463700Y-123606300D01*
X150193500Y-109666500D02*
X156060000Y-103800000D01*
X137267400Y-117644500D02*
X145245400Y-109666500D01*
X145245400Y-109666500D02*
X150193500Y-109666500D01*
X138044700Y-123606300D02*
X137267400Y-122829000D01*
X152463700Y-123606300D02*
X138044700Y-123606300D01*
%TO.N,/UP*%
X140698500Y-115253700D02*
X149686300Y-115253700D01*
X137999100Y-117953100D02*
X140698500Y-115253700D01*
X149686300Y-115253700D02*
X161140000Y-103800000D01*
X138327200Y-122845500D02*
X137999100Y-122517400D01*
X150684500Y-122845500D02*
X138327200Y-122845500D01*
X152030000Y-121500000D02*
X150684500Y-122845500D01*
X137999100Y-122517400D02*
X137999100Y-117953100D01*
%TO.N,/SCL*%
X156260000Y-55600000D02*
X168084000Y-43776000D01*
X168084000Y-43776000D02*
X182510000Y-43776000D01*
%TO.N,Net-(A1-PadA1)*%
X152576200Y-81051600D02*
X138445200Y-81051600D01*
X155080000Y-79850000D02*
X153780000Y-79850000D01*
X134250000Y-78320000D02*
X135713600Y-78320000D01*
X138445200Y-81051600D02*
X135713600Y-78320000D01*
X153780000Y-79850000D02*
X153777800Y-79850000D01*
X153777800Y-79850000D02*
X152576200Y-81051600D01*
D24*
%TO.N,RotateCW-OUT*%
X183650000Y-148020000D02*
X183143300Y-148526700D01*
X185800000Y-148020000D02*
X183650000Y-148020000D01*
X183143300Y-148526700D02*
X153495300Y-148526700D01*
X153495300Y-148526700D02*
X151179700Y-146211100D01*
%TD*%
%TA.AperFunction,Conductor*%
%TO.N,GND*%
G36*
X165057316Y-145209685D02*
G01*
X165077958Y-145226319D01*
X167026158Y-147174519D01*
X167059643Y-147235842D01*
X167054659Y-147305534D01*
X167012787Y-147361467D01*
X166947323Y-147385884D01*
X166938477Y-147386200D01*
X154019073Y-147386200D01*
X153952034Y-147366515D01*
X153931392Y-147349881D01*
X151983191Y-145401681D01*
X151949706Y-145340358D01*
X151954690Y-145270666D01*
X151996562Y-145214733D01*
X152062026Y-145190316D01*
X152070872Y-145190000D01*
X164990277Y-145190000D01*
X165057316Y-145209685D01*
G37*
%TD.AperFunction*%
%TA.AperFunction,Conductor*%
G36*
X187352539Y-24350185D02*
G01*
X187398294Y-24402989D01*
X187409500Y-24454500D01*
X187409500Y-158805500D01*
X187389815Y-158872539D01*
X187337011Y-158918294D01*
X187285500Y-158929500D01*
X129284500Y-158929500D01*
X129217461Y-158909815D01*
X129171706Y-158857011D01*
X129160500Y-158805500D01*
X129160500Y-135676160D01*
X132009500Y-135676160D01*
X132009500Y-137403836D01*
X132009501Y-137403839D01*
X132009501Y-137403840D01*
X132017651Y-137444821D01*
X132048705Y-137491295D01*
X132095179Y-137522349D01*
X132136159Y-137530500D01*
X133863840Y-137530499D01*
X133904821Y-137522349D01*
X133951295Y-137491295D01*
X133982349Y-137444821D01*
X133990500Y-137403841D01*
X133990499Y-135676160D01*
X133982349Y-135635179D01*
X133951295Y-135588705D01*
X133904821Y-135557651D01*
X133863841Y-135549500D01*
X133863839Y-135549500D01*
X132136163Y-135549500D01*
X132095179Y-135557651D01*
X132048705Y-135588705D01*
X132038401Y-135604124D01*
X132017651Y-135635178D01*
X132009500Y-135676160D01*
X129160500Y-135676160D01*
X129160500Y-83113007D01*
X131498500Y-83113007D01*
X131498500Y-123217492D01*
X131528519Y-123329528D01*
X131553296Y-123372442D01*
X131586512Y-123429973D01*
X144927012Y-136770473D01*
X145009027Y-136852488D01*
X145109473Y-136910481D01*
X145221507Y-136940500D01*
X147212222Y-136940500D01*
X147279261Y-136960185D01*
X147312538Y-136991612D01*
X147316269Y-136996748D01*
X147316274Y-136996754D01*
X147316275Y-136996755D01*
X147434498Y-137128054D01*
X147577435Y-137231904D01*
X147738835Y-137303764D01*
X147738840Y-137303766D01*
X147911660Y-137340500D01*
X147911661Y-137340500D01*
X148088336Y-137340500D01*
X148088340Y-137340500D01*
X148129036Y-137331849D01*
X148198700Y-137337164D01*
X148242497Y-137365458D01*
X152657958Y-141780919D01*
X152691443Y-141842242D01*
X152686459Y-141911934D01*
X152644587Y-141967867D01*
X152579123Y-141992284D01*
X152570277Y-141992600D01*
X150983041Y-141992600D01*
X150923938Y-142001961D01*
X150805730Y-142020683D01*
X150635002Y-142076155D01*
X150475044Y-142157659D01*
X150329819Y-142263169D01*
X150202869Y-142390119D01*
X150097359Y-142535344D01*
X150015855Y-142695302D01*
X149960383Y-142866030D01*
X149932300Y-143043341D01*
X149932300Y-143222858D01*
X149960383Y-143400169D01*
X150015855Y-143570897D01*
X150097359Y-143730855D01*
X150202869Y-143876080D01*
X150329819Y-144003030D01*
X150442205Y-144084682D01*
X150484871Y-144140011D01*
X150490850Y-144209625D01*
X150458245Y-144271420D01*
X150397406Y-144305777D01*
X150369320Y-144309000D01*
X150198007Y-144309000D01*
X150085971Y-144339019D01*
X149985527Y-144397012D01*
X149985524Y-144397014D01*
X146856134Y-147526403D01*
X146835505Y-147543030D01*
X146833271Y-147544465D01*
X146833265Y-147544471D01*
X146804992Y-147577099D01*
X146798965Y-147583573D01*
X146772211Y-147610328D01*
X146770164Y-147613874D01*
X146756501Y-147633061D01*
X146750317Y-147640198D01*
X146735180Y-147673342D01*
X146729778Y-147683820D01*
X146714217Y-147710775D01*
X146714216Y-147710777D01*
X146711403Y-147721275D01*
X146704430Y-147740673D01*
X146697696Y-147755420D01*
X146697695Y-147755423D01*
X146693467Y-147784830D01*
X146690506Y-147799268D01*
X146684200Y-147822803D01*
X146684200Y-147840423D01*
X146682938Y-147858069D01*
X146679670Y-147880799D01*
X146682938Y-147903529D01*
X146684200Y-147921176D01*
X146684200Y-147938796D01*
X146690506Y-147962330D01*
X146693469Y-147976774D01*
X146697696Y-148006178D01*
X146704427Y-148020916D01*
X146711406Y-148040331D01*
X146714216Y-148050820D01*
X146714222Y-148050833D01*
X146729772Y-148077769D01*
X146735176Y-148088250D01*
X146745000Y-148109759D01*
X146750317Y-148121401D01*
X146756492Y-148128527D01*
X146770166Y-148147730D01*
X146772212Y-148151273D01*
X146798967Y-148178028D01*
X146804986Y-148184494D01*
X146833264Y-148217128D01*
X146833267Y-148217131D01*
X146835493Y-148218562D01*
X146847719Y-148228414D01*
X146847777Y-148228339D01*
X146854220Y-148233283D01*
X146854224Y-148233285D01*
X146854227Y-148233288D01*
X146892830Y-148255575D01*
X146897847Y-148258634D01*
X146939824Y-148285612D01*
X146941190Y-148286235D01*
X146949962Y-148289330D01*
X146954667Y-148291278D01*
X146954668Y-148291278D01*
X146954673Y-148291281D01*
X147004275Y-148304571D01*
X147006969Y-148305327D01*
X147061366Y-148321300D01*
X147061367Y-148321300D01*
X147188033Y-148321300D01*
X147188034Y-148321300D01*
X147242438Y-148305324D01*
X147245136Y-148304567D01*
X147294727Y-148291281D01*
X147294737Y-148291275D01*
X147299421Y-148289335D01*
X147308212Y-148286234D01*
X147309565Y-148285615D01*
X147309572Y-148285614D01*
X147351572Y-148258621D01*
X147356564Y-148255577D01*
X147395173Y-148233288D01*
X147395177Y-148233283D01*
X147401623Y-148228338D01*
X147401682Y-148228415D01*
X147413906Y-148218561D01*
X147416133Y-148217131D01*
X147444420Y-148184483D01*
X147450425Y-148178034D01*
X149886334Y-145742126D01*
X149947656Y-145708642D01*
X150017348Y-145713626D01*
X150073281Y-145755498D01*
X150097698Y-145820962D01*
X150091945Y-145868125D01*
X150067283Y-145944028D01*
X150046104Y-146077752D01*
X150039200Y-146121341D01*
X150039200Y-146300859D01*
X150046972Y-146349930D01*
X150067283Y-146478169D01*
X150122755Y-146648897D01*
X150186844Y-146774678D01*
X150204257Y-146808852D01*
X150309776Y-146954086D01*
X150309778Y-146954088D01*
X152752315Y-149396626D01*
X152752319Y-149396630D01*
X152888216Y-149495363D01*
X152897548Y-149502143D01*
X153057500Y-149583643D01*
X153057502Y-149583644D01*
X153142866Y-149611380D01*
X153228232Y-149639117D01*
X153405541Y-149667200D01*
X153405542Y-149667200D01*
X183233058Y-149667200D01*
X183233059Y-149667200D01*
X183410368Y-149639117D01*
X183581100Y-149583643D01*
X183741052Y-149502143D01*
X183822593Y-149442900D01*
X183886280Y-149396630D01*
X183886282Y-149396627D01*
X183886286Y-149396625D01*
X184013225Y-149269686D01*
X184013226Y-149269684D01*
X184020288Y-149262622D01*
X184020291Y-149262617D01*
X184086093Y-149196817D01*
X184147417Y-149163333D01*
X184173773Y-149160500D01*
X185889758Y-149160500D01*
X185889759Y-149160500D01*
X186067068Y-149132417D01*
X186237800Y-149076943D01*
X186341678Y-149024013D01*
X186397972Y-149010499D01*
X186663836Y-149010499D01*
X186663840Y-149010499D01*
X186704821Y-149002349D01*
X186751295Y-148971295D01*
X186782349Y-148924821D01*
X186790500Y-148883841D01*
X186790499Y-148617969D01*
X186804015Y-148561674D01*
X186856940Y-148457805D01*
X186856943Y-148457800D01*
X186912417Y-148287068D01*
X186940500Y-148109759D01*
X186940500Y-147930241D01*
X186912417Y-147752932D01*
X186856943Y-147582200D01*
X186804014Y-147478321D01*
X186790499Y-147422026D01*
X186790499Y-147156163D01*
X186790499Y-147156160D01*
X186782349Y-147115179D01*
X186751295Y-147068705D01*
X186704821Y-147037651D01*
X186663841Y-147029500D01*
X186663840Y-147029500D01*
X186397972Y-147029500D01*
X186341677Y-147015985D01*
X186237802Y-146963058D01*
X186237801Y-146963057D01*
X186237800Y-146963057D01*
X186141545Y-146931782D01*
X186067069Y-146907583D01*
X185978413Y-146893541D01*
X185889759Y-146879500D01*
X183560241Y-146879500D01*
X183501138Y-146888861D01*
X183382930Y-146907583D01*
X183212202Y-146963055D01*
X183052244Y-147044559D01*
X182907019Y-147150069D01*
X182907015Y-147150073D01*
X182707208Y-147349881D01*
X182645885Y-147383366D01*
X182619527Y-147386200D01*
X168080173Y-147386200D01*
X168013134Y-147366515D01*
X167967379Y-147313711D01*
X167957435Y-147244553D01*
X167967380Y-147210686D01*
X167973502Y-147197281D01*
X167973501Y-147197281D01*
X167973503Y-147197279D01*
X167977732Y-147167860D01*
X167980691Y-147153436D01*
X167987000Y-147129894D01*
X167987000Y-147112276D01*
X167988262Y-147094629D01*
X167991530Y-147071899D01*
X167988262Y-147049169D01*
X167987000Y-147031523D01*
X167987000Y-147013910D01*
X167986999Y-147013903D01*
X167980694Y-146990371D01*
X167977731Y-146975926D01*
X167975881Y-146963058D01*
X167973503Y-146946521D01*
X167966772Y-146931782D01*
X167959792Y-146912364D01*
X167956981Y-146901873D01*
X167941427Y-146874934D01*
X167936018Y-146864442D01*
X167920883Y-146831299D01*
X167914705Y-146824168D01*
X167901034Y-146804971D01*
X167898988Y-146801427D01*
X167872224Y-146774663D01*
X167866220Y-146768215D01*
X167837933Y-146735569D01*
X167837932Y-146735568D01*
X167835705Y-146734137D01*
X167815063Y-146717502D01*
X165582842Y-144485281D01*
X165549357Y-144423958D01*
X165554341Y-144354266D01*
X165596213Y-144298333D01*
X165661677Y-144273916D01*
X165670523Y-144273600D01*
X172222828Y-144273600D01*
X172289867Y-144293285D01*
X172310509Y-144309919D01*
X174350515Y-146349926D01*
X174350519Y-146349930D01*
X174486416Y-146448663D01*
X174495748Y-146455443D01*
X174655700Y-146536943D01*
X174655702Y-146536944D01*
X174741066Y-146564680D01*
X174826432Y-146592417D01*
X175003741Y-146620500D01*
X175003742Y-146620500D01*
X185889758Y-146620500D01*
X185889759Y-146620500D01*
X186067068Y-146592417D01*
X186237800Y-146536943D01*
X186397752Y-146455443D01*
X186479293Y-146396200D01*
X186542980Y-146349930D01*
X186542982Y-146349927D01*
X186542986Y-146349925D01*
X186669925Y-146222986D01*
X186669927Y-146222982D01*
X186669930Y-146222980D01*
X186743774Y-146121341D01*
X186775443Y-146077752D01*
X186856943Y-145917800D01*
X186912417Y-145747068D01*
X186940500Y-145569759D01*
X186940500Y-145390241D01*
X186912417Y-145212932D01*
X186856943Y-145042200D01*
X186775443Y-144882248D01*
X186768663Y-144872916D01*
X186669930Y-144737019D01*
X186542980Y-144610069D01*
X186397755Y-144504559D01*
X186397754Y-144504558D01*
X186397752Y-144504557D01*
X186317776Y-144463807D01*
X186237797Y-144423055D01*
X186067069Y-144367583D01*
X185978413Y-144353541D01*
X185889759Y-144339500D01*
X185889758Y-144339500D01*
X175617273Y-144339500D01*
X175550234Y-144319815D01*
X175529592Y-144303181D01*
X174166410Y-142940000D01*
X184804707Y-142940000D01*
X184823830Y-143134169D01*
X184880471Y-143320888D01*
X184972440Y-143492949D01*
X184972444Y-143492956D01*
X185096221Y-143643778D01*
X185247043Y-143767555D01*
X185247050Y-143767559D01*
X185419111Y-143859528D01*
X185419114Y-143859528D01*
X185419118Y-143859531D01*
X185605828Y-143916169D01*
X185800000Y-143935293D01*
X185994172Y-143916169D01*
X186180882Y-143859531D01*
X186352955Y-143767556D01*
X186503778Y-143643778D01*
X186627556Y-143492955D01*
X186719531Y-143320882D01*
X186776169Y-143134172D01*
X186795293Y-142940000D01*
X186776169Y-142745828D01*
X186719531Y-142559118D01*
X186719528Y-142559114D01*
X186719528Y-142559111D01*
X186627559Y-142387050D01*
X186627555Y-142387043D01*
X186503778Y-142236221D01*
X186352956Y-142112444D01*
X186352949Y-142112440D01*
X186180888Y-142020471D01*
X186180882Y-142020469D01*
X186024118Y-141972915D01*
X185994169Y-141963830D01*
X185800000Y-141944707D01*
X185605830Y-141963830D01*
X185419111Y-142020471D01*
X185247050Y-142112440D01*
X185247043Y-142112444D01*
X185096221Y-142236221D01*
X184972444Y-142387043D01*
X184972440Y-142387050D01*
X184880471Y-142559111D01*
X184823830Y-142745830D01*
X184804707Y-142940000D01*
X174166410Y-142940000D01*
X173620865Y-142394455D01*
X173620856Y-142394445D01*
X173613454Y-142387043D01*
X173489586Y-142263175D01*
X173489582Y-142263172D01*
X173489578Y-142263168D01*
X173344355Y-142157659D01*
X173344354Y-142157658D01*
X173344352Y-142157657D01*
X173255609Y-142112440D01*
X173184397Y-142076155D01*
X173013669Y-142020683D01*
X172925013Y-142006641D01*
X172836359Y-141992600D01*
X172836358Y-141992600D01*
X169811888Y-141992600D01*
X169744849Y-141972915D01*
X169699094Y-141920111D01*
X169689150Y-141850953D01*
X169692911Y-141833664D01*
X169695398Y-141825187D01*
X169695403Y-141825179D01*
X169699629Y-141795782D01*
X169702593Y-141781327D01*
X169702703Y-141780919D01*
X169708900Y-141757793D01*
X169708900Y-141740176D01*
X169710162Y-141722529D01*
X169713430Y-141699799D01*
X169710162Y-141677069D01*
X169708900Y-141659423D01*
X169708900Y-141641808D01*
X169708900Y-141641807D01*
X169702590Y-141618261D01*
X169699629Y-141603819D01*
X169695403Y-141574422D01*
X169695403Y-141574421D01*
X169688672Y-141559682D01*
X169681691Y-141540261D01*
X169678881Y-141529773D01*
X169678881Y-141529772D01*
X169663326Y-141502831D01*
X169657917Y-141492339D01*
X169642784Y-141459201D01*
X169642782Y-141459198D01*
X169636608Y-141452073D01*
X169622931Y-141432866D01*
X169620888Y-141429327D01*
X169594138Y-141402577D01*
X169588119Y-141396113D01*
X169559833Y-141363469D01*
X169559832Y-141363468D01*
X169557605Y-141362037D01*
X169545377Y-141352182D01*
X169545319Y-141352259D01*
X169538869Y-141347309D01*
X169500271Y-141325024D01*
X169495233Y-141321953D01*
X169453272Y-141294986D01*
X169453268Y-141294985D01*
X169451922Y-141294369D01*
X169443150Y-141291275D01*
X169438422Y-141289317D01*
X169388880Y-141276042D01*
X169386041Y-141275245D01*
X169331736Y-141259300D01*
X169331734Y-141259300D01*
X169326393Y-141259300D01*
X153433623Y-141259300D01*
X153366584Y-141239615D01*
X153345942Y-141222981D01*
X152522961Y-140400000D01*
X184804707Y-140400000D01*
X184823830Y-140594169D01*
X184880471Y-140780888D01*
X184972440Y-140952949D01*
X184972444Y-140952956D01*
X185096221Y-141103778D01*
X185247043Y-141227555D01*
X185247050Y-141227559D01*
X185419111Y-141319528D01*
X185419114Y-141319528D01*
X185419118Y-141319531D01*
X185605828Y-141376169D01*
X185800000Y-141395293D01*
X185994172Y-141376169D01*
X186180882Y-141319531D01*
X186226803Y-141294986D01*
X186352949Y-141227559D01*
X186352955Y-141227556D01*
X186503778Y-141103778D01*
X186627556Y-140952955D01*
X186719531Y-140780882D01*
X186776169Y-140594172D01*
X186795293Y-140400000D01*
X186776169Y-140205828D01*
X186719531Y-140019118D01*
X186719528Y-140019114D01*
X186719528Y-140019111D01*
X186627559Y-139847050D01*
X186627555Y-139847043D01*
X186503778Y-139696221D01*
X186352956Y-139572444D01*
X186352949Y-139572440D01*
X186180888Y-139480471D01*
X186180882Y-139480469D01*
X185994172Y-139423831D01*
X185994169Y-139423830D01*
X185800000Y-139404707D01*
X185605830Y-139423830D01*
X185419111Y-139480471D01*
X185247050Y-139572440D01*
X185247043Y-139572444D01*
X185096221Y-139696221D01*
X184972444Y-139847043D01*
X184972440Y-139847050D01*
X184880471Y-140019111D01*
X184823830Y-140205830D01*
X184804707Y-140400000D01*
X152522961Y-140400000D01*
X148865821Y-136742860D01*
X148832336Y-136681537D01*
X148830181Y-136642226D01*
X148845130Y-136500000D01*
X148826662Y-136324288D01*
X148772065Y-136156255D01*
X148772064Y-136156254D01*
X148772064Y-136156252D01*
X148772063Y-136156251D01*
X148711326Y-136051052D01*
X148683725Y-136003245D01*
X148599983Y-135910241D01*
X168109500Y-135910241D01*
X168109500Y-136089759D01*
X168120032Y-136156255D01*
X168137583Y-136267069D01*
X168193055Y-136437797D01*
X168274559Y-136597755D01*
X168380069Y-136742980D01*
X168507019Y-136869930D01*
X168631247Y-136960185D01*
X168652248Y-136975443D01*
X168812200Y-137056943D01*
X168812202Y-137056944D01*
X168897566Y-137084680D01*
X168982932Y-137112417D01*
X169160241Y-137140500D01*
X169160242Y-137140500D01*
X176149158Y-137140500D01*
X176149159Y-137140500D01*
X176326468Y-137112417D01*
X176497200Y-137056943D01*
X176657152Y-136975443D01*
X176705247Y-136940500D01*
X176802386Y-136869925D01*
X176929325Y-136742986D01*
X176929326Y-136742984D01*
X176936386Y-136735924D01*
X176936391Y-136735917D01*
X179245492Y-134426819D01*
X179306815Y-134393334D01*
X179333173Y-134390500D01*
X180849749Y-134390500D01*
X180849761Y-134390499D01*
X181763836Y-134390499D01*
X181763840Y-134390499D01*
X181804821Y-134382349D01*
X181851295Y-134351295D01*
X181882349Y-134304821D01*
X181890500Y-134263841D01*
X181890500Y-133303766D01*
X181890500Y-133160241D01*
X181890500Y-133152646D01*
X181890499Y-133152628D01*
X181890499Y-132236163D01*
X181890499Y-132236160D01*
X181882349Y-132195179D01*
X181851295Y-132148705D01*
X181804821Y-132117651D01*
X181763841Y-132109500D01*
X180839761Y-132109500D01*
X180839759Y-132109500D01*
X178539759Y-132109500D01*
X178360241Y-132109500D01*
X178308778Y-132117651D01*
X178182930Y-132137583D01*
X178012202Y-132193055D01*
X177852244Y-132274559D01*
X177707019Y-132380069D01*
X177580069Y-132507019D01*
X177474559Y-132652244D01*
X177393055Y-132812202D01*
X177337583Y-132982927D01*
X177337583Y-132982929D01*
X177320177Y-133092820D01*
X177290247Y-133155955D01*
X177285385Y-133161102D01*
X175623309Y-134823181D01*
X175561986Y-134856666D01*
X175535628Y-134859500D01*
X169160241Y-134859500D01*
X169101138Y-134868861D01*
X168982930Y-134887583D01*
X168812202Y-134943055D01*
X168652244Y-135024559D01*
X168507019Y-135130069D01*
X168380069Y-135257019D01*
X168274559Y-135402244D01*
X168193055Y-135562202D01*
X168137583Y-135732930D01*
X168115565Y-135871945D01*
X168109500Y-135910241D01*
X148599983Y-135910241D01*
X148565502Y-135871946D01*
X148422565Y-135768096D01*
X148422564Y-135768095D01*
X148261164Y-135696235D01*
X148261159Y-135696233D01*
X148125073Y-135667307D01*
X148088340Y-135659500D01*
X147911660Y-135659500D01*
X147881366Y-135665939D01*
X147738840Y-135696233D01*
X147738835Y-135696235D01*
X147577435Y-135768095D01*
X147434499Y-135871945D01*
X147316269Y-136003251D01*
X147312538Y-136008388D01*
X147257207Y-136051052D01*
X147212222Y-136059500D01*
X145513323Y-136059500D01*
X145446284Y-136039815D01*
X145425642Y-136023181D01*
X142950969Y-133548508D01*
X142917484Y-133487185D01*
X142922468Y-133417493D01*
X142964340Y-133361560D01*
X143012867Y-133339537D01*
X143181160Y-133303766D01*
X143342565Y-133231904D01*
X143485502Y-133128054D01*
X143603725Y-132996755D01*
X143692065Y-132843745D01*
X143746662Y-132675712D01*
X143765130Y-132500000D01*
X143746662Y-132324288D01*
X143692065Y-132156255D01*
X143692064Y-132156254D01*
X143692064Y-132156252D01*
X143692063Y-132156251D01*
X143603727Y-132003249D01*
X143603725Y-132003245D01*
X143485502Y-131871946D01*
X143342565Y-131768096D01*
X143342564Y-131768095D01*
X143181164Y-131696235D01*
X143181159Y-131696233D01*
X143024025Y-131662834D01*
X143008340Y-131659500D01*
X142831660Y-131659500D01*
X142790960Y-131668150D01*
X142721296Y-131662834D01*
X142677502Y-131634541D01*
X137012519Y-125969558D01*
X136979034Y-125908235D01*
X136976200Y-125881877D01*
X136976200Y-125579699D01*
X180133770Y-125579699D01*
X180137038Y-125602429D01*
X180138300Y-125620076D01*
X180138300Y-125637696D01*
X180144606Y-125661230D01*
X180147569Y-125675674D01*
X180151796Y-125705078D01*
X180158527Y-125719816D01*
X180165506Y-125739231D01*
X180168316Y-125749720D01*
X180168322Y-125749733D01*
X180183872Y-125776669D01*
X180189276Y-125787150D01*
X180204416Y-125820299D01*
X180204417Y-125820301D01*
X180210592Y-125827427D01*
X180224266Y-125846630D01*
X180226312Y-125850173D01*
X180253067Y-125876928D01*
X180259086Y-125883394D01*
X180287364Y-125916028D01*
X180287367Y-125916031D01*
X180289593Y-125917462D01*
X180301819Y-125927314D01*
X180301877Y-125927239D01*
X180308320Y-125932183D01*
X180308324Y-125932185D01*
X180308327Y-125932188D01*
X180346930Y-125954475D01*
X180351947Y-125957534D01*
X180393924Y-125984512D01*
X180395290Y-125985135D01*
X180404062Y-125988230D01*
X180408767Y-125990178D01*
X180408768Y-125990178D01*
X180408773Y-125990181D01*
X180458375Y-126003471D01*
X180461069Y-126004227D01*
X180515466Y-126020200D01*
X180515467Y-126020200D01*
X180642133Y-126020200D01*
X180642134Y-126020200D01*
X180696538Y-126004224D01*
X180699236Y-126003467D01*
X180748827Y-125990181D01*
X180748837Y-125990175D01*
X180753521Y-125988235D01*
X180762312Y-125985134D01*
X180763665Y-125984515D01*
X180763672Y-125984514D01*
X180805672Y-125957521D01*
X180810664Y-125954477D01*
X180849273Y-125932188D01*
X180849277Y-125932183D01*
X180855723Y-125927238D01*
X180855782Y-125927315D01*
X180868006Y-125917461D01*
X180870233Y-125916031D01*
X180898520Y-125883383D01*
X180904525Y-125876934D01*
X185177888Y-121603574D01*
X185235881Y-121503127D01*
X185265900Y-121391094D01*
X185265900Y-121275107D01*
X185265900Y-70357007D01*
X185235881Y-70244973D01*
X185177888Y-70144527D01*
X185095873Y-70062512D01*
X182986819Y-67953458D01*
X182953334Y-67892135D01*
X182950500Y-67865777D01*
X182950500Y-67613406D01*
X182970185Y-67546367D01*
X183016047Y-67504048D01*
X183070547Y-67474918D01*
X183223441Y-67349441D01*
X183348918Y-67196547D01*
X183442156Y-67022112D01*
X183499571Y-66832838D01*
X183518958Y-66636000D01*
X183499571Y-66439162D01*
X183442156Y-66249888D01*
X183348918Y-66075453D01*
X183348915Y-66075449D01*
X183223441Y-65922558D01*
X183070550Y-65797084D01*
X183070548Y-65797083D01*
X183070547Y-65797082D01*
X182896112Y-65703844D01*
X182801475Y-65675136D01*
X182706836Y-65646428D01*
X182510000Y-65627042D01*
X182313163Y-65646428D01*
X182123885Y-65703845D01*
X181949449Y-65797084D01*
X181796558Y-65922558D01*
X181671084Y-66075449D01*
X181577845Y-66249885D01*
X181520428Y-66439163D01*
X181501042Y-66636000D01*
X181520428Y-66832836D01*
X181577845Y-67022114D01*
X181671084Y-67196550D01*
X181796558Y-67349441D01*
X181949451Y-67474917D01*
X181949454Y-67474919D01*
X181973722Y-67487890D01*
X182003952Y-67504048D01*
X182053797Y-67553008D01*
X182069500Y-67613406D01*
X182069500Y-68157592D01*
X182099519Y-68269628D01*
X182128515Y-68319850D01*
X182157512Y-68370073D01*
X182157514Y-68370075D01*
X184348581Y-70561142D01*
X184382066Y-70622465D01*
X184384900Y-70648823D01*
X184384900Y-114233647D01*
X184365215Y-114300686D01*
X184312411Y-114346441D01*
X184243253Y-114356385D01*
X184179697Y-114327360D01*
X184153513Y-114295647D01*
X184117717Y-114233647D01*
X184051936Y-114119711D01*
X183904265Y-113927262D01*
X183904260Y-113927256D01*
X183732743Y-113755739D01*
X183732736Y-113755733D01*
X183540293Y-113608067D01*
X183540292Y-113608066D01*
X183540289Y-113608064D01*
X183368661Y-113508974D01*
X183330214Y-113486777D01*
X183330205Y-113486773D01*
X183106104Y-113393947D01*
X182871785Y-113331161D01*
X182631289Y-113299500D01*
X182631288Y-113299500D01*
X182388712Y-113299500D01*
X182388711Y-113299500D01*
X182148214Y-113331161D01*
X181913895Y-113393947D01*
X181689794Y-113486773D01*
X181689785Y-113486777D01*
X181479706Y-113608067D01*
X181287263Y-113755733D01*
X181287256Y-113755739D01*
X181115739Y-113927256D01*
X181115733Y-113927263D01*
X180968067Y-114119706D01*
X180846777Y-114329785D01*
X180846773Y-114329794D01*
X180753947Y-114553895D01*
X180691161Y-114788214D01*
X180659500Y-115028711D01*
X180659500Y-115271288D01*
X180691161Y-115511785D01*
X180753947Y-115746104D01*
X180846225Y-115968882D01*
X180846776Y-115970212D01*
X180968064Y-116180289D01*
X180968066Y-116180292D01*
X180968067Y-116180293D01*
X181115733Y-116372736D01*
X181115739Y-116372743D01*
X181287256Y-116544260D01*
X181287262Y-116544265D01*
X181479711Y-116691936D01*
X181689788Y-116813224D01*
X181913900Y-116906054D01*
X182148211Y-116968838D01*
X182328586Y-116992584D01*
X182388711Y-117000500D01*
X182388712Y-117000500D01*
X182631289Y-117000500D01*
X182679388Y-116994167D01*
X182871789Y-116968838D01*
X183106100Y-116906054D01*
X183330212Y-116813224D01*
X183540289Y-116691936D01*
X183732738Y-116544265D01*
X183904265Y-116372738D01*
X184051936Y-116180289D01*
X184153513Y-116004351D01*
X184204080Y-115956136D01*
X184272687Y-115942913D01*
X184337552Y-115968882D01*
X184378080Y-116025796D01*
X184384900Y-116066352D01*
X184384900Y-121099276D01*
X184365215Y-121166315D01*
X184348581Y-121186957D01*
X183701945Y-121833592D01*
X183640622Y-121867077D01*
X183570930Y-121862093D01*
X183514997Y-121820221D01*
X183490580Y-121754757D01*
X183495603Y-121709917D01*
X183499571Y-121696838D01*
X183518958Y-121500000D01*
X183499571Y-121303162D01*
X183442156Y-121113888D01*
X183348918Y-120939453D01*
X183348915Y-120939449D01*
X183223441Y-120786558D01*
X183070550Y-120661084D01*
X183070548Y-120661083D01*
X183070547Y-120661082D01*
X182896112Y-120567844D01*
X182778628Y-120532206D01*
X182706836Y-120510428D01*
X182510000Y-120491042D01*
X182313163Y-120510428D01*
X182123885Y-120567845D01*
X181949449Y-120661084D01*
X181796558Y-120786558D01*
X181671084Y-120939449D01*
X181577845Y-121113885D01*
X181520428Y-121303163D01*
X181501042Y-121500000D01*
X181520428Y-121696836D01*
X181520429Y-121696838D01*
X181561912Y-121833592D01*
X181577845Y-121886114D01*
X181671084Y-122060550D01*
X181796558Y-122213441D01*
X181945304Y-122335513D01*
X181949453Y-122338918D01*
X182123888Y-122432156D01*
X182313162Y-122489571D01*
X182510000Y-122508958D01*
X182706838Y-122489571D01*
X182719915Y-122485603D01*
X182789779Y-122484979D01*
X182848893Y-122522225D01*
X182878486Y-122585519D01*
X182869162Y-122654763D01*
X182843592Y-122691945D01*
X180310234Y-125225303D01*
X180289605Y-125241930D01*
X180287371Y-125243365D01*
X180287365Y-125243371D01*
X180259092Y-125275999D01*
X180253065Y-125282473D01*
X180226311Y-125309228D01*
X180224264Y-125312774D01*
X180210601Y-125331961D01*
X180204417Y-125339098D01*
X180189280Y-125372242D01*
X180183878Y-125382720D01*
X180168317Y-125409675D01*
X180168316Y-125409677D01*
X180165503Y-125420175D01*
X180158530Y-125439573D01*
X180151796Y-125454320D01*
X180151795Y-125454323D01*
X180147567Y-125483730D01*
X180144606Y-125498168D01*
X180138300Y-125521703D01*
X180138300Y-125539323D01*
X180137038Y-125556969D01*
X180133770Y-125579699D01*
X136976200Y-125579699D01*
X136976200Y-123460123D01*
X136995885Y-123393084D01*
X137048689Y-123347329D01*
X137117847Y-123337385D01*
X137181403Y-123366410D01*
X137187881Y-123372442D01*
X137774227Y-123958788D01*
X137874673Y-124016781D01*
X137986706Y-124046800D01*
X137986707Y-124046800D01*
X137986708Y-124046800D01*
X152521691Y-124046800D01*
X152521693Y-124046800D01*
X152633727Y-124016781D01*
X152734173Y-123958788D01*
X154190350Y-122502609D01*
X154251671Y-122469126D01*
X154314025Y-122471632D01*
X154373159Y-122489570D01*
X154373161Y-122489571D01*
X154392548Y-122491480D01*
X154570000Y-122508958D01*
X154766838Y-122489571D01*
X154956112Y-122432156D01*
X155130547Y-122338918D01*
X155283441Y-122213441D01*
X155408918Y-122060547D01*
X155502156Y-121886112D01*
X155559571Y-121696838D01*
X155578958Y-121500000D01*
X156101042Y-121500000D01*
X156120428Y-121696836D01*
X156120429Y-121696838D01*
X156161912Y-121833592D01*
X156177845Y-121886114D01*
X156271084Y-122060550D01*
X156396558Y-122213441D01*
X156545304Y-122335513D01*
X156549453Y-122338918D01*
X156723888Y-122432156D01*
X156913162Y-122489571D01*
X157110000Y-122508958D01*
X157306838Y-122489571D01*
X157496112Y-122432156D01*
X157670547Y-122338918D01*
X157823441Y-122213441D01*
X157948918Y-122060547D01*
X158042156Y-121886112D01*
X158099571Y-121696838D01*
X158118958Y-121500000D01*
X158641042Y-121500000D01*
X158660428Y-121696836D01*
X158660429Y-121696838D01*
X158701912Y-121833592D01*
X158717845Y-121886114D01*
X158811084Y-122060550D01*
X158936558Y-122213441D01*
X159085304Y-122335513D01*
X159089453Y-122338918D01*
X159263888Y-122432156D01*
X159453162Y-122489571D01*
X159650000Y-122508958D01*
X159846838Y-122489571D01*
X160036112Y-122432156D01*
X160210547Y-122338918D01*
X160363441Y-122213441D01*
X160488918Y-122060547D01*
X160582156Y-121886112D01*
X160639571Y-121696838D01*
X160658958Y-121500000D01*
X161181042Y-121500000D01*
X161200428Y-121696836D01*
X161200429Y-121696838D01*
X161241912Y-121833592D01*
X161257845Y-121886114D01*
X161351084Y-122060550D01*
X161476558Y-122213441D01*
X161625304Y-122335513D01*
X161629453Y-122338918D01*
X161803888Y-122432156D01*
X161993162Y-122489571D01*
X162190000Y-122508958D01*
X162386838Y-122489571D01*
X162576112Y-122432156D01*
X162750547Y-122338918D01*
X162903441Y-122213441D01*
X163028918Y-122060547D01*
X163122156Y-121886112D01*
X163179571Y-121696838D01*
X163198958Y-121500000D01*
X163721042Y-121500000D01*
X163740428Y-121696836D01*
X163740429Y-121696838D01*
X163781912Y-121833592D01*
X163797845Y-121886114D01*
X163891084Y-122060550D01*
X164016558Y-122213441D01*
X164165304Y-122335513D01*
X164169453Y-122338918D01*
X164343888Y-122432156D01*
X164533162Y-122489571D01*
X164730000Y-122508958D01*
X164926838Y-122489571D01*
X165116112Y-122432156D01*
X165290547Y-122338918D01*
X165443441Y-122213441D01*
X165568918Y-122060547D01*
X165662156Y-121886112D01*
X165719571Y-121696838D01*
X165738958Y-121500000D01*
X166261042Y-121500000D01*
X166280428Y-121696836D01*
X166280429Y-121696838D01*
X166321912Y-121833592D01*
X166337845Y-121886114D01*
X166431084Y-122060550D01*
X166556558Y-122213441D01*
X166705304Y-122335513D01*
X166709453Y-122338918D01*
X166883888Y-122432156D01*
X167073162Y-122489571D01*
X167270000Y-122508958D01*
X167466838Y-122489571D01*
X167656112Y-122432156D01*
X167830547Y-122338918D01*
X167983441Y-122213441D01*
X168108918Y-122060547D01*
X168202156Y-121886112D01*
X168259571Y-121696838D01*
X168278958Y-121500000D01*
X168801042Y-121500000D01*
X168820428Y-121696836D01*
X168820429Y-121696838D01*
X168861912Y-121833592D01*
X168877845Y-121886114D01*
X168971084Y-122060550D01*
X169096558Y-122213441D01*
X169245304Y-122335513D01*
X169249453Y-122338918D01*
X169423888Y-122432156D01*
X169613162Y-122489571D01*
X169810000Y-122508958D01*
X170006838Y-122489571D01*
X170196112Y-122432156D01*
X170370547Y-122338918D01*
X170523441Y-122213441D01*
X170648918Y-122060547D01*
X170742156Y-121886112D01*
X170799571Y-121696838D01*
X170818958Y-121500000D01*
X171341042Y-121500000D01*
X171360428Y-121696836D01*
X171360429Y-121696838D01*
X171401912Y-121833592D01*
X171417845Y-121886114D01*
X171511084Y-122060550D01*
X171636558Y-122213441D01*
X171785304Y-122335513D01*
X171789453Y-122338918D01*
X171963888Y-122432156D01*
X172153162Y-122489571D01*
X172350000Y-122508958D01*
X172546838Y-122489571D01*
X172736112Y-122432156D01*
X172910547Y-122338918D01*
X173063441Y-122213441D01*
X173188918Y-122060547D01*
X173282156Y-121886112D01*
X173339571Y-121696838D01*
X173358958Y-121500000D01*
X173881042Y-121500000D01*
X173900428Y-121696836D01*
X173900429Y-121696838D01*
X173941912Y-121833592D01*
X173957845Y-121886114D01*
X174051084Y-122060550D01*
X174176558Y-122213441D01*
X174325304Y-122335513D01*
X174329453Y-122338918D01*
X174503888Y-122432156D01*
X174693162Y-122489571D01*
X174890000Y-122508958D01*
X175086838Y-122489571D01*
X175276112Y-122432156D01*
X175450547Y-122338918D01*
X175603441Y-122213441D01*
X175728918Y-122060547D01*
X175822156Y-121886112D01*
X175879571Y-121696838D01*
X175898958Y-121500000D01*
X176421042Y-121500000D01*
X176440428Y-121696836D01*
X176440429Y-121696838D01*
X176481912Y-121833592D01*
X176497845Y-121886114D01*
X176591084Y-122060550D01*
X176716558Y-122213441D01*
X176865304Y-122335513D01*
X176869453Y-122338918D01*
X177043888Y-122432156D01*
X177233162Y-122489571D01*
X177430000Y-122508958D01*
X177626838Y-122489571D01*
X177816112Y-122432156D01*
X177990547Y-122338918D01*
X178143441Y-122213441D01*
X178268918Y-122060547D01*
X178362156Y-121886112D01*
X178419571Y-121696838D01*
X178438958Y-121500000D01*
X178961042Y-121500000D01*
X178980428Y-121696836D01*
X178980429Y-121696838D01*
X179021912Y-121833592D01*
X179037845Y-121886114D01*
X179131084Y-122060550D01*
X179256558Y-122213441D01*
X179405304Y-122335513D01*
X179409453Y-122338918D01*
X179583888Y-122432156D01*
X179773162Y-122489571D01*
X179970000Y-122508958D01*
X180166838Y-122489571D01*
X180356112Y-122432156D01*
X180530547Y-122338918D01*
X180683441Y-122213441D01*
X180808918Y-122060547D01*
X180902156Y-121886112D01*
X180959571Y-121696838D01*
X180978958Y-121500000D01*
X180959571Y-121303162D01*
X180902156Y-121113888D01*
X180808918Y-120939453D01*
X180808915Y-120939449D01*
X180683441Y-120786558D01*
X180530550Y-120661084D01*
X180530548Y-120661083D01*
X180530547Y-120661082D01*
X180356112Y-120567844D01*
X180238628Y-120532206D01*
X180166836Y-120510428D01*
X179970000Y-120491042D01*
X179773163Y-120510428D01*
X179583885Y-120567845D01*
X179409449Y-120661084D01*
X179256558Y-120786558D01*
X179131084Y-120939449D01*
X179037845Y-121113885D01*
X178980428Y-121303163D01*
X178961042Y-121500000D01*
X178438958Y-121500000D01*
X178419571Y-121303162D01*
X178362156Y-121113888D01*
X178268918Y-120939453D01*
X178268915Y-120939449D01*
X178143441Y-120786558D01*
X177990550Y-120661084D01*
X177990548Y-120661083D01*
X177990547Y-120661082D01*
X177816112Y-120567844D01*
X177698628Y-120532206D01*
X177626836Y-120510428D01*
X177430000Y-120491042D01*
X177233163Y-120510428D01*
X177043885Y-120567845D01*
X176869449Y-120661084D01*
X176716558Y-120786558D01*
X176591084Y-120939449D01*
X176497845Y-121113885D01*
X176440428Y-121303163D01*
X176421042Y-121500000D01*
X175898958Y-121500000D01*
X175879571Y-121303162D01*
X175822156Y-121113888D01*
X175728918Y-120939453D01*
X175728915Y-120939449D01*
X175603441Y-120786558D01*
X175450550Y-120661084D01*
X175450548Y-120661083D01*
X175450547Y-120661082D01*
X175276112Y-120567844D01*
X175158628Y-120532206D01*
X175086836Y-120510428D01*
X174890000Y-120491042D01*
X174693163Y-120510428D01*
X174503885Y-120567845D01*
X174329449Y-120661084D01*
X174176558Y-120786558D01*
X174051084Y-120939449D01*
X173957845Y-121113885D01*
X173900428Y-121303163D01*
X173881042Y-121500000D01*
X173358958Y-121500000D01*
X173339571Y-121303162D01*
X173282156Y-121113888D01*
X173188918Y-120939453D01*
X173188915Y-120939449D01*
X173063441Y-120786558D01*
X172910550Y-120661084D01*
X172910548Y-120661083D01*
X172910547Y-120661082D01*
X172736112Y-120567844D01*
X172618628Y-120532206D01*
X172546836Y-120510428D01*
X172350000Y-120491042D01*
X172153163Y-120510428D01*
X171963885Y-120567845D01*
X171789449Y-120661084D01*
X171636558Y-120786558D01*
X171511084Y-120939449D01*
X171417845Y-121113885D01*
X171360428Y-121303163D01*
X171341042Y-121500000D01*
X170818958Y-121500000D01*
X170799571Y-121303162D01*
X170742156Y-121113888D01*
X170648918Y-120939453D01*
X170648915Y-120939449D01*
X170523441Y-120786558D01*
X170370550Y-120661084D01*
X170370548Y-120661083D01*
X170370547Y-120661082D01*
X170196112Y-120567844D01*
X170078628Y-120532206D01*
X170006836Y-120510428D01*
X169810000Y-120491042D01*
X169613163Y-120510428D01*
X169423885Y-120567845D01*
X169249449Y-120661084D01*
X169096558Y-120786558D01*
X168971084Y-120939449D01*
X168877845Y-121113885D01*
X168820428Y-121303163D01*
X168801042Y-121500000D01*
X168278958Y-121500000D01*
X168259571Y-121303162D01*
X168202156Y-121113888D01*
X168108918Y-120939453D01*
X168108915Y-120939449D01*
X167983441Y-120786558D01*
X167830550Y-120661084D01*
X167830548Y-120661083D01*
X167830547Y-120661082D01*
X167656112Y-120567844D01*
X167538628Y-120532206D01*
X167466836Y-120510428D01*
X167270000Y-120491042D01*
X167073163Y-120510428D01*
X166883885Y-120567845D01*
X166709449Y-120661084D01*
X166556558Y-120786558D01*
X166431084Y-120939449D01*
X166337845Y-121113885D01*
X166280428Y-121303163D01*
X166261042Y-121500000D01*
X165738958Y-121500000D01*
X165719571Y-121303162D01*
X165662156Y-121113888D01*
X165568918Y-120939453D01*
X165568915Y-120939449D01*
X165443441Y-120786558D01*
X165290550Y-120661084D01*
X165290548Y-120661083D01*
X165290547Y-120661082D01*
X165116112Y-120567844D01*
X164998628Y-120532206D01*
X164926836Y-120510428D01*
X164730000Y-120491042D01*
X164533163Y-120510428D01*
X164343885Y-120567845D01*
X164169449Y-120661084D01*
X164016558Y-120786558D01*
X163891084Y-120939449D01*
X163797845Y-121113885D01*
X163740428Y-121303163D01*
X163721042Y-121500000D01*
X163198958Y-121500000D01*
X163179571Y-121303162D01*
X163122156Y-121113888D01*
X163028918Y-120939453D01*
X163028915Y-120939449D01*
X162903441Y-120786558D01*
X162750550Y-120661084D01*
X162750548Y-120661083D01*
X162750547Y-120661082D01*
X162576112Y-120567844D01*
X162458628Y-120532206D01*
X162386836Y-120510428D01*
X162190000Y-120491042D01*
X161993163Y-120510428D01*
X161803885Y-120567845D01*
X161629449Y-120661084D01*
X161476558Y-120786558D01*
X161351084Y-120939449D01*
X161257845Y-121113885D01*
X161200428Y-121303163D01*
X161181042Y-121500000D01*
X160658958Y-121500000D01*
X160639571Y-121303162D01*
X160582156Y-121113888D01*
X160488918Y-120939453D01*
X160488915Y-120939449D01*
X160363441Y-120786558D01*
X160210550Y-120661084D01*
X160210548Y-120661083D01*
X160210547Y-120661082D01*
X160036112Y-120567844D01*
X159918628Y-120532206D01*
X159846836Y-120510428D01*
X159650000Y-120491042D01*
X159453163Y-120510428D01*
X159263885Y-120567845D01*
X159089449Y-120661084D01*
X158936558Y-120786558D01*
X158811084Y-120939449D01*
X158717845Y-121113885D01*
X158660428Y-121303163D01*
X158641042Y-121500000D01*
X158118958Y-121500000D01*
X158099571Y-121303162D01*
X158042156Y-121113888D01*
X157948918Y-120939453D01*
X157948915Y-120939449D01*
X157823441Y-120786558D01*
X157670550Y-120661084D01*
X157670548Y-120661083D01*
X157670547Y-120661082D01*
X157496112Y-120567844D01*
X157378628Y-120532206D01*
X157306836Y-120510428D01*
X157110000Y-120491042D01*
X156913163Y-120510428D01*
X156723885Y-120567845D01*
X156549449Y-120661084D01*
X156396558Y-120786558D01*
X156271084Y-120939449D01*
X156177845Y-121113885D01*
X156120428Y-121303163D01*
X156101042Y-121500000D01*
X155578958Y-121500000D01*
X155559571Y-121303162D01*
X155502156Y-121113888D01*
X155408918Y-120939453D01*
X155408915Y-120939449D01*
X155283441Y-120786558D01*
X155130550Y-120661084D01*
X155130548Y-120661083D01*
X155130547Y-120661082D01*
X154956112Y-120567844D01*
X154838628Y-120532206D01*
X154766836Y-120510428D01*
X154570000Y-120491042D01*
X154373163Y-120510428D01*
X154183885Y-120567845D01*
X154009449Y-120661084D01*
X153856558Y-120786558D01*
X153731084Y-120939449D01*
X153637845Y-121113885D01*
X153580428Y-121303163D01*
X153561042Y-121500000D01*
X153580428Y-121696838D01*
X153598367Y-121755975D01*
X153598990Y-121825842D01*
X153567387Y-121879650D01*
X152317558Y-123129481D01*
X152256235Y-123162966D01*
X152229877Y-123165800D01*
X151286523Y-123165800D01*
X151219484Y-123146115D01*
X151173729Y-123093311D01*
X151163785Y-123024153D01*
X151192810Y-122960597D01*
X151198842Y-122954119D01*
X151498197Y-122654763D01*
X151650350Y-122502609D01*
X151711671Y-122469126D01*
X151774025Y-122471632D01*
X151833159Y-122489570D01*
X151833161Y-122489571D01*
X151852548Y-122491480D01*
X152030000Y-122508958D01*
X152226838Y-122489571D01*
X152416112Y-122432156D01*
X152590547Y-122338918D01*
X152743441Y-122213441D01*
X152868918Y-122060547D01*
X152962156Y-121886112D01*
X153019571Y-121696838D01*
X153038958Y-121500000D01*
X153019571Y-121303162D01*
X152962156Y-121113888D01*
X152868918Y-120939453D01*
X152868915Y-120939449D01*
X152743441Y-120786558D01*
X152590550Y-120661084D01*
X152590548Y-120661083D01*
X152590547Y-120661082D01*
X152416112Y-120567844D01*
X152298628Y-120532206D01*
X152226836Y-120510428D01*
X152030000Y-120491042D01*
X151833163Y-120510428D01*
X151643885Y-120567845D01*
X151469449Y-120661084D01*
X151316558Y-120786558D01*
X151191084Y-120939449D01*
X151097845Y-121113885D01*
X151040428Y-121303163D01*
X151021042Y-121500000D01*
X151040428Y-121696838D01*
X151058367Y-121755975D01*
X151058990Y-121825842D01*
X151027387Y-121879650D01*
X150538358Y-122368681D01*
X150477035Y-122402166D01*
X150450677Y-122405000D01*
X150308409Y-122405000D01*
X150241370Y-122385315D01*
X150195615Y-122332511D01*
X150185671Y-122263353D01*
X150212556Y-122202335D01*
X150299740Y-122096100D01*
X150328918Y-122060547D01*
X150422156Y-121886112D01*
X150479571Y-121696838D01*
X150498958Y-121500000D01*
X150479571Y-121303162D01*
X150422156Y-121113888D01*
X150328918Y-120939453D01*
X150328915Y-120939449D01*
X150203441Y-120786558D01*
X150050550Y-120661084D01*
X150050548Y-120661083D01*
X150050547Y-120661082D01*
X149876112Y-120567844D01*
X149758628Y-120532206D01*
X149686836Y-120510428D01*
X149490000Y-120491042D01*
X149293163Y-120510428D01*
X149103885Y-120567845D01*
X148929449Y-120661084D01*
X148776558Y-120786558D01*
X148651084Y-120939449D01*
X148557845Y-121113885D01*
X148500428Y-121303163D01*
X148481042Y-121500000D01*
X148500428Y-121696836D01*
X148500429Y-121696838D01*
X148541912Y-121833592D01*
X148557845Y-121886114D01*
X148651084Y-122060550D01*
X148767444Y-122202335D01*
X148794757Y-122266645D01*
X148782966Y-122335513D01*
X148735814Y-122387073D01*
X148671591Y-122405000D01*
X147768409Y-122405000D01*
X147701370Y-122385315D01*
X147655615Y-122332511D01*
X147645671Y-122263353D01*
X147672556Y-122202335D01*
X147759740Y-122096100D01*
X147788918Y-122060547D01*
X147882156Y-121886112D01*
X147939571Y-121696838D01*
X147958958Y-121500000D01*
X147939571Y-121303162D01*
X147882156Y-121113888D01*
X147788918Y-120939453D01*
X147788915Y-120939449D01*
X147663441Y-120786558D01*
X147510550Y-120661084D01*
X147510548Y-120661083D01*
X147510547Y-120661082D01*
X147336112Y-120567844D01*
X147218628Y-120532206D01*
X147146836Y-120510428D01*
X146950000Y-120491042D01*
X146753163Y-120510428D01*
X146563885Y-120567845D01*
X146389449Y-120661084D01*
X146236558Y-120786558D01*
X146111084Y-120939449D01*
X146017845Y-121113885D01*
X145960428Y-121303163D01*
X145941042Y-121500000D01*
X145960428Y-121696836D01*
X145960429Y-121696838D01*
X146001912Y-121833592D01*
X146017845Y-121886114D01*
X146111084Y-122060550D01*
X146227444Y-122202335D01*
X146254757Y-122266645D01*
X146242966Y-122335513D01*
X146195814Y-122387073D01*
X146131591Y-122405000D01*
X145228409Y-122405000D01*
X145161370Y-122385315D01*
X145115615Y-122332511D01*
X145105671Y-122263353D01*
X145132556Y-122202335D01*
X145219740Y-122096100D01*
X145248918Y-122060547D01*
X145342156Y-121886112D01*
X145399571Y-121696838D01*
X145418958Y-121500000D01*
X145399571Y-121303162D01*
X145342156Y-121113888D01*
X145248918Y-120939453D01*
X145248915Y-120939449D01*
X145123441Y-120786558D01*
X144970550Y-120661084D01*
X144970548Y-120661083D01*
X144970547Y-120661082D01*
X144796112Y-120567844D01*
X144678628Y-120532206D01*
X144606836Y-120510428D01*
X144410000Y-120491042D01*
X144213163Y-120510428D01*
X144023885Y-120567845D01*
X143849449Y-120661084D01*
X143696558Y-120786558D01*
X143571084Y-120939449D01*
X143477845Y-121113885D01*
X143420428Y-121303163D01*
X143401042Y-121500000D01*
X143420428Y-121696836D01*
X143420429Y-121696838D01*
X143461912Y-121833592D01*
X143477845Y-121886114D01*
X143571084Y-122060550D01*
X143687444Y-122202335D01*
X143714757Y-122266645D01*
X143702966Y-122335513D01*
X143655814Y-122387073D01*
X143591591Y-122405000D01*
X142688409Y-122405000D01*
X142621370Y-122385315D01*
X142575615Y-122332511D01*
X142565671Y-122263353D01*
X142592556Y-122202335D01*
X142679740Y-122096100D01*
X142708918Y-122060547D01*
X142802156Y-121886112D01*
X142859571Y-121696838D01*
X142878958Y-121500000D01*
X142859571Y-121303162D01*
X142802156Y-121113888D01*
X142708918Y-120939453D01*
X142708915Y-120939449D01*
X142583441Y-120786558D01*
X142430550Y-120661084D01*
X142430548Y-120661083D01*
X142430547Y-120661082D01*
X142256112Y-120567844D01*
X142138628Y-120532206D01*
X142066836Y-120510428D01*
X141870000Y-120491042D01*
X141673163Y-120510428D01*
X141483885Y-120567845D01*
X141309449Y-120661084D01*
X141156558Y-120786558D01*
X141031084Y-120939449D01*
X140937845Y-121113885D01*
X140880428Y-121303163D01*
X140861042Y-121500000D01*
X140880428Y-121696836D01*
X140880429Y-121696838D01*
X140921912Y-121833592D01*
X140937845Y-121886114D01*
X141031084Y-122060550D01*
X141147444Y-122202335D01*
X141174757Y-122266645D01*
X141162966Y-122335513D01*
X141115814Y-122387073D01*
X141051591Y-122405000D01*
X138563600Y-122405000D01*
X138496561Y-122385315D01*
X138450806Y-122332511D01*
X138439600Y-122281000D01*
X138439600Y-118960000D01*
X140861042Y-118960000D01*
X140880428Y-119156836D01*
X140937845Y-119346114D01*
X141031084Y-119520550D01*
X141156558Y-119673441D01*
X141309449Y-119798915D01*
X141309453Y-119798918D01*
X141483888Y-119892156D01*
X141673162Y-119949571D01*
X141870000Y-119968958D01*
X142066838Y-119949571D01*
X142256112Y-119892156D01*
X142430547Y-119798918D01*
X142583441Y-119673441D01*
X142708918Y-119520547D01*
X142802156Y-119346112D01*
X142859571Y-119156838D01*
X142878958Y-118960000D01*
X143401042Y-118960000D01*
X143420428Y-119156836D01*
X143477845Y-119346114D01*
X143571084Y-119520550D01*
X143696558Y-119673441D01*
X143849449Y-119798915D01*
X143849453Y-119798918D01*
X144023888Y-119892156D01*
X144213162Y-119949571D01*
X144410000Y-119968958D01*
X144606838Y-119949571D01*
X144796112Y-119892156D01*
X144970547Y-119798918D01*
X145123441Y-119673441D01*
X145248918Y-119520547D01*
X145342156Y-119346112D01*
X145399571Y-119156838D01*
X145418958Y-118960000D01*
X145941042Y-118960000D01*
X145960428Y-119156836D01*
X146017845Y-119346114D01*
X146111084Y-119520550D01*
X146236558Y-119673441D01*
X146389449Y-119798915D01*
X146389453Y-119798918D01*
X146563888Y-119892156D01*
X146753162Y-119949571D01*
X146950000Y-119968958D01*
X147146838Y-119949571D01*
X147336112Y-119892156D01*
X147510547Y-119798918D01*
X147663441Y-119673441D01*
X147788918Y-119520547D01*
X147882156Y-119346112D01*
X147939571Y-119156838D01*
X147958958Y-118960000D01*
X148481042Y-118960000D01*
X148500428Y-119156836D01*
X148557845Y-119346114D01*
X148651084Y-119520550D01*
X148776558Y-119673441D01*
X148929449Y-119798915D01*
X148929453Y-119798918D01*
X149103888Y-119892156D01*
X149293162Y-119949571D01*
X149490000Y-119968958D01*
X149686838Y-119949571D01*
X149876112Y-119892156D01*
X150050547Y-119798918D01*
X150203441Y-119673441D01*
X150328918Y-119520547D01*
X150422156Y-119346112D01*
X150479571Y-119156838D01*
X150498958Y-118960000D01*
X151021042Y-118960000D01*
X151040428Y-119156836D01*
X151097845Y-119346114D01*
X151191084Y-119520550D01*
X151316558Y-119673441D01*
X151469449Y-119798915D01*
X151469453Y-119798918D01*
X151643888Y-119892156D01*
X151833162Y-119949571D01*
X152030000Y-119968958D01*
X152226838Y-119949571D01*
X152416112Y-119892156D01*
X152590547Y-119798918D01*
X152743441Y-119673441D01*
X152868918Y-119520547D01*
X152962156Y-119346112D01*
X153019571Y-119156838D01*
X153038958Y-118960000D01*
X153561042Y-118960000D01*
X153580428Y-119156836D01*
X153637845Y-119346114D01*
X153731084Y-119520550D01*
X153856558Y-119673441D01*
X154009449Y-119798915D01*
X154009453Y-119798918D01*
X154183888Y-119892156D01*
X154373162Y-119949571D01*
X154570000Y-119968958D01*
X154766838Y-119949571D01*
X154956112Y-119892156D01*
X155130547Y-119798918D01*
X155283441Y-119673441D01*
X155408918Y-119520547D01*
X155502156Y-119346112D01*
X155559571Y-119156838D01*
X155578958Y-118960000D01*
X156101042Y-118960000D01*
X156120428Y-119156836D01*
X156177845Y-119346114D01*
X156271084Y-119520550D01*
X156396558Y-119673441D01*
X156549449Y-119798915D01*
X156549453Y-119798918D01*
X156723888Y-119892156D01*
X156913162Y-119949571D01*
X157110000Y-119968958D01*
X157306838Y-119949571D01*
X157496112Y-119892156D01*
X157670547Y-119798918D01*
X157823441Y-119673441D01*
X157948918Y-119520547D01*
X158042156Y-119346112D01*
X158099571Y-119156838D01*
X158118958Y-118960000D01*
X158641042Y-118960000D01*
X158660428Y-119156836D01*
X158717845Y-119346114D01*
X158811084Y-119520550D01*
X158936558Y-119673441D01*
X159089449Y-119798915D01*
X159089453Y-119798918D01*
X159263888Y-119892156D01*
X159453162Y-119949571D01*
X159650000Y-119968958D01*
X159846838Y-119949571D01*
X160036112Y-119892156D01*
X160210547Y-119798918D01*
X160363441Y-119673441D01*
X160488918Y-119520547D01*
X160582156Y-119346112D01*
X160639571Y-119156838D01*
X160658958Y-118960000D01*
X161181042Y-118960000D01*
X161200428Y-119156836D01*
X161257845Y-119346114D01*
X161351084Y-119520550D01*
X161476558Y-119673441D01*
X161629449Y-119798915D01*
X161629453Y-119798918D01*
X161803888Y-119892156D01*
X161993162Y-119949571D01*
X162190000Y-119968958D01*
X162386838Y-119949571D01*
X162576112Y-119892156D01*
X162750547Y-119798918D01*
X162903441Y-119673441D01*
X163028918Y-119520547D01*
X163122156Y-119346112D01*
X163179571Y-119156838D01*
X163198958Y-118960000D01*
X163721042Y-118960000D01*
X163740428Y-119156836D01*
X163797845Y-119346114D01*
X163891084Y-119520550D01*
X164016558Y-119673441D01*
X164169449Y-119798915D01*
X164169453Y-119798918D01*
X164343888Y-119892156D01*
X164533162Y-119949571D01*
X164730000Y-119968958D01*
X164926838Y-119949571D01*
X165116112Y-119892156D01*
X165290547Y-119798918D01*
X165443441Y-119673441D01*
X165568918Y-119520547D01*
X165662156Y-119346112D01*
X165719571Y-119156838D01*
X165738958Y-118960000D01*
X166261042Y-118960000D01*
X166280428Y-119156836D01*
X166337845Y-119346114D01*
X166431084Y-119520550D01*
X166556558Y-119673441D01*
X166709449Y-119798915D01*
X166709453Y-119798918D01*
X166883888Y-119892156D01*
X167073162Y-119949571D01*
X167270000Y-119968958D01*
X167466838Y-119949571D01*
X167656112Y-119892156D01*
X167830547Y-119798918D01*
X167983441Y-119673441D01*
X168108918Y-119520547D01*
X168202156Y-119346112D01*
X168259571Y-119156838D01*
X168278958Y-118960000D01*
X168801042Y-118960000D01*
X168820428Y-119156836D01*
X168877845Y-119346114D01*
X168971084Y-119520550D01*
X169096558Y-119673441D01*
X169249449Y-119798915D01*
X169249453Y-119798918D01*
X169423888Y-119892156D01*
X169613162Y-119949571D01*
X169810000Y-119968958D01*
X170006838Y-119949571D01*
X170196112Y-119892156D01*
X170370547Y-119798918D01*
X170523441Y-119673441D01*
X170648918Y-119520547D01*
X170742156Y-119346112D01*
X170799571Y-119156838D01*
X170818958Y-118960000D01*
X171341042Y-118960000D01*
X171360428Y-119156836D01*
X171417845Y-119346114D01*
X171511084Y-119520550D01*
X171636558Y-119673441D01*
X171789449Y-119798915D01*
X171789453Y-119798918D01*
X171963888Y-119892156D01*
X172153162Y-119949571D01*
X172350000Y-119968958D01*
X172546838Y-119949571D01*
X172736112Y-119892156D01*
X172910547Y-119798918D01*
X173063441Y-119673441D01*
X173188918Y-119520547D01*
X173282156Y-119346112D01*
X173339571Y-119156838D01*
X173358958Y-118960000D01*
X173881042Y-118960000D01*
X173900428Y-119156836D01*
X173957845Y-119346114D01*
X174051084Y-119520550D01*
X174176558Y-119673441D01*
X174329449Y-119798915D01*
X174329453Y-119798918D01*
X174503888Y-119892156D01*
X174693162Y-119949571D01*
X174890000Y-119968958D01*
X175086838Y-119949571D01*
X175276112Y-119892156D01*
X175450547Y-119798918D01*
X175603441Y-119673441D01*
X175728918Y-119520547D01*
X175822156Y-119346112D01*
X175879571Y-119156838D01*
X175898958Y-118960000D01*
X176421042Y-118960000D01*
X176440428Y-119156836D01*
X176497845Y-119346114D01*
X176591084Y-119520550D01*
X176716558Y-119673441D01*
X176869449Y-119798915D01*
X176869453Y-119798918D01*
X177043888Y-119892156D01*
X177233162Y-119949571D01*
X177430000Y-119968958D01*
X177626838Y-119949571D01*
X177816112Y-119892156D01*
X177990547Y-119798918D01*
X178143441Y-119673441D01*
X178268918Y-119520547D01*
X178362156Y-119346112D01*
X178419571Y-119156838D01*
X178438958Y-118960000D01*
X178961042Y-118960000D01*
X178980428Y-119156836D01*
X179037845Y-119346114D01*
X179131084Y-119520550D01*
X179256558Y-119673441D01*
X179409449Y-119798915D01*
X179409453Y-119798918D01*
X179583888Y-119892156D01*
X179773162Y-119949571D01*
X179970000Y-119968958D01*
X180166838Y-119949571D01*
X180356112Y-119892156D01*
X180530547Y-119798918D01*
X180683441Y-119673441D01*
X180808918Y-119520547D01*
X180902156Y-119346112D01*
X180959571Y-119156838D01*
X180978958Y-118960000D01*
X181501042Y-118960000D01*
X181520428Y-119156836D01*
X181577845Y-119346114D01*
X181671084Y-119520550D01*
X181796558Y-119673441D01*
X181949449Y-119798915D01*
X181949453Y-119798918D01*
X182123888Y-119892156D01*
X182313162Y-119949571D01*
X182510000Y-119968958D01*
X182706838Y-119949571D01*
X182896112Y-119892156D01*
X183070547Y-119798918D01*
X183223441Y-119673441D01*
X183348918Y-119520547D01*
X183442156Y-119346112D01*
X183499571Y-119156838D01*
X183518958Y-118960000D01*
X183499571Y-118763162D01*
X183442156Y-118573888D01*
X183348918Y-118399453D01*
X183348915Y-118399449D01*
X183223441Y-118246558D01*
X183070550Y-118121084D01*
X183070548Y-118121083D01*
X183070547Y-118121082D01*
X182896112Y-118027844D01*
X182801475Y-117999136D01*
X182706836Y-117970428D01*
X182510000Y-117951042D01*
X182313163Y-117970428D01*
X182123885Y-118027845D01*
X181949449Y-118121084D01*
X181796558Y-118246558D01*
X181671084Y-118399449D01*
X181577845Y-118573885D01*
X181520428Y-118763163D01*
X181501042Y-118960000D01*
X180978958Y-118960000D01*
X180959571Y-118763162D01*
X180902156Y-118573888D01*
X180808918Y-118399453D01*
X180808915Y-118399449D01*
X180683441Y-118246558D01*
X180530550Y-118121084D01*
X180530548Y-118121083D01*
X180530547Y-118121082D01*
X180356112Y-118027844D01*
X180261475Y-117999136D01*
X180166836Y-117970428D01*
X179970000Y-117951042D01*
X179773163Y-117970428D01*
X179583885Y-118027845D01*
X179409449Y-118121084D01*
X179256558Y-118246558D01*
X179131084Y-118399449D01*
X179037845Y-118573885D01*
X178980428Y-118763163D01*
X178961042Y-118960000D01*
X178438958Y-118960000D01*
X178419571Y-118763162D01*
X178362156Y-118573888D01*
X178268918Y-118399453D01*
X178268915Y-118399449D01*
X178143441Y-118246558D01*
X177990550Y-118121084D01*
X177990548Y-118121083D01*
X177990547Y-118121082D01*
X177816112Y-118027844D01*
X177721475Y-117999136D01*
X177626836Y-117970428D01*
X177430000Y-117951042D01*
X177233163Y-117970428D01*
X177043885Y-118027845D01*
X176869449Y-118121084D01*
X176716558Y-118246558D01*
X176591084Y-118399449D01*
X176497845Y-118573885D01*
X176440428Y-118763163D01*
X176421042Y-118960000D01*
X175898958Y-118960000D01*
X175879571Y-118763162D01*
X175822156Y-118573888D01*
X175728918Y-118399453D01*
X175728915Y-118399449D01*
X175603441Y-118246558D01*
X175450550Y-118121084D01*
X175450548Y-118121083D01*
X175450547Y-118121082D01*
X175276112Y-118027844D01*
X175181475Y-117999136D01*
X175086836Y-117970428D01*
X174890000Y-117951042D01*
X174693163Y-117970428D01*
X174503885Y-118027845D01*
X174329449Y-118121084D01*
X174176558Y-118246558D01*
X174051084Y-118399449D01*
X173957845Y-118573885D01*
X173900428Y-118763163D01*
X173881042Y-118960000D01*
X173358958Y-118960000D01*
X173339571Y-118763162D01*
X173282156Y-118573888D01*
X173188918Y-118399453D01*
X173188915Y-118399449D01*
X173063441Y-118246558D01*
X172910550Y-118121084D01*
X172910548Y-118121083D01*
X172910547Y-118121082D01*
X172736112Y-118027844D01*
X172641475Y-117999136D01*
X172546836Y-117970428D01*
X172350000Y-117951042D01*
X172153163Y-117970428D01*
X171963885Y-118027845D01*
X171789449Y-118121084D01*
X171636558Y-118246558D01*
X171511084Y-118399449D01*
X171417845Y-118573885D01*
X171360428Y-118763163D01*
X171341042Y-118960000D01*
X170818958Y-118960000D01*
X170799571Y-118763162D01*
X170742156Y-118573888D01*
X170648918Y-118399453D01*
X170648915Y-118399449D01*
X170523441Y-118246558D01*
X170370550Y-118121084D01*
X170370548Y-118121083D01*
X170370547Y-118121082D01*
X170196112Y-118027844D01*
X170101475Y-117999136D01*
X170006836Y-117970428D01*
X169810000Y-117951042D01*
X169613163Y-117970428D01*
X169423885Y-118027845D01*
X169249449Y-118121084D01*
X169096558Y-118246558D01*
X168971084Y-118399449D01*
X168877845Y-118573885D01*
X168820428Y-118763163D01*
X168801042Y-118960000D01*
X168278958Y-118960000D01*
X168259571Y-118763162D01*
X168202156Y-118573888D01*
X168108918Y-118399453D01*
X168108915Y-118399449D01*
X167983441Y-118246558D01*
X167830550Y-118121084D01*
X167830548Y-118121083D01*
X167830547Y-118121082D01*
X167656112Y-118027844D01*
X167561475Y-117999136D01*
X167466836Y-117970428D01*
X167270000Y-117951042D01*
X167073163Y-117970428D01*
X166883885Y-118027845D01*
X166709449Y-118121084D01*
X166556558Y-118246558D01*
X166431084Y-118399449D01*
X166337845Y-118573885D01*
X166280428Y-118763163D01*
X166261042Y-118960000D01*
X165738958Y-118960000D01*
X165719571Y-118763162D01*
X165662156Y-118573888D01*
X165568918Y-118399453D01*
X165568915Y-118399449D01*
X165443441Y-118246558D01*
X165290550Y-118121084D01*
X165290548Y-118121083D01*
X165290547Y-118121082D01*
X165116112Y-118027844D01*
X165021475Y-117999136D01*
X164926836Y-117970428D01*
X164730000Y-117951042D01*
X164533163Y-117970428D01*
X164343885Y-118027845D01*
X164169449Y-118121084D01*
X164016558Y-118246558D01*
X163891084Y-118399449D01*
X163797845Y-118573885D01*
X163740428Y-118763163D01*
X163721042Y-118960000D01*
X163198958Y-118960000D01*
X163179571Y-118763162D01*
X163122156Y-118573888D01*
X163028918Y-118399453D01*
X163028915Y-118399449D01*
X162903441Y-118246558D01*
X162750550Y-118121084D01*
X162750548Y-118121083D01*
X162750547Y-118121082D01*
X162576112Y-118027844D01*
X162481475Y-117999136D01*
X162386836Y-117970428D01*
X162190000Y-117951042D01*
X161993163Y-117970428D01*
X161803885Y-118027845D01*
X161629449Y-118121084D01*
X161476558Y-118246558D01*
X161351084Y-118399449D01*
X161257845Y-118573885D01*
X161200428Y-118763163D01*
X161181042Y-118960000D01*
X160658958Y-118960000D01*
X160639571Y-118763162D01*
X160582156Y-118573888D01*
X160488918Y-118399453D01*
X160488915Y-118399449D01*
X160363441Y-118246558D01*
X160210550Y-118121084D01*
X160210548Y-118121083D01*
X160210547Y-118121082D01*
X160036112Y-118027844D01*
X159941475Y-117999136D01*
X159846836Y-117970428D01*
X159650000Y-117951042D01*
X159453163Y-117970428D01*
X159263885Y-118027845D01*
X159089449Y-118121084D01*
X158936558Y-118246558D01*
X158811084Y-118399449D01*
X158717845Y-118573885D01*
X158660428Y-118763163D01*
X158641042Y-118960000D01*
X158118958Y-118960000D01*
X158099571Y-118763162D01*
X158042156Y-118573888D01*
X157948918Y-118399453D01*
X157948915Y-118399449D01*
X157823441Y-118246558D01*
X157670550Y-118121084D01*
X157670548Y-118121083D01*
X157670547Y-118121082D01*
X157496112Y-118027844D01*
X157401475Y-117999136D01*
X157306836Y-117970428D01*
X157110000Y-117951042D01*
X156913163Y-117970428D01*
X156723885Y-118027845D01*
X156549449Y-118121084D01*
X156396558Y-118246558D01*
X156271084Y-118399449D01*
X156177845Y-118573885D01*
X156120428Y-118763163D01*
X156101042Y-118960000D01*
X155578958Y-118960000D01*
X155559571Y-118763162D01*
X155502156Y-118573888D01*
X155408918Y-118399453D01*
X155408915Y-118399449D01*
X155283441Y-118246558D01*
X155130550Y-118121084D01*
X155130548Y-118121083D01*
X155130547Y-118121082D01*
X154956112Y-118027844D01*
X154861475Y-117999136D01*
X154766836Y-117970428D01*
X154570000Y-117951042D01*
X154373163Y-117970428D01*
X154183885Y-118027845D01*
X154009449Y-118121084D01*
X153856558Y-118246558D01*
X153731084Y-118399449D01*
X153637845Y-118573885D01*
X153580428Y-118763163D01*
X153561042Y-118960000D01*
X153038958Y-118960000D01*
X153019571Y-118763162D01*
X152962156Y-118573888D01*
X152868918Y-118399453D01*
X152868915Y-118399449D01*
X152743441Y-118246558D01*
X152590550Y-118121084D01*
X152590548Y-118121083D01*
X152590547Y-118121082D01*
X152416112Y-118027844D01*
X152321475Y-117999136D01*
X152226836Y-117970428D01*
X152030000Y-117951042D01*
X151833163Y-117970428D01*
X151643885Y-118027845D01*
X151469449Y-118121084D01*
X151316558Y-118246558D01*
X151191084Y-118399449D01*
X151097845Y-118573885D01*
X151040428Y-118763163D01*
X151021042Y-118960000D01*
X150498958Y-118960000D01*
X150479571Y-118763162D01*
X150461632Y-118704025D01*
X150461008Y-118634158D01*
X150492609Y-118580350D01*
X157732960Y-111340000D01*
X181501042Y-111340000D01*
X181520428Y-111536836D01*
X181577845Y-111726114D01*
X181671084Y-111900550D01*
X181796558Y-112053441D01*
X181949449Y-112178915D01*
X181949453Y-112178918D01*
X182123888Y-112272156D01*
X182313162Y-112329571D01*
X182510000Y-112348958D01*
X182706838Y-112329571D01*
X182896112Y-112272156D01*
X183070547Y-112178918D01*
X183223441Y-112053441D01*
X183348918Y-111900547D01*
X183442156Y-111726112D01*
X183499571Y-111536838D01*
X183518958Y-111340000D01*
X183499571Y-111143162D01*
X183442156Y-110953888D01*
X183348918Y-110779453D01*
X183348915Y-110779449D01*
X183223441Y-110626558D01*
X183070550Y-110501084D01*
X183070548Y-110501083D01*
X183070547Y-110501082D01*
X182896112Y-110407844D01*
X182801475Y-110379136D01*
X182706836Y-110350428D01*
X182510000Y-110331042D01*
X182313163Y-110350428D01*
X182123885Y-110407845D01*
X181949449Y-110501084D01*
X181796558Y-110626558D01*
X181671084Y-110779449D01*
X181577845Y-110953885D01*
X181520428Y-111143163D01*
X181501042Y-111340000D01*
X157732960Y-111340000D01*
X160272961Y-108800000D01*
X181501042Y-108800000D01*
X181520428Y-108996836D01*
X181520429Y-108996838D01*
X181577844Y-109186112D01*
X181646209Y-109314014D01*
X181671084Y-109360550D01*
X181796558Y-109513441D01*
X181949449Y-109638915D01*
X181949453Y-109638918D01*
X182123888Y-109732156D01*
X182313162Y-109789571D01*
X182510000Y-109808958D01*
X182706838Y-109789571D01*
X182896112Y-109732156D01*
X183070547Y-109638918D01*
X183223441Y-109513441D01*
X183348918Y-109360547D01*
X183442156Y-109186112D01*
X183499571Y-108996838D01*
X183518958Y-108800000D01*
X183499571Y-108603162D01*
X183442156Y-108413888D01*
X183348918Y-108239453D01*
X183348915Y-108239449D01*
X183223441Y-108086558D01*
X183070550Y-107961084D01*
X183070548Y-107961083D01*
X183070547Y-107961082D01*
X182896112Y-107867844D01*
X182801475Y-107839136D01*
X182706836Y-107810428D01*
X182510000Y-107791042D01*
X182313163Y-107810428D01*
X182123885Y-107867845D01*
X181949449Y-107961084D01*
X181796558Y-108086558D01*
X181671084Y-108239449D01*
X181577845Y-108413885D01*
X181520428Y-108603163D01*
X181501042Y-108800000D01*
X160272961Y-108800000D01*
X162812961Y-106260000D01*
X181501042Y-106260000D01*
X181520428Y-106456836D01*
X181577845Y-106646114D01*
X181671084Y-106820550D01*
X181796558Y-106973441D01*
X181949449Y-107098915D01*
X181949453Y-107098918D01*
X182123888Y-107192156D01*
X182313162Y-107249571D01*
X182510000Y-107268958D01*
X182706838Y-107249571D01*
X182896112Y-107192156D01*
X183070547Y-107098918D01*
X183223441Y-106973441D01*
X183348918Y-106820547D01*
X183442156Y-106646112D01*
X183499571Y-106456838D01*
X183518958Y-106260000D01*
X183499571Y-106063162D01*
X183442156Y-105873888D01*
X183348918Y-105699453D01*
X183348915Y-105699449D01*
X183223441Y-105546558D01*
X183070550Y-105421084D01*
X183070548Y-105421083D01*
X183070547Y-105421082D01*
X182896112Y-105327844D01*
X182801475Y-105299136D01*
X182706836Y-105270428D01*
X182510000Y-105251042D01*
X182313163Y-105270428D01*
X182123885Y-105327845D01*
X181949449Y-105421084D01*
X181796558Y-105546558D01*
X181671084Y-105699449D01*
X181577845Y-105873885D01*
X181520428Y-106063163D01*
X181501042Y-106260000D01*
X162812961Y-106260000D01*
X163346142Y-105726819D01*
X163407465Y-105693334D01*
X163433823Y-105690500D01*
X163737991Y-105690500D01*
X163737993Y-105690500D01*
X163850027Y-105660481D01*
X163950473Y-105602488D01*
X164032488Y-105520473D01*
X164090481Y-105420027D01*
X164120500Y-105307993D01*
X164120500Y-104761986D01*
X164140185Y-104694947D01*
X164186047Y-104652628D01*
X164232955Y-104627556D01*
X164383778Y-104503778D01*
X164507556Y-104352955D01*
X164599531Y-104180882D01*
X164656169Y-103994172D01*
X164675293Y-103800000D01*
X165224707Y-103800000D01*
X165243830Y-103994169D01*
X165300471Y-104180888D01*
X165392440Y-104352949D01*
X165392444Y-104352956D01*
X165516221Y-104503778D01*
X165667043Y-104627555D01*
X165667050Y-104627559D01*
X165839111Y-104719528D01*
X165839114Y-104719528D01*
X165839118Y-104719531D01*
X166025828Y-104776169D01*
X166220000Y-104795293D01*
X166414172Y-104776169D01*
X166600882Y-104719531D01*
X166646876Y-104694947D01*
X166726050Y-104652627D01*
X166772955Y-104627556D01*
X166923778Y-104503778D01*
X167047556Y-104352955D01*
X167139531Y-104180882D01*
X167196169Y-103994172D01*
X167215293Y-103800000D01*
X167207414Y-103720000D01*
X181501042Y-103720000D01*
X181520428Y-103916836D01*
X181577845Y-104106114D01*
X181671084Y-104280550D01*
X181796558Y-104433441D01*
X181949449Y-104558915D01*
X181949453Y-104558918D01*
X182123888Y-104652156D01*
X182313162Y-104709571D01*
X182510000Y-104728958D01*
X182706838Y-104709571D01*
X182896112Y-104652156D01*
X183070547Y-104558918D01*
X183223441Y-104433441D01*
X183348918Y-104280547D01*
X183442156Y-104106112D01*
X183499571Y-103916838D01*
X183518958Y-103720000D01*
X183499571Y-103523162D01*
X183442156Y-103333888D01*
X183348918Y-103159453D01*
X183297025Y-103096221D01*
X183223441Y-103006558D01*
X183070550Y-102881084D01*
X183070548Y-102881083D01*
X183070547Y-102881082D01*
X182896112Y-102787844D01*
X182801475Y-102759136D01*
X182706836Y-102730428D01*
X182510000Y-102711042D01*
X182313163Y-102730428D01*
X182123885Y-102787845D01*
X181949449Y-102881084D01*
X181796558Y-103006558D01*
X181671084Y-103159449D01*
X181577845Y-103333885D01*
X181520428Y-103523163D01*
X181501042Y-103720000D01*
X167207414Y-103720000D01*
X167196169Y-103605828D01*
X167139531Y-103419118D01*
X167139528Y-103419114D01*
X167139528Y-103419111D01*
X167047559Y-103247050D01*
X167047555Y-103247043D01*
X166923778Y-103096221D01*
X166772956Y-102972444D01*
X166772949Y-102972440D01*
X166600888Y-102880471D01*
X166600882Y-102880469D01*
X166414172Y-102823831D01*
X166414169Y-102823830D01*
X166220000Y-102804707D01*
X166025830Y-102823830D01*
X165839111Y-102880471D01*
X165667050Y-102972440D01*
X165667043Y-102972444D01*
X165516221Y-103096221D01*
X165392444Y-103247043D01*
X165392440Y-103247050D01*
X165300471Y-103419111D01*
X165243830Y-103605830D01*
X165224707Y-103800000D01*
X164675293Y-103800000D01*
X164656169Y-103605828D01*
X164599531Y-103419118D01*
X164599528Y-103419114D01*
X164599528Y-103419111D01*
X164507559Y-103247050D01*
X164507555Y-103247043D01*
X164383778Y-103096221D01*
X164232956Y-102972444D01*
X164232949Y-102972440D01*
X164060888Y-102880471D01*
X164060882Y-102880469D01*
X163874172Y-102823831D01*
X163874169Y-102823830D01*
X163680000Y-102804707D01*
X163485830Y-102823830D01*
X163299111Y-102880471D01*
X163127050Y-102972440D01*
X163127043Y-102972444D01*
X162976221Y-103096221D01*
X162852444Y-103247043D01*
X162852440Y-103247050D01*
X162760471Y-103419111D01*
X162703830Y-103605830D01*
X162684707Y-103800000D01*
X162703830Y-103994169D01*
X162760471Y-104180888D01*
X162852440Y-104352949D01*
X162852444Y-104352956D01*
X162976221Y-104503778D01*
X163111248Y-104614592D01*
X163150582Y-104672338D01*
X163152453Y-104742182D01*
X163116265Y-104801951D01*
X163064678Y-104830219D01*
X163029974Y-104839518D01*
X163029973Y-104839518D01*
X162929527Y-104897512D01*
X162929524Y-104897514D01*
X149869650Y-117957387D01*
X149808327Y-117990872D01*
X149745975Y-117988367D01*
X149686837Y-117970428D01*
X149686838Y-117970428D01*
X149490000Y-117951042D01*
X149293163Y-117970428D01*
X149103885Y-118027845D01*
X148929449Y-118121084D01*
X148776558Y-118246558D01*
X148651084Y-118399449D01*
X148557845Y-118573885D01*
X148500428Y-118763163D01*
X148481042Y-118960000D01*
X147958958Y-118960000D01*
X147939571Y-118763162D01*
X147882156Y-118573888D01*
X147788918Y-118399453D01*
X147788915Y-118399449D01*
X147663441Y-118246558D01*
X147510550Y-118121084D01*
X147510548Y-118121083D01*
X147510547Y-118121082D01*
X147336112Y-118027844D01*
X147241475Y-117999136D01*
X147146836Y-117970428D01*
X146950000Y-117951042D01*
X146753163Y-117970428D01*
X146563885Y-118027845D01*
X146389449Y-118121084D01*
X146236558Y-118246558D01*
X146111084Y-118399449D01*
X146017845Y-118573885D01*
X145960428Y-118763163D01*
X145941042Y-118960000D01*
X145418958Y-118960000D01*
X145399571Y-118763162D01*
X145342156Y-118573888D01*
X145248918Y-118399453D01*
X145248915Y-118399449D01*
X145123441Y-118246558D01*
X144970550Y-118121084D01*
X144970548Y-118121083D01*
X144970547Y-118121082D01*
X144796112Y-118027844D01*
X144701475Y-117999136D01*
X144606836Y-117970428D01*
X144410000Y-117951042D01*
X144213163Y-117970428D01*
X144023885Y-118027845D01*
X143849449Y-118121084D01*
X143696558Y-118246558D01*
X143571084Y-118399449D01*
X143477845Y-118573885D01*
X143420428Y-118763163D01*
X143401042Y-118960000D01*
X142878958Y-118960000D01*
X142859571Y-118763162D01*
X142802156Y-118573888D01*
X142708918Y-118399453D01*
X142708915Y-118399449D01*
X142583441Y-118246558D01*
X142430550Y-118121084D01*
X142430548Y-118121083D01*
X142430547Y-118121082D01*
X142256112Y-118027844D01*
X142161475Y-117999136D01*
X142066836Y-117970428D01*
X141870000Y-117951042D01*
X141673163Y-117970428D01*
X141483885Y-118027845D01*
X141309449Y-118121084D01*
X141156558Y-118246558D01*
X141031084Y-118399449D01*
X140937845Y-118573885D01*
X140880428Y-118763163D01*
X140861042Y-118960000D01*
X138439600Y-118960000D01*
X138439600Y-118186923D01*
X138459285Y-118119884D01*
X138475919Y-118099242D01*
X140844642Y-115730519D01*
X140905965Y-115697034D01*
X140932323Y-115694200D01*
X149744291Y-115694200D01*
X149744293Y-115694200D01*
X149856327Y-115664181D01*
X149956773Y-115606188D01*
X160771253Y-104791706D01*
X160832574Y-104758223D01*
X160894925Y-104760727D01*
X160945828Y-104776169D01*
X161140000Y-104795293D01*
X161334172Y-104776169D01*
X161520882Y-104719531D01*
X161566876Y-104694947D01*
X161646050Y-104652627D01*
X161692955Y-104627556D01*
X161843778Y-104503778D01*
X161967556Y-104352955D01*
X162059531Y-104180882D01*
X162116169Y-103994172D01*
X162135293Y-103800000D01*
X162116169Y-103605828D01*
X162059531Y-103419118D01*
X162059528Y-103419114D01*
X162059528Y-103419111D01*
X161967559Y-103247050D01*
X161967555Y-103247043D01*
X161843778Y-103096221D01*
X161692956Y-102972444D01*
X161692949Y-102972440D01*
X161520888Y-102880471D01*
X161520882Y-102880469D01*
X161334172Y-102823831D01*
X161334169Y-102823830D01*
X161140000Y-102804707D01*
X160945830Y-102823830D01*
X160759111Y-102880471D01*
X160587050Y-102972440D01*
X160587043Y-102972444D01*
X160436221Y-103096221D01*
X160312444Y-103247043D01*
X160312440Y-103247050D01*
X160220471Y-103419111D01*
X160163830Y-103605830D01*
X160144707Y-103800000D01*
X160163830Y-103994169D01*
X160163831Y-103994172D01*
X160179271Y-104045071D01*
X160179894Y-104114937D01*
X160148291Y-104168746D01*
X149540158Y-114776881D01*
X149478835Y-114810366D01*
X149452477Y-114813200D01*
X141021023Y-114813200D01*
X140953984Y-114793515D01*
X140908229Y-114740711D01*
X140898285Y-114671553D01*
X140927310Y-114607997D01*
X140933342Y-114601519D01*
X145391542Y-110143319D01*
X145452865Y-110109834D01*
X145479223Y-110107000D01*
X150251491Y-110107000D01*
X150251493Y-110107000D01*
X150363527Y-110076981D01*
X150463973Y-110018988D01*
X155691253Y-104791706D01*
X155752574Y-104758223D01*
X155814925Y-104760727D01*
X155865828Y-104776169D01*
X156060000Y-104795293D01*
X156254172Y-104776169D01*
X156440882Y-104719531D01*
X156486876Y-104694947D01*
X156566050Y-104652627D01*
X156612955Y-104627556D01*
X156763778Y-104503778D01*
X156887556Y-104352955D01*
X156979531Y-104180882D01*
X157036169Y-103994172D01*
X157055293Y-103800000D01*
X157604707Y-103800000D01*
X157623830Y-103994169D01*
X157680471Y-104180888D01*
X157772440Y-104352949D01*
X157772444Y-104352956D01*
X157896221Y-104503778D01*
X158047043Y-104627555D01*
X158047050Y-104627559D01*
X158219111Y-104719528D01*
X158219114Y-104719528D01*
X158219118Y-104719531D01*
X158405828Y-104776169D01*
X158600000Y-104795293D01*
X158794172Y-104776169D01*
X158980882Y-104719531D01*
X159026876Y-104694947D01*
X159106050Y-104652627D01*
X159152955Y-104627556D01*
X159303778Y-104503778D01*
X159427556Y-104352955D01*
X159519531Y-104180882D01*
X159576169Y-103994172D01*
X159595293Y-103800000D01*
X159576169Y-103605828D01*
X159519531Y-103419118D01*
X159519528Y-103419114D01*
X159519528Y-103419111D01*
X159427559Y-103247050D01*
X159427555Y-103247043D01*
X159303778Y-103096221D01*
X159152956Y-102972444D01*
X159152949Y-102972440D01*
X158980888Y-102880471D01*
X158980882Y-102880469D01*
X158794172Y-102823831D01*
X158794169Y-102823830D01*
X158600000Y-102804707D01*
X158405830Y-102823830D01*
X158219111Y-102880471D01*
X158047050Y-102972440D01*
X158047043Y-102972444D01*
X157896221Y-103096221D01*
X157772444Y-103247043D01*
X157772440Y-103247050D01*
X157680471Y-103419111D01*
X157623830Y-103605830D01*
X157604707Y-103800000D01*
X157055293Y-103800000D01*
X157036169Y-103605828D01*
X156979531Y-103419118D01*
X156979528Y-103419114D01*
X156979528Y-103419111D01*
X156887559Y-103247050D01*
X156887555Y-103247043D01*
X156763778Y-103096221D01*
X156612956Y-102972444D01*
X156612949Y-102972440D01*
X156440888Y-102880471D01*
X156440882Y-102880469D01*
X156254172Y-102823831D01*
X156254169Y-102823830D01*
X156060000Y-102804707D01*
X155865830Y-102823830D01*
X155679111Y-102880471D01*
X155507050Y-102972440D01*
X155507043Y-102972444D01*
X155356221Y-103096221D01*
X155232444Y-103247043D01*
X155232440Y-103247050D01*
X155140471Y-103419111D01*
X155083830Y-103605830D01*
X155064707Y-103800000D01*
X155083830Y-103994169D01*
X155083831Y-103994172D01*
X155099271Y-104045071D01*
X155099894Y-104114937D01*
X155068291Y-104168746D01*
X150047358Y-109189681D01*
X149986035Y-109223166D01*
X149959677Y-109226000D01*
X145187407Y-109226000D01*
X145075371Y-109256019D01*
X144974927Y-109314012D01*
X144974924Y-109314014D01*
X137187881Y-117101058D01*
X137126558Y-117134543D01*
X137056866Y-117129559D01*
X137000933Y-117087687D01*
X136976516Y-117022223D01*
X136976200Y-117013377D01*
X136976200Y-101180000D01*
X181501042Y-101180000D01*
X181520428Y-101376836D01*
X181577845Y-101566114D01*
X181671084Y-101740550D01*
X181796558Y-101893441D01*
X181949449Y-102018915D01*
X181949453Y-102018918D01*
X182123888Y-102112156D01*
X182313162Y-102169571D01*
X182510000Y-102188958D01*
X182706838Y-102169571D01*
X182896112Y-102112156D01*
X183070547Y-102018918D01*
X183223441Y-101893441D01*
X183348918Y-101740547D01*
X183442156Y-101566112D01*
X183499571Y-101376838D01*
X183518958Y-101180000D01*
X183499571Y-100983162D01*
X183442156Y-100793888D01*
X183348918Y-100619453D01*
X183348915Y-100619449D01*
X183223441Y-100466558D01*
X183070550Y-100341084D01*
X183070548Y-100341083D01*
X183070547Y-100341082D01*
X182896112Y-100247844D01*
X182801475Y-100219136D01*
X182706836Y-100190428D01*
X182510000Y-100171042D01*
X182313163Y-100190428D01*
X182123885Y-100247845D01*
X181949449Y-100341084D01*
X181796558Y-100466558D01*
X181671084Y-100619449D01*
X181577845Y-100793885D01*
X181520428Y-100983163D01*
X181501042Y-101180000D01*
X136976200Y-101180000D01*
X136976200Y-98640000D01*
X181501042Y-98640000D01*
X181520428Y-98836836D01*
X181577845Y-99026114D01*
X181671084Y-99200550D01*
X181796558Y-99353441D01*
X181949449Y-99478915D01*
X181949453Y-99478918D01*
X182123888Y-99572156D01*
X182313162Y-99629571D01*
X182510000Y-99648958D01*
X182706838Y-99629571D01*
X182896112Y-99572156D01*
X183070547Y-99478918D01*
X183223441Y-99353441D01*
X183348918Y-99200547D01*
X183442156Y-99026112D01*
X183499571Y-98836838D01*
X183518958Y-98640000D01*
X183499571Y-98443162D01*
X183442156Y-98253888D01*
X183348918Y-98079453D01*
X183348915Y-98079449D01*
X183223441Y-97926558D01*
X183070550Y-97801084D01*
X183070548Y-97801083D01*
X183070547Y-97801082D01*
X182896112Y-97707844D01*
X182801475Y-97679136D01*
X182706836Y-97650428D01*
X182510000Y-97631042D01*
X182313163Y-97650428D01*
X182123885Y-97707845D01*
X181949449Y-97801084D01*
X181796558Y-97926558D01*
X181671084Y-98079449D01*
X181577845Y-98253885D01*
X181520428Y-98443163D01*
X181501042Y-98640000D01*
X136976200Y-98640000D01*
X136976200Y-96100000D01*
X181501042Y-96100000D01*
X181520428Y-96296836D01*
X181577845Y-96486114D01*
X181671084Y-96660550D01*
X181796558Y-96813441D01*
X181949449Y-96938915D01*
X181949453Y-96938918D01*
X182123888Y-97032156D01*
X182313162Y-97089571D01*
X182510000Y-97108958D01*
X182706838Y-97089571D01*
X182896112Y-97032156D01*
X183070547Y-96938918D01*
X183223441Y-96813441D01*
X183348918Y-96660547D01*
X183442156Y-96486112D01*
X183499571Y-96296838D01*
X183518958Y-96100000D01*
X183499571Y-95903162D01*
X183442156Y-95713888D01*
X183348918Y-95539453D01*
X183348915Y-95539449D01*
X183223441Y-95386558D01*
X183070550Y-95261084D01*
X183070548Y-95261083D01*
X183070547Y-95261082D01*
X182896112Y-95167844D01*
X182801475Y-95139136D01*
X182706836Y-95110428D01*
X182510000Y-95091042D01*
X182313163Y-95110428D01*
X182123885Y-95167845D01*
X181949449Y-95261084D01*
X181796558Y-95386558D01*
X181671084Y-95539449D01*
X181577845Y-95713885D01*
X181520428Y-95903163D01*
X181501042Y-96100000D01*
X136976200Y-96100000D01*
X136976200Y-93560000D01*
X181501042Y-93560000D01*
X181520428Y-93756836D01*
X181577845Y-93946114D01*
X181671084Y-94120550D01*
X181796558Y-94273441D01*
X181949449Y-94398915D01*
X181949453Y-94398918D01*
X182123888Y-94492156D01*
X182313162Y-94549571D01*
X182510000Y-94568958D01*
X182706838Y-94549571D01*
X182896112Y-94492156D01*
X183070547Y-94398918D01*
X183223441Y-94273441D01*
X183348918Y-94120547D01*
X183442156Y-93946112D01*
X183499571Y-93756838D01*
X183518958Y-93560000D01*
X183499571Y-93363162D01*
X183442156Y-93173888D01*
X183348918Y-92999453D01*
X183348915Y-92999449D01*
X183223441Y-92846558D01*
X183070550Y-92721084D01*
X183070548Y-92721083D01*
X183070547Y-92721082D01*
X182896112Y-92627844D01*
X182801475Y-92599136D01*
X182706836Y-92570428D01*
X182510000Y-92551042D01*
X182313163Y-92570428D01*
X182123885Y-92627845D01*
X181949449Y-92721084D01*
X181796558Y-92846558D01*
X181671084Y-92999449D01*
X181577845Y-93173885D01*
X181520428Y-93363163D01*
X181501042Y-93560000D01*
X136976200Y-93560000D01*
X136976200Y-90898711D01*
X137479500Y-90898711D01*
X137479500Y-91141288D01*
X137511161Y-91381785D01*
X137573947Y-91616104D01*
X137622550Y-91733441D01*
X137666776Y-91840212D01*
X137788064Y-92050289D01*
X137788066Y-92050292D01*
X137788067Y-92050293D01*
X137935733Y-92242736D01*
X137935739Y-92242743D01*
X138107256Y-92414260D01*
X138107262Y-92414265D01*
X138299711Y-92561936D01*
X138509788Y-92683224D01*
X138733900Y-92776054D01*
X138968211Y-92838838D01*
X139148586Y-92862584D01*
X139208711Y-92870500D01*
X139208712Y-92870500D01*
X139451289Y-92870500D01*
X139499388Y-92864167D01*
X139691789Y-92838838D01*
X139926100Y-92776054D01*
X140150212Y-92683224D01*
X140360289Y-92561936D01*
X140552738Y-92414265D01*
X140724265Y-92242738D01*
X140871936Y-92050289D01*
X140993224Y-91840212D01*
X141086054Y-91616100D01*
X141148838Y-91381789D01*
X141179748Y-91147000D01*
X158641042Y-91147000D01*
X158660428Y-91343836D01*
X158660429Y-91343838D01*
X158717844Y-91533112D01*
X158762204Y-91616104D01*
X158811084Y-91707550D01*
X158936558Y-91860441D01*
X159089449Y-91985915D01*
X159089453Y-91985918D01*
X159263888Y-92079156D01*
X159453162Y-92136571D01*
X159650000Y-92155958D01*
X159846838Y-92136571D01*
X160036112Y-92079156D01*
X160210547Y-91985918D01*
X160363441Y-91860441D01*
X160488918Y-91707547D01*
X160582156Y-91533112D01*
X160639571Y-91343838D01*
X160658958Y-91147000D01*
X161181042Y-91147000D01*
X161200428Y-91343836D01*
X161200429Y-91343838D01*
X161257844Y-91533112D01*
X161302204Y-91616104D01*
X161351084Y-91707550D01*
X161476558Y-91860441D01*
X161629449Y-91985915D01*
X161629453Y-91985918D01*
X161803888Y-92079156D01*
X161993162Y-92136571D01*
X162190000Y-92155958D01*
X162386838Y-92136571D01*
X162576112Y-92079156D01*
X162750547Y-91985918D01*
X162903441Y-91860441D01*
X163028918Y-91707547D01*
X163122156Y-91533112D01*
X163179571Y-91343838D01*
X163198958Y-91147000D01*
X163179571Y-90950162D01*
X163163964Y-90898711D01*
X165419500Y-90898711D01*
X165419500Y-91141288D01*
X165451161Y-91381785D01*
X165513947Y-91616104D01*
X165562550Y-91733441D01*
X165606776Y-91840212D01*
X165728064Y-92050289D01*
X165728066Y-92050292D01*
X165728067Y-92050293D01*
X165875733Y-92242736D01*
X165875739Y-92242743D01*
X166047256Y-92414260D01*
X166047262Y-92414265D01*
X166239711Y-92561936D01*
X166449788Y-92683224D01*
X166673900Y-92776054D01*
X166908211Y-92838838D01*
X167088586Y-92862584D01*
X167148711Y-92870500D01*
X167148712Y-92870500D01*
X167391289Y-92870500D01*
X167439388Y-92864167D01*
X167631789Y-92838838D01*
X167866100Y-92776054D01*
X168090212Y-92683224D01*
X168300289Y-92561936D01*
X168492738Y-92414265D01*
X168664265Y-92242738D01*
X168811936Y-92050289D01*
X168933224Y-91840212D01*
X169026054Y-91616100D01*
X169088838Y-91381789D01*
X169120500Y-91141288D01*
X169120500Y-90898712D01*
X169088838Y-90658211D01*
X169026054Y-90423900D01*
X168933224Y-90199788D01*
X168811936Y-89989711D01*
X168664265Y-89797262D01*
X168664260Y-89797256D01*
X168492743Y-89625739D01*
X168492736Y-89625733D01*
X168300293Y-89478067D01*
X168300292Y-89478066D01*
X168300289Y-89478064D01*
X168090212Y-89356776D01*
X168090205Y-89356773D01*
X167866104Y-89263947D01*
X167631785Y-89201161D01*
X167391289Y-89169500D01*
X167391288Y-89169500D01*
X167148712Y-89169500D01*
X167148711Y-89169500D01*
X166908214Y-89201161D01*
X166673895Y-89263947D01*
X166449794Y-89356773D01*
X166449785Y-89356777D01*
X166239706Y-89478067D01*
X166047263Y-89625733D01*
X166047256Y-89625739D01*
X165875739Y-89797256D01*
X165875733Y-89797263D01*
X165728067Y-89989706D01*
X165606777Y-90199785D01*
X165606773Y-90199794D01*
X165513947Y-90423895D01*
X165451161Y-90658214D01*
X165419500Y-90898711D01*
X163163964Y-90898711D01*
X163122156Y-90760888D01*
X163028918Y-90586453D01*
X162924692Y-90459453D01*
X162903441Y-90433558D01*
X162750550Y-90308084D01*
X162750548Y-90308083D01*
X162750547Y-90308082D01*
X162576112Y-90214844D01*
X162464819Y-90181084D01*
X162386836Y-90157428D01*
X162190000Y-90138042D01*
X161993163Y-90157428D01*
X161803885Y-90214845D01*
X161629449Y-90308084D01*
X161476558Y-90433558D01*
X161351084Y-90586449D01*
X161257845Y-90760885D01*
X161200428Y-90950163D01*
X161181042Y-91147000D01*
X160658958Y-91147000D01*
X160639571Y-90950162D01*
X160582156Y-90760888D01*
X160488918Y-90586453D01*
X160384692Y-90459453D01*
X160363441Y-90433558D01*
X160210550Y-90308084D01*
X160210548Y-90308083D01*
X160210547Y-90308082D01*
X160036112Y-90214844D01*
X159924819Y-90181084D01*
X159846836Y-90157428D01*
X159650000Y-90138042D01*
X159453163Y-90157428D01*
X159263885Y-90214845D01*
X159089449Y-90308084D01*
X158936558Y-90433558D01*
X158811084Y-90586449D01*
X158717845Y-90760885D01*
X158660428Y-90950163D01*
X158641042Y-91147000D01*
X141179748Y-91147000D01*
X141180500Y-91141288D01*
X141180500Y-90898712D01*
X141148838Y-90658211D01*
X141086054Y-90423900D01*
X140993224Y-90199788D01*
X140871936Y-89989711D01*
X140724265Y-89797262D01*
X140724260Y-89797256D01*
X140552743Y-89625739D01*
X140552736Y-89625733D01*
X140360293Y-89478067D01*
X140360292Y-89478066D01*
X140360289Y-89478064D01*
X140150212Y-89356776D01*
X140150205Y-89356773D01*
X139926104Y-89263947D01*
X139691785Y-89201161D01*
X139451289Y-89169500D01*
X139451288Y-89169500D01*
X139208712Y-89169500D01*
X139208711Y-89169500D01*
X138968214Y-89201161D01*
X138733895Y-89263947D01*
X138509794Y-89356773D01*
X138509785Y-89356777D01*
X138299706Y-89478067D01*
X138107263Y-89625733D01*
X138107256Y-89625739D01*
X137935739Y-89797256D01*
X137935733Y-89797263D01*
X137788067Y-89989706D01*
X137666777Y-90199785D01*
X137666773Y-90199794D01*
X137573947Y-90423895D01*
X137511161Y-90658214D01*
X137479500Y-90898711D01*
X136976200Y-90898711D01*
X136976200Y-88607000D01*
X156101042Y-88607000D01*
X156120428Y-88803836D01*
X156177845Y-88993114D01*
X156271084Y-89167550D01*
X156396558Y-89320441D01*
X156549449Y-89445915D01*
X156549453Y-89445918D01*
X156723888Y-89539156D01*
X156913162Y-89596571D01*
X157110000Y-89615958D01*
X157306838Y-89596571D01*
X157496112Y-89539156D01*
X157670547Y-89445918D01*
X157823441Y-89320441D01*
X157948918Y-89167547D01*
X158042156Y-88993112D01*
X158099571Y-88803838D01*
X158118958Y-88607000D01*
X158641042Y-88607000D01*
X158660428Y-88803836D01*
X158717845Y-88993114D01*
X158811084Y-89167550D01*
X158936558Y-89320441D01*
X159089449Y-89445915D01*
X159089453Y-89445918D01*
X159263888Y-89539156D01*
X159453162Y-89596571D01*
X159650000Y-89615958D01*
X159846838Y-89596571D01*
X160036112Y-89539156D01*
X160210547Y-89445918D01*
X160363441Y-89320441D01*
X160488918Y-89167547D01*
X160582156Y-88993112D01*
X160639571Y-88803838D01*
X160658958Y-88607000D01*
X161181042Y-88607000D01*
X161200428Y-88803836D01*
X161257845Y-88993114D01*
X161351084Y-89167550D01*
X161476558Y-89320441D01*
X161629449Y-89445915D01*
X161629453Y-89445918D01*
X161803888Y-89539156D01*
X161993162Y-89596571D01*
X162190000Y-89615958D01*
X162386838Y-89596571D01*
X162576112Y-89539156D01*
X162750547Y-89445918D01*
X162903441Y-89320441D01*
X163028918Y-89167547D01*
X163122156Y-88993112D01*
X163179571Y-88803838D01*
X163198958Y-88607000D01*
X163186449Y-88480000D01*
X181501042Y-88480000D01*
X181520428Y-88676836D01*
X181520429Y-88676838D01*
X181577844Y-88866112D01*
X181645728Y-88993114D01*
X181671084Y-89040550D01*
X181796558Y-89193441D01*
X181949449Y-89318915D01*
X181949453Y-89318918D01*
X182123888Y-89412156D01*
X182313162Y-89469571D01*
X182510000Y-89488958D01*
X182706838Y-89469571D01*
X182896112Y-89412156D01*
X183070547Y-89318918D01*
X183223441Y-89193441D01*
X183348918Y-89040547D01*
X183442156Y-88866112D01*
X183499571Y-88676838D01*
X183518958Y-88480000D01*
X183499571Y-88283162D01*
X183442156Y-88093888D01*
X183348918Y-87919453D01*
X183348915Y-87919449D01*
X183223441Y-87766558D01*
X183070550Y-87641084D01*
X183070548Y-87641083D01*
X183070547Y-87641082D01*
X182896112Y-87547844D01*
X182801475Y-87519136D01*
X182706836Y-87490428D01*
X182510000Y-87471042D01*
X182313163Y-87490428D01*
X182123885Y-87547845D01*
X181949449Y-87641084D01*
X181796558Y-87766558D01*
X181671084Y-87919449D01*
X181577845Y-88093885D01*
X181520428Y-88283163D01*
X181501042Y-88480000D01*
X163186449Y-88480000D01*
X163179571Y-88410162D01*
X163122156Y-88220888D01*
X163028918Y-88046453D01*
X162924692Y-87919453D01*
X162903441Y-87893558D01*
X162750550Y-87768084D01*
X162750548Y-87768083D01*
X162750547Y-87768082D01*
X162576112Y-87674844D01*
X162464819Y-87641084D01*
X162386836Y-87617428D01*
X162190000Y-87598042D01*
X161993163Y-87617428D01*
X161803885Y-87674845D01*
X161629449Y-87768084D01*
X161476558Y-87893558D01*
X161351084Y-88046449D01*
X161257845Y-88220885D01*
X161200428Y-88410163D01*
X161181042Y-88607000D01*
X160658958Y-88607000D01*
X160639571Y-88410162D01*
X160582156Y-88220888D01*
X160488918Y-88046453D01*
X160384692Y-87919453D01*
X160363441Y-87893558D01*
X160210550Y-87768084D01*
X160210548Y-87768083D01*
X160210547Y-87768082D01*
X160036112Y-87674844D01*
X159924819Y-87641084D01*
X159846836Y-87617428D01*
X159650000Y-87598042D01*
X159453163Y-87617428D01*
X159263885Y-87674845D01*
X159089449Y-87768084D01*
X158936558Y-87893558D01*
X158811084Y-88046449D01*
X158717845Y-88220885D01*
X158660428Y-88410163D01*
X158641042Y-88607000D01*
X158118958Y-88607000D01*
X158099571Y-88410162D01*
X158042156Y-88220888D01*
X157948918Y-88046453D01*
X157844692Y-87919453D01*
X157823441Y-87893558D01*
X157670550Y-87768084D01*
X157670548Y-87768083D01*
X157670547Y-87768082D01*
X157496112Y-87674844D01*
X157384819Y-87641084D01*
X157306836Y-87617428D01*
X157110000Y-87598042D01*
X156913163Y-87617428D01*
X156723885Y-87674845D01*
X156549449Y-87768084D01*
X156396558Y-87893558D01*
X156271084Y-88046449D01*
X156177845Y-88220885D01*
X156120428Y-88410163D01*
X156101042Y-88607000D01*
X136976200Y-88607000D01*
X136976200Y-85940000D01*
X181501042Y-85940000D01*
X181520428Y-86136836D01*
X181577845Y-86326114D01*
X181671084Y-86500550D01*
X181796558Y-86653441D01*
X181949449Y-86778915D01*
X181949453Y-86778918D01*
X182123888Y-86872156D01*
X182313162Y-86929571D01*
X182510000Y-86948958D01*
X182706838Y-86929571D01*
X182896112Y-86872156D01*
X183070547Y-86778918D01*
X183223441Y-86653441D01*
X183348918Y-86500547D01*
X183442156Y-86326112D01*
X183499571Y-86136838D01*
X183518958Y-85940000D01*
X183499571Y-85743162D01*
X183442156Y-85553888D01*
X183348918Y-85379453D01*
X183310969Y-85333212D01*
X183223441Y-85226558D01*
X183070550Y-85101084D01*
X183070548Y-85101083D01*
X183070547Y-85101082D01*
X182896112Y-85007844D01*
X182801475Y-84979136D01*
X182706836Y-84950428D01*
X182510000Y-84931042D01*
X182313163Y-84950428D01*
X182123885Y-85007845D01*
X181949449Y-85101084D01*
X181796558Y-85226558D01*
X181671084Y-85379449D01*
X181577845Y-85553885D01*
X181520428Y-85743163D01*
X181501042Y-85940000D01*
X136976200Y-85940000D01*
X136976200Y-85627709D01*
X136976200Y-85627707D01*
X136946181Y-85515673D01*
X136888188Y-85415227D01*
X136806173Y-85333212D01*
X135252611Y-83779650D01*
X135219126Y-83718327D01*
X135221631Y-83655974D01*
X135239571Y-83596838D01*
X135258958Y-83400000D01*
X135239571Y-83203162D01*
X135182156Y-83013888D01*
X135088918Y-82839453D01*
X135088915Y-82839449D01*
X134963441Y-82686558D01*
X134810550Y-82561084D01*
X134810548Y-82561083D01*
X134810547Y-82561082D01*
X134636112Y-82467844D01*
X134541475Y-82439136D01*
X134446836Y-82410428D01*
X134250000Y-82391042D01*
X134053163Y-82410428D01*
X133863885Y-82467845D01*
X133689449Y-82561084D01*
X133536558Y-82686558D01*
X133411084Y-82839449D01*
X133317845Y-83013885D01*
X133260428Y-83203163D01*
X133241042Y-83400000D01*
X133260428Y-83596836D01*
X133260429Y-83596838D01*
X133308666Y-83755857D01*
X133317845Y-83786114D01*
X133411084Y-83960550D01*
X133536558Y-84113441D01*
X133569530Y-84140500D01*
X133689453Y-84238918D01*
X133863888Y-84332156D01*
X134053162Y-84389571D01*
X134250000Y-84408958D01*
X134446838Y-84389571D01*
X134505974Y-84371631D01*
X134575839Y-84371007D01*
X134629650Y-84402611D01*
X136058881Y-85831842D01*
X136092366Y-85893165D01*
X136095200Y-85919523D01*
X136095200Y-120532206D01*
X136075515Y-120599245D01*
X136022711Y-120645000D01*
X135953553Y-120654944D01*
X135889997Y-120625919D01*
X135863813Y-120594206D01*
X135853317Y-120576026D01*
X135791936Y-120469711D01*
X135644265Y-120277262D01*
X135644260Y-120277256D01*
X135472743Y-120105739D01*
X135472736Y-120105733D01*
X135280293Y-119958067D01*
X135280292Y-119958066D01*
X135280289Y-119958064D01*
X135070212Y-119836776D01*
X135070205Y-119836773D01*
X134846104Y-119743947D01*
X134611785Y-119681161D01*
X134371289Y-119649500D01*
X134371288Y-119649500D01*
X134128712Y-119649500D01*
X134128711Y-119649500D01*
X133888214Y-119681161D01*
X133653895Y-119743947D01*
X133429794Y-119836773D01*
X133429785Y-119836777D01*
X133219706Y-119958067D01*
X133027263Y-120105733D01*
X133027256Y-120105739D01*
X132855739Y-120277256D01*
X132855733Y-120277263D01*
X132708067Y-120469706D01*
X132610887Y-120638026D01*
X132560320Y-120686242D01*
X132491713Y-120699464D01*
X132426848Y-120673496D01*
X132386320Y-120616582D01*
X132379500Y-120576026D01*
X132379500Y-116420000D01*
X133241042Y-116420000D01*
X133260428Y-116616836D01*
X133317845Y-116806114D01*
X133331671Y-116831981D01*
X133404823Y-116968838D01*
X133411084Y-116980550D01*
X133536558Y-117133441D01*
X133689449Y-117258915D01*
X133689453Y-117258918D01*
X133863888Y-117352156D01*
X134053162Y-117409571D01*
X134250000Y-117428958D01*
X134446838Y-117409571D01*
X134636112Y-117352156D01*
X134810547Y-117258918D01*
X134963441Y-117133441D01*
X135088918Y-116980547D01*
X135182156Y-116806112D01*
X135239571Y-116616838D01*
X135258958Y-116420000D01*
X135239571Y-116223162D01*
X135182156Y-116033888D01*
X135088918Y-115859453D01*
X134995895Y-115746104D01*
X134963441Y-115706558D01*
X134810550Y-115581084D01*
X134810548Y-115581083D01*
X134810547Y-115581082D01*
X134636112Y-115487844D01*
X134541475Y-115459136D01*
X134446836Y-115430428D01*
X134250000Y-115411042D01*
X134053163Y-115430428D01*
X133863885Y-115487845D01*
X133689449Y-115581084D01*
X133536558Y-115706558D01*
X133411084Y-115859449D01*
X133317845Y-116033885D01*
X133260428Y-116223163D01*
X133241042Y-116420000D01*
X132379500Y-116420000D01*
X132379500Y-113880000D01*
X133241042Y-113880000D01*
X133260428Y-114076836D01*
X133317845Y-114266114D01*
X133411084Y-114440550D01*
X133536558Y-114593441D01*
X133689449Y-114718915D01*
X133689453Y-114718918D01*
X133863888Y-114812156D01*
X134053162Y-114869571D01*
X134250000Y-114888958D01*
X134446838Y-114869571D01*
X134636112Y-114812156D01*
X134810547Y-114718918D01*
X134963441Y-114593441D01*
X135088918Y-114440547D01*
X135182156Y-114266112D01*
X135239571Y-114076838D01*
X135258958Y-113880000D01*
X135239571Y-113683162D01*
X135182156Y-113493888D01*
X135088918Y-113319453D01*
X135072543Y-113299500D01*
X134963441Y-113166558D01*
X134810550Y-113041084D01*
X134810548Y-113041083D01*
X134810547Y-113041082D01*
X134636112Y-112947844D01*
X134541475Y-112919136D01*
X134446836Y-112890428D01*
X134250000Y-112871042D01*
X134053163Y-112890428D01*
X133863885Y-112947845D01*
X133689449Y-113041084D01*
X133536558Y-113166558D01*
X133411084Y-113319449D01*
X133317845Y-113493885D01*
X133260428Y-113683163D01*
X133241042Y-113880000D01*
X132379500Y-113880000D01*
X132379500Y-111340000D01*
X133241042Y-111340000D01*
X133260428Y-111536836D01*
X133317845Y-111726114D01*
X133411084Y-111900550D01*
X133536558Y-112053441D01*
X133689449Y-112178915D01*
X133689453Y-112178918D01*
X133863888Y-112272156D01*
X134053162Y-112329571D01*
X134250000Y-112348958D01*
X134446838Y-112329571D01*
X134636112Y-112272156D01*
X134810547Y-112178918D01*
X134963441Y-112053441D01*
X135088918Y-111900547D01*
X135182156Y-111726112D01*
X135239571Y-111536838D01*
X135258958Y-111340000D01*
X135239571Y-111143162D01*
X135182156Y-110953888D01*
X135088918Y-110779453D01*
X135088915Y-110779449D01*
X134963441Y-110626558D01*
X134810550Y-110501084D01*
X134810548Y-110501083D01*
X134810547Y-110501082D01*
X134636112Y-110407844D01*
X134541475Y-110379136D01*
X134446836Y-110350428D01*
X134250000Y-110331042D01*
X134053163Y-110350428D01*
X133863885Y-110407845D01*
X133689449Y-110501084D01*
X133536558Y-110626558D01*
X133411084Y-110779449D01*
X133317845Y-110953885D01*
X133260428Y-111143163D01*
X133241042Y-111340000D01*
X132379500Y-111340000D01*
X132379500Y-108800000D01*
X133241042Y-108800000D01*
X133260428Y-108996836D01*
X133260429Y-108996838D01*
X133317844Y-109186112D01*
X133386209Y-109314014D01*
X133411084Y-109360550D01*
X133536558Y-109513441D01*
X133689449Y-109638915D01*
X133689453Y-109638918D01*
X133863888Y-109732156D01*
X134053162Y-109789571D01*
X134250000Y-109808958D01*
X134446838Y-109789571D01*
X134636112Y-109732156D01*
X134810547Y-109638918D01*
X134963441Y-109513441D01*
X135088918Y-109360547D01*
X135182156Y-109186112D01*
X135239571Y-108996838D01*
X135258958Y-108800000D01*
X135239571Y-108603162D01*
X135182156Y-108413888D01*
X135088918Y-108239453D01*
X135088915Y-108239449D01*
X134963441Y-108086558D01*
X134810550Y-107961084D01*
X134810548Y-107961083D01*
X134810547Y-107961082D01*
X134636112Y-107867844D01*
X134541475Y-107839136D01*
X134446836Y-107810428D01*
X134250000Y-107791042D01*
X134053163Y-107810428D01*
X133863885Y-107867845D01*
X133689449Y-107961084D01*
X133536558Y-108086558D01*
X133411084Y-108239449D01*
X133317845Y-108413885D01*
X133260428Y-108603163D01*
X133241042Y-108800000D01*
X132379500Y-108800000D01*
X132379500Y-106260000D01*
X133241042Y-106260000D01*
X133260428Y-106456836D01*
X133317845Y-106646114D01*
X133411084Y-106820550D01*
X133536558Y-106973441D01*
X133689449Y-107098915D01*
X133689453Y-107098918D01*
X133863888Y-107192156D01*
X134053162Y-107249571D01*
X134250000Y-107268958D01*
X134446838Y-107249571D01*
X134636112Y-107192156D01*
X134810547Y-107098918D01*
X134963441Y-106973441D01*
X135088918Y-106820547D01*
X135182156Y-106646112D01*
X135239571Y-106456838D01*
X135258958Y-106260000D01*
X135239571Y-106063162D01*
X135182156Y-105873888D01*
X135088918Y-105699453D01*
X135088915Y-105699449D01*
X134963441Y-105546558D01*
X134810550Y-105421084D01*
X134810548Y-105421083D01*
X134810547Y-105421082D01*
X134636112Y-105327844D01*
X134541475Y-105299136D01*
X134446836Y-105270428D01*
X134250000Y-105251042D01*
X134053163Y-105270428D01*
X133863885Y-105327845D01*
X133689449Y-105421084D01*
X133536558Y-105546558D01*
X133411084Y-105699449D01*
X133317845Y-105873885D01*
X133260428Y-106063163D01*
X133241042Y-106260000D01*
X132379500Y-106260000D01*
X132379500Y-103720000D01*
X133241042Y-103720000D01*
X133260428Y-103916836D01*
X133317845Y-104106114D01*
X133411084Y-104280550D01*
X133536558Y-104433441D01*
X133689449Y-104558915D01*
X133689453Y-104558918D01*
X133863888Y-104652156D01*
X134053162Y-104709571D01*
X134250000Y-104728958D01*
X134446838Y-104709571D01*
X134636112Y-104652156D01*
X134810547Y-104558918D01*
X134963441Y-104433441D01*
X135088918Y-104280547D01*
X135182156Y-104106112D01*
X135239571Y-103916838D01*
X135258958Y-103720000D01*
X135239571Y-103523162D01*
X135182156Y-103333888D01*
X135088918Y-103159453D01*
X135037025Y-103096221D01*
X134963441Y-103006558D01*
X134810550Y-102881084D01*
X134810548Y-102881083D01*
X134810547Y-102881082D01*
X134636112Y-102787844D01*
X134541475Y-102759136D01*
X134446836Y-102730428D01*
X134250000Y-102711042D01*
X134053163Y-102730428D01*
X133863885Y-102787845D01*
X133689449Y-102881084D01*
X133536558Y-103006558D01*
X133411084Y-103159449D01*
X133317845Y-103333885D01*
X133260428Y-103523163D01*
X133241042Y-103720000D01*
X132379500Y-103720000D01*
X132379500Y-101180000D01*
X133241042Y-101180000D01*
X133260428Y-101376836D01*
X133317845Y-101566114D01*
X133411084Y-101740550D01*
X133536558Y-101893441D01*
X133689449Y-102018915D01*
X133689453Y-102018918D01*
X133863888Y-102112156D01*
X134053162Y-102169571D01*
X134250000Y-102188958D01*
X134446838Y-102169571D01*
X134636112Y-102112156D01*
X134810547Y-102018918D01*
X134963441Y-101893441D01*
X135088918Y-101740547D01*
X135182156Y-101566112D01*
X135239571Y-101376838D01*
X135258958Y-101180000D01*
X135239571Y-100983162D01*
X135182156Y-100793888D01*
X135088918Y-100619453D01*
X135088915Y-100619449D01*
X134963441Y-100466558D01*
X134810550Y-100341084D01*
X134810548Y-100341083D01*
X134810547Y-100341082D01*
X134636112Y-100247844D01*
X134541475Y-100219136D01*
X134446836Y-100190428D01*
X134250000Y-100171042D01*
X134053163Y-100190428D01*
X133863885Y-100247845D01*
X133689449Y-100341084D01*
X133536558Y-100466558D01*
X133411084Y-100619449D01*
X133317845Y-100793885D01*
X133260428Y-100983163D01*
X133241042Y-101180000D01*
X132379500Y-101180000D01*
X132379500Y-98640000D01*
X133241042Y-98640000D01*
X133260428Y-98836836D01*
X133317845Y-99026114D01*
X133411084Y-99200550D01*
X133536558Y-99353441D01*
X133689449Y-99478915D01*
X133689453Y-99478918D01*
X133863888Y-99572156D01*
X134053162Y-99629571D01*
X134250000Y-99648958D01*
X134446838Y-99629571D01*
X134636112Y-99572156D01*
X134810547Y-99478918D01*
X134963441Y-99353441D01*
X135088918Y-99200547D01*
X135182156Y-99026112D01*
X135239571Y-98836838D01*
X135258958Y-98640000D01*
X135239571Y-98443162D01*
X135182156Y-98253888D01*
X135088918Y-98079453D01*
X135088915Y-98079449D01*
X134963441Y-97926558D01*
X134810550Y-97801084D01*
X134810548Y-97801083D01*
X134810547Y-97801082D01*
X134636112Y-97707844D01*
X134541475Y-97679136D01*
X134446836Y-97650428D01*
X134250000Y-97631042D01*
X134053163Y-97650428D01*
X133863885Y-97707845D01*
X133689449Y-97801084D01*
X133536558Y-97926558D01*
X133411084Y-98079449D01*
X133317845Y-98253885D01*
X133260428Y-98443163D01*
X133241042Y-98640000D01*
X132379500Y-98640000D01*
X132379500Y-93560000D01*
X133241042Y-93560000D01*
X133260428Y-93756836D01*
X133317845Y-93946114D01*
X133411084Y-94120550D01*
X133536558Y-94273441D01*
X133689449Y-94398915D01*
X133689453Y-94398918D01*
X133863888Y-94492156D01*
X134053162Y-94549571D01*
X134250000Y-94568958D01*
X134446838Y-94549571D01*
X134636112Y-94492156D01*
X134810547Y-94398918D01*
X134963441Y-94273441D01*
X135088918Y-94120547D01*
X135182156Y-93946112D01*
X135239571Y-93756838D01*
X135258958Y-93560000D01*
X135239571Y-93363162D01*
X135182156Y-93173888D01*
X135088918Y-92999453D01*
X135088915Y-92999449D01*
X134963441Y-92846558D01*
X134810550Y-92721084D01*
X134810548Y-92721083D01*
X134810547Y-92721082D01*
X134636112Y-92627844D01*
X134541475Y-92599136D01*
X134446836Y-92570428D01*
X134250000Y-92551042D01*
X134053163Y-92570428D01*
X133863885Y-92627845D01*
X133689449Y-92721084D01*
X133536558Y-92846558D01*
X133411084Y-92999449D01*
X133317845Y-93173885D01*
X133260428Y-93363163D01*
X133241042Y-93560000D01*
X132379500Y-93560000D01*
X132379500Y-91020000D01*
X133241042Y-91020000D01*
X133260428Y-91216836D01*
X133260429Y-91216838D01*
X133317844Y-91406112D01*
X133385728Y-91533114D01*
X133411084Y-91580550D01*
X133536558Y-91733441D01*
X133666662Y-91840214D01*
X133689453Y-91858918D01*
X133863888Y-91952156D01*
X134053162Y-92009571D01*
X134250000Y-92028958D01*
X134446838Y-92009571D01*
X134636112Y-91952156D01*
X134810547Y-91858918D01*
X134963441Y-91733441D01*
X135088918Y-91580547D01*
X135182156Y-91406112D01*
X135239571Y-91216838D01*
X135258958Y-91020000D01*
X135239571Y-90823162D01*
X135182156Y-90633888D01*
X135088918Y-90459453D01*
X135088915Y-90459449D01*
X134963441Y-90306558D01*
X134810550Y-90181084D01*
X134810548Y-90181083D01*
X134810547Y-90181082D01*
X134636112Y-90087844D01*
X134541475Y-90059136D01*
X134446836Y-90030428D01*
X134250000Y-90011042D01*
X134053163Y-90030428D01*
X133863885Y-90087845D01*
X133689449Y-90181084D01*
X133536558Y-90306558D01*
X133411084Y-90459449D01*
X133317845Y-90633885D01*
X133260428Y-90823163D01*
X133241042Y-91020000D01*
X132379500Y-91020000D01*
X132379500Y-88480000D01*
X133241042Y-88480000D01*
X133260428Y-88676836D01*
X133260429Y-88676838D01*
X133317844Y-88866112D01*
X133385728Y-88993114D01*
X133411084Y-89040550D01*
X133536558Y-89193441D01*
X133689449Y-89318915D01*
X133689453Y-89318918D01*
X133863888Y-89412156D01*
X134053162Y-89469571D01*
X134250000Y-89488958D01*
X134446838Y-89469571D01*
X134636112Y-89412156D01*
X134810547Y-89318918D01*
X134963441Y-89193441D01*
X135088918Y-89040547D01*
X135182156Y-88866112D01*
X135239571Y-88676838D01*
X135258958Y-88480000D01*
X135239571Y-88283162D01*
X135182156Y-88093888D01*
X135088918Y-87919453D01*
X135088915Y-87919449D01*
X134963441Y-87766558D01*
X134810550Y-87641084D01*
X134810548Y-87641083D01*
X134810547Y-87641082D01*
X134636112Y-87547844D01*
X134541475Y-87519136D01*
X134446836Y-87490428D01*
X134250000Y-87471042D01*
X134053163Y-87490428D01*
X133863885Y-87547845D01*
X133689449Y-87641084D01*
X133536558Y-87766558D01*
X133411084Y-87919449D01*
X133317845Y-88093885D01*
X133260428Y-88283163D01*
X133241042Y-88480000D01*
X132379500Y-88480000D01*
X132379500Y-85940000D01*
X133241042Y-85940000D01*
X133260428Y-86136836D01*
X133317845Y-86326114D01*
X133411084Y-86500550D01*
X133536558Y-86653441D01*
X133689449Y-86778915D01*
X133689453Y-86778918D01*
X133863888Y-86872156D01*
X134053162Y-86929571D01*
X134250000Y-86948958D01*
X134446838Y-86929571D01*
X134636112Y-86872156D01*
X134810547Y-86778918D01*
X134963441Y-86653441D01*
X135088918Y-86500547D01*
X135182156Y-86326112D01*
X135239571Y-86136838D01*
X135258958Y-85940000D01*
X135239571Y-85743162D01*
X135182156Y-85553888D01*
X135088918Y-85379453D01*
X135050969Y-85333212D01*
X134963441Y-85226558D01*
X134810550Y-85101084D01*
X134810548Y-85101083D01*
X134810547Y-85101082D01*
X134636112Y-85007844D01*
X134541475Y-84979136D01*
X134446836Y-84950428D01*
X134250000Y-84931042D01*
X134053163Y-84950428D01*
X133863885Y-85007845D01*
X133689449Y-85101084D01*
X133536558Y-85226558D01*
X133411084Y-85379449D01*
X133317845Y-85553885D01*
X133260428Y-85743163D01*
X133241042Y-85940000D01*
X132379500Y-85940000D01*
X132379500Y-83404822D01*
X132399185Y-83337783D01*
X132415814Y-83317146D01*
X133870350Y-81862609D01*
X133931671Y-81829126D01*
X133994025Y-81831632D01*
X134053159Y-81849570D01*
X134053161Y-81849571D01*
X134072548Y-81851480D01*
X134250000Y-81868958D01*
X134446838Y-81849571D01*
X134636112Y-81792156D01*
X134810547Y-81698918D01*
X134963441Y-81573441D01*
X135088918Y-81420547D01*
X135182156Y-81246112D01*
X135239571Y-81056838D01*
X135258958Y-80860000D01*
X135239571Y-80663162D01*
X135182156Y-80473888D01*
X135088918Y-80299453D01*
X135088915Y-80299449D01*
X134963441Y-80146558D01*
X134810550Y-80021084D01*
X134810548Y-80021083D01*
X134810547Y-80021082D01*
X134636112Y-79927844D01*
X134541475Y-79899136D01*
X134446836Y-79870428D01*
X134250000Y-79851042D01*
X134053163Y-79870428D01*
X133863885Y-79927845D01*
X133689449Y-80021084D01*
X133536558Y-80146558D01*
X133411084Y-80299449D01*
X133317845Y-80473885D01*
X133260428Y-80663163D01*
X133241042Y-80860000D01*
X133260428Y-81056838D01*
X133278367Y-81115975D01*
X133278990Y-81185842D01*
X133247387Y-81239650D01*
X131668527Y-82818512D01*
X131586514Y-82900524D01*
X131586512Y-82900527D01*
X131528519Y-83000971D01*
X131498500Y-83113007D01*
X129160500Y-83113007D01*
X129160500Y-78320000D01*
X133241042Y-78320000D01*
X133260428Y-78516836D01*
X133260429Y-78516838D01*
X133317844Y-78706112D01*
X133381950Y-78826046D01*
X133411084Y-78880550D01*
X133536558Y-79033441D01*
X133639710Y-79118095D01*
X133689453Y-79158918D01*
X133863888Y-79252156D01*
X134053162Y-79309571D01*
X134250000Y-79328958D01*
X134446838Y-79309571D01*
X134636112Y-79252156D01*
X134810547Y-79158918D01*
X134963441Y-79033441D01*
X135088918Y-78880547D01*
X135118050Y-78826044D01*
X135167011Y-78776202D01*
X135227407Y-78760500D01*
X135479777Y-78760500D01*
X135546816Y-78780185D01*
X135567458Y-78796819D01*
X138092712Y-81322073D01*
X138174727Y-81404088D01*
X138275173Y-81462081D01*
X138387207Y-81492100D01*
X138503194Y-81492100D01*
X152248276Y-81492100D01*
X152315315Y-81511785D01*
X152361070Y-81564589D01*
X152371014Y-81633747D01*
X152341989Y-81697303D01*
X152335957Y-81703781D01*
X151516558Y-82523181D01*
X151455235Y-82556666D01*
X151428877Y-82559500D01*
X150787778Y-82559500D01*
X150720739Y-82539815D01*
X150687462Y-82508388D01*
X150683730Y-82503251D01*
X150678305Y-82497226D01*
X150565502Y-82371946D01*
X150422565Y-82268096D01*
X150422564Y-82268095D01*
X150261164Y-82196235D01*
X150261159Y-82196233D01*
X150125073Y-82167307D01*
X150088340Y-82159500D01*
X149911660Y-82159500D01*
X149881366Y-82165939D01*
X149738840Y-82196233D01*
X149738835Y-82196235D01*
X149577435Y-82268095D01*
X149434499Y-82371945D01*
X149434498Y-82371946D01*
X149316275Y-82503245D01*
X149316273Y-82503246D01*
X149316272Y-82503249D01*
X149227936Y-82656251D01*
X149227935Y-82656252D01*
X149173339Y-82824284D01*
X149173338Y-82824286D01*
X149154870Y-83000000D01*
X149173338Y-83175713D01*
X149173339Y-83175715D01*
X149227935Y-83343747D01*
X149227936Y-83343748D01*
X149313306Y-83491612D01*
X149316275Y-83496755D01*
X149434498Y-83628054D01*
X149472924Y-83655972D01*
X149577435Y-83731904D01*
X149738835Y-83803764D01*
X149738840Y-83803766D01*
X149911660Y-83840500D01*
X149911661Y-83840500D01*
X150088338Y-83840500D01*
X150088340Y-83840500D01*
X150261160Y-83803766D01*
X150422565Y-83731904D01*
X150565502Y-83628054D01*
X150683725Y-83496755D01*
X150683727Y-83496750D01*
X150683730Y-83496748D01*
X150687462Y-83491612D01*
X150742793Y-83448948D01*
X150787778Y-83440500D01*
X151720691Y-83440500D01*
X151720693Y-83440500D01*
X151832727Y-83410481D01*
X151933173Y-83352488D01*
X152285661Y-83000000D01*
X154234870Y-83000000D01*
X154253338Y-83175713D01*
X154253339Y-83175715D01*
X154307935Y-83343747D01*
X154307936Y-83343748D01*
X154393306Y-83491612D01*
X154396275Y-83496755D01*
X154514498Y-83628054D01*
X154552924Y-83655972D01*
X154657435Y-83731904D01*
X154818835Y-83803764D01*
X154818840Y-83803766D01*
X154991660Y-83840500D01*
X154991661Y-83840500D01*
X155168338Y-83840500D01*
X155168340Y-83840500D01*
X155341160Y-83803766D01*
X155502565Y-83731904D01*
X155645502Y-83628054D01*
X155763725Y-83496755D01*
X155852065Y-83343745D01*
X155898770Y-83200000D01*
X158334319Y-83200000D01*
X158354984Y-83396618D01*
X158354985Y-83396621D01*
X158416074Y-83584637D01*
X158416077Y-83584643D01*
X158514928Y-83755857D01*
X158647216Y-83902778D01*
X158807159Y-84018984D01*
X158987768Y-84099396D01*
X159181149Y-84140500D01*
X159181150Y-84140500D01*
X159378849Y-84140500D01*
X159378851Y-84140500D01*
X159572232Y-84099396D01*
X159752841Y-84018984D01*
X159912784Y-83902778D01*
X160045072Y-83755857D01*
X160143923Y-83584643D01*
X160203917Y-83400000D01*
X181501042Y-83400000D01*
X181520428Y-83596836D01*
X181520429Y-83596838D01*
X181568666Y-83755857D01*
X181577845Y-83786114D01*
X181671084Y-83960550D01*
X181796558Y-84113441D01*
X181829530Y-84140500D01*
X181949453Y-84238918D01*
X182123888Y-84332156D01*
X182313162Y-84389571D01*
X182510000Y-84408958D01*
X182706838Y-84389571D01*
X182896112Y-84332156D01*
X183070547Y-84238918D01*
X183223441Y-84113441D01*
X183348918Y-83960547D01*
X183442156Y-83786112D01*
X183499571Y-83596838D01*
X183518958Y-83400000D01*
X183499571Y-83203162D01*
X183442156Y-83013888D01*
X183348918Y-82839453D01*
X183348915Y-82839449D01*
X183223441Y-82686558D01*
X183070550Y-82561084D01*
X183070548Y-82561083D01*
X183070547Y-82561082D01*
X182896112Y-82467844D01*
X182801475Y-82439136D01*
X182706836Y-82410428D01*
X182510000Y-82391042D01*
X182313163Y-82410428D01*
X182123885Y-82467845D01*
X181949449Y-82561084D01*
X181796558Y-82686558D01*
X181671084Y-82839449D01*
X181577845Y-83013885D01*
X181520428Y-83203163D01*
X181501042Y-83400000D01*
X160203917Y-83400000D01*
X160205016Y-83396618D01*
X160225681Y-83200000D01*
X160205016Y-83003382D01*
X160146825Y-82824288D01*
X160143925Y-82815362D01*
X160143922Y-82815356D01*
X160045072Y-82644143D01*
X159912784Y-82497222D01*
X159752841Y-82381016D01*
X159572232Y-82300604D01*
X159572230Y-82300603D01*
X159419292Y-82268096D01*
X159378851Y-82259500D01*
X159181149Y-82259500D01*
X159147251Y-82266705D01*
X158987768Y-82300603D01*
X158987762Y-82300605D01*
X158807160Y-82381016D01*
X158807155Y-82381018D01*
X158647217Y-82497220D01*
X158647210Y-82497226D01*
X158514927Y-82644144D01*
X158416077Y-82815356D01*
X158416074Y-82815362D01*
X158354985Y-83003378D01*
X158354984Y-83003382D01*
X158334319Y-83200000D01*
X155898770Y-83200000D01*
X155906662Y-83175712D01*
X155925130Y-83000000D01*
X155906662Y-82824288D01*
X155852065Y-82656255D01*
X155852064Y-82656254D01*
X155852064Y-82656252D01*
X155852063Y-82656251D01*
X155796204Y-82559500D01*
X155763725Y-82503245D01*
X155645502Y-82371946D01*
X155502565Y-82268096D01*
X155502564Y-82268095D01*
X155341164Y-82196235D01*
X155341159Y-82196233D01*
X155205073Y-82167307D01*
X155168340Y-82159500D01*
X154991660Y-82159500D01*
X154961366Y-82165939D01*
X154818840Y-82196233D01*
X154818835Y-82196235D01*
X154657435Y-82268095D01*
X154514499Y-82371945D01*
X154514498Y-82371946D01*
X154396275Y-82503245D01*
X154396273Y-82503246D01*
X154396272Y-82503249D01*
X154307936Y-82656251D01*
X154307935Y-82656252D01*
X154253339Y-82824284D01*
X154253338Y-82824286D01*
X154234870Y-83000000D01*
X152285661Y-83000000D01*
X153383843Y-81901819D01*
X153445166Y-81868334D01*
X153471524Y-81865500D01*
X157062991Y-81865500D01*
X157062993Y-81865500D01*
X157175027Y-81835481D01*
X157275473Y-81777488D01*
X158192960Y-80860000D01*
X181501042Y-80860000D01*
X181520428Y-81056836D01*
X181520429Y-81056838D01*
X181577844Y-81246112D01*
X181662284Y-81404088D01*
X181671084Y-81420550D01*
X181796558Y-81573441D01*
X181947485Y-81697303D01*
X181949453Y-81698918D01*
X182123888Y-81792156D01*
X182313162Y-81849571D01*
X182510000Y-81868958D01*
X182706838Y-81849571D01*
X182896112Y-81792156D01*
X183070547Y-81698918D01*
X183223441Y-81573441D01*
X183348918Y-81420547D01*
X183442156Y-81246112D01*
X183499571Y-81056838D01*
X183518958Y-80860000D01*
X183499571Y-80663162D01*
X183442156Y-80473888D01*
X183348918Y-80299453D01*
X183348915Y-80299449D01*
X183223441Y-80146558D01*
X183070550Y-80021084D01*
X183070548Y-80021083D01*
X183070547Y-80021082D01*
X182896112Y-79927844D01*
X182801475Y-79899136D01*
X182706836Y-79870428D01*
X182510000Y-79851042D01*
X182313163Y-79870428D01*
X182123885Y-79927845D01*
X181949449Y-80021084D01*
X181796558Y-80146558D01*
X181671084Y-80299449D01*
X181577845Y-80473885D01*
X181520428Y-80663163D01*
X181501042Y-80860000D01*
X158192960Y-80860000D01*
X158953190Y-80099769D01*
X159014511Y-80066286D01*
X159066646Y-80066162D01*
X159181149Y-80090500D01*
X159181150Y-80090500D01*
X159378849Y-80090500D01*
X159378851Y-80090500D01*
X159572232Y-80049396D01*
X159752841Y-79968984D01*
X159912784Y-79852778D01*
X160045072Y-79705857D01*
X160143923Y-79534643D01*
X160205016Y-79346618D01*
X160225681Y-79150000D01*
X160205016Y-78953382D01*
X160143923Y-78765357D01*
X160045072Y-78594143D01*
X159912784Y-78447222D01*
X159752841Y-78331016D01*
X159728099Y-78320000D01*
X181501042Y-78320000D01*
X181520428Y-78516836D01*
X181520429Y-78516838D01*
X181577844Y-78706112D01*
X181641950Y-78826046D01*
X181671084Y-78880550D01*
X181796558Y-79033441D01*
X181899710Y-79118095D01*
X181949453Y-79158918D01*
X182123888Y-79252156D01*
X182313162Y-79309571D01*
X182510000Y-79328958D01*
X182706838Y-79309571D01*
X182896112Y-79252156D01*
X183070547Y-79158918D01*
X183223441Y-79033441D01*
X183348918Y-78880547D01*
X183442156Y-78706112D01*
X183499571Y-78516838D01*
X183518958Y-78320000D01*
X183499571Y-78123162D01*
X183442156Y-77933888D01*
X183348918Y-77759453D01*
X183348915Y-77759449D01*
X183223441Y-77606558D01*
X183070550Y-77481084D01*
X183070548Y-77481083D01*
X183070547Y-77481082D01*
X182896112Y-77387844D01*
X182801475Y-77359136D01*
X182706836Y-77330428D01*
X182510000Y-77311042D01*
X182313163Y-77330428D01*
X182123885Y-77387845D01*
X181949449Y-77481084D01*
X181796558Y-77606558D01*
X181671084Y-77759449D01*
X181577845Y-77933885D01*
X181520428Y-78123163D01*
X181501042Y-78320000D01*
X159728099Y-78320000D01*
X159572232Y-78250604D01*
X159572230Y-78250603D01*
X159431048Y-78220594D01*
X159378851Y-78209500D01*
X159181149Y-78209500D01*
X159147251Y-78216705D01*
X158987768Y-78250603D01*
X158987762Y-78250605D01*
X158807160Y-78331016D01*
X158807155Y-78331018D01*
X158647217Y-78447220D01*
X158647210Y-78447226D01*
X158514927Y-78594144D01*
X158416077Y-78765356D01*
X158416074Y-78765362D01*
X158354985Y-78953378D01*
X158354984Y-78953382D01*
X158334319Y-79150000D01*
X158351090Y-79309571D01*
X158354985Y-79346624D01*
X158357360Y-79353933D01*
X158359353Y-79423774D01*
X158327109Y-79479928D01*
X156858858Y-80948181D01*
X156797535Y-80981666D01*
X156771177Y-80984500D01*
X153565623Y-80984500D01*
X153498584Y-80964815D01*
X153452829Y-80912011D01*
X153442885Y-80842853D01*
X153471910Y-80779297D01*
X153477942Y-80772819D01*
X153923942Y-80326819D01*
X153985265Y-80293334D01*
X154011623Y-80290500D01*
X154292222Y-80290500D01*
X154359261Y-80310185D01*
X154392538Y-80341612D01*
X154396269Y-80346748D01*
X154396274Y-80346753D01*
X154396275Y-80346755D01*
X154514498Y-80478054D01*
X154647631Y-80574781D01*
X154657435Y-80581904D01*
X154818835Y-80653764D01*
X154818840Y-80653766D01*
X154991660Y-80690500D01*
X154991661Y-80690500D01*
X155168338Y-80690500D01*
X155168340Y-80690500D01*
X155341160Y-80653766D01*
X155502565Y-80581904D01*
X155645502Y-80478054D01*
X155763725Y-80346755D01*
X155852065Y-80193745D01*
X155906662Y-80025712D01*
X155925130Y-79850000D01*
X155906662Y-79674288D01*
X155852065Y-79506255D01*
X155852064Y-79506254D01*
X155852064Y-79506252D01*
X155852063Y-79506251D01*
X155763727Y-79353249D01*
X155763725Y-79353245D01*
X155645502Y-79221946D01*
X155502565Y-79118096D01*
X155502564Y-79118095D01*
X155341164Y-79046235D01*
X155341159Y-79046233D01*
X155205073Y-79017307D01*
X155168340Y-79009500D01*
X154991660Y-79009500D01*
X154961366Y-79015939D01*
X154818840Y-79046233D01*
X154818835Y-79046235D01*
X154657435Y-79118095D01*
X154514499Y-79221945D01*
X154396269Y-79353251D01*
X154392538Y-79358388D01*
X154337207Y-79401052D01*
X154292222Y-79409500D01*
X153719807Y-79409500D01*
X153607771Y-79439519D01*
X153507327Y-79497512D01*
X153507324Y-79497514D01*
X152430058Y-80574781D01*
X152368735Y-80608266D01*
X152342377Y-80611100D01*
X150724216Y-80611100D01*
X150657177Y-80591415D01*
X150611422Y-80538611D01*
X150601478Y-80469453D01*
X150630503Y-80405897D01*
X150632066Y-80404128D01*
X150644445Y-80390378D01*
X150683725Y-80346755D01*
X150772065Y-80193745D01*
X150826662Y-80025712D01*
X150845130Y-79850000D01*
X150830181Y-79707776D01*
X150842750Y-79639051D01*
X150865818Y-79607141D01*
X154012488Y-76460473D01*
X154065205Y-76369165D01*
X154070481Y-76360027D01*
X154100500Y-76247993D01*
X154100500Y-75780000D01*
X181501042Y-75780000D01*
X181520428Y-75976836D01*
X181520429Y-75976838D01*
X181577844Y-76166112D01*
X181621609Y-76247991D01*
X181671084Y-76340550D01*
X181796558Y-76493441D01*
X181949449Y-76618915D01*
X181949453Y-76618918D01*
X182123888Y-76712156D01*
X182313162Y-76769571D01*
X182510000Y-76788958D01*
X182706838Y-76769571D01*
X182896112Y-76712156D01*
X183070547Y-76618918D01*
X183223441Y-76493441D01*
X183348918Y-76340547D01*
X183442156Y-76166112D01*
X183499571Y-75976838D01*
X183518958Y-75780000D01*
X183499571Y-75583162D01*
X183442156Y-75393888D01*
X183348918Y-75219453D01*
X183348915Y-75219449D01*
X183223441Y-75066558D01*
X183070550Y-74941084D01*
X183070548Y-74941083D01*
X183070547Y-74941082D01*
X182896112Y-74847844D01*
X182801475Y-74819136D01*
X182706836Y-74790428D01*
X182510000Y-74771042D01*
X182313163Y-74790428D01*
X182123885Y-74847845D01*
X181949449Y-74941084D01*
X181796558Y-75066558D01*
X181671084Y-75219449D01*
X181577845Y-75393885D01*
X181520428Y-75583163D01*
X181501042Y-75780000D01*
X154100500Y-75780000D01*
X154100500Y-73240000D01*
X181501042Y-73240000D01*
X181520428Y-73436836D01*
X181577845Y-73626114D01*
X181671084Y-73800550D01*
X181796558Y-73953441D01*
X181949449Y-74078915D01*
X181949453Y-74078918D01*
X182123888Y-74172156D01*
X182313162Y-74229571D01*
X182510000Y-74248958D01*
X182706838Y-74229571D01*
X182896112Y-74172156D01*
X183070547Y-74078918D01*
X183223441Y-73953441D01*
X183348918Y-73800547D01*
X183442156Y-73626112D01*
X183499571Y-73436838D01*
X183518958Y-73240000D01*
X183499571Y-73043162D01*
X183442156Y-72853888D01*
X183348918Y-72679453D01*
X183348915Y-72679449D01*
X183223441Y-72526558D01*
X183070550Y-72401084D01*
X183070548Y-72401083D01*
X183070547Y-72401082D01*
X182896112Y-72307844D01*
X182801475Y-72279136D01*
X182706836Y-72250428D01*
X182510000Y-72231042D01*
X182313163Y-72250428D01*
X182123885Y-72307845D01*
X181949449Y-72401084D01*
X181796558Y-72526558D01*
X181671084Y-72679449D01*
X181577845Y-72853885D01*
X181520428Y-73043163D01*
X181501042Y-73240000D01*
X154100500Y-73240000D01*
X154100500Y-70700000D01*
X181501042Y-70700000D01*
X181520428Y-70896836D01*
X181577845Y-71086114D01*
X181671084Y-71260550D01*
X181796558Y-71413441D01*
X181949449Y-71538915D01*
X181949453Y-71538918D01*
X182123888Y-71632156D01*
X182313162Y-71689571D01*
X182510000Y-71708958D01*
X182706838Y-71689571D01*
X182896112Y-71632156D01*
X183070547Y-71538918D01*
X183223441Y-71413441D01*
X183348918Y-71260547D01*
X183442156Y-71086112D01*
X183499571Y-70896838D01*
X183518958Y-70700000D01*
X183499571Y-70503162D01*
X183442156Y-70313888D01*
X183348918Y-70139453D01*
X183348915Y-70139449D01*
X183223441Y-69986558D01*
X183070550Y-69861084D01*
X183070548Y-69861083D01*
X183070547Y-69861082D01*
X182896112Y-69767844D01*
X182801475Y-69739136D01*
X182706836Y-69710428D01*
X182510000Y-69691042D01*
X182313163Y-69710428D01*
X182123885Y-69767845D01*
X181949449Y-69861084D01*
X181796558Y-69986558D01*
X181671084Y-70139449D01*
X181577845Y-70313885D01*
X181520428Y-70503163D01*
X181501042Y-70700000D01*
X154100500Y-70700000D01*
X154100500Y-70161986D01*
X154120185Y-70094947D01*
X154166047Y-70052628D01*
X154212955Y-70027556D01*
X154363778Y-69903778D01*
X154487556Y-69752955D01*
X154579531Y-69580882D01*
X154636169Y-69394172D01*
X154655293Y-69200000D01*
X155204707Y-69200000D01*
X155223830Y-69394169D01*
X155280471Y-69580888D01*
X155372440Y-69752949D01*
X155372444Y-69752956D01*
X155496221Y-69903778D01*
X155647043Y-70027555D01*
X155647050Y-70027559D01*
X155819111Y-70119528D01*
X155819114Y-70119528D01*
X155819118Y-70119531D01*
X156005828Y-70176169D01*
X156200000Y-70195293D01*
X156394172Y-70176169D01*
X156580882Y-70119531D01*
X156608403Y-70104821D01*
X156752949Y-70027559D01*
X156752955Y-70027556D01*
X156903778Y-69903778D01*
X157027556Y-69752955D01*
X157119531Y-69580882D01*
X157176169Y-69394172D01*
X157195293Y-69200000D01*
X157744707Y-69200000D01*
X157763830Y-69394169D01*
X157820471Y-69580888D01*
X157912440Y-69752949D01*
X157912444Y-69752956D01*
X158036221Y-69903778D01*
X158187043Y-70027555D01*
X158187050Y-70027559D01*
X158359111Y-70119528D01*
X158359114Y-70119528D01*
X158359118Y-70119531D01*
X158545828Y-70176169D01*
X158740000Y-70195293D01*
X158934172Y-70176169D01*
X159120882Y-70119531D01*
X159148403Y-70104821D01*
X159292949Y-70027559D01*
X159292955Y-70027556D01*
X159443778Y-69903778D01*
X159567556Y-69752955D01*
X159659531Y-69580882D01*
X159716169Y-69394172D01*
X159735293Y-69200000D01*
X160284707Y-69200000D01*
X160303830Y-69394169D01*
X160360471Y-69580888D01*
X160452440Y-69752949D01*
X160452444Y-69752956D01*
X160576221Y-69903778D01*
X160727043Y-70027555D01*
X160727050Y-70027559D01*
X160899111Y-70119528D01*
X160899114Y-70119528D01*
X160899118Y-70119531D01*
X161085828Y-70176169D01*
X161280000Y-70195293D01*
X161474172Y-70176169D01*
X161660882Y-70119531D01*
X161688403Y-70104821D01*
X161832949Y-70027559D01*
X161832955Y-70027556D01*
X161983778Y-69903778D01*
X162107556Y-69752955D01*
X162199531Y-69580882D01*
X162256169Y-69394172D01*
X162275293Y-69200000D01*
X162824707Y-69200000D01*
X162843830Y-69394169D01*
X162900471Y-69580888D01*
X162992440Y-69752949D01*
X162992444Y-69752956D01*
X163116221Y-69903778D01*
X163267043Y-70027555D01*
X163267050Y-70027559D01*
X163439111Y-70119528D01*
X163439114Y-70119528D01*
X163439118Y-70119531D01*
X163625828Y-70176169D01*
X163820000Y-70195293D01*
X164014172Y-70176169D01*
X164200882Y-70119531D01*
X164228403Y-70104821D01*
X164372949Y-70027559D01*
X164372955Y-70027556D01*
X164523778Y-69903778D01*
X164647556Y-69752955D01*
X164739531Y-69580882D01*
X164796169Y-69394172D01*
X164815293Y-69200000D01*
X164796169Y-69005828D01*
X164739531Y-68819118D01*
X164739528Y-68819114D01*
X164739528Y-68819111D01*
X164647559Y-68647050D01*
X164647555Y-68647043D01*
X164523778Y-68496221D01*
X164372956Y-68372444D01*
X164372949Y-68372440D01*
X164200888Y-68280471D01*
X164200882Y-68280469D01*
X164014172Y-68223831D01*
X164014169Y-68223830D01*
X163820000Y-68204707D01*
X163625830Y-68223830D01*
X163439111Y-68280471D01*
X163267050Y-68372440D01*
X163267043Y-68372444D01*
X163116221Y-68496221D01*
X162992444Y-68647043D01*
X162992440Y-68647050D01*
X162900471Y-68819111D01*
X162843830Y-69005830D01*
X162824707Y-69200000D01*
X162275293Y-69200000D01*
X162256169Y-69005828D01*
X162199531Y-68819118D01*
X162199528Y-68819114D01*
X162199528Y-68819111D01*
X162107559Y-68647050D01*
X162107555Y-68647043D01*
X161983778Y-68496221D01*
X161832956Y-68372444D01*
X161832949Y-68372440D01*
X161660888Y-68280471D01*
X161660882Y-68280469D01*
X161474172Y-68223831D01*
X161474169Y-68223830D01*
X161280000Y-68204707D01*
X161085830Y-68223830D01*
X160899111Y-68280471D01*
X160727050Y-68372440D01*
X160727043Y-68372444D01*
X160576221Y-68496221D01*
X160452444Y-68647043D01*
X160452440Y-68647050D01*
X160360471Y-68819111D01*
X160303830Y-69005830D01*
X160284707Y-69200000D01*
X159735293Y-69200000D01*
X159716169Y-69005828D01*
X159659531Y-68819118D01*
X159659528Y-68819114D01*
X159659528Y-68819111D01*
X159567559Y-68647050D01*
X159567555Y-68647043D01*
X159443778Y-68496221D01*
X159292956Y-68372444D01*
X159292949Y-68372440D01*
X159120888Y-68280471D01*
X159120882Y-68280469D01*
X158934172Y-68223831D01*
X158934169Y-68223830D01*
X158740000Y-68204707D01*
X158545830Y-68223830D01*
X158359111Y-68280471D01*
X158187050Y-68372440D01*
X158187043Y-68372444D01*
X158036221Y-68496221D01*
X157912444Y-68647043D01*
X157912440Y-68647050D01*
X157820471Y-68819111D01*
X157763830Y-69005830D01*
X157744707Y-69200000D01*
X157195293Y-69200000D01*
X157176169Y-69005828D01*
X157119531Y-68819118D01*
X157119528Y-68819114D01*
X157119528Y-68819111D01*
X157027559Y-68647050D01*
X157027555Y-68647043D01*
X156903778Y-68496221D01*
X156752956Y-68372444D01*
X156752949Y-68372440D01*
X156580888Y-68280471D01*
X156580882Y-68280469D01*
X156394172Y-68223831D01*
X156394169Y-68223830D01*
X156200000Y-68204707D01*
X156005830Y-68223830D01*
X155819111Y-68280471D01*
X155647050Y-68372440D01*
X155647043Y-68372444D01*
X155496221Y-68496221D01*
X155372444Y-68647043D01*
X155372440Y-68647050D01*
X155280471Y-68819111D01*
X155223830Y-69005830D01*
X155204707Y-69200000D01*
X154655293Y-69200000D01*
X154636169Y-69005828D01*
X154579531Y-68819118D01*
X154579528Y-68819114D01*
X154579528Y-68819111D01*
X154487559Y-68647050D01*
X154487555Y-68647043D01*
X154363778Y-68496221D01*
X154212956Y-68372444D01*
X154212949Y-68372440D01*
X154040888Y-68280471D01*
X154040882Y-68280469D01*
X153854172Y-68223831D01*
X153854169Y-68223830D01*
X153660000Y-68204707D01*
X153465830Y-68223830D01*
X153279111Y-68280471D01*
X153107050Y-68372440D01*
X153107043Y-68372444D01*
X152956221Y-68496221D01*
X152832444Y-68647043D01*
X152832440Y-68647050D01*
X152740471Y-68819111D01*
X152683830Y-69005830D01*
X152664707Y-69200000D01*
X152683830Y-69394169D01*
X152740471Y-69580888D01*
X152832440Y-69752949D01*
X152832444Y-69752956D01*
X152956221Y-69903778D01*
X153107043Y-70027555D01*
X153107044Y-70027555D01*
X153107045Y-70027556D01*
X153153952Y-70052628D01*
X153203796Y-70101588D01*
X153219500Y-70161986D01*
X153219500Y-75956176D01*
X153199815Y-76023215D01*
X153183181Y-76043857D01*
X150242496Y-78984541D01*
X150181173Y-79018026D01*
X150129034Y-79018149D01*
X150088340Y-79009500D01*
X149911660Y-79009500D01*
X149881366Y-79015939D01*
X149738840Y-79046233D01*
X149738835Y-79046235D01*
X149577435Y-79118095D01*
X149434499Y-79221945D01*
X149434498Y-79221946D01*
X149316275Y-79353245D01*
X149316273Y-79353246D01*
X149316272Y-79353249D01*
X149227936Y-79506251D01*
X149227935Y-79506252D01*
X149173339Y-79674284D01*
X149173338Y-79674286D01*
X149154870Y-79850000D01*
X149173338Y-80025713D01*
X149173339Y-80025715D01*
X149227935Y-80193747D01*
X149227936Y-80193748D01*
X149316273Y-80346753D01*
X149367934Y-80404128D01*
X149398164Y-80467119D01*
X149389539Y-80536455D01*
X149344797Y-80590120D01*
X149278145Y-80611078D01*
X149275784Y-80611100D01*
X138679023Y-80611100D01*
X138611984Y-80591415D01*
X138591342Y-80574781D01*
X135984075Y-77967514D01*
X135984073Y-77967512D01*
X135925830Y-77933885D01*
X135883628Y-77909519D01*
X135827610Y-77894509D01*
X135771593Y-77879500D01*
X135771592Y-77879500D01*
X135227407Y-77879500D01*
X135160368Y-77859815D01*
X135118050Y-77813955D01*
X135088918Y-77759453D01*
X135088915Y-77759449D01*
X134963441Y-77606558D01*
X134810550Y-77481084D01*
X134810548Y-77481083D01*
X134810547Y-77481082D01*
X134636112Y-77387844D01*
X134541475Y-77359136D01*
X134446836Y-77330428D01*
X134250000Y-77311042D01*
X134053163Y-77330428D01*
X133863885Y-77387845D01*
X133689449Y-77481084D01*
X133536558Y-77606558D01*
X133411084Y-77759449D01*
X133317845Y-77933885D01*
X133260428Y-78123163D01*
X133241042Y-78320000D01*
X129160500Y-78320000D01*
X129160500Y-75780000D01*
X133241042Y-75780000D01*
X133260428Y-75976836D01*
X133260429Y-75976838D01*
X133317844Y-76166112D01*
X133361609Y-76247991D01*
X133411084Y-76340550D01*
X133536558Y-76493441D01*
X133689449Y-76618915D01*
X133689453Y-76618918D01*
X133863888Y-76712156D01*
X134053162Y-76769571D01*
X134250000Y-76788958D01*
X134446838Y-76769571D01*
X134636112Y-76712156D01*
X134810547Y-76618918D01*
X134963441Y-76493441D01*
X135088918Y-76340547D01*
X135182156Y-76166112D01*
X135239571Y-75976838D01*
X135258958Y-75780000D01*
X135239571Y-75583162D01*
X135182156Y-75393888D01*
X135088918Y-75219453D01*
X135088915Y-75219449D01*
X134963441Y-75066558D01*
X134810550Y-74941084D01*
X134810548Y-74941083D01*
X134810547Y-74941082D01*
X134636112Y-74847844D01*
X134541475Y-74819136D01*
X134446836Y-74790428D01*
X134250000Y-74771042D01*
X134053163Y-74790428D01*
X133863885Y-74847845D01*
X133689449Y-74941084D01*
X133536558Y-75066558D01*
X133411084Y-75219449D01*
X133317845Y-75393885D01*
X133260428Y-75583163D01*
X133241042Y-75780000D01*
X129160500Y-75780000D01*
X129160500Y-70700000D01*
X133241042Y-70700000D01*
X133260428Y-70896836D01*
X133317845Y-71086114D01*
X133411084Y-71260550D01*
X133536558Y-71413441D01*
X133689449Y-71538915D01*
X133689453Y-71538918D01*
X133863888Y-71632156D01*
X134053162Y-71689571D01*
X134250000Y-71708958D01*
X134446838Y-71689571D01*
X134636112Y-71632156D01*
X134810547Y-71538918D01*
X134963441Y-71413441D01*
X135088918Y-71260547D01*
X135182156Y-71086112D01*
X135239571Y-70896838D01*
X135258958Y-70700000D01*
X135239571Y-70503162D01*
X135182156Y-70313888D01*
X135088918Y-70139453D01*
X135088915Y-70139449D01*
X134963441Y-69986558D01*
X134810550Y-69861084D01*
X134810548Y-69861083D01*
X134810547Y-69861082D01*
X134636112Y-69767844D01*
X134541475Y-69739136D01*
X134446836Y-69710428D01*
X134250000Y-69691042D01*
X134053163Y-69710428D01*
X133863885Y-69767845D01*
X133689449Y-69861084D01*
X133536558Y-69986558D01*
X133411084Y-70139449D01*
X133317845Y-70313885D01*
X133260428Y-70503163D01*
X133241042Y-70700000D01*
X129160500Y-70700000D01*
X129160500Y-68336160D01*
X150129500Y-68336160D01*
X150129500Y-70063836D01*
X150129501Y-70063839D01*
X150129501Y-70063840D01*
X150137651Y-70104821D01*
X150168705Y-70151295D01*
X150215179Y-70182349D01*
X150256159Y-70190500D01*
X151983840Y-70190499D01*
X152024821Y-70182349D01*
X152071295Y-70151295D01*
X152102349Y-70104821D01*
X152110500Y-70063841D01*
X152110499Y-68336160D01*
X152102349Y-68295179D01*
X152071295Y-68248705D01*
X152024821Y-68217651D01*
X151983841Y-68209500D01*
X151983839Y-68209500D01*
X150256163Y-68209500D01*
X150215179Y-68217651D01*
X150168705Y-68248705D01*
X150158401Y-68264124D01*
X150137651Y-68295178D01*
X150129500Y-68336160D01*
X129160500Y-68336160D01*
X129160500Y-64096000D01*
X181501042Y-64096000D01*
X181520428Y-64292836D01*
X181577845Y-64482114D01*
X181671084Y-64656550D01*
X181796558Y-64809441D01*
X181949449Y-64934915D01*
X181949453Y-64934918D01*
X182123888Y-65028156D01*
X182313162Y-65085571D01*
X182510000Y-65104958D01*
X182706838Y-65085571D01*
X182896112Y-65028156D01*
X183070547Y-64934918D01*
X183223441Y-64809441D01*
X183348918Y-64656547D01*
X183442156Y-64482112D01*
X183499571Y-64292838D01*
X183518958Y-64096000D01*
X183499571Y-63899162D01*
X183442156Y-63709888D01*
X183348918Y-63535453D01*
X183348915Y-63535449D01*
X183223441Y-63382558D01*
X183070550Y-63257084D01*
X183070548Y-63257083D01*
X183070547Y-63257082D01*
X182896112Y-63163844D01*
X182801475Y-63135136D01*
X182706836Y-63106428D01*
X182510000Y-63087042D01*
X182313163Y-63106428D01*
X182123885Y-63163845D01*
X181949449Y-63257084D01*
X181796558Y-63382558D01*
X181671084Y-63535449D01*
X181577845Y-63709885D01*
X181520428Y-63899163D01*
X181501042Y-64096000D01*
X129160500Y-64096000D01*
X129160500Y-63080000D01*
X133241042Y-63080000D01*
X133260428Y-63276836D01*
X133260429Y-63276838D01*
X133317844Y-63466112D01*
X133381950Y-63586046D01*
X133411084Y-63640550D01*
X133536558Y-63793441D01*
X133665380Y-63899162D01*
X133689453Y-63918918D01*
X133863888Y-64012156D01*
X134053162Y-64069571D01*
X134250000Y-64088958D01*
X134446838Y-64069571D01*
X134636112Y-64012156D01*
X134810547Y-63918918D01*
X134963441Y-63793441D01*
X135088918Y-63640547D01*
X135118050Y-63586044D01*
X135167011Y-63536202D01*
X135227407Y-63520500D01*
X151377991Y-63520500D01*
X151377993Y-63520500D01*
X151490027Y-63490481D01*
X151590473Y-63432488D01*
X153466961Y-61556000D01*
X181501042Y-61556000D01*
X181520428Y-61752836D01*
X181577845Y-61942114D01*
X181671084Y-62116550D01*
X181796558Y-62269441D01*
X181914896Y-62366558D01*
X181949453Y-62394918D01*
X182123888Y-62488156D01*
X182313162Y-62545571D01*
X182510000Y-62564958D01*
X182706838Y-62545571D01*
X182896112Y-62488156D01*
X183070547Y-62394918D01*
X183223441Y-62269441D01*
X183348918Y-62116547D01*
X183442156Y-61942112D01*
X183499571Y-61752838D01*
X183518958Y-61556000D01*
X183499571Y-61359162D01*
X183442156Y-61169888D01*
X183348918Y-60995453D01*
X183292013Y-60926114D01*
X183223441Y-60842558D01*
X183070550Y-60717084D01*
X183070548Y-60717083D01*
X183070547Y-60717082D01*
X182896112Y-60623844D01*
X182801475Y-60595136D01*
X182706836Y-60566428D01*
X182510000Y-60547042D01*
X182313163Y-60566428D01*
X182123885Y-60623845D01*
X181949449Y-60717084D01*
X181796558Y-60842558D01*
X181671084Y-60995449D01*
X181577845Y-61169885D01*
X181520428Y-61359163D01*
X181501042Y-61556000D01*
X153466961Y-61556000D01*
X156006960Y-59016000D01*
X181501042Y-59016000D01*
X181520428Y-59212836D01*
X181577845Y-59402114D01*
X181671084Y-59576550D01*
X181796558Y-59729441D01*
X181914896Y-59826558D01*
X181949453Y-59854918D01*
X182123888Y-59948156D01*
X182313162Y-60005571D01*
X182510000Y-60024958D01*
X182706838Y-60005571D01*
X182896112Y-59948156D01*
X183070547Y-59854918D01*
X183223441Y-59729441D01*
X183348918Y-59576547D01*
X183442156Y-59402112D01*
X183499571Y-59212838D01*
X183518958Y-59016000D01*
X183499571Y-58819162D01*
X183442156Y-58629888D01*
X183348918Y-58455453D01*
X183292013Y-58386114D01*
X183223441Y-58302558D01*
X183070550Y-58177084D01*
X183070548Y-58177083D01*
X183070547Y-58177082D01*
X182896112Y-58083844D01*
X182801475Y-58055136D01*
X182706836Y-58026428D01*
X182510000Y-58007042D01*
X182313163Y-58026428D01*
X182123885Y-58083845D01*
X181949449Y-58177084D01*
X181796558Y-58302558D01*
X181671084Y-58455449D01*
X181577845Y-58629885D01*
X181520428Y-58819163D01*
X181501042Y-59016000D01*
X156006960Y-59016000D01*
X158431253Y-56591706D01*
X158492574Y-56558223D01*
X158554925Y-56560727D01*
X158605828Y-56576169D01*
X158800000Y-56595293D01*
X158994172Y-56576169D01*
X159180882Y-56519531D01*
X159208403Y-56504821D01*
X159262323Y-56476000D01*
X181501042Y-56476000D01*
X181520428Y-56672836D01*
X181577845Y-56862114D01*
X181671084Y-57036550D01*
X181796558Y-57189441D01*
X181914896Y-57286558D01*
X181949453Y-57314918D01*
X182123888Y-57408156D01*
X182313162Y-57465571D01*
X182510000Y-57484958D01*
X182706838Y-57465571D01*
X182896112Y-57408156D01*
X183070547Y-57314918D01*
X183223441Y-57189441D01*
X183348918Y-57036547D01*
X183442156Y-56862112D01*
X183499571Y-56672838D01*
X183518958Y-56476000D01*
X183499571Y-56279162D01*
X183442156Y-56089888D01*
X183348918Y-55915453D01*
X183292013Y-55846114D01*
X183223441Y-55762558D01*
X183070550Y-55637084D01*
X183070548Y-55637083D01*
X183070547Y-55637082D01*
X182896112Y-55543844D01*
X182801475Y-55515136D01*
X182706836Y-55486428D01*
X182510000Y-55467042D01*
X182313163Y-55486428D01*
X182123885Y-55543845D01*
X181949449Y-55637084D01*
X181796558Y-55762558D01*
X181671084Y-55915449D01*
X181577845Y-56089885D01*
X181520428Y-56279163D01*
X181501042Y-56476000D01*
X159262323Y-56476000D01*
X159352949Y-56427559D01*
X159352955Y-56427556D01*
X159503778Y-56303778D01*
X159627556Y-56152955D01*
X159719531Y-55980882D01*
X159776169Y-55794172D01*
X159795293Y-55600000D01*
X159776169Y-55405828D01*
X159719531Y-55219118D01*
X159719528Y-55219114D01*
X159719528Y-55219111D01*
X159627559Y-55047050D01*
X159627555Y-55047043D01*
X159503778Y-54896221D01*
X159352956Y-54772444D01*
X159352949Y-54772440D01*
X159180888Y-54680471D01*
X159180882Y-54680469D01*
X158994172Y-54623831D01*
X158994169Y-54623830D01*
X158800000Y-54604707D01*
X158605830Y-54623830D01*
X158419111Y-54680471D01*
X158247050Y-54772440D01*
X158247043Y-54772444D01*
X158096221Y-54896221D01*
X157972444Y-55047043D01*
X157972440Y-55047050D01*
X157880471Y-55219111D01*
X157823830Y-55405830D01*
X157804707Y-55600000D01*
X157823830Y-55794169D01*
X157823831Y-55794172D01*
X157839271Y-55845071D01*
X157839894Y-55914937D01*
X157808291Y-55968746D01*
X151173858Y-62603181D01*
X151112535Y-62636666D01*
X151086177Y-62639500D01*
X135227407Y-62639500D01*
X135160368Y-62619815D01*
X135118050Y-62573955D01*
X135088918Y-62519453D01*
X135088915Y-62519449D01*
X134963441Y-62366558D01*
X134810550Y-62241084D01*
X134810548Y-62241083D01*
X134810547Y-62241082D01*
X134636112Y-62147844D01*
X134532948Y-62116550D01*
X134446836Y-62090428D01*
X134250000Y-62071042D01*
X134053163Y-62090428D01*
X133863885Y-62147845D01*
X133689449Y-62241084D01*
X133536558Y-62366558D01*
X133411084Y-62519449D01*
X133317845Y-62693885D01*
X133260428Y-62883163D01*
X133241042Y-63080000D01*
X129160500Y-63080000D01*
X129160500Y-60540000D01*
X133241042Y-60540000D01*
X133260428Y-60736836D01*
X133317845Y-60926114D01*
X133411084Y-61100550D01*
X133536558Y-61253441D01*
X133665380Y-61359162D01*
X133689453Y-61378918D01*
X133863888Y-61472156D01*
X134053162Y-61529571D01*
X134250000Y-61548958D01*
X134446838Y-61529571D01*
X134636112Y-61472156D01*
X134810547Y-61378918D01*
X134963441Y-61253441D01*
X135088918Y-61100547D01*
X135182156Y-60926112D01*
X135239571Y-60736838D01*
X135258958Y-60540000D01*
X135239571Y-60343162D01*
X135182156Y-60153888D01*
X135088918Y-59979453D01*
X135088915Y-59979449D01*
X134963441Y-59826558D01*
X134810550Y-59701084D01*
X134810548Y-59701083D01*
X134810547Y-59701082D01*
X134636112Y-59607844D01*
X134532948Y-59576550D01*
X134446836Y-59550428D01*
X134250000Y-59531042D01*
X134053163Y-59550428D01*
X133863885Y-59607845D01*
X133689449Y-59701084D01*
X133536558Y-59826558D01*
X133411084Y-59979449D01*
X133317845Y-60153885D01*
X133260428Y-60343163D01*
X133241042Y-60540000D01*
X129160500Y-60540000D01*
X129160500Y-58000000D01*
X133241042Y-58000000D01*
X133260428Y-58196836D01*
X133317845Y-58386114D01*
X133411084Y-58560550D01*
X133536558Y-58713441D01*
X133665380Y-58819162D01*
X133689453Y-58838918D01*
X133863888Y-58932156D01*
X134053162Y-58989571D01*
X134250000Y-59008958D01*
X134446838Y-58989571D01*
X134636112Y-58932156D01*
X134810547Y-58838918D01*
X134963441Y-58713441D01*
X135088918Y-58560547D01*
X135182156Y-58386112D01*
X135239571Y-58196838D01*
X135258958Y-58000000D01*
X135239571Y-57803162D01*
X135182156Y-57613888D01*
X135088918Y-57439453D01*
X135088915Y-57439449D01*
X134963441Y-57286558D01*
X134810550Y-57161084D01*
X134810548Y-57161083D01*
X134810547Y-57161082D01*
X134636112Y-57067844D01*
X134532948Y-57036550D01*
X134446836Y-57010428D01*
X134250000Y-56991042D01*
X134053163Y-57010428D01*
X133863885Y-57067845D01*
X133689449Y-57161084D01*
X133536558Y-57286558D01*
X133411084Y-57439449D01*
X133317845Y-57613885D01*
X133260428Y-57803163D01*
X133241042Y-58000000D01*
X129160500Y-58000000D01*
X129160500Y-55460000D01*
X133241042Y-55460000D01*
X133260428Y-55656836D01*
X133260429Y-55656838D01*
X133317844Y-55846112D01*
X133389880Y-55980882D01*
X133411084Y-56020550D01*
X133536558Y-56173441D01*
X133665380Y-56279162D01*
X133689453Y-56298918D01*
X133863888Y-56392156D01*
X134053162Y-56449571D01*
X134250000Y-56468958D01*
X134446838Y-56449571D01*
X134636112Y-56392156D01*
X134810547Y-56298918D01*
X134963441Y-56173441D01*
X135088918Y-56020547D01*
X135182156Y-55846112D01*
X135239571Y-55656838D01*
X135258958Y-55460000D01*
X135239571Y-55263162D01*
X135182156Y-55073888D01*
X135088918Y-54899453D01*
X135088915Y-54899449D01*
X134963441Y-54746558D01*
X134950771Y-54736160D01*
X152729500Y-54736160D01*
X152729500Y-56463836D01*
X152730519Y-56468958D01*
X152737651Y-56504821D01*
X152768705Y-56551295D01*
X152815179Y-56582349D01*
X152856159Y-56590500D01*
X154583840Y-56590499D01*
X154624821Y-56582349D01*
X154671295Y-56551295D01*
X154702349Y-56504821D01*
X154710500Y-56463841D01*
X154710499Y-55600000D01*
X155264707Y-55600000D01*
X155283830Y-55794169D01*
X155340471Y-55980888D01*
X155432440Y-56152949D01*
X155432444Y-56152956D01*
X155556221Y-56303778D01*
X155707043Y-56427555D01*
X155707050Y-56427559D01*
X155879111Y-56519528D01*
X155879114Y-56519528D01*
X155879118Y-56519531D01*
X156065828Y-56576169D01*
X156260000Y-56595293D01*
X156454172Y-56576169D01*
X156640882Y-56519531D01*
X156668403Y-56504821D01*
X156812949Y-56427559D01*
X156812955Y-56427556D01*
X156963778Y-56303778D01*
X157087556Y-56152955D01*
X157179531Y-55980882D01*
X157236169Y-55794172D01*
X157255293Y-55600000D01*
X157236169Y-55405828D01*
X157220727Y-55354925D01*
X157220105Y-55285061D01*
X157251706Y-55231253D01*
X158546959Y-53936000D01*
X181501042Y-53936000D01*
X181520428Y-54132836D01*
X181577845Y-54322114D01*
X181671084Y-54496550D01*
X181796558Y-54649441D01*
X181946438Y-54772444D01*
X181949453Y-54774918D01*
X182123888Y-54868156D01*
X182313162Y-54925571D01*
X182510000Y-54944958D01*
X182706838Y-54925571D01*
X182896112Y-54868156D01*
X183070547Y-54774918D01*
X183223441Y-54649441D01*
X183348918Y-54496547D01*
X183442156Y-54322112D01*
X183499571Y-54132838D01*
X183518958Y-53936000D01*
X183499571Y-53739162D01*
X183442156Y-53549888D01*
X183348918Y-53375453D01*
X183292013Y-53306114D01*
X183223441Y-53222558D01*
X183070550Y-53097084D01*
X183070548Y-53097083D01*
X183070547Y-53097082D01*
X182896112Y-53003844D01*
X182801475Y-52975136D01*
X182706836Y-52946428D01*
X182510000Y-52927042D01*
X182313163Y-52946428D01*
X182123885Y-53003845D01*
X181949449Y-53097084D01*
X181796558Y-53222558D01*
X181671084Y-53375449D01*
X181577845Y-53549885D01*
X181520428Y-53739163D01*
X181501042Y-53936000D01*
X158546959Y-53936000D01*
X163626960Y-48856000D01*
X181501042Y-48856000D01*
X181520428Y-49052836D01*
X181577845Y-49242114D01*
X181671084Y-49416550D01*
X181796558Y-49569441D01*
X181949449Y-49694915D01*
X181949453Y-49694918D01*
X182123888Y-49788156D01*
X182313162Y-49845571D01*
X182510000Y-49864958D01*
X182706838Y-49845571D01*
X182896112Y-49788156D01*
X183070547Y-49694918D01*
X183223441Y-49569441D01*
X183348918Y-49416547D01*
X183442156Y-49242112D01*
X183499571Y-49052838D01*
X183518958Y-48856000D01*
X183499571Y-48659162D01*
X183442156Y-48469888D01*
X183348918Y-48295453D01*
X183348915Y-48295449D01*
X183223441Y-48142558D01*
X183070550Y-48017084D01*
X183070548Y-48017083D01*
X183070547Y-48017082D01*
X182896112Y-47923844D01*
X182801475Y-47895136D01*
X182706836Y-47866428D01*
X182510000Y-47847042D01*
X182313163Y-47866428D01*
X182123885Y-47923845D01*
X181949449Y-48017084D01*
X181796558Y-48142558D01*
X181671084Y-48295449D01*
X181577845Y-48469885D01*
X181520428Y-48659163D01*
X181501042Y-48856000D01*
X163626960Y-48856000D01*
X166166961Y-46316000D01*
X181501042Y-46316000D01*
X181520428Y-46512836D01*
X181577845Y-46702114D01*
X181671084Y-46876550D01*
X181796558Y-47029441D01*
X181949449Y-47154915D01*
X181949453Y-47154918D01*
X182123888Y-47248156D01*
X182313162Y-47305571D01*
X182510000Y-47324958D01*
X182706838Y-47305571D01*
X182896112Y-47248156D01*
X183070547Y-47154918D01*
X183223441Y-47029441D01*
X183348918Y-46876547D01*
X183442156Y-46702112D01*
X183499571Y-46512838D01*
X183518958Y-46316000D01*
X183499571Y-46119162D01*
X183442156Y-45929888D01*
X183348918Y-45755453D01*
X183348915Y-45755449D01*
X183223441Y-45602558D01*
X183070550Y-45477084D01*
X183070548Y-45477083D01*
X183070547Y-45477082D01*
X182896112Y-45383844D01*
X182801475Y-45355136D01*
X182706836Y-45326428D01*
X182510000Y-45307042D01*
X182313163Y-45326428D01*
X182123885Y-45383845D01*
X181949449Y-45477084D01*
X181796558Y-45602558D01*
X181671084Y-45755449D01*
X181577845Y-45929885D01*
X181520428Y-46119163D01*
X181501042Y-46316000D01*
X166166961Y-46316000D01*
X168230142Y-44252819D01*
X168291465Y-44219334D01*
X168317823Y-44216500D01*
X181532593Y-44216500D01*
X181599632Y-44236185D01*
X181641949Y-44282044D01*
X181671082Y-44336547D01*
X181671084Y-44336550D01*
X181796558Y-44489441D01*
X181949449Y-44614915D01*
X181949453Y-44614918D01*
X182123888Y-44708156D01*
X182313162Y-44765571D01*
X182510000Y-44784958D01*
X182706838Y-44765571D01*
X182896112Y-44708156D01*
X183070547Y-44614918D01*
X183223441Y-44489441D01*
X183348918Y-44336547D01*
X183442156Y-44162112D01*
X183499571Y-43972838D01*
X183518958Y-43776000D01*
X183499571Y-43579162D01*
X183442156Y-43389888D01*
X183348918Y-43215453D01*
X183348915Y-43215449D01*
X183223441Y-43062558D01*
X183070550Y-42937084D01*
X183070548Y-42937083D01*
X183070547Y-42937082D01*
X182896112Y-42843844D01*
X182801475Y-42815136D01*
X182706836Y-42786428D01*
X182510000Y-42767042D01*
X182313163Y-42786428D01*
X182123885Y-42843845D01*
X181949449Y-42937084D01*
X181796558Y-43062558D01*
X181671084Y-43215449D01*
X181671082Y-43215453D01*
X181641949Y-43269955D01*
X181592989Y-43319798D01*
X181532593Y-43335500D01*
X168026007Y-43335500D01*
X167913971Y-43365519D01*
X167813527Y-43423512D01*
X167813524Y-43423514D01*
X156628746Y-54608291D01*
X156567423Y-54641776D01*
X156505072Y-54639271D01*
X156454172Y-54623831D01*
X156454169Y-54623830D01*
X156454171Y-54623830D01*
X156260000Y-54604707D01*
X156065830Y-54623830D01*
X155879111Y-54680471D01*
X155707050Y-54772440D01*
X155707043Y-54772444D01*
X155556221Y-54896221D01*
X155432444Y-55047043D01*
X155432440Y-55047050D01*
X155340471Y-55219111D01*
X155283830Y-55405830D01*
X155264707Y-55600000D01*
X154710499Y-55600000D01*
X154710499Y-54736160D01*
X154702349Y-54695179D01*
X154671295Y-54648705D01*
X154624821Y-54617651D01*
X154583841Y-54609500D01*
X154583839Y-54609500D01*
X152856163Y-54609500D01*
X152815179Y-54617651D01*
X152779075Y-54641776D01*
X152768705Y-54648705D01*
X152760593Y-54660845D01*
X152737651Y-54695178D01*
X152729500Y-54736160D01*
X134950771Y-54736160D01*
X134810550Y-54621084D01*
X134810548Y-54621083D01*
X134810547Y-54621082D01*
X134636112Y-54527844D01*
X134532948Y-54496550D01*
X134446836Y-54470428D01*
X134250000Y-54451042D01*
X134053163Y-54470428D01*
X133863885Y-54527845D01*
X133689449Y-54621084D01*
X133536558Y-54746558D01*
X133411084Y-54899449D01*
X133317845Y-55073885D01*
X133260428Y-55263163D01*
X133241042Y-55460000D01*
X129160500Y-55460000D01*
X129160500Y-52920000D01*
X133241042Y-52920000D01*
X133260428Y-53116836D01*
X133317845Y-53306114D01*
X133411084Y-53480550D01*
X133536558Y-53633441D01*
X133665380Y-53739162D01*
X133689453Y-53758918D01*
X133863888Y-53852156D01*
X134053162Y-53909571D01*
X134250000Y-53928958D01*
X134446838Y-53909571D01*
X134636112Y-53852156D01*
X134810547Y-53758918D01*
X134963441Y-53633441D01*
X135088918Y-53480547D01*
X135182156Y-53306112D01*
X135239571Y-53116838D01*
X135258958Y-52920000D01*
X135239571Y-52723162D01*
X135182156Y-52533888D01*
X135088918Y-52359453D01*
X135088915Y-52359449D01*
X134963441Y-52206558D01*
X134810550Y-52081084D01*
X134810548Y-52081083D01*
X134810547Y-52081082D01*
X134636112Y-51987844D01*
X134541475Y-51959136D01*
X134446836Y-51930428D01*
X134250000Y-51911042D01*
X134053163Y-51930428D01*
X133863885Y-51987845D01*
X133689449Y-52081084D01*
X133536558Y-52206558D01*
X133411084Y-52359449D01*
X133317845Y-52533885D01*
X133260428Y-52723163D01*
X133241042Y-52920000D01*
X129160500Y-52920000D01*
X129160500Y-38828711D01*
X132399500Y-38828711D01*
X132399500Y-39071288D01*
X132431161Y-39311785D01*
X132493947Y-39546104D01*
X132586773Y-39770205D01*
X132586776Y-39770212D01*
X132708064Y-39980289D01*
X132708066Y-39980292D01*
X132708067Y-39980293D01*
X132855733Y-40172736D01*
X132855739Y-40172743D01*
X133027256Y-40344260D01*
X133027262Y-40344265D01*
X133219711Y-40491936D01*
X133429788Y-40613224D01*
X133653900Y-40706054D01*
X133888211Y-40768838D01*
X134068586Y-40792584D01*
X134128711Y-40800500D01*
X134128712Y-40800500D01*
X134371289Y-40800500D01*
X134419388Y-40794167D01*
X134611789Y-40768838D01*
X134846100Y-40706054D01*
X135070212Y-40613224D01*
X135280289Y-40491936D01*
X135472738Y-40344265D01*
X135644265Y-40172738D01*
X135701068Y-40098711D01*
X180659500Y-40098711D01*
X180659500Y-40341288D01*
X180691161Y-40581785D01*
X180753947Y-40816104D01*
X180846773Y-41040205D01*
X180846776Y-41040212D01*
X180968064Y-41250289D01*
X180968066Y-41250292D01*
X180968067Y-41250293D01*
X181115733Y-41442736D01*
X181115739Y-41442743D01*
X181287256Y-41614260D01*
X181287262Y-41614265D01*
X181479711Y-41761936D01*
X181689788Y-41883224D01*
X181913900Y-41976054D01*
X182148211Y-42038838D01*
X182328586Y-42062584D01*
X182388711Y-42070500D01*
X182388712Y-42070500D01*
X182631289Y-42070500D01*
X182679388Y-42064167D01*
X182871789Y-42038838D01*
X183106100Y-41976054D01*
X183330212Y-41883224D01*
X183540289Y-41761936D01*
X183732738Y-41614265D01*
X183904265Y-41442738D01*
X184051936Y-41250289D01*
X184173224Y-41040212D01*
X184266054Y-40816100D01*
X184328838Y-40581789D01*
X184360500Y-40341288D01*
X184360500Y-40098712D01*
X184328838Y-39858211D01*
X184266054Y-39623900D01*
X184173224Y-39399788D01*
X184051936Y-39189711D01*
X183904265Y-38997262D01*
X183904260Y-38997256D01*
X183732743Y-38825739D01*
X183732736Y-38825733D01*
X183540293Y-38678067D01*
X183540292Y-38678066D01*
X183540289Y-38678064D01*
X183330212Y-38556776D01*
X183330205Y-38556773D01*
X183106104Y-38463947D01*
X182871785Y-38401161D01*
X182631289Y-38369500D01*
X182631288Y-38369500D01*
X182388712Y-38369500D01*
X182388711Y-38369500D01*
X182148214Y-38401161D01*
X181913895Y-38463947D01*
X181689794Y-38556773D01*
X181689785Y-38556777D01*
X181479706Y-38678067D01*
X181287263Y-38825733D01*
X181287256Y-38825739D01*
X181115739Y-38997256D01*
X181115733Y-38997263D01*
X180968067Y-39189706D01*
X180846777Y-39399785D01*
X180846773Y-39399794D01*
X180753947Y-39623895D01*
X180691161Y-39858214D01*
X180659500Y-40098711D01*
X135701068Y-40098711D01*
X135791936Y-39980289D01*
X135913224Y-39770212D01*
X136006054Y-39546100D01*
X136068838Y-39311789D01*
X136100500Y-39071288D01*
X136100500Y-38828712D01*
X136068838Y-38588211D01*
X136006054Y-38353900D01*
X135913224Y-38129788D01*
X135791936Y-37919711D01*
X135644265Y-37727262D01*
X135644260Y-37727256D01*
X135472743Y-37555739D01*
X135472736Y-37555733D01*
X135280293Y-37408067D01*
X135280292Y-37408066D01*
X135280289Y-37408064D01*
X135070212Y-37286776D01*
X135070205Y-37286773D01*
X134846104Y-37193947D01*
X134611785Y-37131161D01*
X134371289Y-37099500D01*
X134371288Y-37099500D01*
X134128712Y-37099500D01*
X134128711Y-37099500D01*
X133888214Y-37131161D01*
X133653895Y-37193947D01*
X133429794Y-37286773D01*
X133429785Y-37286777D01*
X133219706Y-37408067D01*
X133027263Y-37555733D01*
X133027256Y-37555739D01*
X132855739Y-37727256D01*
X132855733Y-37727263D01*
X132708067Y-37919706D01*
X132586777Y-38129785D01*
X132586773Y-38129794D01*
X132493947Y-38353895D01*
X132431161Y-38588214D01*
X132399500Y-38828711D01*
X129160500Y-38828711D01*
X129160500Y-24454500D01*
X129180185Y-24387461D01*
X129232989Y-24341706D01*
X129284500Y-24330500D01*
X187285500Y-24330500D01*
X187352539Y-24350185D01*
G37*
%TD.AperFunction*%
%TD*%
M02*
