M48
; DRILL file {KiCad 8.0.6-8.0.6-0~ubuntu24.04.1} date 2024-10-19T11:52:58+0200
; FORMAT={-:-/ absolute / inch / decimal}
; #@! TF.CreationDate,2024-10-19T11:52:58+02:00
; #@! TF.GenerationSoftware,Kicad,Pcbnew,8.0.6-8.0.6-0~ubuntu24.04.1
; #@! TF.FileFunction,Plated,1,2,PTH
FMAT,2
INCH
; #@! TA.AperFunction,Plated,PTH,ComponentDrill
T1C0.0079
; #@! TA.AperFunction,Plated,PTH,ViaDrill
T2C0.0118
; #@! TA.AperFunction,Plated,PTH,ComponentDrill
T3C0.0276
; #@! TA.AperFunction,Plated,PTH,ComponentDrill
T4C0.0315
; #@! TA.AperFunction,Plated,PTH,ComponentDrill
T5C0.0394
; #@! TA.AperFunction,Plated,PTH,ComponentDrill
T6C0.0400
; #@! TA.AperFunction,Plated,PTH,ComponentDrill
T7C0.1693
%
G90
G05
T1
X5.7364Y-5.7022
X5.7364Y-5.7415
X5.7364Y-5.7809
X5.7876Y-5.7022
X5.7876Y-5.7415
X5.7876Y-5.7809
X6.7175Y-5.7022
X6.7175Y-5.7415
X6.7175Y-5.7809
X6.7687Y-5.7022
X6.7687Y-5.7415
X6.7687Y-5.7809
T2
X5.7923Y-5.8221
X5.9477Y-5.6352
X5.952Y-5.7563
X6.2205Y-5.7638
X6.5354Y-5.7795
X6.5963Y-5.7902
X6.6641Y-5.5787
X7.1094Y-4.9441
T3
X5.6268Y-5.2165
X5.6268Y-5.374
X5.8268Y-5.2165
X5.8268Y-5.374
X5.9055Y-3.1437
X5.9055Y-3.2677
X6.1055Y-3.1437
X6.1055Y-3.2677
T4
X6.2709Y-3.1161
X6.2709Y-3.2756
X6.4677Y-3.1161
X6.4677Y-3.2756
X6.6634Y-5.1575
X6.6634Y-5.3543
T5
X5.2362Y-5.2756
X5.2362Y-5.3756
X5.9441Y-4.0866
X5.9496Y-2.7244
X6.0441Y-4.0866
X6.0496Y-2.7244
X6.052Y-2.189
X6.1441Y-4.0866
X6.1496Y-2.7244
X6.152Y-2.189
X6.2441Y-4.0866
X6.2496Y-2.7244
X6.252Y-2.189
X6.3441Y-4.0866
X6.3496Y-2.7244
X6.352Y-2.189
X6.4441Y-4.0866
X6.4496Y-2.7244
X6.5441Y-4.0866
X6.9193Y-5.2461
X7.1161Y-5.2461
X7.315Y-5.5276
X7.315Y-5.6276
X7.315Y-5.7276
X7.315Y-5.8276
T6
X5.2854Y-2.0835
X5.2854Y-2.1835
X5.2854Y-2.2835
X5.2854Y-2.3835
X5.2854Y-2.4835
X5.2854Y-2.5835
X5.2854Y-2.6835
X5.2854Y-2.7835
X5.2854Y-2.9835
X5.2854Y-3.0835
X5.2854Y-3.1835
X5.2854Y-3.2835
X5.2854Y-3.3835
X5.2854Y-3.4835
X5.2854Y-3.5835
X5.2854Y-3.6835
X5.2854Y-3.8835
X5.2854Y-3.9835
X5.2854Y-4.0835
X5.2854Y-4.1835
X5.2854Y-4.2835
X5.2854Y-4.3835
X5.2854Y-4.4835
X5.2854Y-4.5835
X5.4854Y-4.6835
X5.4854Y-4.7835
X5.5854Y-4.6835
X5.5854Y-4.7835
X5.6854Y-4.6835
X5.6854Y-4.7835
X5.7854Y-4.6835
X5.7854Y-4.7835
X5.8854Y-4.6835
X5.8854Y-4.7835
X5.9854Y-4.6835
X5.9854Y-4.7835
X6.0854Y-4.6835
X6.0854Y-4.7835
X6.1854Y-3.4885
X6.1854Y-3.5885
X6.1854Y-4.6835
X6.1854Y-4.7835
X6.2854Y-3.4885
X6.2854Y-3.5885
X6.2854Y-4.6835
X6.2854Y-4.7835
X6.3854Y-3.4885
X6.3854Y-3.5885
X6.3854Y-4.6835
X6.3854Y-4.7835
X6.4854Y-4.6835
X6.4854Y-4.7835
X6.5854Y-4.6835
X6.5854Y-4.7835
X6.6854Y-4.6835
X6.6854Y-4.7835
X6.7854Y-4.6835
X6.7854Y-4.7835
X6.8854Y-4.6835
X6.8854Y-4.7835
X6.9854Y-4.6835
X6.9854Y-4.7835
X7.0854Y-4.6835
X7.0854Y-4.7835
X7.1854Y-1.7235
X7.1854Y-1.8235
X7.1854Y-1.9235
X7.1854Y-2.0235
X7.1854Y-2.1235
X7.1854Y-2.2235
X7.1854Y-2.3235
X7.1854Y-2.4235
X7.1854Y-2.5235
X7.1854Y-2.6235
X7.1854Y-2.7835
X7.1854Y-2.8835
X7.1854Y-2.9835
X7.1854Y-3.0835
X7.1854Y-3.1835
X7.1854Y-3.2835
X7.1854Y-3.3835
X7.1854Y-3.4835
X7.1854Y-3.6835
X7.1854Y-3.7835
X7.1854Y-3.8835
X7.1854Y-3.9835
X7.1854Y-4.0835
X7.1854Y-4.1835
X7.1854Y-4.2835
X7.1854Y-4.3835
X7.1854Y-4.6835
X7.1854Y-4.7835
T7
X5.2461Y-6.1024
X7.2343Y-6.1122
M30
