%TF.GenerationSoftware,KiCad,Pcbnew,8.0.6-8.0.6-0~ubuntu24.04.1*%
%TF.CreationDate,2024-10-21T11:59:33+02:00*%
%TF.ProjectId,K3NG-rotator-shield,4b334e47-2d72-46f7-9461-746f722d7368,rev?*%
%TF.SameCoordinates,Original*%
%TF.FileFunction,Legend,Top*%
%TF.FilePolarity,Positive*%
%FSLAX46Y46*%
G04 Gerber Fmt 4.6, Leading zero omitted, Abs format (unit mm)*
G04 Created by KiCad (PCBNEW 8.0.6-8.0.6-0~ubuntu24.04.1) date 2024-10-21 11:59:33*
%MOMM*%
%LPD*%
G01*
G04 APERTURE LIST*
%ADD10C,0.100000*%
%ADD11C,0.150000*%
%ADD12C,0.120000*%
G04 APERTURE END LIST*
D10*
X153693295Y-71956265D02*
X153693295Y-72432455D01*
X153407580Y-71861027D02*
X154407580Y-72194360D01*
X154407580Y-72194360D02*
X153407580Y-72527693D01*
X154407580Y-72765789D02*
X154407580Y-73432455D01*
X154407580Y-73432455D02*
X153407580Y-72765789D01*
X153407580Y-72765789D02*
X153407580Y-73432455D01*
X154407580Y-73670551D02*
X153407580Y-74003884D01*
X153407580Y-74003884D02*
X154407580Y-74337217D01*
X161817580Y-106703884D02*
X161008057Y-106703884D01*
X161008057Y-106703884D02*
X160912819Y-106751503D01*
X160912819Y-106751503D02*
X160865200Y-106799122D01*
X160865200Y-106799122D02*
X160817580Y-106894360D01*
X160817580Y-106894360D02*
X160817580Y-107084836D01*
X160817580Y-107084836D02*
X160865200Y-107180074D01*
X160865200Y-107180074D02*
X160912819Y-107227693D01*
X160912819Y-107227693D02*
X161008057Y-107275312D01*
X161008057Y-107275312D02*
X161817580Y-107275312D01*
X160817580Y-107751503D02*
X161817580Y-107751503D01*
X161817580Y-107751503D02*
X161817580Y-108132455D01*
X161817580Y-108132455D02*
X161769961Y-108227693D01*
X161769961Y-108227693D02*
X161722342Y-108275312D01*
X161722342Y-108275312D02*
X161627104Y-108322931D01*
X161627104Y-108322931D02*
X161484247Y-108322931D01*
X161484247Y-108322931D02*
X161389009Y-108275312D01*
X161389009Y-108275312D02*
X161341390Y-108227693D01*
X161341390Y-108227693D02*
X161293771Y-108132455D01*
X161293771Y-108132455D02*
X161293771Y-107751503D01*
X181675312Y-145777180D02*
X181627693Y-145824800D01*
X181627693Y-145824800D02*
X181484836Y-145872419D01*
X181484836Y-145872419D02*
X181389598Y-145872419D01*
X181389598Y-145872419D02*
X181246741Y-145824800D01*
X181246741Y-145824800D02*
X181151503Y-145729561D01*
X181151503Y-145729561D02*
X181103884Y-145634323D01*
X181103884Y-145634323D02*
X181056265Y-145443847D01*
X181056265Y-145443847D02*
X181056265Y-145300990D01*
X181056265Y-145300990D02*
X181103884Y-145110514D01*
X181103884Y-145110514D02*
X181151503Y-145015276D01*
X181151503Y-145015276D02*
X181246741Y-144920038D01*
X181246741Y-144920038D02*
X181389598Y-144872419D01*
X181389598Y-144872419D02*
X181484836Y-144872419D01*
X181484836Y-144872419D02*
X181627693Y-144920038D01*
X181627693Y-144920038D02*
X181675312Y-144967657D01*
X182675312Y-145777180D02*
X182627693Y-145824800D01*
X182627693Y-145824800D02*
X182484836Y-145872419D01*
X182484836Y-145872419D02*
X182389598Y-145872419D01*
X182389598Y-145872419D02*
X182246741Y-145824800D01*
X182246741Y-145824800D02*
X182151503Y-145729561D01*
X182151503Y-145729561D02*
X182103884Y-145634323D01*
X182103884Y-145634323D02*
X182056265Y-145443847D01*
X182056265Y-145443847D02*
X182056265Y-145300990D01*
X182056265Y-145300990D02*
X182103884Y-145110514D01*
X182103884Y-145110514D02*
X182151503Y-145015276D01*
X182151503Y-145015276D02*
X182246741Y-144920038D01*
X182246741Y-144920038D02*
X182389598Y-144872419D01*
X182389598Y-144872419D02*
X182484836Y-144872419D01*
X182484836Y-144872419D02*
X182627693Y-144920038D01*
X182627693Y-144920038D02*
X182675312Y-144967657D01*
X183008646Y-144872419D02*
X183246741Y-145872419D01*
X183246741Y-145872419D02*
X183437217Y-145158133D01*
X183437217Y-145158133D02*
X183627693Y-145872419D01*
X183627693Y-145872419D02*
X183865789Y-144872419D01*
X180275312Y-148377180D02*
X180227693Y-148424800D01*
X180227693Y-148424800D02*
X180084836Y-148472419D01*
X180084836Y-148472419D02*
X179989598Y-148472419D01*
X179989598Y-148472419D02*
X179846741Y-148424800D01*
X179846741Y-148424800D02*
X179751503Y-148329561D01*
X179751503Y-148329561D02*
X179703884Y-148234323D01*
X179703884Y-148234323D02*
X179656265Y-148043847D01*
X179656265Y-148043847D02*
X179656265Y-147900990D01*
X179656265Y-147900990D02*
X179703884Y-147710514D01*
X179703884Y-147710514D02*
X179751503Y-147615276D01*
X179751503Y-147615276D02*
X179846741Y-147520038D01*
X179846741Y-147520038D02*
X179989598Y-147472419D01*
X179989598Y-147472419D02*
X180084836Y-147472419D01*
X180084836Y-147472419D02*
X180227693Y-147520038D01*
X180227693Y-147520038D02*
X180275312Y-147567657D01*
X180608646Y-147472419D02*
X180846741Y-148472419D01*
X180846741Y-148472419D02*
X181037217Y-147758133D01*
X181037217Y-147758133D02*
X181227693Y-148472419D01*
X181227693Y-148472419D02*
X181465789Y-147472419D01*
X182037217Y-147472419D02*
X182227693Y-147472419D01*
X182227693Y-147472419D02*
X182322931Y-147520038D01*
X182322931Y-147520038D02*
X182418169Y-147615276D01*
X182418169Y-147615276D02*
X182465788Y-147805752D01*
X182465788Y-147805752D02*
X182465788Y-148139085D01*
X182465788Y-148139085D02*
X182418169Y-148329561D01*
X182418169Y-148329561D02*
X182322931Y-148424800D01*
X182322931Y-148424800D02*
X182227693Y-148472419D01*
X182227693Y-148472419D02*
X182037217Y-148472419D01*
X182037217Y-148472419D02*
X181941979Y-148424800D01*
X181941979Y-148424800D02*
X181846741Y-148329561D01*
X181846741Y-148329561D02*
X181799122Y-148139085D01*
X181799122Y-148139085D02*
X181799122Y-147805752D01*
X181799122Y-147805752D02*
X181846741Y-147615276D01*
X181846741Y-147615276D02*
X181941979Y-147520038D01*
X181941979Y-147520038D02*
X182037217Y-147472419D01*
X182894360Y-147472419D02*
X182894360Y-148281942D01*
X182894360Y-148281942D02*
X182941979Y-148377180D01*
X182941979Y-148377180D02*
X182989598Y-148424800D01*
X182989598Y-148424800D02*
X183084836Y-148472419D01*
X183084836Y-148472419D02*
X183275312Y-148472419D01*
X183275312Y-148472419D02*
X183370550Y-148424800D01*
X183370550Y-148424800D02*
X183418169Y-148377180D01*
X183418169Y-148377180D02*
X183465788Y-148281942D01*
X183465788Y-148281942D02*
X183465788Y-147472419D01*
X183799122Y-147472419D02*
X184370550Y-147472419D01*
X184084836Y-148472419D02*
X184084836Y-147472419D01*
X161120038Y-60072306D02*
X161072419Y-60167544D01*
X161072419Y-60167544D02*
X161072419Y-60310401D01*
X161072419Y-60310401D02*
X161120038Y-60453258D01*
X161120038Y-60453258D02*
X161215276Y-60548496D01*
X161215276Y-60548496D02*
X161310514Y-60596115D01*
X161310514Y-60596115D02*
X161500990Y-60643734D01*
X161500990Y-60643734D02*
X161643847Y-60643734D01*
X161643847Y-60643734D02*
X161834323Y-60596115D01*
X161834323Y-60596115D02*
X161929561Y-60548496D01*
X161929561Y-60548496D02*
X162024800Y-60453258D01*
X162024800Y-60453258D02*
X162072419Y-60310401D01*
X162072419Y-60310401D02*
X162072419Y-60215163D01*
X162072419Y-60215163D02*
X162024800Y-60072306D01*
X162024800Y-60072306D02*
X161977180Y-60024687D01*
X161977180Y-60024687D02*
X161643847Y-60024687D01*
X161643847Y-60024687D02*
X161643847Y-60215163D01*
X162072419Y-59596115D02*
X161072419Y-59596115D01*
X161072419Y-59596115D02*
X162072419Y-59024687D01*
X162072419Y-59024687D02*
X161072419Y-59024687D01*
X162072419Y-58548496D02*
X161072419Y-58548496D01*
X161072419Y-58548496D02*
X161072419Y-58310401D01*
X161072419Y-58310401D02*
X161120038Y-58167544D01*
X161120038Y-58167544D02*
X161215276Y-58072306D01*
X161215276Y-58072306D02*
X161310514Y-58024687D01*
X161310514Y-58024687D02*
X161500990Y-57977068D01*
X161500990Y-57977068D02*
X161643847Y-57977068D01*
X161643847Y-57977068D02*
X161834323Y-58024687D01*
X161834323Y-58024687D02*
X161929561Y-58072306D01*
X161929561Y-58072306D02*
X162024800Y-58167544D01*
X162024800Y-58167544D02*
X162072419Y-58310401D01*
X162072419Y-58310401D02*
X162072419Y-58548496D01*
X182503884Y-139872419D02*
X182503884Y-140681942D01*
X182503884Y-140681942D02*
X182551503Y-140777180D01*
X182551503Y-140777180D02*
X182599122Y-140824800D01*
X182599122Y-140824800D02*
X182694360Y-140872419D01*
X182694360Y-140872419D02*
X182884836Y-140872419D01*
X182884836Y-140872419D02*
X182980074Y-140824800D01*
X182980074Y-140824800D02*
X183027693Y-140777180D01*
X183027693Y-140777180D02*
X183075312Y-140681942D01*
X183075312Y-140681942D02*
X183075312Y-139872419D01*
X183551503Y-140872419D02*
X183551503Y-139872419D01*
X183551503Y-139872419D02*
X183932455Y-139872419D01*
X183932455Y-139872419D02*
X184027693Y-139920038D01*
X184027693Y-139920038D02*
X184075312Y-139967657D01*
X184075312Y-139967657D02*
X184122931Y-140062895D01*
X184122931Y-140062895D02*
X184122931Y-140205752D01*
X184122931Y-140205752D02*
X184075312Y-140300990D01*
X184075312Y-140300990D02*
X184027693Y-140348609D01*
X184027693Y-140348609D02*
X183932455Y-140396228D01*
X183932455Y-140396228D02*
X183551503Y-140396228D01*
X153225038Y-108172306D02*
X153177419Y-108267544D01*
X153177419Y-108267544D02*
X153177419Y-108410401D01*
X153177419Y-108410401D02*
X153225038Y-108553258D01*
X153225038Y-108553258D02*
X153320276Y-108648496D01*
X153320276Y-108648496D02*
X153415514Y-108696115D01*
X153415514Y-108696115D02*
X153605990Y-108743734D01*
X153605990Y-108743734D02*
X153748847Y-108743734D01*
X153748847Y-108743734D02*
X153939323Y-108696115D01*
X153939323Y-108696115D02*
X154034561Y-108648496D01*
X154034561Y-108648496D02*
X154129800Y-108553258D01*
X154129800Y-108553258D02*
X154177419Y-108410401D01*
X154177419Y-108410401D02*
X154177419Y-108315163D01*
X154177419Y-108315163D02*
X154129800Y-108172306D01*
X154129800Y-108172306D02*
X154082180Y-108124687D01*
X154082180Y-108124687D02*
X153748847Y-108124687D01*
X153748847Y-108124687D02*
X153748847Y-108315163D01*
X154177419Y-107696115D02*
X153177419Y-107696115D01*
X153177419Y-107696115D02*
X154177419Y-107124687D01*
X154177419Y-107124687D02*
X153177419Y-107124687D01*
X154177419Y-106648496D02*
X153177419Y-106648496D01*
X153177419Y-106648496D02*
X153177419Y-106410401D01*
X153177419Y-106410401D02*
X153225038Y-106267544D01*
X153225038Y-106267544D02*
X153320276Y-106172306D01*
X153320276Y-106172306D02*
X153415514Y-106124687D01*
X153415514Y-106124687D02*
X153605990Y-106077068D01*
X153605990Y-106077068D02*
X153748847Y-106077068D01*
X153748847Y-106077068D02*
X153939323Y-106124687D01*
X153939323Y-106124687D02*
X154034561Y-106172306D01*
X154034561Y-106172306D02*
X154129800Y-106267544D01*
X154129800Y-106267544D02*
X154177419Y-106410401D01*
X154177419Y-106410401D02*
X154177419Y-106648496D01*
X156724800Y-60443734D02*
X156772419Y-60300877D01*
X156772419Y-60300877D02*
X156772419Y-60062782D01*
X156772419Y-60062782D02*
X156724800Y-59967544D01*
X156724800Y-59967544D02*
X156677180Y-59919925D01*
X156677180Y-59919925D02*
X156581942Y-59872306D01*
X156581942Y-59872306D02*
X156486704Y-59872306D01*
X156486704Y-59872306D02*
X156391466Y-59919925D01*
X156391466Y-59919925D02*
X156343847Y-59967544D01*
X156343847Y-59967544D02*
X156296228Y-60062782D01*
X156296228Y-60062782D02*
X156248609Y-60253258D01*
X156248609Y-60253258D02*
X156200990Y-60348496D01*
X156200990Y-60348496D02*
X156153371Y-60396115D01*
X156153371Y-60396115D02*
X156058133Y-60443734D01*
X156058133Y-60443734D02*
X155962895Y-60443734D01*
X155962895Y-60443734D02*
X155867657Y-60396115D01*
X155867657Y-60396115D02*
X155820038Y-60348496D01*
X155820038Y-60348496D02*
X155772419Y-60253258D01*
X155772419Y-60253258D02*
X155772419Y-60015163D01*
X155772419Y-60015163D02*
X155820038Y-59872306D01*
X156677180Y-58872306D02*
X156724800Y-58919925D01*
X156724800Y-58919925D02*
X156772419Y-59062782D01*
X156772419Y-59062782D02*
X156772419Y-59158020D01*
X156772419Y-59158020D02*
X156724800Y-59300877D01*
X156724800Y-59300877D02*
X156629561Y-59396115D01*
X156629561Y-59396115D02*
X156534323Y-59443734D01*
X156534323Y-59443734D02*
X156343847Y-59491353D01*
X156343847Y-59491353D02*
X156200990Y-59491353D01*
X156200990Y-59491353D02*
X156010514Y-59443734D01*
X156010514Y-59443734D02*
X155915276Y-59396115D01*
X155915276Y-59396115D02*
X155820038Y-59300877D01*
X155820038Y-59300877D02*
X155772419Y-59158020D01*
X155772419Y-59158020D02*
X155772419Y-59062782D01*
X155772419Y-59062782D02*
X155820038Y-58919925D01*
X155820038Y-58919925D02*
X155867657Y-58872306D01*
X156772419Y-57967544D02*
X156772419Y-58443734D01*
X156772419Y-58443734D02*
X155772419Y-58443734D01*
X156503884Y-53572419D02*
X156503884Y-52572419D01*
X156932455Y-52667657D02*
X156980074Y-52620038D01*
X156980074Y-52620038D02*
X157075312Y-52572419D01*
X157075312Y-52572419D02*
X157313407Y-52572419D01*
X157313407Y-52572419D02*
X157408645Y-52620038D01*
X157408645Y-52620038D02*
X157456264Y-52667657D01*
X157456264Y-52667657D02*
X157503883Y-52762895D01*
X157503883Y-52762895D02*
X157503883Y-52858133D01*
X157503883Y-52858133D02*
X157456264Y-53000990D01*
X157456264Y-53000990D02*
X156884836Y-53572419D01*
X156884836Y-53572419D02*
X157503883Y-53572419D01*
X158503883Y-53477180D02*
X158456264Y-53524800D01*
X158456264Y-53524800D02*
X158313407Y-53572419D01*
X158313407Y-53572419D02*
X158218169Y-53572419D01*
X158218169Y-53572419D02*
X158075312Y-53524800D01*
X158075312Y-53524800D02*
X157980074Y-53429561D01*
X157980074Y-53429561D02*
X157932455Y-53334323D01*
X157932455Y-53334323D02*
X157884836Y-53143847D01*
X157884836Y-53143847D02*
X157884836Y-53000990D01*
X157884836Y-53000990D02*
X157932455Y-52810514D01*
X157932455Y-52810514D02*
X157980074Y-52715276D01*
X157980074Y-52715276D02*
X158075312Y-52620038D01*
X158075312Y-52620038D02*
X158218169Y-52572419D01*
X158218169Y-52572419D02*
X158313407Y-52572419D01*
X158313407Y-52572419D02*
X158456264Y-52620038D01*
X158456264Y-52620038D02*
X158503883Y-52667657D01*
X180503884Y-143472419D02*
X180503884Y-142472419D01*
X180503884Y-142472419D02*
X180741979Y-142472419D01*
X180741979Y-142472419D02*
X180884836Y-142520038D01*
X180884836Y-142520038D02*
X180980074Y-142615276D01*
X180980074Y-142615276D02*
X181027693Y-142710514D01*
X181027693Y-142710514D02*
X181075312Y-142900990D01*
X181075312Y-142900990D02*
X181075312Y-143043847D01*
X181075312Y-143043847D02*
X181027693Y-143234323D01*
X181027693Y-143234323D02*
X180980074Y-143329561D01*
X180980074Y-143329561D02*
X180884836Y-143424800D01*
X180884836Y-143424800D02*
X180741979Y-143472419D01*
X180741979Y-143472419D02*
X180503884Y-143472419D01*
X181694360Y-142472419D02*
X181884836Y-142472419D01*
X181884836Y-142472419D02*
X181980074Y-142520038D01*
X181980074Y-142520038D02*
X182075312Y-142615276D01*
X182075312Y-142615276D02*
X182122931Y-142805752D01*
X182122931Y-142805752D02*
X182122931Y-143139085D01*
X182122931Y-143139085D02*
X182075312Y-143329561D01*
X182075312Y-143329561D02*
X181980074Y-143424800D01*
X181980074Y-143424800D02*
X181884836Y-143472419D01*
X181884836Y-143472419D02*
X181694360Y-143472419D01*
X181694360Y-143472419D02*
X181599122Y-143424800D01*
X181599122Y-143424800D02*
X181503884Y-143329561D01*
X181503884Y-143329561D02*
X181456265Y-143139085D01*
X181456265Y-143139085D02*
X181456265Y-142805752D01*
X181456265Y-142805752D02*
X181503884Y-142615276D01*
X181503884Y-142615276D02*
X181599122Y-142520038D01*
X181599122Y-142520038D02*
X181694360Y-142472419D01*
X182456265Y-142472419D02*
X182694360Y-143472419D01*
X182694360Y-143472419D02*
X182884836Y-142758133D01*
X182884836Y-142758133D02*
X183075312Y-143472419D01*
X183075312Y-143472419D02*
X183313408Y-142472419D01*
X183694360Y-143472419D02*
X183694360Y-142472419D01*
X183694360Y-142472419D02*
X184265788Y-143472419D01*
X184265788Y-143472419D02*
X184265788Y-142472419D01*
X154024800Y-60343734D02*
X154072419Y-60200877D01*
X154072419Y-60200877D02*
X154072419Y-59962782D01*
X154072419Y-59962782D02*
X154024800Y-59867544D01*
X154024800Y-59867544D02*
X153977180Y-59819925D01*
X153977180Y-59819925D02*
X153881942Y-59772306D01*
X153881942Y-59772306D02*
X153786704Y-59772306D01*
X153786704Y-59772306D02*
X153691466Y-59819925D01*
X153691466Y-59819925D02*
X153643847Y-59867544D01*
X153643847Y-59867544D02*
X153596228Y-59962782D01*
X153596228Y-59962782D02*
X153548609Y-60153258D01*
X153548609Y-60153258D02*
X153500990Y-60248496D01*
X153500990Y-60248496D02*
X153453371Y-60296115D01*
X153453371Y-60296115D02*
X153358133Y-60343734D01*
X153358133Y-60343734D02*
X153262895Y-60343734D01*
X153262895Y-60343734D02*
X153167657Y-60296115D01*
X153167657Y-60296115D02*
X153120038Y-60248496D01*
X153120038Y-60248496D02*
X153072419Y-60153258D01*
X153072419Y-60153258D02*
X153072419Y-59915163D01*
X153072419Y-59915163D02*
X153120038Y-59772306D01*
X154072419Y-59343734D02*
X153072419Y-59343734D01*
X153072419Y-59343734D02*
X153072419Y-59105639D01*
X153072419Y-59105639D02*
X153120038Y-58962782D01*
X153120038Y-58962782D02*
X153215276Y-58867544D01*
X153215276Y-58867544D02*
X153310514Y-58819925D01*
X153310514Y-58819925D02*
X153500990Y-58772306D01*
X153500990Y-58772306D02*
X153643847Y-58772306D01*
X153643847Y-58772306D02*
X153834323Y-58819925D01*
X153834323Y-58819925D02*
X153929561Y-58867544D01*
X153929561Y-58867544D02*
X154024800Y-58962782D01*
X154024800Y-58962782D02*
X154072419Y-59105639D01*
X154072419Y-59105639D02*
X154072419Y-59343734D01*
X153786704Y-58391353D02*
X153786704Y-57915163D01*
X154072419Y-58486591D02*
X153072419Y-58153258D01*
X153072419Y-58153258D02*
X154072419Y-57819925D01*
X135988133Y-137458020D02*
X135988133Y-135934211D01*
X136750038Y-136696115D02*
X135226228Y-136696115D01*
X155461265Y-101824800D02*
X155604122Y-101872419D01*
X155604122Y-101872419D02*
X155842217Y-101872419D01*
X155842217Y-101872419D02*
X155937455Y-101824800D01*
X155937455Y-101824800D02*
X155985074Y-101777180D01*
X155985074Y-101777180D02*
X156032693Y-101681942D01*
X156032693Y-101681942D02*
X156032693Y-101586704D01*
X156032693Y-101586704D02*
X155985074Y-101491466D01*
X155985074Y-101491466D02*
X155937455Y-101443847D01*
X155937455Y-101443847D02*
X155842217Y-101396228D01*
X155842217Y-101396228D02*
X155651741Y-101348609D01*
X155651741Y-101348609D02*
X155556503Y-101300990D01*
X155556503Y-101300990D02*
X155508884Y-101253371D01*
X155508884Y-101253371D02*
X155461265Y-101158133D01*
X155461265Y-101158133D02*
X155461265Y-101062895D01*
X155461265Y-101062895D02*
X155508884Y-100967657D01*
X155508884Y-100967657D02*
X155556503Y-100920038D01*
X155556503Y-100920038D02*
X155651741Y-100872419D01*
X155651741Y-100872419D02*
X155889836Y-100872419D01*
X155889836Y-100872419D02*
X156032693Y-100920038D01*
X156366027Y-100872419D02*
X156604122Y-101872419D01*
X156604122Y-101872419D02*
X156794598Y-101158133D01*
X156794598Y-101158133D02*
X156985074Y-101872419D01*
X156985074Y-101872419D02*
X157223170Y-100872419D01*
X157604122Y-101872419D02*
X157604122Y-100872419D01*
X157937455Y-100872419D02*
X158508883Y-100872419D01*
X158223169Y-101872419D02*
X158223169Y-100872419D01*
X159413645Y-101777180D02*
X159366026Y-101824800D01*
X159366026Y-101824800D02*
X159223169Y-101872419D01*
X159223169Y-101872419D02*
X159127931Y-101872419D01*
X159127931Y-101872419D02*
X158985074Y-101824800D01*
X158985074Y-101824800D02*
X158889836Y-101729561D01*
X158889836Y-101729561D02*
X158842217Y-101634323D01*
X158842217Y-101634323D02*
X158794598Y-101443847D01*
X158794598Y-101443847D02*
X158794598Y-101300990D01*
X158794598Y-101300990D02*
X158842217Y-101110514D01*
X158842217Y-101110514D02*
X158889836Y-101015276D01*
X158889836Y-101015276D02*
X158985074Y-100920038D01*
X158985074Y-100920038D02*
X159127931Y-100872419D01*
X159127931Y-100872419D02*
X159223169Y-100872419D01*
X159223169Y-100872419D02*
X159366026Y-100920038D01*
X159366026Y-100920038D02*
X159413645Y-100967657D01*
X159842217Y-101872419D02*
X159842217Y-100872419D01*
X159842217Y-101348609D02*
X160413645Y-101348609D01*
X160413645Y-101872419D02*
X160413645Y-100872419D01*
X160889836Y-101348609D02*
X161223169Y-101348609D01*
X161366026Y-101872419D02*
X160889836Y-101872419D01*
X160889836Y-101872419D02*
X160889836Y-100872419D01*
X160889836Y-100872419D02*
X161366026Y-100872419D01*
X161746979Y-101824800D02*
X161889836Y-101872419D01*
X161889836Y-101872419D02*
X162127931Y-101872419D01*
X162127931Y-101872419D02*
X162223169Y-101824800D01*
X162223169Y-101824800D02*
X162270788Y-101777180D01*
X162270788Y-101777180D02*
X162318407Y-101681942D01*
X162318407Y-101681942D02*
X162318407Y-101586704D01*
X162318407Y-101586704D02*
X162270788Y-101491466D01*
X162270788Y-101491466D02*
X162223169Y-101443847D01*
X162223169Y-101443847D02*
X162127931Y-101396228D01*
X162127931Y-101396228D02*
X161937455Y-101348609D01*
X161937455Y-101348609D02*
X161842217Y-101300990D01*
X161842217Y-101300990D02*
X161794598Y-101253371D01*
X161794598Y-101253371D02*
X161746979Y-101158133D01*
X161746979Y-101158133D02*
X161746979Y-101062895D01*
X161746979Y-101062895D02*
X161794598Y-100967657D01*
X161794598Y-100967657D02*
X161842217Y-100920038D01*
X161842217Y-100920038D02*
X161937455Y-100872419D01*
X161937455Y-100872419D02*
X162175550Y-100872419D01*
X162175550Y-100872419D02*
X162318407Y-100920038D01*
X138972419Y-138696115D02*
X137972419Y-138696115D01*
X138448609Y-138696115D02*
X138448609Y-138124687D01*
X138972419Y-138124687D02*
X137972419Y-138124687D01*
X138972419Y-137648496D02*
X137972419Y-137648496D01*
X138020038Y-136648497D02*
X137972419Y-136743735D01*
X137972419Y-136743735D02*
X137972419Y-136886592D01*
X137972419Y-136886592D02*
X138020038Y-137029449D01*
X138020038Y-137029449D02*
X138115276Y-137124687D01*
X138115276Y-137124687D02*
X138210514Y-137172306D01*
X138210514Y-137172306D02*
X138400990Y-137219925D01*
X138400990Y-137219925D02*
X138543847Y-137219925D01*
X138543847Y-137219925D02*
X138734323Y-137172306D01*
X138734323Y-137172306D02*
X138829561Y-137124687D01*
X138829561Y-137124687D02*
X138924800Y-137029449D01*
X138924800Y-137029449D02*
X138972419Y-136886592D01*
X138972419Y-136886592D02*
X138972419Y-136791354D01*
X138972419Y-136791354D02*
X138924800Y-136648497D01*
X138924800Y-136648497D02*
X138877180Y-136600878D01*
X138877180Y-136600878D02*
X138543847Y-136600878D01*
X138543847Y-136600878D02*
X138543847Y-136791354D01*
X138972419Y-136172306D02*
X137972419Y-136172306D01*
X138448609Y-136172306D02*
X138448609Y-135600878D01*
X138972419Y-135600878D02*
X137972419Y-135600878D01*
X138877180Y-133791354D02*
X138924800Y-133838973D01*
X138924800Y-133838973D02*
X138972419Y-133981830D01*
X138972419Y-133981830D02*
X138972419Y-134077068D01*
X138972419Y-134077068D02*
X138924800Y-134219925D01*
X138924800Y-134219925D02*
X138829561Y-134315163D01*
X138829561Y-134315163D02*
X138734323Y-134362782D01*
X138734323Y-134362782D02*
X138543847Y-134410401D01*
X138543847Y-134410401D02*
X138400990Y-134410401D01*
X138400990Y-134410401D02*
X138210514Y-134362782D01*
X138210514Y-134362782D02*
X138115276Y-134315163D01*
X138115276Y-134315163D02*
X138020038Y-134219925D01*
X138020038Y-134219925D02*
X137972419Y-134077068D01*
X137972419Y-134077068D02*
X137972419Y-133981830D01*
X137972419Y-133981830D02*
X138020038Y-133838973D01*
X138020038Y-133838973D02*
X138067657Y-133791354D01*
X137972419Y-133362782D02*
X138781942Y-133362782D01*
X138781942Y-133362782D02*
X138877180Y-133315163D01*
X138877180Y-133315163D02*
X138924800Y-133267544D01*
X138924800Y-133267544D02*
X138972419Y-133172306D01*
X138972419Y-133172306D02*
X138972419Y-132981830D01*
X138972419Y-132981830D02*
X138924800Y-132886592D01*
X138924800Y-132886592D02*
X138877180Y-132838973D01*
X138877180Y-132838973D02*
X138781942Y-132791354D01*
X138781942Y-132791354D02*
X137972419Y-132791354D01*
X138972419Y-131743735D02*
X138496228Y-132077068D01*
X138972419Y-132315163D02*
X137972419Y-132315163D01*
X137972419Y-132315163D02*
X137972419Y-131934211D01*
X137972419Y-131934211D02*
X138020038Y-131838973D01*
X138020038Y-131838973D02*
X138067657Y-131791354D01*
X138067657Y-131791354D02*
X138162895Y-131743735D01*
X138162895Y-131743735D02*
X138305752Y-131743735D01*
X138305752Y-131743735D02*
X138400990Y-131791354D01*
X138400990Y-131791354D02*
X138448609Y-131838973D01*
X138448609Y-131838973D02*
X138496228Y-131934211D01*
X138496228Y-131934211D02*
X138496228Y-132315163D01*
X138972419Y-130743735D02*
X138496228Y-131077068D01*
X138972419Y-131315163D02*
X137972419Y-131315163D01*
X137972419Y-131315163D02*
X137972419Y-130934211D01*
X137972419Y-130934211D02*
X138020038Y-130838973D01*
X138020038Y-130838973D02*
X138067657Y-130791354D01*
X138067657Y-130791354D02*
X138162895Y-130743735D01*
X138162895Y-130743735D02*
X138305752Y-130743735D01*
X138305752Y-130743735D02*
X138400990Y-130791354D01*
X138400990Y-130791354D02*
X138448609Y-130838973D01*
X138448609Y-130838973D02*
X138496228Y-130934211D01*
X138496228Y-130934211D02*
X138496228Y-131315163D01*
X138448609Y-130315163D02*
X138448609Y-129981830D01*
X138972419Y-129838973D02*
X138972419Y-130315163D01*
X138972419Y-130315163D02*
X137972419Y-130315163D01*
X137972419Y-130315163D02*
X137972419Y-129838973D01*
X138972419Y-129410401D02*
X137972419Y-129410401D01*
X137972419Y-129410401D02*
X138972419Y-128838973D01*
X138972419Y-128838973D02*
X137972419Y-128838973D01*
X137972419Y-128505639D02*
X137972419Y-127934211D01*
X138972419Y-128219925D02*
X137972419Y-128219925D01*
X150825038Y-108372306D02*
X150777419Y-108467544D01*
X150777419Y-108467544D02*
X150777419Y-108610401D01*
X150777419Y-108610401D02*
X150825038Y-108753258D01*
X150825038Y-108753258D02*
X150920276Y-108848496D01*
X150920276Y-108848496D02*
X151015514Y-108896115D01*
X151015514Y-108896115D02*
X151205990Y-108943734D01*
X151205990Y-108943734D02*
X151348847Y-108943734D01*
X151348847Y-108943734D02*
X151539323Y-108896115D01*
X151539323Y-108896115D02*
X151634561Y-108848496D01*
X151634561Y-108848496D02*
X151729800Y-108753258D01*
X151729800Y-108753258D02*
X151777419Y-108610401D01*
X151777419Y-108610401D02*
X151777419Y-108515163D01*
X151777419Y-108515163D02*
X151729800Y-108372306D01*
X151729800Y-108372306D02*
X151682180Y-108324687D01*
X151682180Y-108324687D02*
X151348847Y-108324687D01*
X151348847Y-108324687D02*
X151348847Y-108515163D01*
X151777419Y-107896115D02*
X150777419Y-107896115D01*
X150777419Y-107896115D02*
X151777419Y-107324687D01*
X151777419Y-107324687D02*
X150777419Y-107324687D01*
X151777419Y-106848496D02*
X150777419Y-106848496D01*
X150777419Y-106848496D02*
X150777419Y-106610401D01*
X150777419Y-106610401D02*
X150825038Y-106467544D01*
X150825038Y-106467544D02*
X150920276Y-106372306D01*
X150920276Y-106372306D02*
X151015514Y-106324687D01*
X151015514Y-106324687D02*
X151205990Y-106277068D01*
X151205990Y-106277068D02*
X151348847Y-106277068D01*
X151348847Y-106277068D02*
X151539323Y-106324687D01*
X151539323Y-106324687D02*
X151634561Y-106372306D01*
X151634561Y-106372306D02*
X151729800Y-106467544D01*
X151729800Y-106467544D02*
X151777419Y-106610401D01*
X151777419Y-106610401D02*
X151777419Y-106848496D01*
X148761027Y-148872419D02*
X149332455Y-148872419D01*
X149046741Y-149872419D02*
X149046741Y-148872419D01*
X149665789Y-149872419D02*
X149665789Y-148872419D01*
X149665789Y-149348609D02*
X150237217Y-149348609D01*
X150237217Y-149872419D02*
X150237217Y-148872419D01*
X150713408Y-149348609D02*
X151046741Y-149348609D01*
X151189598Y-149872419D02*
X150713408Y-149872419D01*
X150713408Y-149872419D02*
X150713408Y-148872419D01*
X150713408Y-148872419D02*
X151189598Y-148872419D01*
X152189598Y-149872419D02*
X151856265Y-149396228D01*
X151618170Y-149872419D02*
X151618170Y-148872419D01*
X151618170Y-148872419D02*
X151999122Y-148872419D01*
X151999122Y-148872419D02*
X152094360Y-148920038D01*
X152094360Y-148920038D02*
X152141979Y-148967657D01*
X152141979Y-148967657D02*
X152189598Y-149062895D01*
X152189598Y-149062895D02*
X152189598Y-149205752D01*
X152189598Y-149205752D02*
X152141979Y-149300990D01*
X152141979Y-149300990D02*
X152094360Y-149348609D01*
X152094360Y-149348609D02*
X151999122Y-149396228D01*
X151999122Y-149396228D02*
X151618170Y-149396228D01*
X152618170Y-149872419D02*
X152618170Y-148872419D01*
X152618170Y-148872419D02*
X152951503Y-149586704D01*
X152951503Y-149586704D02*
X153284836Y-148872419D01*
X153284836Y-148872419D02*
X153284836Y-149872419D01*
X153713408Y-149586704D02*
X154189598Y-149586704D01*
X153618170Y-149872419D02*
X153951503Y-148872419D01*
X153951503Y-148872419D02*
X154284836Y-149872419D01*
X155094360Y-149872419D02*
X154618170Y-149872419D01*
X154618170Y-149872419D02*
X154618170Y-148872419D01*
X156189599Y-149872419D02*
X156189599Y-148872419D01*
X156189599Y-148872419D02*
X156570551Y-148872419D01*
X156570551Y-148872419D02*
X156665789Y-148920038D01*
X156665789Y-148920038D02*
X156713408Y-148967657D01*
X156713408Y-148967657D02*
X156761027Y-149062895D01*
X156761027Y-149062895D02*
X156761027Y-149205752D01*
X156761027Y-149205752D02*
X156713408Y-149300990D01*
X156713408Y-149300990D02*
X156665789Y-149348609D01*
X156665789Y-149348609D02*
X156570551Y-149396228D01*
X156570551Y-149396228D02*
X156189599Y-149396228D01*
X157141980Y-149586704D02*
X157618170Y-149586704D01*
X157046742Y-149872419D02*
X157380075Y-148872419D01*
X157380075Y-148872419D02*
X157713408Y-149872419D01*
X157999123Y-149824800D02*
X158141980Y-149872419D01*
X158141980Y-149872419D02*
X158380075Y-149872419D01*
X158380075Y-149872419D02*
X158475313Y-149824800D01*
X158475313Y-149824800D02*
X158522932Y-149777180D01*
X158522932Y-149777180D02*
X158570551Y-149681942D01*
X158570551Y-149681942D02*
X158570551Y-149586704D01*
X158570551Y-149586704D02*
X158522932Y-149491466D01*
X158522932Y-149491466D02*
X158475313Y-149443847D01*
X158475313Y-149443847D02*
X158380075Y-149396228D01*
X158380075Y-149396228D02*
X158189599Y-149348609D01*
X158189599Y-149348609D02*
X158094361Y-149300990D01*
X158094361Y-149300990D02*
X158046742Y-149253371D01*
X158046742Y-149253371D02*
X157999123Y-149158133D01*
X157999123Y-149158133D02*
X157999123Y-149062895D01*
X157999123Y-149062895D02*
X158046742Y-148967657D01*
X158046742Y-148967657D02*
X158094361Y-148920038D01*
X158094361Y-148920038D02*
X158189599Y-148872419D01*
X158189599Y-148872419D02*
X158427694Y-148872419D01*
X158427694Y-148872419D02*
X158570551Y-148920038D01*
X158856266Y-148872419D02*
X159427694Y-148872419D01*
X159141980Y-149872419D02*
X159141980Y-148872419D01*
X159761028Y-149348609D02*
X160094361Y-149348609D01*
X160237218Y-149872419D02*
X159761028Y-149872419D01*
X159761028Y-149872419D02*
X159761028Y-148872419D01*
X159761028Y-148872419D02*
X160237218Y-148872419D01*
X161380076Y-149586704D02*
X161856266Y-149586704D01*
X161284838Y-149872419D02*
X161618171Y-148872419D01*
X161618171Y-148872419D02*
X161951504Y-149872419D01*
X162856266Y-149872419D02*
X162522933Y-149396228D01*
X162284838Y-149872419D02*
X162284838Y-148872419D01*
X162284838Y-148872419D02*
X162665790Y-148872419D01*
X162665790Y-148872419D02*
X162761028Y-148920038D01*
X162761028Y-148920038D02*
X162808647Y-148967657D01*
X162808647Y-148967657D02*
X162856266Y-149062895D01*
X162856266Y-149062895D02*
X162856266Y-149205752D01*
X162856266Y-149205752D02*
X162808647Y-149300990D01*
X162808647Y-149300990D02*
X162761028Y-149348609D01*
X162761028Y-149348609D02*
X162665790Y-149396228D01*
X162665790Y-149396228D02*
X162284838Y-149396228D01*
X163284838Y-149348609D02*
X163618171Y-149348609D01*
X163761028Y-149872419D02*
X163284838Y-149872419D01*
X163284838Y-149872419D02*
X163284838Y-148872419D01*
X163284838Y-148872419D02*
X163761028Y-148872419D01*
X164141981Y-149586704D02*
X164618171Y-149586704D01*
X164046743Y-149872419D02*
X164380076Y-148872419D01*
X164380076Y-148872419D02*
X164713409Y-149872419D01*
X178072419Y-149705639D02*
X178072419Y-149515163D01*
X178072419Y-149515163D02*
X178120038Y-149419925D01*
X178120038Y-149419925D02*
X178215276Y-149324687D01*
X178215276Y-149324687D02*
X178405752Y-149277068D01*
X178405752Y-149277068D02*
X178739085Y-149277068D01*
X178739085Y-149277068D02*
X178929561Y-149324687D01*
X178929561Y-149324687D02*
X179024800Y-149419925D01*
X179024800Y-149419925D02*
X179072419Y-149515163D01*
X179072419Y-149515163D02*
X179072419Y-149705639D01*
X179072419Y-149705639D02*
X179024800Y-149800877D01*
X179024800Y-149800877D02*
X178929561Y-149896115D01*
X178929561Y-149896115D02*
X178739085Y-149943734D01*
X178739085Y-149943734D02*
X178405752Y-149943734D01*
X178405752Y-149943734D02*
X178215276Y-149896115D01*
X178215276Y-149896115D02*
X178120038Y-149800877D01*
X178120038Y-149800877D02*
X178072419Y-149705639D01*
X178072419Y-148848496D02*
X178881942Y-148848496D01*
X178881942Y-148848496D02*
X178977180Y-148800877D01*
X178977180Y-148800877D02*
X179024800Y-148753258D01*
X179024800Y-148753258D02*
X179072419Y-148658020D01*
X179072419Y-148658020D02*
X179072419Y-148467544D01*
X179072419Y-148467544D02*
X179024800Y-148372306D01*
X179024800Y-148372306D02*
X178977180Y-148324687D01*
X178977180Y-148324687D02*
X178881942Y-148277068D01*
X178881942Y-148277068D02*
X178072419Y-148277068D01*
X178072419Y-147943734D02*
X178072419Y-147372306D01*
X179072419Y-147658020D02*
X178072419Y-147658020D01*
X179072419Y-147038972D02*
X178072419Y-147038972D01*
X178072419Y-147038972D02*
X178072419Y-146658020D01*
X178072419Y-146658020D02*
X178120038Y-146562782D01*
X178120038Y-146562782D02*
X178167657Y-146515163D01*
X178167657Y-146515163D02*
X178262895Y-146467544D01*
X178262895Y-146467544D02*
X178405752Y-146467544D01*
X178405752Y-146467544D02*
X178500990Y-146515163D01*
X178500990Y-146515163D02*
X178548609Y-146562782D01*
X178548609Y-146562782D02*
X178596228Y-146658020D01*
X178596228Y-146658020D02*
X178596228Y-147038972D01*
X178072419Y-146038972D02*
X178881942Y-146038972D01*
X178881942Y-146038972D02*
X178977180Y-145991353D01*
X178977180Y-145991353D02*
X179024800Y-145943734D01*
X179024800Y-145943734D02*
X179072419Y-145848496D01*
X179072419Y-145848496D02*
X179072419Y-145658020D01*
X179072419Y-145658020D02*
X179024800Y-145562782D01*
X179024800Y-145562782D02*
X178977180Y-145515163D01*
X178977180Y-145515163D02*
X178881942Y-145467544D01*
X178881942Y-145467544D02*
X178072419Y-145467544D01*
X178072419Y-145134210D02*
X178072419Y-144562782D01*
X179072419Y-144848496D02*
X178072419Y-144848496D01*
X179072419Y-143467543D02*
X178072419Y-143467543D01*
X178072419Y-143467543D02*
X178072419Y-143229448D01*
X178072419Y-143229448D02*
X178120038Y-143086591D01*
X178120038Y-143086591D02*
X178215276Y-142991353D01*
X178215276Y-142991353D02*
X178310514Y-142943734D01*
X178310514Y-142943734D02*
X178500990Y-142896115D01*
X178500990Y-142896115D02*
X178643847Y-142896115D01*
X178643847Y-142896115D02*
X178834323Y-142943734D01*
X178834323Y-142943734D02*
X178929561Y-142991353D01*
X178929561Y-142991353D02*
X179024800Y-143086591D01*
X179024800Y-143086591D02*
X179072419Y-143229448D01*
X179072419Y-143229448D02*
X179072419Y-143467543D01*
X179072419Y-141896115D02*
X178596228Y-142229448D01*
X179072419Y-142467543D02*
X178072419Y-142467543D01*
X178072419Y-142467543D02*
X178072419Y-142086591D01*
X178072419Y-142086591D02*
X178120038Y-141991353D01*
X178120038Y-141991353D02*
X178167657Y-141943734D01*
X178167657Y-141943734D02*
X178262895Y-141896115D01*
X178262895Y-141896115D02*
X178405752Y-141896115D01*
X178405752Y-141896115D02*
X178500990Y-141943734D01*
X178500990Y-141943734D02*
X178548609Y-141991353D01*
X178548609Y-141991353D02*
X178596228Y-142086591D01*
X178596228Y-142086591D02*
X178596228Y-142467543D01*
X179072419Y-141467543D02*
X178072419Y-141467543D01*
X178072419Y-141134210D02*
X179072419Y-140800877D01*
X179072419Y-140800877D02*
X178072419Y-140467544D01*
X178548609Y-140134210D02*
X178548609Y-139800877D01*
X179072419Y-139658020D02*
X179072419Y-140134210D01*
X179072419Y-140134210D02*
X178072419Y-140134210D01*
X178072419Y-140134210D02*
X178072419Y-139658020D01*
X179072419Y-138658020D02*
X178596228Y-138991353D01*
X179072419Y-139229448D02*
X178072419Y-139229448D01*
X178072419Y-139229448D02*
X178072419Y-138848496D01*
X178072419Y-138848496D02*
X178120038Y-138753258D01*
X178120038Y-138753258D02*
X178167657Y-138705639D01*
X178167657Y-138705639D02*
X178262895Y-138658020D01*
X178262895Y-138658020D02*
X178405752Y-138658020D01*
X178405752Y-138658020D02*
X178500990Y-138705639D01*
X178500990Y-138705639D02*
X178548609Y-138753258D01*
X178548609Y-138753258D02*
X178596228Y-138848496D01*
X178596228Y-138848496D02*
X178596228Y-139229448D01*
X158572419Y-59119925D02*
X158572419Y-59596115D01*
X158572419Y-59596115D02*
X159048609Y-59643734D01*
X159048609Y-59643734D02*
X159000990Y-59596115D01*
X159000990Y-59596115D02*
X158953371Y-59500877D01*
X158953371Y-59500877D02*
X158953371Y-59262782D01*
X158953371Y-59262782D02*
X159000990Y-59167544D01*
X159000990Y-59167544D02*
X159048609Y-59119925D01*
X159048609Y-59119925D02*
X159143847Y-59072306D01*
X159143847Y-59072306D02*
X159381942Y-59072306D01*
X159381942Y-59072306D02*
X159477180Y-59119925D01*
X159477180Y-59119925D02*
X159524800Y-59167544D01*
X159524800Y-59167544D02*
X159572419Y-59262782D01*
X159572419Y-59262782D02*
X159572419Y-59500877D01*
X159572419Y-59500877D02*
X159524800Y-59596115D01*
X159524800Y-59596115D02*
X159477180Y-59643734D01*
X158572419Y-58786591D02*
X159572419Y-58453258D01*
X159572419Y-58453258D02*
X158572419Y-58119925D01*
X149741027Y-65672419D02*
X150074360Y-66672419D01*
X150074360Y-66672419D02*
X150407693Y-65672419D01*
X150931503Y-65672419D02*
X151121979Y-65672419D01*
X151121979Y-65672419D02*
X151217217Y-65720038D01*
X151217217Y-65720038D02*
X151312455Y-65815276D01*
X151312455Y-65815276D02*
X151360074Y-66005752D01*
X151360074Y-66005752D02*
X151360074Y-66339085D01*
X151360074Y-66339085D02*
X151312455Y-66529561D01*
X151312455Y-66529561D02*
X151217217Y-66624800D01*
X151217217Y-66624800D02*
X151121979Y-66672419D01*
X151121979Y-66672419D02*
X150931503Y-66672419D01*
X150931503Y-66672419D02*
X150836265Y-66624800D01*
X150836265Y-66624800D02*
X150741027Y-66529561D01*
X150741027Y-66529561D02*
X150693408Y-66339085D01*
X150693408Y-66339085D02*
X150693408Y-66005752D01*
X150693408Y-66005752D02*
X150741027Y-65815276D01*
X150741027Y-65815276D02*
X150836265Y-65720038D01*
X150836265Y-65720038D02*
X150931503Y-65672419D01*
X152264836Y-66672419D02*
X151788646Y-66672419D01*
X151788646Y-66672419D02*
X151788646Y-65672419D01*
X152455313Y-65672419D02*
X153026741Y-65672419D01*
X152741027Y-66672419D02*
X152741027Y-65672419D01*
X153312456Y-66386704D02*
X153788646Y-66386704D01*
X153217218Y-66672419D02*
X153550551Y-65672419D01*
X153550551Y-65672419D02*
X153883884Y-66672419D01*
X154741027Y-65720038D02*
X154645789Y-65672419D01*
X154645789Y-65672419D02*
X154502932Y-65672419D01*
X154502932Y-65672419D02*
X154360075Y-65720038D01*
X154360075Y-65720038D02*
X154264837Y-65815276D01*
X154264837Y-65815276D02*
X154217218Y-65910514D01*
X154217218Y-65910514D02*
X154169599Y-66100990D01*
X154169599Y-66100990D02*
X154169599Y-66243847D01*
X154169599Y-66243847D02*
X154217218Y-66434323D01*
X154217218Y-66434323D02*
X154264837Y-66529561D01*
X154264837Y-66529561D02*
X154360075Y-66624800D01*
X154360075Y-66624800D02*
X154502932Y-66672419D01*
X154502932Y-66672419D02*
X154598170Y-66672419D01*
X154598170Y-66672419D02*
X154741027Y-66624800D01*
X154741027Y-66624800D02*
X154788646Y-66577180D01*
X154788646Y-66577180D02*
X154788646Y-66243847D01*
X154788646Y-66243847D02*
X154598170Y-66243847D01*
X155217218Y-66148609D02*
X155550551Y-66148609D01*
X155693408Y-66672419D02*
X155217218Y-66672419D01*
X155217218Y-66672419D02*
X155217218Y-65672419D01*
X155217218Y-65672419D02*
X155693408Y-65672419D01*
X157217218Y-66148609D02*
X156883885Y-66148609D01*
X156883885Y-66672419D02*
X156883885Y-65672419D01*
X156883885Y-65672419D02*
X157360075Y-65672419D01*
X158312456Y-66672419D02*
X157979123Y-66196228D01*
X157741028Y-66672419D02*
X157741028Y-65672419D01*
X157741028Y-65672419D02*
X158121980Y-65672419D01*
X158121980Y-65672419D02*
X158217218Y-65720038D01*
X158217218Y-65720038D02*
X158264837Y-65767657D01*
X158264837Y-65767657D02*
X158312456Y-65862895D01*
X158312456Y-65862895D02*
X158312456Y-66005752D01*
X158312456Y-66005752D02*
X158264837Y-66100990D01*
X158264837Y-66100990D02*
X158217218Y-66148609D01*
X158217218Y-66148609D02*
X158121980Y-66196228D01*
X158121980Y-66196228D02*
X157741028Y-66196228D01*
X158931504Y-65672419D02*
X159121980Y-65672419D01*
X159121980Y-65672419D02*
X159217218Y-65720038D01*
X159217218Y-65720038D02*
X159312456Y-65815276D01*
X159312456Y-65815276D02*
X159360075Y-66005752D01*
X159360075Y-66005752D02*
X159360075Y-66339085D01*
X159360075Y-66339085D02*
X159312456Y-66529561D01*
X159312456Y-66529561D02*
X159217218Y-66624800D01*
X159217218Y-66624800D02*
X159121980Y-66672419D01*
X159121980Y-66672419D02*
X158931504Y-66672419D01*
X158931504Y-66672419D02*
X158836266Y-66624800D01*
X158836266Y-66624800D02*
X158741028Y-66529561D01*
X158741028Y-66529561D02*
X158693409Y-66339085D01*
X158693409Y-66339085D02*
X158693409Y-66005752D01*
X158693409Y-66005752D02*
X158741028Y-65815276D01*
X158741028Y-65815276D02*
X158836266Y-65720038D01*
X158836266Y-65720038D02*
X158931504Y-65672419D01*
X159788647Y-66672419D02*
X159788647Y-65672419D01*
X159788647Y-65672419D02*
X160121980Y-66386704D01*
X160121980Y-66386704D02*
X160455313Y-65672419D01*
X160455313Y-65672419D02*
X160455313Y-66672419D01*
X161693409Y-66672419D02*
X161693409Y-65672419D01*
X161693409Y-65672419D02*
X162074361Y-65672419D01*
X162074361Y-65672419D02*
X162169599Y-65720038D01*
X162169599Y-65720038D02*
X162217218Y-65767657D01*
X162217218Y-65767657D02*
X162264837Y-65862895D01*
X162264837Y-65862895D02*
X162264837Y-66005752D01*
X162264837Y-66005752D02*
X162217218Y-66100990D01*
X162217218Y-66100990D02*
X162169599Y-66148609D01*
X162169599Y-66148609D02*
X162074361Y-66196228D01*
X162074361Y-66196228D02*
X161693409Y-66196228D01*
X162883885Y-65672419D02*
X163074361Y-65672419D01*
X163074361Y-65672419D02*
X163169599Y-65720038D01*
X163169599Y-65720038D02*
X163264837Y-65815276D01*
X163264837Y-65815276D02*
X163312456Y-66005752D01*
X163312456Y-66005752D02*
X163312456Y-66339085D01*
X163312456Y-66339085D02*
X163264837Y-66529561D01*
X163264837Y-66529561D02*
X163169599Y-66624800D01*
X163169599Y-66624800D02*
X163074361Y-66672419D01*
X163074361Y-66672419D02*
X162883885Y-66672419D01*
X162883885Y-66672419D02*
X162788647Y-66624800D01*
X162788647Y-66624800D02*
X162693409Y-66529561D01*
X162693409Y-66529561D02*
X162645790Y-66339085D01*
X162645790Y-66339085D02*
X162645790Y-66005752D01*
X162645790Y-66005752D02*
X162693409Y-65815276D01*
X162693409Y-65815276D02*
X162788647Y-65720038D01*
X162788647Y-65720038D02*
X162883885Y-65672419D01*
X163598171Y-65672419D02*
X164169599Y-65672419D01*
X163883885Y-66672419D02*
X163883885Y-65672419D01*
X164455314Y-66624800D02*
X164598171Y-66672419D01*
X164598171Y-66672419D02*
X164836266Y-66672419D01*
X164836266Y-66672419D02*
X164931504Y-66624800D01*
X164931504Y-66624800D02*
X164979123Y-66577180D01*
X164979123Y-66577180D02*
X165026742Y-66481942D01*
X165026742Y-66481942D02*
X165026742Y-66386704D01*
X165026742Y-66386704D02*
X164979123Y-66291466D01*
X164979123Y-66291466D02*
X164931504Y-66243847D01*
X164931504Y-66243847D02*
X164836266Y-66196228D01*
X164836266Y-66196228D02*
X164645790Y-66148609D01*
X164645790Y-66148609D02*
X164550552Y-66100990D01*
X164550552Y-66100990D02*
X164502933Y-66053371D01*
X164502933Y-66053371D02*
X164455314Y-65958133D01*
X164455314Y-65958133D02*
X164455314Y-65862895D01*
X164455314Y-65862895D02*
X164502933Y-65767657D01*
X164502933Y-65767657D02*
X164550552Y-65720038D01*
X164550552Y-65720038D02*
X164645790Y-65672419D01*
X164645790Y-65672419D02*
X164883885Y-65672419D01*
X164883885Y-65672419D02*
X165026742Y-65720038D01*
X163517580Y-106603884D02*
X164517580Y-106603884D01*
X164517580Y-106603884D02*
X164517580Y-106841979D01*
X164517580Y-106841979D02*
X164469961Y-106984836D01*
X164469961Y-106984836D02*
X164374723Y-107080074D01*
X164374723Y-107080074D02*
X164279485Y-107127693D01*
X164279485Y-107127693D02*
X164089009Y-107175312D01*
X164089009Y-107175312D02*
X163946152Y-107175312D01*
X163946152Y-107175312D02*
X163755676Y-107127693D01*
X163755676Y-107127693D02*
X163660438Y-107080074D01*
X163660438Y-107080074D02*
X163565200Y-106984836D01*
X163565200Y-106984836D02*
X163517580Y-106841979D01*
X163517580Y-106841979D02*
X163517580Y-106603884D01*
X164517580Y-107794360D02*
X164517580Y-107984836D01*
X164517580Y-107984836D02*
X164469961Y-108080074D01*
X164469961Y-108080074D02*
X164374723Y-108175312D01*
X164374723Y-108175312D02*
X164184247Y-108222931D01*
X164184247Y-108222931D02*
X163850914Y-108222931D01*
X163850914Y-108222931D02*
X163660438Y-108175312D01*
X163660438Y-108175312D02*
X163565200Y-108080074D01*
X163565200Y-108080074D02*
X163517580Y-107984836D01*
X163517580Y-107984836D02*
X163517580Y-107794360D01*
X163517580Y-107794360D02*
X163565200Y-107699122D01*
X163565200Y-107699122D02*
X163660438Y-107603884D01*
X163660438Y-107603884D02*
X163850914Y-107556265D01*
X163850914Y-107556265D02*
X164184247Y-107556265D01*
X164184247Y-107556265D02*
X164374723Y-107603884D01*
X164374723Y-107603884D02*
X164469961Y-107699122D01*
X164469961Y-107699122D02*
X164517580Y-107794360D01*
X164517580Y-108556265D02*
X163517580Y-108794360D01*
X163517580Y-108794360D02*
X164231866Y-108984836D01*
X164231866Y-108984836D02*
X163517580Y-109175312D01*
X163517580Y-109175312D02*
X164517580Y-109413408D01*
X163517580Y-109794360D02*
X164517580Y-109794360D01*
X164517580Y-109794360D02*
X163517580Y-110365788D01*
X163517580Y-110365788D02*
X164517580Y-110365788D01*
X161952419Y-73796115D02*
X160952419Y-73796115D01*
X160952419Y-73796115D02*
X160952419Y-73558020D01*
X160952419Y-73558020D02*
X161000038Y-73415163D01*
X161000038Y-73415163D02*
X161095276Y-73319925D01*
X161095276Y-73319925D02*
X161190514Y-73272306D01*
X161190514Y-73272306D02*
X161380990Y-73224687D01*
X161380990Y-73224687D02*
X161523847Y-73224687D01*
X161523847Y-73224687D02*
X161714323Y-73272306D01*
X161714323Y-73272306D02*
X161809561Y-73319925D01*
X161809561Y-73319925D02*
X161904800Y-73415163D01*
X161904800Y-73415163D02*
X161952419Y-73558020D01*
X161952419Y-73558020D02*
X161952419Y-73796115D01*
X161952419Y-72272306D02*
X161952419Y-72843734D01*
X161952419Y-72558020D02*
X160952419Y-72558020D01*
X160952419Y-72558020D02*
X161095276Y-72653258D01*
X161095276Y-72653258D02*
X161190514Y-72748496D01*
X161190514Y-72748496D02*
X161238133Y-72843734D01*
X160952419Y-71367544D02*
X160952419Y-71843734D01*
X160952419Y-71843734D02*
X161428609Y-71891353D01*
X161428609Y-71891353D02*
X161380990Y-71843734D01*
X161380990Y-71843734D02*
X161333371Y-71748496D01*
X161333371Y-71748496D02*
X161333371Y-71510401D01*
X161333371Y-71510401D02*
X161380990Y-71415163D01*
X161380990Y-71415163D02*
X161428609Y-71367544D01*
X161428609Y-71367544D02*
X161523847Y-71319925D01*
X161523847Y-71319925D02*
X161761942Y-71319925D01*
X161761942Y-71319925D02*
X161857180Y-71367544D01*
X161857180Y-71367544D02*
X161904800Y-71415163D01*
X161904800Y-71415163D02*
X161952419Y-71510401D01*
X161952419Y-71510401D02*
X161952419Y-71748496D01*
X161952419Y-71748496D02*
X161904800Y-71843734D01*
X161904800Y-71843734D02*
X161857180Y-71891353D01*
X158612819Y-107275312D02*
X158565200Y-107227693D01*
X158565200Y-107227693D02*
X158517580Y-107084836D01*
X158517580Y-107084836D02*
X158517580Y-106989598D01*
X158517580Y-106989598D02*
X158565200Y-106846741D01*
X158565200Y-106846741D02*
X158660438Y-106751503D01*
X158660438Y-106751503D02*
X158755676Y-106703884D01*
X158755676Y-106703884D02*
X158946152Y-106656265D01*
X158946152Y-106656265D02*
X159089009Y-106656265D01*
X159089009Y-106656265D02*
X159279485Y-106703884D01*
X159279485Y-106703884D02*
X159374723Y-106751503D01*
X159374723Y-106751503D02*
X159469961Y-106846741D01*
X159469961Y-106846741D02*
X159517580Y-106989598D01*
X159517580Y-106989598D02*
X159517580Y-107084836D01*
X159517580Y-107084836D02*
X159469961Y-107227693D01*
X159469961Y-107227693D02*
X159422342Y-107275312D01*
X158612819Y-108275312D02*
X158565200Y-108227693D01*
X158565200Y-108227693D02*
X158517580Y-108084836D01*
X158517580Y-108084836D02*
X158517580Y-107989598D01*
X158517580Y-107989598D02*
X158565200Y-107846741D01*
X158565200Y-107846741D02*
X158660438Y-107751503D01*
X158660438Y-107751503D02*
X158755676Y-107703884D01*
X158755676Y-107703884D02*
X158946152Y-107656265D01*
X158946152Y-107656265D02*
X159089009Y-107656265D01*
X159089009Y-107656265D02*
X159279485Y-107703884D01*
X159279485Y-107703884D02*
X159374723Y-107751503D01*
X159374723Y-107751503D02*
X159469961Y-107846741D01*
X159469961Y-107846741D02*
X159517580Y-107989598D01*
X159517580Y-107989598D02*
X159517580Y-108084836D01*
X159517580Y-108084836D02*
X159469961Y-108227693D01*
X159469961Y-108227693D02*
X159422342Y-108275312D01*
X159517580Y-108608646D02*
X158517580Y-108846741D01*
X158517580Y-108846741D02*
X159231866Y-109037217D01*
X159231866Y-109037217D02*
X158517580Y-109227693D01*
X158517580Y-109227693D02*
X159517580Y-109465789D01*
X164452419Y-73796115D02*
X163452419Y-73796115D01*
X163452419Y-73796115D02*
X163452419Y-73558020D01*
X163452419Y-73558020D02*
X163500038Y-73415163D01*
X163500038Y-73415163D02*
X163595276Y-73319925D01*
X163595276Y-73319925D02*
X163690514Y-73272306D01*
X163690514Y-73272306D02*
X163880990Y-73224687D01*
X163880990Y-73224687D02*
X164023847Y-73224687D01*
X164023847Y-73224687D02*
X164214323Y-73272306D01*
X164214323Y-73272306D02*
X164309561Y-73319925D01*
X164309561Y-73319925D02*
X164404800Y-73415163D01*
X164404800Y-73415163D02*
X164452419Y-73558020D01*
X164452419Y-73558020D02*
X164452419Y-73796115D01*
X164452419Y-72272306D02*
X164452419Y-72843734D01*
X164452419Y-72558020D02*
X163452419Y-72558020D01*
X163452419Y-72558020D02*
X163595276Y-72653258D01*
X163595276Y-72653258D02*
X163690514Y-72748496D01*
X163690514Y-72748496D02*
X163738133Y-72843734D01*
X163785752Y-71415163D02*
X164452419Y-71415163D01*
X163404800Y-71653258D02*
X164119085Y-71891353D01*
X164119085Y-71891353D02*
X164119085Y-71272306D01*
X156012819Y-107375312D02*
X155965200Y-107327693D01*
X155965200Y-107327693D02*
X155917580Y-107184836D01*
X155917580Y-107184836D02*
X155917580Y-107089598D01*
X155917580Y-107089598D02*
X155965200Y-106946741D01*
X155965200Y-106946741D02*
X156060438Y-106851503D01*
X156060438Y-106851503D02*
X156155676Y-106803884D01*
X156155676Y-106803884D02*
X156346152Y-106756265D01*
X156346152Y-106756265D02*
X156489009Y-106756265D01*
X156489009Y-106756265D02*
X156679485Y-106803884D01*
X156679485Y-106803884D02*
X156774723Y-106851503D01*
X156774723Y-106851503D02*
X156869961Y-106946741D01*
X156869961Y-106946741D02*
X156917580Y-107089598D01*
X156917580Y-107089598D02*
X156917580Y-107184836D01*
X156917580Y-107184836D02*
X156869961Y-107327693D01*
X156869961Y-107327693D02*
X156822342Y-107375312D01*
X156917580Y-107708646D02*
X155917580Y-107946741D01*
X155917580Y-107946741D02*
X156631866Y-108137217D01*
X156631866Y-108137217D02*
X155917580Y-108327693D01*
X155917580Y-108327693D02*
X156917580Y-108565789D01*
X129705752Y-137517544D02*
X130372419Y-137517544D01*
X129324800Y-137755639D02*
X130039085Y-137993734D01*
X130039085Y-137993734D02*
X130039085Y-137374687D01*
X130086704Y-137041353D02*
X130086704Y-136565163D01*
X130372419Y-137136591D02*
X129372419Y-136803258D01*
X129372419Y-136803258D02*
X130372419Y-136469925D01*
X130372419Y-135374686D02*
X129372419Y-135374686D01*
X129372419Y-135374686D02*
X130086704Y-135041353D01*
X130086704Y-135041353D02*
X129372419Y-134708020D01*
X129372419Y-134708020D02*
X130372419Y-134708020D01*
X130086704Y-134279448D02*
X130086704Y-133803258D01*
X130372419Y-134374686D02*
X129372419Y-134041353D01*
X129372419Y-134041353D02*
X130372419Y-133708020D01*
X129372419Y-133469924D02*
X130372419Y-132803258D01*
X129372419Y-132803258D02*
X130372419Y-133469924D01*
X130277180Y-132422305D02*
X130324800Y-132374686D01*
X130324800Y-132374686D02*
X130372419Y-132422305D01*
X130372419Y-132422305D02*
X130324800Y-132469924D01*
X130324800Y-132469924D02*
X130277180Y-132422305D01*
X130277180Y-132422305D02*
X130372419Y-132422305D01*
X129991466Y-132422305D02*
X129420038Y-132469924D01*
X129420038Y-132469924D02*
X129372419Y-132422305D01*
X129372419Y-132422305D02*
X129420038Y-132374686D01*
X129420038Y-132374686D02*
X129991466Y-132422305D01*
X129991466Y-132422305D02*
X129372419Y-132422305D01*
X135145276Y-132110401D02*
X135050038Y-132300877D01*
X135050038Y-132300877D02*
X135050038Y-132586591D01*
X135050038Y-132586591D02*
X135145276Y-132872306D01*
X135145276Y-132872306D02*
X135335752Y-133062782D01*
X135335752Y-133062782D02*
X135526228Y-133158020D01*
X135526228Y-133158020D02*
X135907180Y-133253258D01*
X135907180Y-133253258D02*
X136192895Y-133253258D01*
X136192895Y-133253258D02*
X136573847Y-133158020D01*
X136573847Y-133158020D02*
X136764323Y-133062782D01*
X136764323Y-133062782D02*
X136954800Y-132872306D01*
X136954800Y-132872306D02*
X137050038Y-132586591D01*
X137050038Y-132586591D02*
X137050038Y-132396115D01*
X137050038Y-132396115D02*
X136954800Y-132110401D01*
X136954800Y-132110401D02*
X136859561Y-132015163D01*
X136859561Y-132015163D02*
X136192895Y-132015163D01*
X136192895Y-132015163D02*
X136192895Y-132396115D01*
X137050038Y-131158020D02*
X135050038Y-131158020D01*
X135050038Y-131158020D02*
X137050038Y-130015163D01*
X137050038Y-130015163D02*
X135050038Y-130015163D01*
X137050038Y-129062782D02*
X135050038Y-129062782D01*
X135050038Y-129062782D02*
X135050038Y-128586592D01*
X135050038Y-128586592D02*
X135145276Y-128300877D01*
X135145276Y-128300877D02*
X135335752Y-128110401D01*
X135335752Y-128110401D02*
X135526228Y-128015163D01*
X135526228Y-128015163D02*
X135907180Y-127919925D01*
X135907180Y-127919925D02*
X136192895Y-127919925D01*
X136192895Y-127919925D02*
X136573847Y-128015163D01*
X136573847Y-128015163D02*
X136764323Y-128110401D01*
X136764323Y-128110401D02*
X136954800Y-128300877D01*
X136954800Y-128300877D02*
X137050038Y-128586592D01*
X137050038Y-128586592D02*
X137050038Y-129062782D01*
X151531390Y-71603884D02*
X151531390Y-71937217D01*
X151007580Y-72080074D02*
X151007580Y-71603884D01*
X151007580Y-71603884D02*
X152007580Y-71603884D01*
X152007580Y-71603884D02*
X152007580Y-72080074D01*
X151007580Y-72984836D02*
X151007580Y-72508646D01*
X151007580Y-72508646D02*
X152007580Y-72508646D01*
X151531390Y-73318170D02*
X151531390Y-73651503D01*
X151007580Y-73794360D02*
X151007580Y-73318170D01*
X151007580Y-73318170D02*
X152007580Y-73318170D01*
X152007580Y-73318170D02*
X152007580Y-73794360D01*
X152007580Y-74080075D02*
X151007580Y-74413408D01*
X151007580Y-74413408D02*
X152007580Y-74746741D01*
D11*
X161613333Y-79609580D02*
X161565714Y-79657200D01*
X161565714Y-79657200D02*
X161422857Y-79704819D01*
X161422857Y-79704819D02*
X161327619Y-79704819D01*
X161327619Y-79704819D02*
X161184762Y-79657200D01*
X161184762Y-79657200D02*
X161089524Y-79561961D01*
X161089524Y-79561961D02*
X161041905Y-79466723D01*
X161041905Y-79466723D02*
X160994286Y-79276247D01*
X160994286Y-79276247D02*
X160994286Y-79133390D01*
X160994286Y-79133390D02*
X161041905Y-78942914D01*
X161041905Y-78942914D02*
X161089524Y-78847676D01*
X161089524Y-78847676D02*
X161184762Y-78752438D01*
X161184762Y-78752438D02*
X161327619Y-78704819D01*
X161327619Y-78704819D02*
X161422857Y-78704819D01*
X161422857Y-78704819D02*
X161565714Y-78752438D01*
X161565714Y-78752438D02*
X161613333Y-78800057D01*
X162565714Y-79704819D02*
X161994286Y-79704819D01*
X162280000Y-79704819D02*
X162280000Y-78704819D01*
X162280000Y-78704819D02*
X162184762Y-78847676D01*
X162184762Y-78847676D02*
X162089524Y-78942914D01*
X162089524Y-78942914D02*
X161994286Y-78990533D01*
X178454819Y-156059523D02*
X179169104Y-156059523D01*
X179169104Y-156059523D02*
X179311961Y-156107142D01*
X179311961Y-156107142D02*
X179407200Y-156202380D01*
X179407200Y-156202380D02*
X179454819Y-156345237D01*
X179454819Y-156345237D02*
X179454819Y-156440475D01*
X179454819Y-155059523D02*
X179454819Y-155630951D01*
X179454819Y-155345237D02*
X178454819Y-155345237D01*
X178454819Y-155345237D02*
X178597676Y-155440475D01*
X178597676Y-155440475D02*
X178692914Y-155535713D01*
X178692914Y-155535713D02*
X178740533Y-155630951D01*
X178454819Y-154154761D02*
X178454819Y-154630951D01*
X178454819Y-154630951D02*
X178931009Y-154678570D01*
X178931009Y-154678570D02*
X178883390Y-154630951D01*
X178883390Y-154630951D02*
X178835771Y-154535713D01*
X178835771Y-154535713D02*
X178835771Y-154297618D01*
X178835771Y-154297618D02*
X178883390Y-154202380D01*
X178883390Y-154202380D02*
X178931009Y-154154761D01*
X178931009Y-154154761D02*
X179026247Y-154107142D01*
X179026247Y-154107142D02*
X179264342Y-154107142D01*
X179264342Y-154107142D02*
X179359580Y-154154761D01*
X179359580Y-154154761D02*
X179407200Y-154202380D01*
X179407200Y-154202380D02*
X179454819Y-154297618D01*
X179454819Y-154297618D02*
X179454819Y-154535713D01*
X179454819Y-154535713D02*
X179407200Y-154630951D01*
X179407200Y-154630951D02*
X179359580Y-154678570D01*
X167109580Y-133666666D02*
X167157200Y-133714285D01*
X167157200Y-133714285D02*
X167204819Y-133857142D01*
X167204819Y-133857142D02*
X167204819Y-133952380D01*
X167204819Y-133952380D02*
X167157200Y-134095237D01*
X167157200Y-134095237D02*
X167061961Y-134190475D01*
X167061961Y-134190475D02*
X166966723Y-134238094D01*
X166966723Y-134238094D02*
X166776247Y-134285713D01*
X166776247Y-134285713D02*
X166633390Y-134285713D01*
X166633390Y-134285713D02*
X166442914Y-134238094D01*
X166442914Y-134238094D02*
X166347676Y-134190475D01*
X166347676Y-134190475D02*
X166252438Y-134095237D01*
X166252438Y-134095237D02*
X166204819Y-133952380D01*
X166204819Y-133952380D02*
X166204819Y-133857142D01*
X166204819Y-133857142D02*
X166252438Y-133714285D01*
X166252438Y-133714285D02*
X166300057Y-133666666D01*
X166204819Y-133333332D02*
X166204819Y-132714285D01*
X166204819Y-132714285D02*
X166585771Y-133047618D01*
X166585771Y-133047618D02*
X166585771Y-132904761D01*
X166585771Y-132904761D02*
X166633390Y-132809523D01*
X166633390Y-132809523D02*
X166681009Y-132761904D01*
X166681009Y-132761904D02*
X166776247Y-132714285D01*
X166776247Y-132714285D02*
X167014342Y-132714285D01*
X167014342Y-132714285D02*
X167109580Y-132761904D01*
X167109580Y-132761904D02*
X167157200Y-132809523D01*
X167157200Y-132809523D02*
X167204819Y-132904761D01*
X167204819Y-132904761D02*
X167204819Y-133190475D01*
X167204819Y-133190475D02*
X167157200Y-133285713D01*
X167157200Y-133285713D02*
X167109580Y-133333332D01*
X127954819Y-155809523D02*
X128669104Y-155809523D01*
X128669104Y-155809523D02*
X128811961Y-155857142D01*
X128811961Y-155857142D02*
X128907200Y-155952380D01*
X128907200Y-155952380D02*
X128954819Y-156095237D01*
X128954819Y-156095237D02*
X128954819Y-156190475D01*
X128954819Y-154809523D02*
X128954819Y-155380951D01*
X128954819Y-155095237D02*
X127954819Y-155095237D01*
X127954819Y-155095237D02*
X128097676Y-155190475D01*
X128097676Y-155190475D02*
X128192914Y-155285713D01*
X128192914Y-155285713D02*
X128240533Y-155380951D01*
X128288152Y-153952380D02*
X128954819Y-153952380D01*
X127907200Y-154190475D02*
X128621485Y-154428570D01*
X128621485Y-154428570D02*
X128621485Y-153809523D01*
X170513095Y-141889819D02*
X170513095Y-142699342D01*
X170513095Y-142699342D02*
X170560714Y-142794580D01*
X170560714Y-142794580D02*
X170608333Y-142842200D01*
X170608333Y-142842200D02*
X170703571Y-142889819D01*
X170703571Y-142889819D02*
X170894047Y-142889819D01*
X170894047Y-142889819D02*
X170989285Y-142842200D01*
X170989285Y-142842200D02*
X171036904Y-142794580D01*
X171036904Y-142794580D02*
X171084523Y-142699342D01*
X171084523Y-142699342D02*
X171084523Y-141889819D01*
X171513095Y-141985057D02*
X171560714Y-141937438D01*
X171560714Y-141937438D02*
X171655952Y-141889819D01*
X171655952Y-141889819D02*
X171894047Y-141889819D01*
X171894047Y-141889819D02*
X171989285Y-141937438D01*
X171989285Y-141937438D02*
X172036904Y-141985057D01*
X172036904Y-141985057D02*
X172084523Y-142080295D01*
X172084523Y-142080295D02*
X172084523Y-142175533D01*
X172084523Y-142175533D02*
X172036904Y-142318390D01*
X172036904Y-142318390D02*
X171465476Y-142889819D01*
X171465476Y-142889819D02*
X172084523Y-142889819D01*
X164073580Y-87463999D02*
X164121200Y-87416380D01*
X164121200Y-87416380D02*
X164168819Y-87463999D01*
X164168819Y-87463999D02*
X164121200Y-87511618D01*
X164121200Y-87511618D02*
X164073580Y-87463999D01*
X164073580Y-87463999D02*
X164168819Y-87463999D01*
X180150180Y-87741905D02*
X181150180Y-87741905D01*
X181150180Y-87741905D02*
X181150180Y-87980000D01*
X181150180Y-87980000D02*
X181102561Y-88122857D01*
X181102561Y-88122857D02*
X181007323Y-88218095D01*
X181007323Y-88218095D02*
X180912085Y-88265714D01*
X180912085Y-88265714D02*
X180721609Y-88313333D01*
X180721609Y-88313333D02*
X180578752Y-88313333D01*
X180578752Y-88313333D02*
X180388276Y-88265714D01*
X180388276Y-88265714D02*
X180293038Y-88218095D01*
X180293038Y-88218095D02*
X180197800Y-88122857D01*
X180197800Y-88122857D02*
X180150180Y-87980000D01*
X180150180Y-87980000D02*
X180150180Y-87741905D01*
X181150180Y-88932381D02*
X181150180Y-89027619D01*
X181150180Y-89027619D02*
X181102561Y-89122857D01*
X181102561Y-89122857D02*
X181054942Y-89170476D01*
X181054942Y-89170476D02*
X180959704Y-89218095D01*
X180959704Y-89218095D02*
X180769228Y-89265714D01*
X180769228Y-89265714D02*
X180531133Y-89265714D01*
X180531133Y-89265714D02*
X180340657Y-89218095D01*
X180340657Y-89218095D02*
X180245419Y-89170476D01*
X180245419Y-89170476D02*
X180197800Y-89122857D01*
X180197800Y-89122857D02*
X180150180Y-89027619D01*
X180150180Y-89027619D02*
X180150180Y-88932381D01*
X180150180Y-88932381D02*
X180197800Y-88837143D01*
X180197800Y-88837143D02*
X180245419Y-88789524D01*
X180245419Y-88789524D02*
X180340657Y-88741905D01*
X180340657Y-88741905D02*
X180531133Y-88694286D01*
X180531133Y-88694286D02*
X180769228Y-88694286D01*
X180769228Y-88694286D02*
X180959704Y-88741905D01*
X180959704Y-88741905D02*
X181054942Y-88789524D01*
X181054942Y-88789524D02*
X181102561Y-88837143D01*
X181102561Y-88837143D02*
X181150180Y-88932381D01*
X145433333Y-132954819D02*
X145100000Y-132478628D01*
X144861905Y-132954819D02*
X144861905Y-131954819D01*
X144861905Y-131954819D02*
X145242857Y-131954819D01*
X145242857Y-131954819D02*
X145338095Y-132002438D01*
X145338095Y-132002438D02*
X145385714Y-132050057D01*
X145385714Y-132050057D02*
X145433333Y-132145295D01*
X145433333Y-132145295D02*
X145433333Y-132288152D01*
X145433333Y-132288152D02*
X145385714Y-132383390D01*
X145385714Y-132383390D02*
X145338095Y-132431009D01*
X145338095Y-132431009D02*
X145242857Y-132478628D01*
X145242857Y-132478628D02*
X144861905Y-132478628D01*
X146290476Y-132288152D02*
X146290476Y-132954819D01*
X146052381Y-131907200D02*
X145814286Y-132621485D01*
X145814286Y-132621485D02*
X146433333Y-132621485D01*
X148104819Y-104133333D02*
X148819104Y-104133333D01*
X148819104Y-104133333D02*
X148961961Y-104180952D01*
X148961961Y-104180952D02*
X149057200Y-104276190D01*
X149057200Y-104276190D02*
X149104819Y-104419047D01*
X149104819Y-104419047D02*
X149104819Y-104514285D01*
X148104819Y-103228571D02*
X148104819Y-103419047D01*
X148104819Y-103419047D02*
X148152438Y-103514285D01*
X148152438Y-103514285D02*
X148200057Y-103561904D01*
X148200057Y-103561904D02*
X148342914Y-103657142D01*
X148342914Y-103657142D02*
X148533390Y-103704761D01*
X148533390Y-103704761D02*
X148914342Y-103704761D01*
X148914342Y-103704761D02*
X149009580Y-103657142D01*
X149009580Y-103657142D02*
X149057200Y-103609523D01*
X149057200Y-103609523D02*
X149104819Y-103514285D01*
X149104819Y-103514285D02*
X149104819Y-103323809D01*
X149104819Y-103323809D02*
X149057200Y-103228571D01*
X149057200Y-103228571D02*
X149009580Y-103180952D01*
X149009580Y-103180952D02*
X148914342Y-103133333D01*
X148914342Y-103133333D02*
X148676247Y-103133333D01*
X148676247Y-103133333D02*
X148581009Y-103180952D01*
X148581009Y-103180952D02*
X148533390Y-103228571D01*
X148533390Y-103228571D02*
X148485771Y-103323809D01*
X148485771Y-103323809D02*
X148485771Y-103514285D01*
X148485771Y-103514285D02*
X148533390Y-103609523D01*
X148533390Y-103609523D02*
X148581009Y-103657142D01*
X148581009Y-103657142D02*
X148676247Y-103704761D01*
X152433333Y-83354819D02*
X152100000Y-82878628D01*
X151861905Y-83354819D02*
X151861905Y-82354819D01*
X151861905Y-82354819D02*
X152242857Y-82354819D01*
X152242857Y-82354819D02*
X152338095Y-82402438D01*
X152338095Y-82402438D02*
X152385714Y-82450057D01*
X152385714Y-82450057D02*
X152433333Y-82545295D01*
X152433333Y-82545295D02*
X152433333Y-82688152D01*
X152433333Y-82688152D02*
X152385714Y-82783390D01*
X152385714Y-82783390D02*
X152338095Y-82831009D01*
X152338095Y-82831009D02*
X152242857Y-82878628D01*
X152242857Y-82878628D02*
X151861905Y-82878628D01*
X152814286Y-82450057D02*
X152861905Y-82402438D01*
X152861905Y-82402438D02*
X152957143Y-82354819D01*
X152957143Y-82354819D02*
X153195238Y-82354819D01*
X153195238Y-82354819D02*
X153290476Y-82402438D01*
X153290476Y-82402438D02*
X153338095Y-82450057D01*
X153338095Y-82450057D02*
X153385714Y-82545295D01*
X153385714Y-82545295D02*
X153385714Y-82640533D01*
X153385714Y-82640533D02*
X153338095Y-82783390D01*
X153338095Y-82783390D02*
X152766667Y-83354819D01*
X152766667Y-83354819D02*
X153385714Y-83354819D01*
X150844819Y-55933333D02*
X151559104Y-55933333D01*
X151559104Y-55933333D02*
X151701961Y-55980952D01*
X151701961Y-55980952D02*
X151797200Y-56076190D01*
X151797200Y-56076190D02*
X151844819Y-56219047D01*
X151844819Y-56219047D02*
X151844819Y-56314285D01*
X151178152Y-55028571D02*
X151844819Y-55028571D01*
X150797200Y-55266666D02*
X151511485Y-55504761D01*
X151511485Y-55504761D02*
X151511485Y-54885714D01*
X148244819Y-69533333D02*
X148959104Y-69533333D01*
X148959104Y-69533333D02*
X149101961Y-69580952D01*
X149101961Y-69580952D02*
X149197200Y-69676190D01*
X149197200Y-69676190D02*
X149244819Y-69819047D01*
X149244819Y-69819047D02*
X149244819Y-69914285D01*
X148244819Y-69152380D02*
X148244819Y-68485714D01*
X148244819Y-68485714D02*
X149244819Y-68914285D01*
X180633333Y-135559580D02*
X180585714Y-135607200D01*
X180585714Y-135607200D02*
X180442857Y-135654819D01*
X180442857Y-135654819D02*
X180347619Y-135654819D01*
X180347619Y-135654819D02*
X180204762Y-135607200D01*
X180204762Y-135607200D02*
X180109524Y-135511961D01*
X180109524Y-135511961D02*
X180061905Y-135416723D01*
X180061905Y-135416723D02*
X180014286Y-135226247D01*
X180014286Y-135226247D02*
X180014286Y-135083390D01*
X180014286Y-135083390D02*
X180061905Y-134892914D01*
X180061905Y-134892914D02*
X180109524Y-134797676D01*
X180109524Y-134797676D02*
X180204762Y-134702438D01*
X180204762Y-134702438D02*
X180347619Y-134654819D01*
X180347619Y-134654819D02*
X180442857Y-134654819D01*
X180442857Y-134654819D02*
X180585714Y-134702438D01*
X180585714Y-134702438D02*
X180633333Y-134750057D01*
X181490476Y-134988152D02*
X181490476Y-135654819D01*
X181252381Y-134607200D02*
X181014286Y-135321485D01*
X181014286Y-135321485D02*
X181633333Y-135321485D01*
X132654819Y-133933333D02*
X133369104Y-133933333D01*
X133369104Y-133933333D02*
X133511961Y-133980952D01*
X133511961Y-133980952D02*
X133607200Y-134076190D01*
X133607200Y-134076190D02*
X133654819Y-134219047D01*
X133654819Y-134219047D02*
X133654819Y-134314285D01*
X132654819Y-133552380D02*
X132654819Y-132933333D01*
X132654819Y-132933333D02*
X133035771Y-133266666D01*
X133035771Y-133266666D02*
X133035771Y-133123809D01*
X133035771Y-133123809D02*
X133083390Y-133028571D01*
X133083390Y-133028571D02*
X133131009Y-132980952D01*
X133131009Y-132980952D02*
X133226247Y-132933333D01*
X133226247Y-132933333D02*
X133464342Y-132933333D01*
X133464342Y-132933333D02*
X133559580Y-132980952D01*
X133559580Y-132980952D02*
X133607200Y-133028571D01*
X133607200Y-133028571D02*
X133654819Y-133123809D01*
X133654819Y-133123809D02*
X133654819Y-133409523D01*
X133654819Y-133409523D02*
X133607200Y-133504761D01*
X133607200Y-133504761D02*
X133559580Y-133552380D01*
X145433333Y-136954819D02*
X145100000Y-136478628D01*
X144861905Y-136954819D02*
X144861905Y-135954819D01*
X144861905Y-135954819D02*
X145242857Y-135954819D01*
X145242857Y-135954819D02*
X145338095Y-136002438D01*
X145338095Y-136002438D02*
X145385714Y-136050057D01*
X145385714Y-136050057D02*
X145433333Y-136145295D01*
X145433333Y-136145295D02*
X145433333Y-136288152D01*
X145433333Y-136288152D02*
X145385714Y-136383390D01*
X145385714Y-136383390D02*
X145338095Y-136431009D01*
X145338095Y-136431009D02*
X145242857Y-136478628D01*
X145242857Y-136478628D02*
X144861905Y-136478628D01*
X145766667Y-135954819D02*
X146385714Y-135954819D01*
X146385714Y-135954819D02*
X146052381Y-136335771D01*
X146052381Y-136335771D02*
X146195238Y-136335771D01*
X146195238Y-136335771D02*
X146290476Y-136383390D01*
X146290476Y-136383390D02*
X146338095Y-136431009D01*
X146338095Y-136431009D02*
X146385714Y-136526247D01*
X146385714Y-136526247D02*
X146385714Y-136764342D01*
X146385714Y-136764342D02*
X146338095Y-136859580D01*
X146338095Y-136859580D02*
X146290476Y-136907200D01*
X146290476Y-136907200D02*
X146195238Y-136954819D01*
X146195238Y-136954819D02*
X145909524Y-136954819D01*
X145909524Y-136954819D02*
X145814286Y-136907200D01*
X145814286Y-136907200D02*
X145766667Y-136859580D01*
X152533333Y-80354819D02*
X152200000Y-79878628D01*
X151961905Y-80354819D02*
X151961905Y-79354819D01*
X151961905Y-79354819D02*
X152342857Y-79354819D01*
X152342857Y-79354819D02*
X152438095Y-79402438D01*
X152438095Y-79402438D02*
X152485714Y-79450057D01*
X152485714Y-79450057D02*
X152533333Y-79545295D01*
X152533333Y-79545295D02*
X152533333Y-79688152D01*
X152533333Y-79688152D02*
X152485714Y-79783390D01*
X152485714Y-79783390D02*
X152438095Y-79831009D01*
X152438095Y-79831009D02*
X152342857Y-79878628D01*
X152342857Y-79878628D02*
X151961905Y-79878628D01*
X153485714Y-80354819D02*
X152914286Y-80354819D01*
X153200000Y-80354819D02*
X153200000Y-79354819D01*
X153200000Y-79354819D02*
X153104762Y-79497676D01*
X153104762Y-79497676D02*
X153009524Y-79592914D01*
X153009524Y-79592914D02*
X152914286Y-79640533D01*
X145593095Y-141889819D02*
X145593095Y-142699342D01*
X145593095Y-142699342D02*
X145640714Y-142794580D01*
X145640714Y-142794580D02*
X145688333Y-142842200D01*
X145688333Y-142842200D02*
X145783571Y-142889819D01*
X145783571Y-142889819D02*
X145974047Y-142889819D01*
X145974047Y-142889819D02*
X146069285Y-142842200D01*
X146069285Y-142842200D02*
X146116904Y-142794580D01*
X146116904Y-142794580D02*
X146164523Y-142699342D01*
X146164523Y-142699342D02*
X146164523Y-141889819D01*
X147164523Y-142889819D02*
X146593095Y-142889819D01*
X146878809Y-142889819D02*
X146878809Y-141889819D01*
X146878809Y-141889819D02*
X146783571Y-142032676D01*
X146783571Y-142032676D02*
X146688333Y-142127914D01*
X146688333Y-142127914D02*
X146593095Y-142175533D01*
X185466666Y-149804819D02*
X185466666Y-150519104D01*
X185466666Y-150519104D02*
X185419047Y-150661961D01*
X185419047Y-150661961D02*
X185323809Y-150757200D01*
X185323809Y-150757200D02*
X185180952Y-150804819D01*
X185180952Y-150804819D02*
X185085714Y-150804819D01*
X185895238Y-149900057D02*
X185942857Y-149852438D01*
X185942857Y-149852438D02*
X186038095Y-149804819D01*
X186038095Y-149804819D02*
X186276190Y-149804819D01*
X186276190Y-149804819D02*
X186371428Y-149852438D01*
X186371428Y-149852438D02*
X186419047Y-149900057D01*
X186419047Y-149900057D02*
X186466666Y-149995295D01*
X186466666Y-149995295D02*
X186466666Y-150090533D01*
X186466666Y-150090533D02*
X186419047Y-150233390D01*
X186419047Y-150233390D02*
X185847619Y-150804819D01*
X185847619Y-150804819D02*
X186466666Y-150804819D01*
X161613333Y-83609580D02*
X161565714Y-83657200D01*
X161565714Y-83657200D02*
X161422857Y-83704819D01*
X161422857Y-83704819D02*
X161327619Y-83704819D01*
X161327619Y-83704819D02*
X161184762Y-83657200D01*
X161184762Y-83657200D02*
X161089524Y-83561961D01*
X161089524Y-83561961D02*
X161041905Y-83466723D01*
X161041905Y-83466723D02*
X160994286Y-83276247D01*
X160994286Y-83276247D02*
X160994286Y-83133390D01*
X160994286Y-83133390D02*
X161041905Y-82942914D01*
X161041905Y-82942914D02*
X161089524Y-82847676D01*
X161089524Y-82847676D02*
X161184762Y-82752438D01*
X161184762Y-82752438D02*
X161327619Y-82704819D01*
X161327619Y-82704819D02*
X161422857Y-82704819D01*
X161422857Y-82704819D02*
X161565714Y-82752438D01*
X161565714Y-82752438D02*
X161613333Y-82800057D01*
X161994286Y-82800057D02*
X162041905Y-82752438D01*
X162041905Y-82752438D02*
X162137143Y-82704819D01*
X162137143Y-82704819D02*
X162375238Y-82704819D01*
X162375238Y-82704819D02*
X162470476Y-82752438D01*
X162470476Y-82752438D02*
X162518095Y-82800057D01*
X162518095Y-82800057D02*
X162565714Y-82895295D01*
X162565714Y-82895295D02*
X162565714Y-82990533D01*
X162565714Y-82990533D02*
X162518095Y-83133390D01*
X162518095Y-83133390D02*
X161946667Y-83704819D01*
X161946667Y-83704819D02*
X162565714Y-83704819D01*
D12*
%TO.C,C1*%
X159310000Y-77780000D02*
X159310000Y-78095000D01*
X159310000Y-77780000D02*
X164250000Y-77780000D01*
X159310000Y-80205000D02*
X159310000Y-80520000D01*
X159310000Y-80520000D02*
X164250000Y-80520000D01*
X164250000Y-77780000D02*
X164250000Y-78095000D01*
X164250000Y-80205000D02*
X164250000Y-80520000D01*
%TO.C,C3*%
X167880000Y-131030000D02*
X168195000Y-131030000D01*
X167880000Y-135970000D02*
X167880000Y-131030000D01*
X167880000Y-135970000D02*
X168195000Y-135970000D01*
X170305000Y-131030000D02*
X170620000Y-131030000D01*
X170305000Y-135970000D02*
X170620000Y-135970000D01*
X170620000Y-135970000D02*
X170620000Y-131030000D01*
%TO.C,U2*%
X171275000Y-143275000D02*
X169325000Y-143275000D01*
X171275000Y-143275000D02*
X173225000Y-143275000D01*
X171275000Y-148395000D02*
X169325000Y-148395000D01*
X171275000Y-148395000D02*
X173225000Y-148395000D01*
X168575000Y-143370000D02*
X168335000Y-143040000D01*
X168815000Y-143040000D01*
X168575000Y-143370000D01*
G36*
X168575000Y-143370000D02*
G01*
X168335000Y-143040000D01*
X168815000Y-143040000D01*
X168575000Y-143370000D01*
G37*
%TO.C,R4*%
X143540000Y-131580000D02*
X147380000Y-131580000D01*
X143540000Y-133420000D02*
X147380000Y-133420000D01*
%TO.C,J6*%
X149650000Y-105130000D02*
X149650000Y-103800000D01*
X150980000Y-105130000D02*
X149650000Y-105130000D01*
X152250000Y-102470000D02*
X167550000Y-102470000D01*
X152250000Y-105130000D02*
X152250000Y-102470000D01*
X152250000Y-105130000D02*
X167550000Y-105130000D01*
X167550000Y-105130000D02*
X167550000Y-102470000D01*
%TO.C,R2*%
X150620000Y-82080000D02*
X154460000Y-82080000D01*
X150620000Y-83920000D02*
X154460000Y-83920000D01*
%TO.C,J4*%
X152390000Y-56930000D02*
X152390000Y-55600000D01*
X153720000Y-56930000D02*
X152390000Y-56930000D01*
X154990000Y-54270000D02*
X162670000Y-54270000D01*
X154990000Y-56930000D02*
X154990000Y-54270000D01*
X154990000Y-56930000D02*
X162670000Y-56930000D01*
X162670000Y-56930000D02*
X162670000Y-54270000D01*
%TO.C,J7*%
X149790000Y-70530000D02*
X149790000Y-69200000D01*
X151120000Y-70530000D02*
X149790000Y-70530000D01*
X152390000Y-67870000D02*
X165150000Y-67870000D01*
X152390000Y-70530000D02*
X152390000Y-67870000D01*
X152390000Y-70530000D02*
X165150000Y-70530000D01*
X165150000Y-70530000D02*
X165150000Y-67870000D01*
%TO.C,C4*%
X173169000Y-133849000D02*
X173169000Y-132651000D01*
X173209000Y-134112000D02*
X173209000Y-132388000D01*
X173249000Y-134312000D02*
X173249000Y-132188000D01*
X173289000Y-134480000D02*
X173289000Y-132020000D01*
X173329000Y-134628000D02*
X173329000Y-131872000D01*
X173369000Y-134760000D02*
X173369000Y-131740000D01*
X173409000Y-134880000D02*
X173409000Y-131620000D01*
X173449000Y-134992000D02*
X173449000Y-131508000D01*
X173489000Y-135096000D02*
X173489000Y-131404000D01*
X173529000Y-135194000D02*
X173529000Y-131306000D01*
X173569000Y-135287000D02*
X173569000Y-131213000D01*
X173609000Y-135375000D02*
X173609000Y-131125000D01*
X173649000Y-135459000D02*
X173649000Y-131041000D01*
X173689000Y-135539000D02*
X173689000Y-130961000D01*
X173729000Y-135615000D02*
X173729000Y-130885000D01*
X173769000Y-135689000D02*
X173769000Y-130811000D01*
X173809000Y-135760000D02*
X173809000Y-130740000D01*
X173849000Y-135829000D02*
X173849000Y-130671000D01*
X173889000Y-135895000D02*
X173889000Y-130605000D01*
X173929000Y-135959000D02*
X173929000Y-130541000D01*
X173969000Y-136020000D02*
X173969000Y-130480000D01*
X174009000Y-136080000D02*
X174009000Y-130420000D01*
X174049000Y-136139000D02*
X174049000Y-130361000D01*
X174089000Y-136195000D02*
X174089000Y-130305000D01*
X174129000Y-136250000D02*
X174129000Y-130250000D01*
X174169000Y-136304000D02*
X174169000Y-130196000D01*
X174209000Y-136356000D02*
X174209000Y-130144000D01*
X174249000Y-136406000D02*
X174249000Y-130094000D01*
X174289000Y-136456000D02*
X174289000Y-130044000D01*
X174329000Y-136504000D02*
X174329000Y-129996000D01*
X174369000Y-136551000D02*
X174369000Y-129949000D01*
X174409000Y-136597000D02*
X174409000Y-129903000D01*
X174449000Y-136642000D02*
X174449000Y-129858000D01*
X174489000Y-136686000D02*
X174489000Y-129814000D01*
X174529000Y-132009000D02*
X174529000Y-129772000D01*
X174529000Y-136728000D02*
X174529000Y-134491000D01*
X174569000Y-132009000D02*
X174569000Y-129730000D01*
X174569000Y-136770000D02*
X174569000Y-134491000D01*
X174609000Y-132009000D02*
X174609000Y-129689000D01*
X174609000Y-136811000D02*
X174609000Y-134491000D01*
X174649000Y-132009000D02*
X174649000Y-129649000D01*
X174649000Y-136851000D02*
X174649000Y-134491000D01*
X174689000Y-132009000D02*
X174689000Y-129610000D01*
X174689000Y-136890000D02*
X174689000Y-134491000D01*
X174729000Y-132009000D02*
X174729000Y-129571000D01*
X174729000Y-136929000D02*
X174729000Y-134491000D01*
X174769000Y-132009000D02*
X174769000Y-129534000D01*
X174769000Y-136966000D02*
X174769000Y-134491000D01*
X174809000Y-132009000D02*
X174809000Y-129497000D01*
X174809000Y-137003000D02*
X174809000Y-134491000D01*
X174849000Y-132009000D02*
X174849000Y-129461000D01*
X174849000Y-137039000D02*
X174849000Y-134491000D01*
X174889000Y-132009000D02*
X174889000Y-129426000D01*
X174889000Y-137074000D02*
X174889000Y-134491000D01*
X174929000Y-132009000D02*
X174929000Y-129392000D01*
X174929000Y-137108000D02*
X174929000Y-134491000D01*
X174969000Y-132009000D02*
X174969000Y-129358000D01*
X174969000Y-137142000D02*
X174969000Y-134491000D01*
X175009000Y-132009000D02*
X175009000Y-129325000D01*
X175009000Y-137175000D02*
X175009000Y-134491000D01*
X175049000Y-132009000D02*
X175049000Y-129293000D01*
X175049000Y-137207000D02*
X175049000Y-134491000D01*
X175089000Y-132009000D02*
X175089000Y-129261000D01*
X175089000Y-137239000D02*
X175089000Y-134491000D01*
X175129000Y-132009000D02*
X175129000Y-129230000D01*
X175129000Y-137270000D02*
X175129000Y-134491000D01*
X175169000Y-132009000D02*
X175169000Y-129200000D01*
X175169000Y-137300000D02*
X175169000Y-134491000D01*
X175209000Y-132009000D02*
X175209000Y-129170000D01*
X175209000Y-137330000D02*
X175209000Y-134491000D01*
X175249000Y-132009000D02*
X175249000Y-129140000D01*
X175249000Y-137360000D02*
X175249000Y-134491000D01*
X175289000Y-132009000D02*
X175289000Y-129112000D01*
X175289000Y-137388000D02*
X175289000Y-134491000D01*
X175329000Y-132009000D02*
X175329000Y-129084000D01*
X175329000Y-137416000D02*
X175329000Y-134491000D01*
X175369000Y-132009000D02*
X175369000Y-129056000D01*
X175369000Y-137444000D02*
X175369000Y-134491000D01*
X175409000Y-132009000D02*
X175409000Y-129029000D01*
X175409000Y-137471000D02*
X175409000Y-134491000D01*
X175449000Y-132009000D02*
X175449000Y-129003000D01*
X175449000Y-137497000D02*
X175449000Y-134491000D01*
X175489000Y-132009000D02*
X175489000Y-128977000D01*
X175489000Y-137523000D02*
X175489000Y-134491000D01*
X175529000Y-132009000D02*
X175529000Y-128952000D01*
X175529000Y-137548000D02*
X175529000Y-134491000D01*
X175569000Y-132009000D02*
X175569000Y-128927000D01*
X175569000Y-137573000D02*
X175569000Y-134491000D01*
X175609000Y-132009000D02*
X175609000Y-128903000D01*
X175609000Y-137597000D02*
X175609000Y-134491000D01*
X175649000Y-132009000D02*
X175649000Y-128879000D01*
X175649000Y-137621000D02*
X175649000Y-134491000D01*
X175689000Y-132009000D02*
X175689000Y-128855000D01*
X175689000Y-137645000D02*
X175689000Y-134491000D01*
X175729000Y-132009000D02*
X175729000Y-128833000D01*
X175729000Y-137667000D02*
X175729000Y-134491000D01*
X175769000Y-132009000D02*
X175769000Y-128810000D01*
X175769000Y-137690000D02*
X175769000Y-134491000D01*
X175809000Y-132009000D02*
X175809000Y-128788000D01*
X175809000Y-137712000D02*
X175809000Y-134491000D01*
X175849000Y-132009000D02*
X175849000Y-128767000D01*
X175849000Y-137733000D02*
X175849000Y-134491000D01*
X175889000Y-132009000D02*
X175889000Y-128746000D01*
X175889000Y-137754000D02*
X175889000Y-134491000D01*
X175929000Y-132009000D02*
X175929000Y-128725000D01*
X175929000Y-137775000D02*
X175929000Y-134491000D01*
X175969000Y-132009000D02*
X175969000Y-128705000D01*
X175969000Y-137795000D02*
X175969000Y-134491000D01*
X176009000Y-132009000D02*
X176009000Y-128686000D01*
X176009000Y-137814000D02*
X176009000Y-134491000D01*
X176049000Y-132009000D02*
X176049000Y-128666000D01*
X176049000Y-137834000D02*
X176049000Y-134491000D01*
X176089000Y-132009000D02*
X176089000Y-128647000D01*
X176089000Y-137853000D02*
X176089000Y-134491000D01*
X176129000Y-132009000D02*
X176129000Y-128629000D01*
X176129000Y-137871000D02*
X176129000Y-134491000D01*
X176169000Y-132009000D02*
X176169000Y-128611000D01*
X176169000Y-137889000D02*
X176169000Y-134491000D01*
X176209000Y-132009000D02*
X176209000Y-128593000D01*
X176209000Y-137907000D02*
X176209000Y-134491000D01*
X176249000Y-132009000D02*
X176249000Y-128576000D01*
X176249000Y-137924000D02*
X176249000Y-134491000D01*
X176289000Y-132009000D02*
X176289000Y-128560000D01*
X176289000Y-137940000D02*
X176289000Y-134491000D01*
X176329000Y-132009000D02*
X176329000Y-128543000D01*
X176329000Y-137957000D02*
X176329000Y-134491000D01*
X176369000Y-132009000D02*
X176369000Y-128527000D01*
X176369000Y-137973000D02*
X176369000Y-134491000D01*
X176409000Y-132009000D02*
X176409000Y-128512000D01*
X176409000Y-137988000D02*
X176409000Y-134491000D01*
X176449000Y-132009000D02*
X176449000Y-128496000D01*
X176449000Y-138004000D02*
X176449000Y-134491000D01*
X176489000Y-132009000D02*
X176489000Y-128482000D01*
X176489000Y-138018000D02*
X176489000Y-134491000D01*
X176529000Y-132009000D02*
X176529000Y-128467000D01*
X176529000Y-138033000D02*
X176529000Y-134491000D01*
X176569000Y-132009000D02*
X176569000Y-128453000D01*
X176569000Y-138047000D02*
X176569000Y-134491000D01*
X176609000Y-132009000D02*
X176609000Y-128439000D01*
X176609000Y-138061000D02*
X176609000Y-134491000D01*
X176649000Y-132009000D02*
X176649000Y-128426000D01*
X176649000Y-138074000D02*
X176649000Y-134491000D01*
X176689000Y-132009000D02*
X176689000Y-128413000D01*
X176689000Y-138087000D02*
X176689000Y-134491000D01*
X176729000Y-132009000D02*
X176729000Y-128400000D01*
X176729000Y-138100000D02*
X176729000Y-134491000D01*
X176769000Y-132009000D02*
X176769000Y-128388000D01*
X176769000Y-138112000D02*
X176769000Y-134491000D01*
X176809000Y-132009000D02*
X176809000Y-128376000D01*
X176809000Y-138124000D02*
X176809000Y-134491000D01*
X176849000Y-132009000D02*
X176849000Y-128365000D01*
X176849000Y-138135000D02*
X176849000Y-134491000D01*
X176889000Y-132009000D02*
X176889000Y-128353000D01*
X176889000Y-138147000D02*
X176889000Y-134491000D01*
X176929000Y-132009000D02*
X176929000Y-128343000D01*
X176929000Y-138157000D02*
X176929000Y-134491000D01*
X176969000Y-132009000D02*
X176969000Y-128332000D01*
X176969000Y-138168000D02*
X176969000Y-134491000D01*
X177009000Y-138178000D02*
X177009000Y-128322000D01*
X177049000Y-138188000D02*
X177049000Y-128312000D01*
X177089000Y-138197000D02*
X177089000Y-128303000D01*
X177129000Y-138206000D02*
X177129000Y-128294000D01*
X177169000Y-138215000D02*
X177169000Y-128285000D01*
X177209000Y-138224000D02*
X177209000Y-128276000D01*
X177249000Y-138232000D02*
X177249000Y-128268000D01*
X177289000Y-138240000D02*
X177289000Y-128260000D01*
X177329000Y-138247000D02*
X177329000Y-128253000D01*
X177369000Y-138254000D02*
X177369000Y-128246000D01*
X177409000Y-138261000D02*
X177409000Y-128239000D01*
X177449000Y-138268000D02*
X177449000Y-128232000D01*
X177489000Y-138274000D02*
X177489000Y-128226000D01*
X177529000Y-138280000D02*
X177529000Y-128220000D01*
X177570000Y-138285000D02*
X177570000Y-128215000D01*
X177610000Y-138290000D02*
X177610000Y-128210000D01*
X177650000Y-138295000D02*
X177650000Y-128205000D01*
X177690000Y-138300000D02*
X177690000Y-128200000D01*
X177730000Y-138304000D02*
X177730000Y-128196000D01*
X177770000Y-138308000D02*
X177770000Y-128192000D01*
X177810000Y-138312000D02*
X177810000Y-128188000D01*
X177850000Y-138315000D02*
X177850000Y-128185000D01*
X177890000Y-138318000D02*
X177890000Y-128182000D01*
X177930000Y-138320000D02*
X177930000Y-128180000D01*
X177970000Y-138323000D02*
X177970000Y-128177000D01*
X178010000Y-138325000D02*
X178010000Y-128175000D01*
X178050000Y-138327000D02*
X178050000Y-128173000D01*
X178090000Y-138328000D02*
X178090000Y-128172000D01*
X178130000Y-138329000D02*
X178130000Y-128171000D01*
X178170000Y-138330000D02*
X178170000Y-128170000D01*
X178210000Y-138330000D02*
X178210000Y-128170000D01*
X178250000Y-138330000D02*
X178250000Y-128170000D01*
X183229646Y-136625000D02*
X183229646Y-135625000D01*
X183729646Y-136125000D02*
X182729646Y-136125000D01*
X183370000Y-133250000D02*
G75*
G02*
X173130000Y-133250000I-5120000J0D01*
G01*
X173130000Y-133250000D02*
G75*
G02*
X183370000Y-133250000I5120000J0D01*
G01*
%TO.C,R3*%
X147380000Y-135580000D02*
X143540000Y-135580000D01*
X147380000Y-137420000D02*
X143540000Y-137420000D01*
%TO.C,R1*%
X150620000Y-78930000D02*
X154460000Y-78930000D01*
X150620000Y-80770000D02*
X154460000Y-80770000D01*
%TO.C,U1*%
X146355000Y-143275000D02*
X144405000Y-143275000D01*
X146355000Y-143275000D02*
X148305000Y-143275000D01*
X146355000Y-148395000D02*
X144405000Y-148395000D01*
X146355000Y-148395000D02*
X148305000Y-148395000D01*
X143655000Y-143370000D02*
X143415000Y-143040000D01*
X143895000Y-143040000D01*
X143655000Y-143370000D01*
G36*
X143655000Y-143370000D02*
G01*
X143415000Y-143040000D01*
X143895000Y-143040000D01*
X143655000Y-143370000D01*
G37*
%TO.C,J2*%
X184470000Y-146750000D02*
X184470000Y-139070000D01*
X187130000Y-139070000D02*
X184470000Y-139070000D01*
X187130000Y-146750000D02*
X184470000Y-146750000D01*
X187130000Y-146750000D02*
X187130000Y-139070000D01*
X187130000Y-148020000D02*
X187130000Y-149350000D01*
X187130000Y-149350000D02*
X185800000Y-149350000D01*
%TO.C,C2*%
X159310000Y-81830000D02*
X159310000Y-82145000D01*
X159310000Y-81830000D02*
X164250000Y-81830000D01*
X159310000Y-84255000D02*
X159310000Y-84570000D01*
X159310000Y-84570000D02*
X164250000Y-84570000D01*
X164250000Y-81830000D02*
X164250000Y-82145000D01*
X164250000Y-84255000D02*
X164250000Y-84570000D01*
%TD*%
M02*
