M48
; DRILL file {KiCad 8.0.6-8.0.6-0~ubuntu24.04.1} date 2024-10-18T14:58:43+0200
; FORMAT={-:-/ absolute / inch / decimal}
; #@! TF.CreationDate,2024-10-18T14:58:43+02:00
; #@! TF.GenerationSoftware,Kicad,Pcbnew,8.0.6-8.0.6-0~ubuntu24.04.1
; #@! TF.FileFunction,Plated,1,2,PTH
FMAT,2
INCH
; #@! TA.AperFunction,Plated,PTH,ComponentDrill
T1C0.0079
; #@! TA.AperFunction,Plated,PTH,ViaDrill
T2C0.0118
; #@! TA.AperFunction,Plated,PTH,ComponentDrill
T3C0.0276
; #@! TA.AperFunction,Plated,PTH,ComponentDrill
T4C0.0315
; #@! TA.AperFunction,Plated,PTH,ComponentDrill
T5C0.0394
; #@! TA.AperFunction,Plated,PTH,ComponentDrill
T6C0.1693
%
G90
G05
T1
X3.3661Y-3.0319
X3.3661Y-3.0713
X3.3661Y-3.1106
X3.3711Y-2.4409
X3.3711Y-2.4803
X3.3711Y-2.5197
X3.4173Y-3.0319
X3.4173Y-3.0713
X3.4173Y-3.1106
X3.4222Y-2.4409
X3.4222Y-2.4803
X3.4222Y-2.5197
T2
X1.7371Y-2.5882
X1.7618Y-2.7756
X1.7815Y-2.0669
X1.7815Y-2.2146
X1.7829Y-2.4135
X1.7913Y-2.9528
X1.8012Y-3.189
X1.811Y-1.6831
X1.8504Y-2.8248
X1.8776Y-2.669
X1.8898Y-2.5591
X1.9544Y-2.8188
X1.9587Y-2.4409
X2.0276Y-2.4409
X2.0648Y-1.9728
X2.2736Y-1.9488
X2.4379Y-1.8575
X2.5787Y-2.4311
X2.6083Y-2.7362
X2.7559Y-2.9035
X2.8893Y-2.1777
X2.9434Y-2.381
X3.1475Y-2.8494
X3.1594Y-3.248
X3.2283Y-3.248
X3.2972Y-3.248
X3.3071Y-2.3228
X3.3465Y-2.3228
X3.376Y-2.7165
X3.376Y-2.7756
X3.376Y-2.8445
X3.3858Y-2.3228
X3.4252Y-2.3228
X3.4646Y-2.3228
X3.4705Y-3.1842
X3.4938Y-2.6648
X3.5433Y-2.7264
X3.5433Y-2.7756
X3.5433Y-2.8445
X3.5694Y-3.0107
X3.622Y-2.4803
X3.6614Y-2.5591
X3.6614Y-2.6772
X3.6614Y-2.7953
X3.6614Y-2.9134
X3.6614Y-2.9921
X3.6614Y-3.1102
X3.6614Y-3.189
T3
X2.0087Y-2.0827
X2.0087Y-2.2067
X2.2087Y-2.0827
X2.2087Y-2.2067
X2.8346Y-2.3937
X2.8346Y-2.5937
X2.8386Y-2.6807
X2.8386Y-2.8807
T4
X2.374Y-2.0551
X2.374Y-2.2146
X2.5709Y-2.0551
X2.5709Y-2.2146
X2.7165Y-2.0276
X2.7165Y-2.2244
T5
X1.5866Y-2.8252
X1.5866Y-2.9252
X1.5866Y-3.0252
X1.5866Y-3.1252
X1.5866Y-3.2252
X1.5866Y-3.3252
X1.5866Y-3.4252
X1.5866Y-3.5252
X1.5984Y-1.6543
X1.5984Y-1.7543
X1.5984Y-1.8543
X1.5984Y-1.9543
X1.5984Y-2.0543
X1.5984Y-2.1543
X1.5984Y-2.2543
X1.5984Y-2.3543
X1.5984Y-2.4543
X1.5984Y-2.5543
X1.989Y-3.7323
X1.9984Y-1.7087
X2.0213Y-3.0945
X2.0276Y-2.5591
X2.089Y-3.7323
X2.0984Y-1.7087
X2.1213Y-3.0945
X2.1276Y-2.5591
X2.189Y-3.7323
X2.1984Y-1.7087
X2.2213Y-3.0945
X2.2276Y-2.5591
X2.289Y-3.7323
X2.2984Y-1.7087
X2.3213Y-3.0945
X2.3276Y-2.5591
X2.389Y-3.7323
X2.3984Y-1.7087
X2.4213Y-3.0945
X2.4276Y-2.5591
X2.489Y-3.7323
X2.4984Y-1.7087
X2.5213Y-3.0945
X2.5276Y-2.5591
X2.589Y-3.7323
X2.6276Y-2.5591
X2.689Y-3.7323
X2.7567Y-1.7047
X2.8567Y-1.7047
X2.9409Y-2.126
X2.9567Y-1.7047
X3.0142Y-3.7402
X3.0567Y-1.7047
X3.1142Y-3.7402
X3.1378Y-2.126
X3.2142Y-3.7402
X3.3142Y-3.7402
X3.4104Y-1.6693
X3.5104Y-1.6693
T6
X1.2126Y-1.5669
X1.2165Y-3.8937
X4.0394Y-2.3661
X4.0394Y-3.8858
X4.0433Y-1.5748
X4.0433Y-3.126
M30
