%TF.GenerationSoftware,KiCad,Pcbnew,8.0.6-8.0.6-0~ubuntu24.04.1*%
%TF.CreationDate,2024-10-18T14:58:40+02:00*%
%TF.ProjectId,K3NG-rotator-shield,4b334e47-2d72-46f7-9461-746f722d7368,rev?*%
%TF.SameCoordinates,Original*%
%TF.FileFunction,Copper,L1,Top*%
%TF.FilePolarity,Positive*%
%FSLAX46Y46*%
G04 Gerber Fmt 4.6, Leading zero omitted, Abs format (unit mm)*
G04 Created by KiCad (PCBNEW 8.0.6-8.0.6-0~ubuntu24.04.1) date 2024-10-18 14:58:40*
%MOMM*%
%LPD*%
G01*
G04 APERTURE LIST*
G04 Aperture macros list*
%AMRoundRect*
0 Rectangle with rounded corners*
0 $1 Rounding radius*
0 $2 $3 $4 $5 $6 $7 $8 $9 X,Y pos of 4 corners*
0 Add a 4 corners polygon primitive as box body*
4,1,4,$2,$3,$4,$5,$6,$7,$8,$9,$2,$3,0*
0 Add four circle primitives for the rounded corners*
1,1,$1+$1,$2,$3*
1,1,$1+$1,$4,$5*
1,1,$1+$1,$6,$7*
1,1,$1+$1,$8,$9*
0 Add four rect primitives between the rounded corners*
20,1,$1+$1,$2,$3,$4,$5,0*
20,1,$1+$1,$4,$5,$6,$7,0*
20,1,$1+$1,$6,$7,$8,$9,0*
20,1,$1+$1,$8,$9,$2,$3,0*%
G04 Aperture macros list end*
%TA.AperFunction,ComponentPad*%
%ADD10C,1.600000*%
%TD*%
%TA.AperFunction,ComponentPad*%
%ADD11C,7.500000*%
%TD*%
%TA.AperFunction,ComponentPad*%
%ADD12R,1.700000X1.700000*%
%TD*%
%TA.AperFunction,ComponentPad*%
%ADD13O,1.700000X1.700000*%
%TD*%
%TA.AperFunction,SMDPad,CuDef*%
%ADD14RoundRect,0.150000X-0.825000X-0.150000X0.825000X-0.150000X0.825000X0.150000X-0.825000X0.150000X0*%
%TD*%
%TA.AperFunction,ComponentPad*%
%ADD15C,0.500000*%
%TD*%
%TA.AperFunction,SMDPad,CuDef*%
%ADD16R,2.290000X3.000000*%
%TD*%
%TA.AperFunction,ComponentPad*%
%ADD17C,1.400000*%
%TD*%
%TA.AperFunction,ComponentPad*%
%ADD18O,1.400000X1.400000*%
%TD*%
%TA.AperFunction,ComponentPad*%
%ADD19R,2.000000X2.000000*%
%TD*%
%TA.AperFunction,ComponentPad*%
%ADD20C,2.000000*%
%TD*%
%TA.AperFunction,ViaPad*%
%ADD21C,0.600000*%
%TD*%
%TA.AperFunction,Conductor*%
%ADD22C,1.000000*%
%TD*%
%TA.AperFunction,Conductor*%
%ADD23C,0.601000*%
%TD*%
G04 APERTURE END LIST*
D10*
%TO.P,C2,1*%
%TO.N,/ElevationV*%
X60300000Y-56250000D03*
%TO.P,C2,2*%
%TO.N,GND*%
X65300000Y-56250000D03*
%TD*%
D11*
%TO.P,J5,1,Pin_1*%
%TO.N,GND*%
X30900000Y-98900000D03*
%TD*%
D12*
%TO.P,J2,1,Pin_1*%
%TO.N,RotateCCW-OUT*%
X76560000Y-95000000D03*
D13*
%TO.P,J2,2,Pin_2*%
X79100000Y-95000000D03*
%TO.P,J2,3,Pin_3*%
%TO.N,RotateDown-OUT*%
X81640000Y-95000000D03*
%TO.P,J2,4,Pin_4*%
%TO.N,RotateUP-OUT*%
X84180000Y-95000000D03*
%TD*%
D14*
%TO.P,U1,1,1*%
%TO.N,IPRO2*%
X83800000Y-61095000D03*
%TO.P,U1,2,2*%
%TO.N,RotateCCW*%
X83800000Y-62365000D03*
%TO.P,U1,3,3*%
%TO.N,RotateCW*%
X83800000Y-63635000D03*
%TO.P,U1,4,4*%
%TO.N,Vref*%
X83800000Y-64905000D03*
%TO.P,U1,5,5*%
%TO.N,VM*%
X88750000Y-64905000D03*
%TO.P,U1,6,6*%
%TO.N,RotateCCW-OUT*%
X88750000Y-63635000D03*
%TO.P,U1,7,7*%
%TO.N,GND*%
X88750000Y-62365000D03*
%TO.P,U1,8,8*%
%TO.N,RotateCCW-OUT*%
X88750000Y-61095000D03*
D15*
%TO.P,U1,9,9*%
%TO.N,GND*%
X85625000Y-62000000D03*
X85625000Y-63000000D03*
X85625000Y-64000000D03*
D16*
X86275000Y-63000000D03*
D15*
X86925000Y-62000000D03*
X86925000Y-63000000D03*
X86925000Y-64000000D03*
%TD*%
D17*
%TO.P,R1,1*%
%TO.N,/ElevationV*%
X51020000Y-52900000D03*
D18*
%TO.P,R1,2*%
%TO.N,Net-(J9-Pin_1)*%
X56100000Y-52900000D03*
%TD*%
D17*
%TO.P,R3,1*%
%TO.N,IPRO1*%
X72100000Y-73170000D03*
D18*
%TO.P,R3,2*%
%TO.N,GND*%
X72100000Y-68090000D03*
%TD*%
D12*
%TO.P,J3,1,Pin_1*%
%TO.N,VM*%
X86625000Y-42400000D03*
D13*
%TO.P,J3,2,Pin_2*%
%TO.N,GND*%
X89165000Y-42400000D03*
%TD*%
D19*
%TO.P,C4,1*%
%TO.N,VM*%
X79700000Y-54000000D03*
D20*
%TO.P,C4,2*%
%TO.N,GND*%
X74700000Y-54000000D03*
%TD*%
D12*
%TO.P,J9,1,Pin_1*%
%TO.N,Net-(J9-Pin_1)*%
X50760000Y-43400000D03*
D13*
%TO.P,J9,2,Pin_2*%
%TO.N,Net-(J9-Pin_2)*%
X53300000Y-43400000D03*
%TO.P,J9,3,Pin_3*%
%TO.N,IPRO2*%
X55840000Y-43400000D03*
%TO.P,J9,4,Pin_4*%
%TO.N,IPRO1*%
X58380000Y-43400000D03*
%TO.P,J9,5,Pin_5*%
%TO.N,Net-(J7-Pin_5)*%
X60920000Y-43400000D03*
%TO.P,J9,6,Pin_6*%
%TO.N,/ACD0*%
X63460000Y-43400000D03*
%TD*%
D12*
%TO.P,J1,1,Pin_1*%
%TO.N,unconnected-(J1-Pin_1-Pad1)*%
X40300000Y-89540000D03*
D13*
%TO.P,J1,2,Pin_2*%
%TO.N,unconnected-(J1-Pin_2-Pad2)*%
X40300000Y-87000000D03*
%TO.P,J1,3,Pin_3*%
%TO.N,/Turn CW*%
X40300000Y-84460000D03*
%TO.P,J1,4,Pin_4*%
%TO.N,/Turn CCW*%
X40300000Y-81920000D03*
%TO.P,J1,5,Pin_5*%
%TO.N,/UP*%
X40300000Y-79380000D03*
%TO.P,J1,6,Pin_6*%
%TO.N,/DOWN*%
X40300000Y-76840000D03*
%TO.P,J1,7,Pin_7*%
%TO.N,Net-(J1-Pin_7)*%
X40300000Y-74300000D03*
%TO.P,J1,8,Pin_8*%
%TO.N,RotateDown*%
X40300000Y-71760000D03*
%TD*%
D12*
%TO.P,J11,1,Pin_1*%
%TO.N,RotateUP*%
X40600000Y-64880000D03*
D13*
%TO.P,J11,2,Pin_2*%
%TO.N,RotateCCW*%
X40600000Y-62340000D03*
%TO.P,J11,3,Pin_3*%
%TO.N,RotateCW*%
X40600000Y-59800000D03*
%TO.P,J11,4,Pin_4*%
%TO.N,unconnected-(J11-Pin_4-Pad4)*%
X40600000Y-57260000D03*
%TO.P,J11,5,Pin_5*%
%TO.N,unconnected-(J11-Pin_5-Pad5)*%
X40600000Y-54720000D03*
%TO.P,J11,6,Pin_6*%
%TO.N,unconnected-(J11-Pin_6-Pad6)*%
X40600000Y-52180000D03*
%TO.P,J11,7,Pin_7*%
%TO.N,GND*%
X40600000Y-49640000D03*
%TO.P,J11,8,Pin_8*%
%TO.N,unconnected-(J11-Pin_8-Pad8)*%
X40600000Y-47100000D03*
%TO.P,J11,9,Pin_9*%
%TO.N,/SDA*%
X40600000Y-44560000D03*
%TO.P,J11,10,Pin_10*%
%TO.N,/SCL*%
X40600000Y-42020000D03*
%TD*%
D12*
%TO.P,J7,1,Pin_1*%
%TO.N,/ElevationV*%
X51340000Y-78600000D03*
D13*
%TO.P,J7,2,Pin_2*%
%TO.N,/AzimuthV*%
X53880000Y-78600000D03*
%TO.P,J7,3,Pin_3*%
%TO.N,unconnected-(J7-Pin_3-Pad3)*%
X56420000Y-78600000D03*
%TO.P,J7,4,Pin_4*%
%TO.N,unconnected-(J7-Pin_4-Pad4)*%
X58960000Y-78600000D03*
%TO.P,J7,5,Pin_5*%
%TO.N,Net-(J7-Pin_5)*%
X61500000Y-78600000D03*
%TO.P,J7,6,Pin_6*%
%TO.N,/ACD0*%
X64040000Y-78600000D03*
%TD*%
D11*
%TO.P,J12,1,Pin_1*%
%TO.N,GND*%
X102600000Y-98700000D03*
%TD*%
D12*
%TO.P,J4,1,Pin_1*%
%TO.N,/SDA*%
X70020000Y-43300000D03*
D13*
%TO.P,J4,2,Pin_2*%
%TO.N,/SCL*%
X72560000Y-43300000D03*
%TO.P,J4,3,Pin_3*%
%TO.N,5V*%
X75100000Y-43300000D03*
%TO.P,J4,4,Pin_4*%
%TO.N,GND*%
X77640000Y-43300000D03*
%TD*%
D17*
%TO.P,R2,1*%
%TO.N,/AzimuthV*%
X51020000Y-56050000D03*
D18*
%TO.P,R2,2*%
%TO.N,Net-(J9-Pin_2)*%
X56100000Y-56050000D03*
%TD*%
D12*
%TO.P,J6,1,Pin_1*%
%TO.N,GND*%
X51500000Y-65000000D03*
D13*
%TO.P,J6,2,Pin_2*%
X54040000Y-65000000D03*
%TO.P,J6,3,Pin_3*%
%TO.N,/Turn CW*%
X56580000Y-65000000D03*
%TO.P,J6,4,Pin_4*%
%TO.N,/Turn CCW*%
X59120000Y-65000000D03*
%TO.P,J6,5,Pin_5*%
%TO.N,/UP*%
X61660000Y-65000000D03*
%TO.P,J6,6,Pin_6*%
%TO.N,/DOWN*%
X64200000Y-65000000D03*
%TO.P,J6,7,Pin_7*%
%TO.N,Net-(J1-Pin_7)*%
X66740000Y-65000000D03*
%TD*%
D17*
%TO.P,R4,1*%
%TO.N,IPRO2*%
X72000000Y-60800000D03*
D18*
%TO.P,R4,2*%
%TO.N,GND*%
X72000000Y-65880000D03*
%TD*%
D12*
%TO.P,J8,1,Pin_1*%
%TO.N,unconnected-(J8-Pin_1-Pad1)*%
X50520000Y-94800000D03*
D13*
%TO.P,J8,2,Pin_2*%
%TO.N,GND*%
X53060000Y-94800000D03*
%TO.P,J8,3,Pin_3*%
X55600000Y-94800000D03*
%TO.P,J8,4,Pin_4*%
%TO.N,5V*%
X58140000Y-94800000D03*
%TO.P,J8,5,Pin_5*%
%TO.N,Vref*%
X60680000Y-94800000D03*
%TO.P,J8,6,Pin_6*%
%TO.N,unconnected-(J8-Pin_6-Pad6)*%
X63220000Y-94800000D03*
%TO.P,J8,7,Pin_7*%
%TO.N,unconnected-(J8-Pin_7-Pad7)*%
X65760000Y-94800000D03*
%TO.P,J8,8,Pin_8*%
%TO.N,unconnected-(J8-Pin_8-Pad8)*%
X68300000Y-94800000D03*
%TD*%
D14*
%TO.P,U2,1,1*%
%TO.N,IPRO1*%
X83675000Y-76105000D03*
%TO.P,U2,2,2*%
%TO.N,RotateUP*%
X83675000Y-77375000D03*
%TO.P,U2,3,3*%
%TO.N,RotateDown*%
X83675000Y-78645000D03*
%TO.P,U2,4,4*%
%TO.N,Vref*%
X83675000Y-79915000D03*
%TO.P,U2,5,5*%
%TO.N,VM*%
X88625000Y-79915000D03*
%TO.P,U2,6,6*%
%TO.N,RotateDown-OUT*%
X88625000Y-78645000D03*
%TO.P,U2,7,7*%
%TO.N,GND*%
X88625000Y-77375000D03*
%TO.P,U2,8,8*%
%TO.N,RotateUP-OUT*%
X88625000Y-76105000D03*
D15*
%TO.P,U2,9,9*%
%TO.N,GND*%
X85500000Y-77010000D03*
X85500000Y-78010000D03*
X85500000Y-79010000D03*
D16*
X86150000Y-78010000D03*
D15*
X86800000Y-77010000D03*
X86800000Y-78010000D03*
X86800000Y-79010000D03*
%TD*%
D11*
%TO.P,J13,1,Pin_1*%
%TO.N,GND*%
X102600000Y-60100000D03*
%TD*%
%TO.P,J14,1,Pin_1*%
%TO.N,GND*%
X102700000Y-40000000D03*
%TD*%
D10*
%TO.P,C3,1*%
%TO.N,VM*%
X69000000Y-56500000D03*
%TO.P,C3,2*%
%TO.N,GND*%
X69000000Y-51500000D03*
%TD*%
D11*
%TO.P,J10,1,Pin_1*%
%TO.N,GND*%
X30800000Y-39800000D03*
%TD*%
%TO.P,J15,1,Pin_1*%
%TO.N,GND*%
X102700000Y-79400000D03*
%TD*%
D10*
%TO.P,C1,1*%
%TO.N,/AzimuthV*%
X60300000Y-52200000D03*
%TO.P,C1,2*%
%TO.N,GND*%
X65300000Y-52200000D03*
%TD*%
D21*
%TO.N,GND*%
X46000000Y-42750000D03*
X88000000Y-59000000D03*
X87000000Y-59000000D03*
X86000000Y-59000000D03*
X85000000Y-59000000D03*
X84000000Y-59000000D03*
X93000000Y-81000000D03*
X93000000Y-79000000D03*
X93000000Y-76000000D03*
X93000000Y-74000000D03*
X93000000Y-71000000D03*
X93000000Y-68000000D03*
X93000000Y-65000000D03*
X92000000Y-63000000D03*
X47000000Y-71750000D03*
X65500000Y-61750000D03*
X80250000Y-82500000D03*
X82000000Y-82500000D03*
X83750000Y-82500000D03*
X90000000Y-72250000D03*
X90000000Y-70500000D03*
X90000000Y-69250000D03*
X85750000Y-72250000D03*
X85750000Y-70500000D03*
X85750000Y-69000000D03*
X45750000Y-81000000D03*
X45500000Y-75000000D03*
X66250000Y-69500000D03*
X45250000Y-56250000D03*
X45250000Y-52500000D03*
X57750000Y-49500000D03*
X70000000Y-73750000D03*
X51500000Y-62000000D03*
X49750000Y-62000000D03*
X48000000Y-65000000D03*
%TO.N,Net-(J9-Pin_1)*%
X52444900Y-50109800D03*
%TO.N,/Turn CW*%
X44122900Y-65740700D03*
%TO.N,Net-(J1-Pin_7)*%
X44750000Y-70500000D03*
%TO.N,RotateUP-OUT*%
X90663200Y-76472600D03*
%TO.N,VM*%
X88150700Y-80877700D03*
X88742300Y-67685000D03*
%TO.N,/AzimuthV*%
X74763600Y-60478500D03*
%TO.N,RotateCCW*%
X45285500Y-61301900D03*
%TO.N,Vref*%
X79945700Y-72374400D03*
%TO.N,RotateUP*%
X47691500Y-67793600D03*
X49640700Y-71596500D03*
%TO.N,Net-(J7-Pin_5)*%
X73388500Y-55313800D03*
X61923200Y-47180600D03*
%TD*%
D22*
%TO.N,Net-(J1-Pin_7)*%
X44750000Y-70500000D02*
X44958900Y-70291100D01*
X44958900Y-70291100D02*
X61448900Y-70291100D01*
X61448900Y-70291100D02*
X66740000Y-65000000D01*
%TO.N,RotateCCW*%
X45285500Y-61301900D02*
X46587400Y-60000000D01*
X46587400Y-60000000D02*
X69150300Y-60000000D01*
X69150300Y-60000000D02*
X71375500Y-62225200D01*
%TO.N,Net-(J9-Pin_1)*%
X54400000Y-52064900D02*
X54400000Y-52900000D01*
X52444900Y-50109800D02*
X54400000Y-52064900D01*
X56100000Y-52900000D02*
X54400000Y-52900000D01*
%TO.N,/SCL*%
X43020000Y-41450000D02*
X72560000Y-41450000D01*
X42450000Y-42020000D02*
X43020000Y-41450000D01*
X40600000Y-42020000D02*
X42450000Y-42020000D01*
X72560000Y-43300000D02*
X72560000Y-41450000D01*
%TO.N,/SDA*%
X66587500Y-44882500D02*
X68170000Y-43300000D01*
X42772500Y-44882500D02*
X66587500Y-44882500D01*
X42450000Y-44560000D02*
X42772500Y-44882500D01*
X40600000Y-44560000D02*
X42450000Y-44560000D01*
X70020000Y-43300000D02*
X68170000Y-43300000D01*
%TO.N,/UP*%
X57674200Y-68985800D02*
X61660000Y-65000000D01*
X40965900Y-68985800D02*
X57674200Y-68985800D01*
X38749900Y-71201800D02*
X40965900Y-68985800D01*
X38749900Y-77829900D02*
X38749900Y-71201800D01*
X40300000Y-79380000D02*
X38749900Y-77829900D01*
%TO.N,/Turn CW*%
X37603600Y-81763600D02*
X40300000Y-84460000D01*
X37603600Y-70662600D02*
X37603600Y-81763600D01*
X42525500Y-65740700D02*
X37603600Y-70662600D01*
X44122900Y-65740700D02*
X42525500Y-65740700D01*
%TO.N,RotateDown-OUT*%
X89446100Y-78645000D02*
X88625000Y-78645000D01*
X90232300Y-79431200D02*
X89446100Y-78645000D01*
X90232300Y-80396700D02*
X90232300Y-79431200D01*
X88619600Y-82009400D02*
X90232300Y-80396700D01*
X86938000Y-82009400D02*
X88619600Y-82009400D01*
X75024600Y-93922800D02*
X86938000Y-82009400D01*
X75024600Y-96073000D02*
X75024600Y-93922800D01*
X75473400Y-96521800D02*
X75024600Y-96073000D01*
X80118200Y-96521800D02*
X75473400Y-96521800D01*
X81640000Y-95000000D02*
X80118200Y-96521800D01*
%TO.N,RotateCCW-OUT*%
X90382000Y-61833000D02*
X90382000Y-62730800D01*
X89644000Y-61095000D02*
X90382000Y-61833000D01*
X88750000Y-61095000D02*
X89644000Y-61095000D01*
D23*
X90382000Y-62730800D02*
X89571100Y-63541700D01*
X89192400Y-63635000D02*
X88750000Y-63635000D01*
D22*
X89571100Y-63541700D02*
X89571100Y-63635000D01*
X89192400Y-63635000D02*
X89571100Y-63635000D01*
X79100000Y-95000000D02*
X79100000Y-94075000D01*
X79100000Y-94075000D02*
X79100000Y-93150000D01*
X78410000Y-94765000D02*
X78410000Y-95000000D01*
X79100000Y-94075000D02*
X78410000Y-94765000D01*
X76560000Y-95000000D02*
X78410000Y-95000000D01*
X91796400Y-65860300D02*
X89571100Y-63635000D01*
X91796400Y-80453600D02*
X91796400Y-65860300D01*
X79100000Y-93150000D02*
X91796400Y-80453600D01*
%TO.N,RotateUP-OUT*%
X90295600Y-76105000D02*
X90663200Y-76472600D01*
X88625000Y-76105000D02*
X90295600Y-76105000D01*
%TO.N,VM*%
X75200000Y-56500000D02*
X69000000Y-56500000D01*
X77700000Y-54000000D02*
X75200000Y-56500000D01*
X79700000Y-54000000D02*
X77700000Y-54000000D01*
X88150700Y-80389300D02*
X88625000Y-79915000D01*
X88150700Y-80877700D02*
X88150700Y-80389300D01*
X88750000Y-67677300D02*
X88750000Y-64905000D01*
X88742300Y-67685000D02*
X88750000Y-67677300D01*
%TO.N,/AzimuthV*%
X60300000Y-54475100D02*
X60300000Y-52200000D01*
X52594900Y-54475100D02*
X60300000Y-54475100D01*
X51020000Y-56050000D02*
X52594900Y-54475100D01*
X72514800Y-58229700D02*
X74763600Y-60478500D01*
X64383000Y-58229700D02*
X72514800Y-58229700D01*
X60628400Y-54475100D02*
X64383000Y-58229700D01*
X60300000Y-54475100D02*
X60628400Y-54475100D01*
D23*
%TO.N,RotateCCW*%
X83622600Y-62542400D02*
X83800000Y-62365000D01*
X71692700Y-62542400D02*
X83622600Y-62542400D01*
X71375500Y-62225200D02*
X71692700Y-62542400D01*
D22*
%TO.N,Vref*%
X83800000Y-68520100D02*
X79945700Y-72374400D01*
X83800000Y-64905000D02*
X83800000Y-68520100D01*
X75565000Y-79915000D02*
X83675000Y-79915000D01*
X60680000Y-94800000D02*
X75565000Y-79915000D01*
%TO.N,RotateUP*%
X64783600Y-71596500D02*
X70422300Y-77235200D01*
X49640700Y-71596500D02*
X64783600Y-71596500D01*
D23*
X83535200Y-77235200D02*
X83675000Y-77375000D01*
X70422300Y-77235200D02*
X83535200Y-77235200D01*
D22*
X40871000Y-64609000D02*
X40600000Y-64880000D01*
X44591800Y-64609000D02*
X40871000Y-64609000D01*
X47691500Y-67708700D02*
X44591800Y-64609000D01*
X47691500Y-67793600D02*
X47691500Y-67708700D01*
%TO.N,RotateDown*%
X43433900Y-73043900D02*
X42150000Y-71760000D01*
X62798500Y-73043900D02*
X43433900Y-73043900D01*
X68399600Y-78645000D02*
X62798500Y-73043900D01*
X83675000Y-78645000D02*
X68399600Y-78645000D01*
X40300000Y-71760000D02*
X42150000Y-71760000D01*
D23*
%TO.N,RotateCW*%
X70576600Y-63625600D02*
X83790600Y-63625600D01*
D22*
X83790600Y-63625600D02*
X83800000Y-63635000D01*
X40600000Y-59800000D02*
X42450000Y-59800000D01*
X70395800Y-63444800D02*
X70576600Y-63625600D01*
X45827900Y-63444800D02*
X70395800Y-63444800D01*
X42450000Y-60066900D02*
X45827900Y-63444800D01*
X42450000Y-59800000D02*
X42450000Y-60066900D01*
%TO.N,IPRO2*%
X75747700Y-61095000D02*
X83800000Y-61095000D01*
X75232500Y-61610200D02*
X75747700Y-61095000D01*
X72810200Y-61610200D02*
X75232500Y-61610200D01*
X72000000Y-60800000D02*
X72810200Y-61610200D01*
%TO.N,IPRO1*%
X75035000Y-76105000D02*
X83675000Y-76105000D01*
X72100000Y-73170000D02*
X75035000Y-76105000D01*
%TO.N,Net-(J7-Pin_5)*%
X66773000Y-47180600D02*
X61923200Y-47180600D01*
X70523100Y-50930700D02*
X66773000Y-47180600D01*
X70523100Y-52448400D02*
X70523100Y-50930700D01*
X73388500Y-55313800D02*
X70523100Y-52448400D01*
%TD*%
%TA.AperFunction,Conductor*%
%TO.N,GND*%
G36*
X43761308Y-70005985D02*
G01*
X43807063Y-70058789D01*
X43817007Y-70127947D01*
X43808830Y-70157753D01*
X43787949Y-70208163D01*
X43787947Y-70208171D01*
X43749500Y-70401455D01*
X43749500Y-70598544D01*
X43787947Y-70791828D01*
X43787949Y-70791836D01*
X43863367Y-70973910D01*
X43863372Y-70973920D01*
X43972860Y-71137780D01*
X43972863Y-71137784D01*
X44112215Y-71277136D01*
X44112219Y-71277139D01*
X44276079Y-71386627D01*
X44276083Y-71386629D01*
X44276086Y-71386631D01*
X44458164Y-71462051D01*
X44638686Y-71497959D01*
X44651455Y-71500499D01*
X44651458Y-71500500D01*
X44651460Y-71500500D01*
X44848542Y-71500500D01*
X44848543Y-71500499D01*
X45041836Y-71462051D01*
X45223914Y-71386631D01*
X45334862Y-71312498D01*
X45401539Y-71291620D01*
X45403753Y-71291600D01*
X48530153Y-71291600D01*
X48597192Y-71311285D01*
X48642947Y-71364089D01*
X48652891Y-71433247D01*
X48651770Y-71439792D01*
X48640200Y-71497956D01*
X48640200Y-71497959D01*
X48640200Y-71695041D01*
X48640200Y-71695043D01*
X48640199Y-71695043D01*
X48679837Y-71894309D01*
X48677248Y-71894823D01*
X48677787Y-71953236D01*
X48640556Y-72012360D01*
X48577271Y-72041970D01*
X48558493Y-72043400D01*
X43899682Y-72043400D01*
X43832643Y-72023715D01*
X43812001Y-72007081D01*
X42931479Y-71126559D01*
X42931459Y-71126537D01*
X42787785Y-70982863D01*
X42787781Y-70982860D01*
X42623920Y-70873371D01*
X42623907Y-70873364D01*
X42473662Y-70811132D01*
X42441836Y-70797949D01*
X42441828Y-70797947D01*
X42276261Y-70765014D01*
X42276260Y-70765013D01*
X42262401Y-70762257D01*
X42248542Y-70759500D01*
X42248541Y-70759500D01*
X41260758Y-70759500D01*
X41193719Y-70739815D01*
X41173077Y-70723181D01*
X41171402Y-70721506D01*
X41171401Y-70721505D01*
X40982910Y-70589522D01*
X40939286Y-70534945D01*
X40932093Y-70465446D01*
X40963615Y-70403092D01*
X40966314Y-70400305D01*
X41344002Y-70022619D01*
X41405325Y-69989134D01*
X41431683Y-69986300D01*
X43694269Y-69986300D01*
X43761308Y-70005985D01*
G37*
%TD.AperFunction*%
%TA.AperFunction,Conductor*%
G36*
X55235929Y-64464985D02*
G01*
X55281684Y-64517789D01*
X55291628Y-64586947D01*
X55288665Y-64601393D01*
X55244938Y-64764586D01*
X55244936Y-64764596D01*
X55224341Y-64999999D01*
X55224341Y-65000000D01*
X55244936Y-65235403D01*
X55244938Y-65235413D01*
X55306094Y-65463655D01*
X55306096Y-65463659D01*
X55306097Y-65463663D01*
X55398451Y-65661716D01*
X55405965Y-65677830D01*
X55405967Y-65677834D01*
X55473661Y-65774510D01*
X55541505Y-65871401D01*
X55708599Y-66038495D01*
X55805384Y-66106265D01*
X55902165Y-66174032D01*
X55902167Y-66174033D01*
X55902170Y-66174035D01*
X56116337Y-66273903D01*
X56344592Y-66335063D01*
X56515056Y-66349977D01*
X56579999Y-66355659D01*
X56580000Y-66355659D01*
X56580001Y-66355659D01*
X56619234Y-66352226D01*
X56815408Y-66335063D01*
X57043663Y-66273903D01*
X57257830Y-66174035D01*
X57451401Y-66038495D01*
X57618495Y-65871401D01*
X57748425Y-65685842D01*
X57803002Y-65642217D01*
X57872500Y-65635023D01*
X57934855Y-65666546D01*
X57951575Y-65685842D01*
X58081500Y-65871395D01*
X58081505Y-65871401D01*
X58248599Y-66038495D01*
X58345384Y-66106265D01*
X58442165Y-66174032D01*
X58442167Y-66174033D01*
X58442170Y-66174035D01*
X58656337Y-66273903D01*
X58656342Y-66273904D01*
X58656346Y-66273906D01*
X58697185Y-66284848D01*
X58756846Y-66321212D01*
X58787376Y-66384058D01*
X58779082Y-66453434D01*
X58752774Y-66492304D01*
X57296099Y-67948981D01*
X57234776Y-67982466D01*
X57208418Y-67985300D01*
X48816000Y-67985300D01*
X48748961Y-67965615D01*
X48703206Y-67912811D01*
X48692000Y-67861300D01*
X48692000Y-67610156D01*
X48653552Y-67416870D01*
X48653551Y-67416869D01*
X48653551Y-67416865D01*
X48653549Y-67416860D01*
X48578135Y-67234792D01*
X48578128Y-67234779D01*
X48468639Y-67070918D01*
X48468636Y-67070914D01*
X48326186Y-66928464D01*
X48326155Y-66928435D01*
X46054701Y-64656981D01*
X46021216Y-64595658D01*
X46026200Y-64525966D01*
X46068072Y-64470033D01*
X46133536Y-64445616D01*
X46142382Y-64445300D01*
X55168890Y-64445300D01*
X55235929Y-64464985D01*
G37*
%TD.AperFunction*%
%TA.AperFunction,Conductor*%
G36*
X68751557Y-61020185D02*
G01*
X68772199Y-61036819D01*
X69967999Y-62232619D01*
X70001484Y-62293942D01*
X69996500Y-62363634D01*
X69954628Y-62419567D01*
X69889164Y-62443984D01*
X69880318Y-62444300D01*
X46293682Y-62444300D01*
X46226643Y-62424615D01*
X46206001Y-62407981D01*
X45987851Y-62189831D01*
X45954366Y-62128508D01*
X45959350Y-62058816D01*
X45987851Y-62014469D01*
X46965502Y-61036819D01*
X47026825Y-61003334D01*
X47053183Y-61000500D01*
X68684518Y-61000500D01*
X68751557Y-61020185D01*
G37*
%TD.AperFunction*%
%TA.AperFunction,Conductor*%
G36*
X49352539Y-42470185D02*
G01*
X49398294Y-42522989D01*
X49409500Y-42574500D01*
X49409500Y-43188425D01*
X49409501Y-43758000D01*
X49389816Y-43825039D01*
X49337013Y-43870794D01*
X49285501Y-43882000D01*
X43238283Y-43882000D01*
X43171244Y-43862315D01*
X43150606Y-43845685D01*
X43087782Y-43782861D01*
X43087781Y-43782860D01*
X43087780Y-43782859D01*
X42923920Y-43673371D01*
X42923911Y-43673366D01*
X42832259Y-43635403D01*
X42795165Y-43620038D01*
X42741836Y-43597949D01*
X42741832Y-43597948D01*
X42741828Y-43597946D01*
X42645188Y-43578724D01*
X42548544Y-43559500D01*
X42548541Y-43559500D01*
X41560758Y-43559500D01*
X41493719Y-43539815D01*
X41473077Y-43523181D01*
X41471402Y-43521506D01*
X41471396Y-43521501D01*
X41285842Y-43391575D01*
X41242217Y-43336998D01*
X41235023Y-43267500D01*
X41266546Y-43205145D01*
X41285842Y-43188425D01*
X41319887Y-43164586D01*
X41471401Y-43058495D01*
X41473077Y-43056819D01*
X41473995Y-43056317D01*
X41475544Y-43055018D01*
X41475805Y-43055329D01*
X41534400Y-43023334D01*
X41560758Y-43020500D01*
X42548542Y-43020500D01*
X42567870Y-43016655D01*
X42645188Y-43001275D01*
X42741836Y-42982051D01*
X42795165Y-42959961D01*
X42923914Y-42906632D01*
X43087782Y-42797139D01*
X43227139Y-42657782D01*
X43227140Y-42657779D01*
X43398102Y-42486817D01*
X43459425Y-42453334D01*
X43485782Y-42450500D01*
X49285500Y-42450500D01*
X49352539Y-42470185D01*
G37*
%TD.AperFunction*%
%TA.AperFunction,Conductor*%
G36*
X107142539Y-34620185D02*
G01*
X107188294Y-34672989D01*
X107199500Y-34724500D01*
X107199500Y-103575500D01*
X107179815Y-103642539D01*
X107127011Y-103688294D01*
X107075500Y-103699500D01*
X26424500Y-103699500D01*
X26357461Y-103679815D01*
X26311706Y-103627011D01*
X26300500Y-103575500D01*
X26300500Y-93902135D01*
X49169500Y-93902135D01*
X49169500Y-95697870D01*
X49169501Y-95697876D01*
X49175908Y-95757483D01*
X49226202Y-95892328D01*
X49226206Y-95892335D01*
X49312452Y-96007544D01*
X49312455Y-96007547D01*
X49427664Y-96093793D01*
X49427671Y-96093797D01*
X49562517Y-96144091D01*
X49562516Y-96144091D01*
X49569444Y-96144835D01*
X49622127Y-96150500D01*
X51417872Y-96150499D01*
X51477483Y-96144091D01*
X51612331Y-96093796D01*
X51727546Y-96007546D01*
X51813796Y-95892331D01*
X51864091Y-95757483D01*
X51870500Y-95697873D01*
X51870499Y-93902128D01*
X51864091Y-93842517D01*
X51862843Y-93839172D01*
X51813797Y-93707671D01*
X51813793Y-93707664D01*
X51727547Y-93592455D01*
X51727544Y-93592452D01*
X51612335Y-93506206D01*
X51612328Y-93506202D01*
X51477482Y-93455908D01*
X51477483Y-93455908D01*
X51417883Y-93449501D01*
X51417881Y-93449500D01*
X51417873Y-93449500D01*
X51417864Y-93449500D01*
X49622129Y-93449500D01*
X49622123Y-93449501D01*
X49562516Y-93455908D01*
X49427671Y-93506202D01*
X49427664Y-93506206D01*
X49312455Y-93592452D01*
X49312452Y-93592455D01*
X49226206Y-93707664D01*
X49226202Y-93707671D01*
X49175908Y-93842517D01*
X49169501Y-93902116D01*
X49169501Y-93902123D01*
X49169500Y-93902135D01*
X26300500Y-93902135D01*
X26300500Y-81862143D01*
X36603099Y-81862143D01*
X36641547Y-82055429D01*
X36641550Y-82055439D01*
X36716964Y-82237507D01*
X36716971Y-82237520D01*
X36826459Y-82401380D01*
X36826460Y-82401381D01*
X36826461Y-82401382D01*
X36965818Y-82540739D01*
X36965819Y-82540739D01*
X36972886Y-82547806D01*
X36972885Y-82547806D01*
X36972889Y-82547809D01*
X38918108Y-84493029D01*
X38951593Y-84554352D01*
X38953955Y-84569901D01*
X38964936Y-84695403D01*
X38964938Y-84695413D01*
X39026094Y-84923655D01*
X39026096Y-84923659D01*
X39026097Y-84923663D01*
X39125965Y-85137830D01*
X39125967Y-85137834D01*
X39261501Y-85331395D01*
X39261506Y-85331402D01*
X39428597Y-85498493D01*
X39428603Y-85498498D01*
X39614158Y-85628425D01*
X39657783Y-85683002D01*
X39664977Y-85752500D01*
X39633454Y-85814855D01*
X39614158Y-85831575D01*
X39428597Y-85961505D01*
X39261505Y-86128597D01*
X39125965Y-86322169D01*
X39125964Y-86322171D01*
X39026098Y-86536335D01*
X39026094Y-86536344D01*
X38964938Y-86764586D01*
X38964936Y-86764596D01*
X38944341Y-86999999D01*
X38944341Y-87000000D01*
X38964936Y-87235403D01*
X38964938Y-87235413D01*
X39026094Y-87463655D01*
X39026096Y-87463659D01*
X39026097Y-87463663D01*
X39125965Y-87677830D01*
X39125967Y-87677834D01*
X39234281Y-87832521D01*
X39261501Y-87871396D01*
X39261506Y-87871402D01*
X39383430Y-87993326D01*
X39416915Y-88054649D01*
X39411931Y-88124341D01*
X39370059Y-88180274D01*
X39339083Y-88197189D01*
X39207669Y-88246203D01*
X39207664Y-88246206D01*
X39092455Y-88332452D01*
X39092452Y-88332455D01*
X39006206Y-88447664D01*
X39006202Y-88447671D01*
X38955908Y-88582517D01*
X38949501Y-88642116D01*
X38949501Y-88642123D01*
X38949500Y-88642135D01*
X38949500Y-90437870D01*
X38949501Y-90437876D01*
X38955908Y-90497483D01*
X39006202Y-90632328D01*
X39006206Y-90632335D01*
X39092452Y-90747544D01*
X39092455Y-90747547D01*
X39207664Y-90833793D01*
X39207671Y-90833797D01*
X39342517Y-90884091D01*
X39342516Y-90884091D01*
X39349444Y-90884835D01*
X39402127Y-90890500D01*
X41197872Y-90890499D01*
X41257483Y-90884091D01*
X41392331Y-90833796D01*
X41507546Y-90747546D01*
X41593796Y-90632331D01*
X41644091Y-90497483D01*
X41650500Y-90437873D01*
X41650499Y-88642128D01*
X41644091Y-88582517D01*
X41593796Y-88447669D01*
X41593795Y-88447668D01*
X41593793Y-88447664D01*
X41507547Y-88332455D01*
X41507544Y-88332452D01*
X41392335Y-88246206D01*
X41392328Y-88246202D01*
X41260917Y-88197189D01*
X41204983Y-88155318D01*
X41180566Y-88089853D01*
X41195418Y-88021580D01*
X41216563Y-87993332D01*
X41338495Y-87871401D01*
X41474035Y-87677830D01*
X41573903Y-87463663D01*
X41635063Y-87235408D01*
X41655659Y-87000000D01*
X41635063Y-86764592D01*
X41573903Y-86536337D01*
X41474035Y-86322171D01*
X41338495Y-86128599D01*
X41338494Y-86128597D01*
X41171402Y-85961506D01*
X41171396Y-85961501D01*
X40985842Y-85831575D01*
X40942217Y-85776998D01*
X40935023Y-85707500D01*
X40966546Y-85645145D01*
X40985842Y-85628425D01*
X41008026Y-85612891D01*
X41171401Y-85498495D01*
X41338495Y-85331401D01*
X41474035Y-85137830D01*
X41573903Y-84923663D01*
X41635063Y-84695408D01*
X41655659Y-84460000D01*
X41635063Y-84224592D01*
X41573903Y-83996337D01*
X41474035Y-83782171D01*
X41338495Y-83588599D01*
X41338494Y-83588597D01*
X41171402Y-83421506D01*
X41171396Y-83421501D01*
X40985842Y-83291575D01*
X40942217Y-83236998D01*
X40935023Y-83167500D01*
X40966546Y-83105145D01*
X40985842Y-83088425D01*
X41069874Y-83029585D01*
X41171401Y-82958495D01*
X41338495Y-82791401D01*
X41474035Y-82597830D01*
X41573903Y-82383663D01*
X41635063Y-82155408D01*
X41655659Y-81920000D01*
X41635063Y-81684592D01*
X41573903Y-81456337D01*
X41474035Y-81242171D01*
X41470978Y-81237804D01*
X41338494Y-81048597D01*
X41171402Y-80881506D01*
X41171396Y-80881501D01*
X40985842Y-80751575D01*
X40942217Y-80696998D01*
X40935023Y-80627500D01*
X40966546Y-80565145D01*
X40985842Y-80548425D01*
X41102314Y-80466870D01*
X41171401Y-80418495D01*
X41338495Y-80251401D01*
X41474035Y-80057830D01*
X41573903Y-79843663D01*
X41635063Y-79615408D01*
X41655659Y-79380000D01*
X41654183Y-79363135D01*
X41649596Y-79310701D01*
X41635063Y-79144592D01*
X41573903Y-78916337D01*
X41474035Y-78702171D01*
X41402495Y-78600000D01*
X41338494Y-78508597D01*
X41171402Y-78341506D01*
X41171396Y-78341501D01*
X40985842Y-78211575D01*
X40942217Y-78156998D01*
X40935023Y-78087500D01*
X40966546Y-78025145D01*
X40985842Y-78008425D01*
X41061659Y-77955337D01*
X41171401Y-77878495D01*
X41338495Y-77711401D01*
X41344989Y-77702127D01*
X49989500Y-77702127D01*
X49989500Y-79497870D01*
X49989501Y-79497876D01*
X49995908Y-79557483D01*
X50046202Y-79692328D01*
X50046206Y-79692335D01*
X50132452Y-79807544D01*
X50132455Y-79807547D01*
X50247664Y-79893793D01*
X50247671Y-79893797D01*
X50382517Y-79944091D01*
X50382516Y-79944091D01*
X50389444Y-79944835D01*
X50442127Y-79950500D01*
X52237872Y-79950499D01*
X52297483Y-79944091D01*
X52432331Y-79893796D01*
X52547546Y-79807546D01*
X52633796Y-79692331D01*
X52682810Y-79560916D01*
X52724681Y-79504984D01*
X52790145Y-79480566D01*
X52858418Y-79495417D01*
X52886673Y-79516569D01*
X53008599Y-79638495D01*
X53095435Y-79699298D01*
X53202165Y-79774032D01*
X53202167Y-79774033D01*
X53202170Y-79774035D01*
X53416337Y-79873903D01*
X53644592Y-79935063D01*
X53821034Y-79950500D01*
X53879999Y-79955659D01*
X53880000Y-79955659D01*
X53880001Y-79955659D01*
X53938966Y-79950500D01*
X54115408Y-79935063D01*
X54343663Y-79873903D01*
X54557830Y-79774035D01*
X54751401Y-79638495D01*
X54918495Y-79471401D01*
X55048425Y-79285842D01*
X55103002Y-79242217D01*
X55172500Y-79235023D01*
X55234855Y-79266546D01*
X55251575Y-79285842D01*
X55381500Y-79471395D01*
X55381505Y-79471401D01*
X55548599Y-79638495D01*
X55635435Y-79699298D01*
X55742165Y-79774032D01*
X55742167Y-79774033D01*
X55742170Y-79774035D01*
X55956337Y-79873903D01*
X56184592Y-79935063D01*
X56361034Y-79950500D01*
X56419999Y-79955659D01*
X56420000Y-79955659D01*
X56420001Y-79955659D01*
X56478966Y-79950500D01*
X56655408Y-79935063D01*
X56883663Y-79873903D01*
X57097830Y-79774035D01*
X57291401Y-79638495D01*
X57458495Y-79471401D01*
X57588425Y-79285842D01*
X57643002Y-79242217D01*
X57712500Y-79235023D01*
X57774855Y-79266546D01*
X57791575Y-79285842D01*
X57921500Y-79471395D01*
X57921505Y-79471401D01*
X58088599Y-79638495D01*
X58175435Y-79699298D01*
X58282165Y-79774032D01*
X58282167Y-79774033D01*
X58282170Y-79774035D01*
X58496337Y-79873903D01*
X58724592Y-79935063D01*
X58901034Y-79950500D01*
X58959999Y-79955659D01*
X58960000Y-79955659D01*
X58960001Y-79955659D01*
X59018966Y-79950500D01*
X59195408Y-79935063D01*
X59423663Y-79873903D01*
X59637830Y-79774035D01*
X59831401Y-79638495D01*
X59998495Y-79471401D01*
X60128425Y-79285842D01*
X60183002Y-79242217D01*
X60252500Y-79235023D01*
X60314855Y-79266546D01*
X60331575Y-79285842D01*
X60461500Y-79471395D01*
X60461505Y-79471401D01*
X60628599Y-79638495D01*
X60715435Y-79699298D01*
X60822165Y-79774032D01*
X60822167Y-79774033D01*
X60822170Y-79774035D01*
X61036337Y-79873903D01*
X61264592Y-79935063D01*
X61441034Y-79950500D01*
X61499999Y-79955659D01*
X61500000Y-79955659D01*
X61500001Y-79955659D01*
X61558966Y-79950500D01*
X61735408Y-79935063D01*
X61963663Y-79873903D01*
X62177830Y-79774035D01*
X62371401Y-79638495D01*
X62538495Y-79471401D01*
X62668425Y-79285842D01*
X62723002Y-79242217D01*
X62792500Y-79235023D01*
X62854855Y-79266546D01*
X62871575Y-79285842D01*
X63001500Y-79471395D01*
X63001505Y-79471401D01*
X63168599Y-79638495D01*
X63255435Y-79699298D01*
X63362165Y-79774032D01*
X63362167Y-79774033D01*
X63362170Y-79774035D01*
X63576337Y-79873903D01*
X63804592Y-79935063D01*
X63981034Y-79950500D01*
X64039999Y-79955659D01*
X64040000Y-79955659D01*
X64040001Y-79955659D01*
X64098966Y-79950500D01*
X64275408Y-79935063D01*
X64503663Y-79873903D01*
X64717830Y-79774035D01*
X64911401Y-79638495D01*
X65078495Y-79471401D01*
X65214035Y-79277830D01*
X65313903Y-79063663D01*
X65375063Y-78835408D01*
X65395659Y-78600000D01*
X65375063Y-78364592D01*
X65313903Y-78136337D01*
X65214035Y-77922171D01*
X65208425Y-77914158D01*
X65078494Y-77728597D01*
X64911402Y-77561506D01*
X64911395Y-77561501D01*
X64888670Y-77545589D01*
X64872521Y-77534281D01*
X64717834Y-77425967D01*
X64717830Y-77425965D01*
X64717828Y-77425964D01*
X64503663Y-77326097D01*
X64503659Y-77326096D01*
X64503655Y-77326094D01*
X64275413Y-77264938D01*
X64275403Y-77264936D01*
X64040001Y-77244341D01*
X64039999Y-77244341D01*
X63804596Y-77264936D01*
X63804586Y-77264938D01*
X63576344Y-77326094D01*
X63576335Y-77326098D01*
X63362171Y-77425964D01*
X63362169Y-77425965D01*
X63168597Y-77561505D01*
X63001505Y-77728597D01*
X62871575Y-77914158D01*
X62816998Y-77957783D01*
X62747500Y-77964977D01*
X62685145Y-77933454D01*
X62668425Y-77914158D01*
X62538494Y-77728597D01*
X62371402Y-77561506D01*
X62371395Y-77561501D01*
X62348670Y-77545589D01*
X62332521Y-77534281D01*
X62177834Y-77425967D01*
X62177830Y-77425965D01*
X62177828Y-77425964D01*
X61963663Y-77326097D01*
X61963659Y-77326096D01*
X61963655Y-77326094D01*
X61735413Y-77264938D01*
X61735403Y-77264936D01*
X61500001Y-77244341D01*
X61499999Y-77244341D01*
X61264596Y-77264936D01*
X61264586Y-77264938D01*
X61036344Y-77326094D01*
X61036335Y-77326098D01*
X60822171Y-77425964D01*
X60822169Y-77425965D01*
X60628597Y-77561505D01*
X60461505Y-77728597D01*
X60331575Y-77914158D01*
X60276998Y-77957783D01*
X60207500Y-77964977D01*
X60145145Y-77933454D01*
X60128425Y-77914158D01*
X59998494Y-77728597D01*
X59831402Y-77561506D01*
X59831395Y-77561501D01*
X59808670Y-77545589D01*
X59792521Y-77534281D01*
X59637834Y-77425967D01*
X59637830Y-77425965D01*
X59637828Y-77425964D01*
X59423663Y-77326097D01*
X59423659Y-77326096D01*
X59423655Y-77326094D01*
X59195413Y-77264938D01*
X59195403Y-77264936D01*
X58960001Y-77244341D01*
X58959999Y-77244341D01*
X58724596Y-77264936D01*
X58724586Y-77264938D01*
X58496344Y-77326094D01*
X58496335Y-77326098D01*
X58282171Y-77425964D01*
X58282169Y-77425965D01*
X58088597Y-77561505D01*
X57921505Y-77728597D01*
X57791575Y-77914158D01*
X57736998Y-77957783D01*
X57667500Y-77964977D01*
X57605145Y-77933454D01*
X57588425Y-77914158D01*
X57458494Y-77728597D01*
X57291402Y-77561506D01*
X57291395Y-77561501D01*
X57268670Y-77545589D01*
X57252521Y-77534281D01*
X57097834Y-77425967D01*
X57097830Y-77425965D01*
X57097828Y-77425964D01*
X56883663Y-77326097D01*
X56883659Y-77326096D01*
X56883655Y-77326094D01*
X56655413Y-77264938D01*
X56655403Y-77264936D01*
X56420001Y-77244341D01*
X56419999Y-77244341D01*
X56184596Y-77264936D01*
X56184586Y-77264938D01*
X55956344Y-77326094D01*
X55956335Y-77326098D01*
X55742171Y-77425964D01*
X55742169Y-77425965D01*
X55548597Y-77561505D01*
X55381505Y-77728597D01*
X55251575Y-77914158D01*
X55196998Y-77957783D01*
X55127500Y-77964977D01*
X55065145Y-77933454D01*
X55048425Y-77914158D01*
X54918494Y-77728597D01*
X54751402Y-77561506D01*
X54751395Y-77561501D01*
X54728670Y-77545589D01*
X54712521Y-77534281D01*
X54557834Y-77425967D01*
X54557830Y-77425965D01*
X54557828Y-77425964D01*
X54343663Y-77326097D01*
X54343659Y-77326096D01*
X54343655Y-77326094D01*
X54115413Y-77264938D01*
X54115403Y-77264936D01*
X53880001Y-77244341D01*
X53879999Y-77244341D01*
X53644596Y-77264936D01*
X53644586Y-77264938D01*
X53416344Y-77326094D01*
X53416335Y-77326098D01*
X53202171Y-77425964D01*
X53202169Y-77425965D01*
X53008600Y-77561503D01*
X52886673Y-77683430D01*
X52825350Y-77716914D01*
X52755658Y-77711930D01*
X52699725Y-77670058D01*
X52682810Y-77639081D01*
X52633797Y-77507671D01*
X52633793Y-77507664D01*
X52547547Y-77392455D01*
X52547544Y-77392452D01*
X52432335Y-77306206D01*
X52432328Y-77306202D01*
X52297482Y-77255908D01*
X52297483Y-77255908D01*
X52237883Y-77249501D01*
X52237881Y-77249500D01*
X52237873Y-77249500D01*
X52237864Y-77249500D01*
X50442129Y-77249500D01*
X50442123Y-77249501D01*
X50382516Y-77255908D01*
X50247671Y-77306202D01*
X50247664Y-77306206D01*
X50132455Y-77392452D01*
X50132452Y-77392455D01*
X50046206Y-77507664D01*
X50046202Y-77507671D01*
X49995908Y-77642517D01*
X49989501Y-77702116D01*
X49989500Y-77702127D01*
X41344989Y-77702127D01*
X41474035Y-77517830D01*
X41573903Y-77303663D01*
X41635063Y-77075408D01*
X41655659Y-76840000D01*
X41654183Y-76823135D01*
X41649804Y-76773076D01*
X41635063Y-76604592D01*
X41573903Y-76376337D01*
X41474035Y-76162171D01*
X41338495Y-75968599D01*
X41338494Y-75968597D01*
X41171402Y-75801506D01*
X41171396Y-75801501D01*
X40985842Y-75671575D01*
X40942217Y-75616998D01*
X40935023Y-75547500D01*
X40966546Y-75485145D01*
X40985842Y-75468425D01*
X41150320Y-75353256D01*
X41171401Y-75338495D01*
X41338495Y-75171401D01*
X41474035Y-74977830D01*
X41573903Y-74763663D01*
X41635063Y-74535408D01*
X41655659Y-74300000D01*
X41635063Y-74064592D01*
X41573903Y-73836337D01*
X41474035Y-73622171D01*
X41462389Y-73605538D01*
X41338494Y-73428597D01*
X41171402Y-73261506D01*
X41171396Y-73261501D01*
X40985842Y-73131575D01*
X40942217Y-73076998D01*
X40935023Y-73007500D01*
X40966546Y-72945145D01*
X40985842Y-72928425D01*
X41017968Y-72905930D01*
X41171401Y-72798495D01*
X41173077Y-72796819D01*
X41173995Y-72796317D01*
X41175544Y-72795018D01*
X41175805Y-72795329D01*
X41234400Y-72763334D01*
X41260758Y-72760500D01*
X41684218Y-72760500D01*
X41751257Y-72780185D01*
X41771899Y-72796819D01*
X42653635Y-73678555D01*
X42653664Y-73678586D01*
X42796114Y-73821036D01*
X42796118Y-73821039D01*
X42959979Y-73930528D01*
X42959992Y-73930535D01*
X43088733Y-73983861D01*
X43117898Y-73995941D01*
X43142064Y-74005951D01*
X43153195Y-74008165D01*
X43226060Y-74022659D01*
X43335356Y-74044400D01*
X43335359Y-74044400D01*
X43335360Y-74044400D01*
X43532440Y-74044400D01*
X62332718Y-74044400D01*
X62399757Y-74064085D01*
X62420399Y-74080719D01*
X67761815Y-79422137D01*
X67761819Y-79422140D01*
X67925679Y-79531628D01*
X67925685Y-79531631D01*
X67925686Y-79531632D01*
X68107765Y-79607052D01*
X68265829Y-79638493D01*
X68301055Y-79645500D01*
X68301058Y-79645501D01*
X68301060Y-79645501D01*
X68504255Y-79645501D01*
X68504275Y-79645500D01*
X74120218Y-79645500D01*
X74187257Y-79665185D01*
X74233012Y-79717989D01*
X74242956Y-79787147D01*
X74213931Y-79850703D01*
X74207899Y-79857181D01*
X60646970Y-93418108D01*
X60585647Y-93451593D01*
X60570098Y-93453955D01*
X60444596Y-93464936D01*
X60444586Y-93464938D01*
X60216344Y-93526094D01*
X60216335Y-93526098D01*
X60002171Y-93625964D01*
X60002169Y-93625965D01*
X59808597Y-93761505D01*
X59641505Y-93928597D01*
X59511575Y-94114158D01*
X59456998Y-94157783D01*
X59387500Y-94164977D01*
X59325145Y-94133454D01*
X59308425Y-94114158D01*
X59178494Y-93928597D01*
X59011402Y-93761506D01*
X59011395Y-93761501D01*
X58817834Y-93625967D01*
X58817830Y-93625965D01*
X58781912Y-93609216D01*
X58603663Y-93526097D01*
X58603659Y-93526096D01*
X58603655Y-93526094D01*
X58375413Y-93464938D01*
X58375403Y-93464936D01*
X58140001Y-93444341D01*
X58139999Y-93444341D01*
X57904596Y-93464936D01*
X57904586Y-93464938D01*
X57676344Y-93526094D01*
X57676335Y-93526098D01*
X57462171Y-93625964D01*
X57462169Y-93625965D01*
X57268597Y-93761505D01*
X57101505Y-93928597D01*
X56965965Y-94122169D01*
X56965964Y-94122171D01*
X56866098Y-94336335D01*
X56866094Y-94336344D01*
X56804938Y-94564586D01*
X56804936Y-94564596D01*
X56784341Y-94799999D01*
X56784341Y-94800000D01*
X56804936Y-95035403D01*
X56804938Y-95035413D01*
X56866094Y-95263655D01*
X56866096Y-95263659D01*
X56866097Y-95263663D01*
X56870000Y-95272032D01*
X56965965Y-95477830D01*
X56965967Y-95477834D01*
X57074281Y-95632521D01*
X57101505Y-95671401D01*
X57268599Y-95838495D01*
X57365384Y-95906265D01*
X57462165Y-95974032D01*
X57462167Y-95974033D01*
X57462170Y-95974035D01*
X57676337Y-96073903D01*
X57904592Y-96135063D01*
X58081034Y-96150500D01*
X58139999Y-96155659D01*
X58140000Y-96155659D01*
X58140001Y-96155659D01*
X58198966Y-96150500D01*
X58375408Y-96135063D01*
X58603663Y-96073903D01*
X58817830Y-95974035D01*
X59011401Y-95838495D01*
X59178495Y-95671401D01*
X59308425Y-95485842D01*
X59363002Y-95442217D01*
X59432500Y-95435023D01*
X59494855Y-95466546D01*
X59511575Y-95485842D01*
X59641500Y-95671395D01*
X59641505Y-95671401D01*
X59808599Y-95838495D01*
X59905384Y-95906265D01*
X60002165Y-95974032D01*
X60002167Y-95974033D01*
X60002170Y-95974035D01*
X60216337Y-96073903D01*
X60444592Y-96135063D01*
X60621034Y-96150500D01*
X60679999Y-96155659D01*
X60680000Y-96155659D01*
X60680001Y-96155659D01*
X60738966Y-96150500D01*
X60915408Y-96135063D01*
X61143663Y-96073903D01*
X61357830Y-95974035D01*
X61551401Y-95838495D01*
X61718495Y-95671401D01*
X61848425Y-95485842D01*
X61903002Y-95442217D01*
X61972500Y-95435023D01*
X62034855Y-95466546D01*
X62051575Y-95485842D01*
X62181500Y-95671395D01*
X62181505Y-95671401D01*
X62348599Y-95838495D01*
X62445384Y-95906265D01*
X62542165Y-95974032D01*
X62542167Y-95974033D01*
X62542170Y-95974035D01*
X62756337Y-96073903D01*
X62984592Y-96135063D01*
X63161034Y-96150500D01*
X63219999Y-96155659D01*
X63220000Y-96155659D01*
X63220001Y-96155659D01*
X63278966Y-96150500D01*
X63455408Y-96135063D01*
X63683663Y-96073903D01*
X63897830Y-95974035D01*
X64091401Y-95838495D01*
X64258495Y-95671401D01*
X64388425Y-95485842D01*
X64443002Y-95442217D01*
X64512500Y-95435023D01*
X64574855Y-95466546D01*
X64591575Y-95485842D01*
X64721500Y-95671395D01*
X64721505Y-95671401D01*
X64888599Y-95838495D01*
X64985384Y-95906265D01*
X65082165Y-95974032D01*
X65082167Y-95974033D01*
X65082170Y-95974035D01*
X65296337Y-96073903D01*
X65524592Y-96135063D01*
X65701034Y-96150500D01*
X65759999Y-96155659D01*
X65760000Y-96155659D01*
X65760001Y-96155659D01*
X65818966Y-96150500D01*
X65995408Y-96135063D01*
X66223663Y-96073903D01*
X66437830Y-95974035D01*
X66631401Y-95838495D01*
X66798495Y-95671401D01*
X66928425Y-95485842D01*
X66983002Y-95442217D01*
X67052500Y-95435023D01*
X67114855Y-95466546D01*
X67131575Y-95485842D01*
X67261500Y-95671395D01*
X67261505Y-95671401D01*
X67428599Y-95838495D01*
X67525384Y-95906265D01*
X67622165Y-95974032D01*
X67622167Y-95974033D01*
X67622170Y-95974035D01*
X67836337Y-96073903D01*
X68064592Y-96135063D01*
X68241034Y-96150500D01*
X68299999Y-96155659D01*
X68300000Y-96155659D01*
X68300001Y-96155659D01*
X68358966Y-96150500D01*
X68535408Y-96135063D01*
X68763663Y-96073903D01*
X68977830Y-95974035D01*
X69171401Y-95838495D01*
X69338495Y-95671401D01*
X69474035Y-95477830D01*
X69573903Y-95263663D01*
X69635063Y-95035408D01*
X69655659Y-94800000D01*
X69652561Y-94764596D01*
X69635063Y-94564596D01*
X69635063Y-94564592D01*
X69573903Y-94336337D01*
X69474035Y-94122171D01*
X69468425Y-94114158D01*
X69338494Y-93928597D01*
X69234150Y-93824254D01*
X74024100Y-93824254D01*
X74024100Y-96171544D01*
X74059696Y-96350497D01*
X74062548Y-96364832D01*
X74062550Y-96364840D01*
X74137964Y-96546907D01*
X74137971Y-96546920D01*
X74247460Y-96710781D01*
X74247463Y-96710785D01*
X74391137Y-96854459D01*
X74391159Y-96854479D01*
X74693135Y-97156455D01*
X74693164Y-97156486D01*
X74835614Y-97298936D01*
X74835618Y-97298939D01*
X74999479Y-97408428D01*
X74999492Y-97408435D01*
X75128233Y-97461761D01*
X75171144Y-97479535D01*
X75181564Y-97483851D01*
X75278212Y-97503075D01*
X75326535Y-97512687D01*
X75374858Y-97522300D01*
X75374859Y-97522300D01*
X80216742Y-97522300D01*
X80236070Y-97518455D01*
X80313388Y-97503075D01*
X80410036Y-97483851D01*
X80463365Y-97461761D01*
X80592114Y-97408432D01*
X80755982Y-97298939D01*
X80895339Y-97159582D01*
X80895340Y-97159579D01*
X80902406Y-97152514D01*
X80902409Y-97152510D01*
X81673030Y-96381888D01*
X81734351Y-96348405D01*
X81749894Y-96346044D01*
X81875408Y-96335063D01*
X82103663Y-96273903D01*
X82317830Y-96174035D01*
X82511401Y-96038495D01*
X82678495Y-95871401D01*
X82808425Y-95685842D01*
X82863002Y-95642217D01*
X82932500Y-95635023D01*
X82994855Y-95666546D01*
X83011575Y-95685842D01*
X83141500Y-95871395D01*
X83141505Y-95871401D01*
X83308599Y-96038495D01*
X83359164Y-96073901D01*
X83502165Y-96174032D01*
X83502167Y-96174033D01*
X83502170Y-96174035D01*
X83716337Y-96273903D01*
X83944592Y-96335063D01*
X84121034Y-96350500D01*
X84179999Y-96355659D01*
X84180000Y-96355659D01*
X84180001Y-96355659D01*
X84238966Y-96350500D01*
X84415408Y-96335063D01*
X84643663Y-96273903D01*
X84857830Y-96174035D01*
X85051401Y-96038495D01*
X85218495Y-95871401D01*
X85354035Y-95677830D01*
X85453903Y-95463663D01*
X85515063Y-95235408D01*
X85535659Y-95000000D01*
X85515063Y-94764592D01*
X85453903Y-94536337D01*
X85354035Y-94322171D01*
X85348425Y-94314158D01*
X85218494Y-94128597D01*
X85051402Y-93961506D01*
X85051395Y-93961501D01*
X84857834Y-93825967D01*
X84857830Y-93825965D01*
X84814344Y-93805687D01*
X84643663Y-93726097D01*
X84643659Y-93726096D01*
X84643655Y-93726094D01*
X84415413Y-93664938D01*
X84415403Y-93664936D01*
X84180001Y-93644341D01*
X84179999Y-93644341D01*
X83944596Y-93664936D01*
X83944586Y-93664938D01*
X83716344Y-93726094D01*
X83716335Y-93726098D01*
X83502171Y-93825964D01*
X83502169Y-93825965D01*
X83308597Y-93961505D01*
X83141505Y-94128597D01*
X83011575Y-94314158D01*
X82956998Y-94357783D01*
X82887500Y-94364977D01*
X82825145Y-94333454D01*
X82808425Y-94314158D01*
X82678494Y-94128597D01*
X82511402Y-93961506D01*
X82511395Y-93961501D01*
X82317834Y-93825967D01*
X82317830Y-93825965D01*
X82274344Y-93805687D01*
X82103663Y-93726097D01*
X82103659Y-93726096D01*
X82103655Y-93726094D01*
X81875413Y-93664938D01*
X81875403Y-93664936D01*
X81640001Y-93644341D01*
X81639999Y-93644341D01*
X81404596Y-93664936D01*
X81404586Y-93664938D01*
X81176344Y-93726094D01*
X81176335Y-93726098D01*
X80962171Y-93825964D01*
X80962169Y-93825965D01*
X80768597Y-93961505D01*
X80601505Y-94128597D01*
X80471575Y-94314158D01*
X80416998Y-94357783D01*
X80347500Y-94364977D01*
X80285145Y-94333454D01*
X80268425Y-94314158D01*
X80138494Y-94128597D01*
X80136819Y-94126922D01*
X80136315Y-94126000D01*
X80135014Y-94124449D01*
X80135325Y-94124187D01*
X80103334Y-94065599D01*
X80100500Y-94039241D01*
X80100500Y-93615781D01*
X80120185Y-93548742D01*
X80136814Y-93528105D01*
X92434178Y-81230741D01*
X92434182Y-81230739D01*
X92573539Y-81091382D01*
X92683032Y-80927514D01*
X92683035Y-80927507D01*
X92751133Y-80763103D01*
X92751134Y-80763099D01*
X92758451Y-80745436D01*
X92790376Y-80584937D01*
X92796900Y-80552141D01*
X92796900Y-65761759D01*
X92796900Y-65761756D01*
X92772239Y-65637782D01*
X92758451Y-65568464D01*
X92703656Y-65436177D01*
X92703656Y-65436176D01*
X92683035Y-65386392D01*
X92683028Y-65386379D01*
X92573540Y-65222519D01*
X92508588Y-65157567D01*
X92434182Y-65083161D01*
X92434181Y-65083160D01*
X91696087Y-64345066D01*
X91027052Y-63676031D01*
X90993567Y-63614708D01*
X90998551Y-63545016D01*
X91027050Y-63500670D01*
X91159139Y-63368582D01*
X91268632Y-63204714D01*
X91344051Y-63022635D01*
X91357161Y-62956726D01*
X91382500Y-62829343D01*
X91382500Y-61937675D01*
X91382501Y-61937654D01*
X91382501Y-61734457D01*
X91382500Y-61734455D01*
X91366557Y-61654304D01*
X91344052Y-61541165D01*
X91268632Y-61359086D01*
X91268631Y-61359085D01*
X91268628Y-61359079D01*
X91159140Y-61195219D01*
X91159137Y-61195215D01*
X90428209Y-60464289D01*
X90428206Y-60464285D01*
X90428206Y-60464286D01*
X90421139Y-60457219D01*
X90421139Y-60457218D01*
X90281782Y-60317861D01*
X90281781Y-60317860D01*
X90281780Y-60317859D01*
X90117920Y-60208371D01*
X90117911Y-60208366D01*
X90035445Y-60174208D01*
X89989165Y-60155038D01*
X89935836Y-60132949D01*
X89935832Y-60132948D01*
X89935828Y-60132946D01*
X89839188Y-60113724D01*
X89742544Y-60094500D01*
X89742541Y-60094500D01*
X88651459Y-60094500D01*
X88651457Y-60094500D01*
X88458170Y-60132947D01*
X88458160Y-60132950D01*
X88276088Y-60208366D01*
X88178456Y-60273602D01*
X88111778Y-60294480D01*
X88109565Y-60294500D01*
X87859298Y-60294500D01*
X87822432Y-60297401D01*
X87822426Y-60297402D01*
X87664606Y-60343254D01*
X87664603Y-60343255D01*
X87523137Y-60426917D01*
X87523129Y-60426923D01*
X87406923Y-60543129D01*
X87406917Y-60543137D01*
X87323255Y-60684603D01*
X87323254Y-60684606D01*
X87277402Y-60842426D01*
X87277401Y-60842432D01*
X87274500Y-60879298D01*
X87274500Y-61310701D01*
X87277401Y-61347567D01*
X87277402Y-61347573D01*
X87323254Y-61505393D01*
X87323255Y-61505396D01*
X87323256Y-61505398D01*
X87344413Y-61541172D01*
X87406917Y-61646862D01*
X87406923Y-61646870D01*
X87523129Y-61763076D01*
X87523133Y-61763079D01*
X87523135Y-61763081D01*
X87664602Y-61846744D01*
X87706224Y-61858836D01*
X87822426Y-61892597D01*
X87822429Y-61892597D01*
X87822431Y-61892598D01*
X87859306Y-61895500D01*
X88109565Y-61895500D01*
X88176604Y-61915185D01*
X88178456Y-61916398D01*
X88276086Y-61981632D01*
X88458165Y-62057051D01*
X88458169Y-62057051D01*
X88458170Y-62057052D01*
X88651456Y-62095500D01*
X88651459Y-62095500D01*
X89178218Y-62095500D01*
X89245257Y-62115185D01*
X89265899Y-62131819D01*
X89345181Y-62211101D01*
X89378666Y-62272424D01*
X89381500Y-62298782D01*
X89381500Y-62457548D01*
X89361815Y-62524587D01*
X89309011Y-62570342D01*
X89281701Y-62579163D01*
X89279276Y-62579645D01*
X89279266Y-62579648D01*
X89216876Y-62605491D01*
X89169628Y-62625061D01*
X89122178Y-62634500D01*
X89093857Y-62634500D01*
X88900570Y-62672947D01*
X88900560Y-62672950D01*
X88718488Y-62748366D01*
X88620856Y-62813602D01*
X88554178Y-62834480D01*
X88551965Y-62834500D01*
X87859298Y-62834500D01*
X87822432Y-62837401D01*
X87822426Y-62837402D01*
X87664606Y-62883254D01*
X87664603Y-62883255D01*
X87523137Y-62966917D01*
X87523129Y-62966923D01*
X87406923Y-63083129D01*
X87406917Y-63083137D01*
X87323255Y-63224603D01*
X87323254Y-63224606D01*
X87277402Y-63382426D01*
X87277401Y-63382432D01*
X87274500Y-63419298D01*
X87274500Y-63850701D01*
X87277401Y-63887567D01*
X87277402Y-63887573D01*
X87323254Y-64045393D01*
X87323255Y-64045396D01*
X87406917Y-64186862D01*
X87411702Y-64193031D01*
X87409256Y-64194927D01*
X87435857Y-64243642D01*
X87430873Y-64313334D01*
X87410069Y-64345703D01*
X87411702Y-64346969D01*
X87406917Y-64353137D01*
X87323255Y-64494603D01*
X87323254Y-64494606D01*
X87277402Y-64652426D01*
X87277401Y-64652432D01*
X87274500Y-64689298D01*
X87274500Y-65120701D01*
X87277401Y-65157567D01*
X87277402Y-65157573D01*
X87323254Y-65315393D01*
X87323255Y-65315396D01*
X87406917Y-65456862D01*
X87406923Y-65456870D01*
X87523129Y-65573076D01*
X87523133Y-65573079D01*
X87523135Y-65573081D01*
X87523137Y-65573082D01*
X87664600Y-65656743D01*
X87671764Y-65659843D01*
X87670729Y-65662233D01*
X87718957Y-65693013D01*
X87748182Y-65756477D01*
X87749500Y-65774510D01*
X87749500Y-67535537D01*
X87747117Y-67559729D01*
X87741800Y-67586458D01*
X87741800Y-67783544D01*
X87780247Y-67976828D01*
X87780249Y-67976836D01*
X87855667Y-68158910D01*
X87855672Y-68158920D01*
X87965160Y-68322780D01*
X87965163Y-68322784D01*
X88104515Y-68462136D01*
X88104519Y-68462139D01*
X88268379Y-68571627D01*
X88268383Y-68571629D01*
X88268386Y-68571631D01*
X88450464Y-68647051D01*
X88643755Y-68685499D01*
X88643758Y-68685500D01*
X88643760Y-68685500D01*
X88840842Y-68685500D01*
X88840843Y-68685499D01*
X89034136Y-68647051D01*
X89216214Y-68571631D01*
X89380081Y-68462139D01*
X89387779Y-68454440D01*
X89387782Y-68454439D01*
X89527139Y-68315082D01*
X89636632Y-68151214D01*
X89689429Y-68023749D01*
X89712051Y-67969136D01*
X89750500Y-67775841D01*
X89750500Y-67578760D01*
X89750500Y-65774510D01*
X89770185Y-65707471D01*
X89822989Y-65661716D01*
X89829450Y-65659317D01*
X89835390Y-65656746D01*
X89835398Y-65656744D01*
X89967844Y-65578416D01*
X90035568Y-65561233D01*
X90101831Y-65583393D01*
X90118646Y-65597467D01*
X90759581Y-66238401D01*
X90793066Y-66299724D01*
X90795900Y-66326082D01*
X90795900Y-75043718D01*
X90776215Y-75110757D01*
X90723411Y-75156512D01*
X90654253Y-75166456D01*
X90624450Y-75158280D01*
X90587436Y-75142949D01*
X90587428Y-75142946D01*
X90490788Y-75123724D01*
X90394144Y-75104500D01*
X90394141Y-75104500D01*
X88526459Y-75104500D01*
X88526457Y-75104500D01*
X88333170Y-75142947D01*
X88333160Y-75142950D01*
X88151088Y-75218366D01*
X88053456Y-75283602D01*
X87986778Y-75304480D01*
X87984565Y-75304500D01*
X87734298Y-75304500D01*
X87697432Y-75307401D01*
X87697426Y-75307402D01*
X87539606Y-75353254D01*
X87539603Y-75353255D01*
X87398137Y-75436917D01*
X87398129Y-75436923D01*
X87281923Y-75553129D01*
X87281917Y-75553137D01*
X87198255Y-75694603D01*
X87198254Y-75694606D01*
X87152402Y-75852426D01*
X87152401Y-75852432D01*
X87149500Y-75889298D01*
X87149500Y-76320701D01*
X87152401Y-76357567D01*
X87152402Y-76357573D01*
X87198254Y-76515393D01*
X87198255Y-76515396D01*
X87281917Y-76656862D01*
X87281923Y-76656870D01*
X87398129Y-76773076D01*
X87398133Y-76773079D01*
X87398135Y-76773081D01*
X87539602Y-76856744D01*
X87581224Y-76868836D01*
X87697426Y-76902597D01*
X87697429Y-76902597D01*
X87697431Y-76902598D01*
X87734306Y-76905500D01*
X87984565Y-76905500D01*
X88051604Y-76925185D01*
X88053456Y-76926398D01*
X88151086Y-76991632D01*
X88333165Y-77067051D01*
X88333169Y-77067051D01*
X88333170Y-77067052D01*
X88526456Y-77105500D01*
X88526459Y-77105500D01*
X89829818Y-77105500D01*
X89896857Y-77125185D01*
X89917494Y-77141814D01*
X90020021Y-77244341D01*
X90025420Y-77249740D01*
X90189279Y-77359227D01*
X90189283Y-77359229D01*
X90189286Y-77359231D01*
X90371364Y-77434651D01*
X90564655Y-77473099D01*
X90564658Y-77473100D01*
X90671900Y-77473100D01*
X90738939Y-77492785D01*
X90784694Y-77545589D01*
X90795900Y-77597100D01*
X90795900Y-78280517D01*
X90776215Y-78347556D01*
X90723411Y-78393311D01*
X90654253Y-78403255D01*
X90590697Y-78374230D01*
X90584219Y-78368198D01*
X90230309Y-78014289D01*
X90230306Y-78014285D01*
X90230306Y-78014286D01*
X90223239Y-78007219D01*
X90223239Y-78007218D01*
X90083882Y-77867861D01*
X90083881Y-77867860D01*
X90083880Y-77867859D01*
X89920017Y-77758369D01*
X89920014Y-77758368D01*
X89784235Y-77702127D01*
X89737934Y-77682948D01*
X89737929Y-77682946D01*
X89641288Y-77663724D01*
X89544644Y-77644500D01*
X89544641Y-77644500D01*
X88526459Y-77644500D01*
X88526457Y-77644500D01*
X88333170Y-77682947D01*
X88333160Y-77682950D01*
X88151088Y-77758366D01*
X88053456Y-77823602D01*
X87986778Y-77844480D01*
X87984565Y-77844500D01*
X87734298Y-77844500D01*
X87697432Y-77847401D01*
X87697426Y-77847402D01*
X87539606Y-77893254D01*
X87539603Y-77893255D01*
X87398137Y-77976917D01*
X87398129Y-77976923D01*
X87281923Y-78093129D01*
X87281917Y-78093137D01*
X87198255Y-78234603D01*
X87198254Y-78234606D01*
X87152402Y-78392426D01*
X87152401Y-78392432D01*
X87149500Y-78429298D01*
X87149500Y-78860701D01*
X87152401Y-78897567D01*
X87152402Y-78897573D01*
X87198254Y-79055393D01*
X87198255Y-79055396D01*
X87198256Y-79055398D01*
X87208093Y-79072032D01*
X87281917Y-79196862D01*
X87286702Y-79203031D01*
X87284256Y-79204927D01*
X87310857Y-79253642D01*
X87305873Y-79323334D01*
X87285069Y-79355703D01*
X87286702Y-79356969D01*
X87281917Y-79363137D01*
X87198255Y-79504603D01*
X87198254Y-79504606D01*
X87152402Y-79662426D01*
X87152401Y-79662432D01*
X87149500Y-79699298D01*
X87149500Y-80130701D01*
X87152401Y-80167563D01*
X87152402Y-80167569D01*
X87157192Y-80184057D01*
X87159731Y-80242837D01*
X87158029Y-80251402D01*
X87150200Y-80290760D01*
X87150200Y-80884900D01*
X87130515Y-80951939D01*
X87077711Y-80997694D01*
X87026200Y-81008900D01*
X86839457Y-81008900D01*
X86778525Y-81021020D01*
X86748058Y-81027081D01*
X86646167Y-81047347D01*
X86646159Y-81047350D01*
X86592834Y-81069437D01*
X86592834Y-81069438D01*
X86547315Y-81088292D01*
X86464089Y-81122766D01*
X86464079Y-81122771D01*
X86300219Y-81232259D01*
X86234662Y-81297817D01*
X86160861Y-81371618D01*
X86160858Y-81371621D01*
X74386821Y-93145658D01*
X74386818Y-93145661D01*
X74317138Y-93215340D01*
X74247459Y-93285019D01*
X74137971Y-93448879D01*
X74137966Y-93448889D01*
X74084638Y-93577631D01*
X74084638Y-93577634D01*
X74065470Y-93623914D01*
X74064620Y-93625967D01*
X74062549Y-93630965D01*
X74062546Y-93630974D01*
X74024100Y-93824254D01*
X69234150Y-93824254D01*
X69171402Y-93761506D01*
X69171395Y-93761501D01*
X68977834Y-93625967D01*
X68977830Y-93625965D01*
X68941912Y-93609216D01*
X68763663Y-93526097D01*
X68763659Y-93526096D01*
X68763655Y-93526094D01*
X68535413Y-93464938D01*
X68535403Y-93464936D01*
X68300001Y-93444341D01*
X68299999Y-93444341D01*
X68064596Y-93464936D01*
X68064586Y-93464938D01*
X67836344Y-93526094D01*
X67836335Y-93526098D01*
X67622171Y-93625964D01*
X67622169Y-93625965D01*
X67428597Y-93761505D01*
X67261505Y-93928597D01*
X67131575Y-94114158D01*
X67076998Y-94157783D01*
X67007500Y-94164977D01*
X66945145Y-94133454D01*
X66928425Y-94114158D01*
X66798494Y-93928597D01*
X66631402Y-93761506D01*
X66631395Y-93761501D01*
X66437834Y-93625967D01*
X66437830Y-93625965D01*
X66401912Y-93609216D01*
X66223663Y-93526097D01*
X66223659Y-93526096D01*
X66223655Y-93526094D01*
X65995413Y-93464938D01*
X65995403Y-93464936D01*
X65760001Y-93444341D01*
X65759999Y-93444341D01*
X65524596Y-93464936D01*
X65524586Y-93464938D01*
X65296344Y-93526094D01*
X65296335Y-93526098D01*
X65082171Y-93625964D01*
X65082169Y-93625965D01*
X64888597Y-93761505D01*
X64721505Y-93928597D01*
X64591575Y-94114158D01*
X64536998Y-94157783D01*
X64467500Y-94164977D01*
X64405145Y-94133454D01*
X64388425Y-94114158D01*
X64258494Y-93928597D01*
X64091402Y-93761506D01*
X64091395Y-93761501D01*
X63897834Y-93625967D01*
X63897830Y-93625965D01*
X63861912Y-93609216D01*
X63683663Y-93526097D01*
X63683658Y-93526095D01*
X63683649Y-93526092D01*
X63642810Y-93515149D01*
X63583150Y-93478784D01*
X63552622Y-93415936D01*
X63560917Y-93346561D01*
X63587221Y-93307697D01*
X75943101Y-80951819D01*
X76004424Y-80918334D01*
X76030782Y-80915500D01*
X83773543Y-80915500D01*
X83903582Y-80889632D01*
X83966835Y-80877051D01*
X84148914Y-80801632D01*
X84246544Y-80736398D01*
X84313222Y-80715520D01*
X84315435Y-80715500D01*
X84565686Y-80715500D01*
X84565694Y-80715500D01*
X84602569Y-80712598D01*
X84602571Y-80712597D01*
X84602573Y-80712597D01*
X84656264Y-80696998D01*
X84760398Y-80666744D01*
X84901865Y-80583081D01*
X85018081Y-80466865D01*
X85101744Y-80325398D01*
X85147598Y-80167569D01*
X85150500Y-80130694D01*
X85150500Y-79699306D01*
X85147598Y-79662431D01*
X85142679Y-79645501D01*
X85101745Y-79504606D01*
X85101744Y-79504603D01*
X85101744Y-79504602D01*
X85018081Y-79363135D01*
X85018078Y-79363132D01*
X85013298Y-79356969D01*
X85015750Y-79355066D01*
X84989155Y-79306421D01*
X84994104Y-79236726D01*
X85014940Y-79204304D01*
X85013298Y-79203031D01*
X85018075Y-79196870D01*
X85018081Y-79196865D01*
X85101744Y-79055398D01*
X85147598Y-78897569D01*
X85150500Y-78860694D01*
X85150500Y-78429306D01*
X85147598Y-78392431D01*
X85139508Y-78364586D01*
X85101745Y-78234606D01*
X85101744Y-78234603D01*
X85101744Y-78234602D01*
X85018081Y-78093135D01*
X85018078Y-78093132D01*
X85013298Y-78086969D01*
X85015750Y-78085066D01*
X84989155Y-78036421D01*
X84994104Y-77966726D01*
X85014940Y-77934304D01*
X85013298Y-77933031D01*
X85018084Y-77926861D01*
X85065075Y-77847402D01*
X85101744Y-77785398D01*
X85143255Y-77642517D01*
X85147597Y-77627573D01*
X85147598Y-77627567D01*
X85148212Y-77619767D01*
X85150500Y-77590694D01*
X85150500Y-77159306D01*
X85147598Y-77122431D01*
X85133936Y-77075408D01*
X85101745Y-76964606D01*
X85101744Y-76964603D01*
X85101744Y-76964602D01*
X85018081Y-76823135D01*
X85018078Y-76823132D01*
X85013298Y-76816969D01*
X85015750Y-76815066D01*
X84989155Y-76766421D01*
X84994104Y-76696726D01*
X85014940Y-76664304D01*
X85013298Y-76663031D01*
X85018075Y-76656870D01*
X85018081Y-76656865D01*
X85101744Y-76515398D01*
X85147598Y-76357569D01*
X85150500Y-76320694D01*
X85150500Y-75889306D01*
X85147598Y-75852431D01*
X85132802Y-75801505D01*
X85101745Y-75694606D01*
X85101744Y-75694603D01*
X85101744Y-75694602D01*
X85018081Y-75553135D01*
X85018079Y-75553133D01*
X85018076Y-75553129D01*
X84901870Y-75436923D01*
X84901862Y-75436917D01*
X84760396Y-75353255D01*
X84760393Y-75353254D01*
X84602573Y-75307402D01*
X84602567Y-75307401D01*
X84565701Y-75304500D01*
X84565694Y-75304500D01*
X84315435Y-75304500D01*
X84248396Y-75284815D01*
X84246544Y-75283602D01*
X84148911Y-75218366D01*
X83966839Y-75142950D01*
X83966829Y-75142947D01*
X83773543Y-75104500D01*
X83773541Y-75104500D01*
X75500782Y-75104500D01*
X75433743Y-75084815D01*
X75413101Y-75068181D01*
X73304598Y-72959678D01*
X73273013Y-72905932D01*
X73224229Y-72734472D01*
X73195943Y-72677666D01*
X73125061Y-72535316D01*
X73125056Y-72535308D01*
X72990979Y-72357761D01*
X72826562Y-72207876D01*
X72826560Y-72207874D01*
X72637404Y-72090754D01*
X72637398Y-72090752D01*
X72429940Y-72010382D01*
X72211243Y-71969500D01*
X71988757Y-71969500D01*
X71770060Y-72010382D01*
X71684831Y-72043400D01*
X71562601Y-72090752D01*
X71562595Y-72090754D01*
X71373439Y-72207874D01*
X71373437Y-72207876D01*
X71209020Y-72357761D01*
X71074943Y-72535308D01*
X71074938Y-72535316D01*
X70975775Y-72734461D01*
X70975769Y-72734476D01*
X70914885Y-72948462D01*
X70914884Y-72948464D01*
X70894357Y-73169996D01*
X70914884Y-73391535D01*
X70914885Y-73391537D01*
X70975769Y-73605523D01*
X70975775Y-73605538D01*
X71074938Y-73804683D01*
X71074943Y-73804691D01*
X71209020Y-73982238D01*
X71373437Y-74132123D01*
X71373439Y-74132125D01*
X71562595Y-74249245D01*
X71562596Y-74249245D01*
X71562599Y-74249247D01*
X71770060Y-74329618D01*
X71824115Y-74339722D01*
X71886395Y-74371390D01*
X71889010Y-74373930D01*
X73737599Y-76222519D01*
X73771084Y-76283842D01*
X73766100Y-76353534D01*
X73724228Y-76409467D01*
X73658764Y-76433884D01*
X73649918Y-76434200D01*
X71087582Y-76434200D01*
X71020543Y-76414515D01*
X70999901Y-76397881D01*
X65565079Y-70963059D01*
X65565059Y-70963037D01*
X65421385Y-70819363D01*
X65421381Y-70819360D01*
X65257520Y-70709871D01*
X65257511Y-70709866D01*
X65184915Y-70679796D01*
X65128765Y-70656538D01*
X65075436Y-70634449D01*
X65075432Y-70634448D01*
X65075428Y-70634446D01*
X64978788Y-70615224D01*
X64882144Y-70596000D01*
X64882141Y-70596000D01*
X62858282Y-70596000D01*
X62791243Y-70576315D01*
X62745488Y-70523511D01*
X62735544Y-70454353D01*
X62764569Y-70390797D01*
X62770601Y-70384319D01*
X64733360Y-68421560D01*
X66773031Y-66381888D01*
X66834352Y-66348405D01*
X66849896Y-66346044D01*
X66975408Y-66335063D01*
X67203663Y-66273903D01*
X67417830Y-66174035D01*
X67611401Y-66038495D01*
X67778495Y-65871401D01*
X67914035Y-65677830D01*
X68013903Y-65463663D01*
X68075063Y-65235408D01*
X68095659Y-65000000D01*
X68075063Y-64764592D01*
X68045010Y-64652431D01*
X68031335Y-64601393D01*
X68032998Y-64531543D01*
X68072161Y-64473681D01*
X68136390Y-64446177D01*
X68151110Y-64445300D01*
X69964902Y-64445300D01*
X70031941Y-64464985D01*
X70033756Y-64466174D01*
X70102686Y-64512231D01*
X70284764Y-64587651D01*
X70478055Y-64626099D01*
X70478058Y-64626100D01*
X70478060Y-64626100D01*
X70675142Y-64626100D01*
X70675143Y-64626099D01*
X70868436Y-64587651D01*
X71050514Y-64512231D01*
X71147394Y-64447498D01*
X71214071Y-64426620D01*
X71216285Y-64426600D01*
X82227860Y-64426600D01*
X82294899Y-64446285D01*
X82340654Y-64499089D01*
X82350598Y-64568247D01*
X82346936Y-64585196D01*
X82327402Y-64652429D01*
X82327401Y-64652432D01*
X82324500Y-64689298D01*
X82324500Y-65120701D01*
X82327401Y-65157567D01*
X82327402Y-65157573D01*
X82373254Y-65315393D01*
X82373255Y-65315396D01*
X82456917Y-65456862D01*
X82456923Y-65456870D01*
X82573129Y-65573076D01*
X82573133Y-65573079D01*
X82573135Y-65573081D01*
X82573137Y-65573082D01*
X82714600Y-65656743D01*
X82721764Y-65659843D01*
X82720729Y-65662233D01*
X82768957Y-65693013D01*
X82798182Y-65756477D01*
X82799500Y-65774510D01*
X82799500Y-68054317D01*
X82779815Y-68121356D01*
X82763181Y-68141998D01*
X79168563Y-71736615D01*
X79168560Y-71736619D01*
X79059072Y-71900479D01*
X79059067Y-71900489D01*
X78983649Y-72082563D01*
X78983647Y-72082571D01*
X78945200Y-72275855D01*
X78945200Y-72472944D01*
X78983647Y-72666228D01*
X78983649Y-72666236D01*
X79059067Y-72848310D01*
X79059072Y-72848320D01*
X79168560Y-73012180D01*
X79168563Y-73012184D01*
X79307915Y-73151536D01*
X79307919Y-73151539D01*
X79471779Y-73261027D01*
X79471783Y-73261029D01*
X79471786Y-73261031D01*
X79653864Y-73336451D01*
X79847155Y-73374899D01*
X79847158Y-73374900D01*
X79847160Y-73374900D01*
X80044242Y-73374900D01*
X80044243Y-73374899D01*
X80237536Y-73336451D01*
X80419614Y-73261031D01*
X80583481Y-73151539D01*
X84577139Y-69157882D01*
X84629900Y-69078919D01*
X84686631Y-68994016D01*
X84686636Y-68994006D01*
X84762049Y-68811939D01*
X84762051Y-68811935D01*
X84782487Y-68709200D01*
X84800500Y-68618641D01*
X84800500Y-68421560D01*
X84800500Y-65774510D01*
X84820185Y-65707471D01*
X84872989Y-65661716D01*
X84879450Y-65659317D01*
X84885394Y-65656745D01*
X84885398Y-65656744D01*
X85026865Y-65573081D01*
X85143081Y-65456865D01*
X85226744Y-65315398D01*
X85272598Y-65157569D01*
X85275500Y-65120694D01*
X85275500Y-64689306D01*
X85272598Y-64652431D01*
X85272597Y-64652429D01*
X85272597Y-64652426D01*
X85237476Y-64531543D01*
X85226744Y-64494602D01*
X85143081Y-64353135D01*
X85143078Y-64353132D01*
X85138298Y-64346969D01*
X85140750Y-64345066D01*
X85114155Y-64296421D01*
X85119104Y-64226726D01*
X85139940Y-64194304D01*
X85138298Y-64193031D01*
X85143075Y-64186870D01*
X85143081Y-64186865D01*
X85226744Y-64045398D01*
X85272598Y-63887569D01*
X85275500Y-63850694D01*
X85275500Y-63419306D01*
X85272598Y-63382431D01*
X85271454Y-63378495D01*
X85226745Y-63224606D01*
X85226744Y-63224603D01*
X85226744Y-63224602D01*
X85143081Y-63083135D01*
X85143078Y-63083132D01*
X85138298Y-63076969D01*
X85140750Y-63075066D01*
X85114155Y-63026421D01*
X85119104Y-62956726D01*
X85139940Y-62924304D01*
X85138298Y-62923031D01*
X85143075Y-62916870D01*
X85143081Y-62916865D01*
X85226744Y-62775398D01*
X85272598Y-62617569D01*
X85275500Y-62580694D01*
X85275500Y-62149306D01*
X85272598Y-62112431D01*
X85268275Y-62097552D01*
X85226745Y-61954606D01*
X85226744Y-61954603D01*
X85226744Y-61954602D01*
X85143081Y-61813135D01*
X85143078Y-61813132D01*
X85138298Y-61806969D01*
X85140750Y-61805066D01*
X85114155Y-61756421D01*
X85119104Y-61686726D01*
X85139940Y-61654304D01*
X85138298Y-61653031D01*
X85143075Y-61646870D01*
X85143081Y-61646865D01*
X85226744Y-61505398D01*
X85260505Y-61389191D01*
X85272597Y-61347573D01*
X85272598Y-61347567D01*
X85275499Y-61310701D01*
X85275500Y-61310694D01*
X85275500Y-60879306D01*
X85272598Y-60842431D01*
X85271455Y-60838498D01*
X85226745Y-60684606D01*
X85226744Y-60684603D01*
X85226744Y-60684602D01*
X85143081Y-60543135D01*
X85143079Y-60543133D01*
X85143076Y-60543129D01*
X85026870Y-60426923D01*
X85026862Y-60426917D01*
X84885396Y-60343255D01*
X84885393Y-60343254D01*
X84727573Y-60297402D01*
X84727567Y-60297401D01*
X84690701Y-60294500D01*
X84690694Y-60294500D01*
X84440435Y-60294500D01*
X84373396Y-60274815D01*
X84371544Y-60273602D01*
X84273911Y-60208366D01*
X84091839Y-60132950D01*
X84091829Y-60132947D01*
X83898543Y-60094500D01*
X83898541Y-60094500D01*
X75770329Y-60094500D01*
X75703290Y-60074815D01*
X75657535Y-60022011D01*
X75655767Y-60017951D01*
X75650229Y-60004581D01*
X75540742Y-59840722D01*
X75540736Y-59840714D01*
X73412201Y-57712181D01*
X73378716Y-57650858D01*
X73383700Y-57581166D01*
X73425572Y-57525233D01*
X73491036Y-57500816D01*
X73499882Y-57500500D01*
X75298542Y-57500500D01*
X75324164Y-57495403D01*
X75395188Y-57481275D01*
X75491836Y-57462051D01*
X75545165Y-57439961D01*
X75673914Y-57386632D01*
X75837782Y-57277139D01*
X75977139Y-57137782D01*
X75977140Y-57137779D01*
X75984206Y-57130714D01*
X75984208Y-57130710D01*
X78015559Y-55099360D01*
X78076880Y-55065877D01*
X78146572Y-55070861D01*
X78202505Y-55112733D01*
X78219420Y-55143710D01*
X78256202Y-55242328D01*
X78256206Y-55242335D01*
X78342452Y-55357544D01*
X78342455Y-55357547D01*
X78457664Y-55443793D01*
X78457671Y-55443797D01*
X78592517Y-55494091D01*
X78592516Y-55494091D01*
X78599444Y-55494835D01*
X78652127Y-55500500D01*
X80747872Y-55500499D01*
X80807483Y-55494091D01*
X80942331Y-55443796D01*
X81057546Y-55357546D01*
X81143796Y-55242331D01*
X81194091Y-55107483D01*
X81200500Y-55047873D01*
X81200499Y-52952128D01*
X81194091Y-52892517D01*
X81179252Y-52852732D01*
X81143797Y-52757671D01*
X81143793Y-52757664D01*
X81057547Y-52642455D01*
X81057544Y-52642452D01*
X80942335Y-52556206D01*
X80942328Y-52556202D01*
X80807482Y-52505908D01*
X80807483Y-52505908D01*
X80747883Y-52499501D01*
X80747881Y-52499500D01*
X80747873Y-52499500D01*
X80747864Y-52499500D01*
X78652129Y-52499500D01*
X78652123Y-52499501D01*
X78592516Y-52505908D01*
X78457671Y-52556202D01*
X78457664Y-52556206D01*
X78342455Y-52642452D01*
X78342452Y-52642455D01*
X78256206Y-52757664D01*
X78256202Y-52757671D01*
X78205908Y-52892517D01*
X78204126Y-52900062D01*
X78201853Y-52899525D01*
X78179571Y-52953312D01*
X78122177Y-52993157D01*
X78083024Y-52999500D01*
X77601455Y-52999500D01*
X77504812Y-53018724D01*
X77408167Y-53037947D01*
X77408161Y-53037949D01*
X77354834Y-53060037D01*
X77354834Y-53060038D01*
X77324336Y-53072671D01*
X77226089Y-53113366D01*
X77226079Y-53113371D01*
X77062219Y-53222859D01*
X76992540Y-53292538D01*
X76922861Y-53362218D01*
X76922858Y-53362221D01*
X74821899Y-55463181D01*
X74760576Y-55496666D01*
X74734218Y-55499500D01*
X74513001Y-55499500D01*
X74445962Y-55479815D01*
X74400207Y-55427011D01*
X74389001Y-55375500D01*
X74389001Y-55215257D01*
X74389000Y-55215255D01*
X74368607Y-55112733D01*
X74350552Y-55021965D01*
X74275132Y-54839886D01*
X74275131Y-54839885D01*
X74275128Y-54839879D01*
X74165640Y-54676019D01*
X74165637Y-54676015D01*
X71559919Y-52070297D01*
X71526434Y-52008974D01*
X71523600Y-51982616D01*
X71523600Y-50832156D01*
X71485152Y-50638870D01*
X71485151Y-50638869D01*
X71485151Y-50638865D01*
X71485149Y-50638860D01*
X71409735Y-50456792D01*
X71409728Y-50456779D01*
X71300240Y-50292919D01*
X71300239Y-50292918D01*
X71160882Y-50153561D01*
X71160881Y-50153560D01*
X67557208Y-46549888D01*
X67557206Y-46549885D01*
X67557206Y-46549886D01*
X67550139Y-46542819D01*
X67550139Y-46542818D01*
X67410782Y-46403461D01*
X67410781Y-46403460D01*
X67410780Y-46403459D01*
X67246920Y-46293971D01*
X67246911Y-46293966D01*
X67174315Y-46263896D01*
X67118165Y-46240638D01*
X67064836Y-46218549D01*
X67064832Y-46218548D01*
X67064828Y-46218546D01*
X66968188Y-46199324D01*
X66871544Y-46180100D01*
X66871541Y-46180100D01*
X61824659Y-46180100D01*
X61824657Y-46180100D01*
X61631370Y-46218547D01*
X61631360Y-46218550D01*
X61449292Y-46293964D01*
X61449279Y-46293971D01*
X61285418Y-46403460D01*
X61285414Y-46403463D01*
X61146063Y-46542814D01*
X61146060Y-46542818D01*
X61036571Y-46706679D01*
X61036564Y-46706692D01*
X60961150Y-46888760D01*
X60961147Y-46888770D01*
X60922700Y-47082056D01*
X60922700Y-47082059D01*
X60922700Y-47279141D01*
X60922700Y-47279143D01*
X60922699Y-47279143D01*
X60961147Y-47472429D01*
X60961150Y-47472439D01*
X61036564Y-47654507D01*
X61036571Y-47654520D01*
X61146060Y-47818381D01*
X61146063Y-47818385D01*
X61285414Y-47957736D01*
X61285418Y-47957739D01*
X61449279Y-48067228D01*
X61449292Y-48067235D01*
X61631360Y-48142649D01*
X61631365Y-48142651D01*
X61631369Y-48142651D01*
X61631370Y-48142652D01*
X61824656Y-48181100D01*
X61824659Y-48181100D01*
X66307218Y-48181100D01*
X66374257Y-48200785D01*
X66394899Y-48217419D01*
X69486281Y-51308801D01*
X69519766Y-51370124D01*
X69522600Y-51396482D01*
X69522600Y-52546941D01*
X69522600Y-52546943D01*
X69522599Y-52546943D01*
X69561047Y-52740229D01*
X69561050Y-52740239D01*
X69636464Y-52922307D01*
X69636471Y-52922320D01*
X69745959Y-53086180D01*
X69745960Y-53086181D01*
X69745961Y-53086182D01*
X69885318Y-53225539D01*
X69885319Y-53225539D01*
X69892386Y-53232606D01*
X69892385Y-53232606D01*
X69892389Y-53232609D01*
X71947598Y-55287819D01*
X71981083Y-55349142D01*
X71976099Y-55418834D01*
X71934227Y-55474767D01*
X71868763Y-55499184D01*
X71859917Y-55499500D01*
X69877588Y-55499500D01*
X69810549Y-55479815D01*
X69806465Y-55477075D01*
X69805955Y-55476718D01*
X69652734Y-55369432D01*
X69627245Y-55357546D01*
X69446497Y-55273261D01*
X69446488Y-55273258D01*
X69226697Y-55214366D01*
X69226693Y-55214365D01*
X69226692Y-55214365D01*
X69226691Y-55214364D01*
X69226686Y-55214364D01*
X69000002Y-55194532D01*
X68999998Y-55194532D01*
X68773313Y-55214364D01*
X68773302Y-55214366D01*
X68553511Y-55273258D01*
X68553502Y-55273261D01*
X68347267Y-55369431D01*
X68347265Y-55369432D01*
X68160858Y-55499954D01*
X67999954Y-55660858D01*
X67869432Y-55847265D01*
X67869431Y-55847267D01*
X67773261Y-56053502D01*
X67773258Y-56053511D01*
X67714366Y-56273302D01*
X67714364Y-56273313D01*
X67694532Y-56499998D01*
X67694532Y-56500001D01*
X67714364Y-56726686D01*
X67714366Y-56726697D01*
X67773258Y-56946488D01*
X67773263Y-56946502D01*
X67822829Y-57052796D01*
X67833321Y-57121873D01*
X67804801Y-57185657D01*
X67746324Y-57223896D01*
X67710447Y-57229200D01*
X64848782Y-57229200D01*
X64781743Y-57209515D01*
X64761101Y-57192881D01*
X61409879Y-53841659D01*
X61409859Y-53841637D01*
X61336819Y-53768597D01*
X61303334Y-53707274D01*
X61300500Y-53680916D01*
X61300500Y-53077588D01*
X61320185Y-53010549D01*
X61322925Y-53006465D01*
X61328472Y-52998543D01*
X61430568Y-52852734D01*
X61526739Y-52646496D01*
X61585635Y-52426692D01*
X61605468Y-52200000D01*
X61585635Y-51973308D01*
X61526739Y-51753504D01*
X61430568Y-51547266D01*
X61300047Y-51360861D01*
X61300045Y-51360858D01*
X61139141Y-51199954D01*
X60952734Y-51069432D01*
X60952732Y-51069431D01*
X60746497Y-50973261D01*
X60746488Y-50973258D01*
X60526697Y-50914366D01*
X60526693Y-50914365D01*
X60526692Y-50914365D01*
X60526691Y-50914364D01*
X60526686Y-50914364D01*
X60300002Y-50894532D01*
X60299998Y-50894532D01*
X60073313Y-50914364D01*
X60073302Y-50914366D01*
X59853511Y-50973258D01*
X59853502Y-50973261D01*
X59647267Y-51069431D01*
X59647265Y-51069432D01*
X59460858Y-51199954D01*
X59299954Y-51360858D01*
X59169432Y-51547265D01*
X59169431Y-51547267D01*
X59073261Y-51753502D01*
X59073258Y-51753511D01*
X59014366Y-51973302D01*
X59014364Y-51973313D01*
X58994532Y-52199998D01*
X58994532Y-52200001D01*
X59014364Y-52426686D01*
X59014366Y-52426697D01*
X59073258Y-52646488D01*
X59073261Y-52646497D01*
X59116974Y-52740239D01*
X59169432Y-52852734D01*
X59271526Y-52998541D01*
X59277075Y-53006465D01*
X59299402Y-53072671D01*
X59299500Y-53077588D01*
X59299500Y-53350600D01*
X59279815Y-53417639D01*
X59227011Y-53463394D01*
X59175500Y-53474600D01*
X57348862Y-53474600D01*
X57281823Y-53454915D01*
X57236068Y-53402111D01*
X57226124Y-53332953D01*
X57229596Y-53316666D01*
X57255524Y-53225539D01*
X57285115Y-53121536D01*
X57305643Y-52900000D01*
X57301735Y-52857830D01*
X57285115Y-52678464D01*
X57285114Y-52678462D01*
X57276019Y-52646497D01*
X57224229Y-52464472D01*
X57213538Y-52443001D01*
X57125061Y-52265316D01*
X57125056Y-52265308D01*
X56990979Y-52087761D01*
X56826562Y-51937876D01*
X56826560Y-51937874D01*
X56637404Y-51820754D01*
X56637398Y-51820752D01*
X56429940Y-51740382D01*
X56211243Y-51699500D01*
X55988757Y-51699500D01*
X55770060Y-51740382D01*
X55704463Y-51765794D01*
X55562602Y-51820751D01*
X55562599Y-51820753D01*
X55542723Y-51833059D01*
X55475364Y-51851613D01*
X55408665Y-51830805D01*
X55363804Y-51777239D01*
X55362886Y-51775082D01*
X55348512Y-51740379D01*
X55348510Y-51740375D01*
X55334309Y-51706087D01*
X55286633Y-51590989D01*
X55286632Y-51590986D01*
X55286630Y-51590983D01*
X55286628Y-51590979D01*
X55177139Y-51427118D01*
X55177136Y-51427114D01*
X55034686Y-51284664D01*
X55034655Y-51284635D01*
X53082684Y-49332663D01*
X53082680Y-49332660D01*
X52918820Y-49223172D01*
X52918810Y-49223167D01*
X52736736Y-49147749D01*
X52736728Y-49147747D01*
X52543443Y-49109300D01*
X52543440Y-49109300D01*
X52346360Y-49109300D01*
X52346357Y-49109300D01*
X52153071Y-49147747D01*
X52153063Y-49147749D01*
X51970989Y-49223167D01*
X51970979Y-49223172D01*
X51807119Y-49332660D01*
X51807115Y-49332663D01*
X51667763Y-49472015D01*
X51667760Y-49472019D01*
X51558272Y-49635879D01*
X51558267Y-49635889D01*
X51482849Y-49817963D01*
X51482847Y-49817971D01*
X51444400Y-50011255D01*
X51444400Y-50208344D01*
X51482847Y-50401628D01*
X51482849Y-50401636D01*
X51558267Y-50583710D01*
X51558272Y-50583720D01*
X51667760Y-50747580D01*
X51667763Y-50747584D01*
X53363181Y-52443001D01*
X53396666Y-52504324D01*
X53399500Y-52530682D01*
X53399500Y-52801459D01*
X53399500Y-52998541D01*
X53399500Y-52998543D01*
X53399499Y-52998543D01*
X53437947Y-53191829D01*
X53437949Y-53191835D01*
X53450799Y-53222859D01*
X53484056Y-53303147D01*
X53491525Y-53372617D01*
X53460250Y-53435096D01*
X53400161Y-53470748D01*
X53369495Y-53474600D01*
X52496358Y-53474600D01*
X52477867Y-53478278D01*
X52440883Y-53485635D01*
X52303071Y-53513047D01*
X52303064Y-53513049D01*
X52297758Y-53515247D01*
X52228289Y-53522714D01*
X52165810Y-53491439D01*
X52130158Y-53431349D01*
X52132653Y-53361524D01*
X52139308Y-53345411D01*
X52144224Y-53335538D01*
X52144229Y-53335528D01*
X52205115Y-53121536D01*
X52225643Y-52900000D01*
X52221735Y-52857830D01*
X52205115Y-52678464D01*
X52205114Y-52678462D01*
X52196019Y-52646497D01*
X52144229Y-52464472D01*
X52133538Y-52443001D01*
X52045061Y-52265316D01*
X52045056Y-52265308D01*
X51910979Y-52087761D01*
X51746562Y-51937876D01*
X51746560Y-51937874D01*
X51557404Y-51820754D01*
X51557398Y-51820752D01*
X51349940Y-51740382D01*
X51131243Y-51699500D01*
X50908757Y-51699500D01*
X50690060Y-51740382D01*
X50558864Y-51791207D01*
X50482601Y-51820752D01*
X50482595Y-51820754D01*
X50293439Y-51937874D01*
X50293437Y-51937876D01*
X50129020Y-52087761D01*
X49994943Y-52265308D01*
X49994938Y-52265316D01*
X49895775Y-52464461D01*
X49895769Y-52464476D01*
X49834885Y-52678462D01*
X49834884Y-52678464D01*
X49814357Y-52899999D01*
X49814357Y-52900000D01*
X49834884Y-53121535D01*
X49834885Y-53121537D01*
X49895769Y-53335523D01*
X49895775Y-53335538D01*
X49994938Y-53534683D01*
X49994943Y-53534691D01*
X50129020Y-53712238D01*
X50293437Y-53862123D01*
X50293439Y-53862125D01*
X50482595Y-53979245D01*
X50482596Y-53979245D01*
X50482599Y-53979247D01*
X50690060Y-54059618D01*
X50908757Y-54100500D01*
X50908759Y-54100500D01*
X51131240Y-54100500D01*
X51131243Y-54100500D01*
X51258296Y-54076749D01*
X51327807Y-54083780D01*
X51382486Y-54127277D01*
X51404969Y-54193431D01*
X51388117Y-54261238D01*
X51368759Y-54286319D01*
X50809009Y-54846069D01*
X50747686Y-54879554D01*
X50744115Y-54880276D01*
X50690068Y-54890380D01*
X50690060Y-54890382D01*
X50482601Y-54970751D01*
X50482595Y-54970754D01*
X50293439Y-55087874D01*
X50293437Y-55087876D01*
X50129020Y-55237761D01*
X49994943Y-55415308D01*
X49994938Y-55415316D01*
X49895775Y-55614461D01*
X49895769Y-55614476D01*
X49834885Y-55828462D01*
X49834884Y-55828464D01*
X49814357Y-56049999D01*
X49814357Y-56050000D01*
X49834884Y-56271535D01*
X49834885Y-56271537D01*
X49895769Y-56485523D01*
X49895775Y-56485538D01*
X49994938Y-56684683D01*
X49994943Y-56684691D01*
X50129020Y-56862238D01*
X50293437Y-57012123D01*
X50293439Y-57012125D01*
X50482595Y-57129245D01*
X50482596Y-57129245D01*
X50482599Y-57129247D01*
X50690060Y-57209618D01*
X50908757Y-57250500D01*
X50908759Y-57250500D01*
X51131241Y-57250500D01*
X51131243Y-57250500D01*
X51349940Y-57209618D01*
X51557401Y-57129247D01*
X51746562Y-57012124D01*
X51910981Y-56862236D01*
X52045058Y-56684689D01*
X52144229Y-56485528D01*
X52193013Y-56314064D01*
X52224596Y-56260322D01*
X52973001Y-55511919D01*
X53034324Y-55478434D01*
X53060682Y-55475600D01*
X54851081Y-55475600D01*
X54918120Y-55495285D01*
X54963875Y-55548089D01*
X54973819Y-55617247D01*
X54970347Y-55633534D01*
X54914885Y-55828461D01*
X54914884Y-55828464D01*
X54894357Y-56049999D01*
X54894357Y-56050000D01*
X54914884Y-56271535D01*
X54914885Y-56271537D01*
X54975769Y-56485523D01*
X54975775Y-56485538D01*
X55074938Y-56684683D01*
X55074943Y-56684691D01*
X55209020Y-56862238D01*
X55373437Y-57012123D01*
X55373439Y-57012125D01*
X55562595Y-57129245D01*
X55562596Y-57129245D01*
X55562599Y-57129247D01*
X55770060Y-57209618D01*
X55988757Y-57250500D01*
X55988759Y-57250500D01*
X56211241Y-57250500D01*
X56211243Y-57250500D01*
X56429940Y-57209618D01*
X56637401Y-57129247D01*
X56826562Y-57012124D01*
X56990981Y-56862236D01*
X57125058Y-56684689D01*
X57224229Y-56485528D01*
X57285115Y-56271536D01*
X57305643Y-56050000D01*
X57285115Y-55828464D01*
X57229653Y-55633534D01*
X57230240Y-55563667D01*
X57268506Y-55505208D01*
X57332304Y-55476718D01*
X57348919Y-55475600D01*
X59031525Y-55475600D01*
X59098564Y-55495285D01*
X59144319Y-55548089D01*
X59154263Y-55617247D01*
X59143907Y-55652002D01*
X59139777Y-55660861D01*
X59073261Y-55803502D01*
X59073258Y-55803511D01*
X59014366Y-56023302D01*
X59014364Y-56023313D01*
X58994532Y-56249998D01*
X58994532Y-56250001D01*
X59014364Y-56476686D01*
X59014366Y-56476697D01*
X59073258Y-56696488D01*
X59073261Y-56696497D01*
X59169431Y-56902732D01*
X59169432Y-56902734D01*
X59299954Y-57089141D01*
X59460858Y-57250045D01*
X59460861Y-57250047D01*
X59647266Y-57380568D01*
X59853504Y-57476739D01*
X59853509Y-57476740D01*
X59853511Y-57476741D01*
X59906415Y-57490916D01*
X60073308Y-57535635D01*
X60235230Y-57549801D01*
X60299998Y-57555468D01*
X60300000Y-57555468D01*
X60300002Y-57555468D01*
X60356673Y-57550509D01*
X60526692Y-57535635D01*
X60746496Y-57476739D01*
X60952734Y-57380568D01*
X61139139Y-57250047D01*
X61300047Y-57089139D01*
X61430568Y-56902734D01*
X61430571Y-56902726D01*
X61432515Y-56899951D01*
X61487092Y-56856325D01*
X61556590Y-56849131D01*
X61618945Y-56880653D01*
X61621772Y-56883392D01*
X63526199Y-58787819D01*
X63559684Y-58849142D01*
X63554700Y-58918834D01*
X63512828Y-58974767D01*
X63447364Y-58999184D01*
X63438518Y-58999500D01*
X46488854Y-58999500D01*
X46456791Y-59005876D01*
X46456792Y-59005877D01*
X46295570Y-59037946D01*
X46295564Y-59037948D01*
X46113488Y-59113366D01*
X46113479Y-59113371D01*
X45949619Y-59222859D01*
X45949615Y-59222862D01*
X44572930Y-60599548D01*
X44511607Y-60633033D01*
X44441915Y-60628049D01*
X44397568Y-60599548D01*
X43464935Y-59666915D01*
X43431450Y-59605592D01*
X43431026Y-59603558D01*
X43412051Y-59508165D01*
X43392135Y-59460082D01*
X43336635Y-59326092D01*
X43336628Y-59326079D01*
X43227139Y-59162218D01*
X43227136Y-59162214D01*
X43087785Y-59022863D01*
X43087781Y-59022860D01*
X42923920Y-58913371D01*
X42923907Y-58913364D01*
X42741839Y-58837950D01*
X42741829Y-58837947D01*
X42548543Y-58799500D01*
X42548541Y-58799500D01*
X41560758Y-58799500D01*
X41493719Y-58779815D01*
X41473077Y-58763181D01*
X41471402Y-58761506D01*
X41471396Y-58761501D01*
X41285842Y-58631575D01*
X41242217Y-58576998D01*
X41235023Y-58507500D01*
X41266546Y-58445145D01*
X41285842Y-58428425D01*
X41308026Y-58412891D01*
X41471401Y-58298495D01*
X41638495Y-58131401D01*
X41774035Y-57937830D01*
X41873903Y-57723663D01*
X41935063Y-57495408D01*
X41955659Y-57260000D01*
X41935063Y-57024592D01*
X41873903Y-56796337D01*
X41774035Y-56582171D01*
X41716500Y-56500001D01*
X41638494Y-56388597D01*
X41471402Y-56221506D01*
X41471396Y-56221501D01*
X41285842Y-56091575D01*
X41242217Y-56036998D01*
X41235023Y-55967500D01*
X41266546Y-55905145D01*
X41285842Y-55888425D01*
X41308026Y-55872891D01*
X41471401Y-55758495D01*
X41638495Y-55591401D01*
X41774035Y-55397830D01*
X41873903Y-55183663D01*
X41935063Y-54955408D01*
X41955659Y-54720000D01*
X41935063Y-54484592D01*
X41873903Y-54256337D01*
X41774035Y-54042171D01*
X41729976Y-53979247D01*
X41638494Y-53848597D01*
X41471402Y-53681506D01*
X41471396Y-53681501D01*
X41285842Y-53551575D01*
X41242217Y-53496998D01*
X41235023Y-53427500D01*
X41266546Y-53365145D01*
X41285842Y-53348425D01*
X41331198Y-53316666D01*
X41471401Y-53218495D01*
X41638495Y-53051401D01*
X41774035Y-52857830D01*
X41873903Y-52643663D01*
X41935063Y-52415408D01*
X41955659Y-52180000D01*
X41935063Y-51944592D01*
X41873903Y-51716337D01*
X41774035Y-51502171D01*
X41664068Y-51345120D01*
X41638494Y-51308597D01*
X41471402Y-51141506D01*
X41471395Y-51141501D01*
X41277834Y-51005967D01*
X41277830Y-51005965D01*
X41207696Y-50973261D01*
X41063663Y-50906097D01*
X41063659Y-50906096D01*
X41063655Y-50906094D01*
X40835413Y-50844938D01*
X40835403Y-50844936D01*
X40600001Y-50824341D01*
X40599999Y-50824341D01*
X40364596Y-50844936D01*
X40364586Y-50844938D01*
X40136344Y-50906094D01*
X40136335Y-50906098D01*
X39922171Y-51005964D01*
X39922169Y-51005965D01*
X39728597Y-51141505D01*
X39561505Y-51308597D01*
X39425965Y-51502169D01*
X39425964Y-51502171D01*
X39326098Y-51716335D01*
X39326094Y-51716344D01*
X39264938Y-51944586D01*
X39264936Y-51944596D01*
X39244341Y-52179999D01*
X39244341Y-52180000D01*
X39264936Y-52415403D01*
X39264938Y-52415413D01*
X39326094Y-52643655D01*
X39326096Y-52643659D01*
X39326097Y-52643663D01*
X39379257Y-52757664D01*
X39425965Y-52857830D01*
X39425967Y-52857834D01*
X39491993Y-52952128D01*
X39552084Y-53037947D01*
X39561501Y-53051395D01*
X39561506Y-53051402D01*
X39728597Y-53218493D01*
X39728603Y-53218498D01*
X39914158Y-53348425D01*
X39957783Y-53403002D01*
X39964977Y-53472500D01*
X39933454Y-53534855D01*
X39914158Y-53551575D01*
X39728597Y-53681505D01*
X39561505Y-53848597D01*
X39425965Y-54042169D01*
X39425964Y-54042171D01*
X39326098Y-54256335D01*
X39326094Y-54256344D01*
X39264938Y-54484586D01*
X39264936Y-54484596D01*
X39244341Y-54719999D01*
X39244341Y-54720000D01*
X39264936Y-54955403D01*
X39264938Y-54955413D01*
X39326094Y-55183655D01*
X39326096Y-55183659D01*
X39326097Y-55183663D01*
X39374666Y-55287819D01*
X39425965Y-55397830D01*
X39425967Y-55397834D01*
X39561501Y-55591395D01*
X39561506Y-55591402D01*
X39728597Y-55758493D01*
X39728603Y-55758498D01*
X39914158Y-55888425D01*
X39957783Y-55943002D01*
X39964977Y-56012500D01*
X39933454Y-56074855D01*
X39914158Y-56091575D01*
X39728597Y-56221505D01*
X39561505Y-56388597D01*
X39425965Y-56582169D01*
X39425964Y-56582171D01*
X39326098Y-56796335D01*
X39326094Y-56796344D01*
X39264938Y-57024586D01*
X39264936Y-57024596D01*
X39244341Y-57259999D01*
X39244341Y-57260000D01*
X39264936Y-57495403D01*
X39264938Y-57495413D01*
X39326094Y-57723655D01*
X39326096Y-57723659D01*
X39326097Y-57723663D01*
X39425965Y-57937830D01*
X39425967Y-57937834D01*
X39561501Y-58131395D01*
X39561506Y-58131402D01*
X39728597Y-58298493D01*
X39728603Y-58298498D01*
X39914158Y-58428425D01*
X39957783Y-58483002D01*
X39964977Y-58552500D01*
X39933454Y-58614855D01*
X39914158Y-58631575D01*
X39728597Y-58761505D01*
X39561505Y-58928597D01*
X39425965Y-59122169D01*
X39425964Y-59122171D01*
X39326098Y-59336335D01*
X39326094Y-59336344D01*
X39264938Y-59564586D01*
X39264936Y-59564596D01*
X39244341Y-59799999D01*
X39244341Y-59800000D01*
X39264936Y-60035403D01*
X39264938Y-60035413D01*
X39326094Y-60263655D01*
X39326096Y-60263659D01*
X39326097Y-60263663D01*
X39363212Y-60343256D01*
X39425965Y-60477830D01*
X39425967Y-60477834D01*
X39561501Y-60671395D01*
X39561506Y-60671402D01*
X39728597Y-60838493D01*
X39728603Y-60838498D01*
X39914158Y-60968425D01*
X39957783Y-61023002D01*
X39964977Y-61092500D01*
X39933454Y-61154855D01*
X39914158Y-61171575D01*
X39728597Y-61301505D01*
X39561505Y-61468597D01*
X39425965Y-61662169D01*
X39425964Y-61662171D01*
X39326098Y-61876335D01*
X39326094Y-61876344D01*
X39264938Y-62104586D01*
X39264936Y-62104596D01*
X39244341Y-62339999D01*
X39244341Y-62340000D01*
X39264936Y-62575403D01*
X39264938Y-62575413D01*
X39326094Y-62803655D01*
X39326096Y-62803659D01*
X39326097Y-62803663D01*
X39382353Y-62924304D01*
X39425965Y-63017830D01*
X39425967Y-63017834D01*
X39471692Y-63083135D01*
X39561501Y-63211396D01*
X39561506Y-63211402D01*
X39683430Y-63333326D01*
X39716915Y-63394649D01*
X39711931Y-63464341D01*
X39670059Y-63520274D01*
X39639083Y-63537189D01*
X39507669Y-63586203D01*
X39507664Y-63586206D01*
X39392455Y-63672452D01*
X39392452Y-63672455D01*
X39306206Y-63787664D01*
X39306202Y-63787671D01*
X39255908Y-63922517D01*
X39249501Y-63982116D01*
X39249500Y-63982135D01*
X39249500Y-65777870D01*
X39249501Y-65777876D01*
X39255908Y-65837483D01*
X39306202Y-65972328D01*
X39306206Y-65972335D01*
X39392452Y-66087544D01*
X39392455Y-66087547D01*
X39507664Y-66173793D01*
X39507671Y-66173797D01*
X39642517Y-66224091D01*
X39642516Y-66224091D01*
X39649444Y-66224835D01*
X39702127Y-66230500D01*
X40321417Y-66230499D01*
X40388455Y-66250183D01*
X40434210Y-66302987D01*
X40444154Y-66372146D01*
X40415129Y-66435702D01*
X40409097Y-66442180D01*
X37772360Y-69078919D01*
X36965820Y-69885459D01*
X36965818Y-69885461D01*
X36896138Y-69955140D01*
X36826459Y-70024819D01*
X36716971Y-70188679D01*
X36716964Y-70188692D01*
X36641550Y-70370760D01*
X36641547Y-70370770D01*
X36603100Y-70564056D01*
X36603100Y-70564059D01*
X36603100Y-81862141D01*
X36603100Y-81862143D01*
X36603099Y-81862143D01*
X26300500Y-81862143D01*
X26300500Y-42019999D01*
X39244341Y-42019999D01*
X39244341Y-42020000D01*
X39264936Y-42255403D01*
X39264938Y-42255413D01*
X39326094Y-42483655D01*
X39326096Y-42483659D01*
X39326097Y-42483663D01*
X39402531Y-42647576D01*
X39425965Y-42697830D01*
X39425967Y-42697834D01*
X39561501Y-42891395D01*
X39561506Y-42891402D01*
X39728597Y-43058493D01*
X39728603Y-43058498D01*
X39914158Y-43188425D01*
X39957783Y-43243002D01*
X39964977Y-43312500D01*
X39933454Y-43374855D01*
X39914158Y-43391575D01*
X39728597Y-43521505D01*
X39561505Y-43688597D01*
X39425965Y-43882169D01*
X39425964Y-43882171D01*
X39326098Y-44096335D01*
X39326094Y-44096344D01*
X39264938Y-44324586D01*
X39264936Y-44324596D01*
X39244341Y-44559999D01*
X39244341Y-44560000D01*
X39264936Y-44795403D01*
X39264938Y-44795413D01*
X39326094Y-45023655D01*
X39326096Y-45023659D01*
X39326097Y-45023663D01*
X39425965Y-45237830D01*
X39425967Y-45237834D01*
X39561501Y-45431395D01*
X39561506Y-45431402D01*
X39728597Y-45598493D01*
X39728603Y-45598498D01*
X39914158Y-45728425D01*
X39957783Y-45783002D01*
X39964977Y-45852500D01*
X39933454Y-45914855D01*
X39914158Y-45931575D01*
X39728597Y-46061505D01*
X39561505Y-46228597D01*
X39425965Y-46422169D01*
X39425964Y-46422171D01*
X39326098Y-46636335D01*
X39326094Y-46636344D01*
X39264938Y-46864586D01*
X39264936Y-46864596D01*
X39244341Y-47099999D01*
X39244341Y-47100000D01*
X39264936Y-47335403D01*
X39264938Y-47335413D01*
X39326094Y-47563655D01*
X39326096Y-47563659D01*
X39326097Y-47563663D01*
X39425965Y-47777830D01*
X39425967Y-47777834D01*
X39534281Y-47932521D01*
X39561505Y-47971401D01*
X39728599Y-48138495D01*
X39734536Y-48142652D01*
X39922165Y-48274032D01*
X39922167Y-48274033D01*
X39922170Y-48274035D01*
X40136337Y-48373903D01*
X40364592Y-48435063D01*
X40552918Y-48451539D01*
X40599999Y-48455659D01*
X40600000Y-48455659D01*
X40600001Y-48455659D01*
X40639234Y-48452226D01*
X40835408Y-48435063D01*
X41063663Y-48373903D01*
X41277830Y-48274035D01*
X41471401Y-48138495D01*
X41638495Y-47971401D01*
X41774035Y-47777830D01*
X41873903Y-47563663D01*
X41935063Y-47335408D01*
X41955659Y-47100000D01*
X41935063Y-46864592D01*
X41873903Y-46636337D01*
X41774035Y-46422171D01*
X41760935Y-46403461D01*
X41638494Y-46228597D01*
X41471402Y-46061506D01*
X41471396Y-46061501D01*
X41285842Y-45931575D01*
X41242217Y-45876998D01*
X41235023Y-45807500D01*
X41266546Y-45745145D01*
X41285842Y-45728425D01*
X41384078Y-45659639D01*
X41471401Y-45598495D01*
X41473077Y-45596819D01*
X41473995Y-45596317D01*
X41475544Y-45595018D01*
X41475805Y-45595329D01*
X41534400Y-45563334D01*
X41560758Y-45560500D01*
X41984217Y-45560500D01*
X42051256Y-45580185D01*
X42071893Y-45596814D01*
X42134718Y-45659639D01*
X42134719Y-45659640D01*
X42298579Y-45769128D01*
X42298592Y-45769135D01*
X42427333Y-45822461D01*
X42470244Y-45840235D01*
X42480664Y-45844551D01*
X42577312Y-45863775D01*
X42625635Y-45873387D01*
X42673958Y-45883000D01*
X42673959Y-45883000D01*
X66686042Y-45883000D01*
X66705370Y-45879155D01*
X66782688Y-45863775D01*
X66879336Y-45844551D01*
X66932665Y-45822461D01*
X67061414Y-45769132D01*
X67225282Y-45659639D01*
X67364639Y-45520282D01*
X67364640Y-45520279D01*
X67371706Y-45513214D01*
X67371708Y-45513210D01*
X68526568Y-44358351D01*
X68587889Y-44324868D01*
X68657581Y-44329852D01*
X68713514Y-44371724D01*
X68723082Y-44386613D01*
X68726205Y-44392334D01*
X68812452Y-44507544D01*
X68812455Y-44507547D01*
X68927664Y-44593793D01*
X68927671Y-44593797D01*
X69062517Y-44644091D01*
X69062516Y-44644091D01*
X69069444Y-44644835D01*
X69122127Y-44650500D01*
X70917872Y-44650499D01*
X70977483Y-44644091D01*
X71112331Y-44593796D01*
X71227546Y-44507546D01*
X71313796Y-44392331D01*
X71362810Y-44260916D01*
X71404681Y-44204984D01*
X71470145Y-44180566D01*
X71538418Y-44195417D01*
X71566673Y-44216569D01*
X71688599Y-44338495D01*
X71785384Y-44406265D01*
X71882165Y-44474032D01*
X71882167Y-44474033D01*
X71882170Y-44474035D01*
X72096337Y-44573903D01*
X72324592Y-44635063D01*
X72501034Y-44650500D01*
X72559999Y-44655659D01*
X72560000Y-44655659D01*
X72560001Y-44655659D01*
X72618966Y-44650500D01*
X72795408Y-44635063D01*
X73023663Y-44573903D01*
X73237830Y-44474035D01*
X73431401Y-44338495D01*
X73598495Y-44171401D01*
X73728425Y-43985842D01*
X73783002Y-43942217D01*
X73852500Y-43935023D01*
X73914855Y-43966546D01*
X73931575Y-43985842D01*
X74061500Y-44171395D01*
X74061505Y-44171401D01*
X74228599Y-44338495D01*
X74325384Y-44406265D01*
X74422165Y-44474032D01*
X74422167Y-44474033D01*
X74422170Y-44474035D01*
X74636337Y-44573903D01*
X74864592Y-44635063D01*
X75041034Y-44650500D01*
X75099999Y-44655659D01*
X75100000Y-44655659D01*
X75100001Y-44655659D01*
X75158966Y-44650500D01*
X75335408Y-44635063D01*
X75563663Y-44573903D01*
X75777830Y-44474035D01*
X75971401Y-44338495D01*
X76138495Y-44171401D01*
X76274035Y-43977830D01*
X76373903Y-43763663D01*
X76435063Y-43535408D01*
X76455659Y-43300000D01*
X76435063Y-43064592D01*
X76373903Y-42836337D01*
X76274035Y-42622171D01*
X76268425Y-42614158D01*
X76138494Y-42428597D01*
X75971402Y-42261506D01*
X75971395Y-42261501D01*
X75962693Y-42255408D01*
X75932521Y-42234281D01*
X75777834Y-42125967D01*
X75777830Y-42125965D01*
X75777828Y-42125964D01*
X75563663Y-42026097D01*
X75563659Y-42026096D01*
X75563655Y-42026094D01*
X75335413Y-41964938D01*
X75335403Y-41964936D01*
X75100001Y-41944341D01*
X75099999Y-41944341D01*
X74864596Y-41964936D01*
X74864586Y-41964938D01*
X74636344Y-42026094D01*
X74636335Y-42026098D01*
X74422171Y-42125964D01*
X74422169Y-42125965D01*
X74228597Y-42261505D01*
X74061505Y-42428597D01*
X73931575Y-42614158D01*
X73876998Y-42657783D01*
X73807500Y-42664977D01*
X73745145Y-42633454D01*
X73728425Y-42614158D01*
X73598494Y-42428597D01*
X73596819Y-42426922D01*
X73596315Y-42426000D01*
X73595014Y-42424449D01*
X73595325Y-42424187D01*
X73563334Y-42365599D01*
X73560500Y-42339241D01*
X73560500Y-41502135D01*
X85274500Y-41502135D01*
X85274500Y-43297870D01*
X85274501Y-43297876D01*
X85280908Y-43357483D01*
X85331202Y-43492328D01*
X85331206Y-43492335D01*
X85417452Y-43607544D01*
X85417455Y-43607547D01*
X85532664Y-43693793D01*
X85532671Y-43693797D01*
X85667517Y-43744091D01*
X85667516Y-43744091D01*
X85674444Y-43744835D01*
X85727127Y-43750500D01*
X87522872Y-43750499D01*
X87582483Y-43744091D01*
X87717331Y-43693796D01*
X87832546Y-43607546D01*
X87918796Y-43492331D01*
X87969091Y-43357483D01*
X87975500Y-43297873D01*
X87975499Y-41502128D01*
X87969091Y-41442517D01*
X87935127Y-41351456D01*
X87918797Y-41307671D01*
X87918793Y-41307664D01*
X87832547Y-41192455D01*
X87832544Y-41192452D01*
X87717335Y-41106206D01*
X87717328Y-41106202D01*
X87582482Y-41055908D01*
X87582483Y-41055908D01*
X87522883Y-41049501D01*
X87522881Y-41049500D01*
X87522873Y-41049500D01*
X87522864Y-41049500D01*
X85727129Y-41049500D01*
X85727123Y-41049501D01*
X85667516Y-41055908D01*
X85532671Y-41106202D01*
X85532664Y-41106206D01*
X85417455Y-41192452D01*
X85417452Y-41192455D01*
X85331206Y-41307664D01*
X85331202Y-41307671D01*
X85280908Y-41442517D01*
X85274501Y-41502116D01*
X85274501Y-41502123D01*
X85274500Y-41502135D01*
X73560500Y-41502135D01*
X73560500Y-41351456D01*
X73522052Y-41158170D01*
X73522051Y-41158169D01*
X73522051Y-41158165D01*
X73500528Y-41106204D01*
X73446635Y-40976092D01*
X73446628Y-40976079D01*
X73337139Y-40812218D01*
X73337136Y-40812214D01*
X73197785Y-40672863D01*
X73197781Y-40672860D01*
X73033920Y-40563371D01*
X73033907Y-40563364D01*
X72851839Y-40487950D01*
X72851829Y-40487947D01*
X72658543Y-40449500D01*
X72658541Y-40449500D01*
X42921459Y-40449500D01*
X42921455Y-40449500D01*
X42824812Y-40468724D01*
X42728167Y-40487947D01*
X42728161Y-40487949D01*
X42674834Y-40510037D01*
X42674834Y-40510038D01*
X42631918Y-40527814D01*
X42546084Y-40563368D01*
X42546083Y-40563368D01*
X42423045Y-40645579D01*
X42423046Y-40645580D01*
X42382218Y-40672859D01*
X42382215Y-40672862D01*
X42071898Y-40983181D01*
X42010575Y-41016666D01*
X41984217Y-41019500D01*
X41560758Y-41019500D01*
X41493719Y-40999815D01*
X41473077Y-40983181D01*
X41471402Y-40981506D01*
X41471395Y-40981501D01*
X41277834Y-40845967D01*
X41277830Y-40845965D01*
X41277828Y-40845964D01*
X41063663Y-40746097D01*
X41063659Y-40746096D01*
X41063655Y-40746094D01*
X40835413Y-40684938D01*
X40835403Y-40684936D01*
X40600001Y-40664341D01*
X40599999Y-40664341D01*
X40364596Y-40684936D01*
X40364586Y-40684938D01*
X40136344Y-40746094D01*
X40136335Y-40746098D01*
X39922171Y-40845964D01*
X39922169Y-40845965D01*
X39728597Y-40981505D01*
X39561505Y-41148597D01*
X39425965Y-41342169D01*
X39425964Y-41342171D01*
X39326098Y-41556335D01*
X39326094Y-41556344D01*
X39264938Y-41784586D01*
X39264936Y-41784596D01*
X39244341Y-42019999D01*
X26300500Y-42019999D01*
X26300500Y-34724500D01*
X26320185Y-34657461D01*
X26372989Y-34611706D01*
X26424500Y-34600500D01*
X107075500Y-34600500D01*
X107142539Y-34620185D01*
G37*
%TD.AperFunction*%
%TD*%
M02*
