%TF.GenerationSoftware,KiCad,Pcbnew,8.0.6-8.0.6-0~ubuntu24.04.1*%
%TF.CreationDate,2024-10-19T12:32:05+02:00*%
%TF.ProjectId,K3NG-rotator-shield,4b334e47-2d72-46f7-9461-746f722d7368,rev?*%
%TF.SameCoordinates,Original*%
%TF.FileFunction,Drillmap*%
%TF.FilePolarity,Positive*%
%FSLAX45Y45*%
G04 Gerber Fmt 4.5, Leading zero omitted, Abs format (unit mm)*
G04 Created by KiCad (PCBNEW 8.0.6-8.0.6-0~ubuntu24.04.1) date 2024-10-19 12:32:05*
%MOMM*%
%LPD*%
G01*
G04 APERTURE LIST*
%ADD10C,0.050000*%
%ADD11C,0.200000*%
%ADD12C,0.320000*%
G04 APERTURE END LIST*
D10*
X18791000Y-2383000D02*
X12866000Y-2383000D01*
X12866000Y-15943000D01*
X18791000Y-15943000D01*
X18791000Y-2383000D01*
D11*
D12*
X13265000Y-3735000D02*
X13585000Y-4055000D01*
X13585000Y-3735000D02*
X13265000Y-4055000D01*
X13265000Y-11990000D02*
X13585000Y-12310000D01*
X13585000Y-11990000D02*
X13265000Y-12310000D01*
X13773000Y-8942000D02*
X14093000Y-9262000D01*
X14093000Y-8942000D02*
X13773000Y-9262000D01*
X16567000Y-8942000D02*
X16887000Y-9262000D01*
X16887000Y-8942000D02*
X16567000Y-9262000D01*
X18091000Y-3862000D02*
X18411000Y-4182000D01*
X18411000Y-3862000D02*
X18091000Y-4182000D01*
X18091000Y-11355000D02*
X18411000Y-11675000D01*
X18411000Y-11355000D02*
X18091000Y-11675000D01*
D11*
X13124277Y-16256984D02*
X13124277Y-16056984D01*
X13124277Y-16056984D02*
X13171896Y-16056984D01*
X13171896Y-16056984D02*
X13200467Y-16066508D01*
X13200467Y-16066508D02*
X13219515Y-16085555D01*
X13219515Y-16085555D02*
X13229039Y-16104603D01*
X13229039Y-16104603D02*
X13238562Y-16142698D01*
X13238562Y-16142698D02*
X13238562Y-16171269D01*
X13238562Y-16171269D02*
X13229039Y-16209365D01*
X13229039Y-16209365D02*
X13219515Y-16228412D01*
X13219515Y-16228412D02*
X13200467Y-16247460D01*
X13200467Y-16247460D02*
X13171896Y-16256984D01*
X13171896Y-16256984D02*
X13124277Y-16256984D01*
X13324277Y-16256984D02*
X13324277Y-16123650D01*
X13324277Y-16161746D02*
X13333801Y-16142698D01*
X13333801Y-16142698D02*
X13343324Y-16133174D01*
X13343324Y-16133174D02*
X13362372Y-16123650D01*
X13362372Y-16123650D02*
X13381420Y-16123650D01*
X13448086Y-16256984D02*
X13448086Y-16123650D01*
X13448086Y-16056984D02*
X13438562Y-16066508D01*
X13438562Y-16066508D02*
X13448086Y-16076031D01*
X13448086Y-16076031D02*
X13457610Y-16066508D01*
X13457610Y-16066508D02*
X13448086Y-16056984D01*
X13448086Y-16056984D02*
X13448086Y-16076031D01*
X13571896Y-16256984D02*
X13552848Y-16247460D01*
X13552848Y-16247460D02*
X13543324Y-16228412D01*
X13543324Y-16228412D02*
X13543324Y-16056984D01*
X13676658Y-16256984D02*
X13657610Y-16247460D01*
X13657610Y-16247460D02*
X13648086Y-16228412D01*
X13648086Y-16228412D02*
X13648086Y-16056984D01*
X13905229Y-16256984D02*
X13905229Y-16056984D01*
X13905229Y-16056984D02*
X13971896Y-16199841D01*
X13971896Y-16199841D02*
X14038562Y-16056984D01*
X14038562Y-16056984D02*
X14038562Y-16256984D01*
X14219515Y-16256984D02*
X14219515Y-16152222D01*
X14219515Y-16152222D02*
X14209991Y-16133174D01*
X14209991Y-16133174D02*
X14190943Y-16123650D01*
X14190943Y-16123650D02*
X14152848Y-16123650D01*
X14152848Y-16123650D02*
X14133801Y-16133174D01*
X14219515Y-16247460D02*
X14200467Y-16256984D01*
X14200467Y-16256984D02*
X14152848Y-16256984D01*
X14152848Y-16256984D02*
X14133801Y-16247460D01*
X14133801Y-16247460D02*
X14124277Y-16228412D01*
X14124277Y-16228412D02*
X14124277Y-16209365D01*
X14124277Y-16209365D02*
X14133801Y-16190317D01*
X14133801Y-16190317D02*
X14152848Y-16180793D01*
X14152848Y-16180793D02*
X14200467Y-16180793D01*
X14200467Y-16180793D02*
X14219515Y-16171269D01*
X14314753Y-16123650D02*
X14314753Y-16323650D01*
X14314753Y-16133174D02*
X14333801Y-16123650D01*
X14333801Y-16123650D02*
X14371896Y-16123650D01*
X14371896Y-16123650D02*
X14390943Y-16133174D01*
X14390943Y-16133174D02*
X14400467Y-16142698D01*
X14400467Y-16142698D02*
X14409991Y-16161746D01*
X14409991Y-16161746D02*
X14409991Y-16218888D01*
X14409991Y-16218888D02*
X14400467Y-16237936D01*
X14400467Y-16237936D02*
X14390943Y-16247460D01*
X14390943Y-16247460D02*
X14371896Y-16256984D01*
X14371896Y-16256984D02*
X14333801Y-16256984D01*
X14333801Y-16256984D02*
X14314753Y-16247460D01*
X14495705Y-16237936D02*
X14505229Y-16247460D01*
X14505229Y-16247460D02*
X14495705Y-16256984D01*
X14495705Y-16256984D02*
X14486182Y-16247460D01*
X14486182Y-16247460D02*
X14495705Y-16237936D01*
X14495705Y-16237936D02*
X14495705Y-16256984D01*
X14495705Y-16133174D02*
X14505229Y-16142698D01*
X14505229Y-16142698D02*
X14495705Y-16152222D01*
X14495705Y-16152222D02*
X14486182Y-16142698D01*
X14486182Y-16142698D02*
X14495705Y-16133174D01*
X14495705Y-16133174D02*
X14495705Y-16152222D01*
X12663500Y-16485500D02*
X12863500Y-16685500D01*
X12863500Y-16485500D02*
X12663500Y-16685500D01*
X13105229Y-16476984D02*
X13229039Y-16476984D01*
X13229039Y-16476984D02*
X13162372Y-16553174D01*
X13162372Y-16553174D02*
X13190943Y-16553174D01*
X13190943Y-16553174D02*
X13209991Y-16562698D01*
X13209991Y-16562698D02*
X13219515Y-16572222D01*
X13219515Y-16572222D02*
X13229039Y-16591269D01*
X13229039Y-16591269D02*
X13229039Y-16638888D01*
X13229039Y-16638888D02*
X13219515Y-16657936D01*
X13219515Y-16657936D02*
X13209991Y-16667460D01*
X13209991Y-16667460D02*
X13190943Y-16676984D01*
X13190943Y-16676984D02*
X13133801Y-16676984D01*
X13133801Y-16676984D02*
X13114753Y-16667460D01*
X13114753Y-16667460D02*
X13105229Y-16657936D01*
X13314753Y-16657936D02*
X13324277Y-16667460D01*
X13324277Y-16667460D02*
X13314753Y-16676984D01*
X13314753Y-16676984D02*
X13305229Y-16667460D01*
X13305229Y-16667460D02*
X13314753Y-16657936D01*
X13314753Y-16657936D02*
X13314753Y-16676984D01*
X13400467Y-16496031D02*
X13409991Y-16486508D01*
X13409991Y-16486508D02*
X13429039Y-16476984D01*
X13429039Y-16476984D02*
X13476658Y-16476984D01*
X13476658Y-16476984D02*
X13495705Y-16486508D01*
X13495705Y-16486508D02*
X13505229Y-16496031D01*
X13505229Y-16496031D02*
X13514753Y-16515079D01*
X13514753Y-16515079D02*
X13514753Y-16534127D01*
X13514753Y-16534127D02*
X13505229Y-16562698D01*
X13505229Y-16562698D02*
X13390943Y-16676984D01*
X13390943Y-16676984D02*
X13514753Y-16676984D01*
X13638562Y-16476984D02*
X13657610Y-16476984D01*
X13657610Y-16476984D02*
X13676658Y-16486508D01*
X13676658Y-16486508D02*
X13686182Y-16496031D01*
X13686182Y-16496031D02*
X13695705Y-16515079D01*
X13695705Y-16515079D02*
X13705229Y-16553174D01*
X13705229Y-16553174D02*
X13705229Y-16600793D01*
X13705229Y-16600793D02*
X13695705Y-16638888D01*
X13695705Y-16638888D02*
X13686182Y-16657936D01*
X13686182Y-16657936D02*
X13676658Y-16667460D01*
X13676658Y-16667460D02*
X13657610Y-16676984D01*
X13657610Y-16676984D02*
X13638562Y-16676984D01*
X13638562Y-16676984D02*
X13619515Y-16667460D01*
X13619515Y-16667460D02*
X13609991Y-16657936D01*
X13609991Y-16657936D02*
X13600467Y-16638888D01*
X13600467Y-16638888D02*
X13590943Y-16600793D01*
X13590943Y-16600793D02*
X13590943Y-16553174D01*
X13590943Y-16553174D02*
X13600467Y-16515079D01*
X13600467Y-16515079D02*
X13609991Y-16496031D01*
X13609991Y-16496031D02*
X13619515Y-16486508D01*
X13619515Y-16486508D02*
X13638562Y-16476984D01*
X13829039Y-16476984D02*
X13848086Y-16476984D01*
X13848086Y-16476984D02*
X13867134Y-16486508D01*
X13867134Y-16486508D02*
X13876658Y-16496031D01*
X13876658Y-16496031D02*
X13886182Y-16515079D01*
X13886182Y-16515079D02*
X13895705Y-16553174D01*
X13895705Y-16553174D02*
X13895705Y-16600793D01*
X13895705Y-16600793D02*
X13886182Y-16638888D01*
X13886182Y-16638888D02*
X13876658Y-16657936D01*
X13876658Y-16657936D02*
X13867134Y-16667460D01*
X13867134Y-16667460D02*
X13848086Y-16676984D01*
X13848086Y-16676984D02*
X13829039Y-16676984D01*
X13829039Y-16676984D02*
X13809991Y-16667460D01*
X13809991Y-16667460D02*
X13800467Y-16657936D01*
X13800467Y-16657936D02*
X13790943Y-16638888D01*
X13790943Y-16638888D02*
X13781420Y-16600793D01*
X13781420Y-16600793D02*
X13781420Y-16553174D01*
X13781420Y-16553174D02*
X13790943Y-16515079D01*
X13790943Y-16515079D02*
X13800467Y-16496031D01*
X13800467Y-16496031D02*
X13809991Y-16486508D01*
X13809991Y-16486508D02*
X13829039Y-16476984D01*
X13981420Y-16676984D02*
X13981420Y-16543650D01*
X13981420Y-16562698D02*
X13990943Y-16553174D01*
X13990943Y-16553174D02*
X14009991Y-16543650D01*
X14009991Y-16543650D02*
X14038563Y-16543650D01*
X14038563Y-16543650D02*
X14057610Y-16553174D01*
X14057610Y-16553174D02*
X14067134Y-16572222D01*
X14067134Y-16572222D02*
X14067134Y-16676984D01*
X14067134Y-16572222D02*
X14076658Y-16553174D01*
X14076658Y-16553174D02*
X14095705Y-16543650D01*
X14095705Y-16543650D02*
X14124277Y-16543650D01*
X14124277Y-16543650D02*
X14143324Y-16553174D01*
X14143324Y-16553174D02*
X14152848Y-16572222D01*
X14152848Y-16572222D02*
X14152848Y-16676984D01*
X14248086Y-16676984D02*
X14248086Y-16543650D01*
X14248086Y-16562698D02*
X14257610Y-16553174D01*
X14257610Y-16553174D02*
X14276658Y-16543650D01*
X14276658Y-16543650D02*
X14305229Y-16543650D01*
X14305229Y-16543650D02*
X14324277Y-16553174D01*
X14324277Y-16553174D02*
X14333801Y-16572222D01*
X14333801Y-16572222D02*
X14333801Y-16676984D01*
X14333801Y-16572222D02*
X14343324Y-16553174D01*
X14343324Y-16553174D02*
X14362372Y-16543650D01*
X14362372Y-16543650D02*
X14390943Y-16543650D01*
X14390943Y-16543650D02*
X14409991Y-16553174D01*
X14409991Y-16553174D02*
X14419515Y-16572222D01*
X14419515Y-16572222D02*
X14419515Y-16676984D01*
X14809991Y-16467460D02*
X14638563Y-16724603D01*
X15067134Y-16476984D02*
X15086182Y-16476984D01*
X15086182Y-16476984D02*
X15105229Y-16486508D01*
X15105229Y-16486508D02*
X15114753Y-16496031D01*
X15114753Y-16496031D02*
X15124277Y-16515079D01*
X15124277Y-16515079D02*
X15133801Y-16553174D01*
X15133801Y-16553174D02*
X15133801Y-16600793D01*
X15133801Y-16600793D02*
X15124277Y-16638888D01*
X15124277Y-16638888D02*
X15114753Y-16657936D01*
X15114753Y-16657936D02*
X15105229Y-16667460D01*
X15105229Y-16667460D02*
X15086182Y-16676984D01*
X15086182Y-16676984D02*
X15067134Y-16676984D01*
X15067134Y-16676984D02*
X15048086Y-16667460D01*
X15048086Y-16667460D02*
X15038563Y-16657936D01*
X15038563Y-16657936D02*
X15029039Y-16638888D01*
X15029039Y-16638888D02*
X15019515Y-16600793D01*
X15019515Y-16600793D02*
X15019515Y-16553174D01*
X15019515Y-16553174D02*
X15029039Y-16515079D01*
X15029039Y-16515079D02*
X15038563Y-16496031D01*
X15038563Y-16496031D02*
X15048086Y-16486508D01*
X15048086Y-16486508D02*
X15067134Y-16476984D01*
X15219515Y-16657936D02*
X15229039Y-16667460D01*
X15229039Y-16667460D02*
X15219515Y-16676984D01*
X15219515Y-16676984D02*
X15209991Y-16667460D01*
X15209991Y-16667460D02*
X15219515Y-16657936D01*
X15219515Y-16657936D02*
X15219515Y-16676984D01*
X15419515Y-16676984D02*
X15305229Y-16676984D01*
X15362372Y-16676984D02*
X15362372Y-16476984D01*
X15362372Y-16476984D02*
X15343325Y-16505555D01*
X15343325Y-16505555D02*
X15324277Y-16524603D01*
X15324277Y-16524603D02*
X15305229Y-16534127D01*
X15495706Y-16496031D02*
X15505229Y-16486508D01*
X15505229Y-16486508D02*
X15524277Y-16476984D01*
X15524277Y-16476984D02*
X15571896Y-16476984D01*
X15571896Y-16476984D02*
X15590944Y-16486508D01*
X15590944Y-16486508D02*
X15600467Y-16496031D01*
X15600467Y-16496031D02*
X15609991Y-16515079D01*
X15609991Y-16515079D02*
X15609991Y-16534127D01*
X15609991Y-16534127D02*
X15600467Y-16562698D01*
X15600467Y-16562698D02*
X15486182Y-16676984D01*
X15486182Y-16676984D02*
X15609991Y-16676984D01*
X15781420Y-16476984D02*
X15743325Y-16476984D01*
X15743325Y-16476984D02*
X15724277Y-16486508D01*
X15724277Y-16486508D02*
X15714753Y-16496031D01*
X15714753Y-16496031D02*
X15695706Y-16524603D01*
X15695706Y-16524603D02*
X15686182Y-16562698D01*
X15686182Y-16562698D02*
X15686182Y-16638888D01*
X15686182Y-16638888D02*
X15695706Y-16657936D01*
X15695706Y-16657936D02*
X15705229Y-16667460D01*
X15705229Y-16667460D02*
X15724277Y-16676984D01*
X15724277Y-16676984D02*
X15762372Y-16676984D01*
X15762372Y-16676984D02*
X15781420Y-16667460D01*
X15781420Y-16667460D02*
X15790944Y-16657936D01*
X15790944Y-16657936D02*
X15800467Y-16638888D01*
X15800467Y-16638888D02*
X15800467Y-16591269D01*
X15800467Y-16591269D02*
X15790944Y-16572222D01*
X15790944Y-16572222D02*
X15781420Y-16562698D01*
X15781420Y-16562698D02*
X15762372Y-16553174D01*
X15762372Y-16553174D02*
X15724277Y-16553174D01*
X15724277Y-16553174D02*
X15705229Y-16562698D01*
X15705229Y-16562698D02*
X15695706Y-16572222D01*
X15695706Y-16572222D02*
X15686182Y-16591269D01*
X15924277Y-16476984D02*
X15943325Y-16476984D01*
X15943325Y-16476984D02*
X15962372Y-16486508D01*
X15962372Y-16486508D02*
X15971896Y-16496031D01*
X15971896Y-16496031D02*
X15981420Y-16515079D01*
X15981420Y-16515079D02*
X15990944Y-16553174D01*
X15990944Y-16553174D02*
X15990944Y-16600793D01*
X15990944Y-16600793D02*
X15981420Y-16638888D01*
X15981420Y-16638888D02*
X15971896Y-16657936D01*
X15971896Y-16657936D02*
X15962372Y-16667460D01*
X15962372Y-16667460D02*
X15943325Y-16676984D01*
X15943325Y-16676984D02*
X15924277Y-16676984D01*
X15924277Y-16676984D02*
X15905229Y-16667460D01*
X15905229Y-16667460D02*
X15895706Y-16657936D01*
X15895706Y-16657936D02*
X15886182Y-16638888D01*
X15886182Y-16638888D02*
X15876658Y-16600793D01*
X15876658Y-16600793D02*
X15876658Y-16553174D01*
X15876658Y-16553174D02*
X15886182Y-16515079D01*
X15886182Y-16515079D02*
X15895706Y-16496031D01*
X15895706Y-16496031D02*
X15905229Y-16486508D01*
X15905229Y-16486508D02*
X15924277Y-16476984D01*
X16067134Y-16476984D02*
X16067134Y-16515079D01*
X16143325Y-16476984D02*
X16143325Y-16515079D01*
X16438563Y-16753174D02*
X16429039Y-16743650D01*
X16429039Y-16743650D02*
X16409991Y-16715079D01*
X16409991Y-16715079D02*
X16400468Y-16696031D01*
X16400468Y-16696031D02*
X16390944Y-16667460D01*
X16390944Y-16667460D02*
X16381420Y-16619841D01*
X16381420Y-16619841D02*
X16381420Y-16581746D01*
X16381420Y-16581746D02*
X16390944Y-16534127D01*
X16390944Y-16534127D02*
X16400468Y-16505555D01*
X16400468Y-16505555D02*
X16409991Y-16486508D01*
X16409991Y-16486508D02*
X16429039Y-16457936D01*
X16429039Y-16457936D02*
X16438563Y-16448412D01*
X16600468Y-16476984D02*
X16562372Y-16476984D01*
X16562372Y-16476984D02*
X16543325Y-16486508D01*
X16543325Y-16486508D02*
X16533801Y-16496031D01*
X16533801Y-16496031D02*
X16514753Y-16524603D01*
X16514753Y-16524603D02*
X16505229Y-16562698D01*
X16505229Y-16562698D02*
X16505229Y-16638888D01*
X16505229Y-16638888D02*
X16514753Y-16657936D01*
X16514753Y-16657936D02*
X16524277Y-16667460D01*
X16524277Y-16667460D02*
X16543325Y-16676984D01*
X16543325Y-16676984D02*
X16581420Y-16676984D01*
X16581420Y-16676984D02*
X16600468Y-16667460D01*
X16600468Y-16667460D02*
X16609991Y-16657936D01*
X16609991Y-16657936D02*
X16619515Y-16638888D01*
X16619515Y-16638888D02*
X16619515Y-16591269D01*
X16619515Y-16591269D02*
X16609991Y-16572222D01*
X16609991Y-16572222D02*
X16600468Y-16562698D01*
X16600468Y-16562698D02*
X16581420Y-16553174D01*
X16581420Y-16553174D02*
X16543325Y-16553174D01*
X16543325Y-16553174D02*
X16524277Y-16562698D01*
X16524277Y-16562698D02*
X16514753Y-16572222D01*
X16514753Y-16572222D02*
X16505229Y-16591269D01*
X16857611Y-16676984D02*
X16857611Y-16476984D01*
X16943325Y-16676984D02*
X16943325Y-16572222D01*
X16943325Y-16572222D02*
X16933801Y-16553174D01*
X16933801Y-16553174D02*
X16914753Y-16543650D01*
X16914753Y-16543650D02*
X16886182Y-16543650D01*
X16886182Y-16543650D02*
X16867134Y-16553174D01*
X16867134Y-16553174D02*
X16857611Y-16562698D01*
X17067134Y-16676984D02*
X17048087Y-16667460D01*
X17048087Y-16667460D02*
X17038563Y-16657936D01*
X17038563Y-16657936D02*
X17029039Y-16638888D01*
X17029039Y-16638888D02*
X17029039Y-16581746D01*
X17029039Y-16581746D02*
X17038563Y-16562698D01*
X17038563Y-16562698D02*
X17048087Y-16553174D01*
X17048087Y-16553174D02*
X17067134Y-16543650D01*
X17067134Y-16543650D02*
X17095706Y-16543650D01*
X17095706Y-16543650D02*
X17114753Y-16553174D01*
X17114753Y-16553174D02*
X17124277Y-16562698D01*
X17124277Y-16562698D02*
X17133801Y-16581746D01*
X17133801Y-16581746D02*
X17133801Y-16638888D01*
X17133801Y-16638888D02*
X17124277Y-16657936D01*
X17124277Y-16657936D02*
X17114753Y-16667460D01*
X17114753Y-16667460D02*
X17095706Y-16676984D01*
X17095706Y-16676984D02*
X17067134Y-16676984D01*
X17248087Y-16676984D02*
X17229039Y-16667460D01*
X17229039Y-16667460D02*
X17219515Y-16648412D01*
X17219515Y-16648412D02*
X17219515Y-16476984D01*
X17400468Y-16667460D02*
X17381420Y-16676984D01*
X17381420Y-16676984D02*
X17343325Y-16676984D01*
X17343325Y-16676984D02*
X17324277Y-16667460D01*
X17324277Y-16667460D02*
X17314753Y-16648412D01*
X17314753Y-16648412D02*
X17314753Y-16572222D01*
X17314753Y-16572222D02*
X17324277Y-16553174D01*
X17324277Y-16553174D02*
X17343325Y-16543650D01*
X17343325Y-16543650D02*
X17381420Y-16543650D01*
X17381420Y-16543650D02*
X17400468Y-16553174D01*
X17400468Y-16553174D02*
X17409992Y-16572222D01*
X17409992Y-16572222D02*
X17409992Y-16591269D01*
X17409992Y-16591269D02*
X17314753Y-16610317D01*
X17486182Y-16667460D02*
X17505230Y-16676984D01*
X17505230Y-16676984D02*
X17543325Y-16676984D01*
X17543325Y-16676984D02*
X17562373Y-16667460D01*
X17562373Y-16667460D02*
X17571896Y-16648412D01*
X17571896Y-16648412D02*
X17571896Y-16638888D01*
X17571896Y-16638888D02*
X17562373Y-16619841D01*
X17562373Y-16619841D02*
X17543325Y-16610317D01*
X17543325Y-16610317D02*
X17514753Y-16610317D01*
X17514753Y-16610317D02*
X17495706Y-16600793D01*
X17495706Y-16600793D02*
X17486182Y-16581746D01*
X17486182Y-16581746D02*
X17486182Y-16572222D01*
X17486182Y-16572222D02*
X17495706Y-16553174D01*
X17495706Y-16553174D02*
X17514753Y-16543650D01*
X17514753Y-16543650D02*
X17543325Y-16543650D01*
X17543325Y-16543650D02*
X17562373Y-16553174D01*
X17638563Y-16753174D02*
X17648087Y-16743650D01*
X17648087Y-16743650D02*
X17667134Y-16715079D01*
X17667134Y-16715079D02*
X17676658Y-16696031D01*
X17676658Y-16696031D02*
X17686182Y-16667460D01*
X17686182Y-16667460D02*
X17695706Y-16619841D01*
X17695706Y-16619841D02*
X17695706Y-16581746D01*
X17695706Y-16581746D02*
X17686182Y-16534127D01*
X17686182Y-16534127D02*
X17676658Y-16505555D01*
X17676658Y-16505555D02*
X17667134Y-16486508D01*
X17667134Y-16486508D02*
X17648087Y-16457936D01*
X17648087Y-16457936D02*
X17638563Y-16448412D01*
X18000468Y-16753174D02*
X17990944Y-16743650D01*
X17990944Y-16743650D02*
X17971896Y-16715079D01*
X17971896Y-16715079D02*
X17962373Y-16696031D01*
X17962373Y-16696031D02*
X17952849Y-16667460D01*
X17952849Y-16667460D02*
X17943325Y-16619841D01*
X17943325Y-16619841D02*
X17943325Y-16581746D01*
X17943325Y-16581746D02*
X17952849Y-16534127D01*
X17952849Y-16534127D02*
X17962373Y-16505555D01*
X17962373Y-16505555D02*
X17971896Y-16486508D01*
X17971896Y-16486508D02*
X17990944Y-16457936D01*
X17990944Y-16457936D02*
X18000468Y-16448412D01*
X18076658Y-16543650D02*
X18076658Y-16676984D01*
X18076658Y-16562698D02*
X18086182Y-16553174D01*
X18086182Y-16553174D02*
X18105230Y-16543650D01*
X18105230Y-16543650D02*
X18133801Y-16543650D01*
X18133801Y-16543650D02*
X18152849Y-16553174D01*
X18152849Y-16553174D02*
X18162373Y-16572222D01*
X18162373Y-16572222D02*
X18162373Y-16676984D01*
X18286182Y-16676984D02*
X18267134Y-16667460D01*
X18267134Y-16667460D02*
X18257611Y-16657936D01*
X18257611Y-16657936D02*
X18248087Y-16638888D01*
X18248087Y-16638888D02*
X18248087Y-16581746D01*
X18248087Y-16581746D02*
X18257611Y-16562698D01*
X18257611Y-16562698D02*
X18267134Y-16553174D01*
X18267134Y-16553174D02*
X18286182Y-16543650D01*
X18286182Y-16543650D02*
X18314754Y-16543650D01*
X18314754Y-16543650D02*
X18333801Y-16553174D01*
X18333801Y-16553174D02*
X18343325Y-16562698D01*
X18343325Y-16562698D02*
X18352849Y-16581746D01*
X18352849Y-16581746D02*
X18352849Y-16638888D01*
X18352849Y-16638888D02*
X18343325Y-16657936D01*
X18343325Y-16657936D02*
X18333801Y-16667460D01*
X18333801Y-16667460D02*
X18314754Y-16676984D01*
X18314754Y-16676984D02*
X18286182Y-16676984D01*
X18409992Y-16543650D02*
X18486182Y-16543650D01*
X18438563Y-16476984D02*
X18438563Y-16648412D01*
X18438563Y-16648412D02*
X18448087Y-16667460D01*
X18448087Y-16667460D02*
X18467134Y-16676984D01*
X18467134Y-16676984D02*
X18486182Y-16676984D01*
X18705230Y-16543650D02*
X18705230Y-16743650D01*
X18705230Y-16553174D02*
X18724277Y-16543650D01*
X18724277Y-16543650D02*
X18762373Y-16543650D01*
X18762373Y-16543650D02*
X18781420Y-16553174D01*
X18781420Y-16553174D02*
X18790944Y-16562698D01*
X18790944Y-16562698D02*
X18800468Y-16581746D01*
X18800468Y-16581746D02*
X18800468Y-16638888D01*
X18800468Y-16638888D02*
X18790944Y-16657936D01*
X18790944Y-16657936D02*
X18781420Y-16667460D01*
X18781420Y-16667460D02*
X18762373Y-16676984D01*
X18762373Y-16676984D02*
X18724277Y-16676984D01*
X18724277Y-16676984D02*
X18705230Y-16667460D01*
X18914754Y-16676984D02*
X18895706Y-16667460D01*
X18895706Y-16667460D02*
X18886182Y-16648412D01*
X18886182Y-16648412D02*
X18886182Y-16476984D01*
X19076658Y-16676984D02*
X19076658Y-16572222D01*
X19076658Y-16572222D02*
X19067135Y-16553174D01*
X19067135Y-16553174D02*
X19048087Y-16543650D01*
X19048087Y-16543650D02*
X19009992Y-16543650D01*
X19009992Y-16543650D02*
X18990944Y-16553174D01*
X19076658Y-16667460D02*
X19057611Y-16676984D01*
X19057611Y-16676984D02*
X19009992Y-16676984D01*
X19009992Y-16676984D02*
X18990944Y-16667460D01*
X18990944Y-16667460D02*
X18981420Y-16648412D01*
X18981420Y-16648412D02*
X18981420Y-16629365D01*
X18981420Y-16629365D02*
X18990944Y-16610317D01*
X18990944Y-16610317D02*
X19009992Y-16600793D01*
X19009992Y-16600793D02*
X19057611Y-16600793D01*
X19057611Y-16600793D02*
X19076658Y-16591269D01*
X19143325Y-16543650D02*
X19219515Y-16543650D01*
X19171896Y-16476984D02*
X19171896Y-16648412D01*
X19171896Y-16648412D02*
X19181420Y-16667460D01*
X19181420Y-16667460D02*
X19200468Y-16676984D01*
X19200468Y-16676984D02*
X19219515Y-16676984D01*
X19362373Y-16667460D02*
X19343325Y-16676984D01*
X19343325Y-16676984D02*
X19305230Y-16676984D01*
X19305230Y-16676984D02*
X19286182Y-16667460D01*
X19286182Y-16667460D02*
X19276658Y-16648412D01*
X19276658Y-16648412D02*
X19276658Y-16572222D01*
X19276658Y-16572222D02*
X19286182Y-16553174D01*
X19286182Y-16553174D02*
X19305230Y-16543650D01*
X19305230Y-16543650D02*
X19343325Y-16543650D01*
X19343325Y-16543650D02*
X19362373Y-16553174D01*
X19362373Y-16553174D02*
X19371896Y-16572222D01*
X19371896Y-16572222D02*
X19371896Y-16591269D01*
X19371896Y-16591269D02*
X19276658Y-16610317D01*
X19543325Y-16676984D02*
X19543325Y-16476984D01*
X19543325Y-16667460D02*
X19524277Y-16676984D01*
X19524277Y-16676984D02*
X19486182Y-16676984D01*
X19486182Y-16676984D02*
X19467135Y-16667460D01*
X19467135Y-16667460D02*
X19457611Y-16657936D01*
X19457611Y-16657936D02*
X19448087Y-16638888D01*
X19448087Y-16638888D02*
X19448087Y-16581746D01*
X19448087Y-16581746D02*
X19457611Y-16562698D01*
X19457611Y-16562698D02*
X19467135Y-16553174D01*
X19467135Y-16553174D02*
X19486182Y-16543650D01*
X19486182Y-16543650D02*
X19524277Y-16543650D01*
X19524277Y-16543650D02*
X19543325Y-16553174D01*
X19619516Y-16753174D02*
X19629039Y-16743650D01*
X19629039Y-16743650D02*
X19648087Y-16715079D01*
X19648087Y-16715079D02*
X19657611Y-16696031D01*
X19657611Y-16696031D02*
X19667135Y-16667460D01*
X19667135Y-16667460D02*
X19676658Y-16619841D01*
X19676658Y-16619841D02*
X19676658Y-16581746D01*
X19676658Y-16581746D02*
X19667135Y-16534127D01*
X19667135Y-16534127D02*
X19657611Y-16505555D01*
X19657611Y-16505555D02*
X19648087Y-16486508D01*
X19648087Y-16486508D02*
X19629039Y-16457936D01*
X19629039Y-16457936D02*
X19619516Y-16448412D01*
M02*
