%TF.GenerationSoftware,KiCad,Pcbnew,8.0.6-8.0.6-0~ubuntu24.04.1*%
%TF.CreationDate,2024-10-19T11:53:00+02:00*%
%TF.ProjectId,K3NG-rotator-shield,4b334e47-2d72-46f7-9461-746f722d7368,rev?*%
%TF.SameCoordinates,Original*%
%TF.FileFunction,Copper,L1,Top*%
%TF.FilePolarity,Positive*%
%FSLAX46Y46*%
G04 Gerber Fmt 4.6, Leading zero omitted, Abs format (unit mm)*
G04 Created by KiCad (PCBNEW 8.0.6-8.0.6-0~ubuntu24.04.1) date 2024-10-19 11:53:00*
%MOMM*%
%LPD*%
G01*
G04 APERTURE LIST*
G04 Aperture macros list*
%AMRoundRect*
0 Rectangle with rounded corners*
0 $1 Rounding radius*
0 $2 $3 $4 $5 $6 $7 $8 $9 X,Y pos of 4 corners*
0 Add a 4 corners polygon primitive as box body*
4,1,4,$2,$3,$4,$5,$6,$7,$8,$9,$2,$3,0*
0 Add four circle primitives for the rounded corners*
1,1,$1+$1,$2,$3*
1,1,$1+$1,$4,$5*
1,1,$1+$1,$6,$7*
1,1,$1+$1,$8,$9*
0 Add four rect primitives between the rounded corners*
20,1,$1+$1,$2,$3,$4,$5,0*
20,1,$1+$1,$4,$5,$6,$7,0*
20,1,$1+$1,$6,$7,$8,$9,0*
20,1,$1+$1,$8,$9,$2,$3,0*%
G04 Aperture macros list end*
%TA.AperFunction,ComponentPad*%
%ADD10C,1.600000*%
%TD*%
%TA.AperFunction,ComponentPad*%
%ADD11C,7.500000*%
%TD*%
%TA.AperFunction,SMDPad,CuDef*%
%ADD12RoundRect,0.150000X-0.825000X-0.150000X0.825000X-0.150000X0.825000X0.150000X-0.825000X0.150000X0*%
%TD*%
%TA.AperFunction,ComponentPad*%
%ADD13C,0.500000*%
%TD*%
%TA.AperFunction,SMDPad,CuDef*%
%ADD14R,2.290000X3.000000*%
%TD*%
%TA.AperFunction,ComponentPad*%
%ADD15O,1.727200X1.727200*%
%TD*%
%TA.AperFunction,ComponentPad*%
%ADD16R,1.727200X1.727200*%
%TD*%
%TA.AperFunction,ComponentPad*%
%ADD17C,1.400000*%
%TD*%
%TA.AperFunction,ComponentPad*%
%ADD18O,1.400000X1.400000*%
%TD*%
%TA.AperFunction,ComponentPad*%
%ADD19R,1.700000X1.700000*%
%TD*%
%TA.AperFunction,ComponentPad*%
%ADD20O,1.700000X1.700000*%
%TD*%
%TA.AperFunction,ComponentPad*%
%ADD21R,2.000000X2.000000*%
%TD*%
%TA.AperFunction,ComponentPad*%
%ADD22C,2.000000*%
%TD*%
%TA.AperFunction,ViaPad*%
%ADD23C,0.600000*%
%TD*%
%TA.AperFunction,Conductor*%
%ADD24C,0.600000*%
%TD*%
%TA.AperFunction,Conductor*%
%ADD25C,2.000000*%
%TD*%
%TA.AperFunction,Conductor*%
%ADD26C,0.601000*%
%TD*%
G04 APERTURE END LIST*
D10*
%TO.P,C1,1*%
%TO.N,/AzimuthV*%
X159280000Y-79150000D03*
%TO.P,C1,2*%
%TO.N,GND*%
X164280000Y-79150000D03*
%TD*%
D11*
%TO.P,J15,1,Pin_1*%
%TO.N,GND*%
X183750000Y-155250000D03*
%TD*%
D10*
%TO.P,C3,1*%
%TO.N,VM*%
X169250000Y-136000000D03*
%TO.P,C3,2*%
%TO.N,GND*%
X169250000Y-131000000D03*
%TD*%
D11*
%TO.P,J14,1,Pin_1*%
%TO.N,GND*%
X133250000Y-155000000D03*
%TD*%
D12*
%TO.P,U2,1,1*%
%TO.N,IPRO1*%
X168800000Y-143930000D03*
%TO.P,U2,2,2*%
%TO.N,RotateUP*%
X168800000Y-145200000D03*
%TO.P,U2,3,3*%
%TO.N,RotateDown*%
X168800000Y-146470000D03*
%TO.P,U2,4,4*%
%TO.N,Vref*%
X168800000Y-147740000D03*
%TO.P,U2,5,5*%
%TO.N,VM*%
X173750000Y-147740000D03*
%TO.P,U2,6,6*%
%TO.N,RotateDown-OUT*%
X173750000Y-146470000D03*
%TO.P,U2,7,7*%
%TO.N,GND*%
X173750000Y-145200000D03*
%TO.P,U2,8,8*%
%TO.N,RotateUP-OUT*%
X173750000Y-143930000D03*
D13*
%TO.P,U2,9,9*%
%TO.N,GND*%
X170625000Y-144835000D03*
X170625000Y-145835000D03*
X170625000Y-146835000D03*
D14*
X171275000Y-145835000D03*
D13*
X171925000Y-144835000D03*
X171925000Y-145835000D03*
X171925000Y-146835000D03*
%TD*%
D15*
%TO.P,A1,*%
%TO.N,*%
X134250000Y-52920000D03*
%TO.P,A1,3V3,3.3V*%
%TO.N,Vref*%
X134250000Y-60540000D03*
%TO.P,A1,5V1,5V*%
%TO.N,5V*%
X134250000Y-63080000D03*
%TO.P,A1,5V2,SPI_5V*%
%TO.N,unconnected-(A1-SPI_5V-Pad5V2)*%
X162190000Y-91147000D03*
%TO.P,A1,5V3,5V*%
%TO.N,unconnected-(A1-5V-Pad5V3)*%
X182510000Y-118960000D03*
%TO.P,A1,5V4,5V*%
%TO.N,unconnected-(A1-5V-Pad5V4)*%
X182510000Y-121500000D03*
%TO.P,A1,A0,A0*%
%TO.N,Net-(A1-PadA0)*%
X134250000Y-75780000D03*
%TO.P,A1,A1,A1*%
%TO.N,Net-(A1-PadA1)*%
X134250000Y-78320000D03*
%TO.P,A1,A2,A2*%
%TO.N,IPRO1*%
X134250000Y-80860000D03*
%TO.P,A1,A3,A3*%
%TO.N,IPRO2*%
X134250000Y-83400000D03*
%TO.P,A1,A4,A4*%
%TO.N,unconnected-(A1-PadA4)*%
X134250000Y-85940000D03*
%TO.P,A1,A5,A5*%
%TO.N,unconnected-(A1-PadA5)*%
X134250000Y-88480000D03*
%TO.P,A1,A6,A6*%
%TO.N,unconnected-(A1-PadA6)*%
X134250000Y-91020000D03*
%TO.P,A1,A7,A7*%
%TO.N,unconnected-(A1-PadA7)*%
X134250000Y-93560000D03*
%TO.P,A1,A8,A8*%
%TO.N,unconnected-(A1-PadA8)*%
X134250000Y-98640000D03*
%TO.P,A1,A9,A9*%
%TO.N,unconnected-(A1-PadA9)*%
X134250000Y-101180000D03*
%TO.P,A1,A10,A10*%
%TO.N,unconnected-(A1-PadA10)*%
X134250000Y-103720000D03*
%TO.P,A1,A11,A11*%
%TO.N,unconnected-(A1-PadA11)*%
X134250000Y-106260000D03*
%TO.P,A1,A12,A12*%
%TO.N,unconnected-(A1-PadA12)*%
X134250000Y-108800000D03*
%TO.P,A1,A13,A13*%
%TO.N,unconnected-(A1-PadA13)*%
X134250000Y-111340000D03*
%TO.P,A1,A14,A14*%
%TO.N,unconnected-(A1-PadA14)*%
X134250000Y-113880000D03*
%TO.P,A1,A15,A15*%
%TO.N,unconnected-(A1-PadA15)*%
X134250000Y-116420000D03*
%TO.P,A1,AREF,AREF*%
%TO.N,unconnected-(A1-PadAREF)*%
X182510000Y-48856000D03*
%TO.P,A1,D0,D0/RX0*%
%TO.N,unconnected-(A1-D0{slash}RX0-PadD0)*%
X182510000Y-88480000D03*
%TO.P,A1,D1,D1/TX0*%
%TO.N,unconnected-(A1-D1{slash}TX0-PadD1)*%
X182510000Y-85940000D03*
%TO.P,A1,D2,D2_INT0*%
%TO.N,unconnected-(A1-D2_INT0-PadD2)*%
X182510000Y-83400000D03*
%TO.P,A1,D3,D3_INT1*%
%TO.N,unconnected-(A1-D3_INT1-PadD3)*%
X182510000Y-80860000D03*
%TO.P,A1,D4,D4*%
%TO.N,unconnected-(A1-PadD4)*%
X182510000Y-78320000D03*
%TO.P,A1,D5,D5*%
%TO.N,RotateUP*%
X182510000Y-75780000D03*
%TO.P,A1,D6,D6*%
%TO.N,RotateCCW*%
X182510000Y-73240000D03*
%TO.P,A1,D7,D7*%
%TO.N,RotateCW*%
X182510000Y-70700000D03*
%TO.P,A1,D8,D8*%
%TO.N,RotateDown*%
X182510000Y-66636000D03*
%TO.P,A1,D9,D9*%
%TO.N,unconnected-(A1-PadD9)*%
X182510000Y-64096000D03*
%TO.P,A1,D10,D10*%
%TO.N,unconnected-(A1-PadD10)*%
X182510000Y-61556000D03*
%TO.P,A1,D11,D11*%
%TO.N,unconnected-(A1-PadD11)*%
X182510000Y-59016000D03*
%TO.P,A1,D12,D12*%
%TO.N,unconnected-(A1-PadD12)*%
X182510000Y-56476000D03*
%TO.P,A1,D13,D13*%
%TO.N,unconnected-(A1-PadD13)*%
X182510000Y-53936000D03*
%TO.P,A1,D14,D14/TX3*%
%TO.N,unconnected-(A1-D14{slash}TX3-PadD14)*%
X182510000Y-93560000D03*
%TO.P,A1,D15,D15/RX3*%
%TO.N,unconnected-(A1-D15{slash}RX3-PadD15)*%
X182510000Y-96100000D03*
%TO.P,A1,D16,D16/TX2*%
%TO.N,unconnected-(A1-D16{slash}TX2-PadD16)*%
X182510000Y-98640000D03*
%TO.P,A1,D17,D17/RX2*%
%TO.N,unconnected-(A1-D17{slash}RX2-PadD17)*%
X182510000Y-101180000D03*
%TO.P,A1,D18,D18/TX1*%
%TO.N,unconnected-(A1-D18{slash}TX1-PadD18)*%
X182510000Y-103720000D03*
%TO.P,A1,D19,D19/RX1*%
%TO.N,unconnected-(A1-D19{slash}RX1-PadD19)*%
X182510000Y-106260000D03*
%TO.P,A1,D20,D20/SDA*%
%TO.N,unconnected-(A1-D20{slash}SDA-PadD20)*%
X182510000Y-108800000D03*
%TO.P,A1,D21,D21/SCL*%
%TO.N,unconnected-(A1-D21{slash}SCL-PadD21)*%
X182510000Y-111340000D03*
%TO.P,A1,D22,D22*%
%TO.N,unconnected-(A1-PadD22)*%
X179970000Y-118960000D03*
%TO.P,A1,D23,D23*%
%TO.N,unconnected-(A1-PadD23)*%
X179970000Y-121500000D03*
%TO.P,A1,D24,D24*%
%TO.N,unconnected-(A1-PadD24)*%
X177430000Y-118960000D03*
%TO.P,A1,D25,D25*%
%TO.N,unconnected-(A1-PadD25)*%
X177430000Y-121500000D03*
%TO.P,A1,D26,D26*%
%TO.N,unconnected-(A1-PadD26)*%
X174890000Y-118960000D03*
%TO.P,A1,D27,D27*%
%TO.N,unconnected-(A1-PadD27)*%
X174890000Y-121500000D03*
%TO.P,A1,D28,D28*%
%TO.N,unconnected-(A1-PadD28)*%
X172350000Y-118960000D03*
%TO.P,A1,D29,D29*%
%TO.N,unconnected-(A1-PadD29)*%
X172350000Y-121500000D03*
%TO.P,A1,D30,D30*%
%TO.N,unconnected-(A1-PadD30)*%
X169810000Y-118960000D03*
%TO.P,A1,D31,D31*%
%TO.N,unconnected-(A1-PadD31)*%
X169810000Y-121500000D03*
%TO.P,A1,D32,D32*%
%TO.N,unconnected-(A1-PadD32)*%
X167270000Y-118960000D03*
%TO.P,A1,D33,D33*%
%TO.N,unconnected-(A1-PadD33)*%
X167270000Y-121500000D03*
%TO.P,A1,D34,D34*%
%TO.N,unconnected-(A1-PadD34)*%
X164730000Y-118960000D03*
%TO.P,A1,D35,D35*%
%TO.N,unconnected-(A1-PadD35)*%
X164730000Y-121500000D03*
%TO.P,A1,D36,D36*%
%TO.N,unconnected-(A1-PadD36)*%
X162190000Y-118960000D03*
%TO.P,A1,D37,D37*%
%TO.N,unconnected-(A1-PadD37)*%
X162190000Y-121500000D03*
%TO.P,A1,D38,D38*%
%TO.N,unconnected-(A1-PadD38)*%
X159650000Y-118960000D03*
%TO.P,A1,D39,D39*%
%TO.N,unconnected-(A1-PadD39)*%
X159650000Y-121500000D03*
%TO.P,A1,D40,D40*%
%TO.N,unconnected-(A1-PadD40)*%
X157110000Y-118960000D03*
%TO.P,A1,D41,D41*%
%TO.N,unconnected-(A1-PadD41)*%
X157110000Y-121500000D03*
%TO.P,A1,D42,D42*%
%TO.N,unconnected-(A1-PadD42)*%
X154570000Y-118960000D03*
%TO.P,A1,D43,D43*%
%TO.N,/Turn CW*%
X154570000Y-121500000D03*
%TO.P,A1,D44,D44*%
%TO.N,/Turn CCW*%
X152030000Y-118960000D03*
%TO.P,A1,D45,D45*%
%TO.N,/UP*%
X152030000Y-121500000D03*
%TO.P,A1,D46,D46*%
%TO.N,/DOWN*%
X149490000Y-118960000D03*
%TO.P,A1,D47,D47*%
%TO.N,Net-(J6-Pin_7)*%
X149490000Y-121500000D03*
%TO.P,A1,D48,D48*%
%TO.N,unconnected-(A1-PadD48)*%
X146950000Y-118960000D03*
%TO.P,A1,D49,D49*%
%TO.N,unconnected-(A1-PadD49)*%
X146950000Y-121500000D03*
%TO.P,A1,D50,D50_MISO*%
%TO.N,unconnected-(A1-D50_MISO-PadD50)*%
X144410000Y-118960000D03*
%TO.P,A1,D51,D51_MOSI*%
%TO.N,unconnected-(A1-D51_MOSI-PadD51)*%
X144410000Y-121500000D03*
%TO.P,A1,D52,D52_SCK*%
%TO.N,unconnected-(A1-D52_SCK-PadD52)*%
X141870000Y-118960000D03*
%TO.P,A1,D53,D53_CS*%
%TO.N,unconnected-(A1-D53_CS-PadD53)*%
X141870000Y-121500000D03*
D16*
%TO.P,A1,GND1,GND*%
%TO.N,GND*%
X182510000Y-51396000D03*
%TO.P,A1,GND2,GND*%
X134250000Y-65620000D03*
%TO.P,A1,GND3,GND*%
X134250000Y-68160000D03*
%TO.P,A1,GND4,SPI_GND*%
X157110000Y-91147000D03*
%TO.P,A1,GND5,GND*%
X139330000Y-118960000D03*
%TO.P,A1,GND6,GND*%
X139330000Y-121500000D03*
D15*
%TO.P,A1,IORF,IOREF*%
%TO.N,unconnected-(A1-IOREF-PadIORF)*%
X134250000Y-55460000D03*
%TO.P,A1,MISO,SPI_MISO*%
%TO.N,unconnected-(A1-SPI_MISO-PadMISO)*%
X162190000Y-88607000D03*
%TO.P,A1,MOSI,SPI_MOSI*%
%TO.N,unconnected-(A1-SPI_MOSI-PadMOSI)*%
X159650000Y-91147000D03*
%TO.P,A1,RST1,RESET*%
%TO.N,unconnected-(A1-RESET-PadRST1)*%
X134250000Y-58000000D03*
%TO.P,A1,RST2,SPI_RESET*%
%TO.N,unconnected-(A1-SPI_RESET-PadRST2)*%
X157110000Y-88607000D03*
%TO.P,A1,SCK,SPI_SCK*%
%TO.N,unconnected-(A1-SPI_SCK-PadSCK)*%
X159650000Y-88607000D03*
%TO.P,A1,SCL,SCL*%
%TO.N,/SCL*%
X182510000Y-43776000D03*
%TO.P,A1,SDA,SDA*%
%TO.N,/SDA*%
X182510000Y-46316000D03*
%TO.P,A1,VIN,VIN*%
%TO.N,unconnected-(A1-PadVIN)*%
X134250000Y-70700000D03*
%TD*%
D17*
%TO.P,R4,1*%
%TO.N,IPRO2*%
X142920000Y-132500000D03*
D18*
%TO.P,R4,2*%
%TO.N,GND*%
X148000000Y-132500000D03*
%TD*%
D19*
%TO.P,J6,1,Pin_1*%
%TO.N,GND*%
X150980000Y-103800000D03*
D20*
%TO.P,J6,2,Pin_2*%
X153520000Y-103800000D03*
%TO.P,J6,3,Pin_3*%
%TO.N,/Turn CW*%
X156060000Y-103800000D03*
%TO.P,J6,4,Pin_4*%
%TO.N,/Turn CCW*%
X158600000Y-103800000D03*
%TO.P,J6,5,Pin_5*%
%TO.N,/UP*%
X161140000Y-103800000D03*
%TO.P,J6,6,Pin_6*%
%TO.N,/DOWN*%
X163680000Y-103800000D03*
%TO.P,J6,7,Pin_7*%
%TO.N,Net-(J6-Pin_7)*%
X166220000Y-103800000D03*
%TD*%
D17*
%TO.P,R2,1*%
%TO.N,/AzimuthV*%
X150000000Y-83000000D03*
D18*
%TO.P,R2,2*%
%TO.N,Net-(A1-PadA0)*%
X155080000Y-83000000D03*
%TD*%
D19*
%TO.P,J4,1,Pin_1*%
%TO.N,/SDA*%
X153720000Y-55600000D03*
D20*
%TO.P,J4,2,Pin_2*%
%TO.N,/SCL*%
X156260000Y-55600000D03*
%TO.P,J4,3,Pin_3*%
%TO.N,5V*%
X158800000Y-55600000D03*
%TO.P,J4,4,Pin_4*%
%TO.N,GND*%
X161340000Y-55600000D03*
%TD*%
D19*
%TO.P,J7,1,Pin_1*%
%TO.N,/AzimuthV*%
X151120000Y-69200000D03*
D20*
%TO.P,J7,2,Pin_2*%
%TO.N,/ElevationV*%
X153660000Y-69200000D03*
%TO.P,J7,3,Pin_3*%
%TO.N,unconnected-(J7-Pin_3-Pad3)*%
X156200000Y-69200000D03*
%TO.P,J7,4,Pin_4*%
%TO.N,unconnected-(J7-Pin_4-Pad4)*%
X158740000Y-69200000D03*
%TO.P,J7,5,Pin_5*%
%TO.N,unconnected-(J7-Pin_5-Pad5)*%
X161280000Y-69200000D03*
%TO.P,J7,6,Pin_6*%
%TO.N,unconnected-(J7-Pin_6-Pad6)*%
X163820000Y-69200000D03*
%TD*%
D21*
%TO.P,C4,1*%
%TO.N,VM*%
X180750000Y-133250000D03*
D22*
%TO.P,C4,2*%
%TO.N,GND*%
X175750000Y-133250000D03*
%TD*%
D19*
%TO.P,J3,1,Pin_1*%
%TO.N,VM*%
X133000000Y-136540000D03*
D20*
%TO.P,J3,2,Pin_2*%
%TO.N,GND*%
X133000000Y-134000000D03*
%TD*%
D17*
%TO.P,R3,1*%
%TO.N,IPRO1*%
X148000000Y-136500000D03*
D18*
%TO.P,R3,2*%
%TO.N,GND*%
X142920000Y-136500000D03*
%TD*%
D17*
%TO.P,R1,1*%
%TO.N,/ElevationV*%
X150000000Y-79850000D03*
D18*
%TO.P,R1,2*%
%TO.N,Net-(A1-PadA1)*%
X155080000Y-79850000D03*
%TD*%
D12*
%TO.P,U1,1,1*%
%TO.N,IPRO2*%
X143880000Y-143930000D03*
%TO.P,U1,2,2*%
%TO.N,RotateCCW*%
X143880000Y-145200000D03*
%TO.P,U1,3,3*%
%TO.N,RotateCW*%
X143880000Y-146470000D03*
%TO.P,U1,4,4*%
%TO.N,Vref*%
X143880000Y-147740000D03*
%TO.P,U1,5,5*%
%TO.N,VM*%
X148830000Y-147740000D03*
%TO.P,U1,6,6*%
%TO.N,RotateCW-OUT*%
X148830000Y-146470000D03*
%TO.P,U1,7,7*%
%TO.N,GND*%
X148830000Y-145200000D03*
%TO.P,U1,8,8*%
%TO.N,RotateCCW-OUT*%
X148830000Y-143930000D03*
D13*
%TO.P,U1,9,9*%
%TO.N,GND*%
X145705000Y-144835000D03*
X145705000Y-145835000D03*
X145705000Y-146835000D03*
D14*
X146355000Y-145835000D03*
D13*
X147005000Y-144835000D03*
X147005000Y-145835000D03*
X147005000Y-146835000D03*
%TD*%
D19*
%TO.P,J2,1,Pin_1*%
%TO.N,RotateCW-OUT*%
X185800000Y-148020000D03*
D20*
%TO.P,J2,2,Pin_2*%
%TO.N,RotateCCW-OUT*%
X185800000Y-145480000D03*
%TO.P,J2,3,Pin_3*%
%TO.N,RotateDown-OUT*%
X185800000Y-142940000D03*
%TO.P,J2,4,Pin_4*%
%TO.N,RotateUP-OUT*%
X185800000Y-140400000D03*
%TD*%
D10*
%TO.P,C2,1*%
%TO.N,/ElevationV*%
X159280000Y-83200000D03*
%TO.P,C2,2*%
%TO.N,GND*%
X164280000Y-83200000D03*
%TD*%
D23*
%TO.N,GND*%
X166000000Y-146800000D03*
%TO.N,IPRO1*%
X169268400Y-141699800D03*
%TO.N,RotateDown*%
X180578800Y-125579700D03*
%TO.N,GND*%
X158000000Y-146400000D03*
%TO.N,Vref*%
X147124700Y-147880800D03*
X167546500Y-147071900D03*
%TO.N,RotateCCW-OUT*%
X151072800Y-143133100D03*
%TO.N,RotateCW-OUT*%
X151179700Y-146211100D03*
%TD*%
D24*
%TO.N,IPRO1*%
X169268400Y-141699800D02*
X169268400Y-143461600D01*
X169268400Y-143461600D02*
X168800000Y-143930000D01*
%TO.N,IPRO2*%
X142920000Y-132500000D02*
X144059300Y-133639300D01*
X144059300Y-133639300D02*
X144059300Y-143750700D01*
X144059300Y-143750700D02*
X143880000Y-143930000D01*
%TO.N,RotateCW*%
X137302800Y-106564400D02*
X159028000Y-84839200D01*
X143319100Y-146470000D02*
X137302800Y-140453700D01*
X159028000Y-84839200D02*
X166907200Y-84839200D01*
X182510000Y-70700000D02*
X181046400Y-70700000D01*
X166907200Y-84839200D02*
X181046400Y-70700000D01*
X143880000Y-146470000D02*
X143319100Y-146470000D01*
X137302800Y-140453700D02*
X137302800Y-106564400D01*
%TO.N,RotateDown*%
X173207500Y-132951000D02*
X173207500Y-134308300D01*
X173207500Y-134308300D02*
X166626400Y-140889400D01*
X166626400Y-140889400D02*
X166626400Y-144855900D01*
X168240500Y-146470000D02*
X168800000Y-146470000D01*
X166626400Y-144855900D02*
X168240500Y-146470000D01*
X180578800Y-125579700D02*
X173207500Y-132951000D01*
%TO.N,RotateUP*%
X168271400Y-145200000D02*
X168800000Y-145200000D01*
X168965200Y-140968100D02*
X167378900Y-142554400D01*
X167378900Y-142554400D02*
X167378900Y-144307500D01*
X184811900Y-126224600D02*
X170068400Y-140968100D01*
X184811900Y-78081900D02*
X184811900Y-126224600D01*
X182510000Y-75780000D02*
X184811900Y-78081900D01*
X170068400Y-140968100D02*
X168965200Y-140968100D01*
X167378900Y-144307500D02*
X168271400Y-145200000D01*
%TO.N,Vref*%
X167546500Y-147071900D02*
X168214600Y-147740000D01*
X144020800Y-147880800D02*
X147124700Y-147880800D01*
X136185700Y-128157500D02*
X136185700Y-140585300D01*
X168214600Y-147740000D02*
X168800000Y-147740000D01*
X134250000Y-60540000D02*
X131939000Y-62851000D01*
X131939000Y-62851000D02*
X131939000Y-123910800D01*
X143880000Y-147740000D02*
X144020800Y-147880800D01*
X143340400Y-147740000D02*
X143880000Y-147740000D01*
X131939000Y-123910800D02*
X136185700Y-128157500D01*
X136185700Y-140585300D02*
X143340400Y-147740000D01*
%TO.N,RotateCCW*%
X163978500Y-90307900D02*
X181046400Y-73240000D01*
X159994700Y-92463300D02*
X162744000Y-92463300D01*
X182510000Y-73240000D02*
X181046400Y-73240000D01*
X138034700Y-139939200D02*
X138034700Y-114423300D01*
X162744000Y-92463300D02*
X163978500Y-91228800D01*
X138034700Y-114423300D02*
X159994700Y-92463300D01*
X163978500Y-91228800D02*
X163978500Y-90307900D01*
X143880000Y-145200000D02*
X143295500Y-145200000D01*
X143295500Y-145200000D02*
X138034700Y-139939200D01*
%TO.N,/AzimuthV*%
X151120000Y-70650000D02*
X159280000Y-78810000D01*
X159280000Y-78810000D02*
X159280000Y-79150000D01*
X151120000Y-69200000D02*
X151120000Y-70650000D01*
%TO.N,/ElevationV*%
X150000000Y-79850000D02*
X150000000Y-80296000D01*
X150000000Y-80296000D02*
X153865900Y-84161900D01*
X158318100Y-84161900D02*
X159280000Y-83200000D01*
X153865900Y-84161900D02*
X158318100Y-84161900D01*
D25*
%TO.N,VM*%
X151600000Y-149347300D02*
X166372100Y-149347300D01*
X166372100Y-149347300D02*
X142675200Y-149347300D01*
X133000000Y-139672100D02*
X133000000Y-136540000D01*
X164400000Y-149347300D02*
X164400000Y-140850000D01*
X151600000Y-149347300D02*
X164400000Y-149347300D01*
X166536500Y-149182900D02*
X166372100Y-149347300D01*
D26*
X173750000Y-149182900D02*
X173750000Y-147740000D01*
D25*
X142675200Y-149347300D02*
X133000000Y-139672100D01*
D26*
X149992700Y-147740000D02*
X148830000Y-147740000D01*
D25*
X166536500Y-149182900D02*
X173750000Y-149182900D01*
D26*
X151600000Y-149347300D02*
X149992700Y-147740000D01*
D25*
X164400000Y-140850000D02*
X169250000Y-136000000D01*
%TO.N,RotateUP-OUT*%
X185800000Y-140400000D02*
X183650000Y-140400000D01*
X183650000Y-140400000D02*
X183239400Y-139989400D01*
X183239400Y-139989400D02*
X177690600Y-139989400D01*
D26*
X177690600Y-139989400D02*
X173750000Y-143930000D01*
D25*
%TO.N,RotateCCW-OUT*%
X151072800Y-143133100D02*
X149626900Y-143133100D01*
D26*
X149626900Y-143133100D02*
X148830000Y-143930000D01*
%TO.N,RotateDown-OUT*%
X173799500Y-146519500D02*
X173750000Y-146470000D01*
X181730200Y-146519500D02*
X173799500Y-146519500D01*
D25*
X183650000Y-144599700D02*
X181730200Y-146519500D01*
X185800000Y-142940000D02*
X183650000Y-142940000D01*
X183650000Y-142940000D02*
X183650000Y-144599700D01*
D24*
%TO.N,/Turn CCW*%
X152030000Y-118960000D02*
X152030000Y-117496400D01*
X158600000Y-110926400D02*
X152030000Y-117496400D01*
X158600000Y-103800000D02*
X158600000Y-110926400D01*
%TO.N,/SDA*%
X163004000Y-46316000D02*
X182510000Y-46316000D01*
X153720000Y-55600000D02*
X163004000Y-46316000D01*
%TO.N,Net-(A1-PadA0)*%
X147535000Y-75780000D02*
X134250000Y-75780000D01*
X153780000Y-82025000D02*
X147535000Y-75780000D01*
X153780000Y-83000000D02*
X153780000Y-82025000D01*
X155080000Y-83000000D02*
X153780000Y-83000000D01*
%TO.N,Net-(J6-Pin_7)*%
X183816300Y-122090800D02*
X183101200Y-122805900D01*
X166220000Y-103800000D02*
X167670000Y-103800000D01*
X150795900Y-122805900D02*
X149490000Y-121500000D01*
X181418200Y-117548200D02*
X182997800Y-117548200D01*
X182997800Y-117548200D02*
X183816300Y-118366700D01*
X183816300Y-118366700D02*
X183816300Y-122090800D01*
X183101200Y-122805900D02*
X150795900Y-122805900D01*
X167670000Y-103800000D02*
X181418200Y-117548200D01*
D26*
%TO.N,RotateCW-OUT*%
X149088900Y-146211100D02*
X148830000Y-146470000D01*
X151179700Y-146211100D02*
X149088900Y-146211100D01*
%TD*%
%TA.AperFunction,Conductor*%
%TO.N,GND*%
G36*
X166105234Y-140860190D02*
G01*
X166161167Y-140902062D01*
X166185584Y-140967526D01*
X166185900Y-140976372D01*
X166185900Y-144797907D01*
X166185900Y-144913893D01*
X166194184Y-144944811D01*
X166215919Y-145025928D01*
X166244915Y-145076150D01*
X166273912Y-145126373D01*
X166273914Y-145126375D01*
X167567258Y-146419719D01*
X167600743Y-146481042D01*
X167595759Y-146550734D01*
X167553887Y-146606667D01*
X167491893Y-146629789D01*
X167491944Y-146630138D01*
X167490341Y-146630368D01*
X167488423Y-146631084D01*
X167484352Y-146631229D01*
X167483163Y-146631400D01*
X167428838Y-146647350D01*
X167426002Y-146648146D01*
X167376472Y-146661418D01*
X167371742Y-146663377D01*
X167362986Y-146666465D01*
X167361629Y-146667085D01*
X167337422Y-146682641D01*
X167329611Y-146687662D01*
X167319652Y-146694062D01*
X167314616Y-146697131D01*
X167276028Y-146719410D01*
X167269582Y-146724357D01*
X167269525Y-146724282D01*
X167257305Y-146734130D01*
X167255071Y-146735565D01*
X167255065Y-146735571D01*
X167226792Y-146768199D01*
X167220765Y-146774673D01*
X167194011Y-146801428D01*
X167191964Y-146804974D01*
X167178301Y-146824161D01*
X167172117Y-146831298D01*
X167156980Y-146864442D01*
X167151578Y-146874920D01*
X167136017Y-146901875D01*
X167136016Y-146901877D01*
X167133203Y-146912375D01*
X167126230Y-146931773D01*
X167119496Y-146946520D01*
X167119495Y-146946523D01*
X167115267Y-146975930D01*
X167112306Y-146990368D01*
X167106000Y-147013903D01*
X167106000Y-147031523D01*
X167104738Y-147049169D01*
X167101470Y-147071899D01*
X167104738Y-147094629D01*
X167106000Y-147112276D01*
X167106000Y-147129896D01*
X167112306Y-147153430D01*
X167115269Y-147167874D01*
X167119496Y-147197278D01*
X167126227Y-147212016D01*
X167133206Y-147231431D01*
X167136016Y-147241920D01*
X167136022Y-147241933D01*
X167151572Y-147268869D01*
X167156976Y-147279350D01*
X167166180Y-147299502D01*
X167172117Y-147312501D01*
X167178292Y-147319627D01*
X167191966Y-147338830D01*
X167194012Y-147342373D01*
X167220767Y-147369128D01*
X167226786Y-147375594D01*
X167251385Y-147403982D01*
X167255067Y-147408231D01*
X167257293Y-147409662D01*
X167277935Y-147426296D01*
X167648181Y-147796542D01*
X167681666Y-147857865D01*
X167684500Y-147884219D01*
X167684501Y-147918396D01*
X167664818Y-147985436D01*
X167612016Y-148031193D01*
X167560501Y-148042400D01*
X166631395Y-148042400D01*
X166631371Y-148042399D01*
X166626260Y-148042399D01*
X166446741Y-148042399D01*
X166393531Y-148050827D01*
X166269430Y-148070483D01*
X166269427Y-148070483D01*
X166098702Y-148125955D01*
X165966562Y-148193285D01*
X165910267Y-148206800D01*
X165664500Y-148206800D01*
X165597461Y-148187115D01*
X165551706Y-148134311D01*
X165540500Y-148082800D01*
X165540500Y-141373772D01*
X165560185Y-141306733D01*
X165576819Y-141286091D01*
X165974219Y-140888691D01*
X166035542Y-140855206D01*
X166105234Y-140860190D01*
G37*
%TD.AperFunction*%
%TA.AperFunction,Conductor*%
G36*
X187352539Y-24350185D02*
G01*
X187398294Y-24402989D01*
X187409500Y-24454500D01*
X187409500Y-158805500D01*
X187389815Y-158872539D01*
X187337011Y-158918294D01*
X187285500Y-158929500D01*
X129284500Y-158929500D01*
X129217461Y-158909815D01*
X129171706Y-158857011D01*
X129160500Y-158805500D01*
X129160500Y-62793007D01*
X131498500Y-62793007D01*
X131498500Y-123968792D01*
X131528519Y-124080828D01*
X131557515Y-124131050D01*
X131586512Y-124181273D01*
X131586514Y-124181275D01*
X135708881Y-128303642D01*
X135742366Y-128364965D01*
X135745200Y-128391323D01*
X135745200Y-140505028D01*
X135725515Y-140572067D01*
X135672711Y-140617822D01*
X135603553Y-140627766D01*
X135539997Y-140598741D01*
X135533519Y-140592709D01*
X134176819Y-139236009D01*
X134143334Y-139174686D01*
X134140500Y-139148328D01*
X134140500Y-136450241D01*
X134112417Y-136272932D01*
X134056943Y-136102200D01*
X134006523Y-136003245D01*
X134004014Y-135998321D01*
X133990499Y-135942026D01*
X133990499Y-135676163D01*
X133990499Y-135676160D01*
X133982349Y-135635179D01*
X133951295Y-135588705D01*
X133904821Y-135557651D01*
X133863841Y-135549500D01*
X133863840Y-135549500D01*
X133597972Y-135549500D01*
X133541677Y-135535985D01*
X133437802Y-135483058D01*
X133437801Y-135483057D01*
X133437800Y-135483057D01*
X133349243Y-135454283D01*
X133267069Y-135427583D01*
X133178413Y-135413541D01*
X133089759Y-135399500D01*
X132910241Y-135399500D01*
X132851138Y-135408861D01*
X132732930Y-135427583D01*
X132562201Y-135483056D01*
X132562200Y-135483056D01*
X132458321Y-135535985D01*
X132402027Y-135549500D01*
X132136163Y-135549500D01*
X132095179Y-135557651D01*
X132048705Y-135588705D01*
X132038401Y-135604124D01*
X132017651Y-135635178D01*
X132009500Y-135676160D01*
X132009500Y-135942027D01*
X131995985Y-135998322D01*
X131943055Y-136102202D01*
X131887583Y-136272930D01*
X131876388Y-136343613D01*
X131859500Y-136450241D01*
X131859500Y-139761859D01*
X131865896Y-139802244D01*
X131887583Y-139939169D01*
X131943055Y-140109897D01*
X131943057Y-140109900D01*
X132017737Y-140256468D01*
X132024559Y-140269855D01*
X132130068Y-140415078D01*
X132130072Y-140415082D01*
X132130075Y-140415086D01*
X132204747Y-140489758D01*
X132261344Y-140546355D01*
X132261355Y-140546365D01*
X141802149Y-150087159D01*
X141802163Y-150087174D01*
X141805274Y-150090285D01*
X141805275Y-150090286D01*
X141932214Y-150217225D01*
X142039699Y-150295317D01*
X142077448Y-150322743D01*
X142237400Y-150404243D01*
X142237402Y-150404244D01*
X142322766Y-150431980D01*
X142408132Y-150459717D01*
X142585441Y-150487800D01*
X142585442Y-150487800D01*
X166461858Y-150487800D01*
X166461859Y-150487800D01*
X166639168Y-150459717D01*
X166809900Y-150404243D01*
X166942038Y-150336914D01*
X166998333Y-150323400D01*
X173839758Y-150323400D01*
X173839759Y-150323400D01*
X174017068Y-150295317D01*
X174187800Y-150239843D01*
X174347752Y-150158343D01*
X174441431Y-150090282D01*
X174492980Y-150052830D01*
X174492982Y-150052827D01*
X174492986Y-150052825D01*
X174619925Y-149925886D01*
X174619927Y-149925882D01*
X174619930Y-149925880D01*
X174666200Y-149862193D01*
X174725443Y-149780652D01*
X174806943Y-149620700D01*
X174862417Y-149449968D01*
X174890500Y-149272659D01*
X174890500Y-149093141D01*
X174862417Y-148915832D01*
X174806943Y-148745100D01*
X174725443Y-148585148D01*
X174718663Y-148575816D01*
X174619930Y-148439919D01*
X174568623Y-148388612D01*
X174535138Y-148327289D01*
X174540122Y-148257597D01*
X174581994Y-148201664D01*
X174633892Y-148180993D01*
X174633658Y-148180132D01*
X174641223Y-148178073D01*
X174642019Y-148177756D01*
X174642662Y-148177682D01*
X174742016Y-148133813D01*
X174818813Y-148057016D01*
X174862682Y-147957662D01*
X174865500Y-147933373D01*
X174865499Y-147546628D01*
X174862682Y-147522338D01*
X174818813Y-147422984D01*
X174742016Y-147346187D01*
X174703216Y-147329055D01*
X174642663Y-147302318D01*
X174618374Y-147299500D01*
X174618373Y-147299500D01*
X173819981Y-147299500D01*
X173812348Y-147299000D01*
X173808059Y-147299000D01*
X173691941Y-147299000D01*
X173687658Y-147299000D01*
X173680019Y-147299500D01*
X172881634Y-147299500D01*
X172881611Y-147299502D01*
X172857340Y-147302317D01*
X172857337Y-147302318D01*
X172757984Y-147346186D01*
X172681187Y-147422983D01*
X172637318Y-147522335D01*
X172637318Y-147522337D01*
X172634500Y-147546625D01*
X172634500Y-147546627D01*
X172634501Y-147918400D01*
X172614817Y-147985439D01*
X172562013Y-148031194D01*
X172510501Y-148042400D01*
X170039500Y-148042400D01*
X169972461Y-148022715D01*
X169926706Y-147969911D01*
X169915500Y-147918400D01*
X169915499Y-147546634D01*
X169915499Y-147546628D01*
X169912682Y-147522338D01*
X169868813Y-147422984D01*
X169792016Y-147346187D01*
X169753216Y-147329055D01*
X169692663Y-147302318D01*
X169668374Y-147299500D01*
X169668373Y-147299500D01*
X168857994Y-147299500D01*
X168857993Y-147299500D01*
X168448423Y-147299500D01*
X168381384Y-147279815D01*
X168360742Y-147263181D01*
X168219742Y-147122181D01*
X168186257Y-147060858D01*
X168191241Y-146991166D01*
X168233113Y-146935233D01*
X168298577Y-146910816D01*
X168307423Y-146910500D01*
X168882656Y-146910500D01*
X168882660Y-146910499D01*
X169668366Y-146910499D01*
X169668372Y-146910499D01*
X169692662Y-146907682D01*
X169792016Y-146863813D01*
X169868813Y-146787016D01*
X169912682Y-146687662D01*
X169915500Y-146663373D01*
X169915499Y-146276628D01*
X169915499Y-146276625D01*
X172634500Y-146276625D01*
X172634500Y-146663365D01*
X172634502Y-146663388D01*
X172637317Y-146687659D01*
X172637318Y-146687662D01*
X172681186Y-146787015D01*
X172681187Y-146787016D01*
X172757984Y-146863813D01*
X172857338Y-146907682D01*
X172881627Y-146910500D01*
X173561505Y-146910499D01*
X173623502Y-146927110D01*
X173629281Y-146930447D01*
X173741441Y-146960500D01*
X180598900Y-146960500D01*
X180665939Y-146980185D01*
X180709384Y-147028204D01*
X180754757Y-147117252D01*
X180860276Y-147262486D01*
X180987214Y-147389424D01*
X181132448Y-147494943D01*
X181233883Y-147546627D01*
X181292402Y-147576444D01*
X181377766Y-147604180D01*
X181463132Y-147631917D01*
X181640441Y-147660000D01*
X181640442Y-147660000D01*
X181819958Y-147660000D01*
X181819959Y-147660000D01*
X181997268Y-147631917D01*
X182168000Y-147576443D01*
X182327952Y-147494943D01*
X182473186Y-147389424D01*
X182706450Y-147156160D01*
X184809500Y-147156160D01*
X184809500Y-148883836D01*
X184809501Y-148883839D01*
X184809501Y-148883840D01*
X184817651Y-148924821D01*
X184848705Y-148971295D01*
X184895179Y-149002349D01*
X184936159Y-149010500D01*
X186663840Y-149010499D01*
X186704821Y-149002349D01*
X186751295Y-148971295D01*
X186782349Y-148924821D01*
X186790500Y-148883841D01*
X186790499Y-147156160D01*
X186782349Y-147115179D01*
X186751295Y-147068705D01*
X186704821Y-147037651D01*
X186663841Y-147029500D01*
X186663839Y-147029500D01*
X184936163Y-147029500D01*
X184895179Y-147037651D01*
X184848705Y-147068705D01*
X184846571Y-147071899D01*
X184817651Y-147115178D01*
X184809500Y-147156160D01*
X182706450Y-147156160D01*
X184385917Y-145476691D01*
X184385924Y-145476686D01*
X184392984Y-145469626D01*
X184392986Y-145469625D01*
X184519925Y-145342686D01*
X184596517Y-145237264D01*
X184651846Y-145194600D01*
X184721459Y-145188621D01*
X184783255Y-145221226D01*
X184817612Y-145282065D01*
X184820238Y-145322305D01*
X184804707Y-145479999D01*
X184823830Y-145674169D01*
X184842710Y-145736408D01*
X184871299Y-145830654D01*
X184880471Y-145860888D01*
X184972440Y-146032949D01*
X184972444Y-146032956D01*
X185096221Y-146183778D01*
X185247043Y-146307555D01*
X185247050Y-146307559D01*
X185419111Y-146399528D01*
X185419114Y-146399528D01*
X185419118Y-146399531D01*
X185605828Y-146456169D01*
X185800000Y-146475293D01*
X185994172Y-146456169D01*
X186180882Y-146399531D01*
X186214953Y-146381320D01*
X186352949Y-146307559D01*
X186352955Y-146307556D01*
X186503778Y-146183778D01*
X186627556Y-146032955D01*
X186712108Y-145874769D01*
X186719528Y-145860888D01*
X186719528Y-145860887D01*
X186719531Y-145860882D01*
X186776169Y-145674172D01*
X186795293Y-145480000D01*
X186776169Y-145285828D01*
X186719531Y-145099118D01*
X186719528Y-145099114D01*
X186719528Y-145099111D01*
X186627559Y-144927050D01*
X186627555Y-144927043D01*
X186503778Y-144776221D01*
X186352956Y-144652444D01*
X186352949Y-144652440D01*
X186180888Y-144560471D01*
X186180882Y-144560469D01*
X185994172Y-144503831D01*
X185994169Y-144503830D01*
X185800000Y-144484707D01*
X185605830Y-144503830D01*
X185419111Y-144560471D01*
X185247050Y-144652440D01*
X185247043Y-144652444D01*
X185096221Y-144776221D01*
X184990143Y-144905477D01*
X184932397Y-144944811D01*
X184862552Y-144946682D01*
X184802784Y-144910494D01*
X184772068Y-144847738D01*
X184771817Y-144807417D01*
X184778960Y-144762318D01*
X184790500Y-144689460D01*
X184790500Y-144509941D01*
X184790500Y-144204500D01*
X184810185Y-144137461D01*
X184862989Y-144091706D01*
X184914500Y-144080500D01*
X185889758Y-144080500D01*
X185889759Y-144080500D01*
X186067068Y-144052417D01*
X186237800Y-143996943D01*
X186397752Y-143915443D01*
X186479293Y-143856200D01*
X186542980Y-143809930D01*
X186542982Y-143809927D01*
X186542986Y-143809925D01*
X186669925Y-143682986D01*
X186669927Y-143682982D01*
X186669930Y-143682980D01*
X186729657Y-143600771D01*
X186775443Y-143537752D01*
X186856943Y-143377800D01*
X186912417Y-143207068D01*
X186940500Y-143029759D01*
X186940500Y-142850241D01*
X186912417Y-142672932D01*
X186884680Y-142587566D01*
X186856944Y-142502202D01*
X186856943Y-142502200D01*
X186775443Y-142342248D01*
X186768663Y-142332916D01*
X186669930Y-142197019D01*
X186542980Y-142070069D01*
X186397755Y-141964559D01*
X186397754Y-141964558D01*
X186397752Y-141964557D01*
X186293701Y-141911540D01*
X186237797Y-141883055D01*
X186067069Y-141827583D01*
X185978413Y-141813541D01*
X185889759Y-141799500D01*
X183739759Y-141799500D01*
X183560241Y-141799500D01*
X183501138Y-141808861D01*
X183382930Y-141827583D01*
X183212202Y-141883055D01*
X183052244Y-141964559D01*
X182907019Y-142070069D01*
X182780069Y-142197019D01*
X182674559Y-142342244D01*
X182593055Y-142502202D01*
X182537583Y-142672930D01*
X182509500Y-142850241D01*
X182509500Y-144075928D01*
X182489815Y-144142967D01*
X182473181Y-144163609D01*
X180860278Y-145776511D01*
X180860278Y-145776512D01*
X180860276Y-145776514D01*
X180823172Y-145827583D01*
X180754757Y-145921747D01*
X180709385Y-146010795D01*
X180661410Y-146061591D01*
X180598900Y-146078500D01*
X174773411Y-146078500D01*
X174723325Y-146067934D01*
X174690061Y-146053246D01*
X174642663Y-146032318D01*
X174618374Y-146029500D01*
X174618373Y-146029500D01*
X173819981Y-146029500D01*
X173812348Y-146029000D01*
X173808059Y-146029000D01*
X173691941Y-146029000D01*
X173687658Y-146029000D01*
X173680019Y-146029500D01*
X172881634Y-146029500D01*
X172881611Y-146029502D01*
X172857340Y-146032317D01*
X172857337Y-146032318D01*
X172757984Y-146076186D01*
X172681187Y-146152983D01*
X172637318Y-146252335D01*
X172637318Y-146252337D01*
X172634500Y-146276625D01*
X169915499Y-146276625D01*
X169912682Y-146252338D01*
X169868813Y-146152984D01*
X169792016Y-146076187D01*
X169742447Y-146054300D01*
X169692663Y-146032318D01*
X169668374Y-146029500D01*
X169668373Y-146029500D01*
X168857994Y-146029500D01*
X168857993Y-146029500D01*
X168474323Y-146029500D01*
X168407284Y-146009815D01*
X168386642Y-145993181D01*
X168245642Y-145852181D01*
X168212157Y-145790858D01*
X168217141Y-145721166D01*
X168259013Y-145665233D01*
X168324477Y-145640816D01*
X168333323Y-145640500D01*
X168882656Y-145640500D01*
X168882660Y-145640499D01*
X169668366Y-145640499D01*
X169668372Y-145640499D01*
X169692662Y-145637682D01*
X169792016Y-145593813D01*
X169868813Y-145517016D01*
X169912682Y-145417662D01*
X169915500Y-145393373D01*
X169915499Y-145006628D01*
X169912682Y-144982338D01*
X169868813Y-144882984D01*
X169792016Y-144806187D01*
X169724152Y-144776222D01*
X169692663Y-144762318D01*
X169668374Y-144759500D01*
X169668373Y-144759500D01*
X168857994Y-144759500D01*
X168857993Y-144759500D01*
X168505223Y-144759500D01*
X168438184Y-144739815D01*
X168417542Y-144723181D01*
X168276541Y-144582180D01*
X168243056Y-144520857D01*
X168248040Y-144451165D01*
X168289912Y-144395232D01*
X168355376Y-144370815D01*
X168364222Y-144370499D01*
X168727565Y-144370499D01*
X168727573Y-144370500D01*
X168742007Y-144370500D01*
X168882656Y-144370500D01*
X168882660Y-144370499D01*
X169668366Y-144370499D01*
X169668372Y-144370499D01*
X169692662Y-144367682D01*
X169792016Y-144323813D01*
X169868813Y-144247016D01*
X169912682Y-144147662D01*
X169915500Y-144123373D01*
X169915499Y-143736628D01*
X169915499Y-143736625D01*
X172634500Y-143736625D01*
X172634500Y-144123365D01*
X172634502Y-144123388D01*
X172637317Y-144147659D01*
X172637318Y-144147662D01*
X172681186Y-144247015D01*
X172681187Y-144247016D01*
X172757984Y-144323813D01*
X172857338Y-144367682D01*
X172881627Y-144370500D01*
X173680003Y-144370499D01*
X173687643Y-144371000D01*
X173691941Y-144371000D01*
X173812363Y-144371000D01*
X173819997Y-144370499D01*
X174618366Y-144370499D01*
X174618372Y-144370499D01*
X174642662Y-144367682D01*
X174742016Y-144323813D01*
X174818813Y-144247016D01*
X174862682Y-144147662D01*
X174865500Y-144123373D01*
X174865499Y-143736628D01*
X174862682Y-143712338D01*
X174818813Y-143612984D01*
X174818812Y-143612983D01*
X174814172Y-143602473D01*
X174818024Y-143600771D01*
X174803265Y-143555383D01*
X174821012Y-143487805D01*
X174839529Y-143464137D01*
X177202485Y-141101181D01*
X177263806Y-141067698D01*
X177328481Y-141070932D01*
X177423532Y-141101817D01*
X177600841Y-141129900D01*
X182715626Y-141129900D01*
X182782665Y-141149585D01*
X182803307Y-141166218D01*
X182907014Y-141269925D01*
X182907017Y-141269927D01*
X182907020Y-141269930D01*
X183013528Y-141347311D01*
X183013530Y-141347313D01*
X183052243Y-141375440D01*
X183052245Y-141375441D01*
X183052248Y-141375443D01*
X183185077Y-141443123D01*
X183212202Y-141456944D01*
X183297566Y-141484680D01*
X183382932Y-141512417D01*
X183560241Y-141540500D01*
X183560242Y-141540500D01*
X185889758Y-141540500D01*
X185889759Y-141540500D01*
X186067068Y-141512417D01*
X186237800Y-141456943D01*
X186397752Y-141375443D01*
X186492324Y-141306733D01*
X186542980Y-141269930D01*
X186542982Y-141269927D01*
X186542986Y-141269925D01*
X186669925Y-141142986D01*
X186669927Y-141142982D01*
X186669930Y-141142980D01*
X186722274Y-141070933D01*
X186775443Y-140997752D01*
X186856943Y-140837800D01*
X186912417Y-140667068D01*
X186940500Y-140489759D01*
X186940500Y-140310241D01*
X186912417Y-140132932D01*
X186856943Y-139962200D01*
X186775443Y-139802248D01*
X186724213Y-139731735D01*
X186669930Y-139657019D01*
X186542980Y-139530069D01*
X186397755Y-139424559D01*
X186397754Y-139424558D01*
X186397752Y-139424557D01*
X186317776Y-139383807D01*
X186237797Y-139343055D01*
X186067069Y-139287583D01*
X185978413Y-139273541D01*
X185889759Y-139259500D01*
X185889758Y-139259500D01*
X184173774Y-139259500D01*
X184106735Y-139239815D01*
X184086093Y-139223182D01*
X184037597Y-139174686D01*
X183982386Y-139119475D01*
X183982382Y-139119472D01*
X183982378Y-139119468D01*
X183837155Y-139013959D01*
X183837154Y-139013958D01*
X183837152Y-139013957D01*
X183757176Y-138973207D01*
X183677197Y-138932455D01*
X183506469Y-138876983D01*
X183417813Y-138862941D01*
X183329159Y-138848900D01*
X177600841Y-138848900D01*
X177541738Y-138858261D01*
X177423530Y-138876983D01*
X177252802Y-138932455D01*
X177092844Y-139013959D01*
X176947619Y-139119469D01*
X176820669Y-139246419D01*
X176715159Y-139391644D01*
X176633655Y-139551602D01*
X176578183Y-139722330D01*
X176550100Y-139899641D01*
X176550100Y-140079158D01*
X176578183Y-140256471D01*
X176609065Y-140351517D01*
X176611060Y-140421358D01*
X176578815Y-140477515D01*
X173603149Y-143453181D01*
X173541826Y-143486666D01*
X173515468Y-143489500D01*
X172881634Y-143489500D01*
X172881611Y-143489502D01*
X172857340Y-143492317D01*
X172857337Y-143492318D01*
X172757984Y-143536186D01*
X172681187Y-143612983D01*
X172637318Y-143712335D01*
X172637318Y-143712337D01*
X172634500Y-143736625D01*
X169915499Y-143736625D01*
X169912682Y-143712338D01*
X169868813Y-143612984D01*
X169792016Y-143536187D01*
X169782811Y-143532122D01*
X169729436Y-143487036D01*
X169708910Y-143420249D01*
X169708900Y-143418689D01*
X169708900Y-141740176D01*
X169710162Y-141722529D01*
X169713430Y-141699799D01*
X169710162Y-141677069D01*
X169708900Y-141659423D01*
X169708900Y-141641808D01*
X169708900Y-141641807D01*
X169702590Y-141618261D01*
X169699629Y-141603819D01*
X169695403Y-141574421D01*
X169695402Y-141574418D01*
X169693380Y-141567528D01*
X169693384Y-141497658D01*
X169731162Y-141438882D01*
X169794719Y-141409861D01*
X169812359Y-141408600D01*
X170126391Y-141408600D01*
X170126393Y-141408600D01*
X170238427Y-141378581D01*
X170338873Y-141320588D01*
X179397821Y-132261639D01*
X179459142Y-132228156D01*
X179528834Y-132233140D01*
X179584767Y-132275012D01*
X179609184Y-132340476D01*
X179609500Y-132349322D01*
X179609500Y-134263836D01*
X179609501Y-134263839D01*
X179609501Y-134263840D01*
X179617651Y-134304821D01*
X179648705Y-134351295D01*
X179695179Y-134382349D01*
X179736159Y-134390500D01*
X181763840Y-134390499D01*
X181804821Y-134382349D01*
X181851295Y-134351295D01*
X181882349Y-134304821D01*
X181890500Y-134263841D01*
X181890499Y-132236160D01*
X181882349Y-132195179D01*
X181851295Y-132148705D01*
X181804821Y-132117651D01*
X181763841Y-132109500D01*
X181763840Y-132109500D01*
X179849322Y-132109500D01*
X179782283Y-132089815D01*
X179736528Y-132037011D01*
X179726584Y-131967853D01*
X179755609Y-131904297D01*
X179761627Y-131897833D01*
X185164388Y-126495073D01*
X185222381Y-126394627D01*
X185252400Y-126282593D01*
X185252400Y-78023907D01*
X185222381Y-77911873D01*
X185164388Y-77811427D01*
X185082373Y-77729412D01*
X183512611Y-76159650D01*
X183479126Y-76098327D01*
X183481631Y-76035974D01*
X183499571Y-75976838D01*
X183518958Y-75780000D01*
X183499571Y-75583162D01*
X183442156Y-75393888D01*
X183348918Y-75219453D01*
X183348915Y-75219449D01*
X183223441Y-75066558D01*
X183070550Y-74941084D01*
X183070548Y-74941083D01*
X183070547Y-74941082D01*
X182896112Y-74847844D01*
X182801475Y-74819136D01*
X182706836Y-74790428D01*
X182510000Y-74771042D01*
X182313163Y-74790428D01*
X182123885Y-74847845D01*
X181949449Y-74941084D01*
X181796558Y-75066558D01*
X181671084Y-75219449D01*
X181577845Y-75393885D01*
X181520428Y-75583163D01*
X181501042Y-75780000D01*
X181520428Y-75976836D01*
X181520429Y-75976838D01*
X181577844Y-76166112D01*
X181641950Y-76286046D01*
X181671084Y-76340550D01*
X181796558Y-76493441D01*
X181949449Y-76618915D01*
X181949453Y-76618918D01*
X182123888Y-76712156D01*
X182313162Y-76769571D01*
X182510000Y-76788958D01*
X182706838Y-76769571D01*
X182765974Y-76751631D01*
X182835839Y-76751007D01*
X182889650Y-76782611D01*
X184335081Y-78228042D01*
X184368566Y-78289365D01*
X184371400Y-78315723D01*
X184371400Y-114210265D01*
X184351715Y-114277304D01*
X184298911Y-114323059D01*
X184229753Y-114333003D01*
X184166197Y-114303978D01*
X184140013Y-114272265D01*
X184104217Y-114210265D01*
X184051936Y-114119711D01*
X183904265Y-113927262D01*
X183904260Y-113927256D01*
X183732743Y-113755739D01*
X183732736Y-113755733D01*
X183540293Y-113608067D01*
X183540292Y-113608066D01*
X183540289Y-113608064D01*
X183368661Y-113508974D01*
X183330214Y-113486777D01*
X183330205Y-113486773D01*
X183106104Y-113393947D01*
X182871785Y-113331161D01*
X182631289Y-113299500D01*
X182631288Y-113299500D01*
X182388712Y-113299500D01*
X182388711Y-113299500D01*
X182148214Y-113331161D01*
X181913895Y-113393947D01*
X181689794Y-113486773D01*
X181689785Y-113486777D01*
X181479706Y-113608067D01*
X181287263Y-113755733D01*
X181287256Y-113755739D01*
X181115739Y-113927256D01*
X181115733Y-113927263D01*
X180968067Y-114119706D01*
X180846777Y-114329785D01*
X180846773Y-114329794D01*
X180753947Y-114553895D01*
X180691161Y-114788214D01*
X180659500Y-115028711D01*
X180659500Y-115271288D01*
X180691161Y-115511785D01*
X180753947Y-115746104D01*
X180846773Y-115970205D01*
X180846777Y-115970214D01*
X180899852Y-116062142D01*
X180916325Y-116130042D01*
X180893473Y-116196069D01*
X180838551Y-116239260D01*
X180768998Y-116245901D01*
X180706895Y-116213885D01*
X180704784Y-116211823D01*
X175832961Y-111340000D01*
X181501042Y-111340000D01*
X181520428Y-111536836D01*
X181577845Y-111726114D01*
X181671084Y-111900550D01*
X181796558Y-112053441D01*
X181949449Y-112178915D01*
X181949453Y-112178918D01*
X182123888Y-112272156D01*
X182313162Y-112329571D01*
X182510000Y-112348958D01*
X182706838Y-112329571D01*
X182896112Y-112272156D01*
X183070547Y-112178918D01*
X183223441Y-112053441D01*
X183348918Y-111900547D01*
X183442156Y-111726112D01*
X183499571Y-111536838D01*
X183518958Y-111340000D01*
X183499571Y-111143162D01*
X183442156Y-110953888D01*
X183348918Y-110779453D01*
X183348915Y-110779449D01*
X183223441Y-110626558D01*
X183070550Y-110501084D01*
X183070548Y-110501083D01*
X183070547Y-110501082D01*
X182896112Y-110407844D01*
X182801475Y-110379136D01*
X182706836Y-110350428D01*
X182510000Y-110331042D01*
X182313163Y-110350428D01*
X182123885Y-110407845D01*
X181949449Y-110501084D01*
X181796558Y-110626558D01*
X181671084Y-110779449D01*
X181577845Y-110953885D01*
X181520428Y-111143163D01*
X181501042Y-111340000D01*
X175832961Y-111340000D01*
X173292961Y-108800000D01*
X181501042Y-108800000D01*
X181520428Y-108996836D01*
X181577845Y-109186114D01*
X181671084Y-109360550D01*
X181796558Y-109513441D01*
X181949449Y-109638915D01*
X181949453Y-109638918D01*
X182123888Y-109732156D01*
X182313162Y-109789571D01*
X182510000Y-109808958D01*
X182706838Y-109789571D01*
X182896112Y-109732156D01*
X183070547Y-109638918D01*
X183223441Y-109513441D01*
X183348918Y-109360547D01*
X183442156Y-109186112D01*
X183499571Y-108996838D01*
X183518958Y-108800000D01*
X183499571Y-108603162D01*
X183442156Y-108413888D01*
X183348918Y-108239453D01*
X183348915Y-108239449D01*
X183223441Y-108086558D01*
X183070550Y-107961084D01*
X183070548Y-107961083D01*
X183070547Y-107961082D01*
X182896112Y-107867844D01*
X182801475Y-107839136D01*
X182706836Y-107810428D01*
X182510000Y-107791042D01*
X182313163Y-107810428D01*
X182123885Y-107867845D01*
X181949449Y-107961084D01*
X181796558Y-108086558D01*
X181671084Y-108239449D01*
X181577845Y-108413885D01*
X181520428Y-108603163D01*
X181501042Y-108800000D01*
X173292961Y-108800000D01*
X170752961Y-106260000D01*
X181501042Y-106260000D01*
X181520428Y-106456836D01*
X181577845Y-106646114D01*
X181671084Y-106820550D01*
X181796558Y-106973441D01*
X181949449Y-107098915D01*
X181949453Y-107098918D01*
X182123888Y-107192156D01*
X182313162Y-107249571D01*
X182510000Y-107268958D01*
X182706838Y-107249571D01*
X182896112Y-107192156D01*
X183070547Y-107098918D01*
X183223441Y-106973441D01*
X183348918Y-106820547D01*
X183442156Y-106646112D01*
X183499571Y-106456838D01*
X183518958Y-106260000D01*
X183499571Y-106063162D01*
X183442156Y-105873888D01*
X183348918Y-105699453D01*
X183348915Y-105699449D01*
X183223441Y-105546558D01*
X183070550Y-105421084D01*
X183070548Y-105421083D01*
X183070547Y-105421082D01*
X182896112Y-105327844D01*
X182801475Y-105299136D01*
X182706836Y-105270428D01*
X182510000Y-105251042D01*
X182313163Y-105270428D01*
X182123885Y-105327845D01*
X181949449Y-105421084D01*
X181796558Y-105546558D01*
X181671084Y-105699449D01*
X181577845Y-105873885D01*
X181520428Y-106063163D01*
X181501042Y-106260000D01*
X170752961Y-106260000D01*
X168212961Y-103720000D01*
X181501042Y-103720000D01*
X181520428Y-103916836D01*
X181520429Y-103916838D01*
X181577844Y-104106112D01*
X181669089Y-104276819D01*
X181671084Y-104280550D01*
X181796558Y-104433441D01*
X181949449Y-104558915D01*
X181949453Y-104558918D01*
X182123888Y-104652156D01*
X182313162Y-104709571D01*
X182510000Y-104728958D01*
X182706838Y-104709571D01*
X182896112Y-104652156D01*
X183070547Y-104558918D01*
X183223441Y-104433441D01*
X183348918Y-104280547D01*
X183442156Y-104106112D01*
X183499571Y-103916838D01*
X183518958Y-103720000D01*
X183499571Y-103523162D01*
X183442156Y-103333888D01*
X183348918Y-103159453D01*
X183297025Y-103096221D01*
X183223441Y-103006558D01*
X183070550Y-102881084D01*
X183070548Y-102881083D01*
X183070547Y-102881082D01*
X182896112Y-102787844D01*
X182801475Y-102759136D01*
X182706836Y-102730428D01*
X182510000Y-102711042D01*
X182313163Y-102730428D01*
X182123885Y-102787845D01*
X181949449Y-102881084D01*
X181796558Y-103006558D01*
X181671084Y-103159449D01*
X181577845Y-103333885D01*
X181520428Y-103523163D01*
X181501042Y-103720000D01*
X168212961Y-103720000D01*
X167940475Y-103447514D01*
X167940473Y-103447512D01*
X167890250Y-103418515D01*
X167840028Y-103389519D01*
X167784010Y-103374509D01*
X167727993Y-103359500D01*
X167727992Y-103359500D01*
X167181987Y-103359500D01*
X167114948Y-103339815D01*
X167072629Y-103293953D01*
X167047557Y-103247046D01*
X167047555Y-103247043D01*
X166923778Y-103096221D01*
X166772956Y-102972444D01*
X166772949Y-102972440D01*
X166600888Y-102880471D01*
X166600882Y-102880469D01*
X166414172Y-102823831D01*
X166414169Y-102823830D01*
X166220000Y-102804707D01*
X166025830Y-102823830D01*
X165839111Y-102880471D01*
X165667050Y-102972440D01*
X165667043Y-102972444D01*
X165516221Y-103096221D01*
X165392444Y-103247043D01*
X165392440Y-103247050D01*
X165300471Y-103419111D01*
X165243830Y-103605830D01*
X165224707Y-103800000D01*
X165243830Y-103994169D01*
X165300471Y-104180888D01*
X165392440Y-104352949D01*
X165392444Y-104352956D01*
X165516221Y-104503778D01*
X165667043Y-104627555D01*
X165667050Y-104627559D01*
X165839111Y-104719528D01*
X165839114Y-104719528D01*
X165839118Y-104719531D01*
X166025828Y-104776169D01*
X166220000Y-104795293D01*
X166414172Y-104776169D01*
X166600882Y-104719531D01*
X166646876Y-104694947D01*
X166726050Y-104652627D01*
X166772955Y-104627556D01*
X166923778Y-104503778D01*
X167047556Y-104352955D01*
X167072629Y-104306047D01*
X167121591Y-104256203D01*
X167181987Y-104240500D01*
X167436177Y-104240500D01*
X167503216Y-104260185D01*
X167523858Y-104276819D01*
X181147727Y-117900688D01*
X181248173Y-117958681D01*
X181360207Y-117988700D01*
X181476193Y-117988700D01*
X181764204Y-117988700D01*
X181831243Y-118008385D01*
X181876998Y-118061189D01*
X181886942Y-118130347D01*
X181857917Y-118193903D01*
X181842869Y-118208553D01*
X181796558Y-118246558D01*
X181671084Y-118399449D01*
X181577845Y-118573885D01*
X181520428Y-118763163D01*
X181501042Y-118960000D01*
X181520428Y-119156836D01*
X181577845Y-119346114D01*
X181671084Y-119520550D01*
X181796558Y-119673441D01*
X181949449Y-119798915D01*
X181949453Y-119798918D01*
X182123888Y-119892156D01*
X182313162Y-119949571D01*
X182510000Y-119968958D01*
X182706838Y-119949571D01*
X182896112Y-119892156D01*
X183070547Y-119798918D01*
X183173135Y-119714725D01*
X183237445Y-119687413D01*
X183306312Y-119699204D01*
X183357873Y-119746356D01*
X183375800Y-119810579D01*
X183375800Y-120649420D01*
X183356115Y-120716459D01*
X183303311Y-120762214D01*
X183234153Y-120772158D01*
X183173135Y-120745273D01*
X183070550Y-120661084D01*
X183070548Y-120661083D01*
X183070547Y-120661082D01*
X182896112Y-120567844D01*
X182801475Y-120539136D01*
X182706836Y-120510428D01*
X182510000Y-120491042D01*
X182313163Y-120510428D01*
X182123885Y-120567845D01*
X181949449Y-120661084D01*
X181796558Y-120786558D01*
X181671084Y-120939449D01*
X181577845Y-121113885D01*
X181520428Y-121303163D01*
X181501042Y-121500000D01*
X181520428Y-121696836D01*
X181577845Y-121886114D01*
X181671084Y-122060550D01*
X181754945Y-122162735D01*
X181782258Y-122227045D01*
X181770467Y-122295913D01*
X181723315Y-122347473D01*
X181659092Y-122365400D01*
X180820908Y-122365400D01*
X180753869Y-122345715D01*
X180708114Y-122292911D01*
X180698170Y-122223753D01*
X180725055Y-122162735D01*
X180779740Y-122096100D01*
X180808918Y-122060547D01*
X180902156Y-121886112D01*
X180959571Y-121696838D01*
X180978958Y-121500000D01*
X180959571Y-121303162D01*
X180902156Y-121113888D01*
X180808918Y-120939453D01*
X180808915Y-120939449D01*
X180683441Y-120786558D01*
X180530550Y-120661084D01*
X180530548Y-120661083D01*
X180530547Y-120661082D01*
X180356112Y-120567844D01*
X180261475Y-120539136D01*
X180166836Y-120510428D01*
X179970000Y-120491042D01*
X179773163Y-120510428D01*
X179583885Y-120567845D01*
X179409449Y-120661084D01*
X179256558Y-120786558D01*
X179131084Y-120939449D01*
X179037845Y-121113885D01*
X178980428Y-121303163D01*
X178961042Y-121500000D01*
X178980428Y-121696836D01*
X179037845Y-121886114D01*
X179131084Y-122060550D01*
X179214945Y-122162735D01*
X179242258Y-122227045D01*
X179230467Y-122295913D01*
X179183315Y-122347473D01*
X179119092Y-122365400D01*
X178280908Y-122365400D01*
X178213869Y-122345715D01*
X178168114Y-122292911D01*
X178158170Y-122223753D01*
X178185055Y-122162735D01*
X178239740Y-122096100D01*
X178268918Y-122060547D01*
X178362156Y-121886112D01*
X178419571Y-121696838D01*
X178438958Y-121500000D01*
X178419571Y-121303162D01*
X178362156Y-121113888D01*
X178268918Y-120939453D01*
X178268915Y-120939449D01*
X178143441Y-120786558D01*
X177990550Y-120661084D01*
X177990548Y-120661083D01*
X177990547Y-120661082D01*
X177816112Y-120567844D01*
X177721475Y-120539136D01*
X177626836Y-120510428D01*
X177430000Y-120491042D01*
X177233163Y-120510428D01*
X177043885Y-120567845D01*
X176869449Y-120661084D01*
X176716558Y-120786558D01*
X176591084Y-120939449D01*
X176497845Y-121113885D01*
X176440428Y-121303163D01*
X176421042Y-121500000D01*
X176440428Y-121696836D01*
X176497845Y-121886114D01*
X176591084Y-122060550D01*
X176674945Y-122162735D01*
X176702258Y-122227045D01*
X176690467Y-122295913D01*
X176643315Y-122347473D01*
X176579092Y-122365400D01*
X175740908Y-122365400D01*
X175673869Y-122345715D01*
X175628114Y-122292911D01*
X175618170Y-122223753D01*
X175645055Y-122162735D01*
X175699740Y-122096100D01*
X175728918Y-122060547D01*
X175822156Y-121886112D01*
X175879571Y-121696838D01*
X175898958Y-121500000D01*
X175879571Y-121303162D01*
X175822156Y-121113888D01*
X175728918Y-120939453D01*
X175728915Y-120939449D01*
X175603441Y-120786558D01*
X175450550Y-120661084D01*
X175450548Y-120661083D01*
X175450547Y-120661082D01*
X175276112Y-120567844D01*
X175181475Y-120539136D01*
X175086836Y-120510428D01*
X174890000Y-120491042D01*
X174693163Y-120510428D01*
X174503885Y-120567845D01*
X174329449Y-120661084D01*
X174176558Y-120786558D01*
X174051084Y-120939449D01*
X173957845Y-121113885D01*
X173900428Y-121303163D01*
X173881042Y-121500000D01*
X173900428Y-121696836D01*
X173957845Y-121886114D01*
X174051084Y-122060550D01*
X174134945Y-122162735D01*
X174162258Y-122227045D01*
X174150467Y-122295913D01*
X174103315Y-122347473D01*
X174039092Y-122365400D01*
X173200908Y-122365400D01*
X173133869Y-122345715D01*
X173088114Y-122292911D01*
X173078170Y-122223753D01*
X173105055Y-122162735D01*
X173159740Y-122096100D01*
X173188918Y-122060547D01*
X173282156Y-121886112D01*
X173339571Y-121696838D01*
X173358958Y-121500000D01*
X173339571Y-121303162D01*
X173282156Y-121113888D01*
X173188918Y-120939453D01*
X173188915Y-120939449D01*
X173063441Y-120786558D01*
X172910550Y-120661084D01*
X172910548Y-120661083D01*
X172910547Y-120661082D01*
X172736112Y-120567844D01*
X172641475Y-120539136D01*
X172546836Y-120510428D01*
X172350000Y-120491042D01*
X172153163Y-120510428D01*
X171963885Y-120567845D01*
X171789449Y-120661084D01*
X171636558Y-120786558D01*
X171511084Y-120939449D01*
X171417845Y-121113885D01*
X171360428Y-121303163D01*
X171341042Y-121500000D01*
X171360428Y-121696836D01*
X171417845Y-121886114D01*
X171511084Y-122060550D01*
X171594945Y-122162735D01*
X171622258Y-122227045D01*
X171610467Y-122295913D01*
X171563315Y-122347473D01*
X171499092Y-122365400D01*
X170660908Y-122365400D01*
X170593869Y-122345715D01*
X170548114Y-122292911D01*
X170538170Y-122223753D01*
X170565055Y-122162735D01*
X170619740Y-122096100D01*
X170648918Y-122060547D01*
X170742156Y-121886112D01*
X170799571Y-121696838D01*
X170818958Y-121500000D01*
X170799571Y-121303162D01*
X170742156Y-121113888D01*
X170648918Y-120939453D01*
X170648915Y-120939449D01*
X170523441Y-120786558D01*
X170370550Y-120661084D01*
X170370548Y-120661083D01*
X170370547Y-120661082D01*
X170196112Y-120567844D01*
X170101475Y-120539136D01*
X170006836Y-120510428D01*
X169810000Y-120491042D01*
X169613163Y-120510428D01*
X169423885Y-120567845D01*
X169249449Y-120661084D01*
X169096558Y-120786558D01*
X168971084Y-120939449D01*
X168877845Y-121113885D01*
X168820428Y-121303163D01*
X168801042Y-121500000D01*
X168820428Y-121696836D01*
X168877845Y-121886114D01*
X168971084Y-122060550D01*
X169054945Y-122162735D01*
X169082258Y-122227045D01*
X169070467Y-122295913D01*
X169023315Y-122347473D01*
X168959092Y-122365400D01*
X168120908Y-122365400D01*
X168053869Y-122345715D01*
X168008114Y-122292911D01*
X167998170Y-122223753D01*
X168025055Y-122162735D01*
X168079740Y-122096100D01*
X168108918Y-122060547D01*
X168202156Y-121886112D01*
X168259571Y-121696838D01*
X168278958Y-121500000D01*
X168259571Y-121303162D01*
X168202156Y-121113888D01*
X168108918Y-120939453D01*
X168108915Y-120939449D01*
X167983441Y-120786558D01*
X167830550Y-120661084D01*
X167830548Y-120661083D01*
X167830547Y-120661082D01*
X167656112Y-120567844D01*
X167561475Y-120539136D01*
X167466836Y-120510428D01*
X167270000Y-120491042D01*
X167073163Y-120510428D01*
X166883885Y-120567845D01*
X166709449Y-120661084D01*
X166556558Y-120786558D01*
X166431084Y-120939449D01*
X166337845Y-121113885D01*
X166280428Y-121303163D01*
X166261042Y-121500000D01*
X166280428Y-121696836D01*
X166337845Y-121886114D01*
X166431084Y-122060550D01*
X166514945Y-122162735D01*
X166542258Y-122227045D01*
X166530467Y-122295913D01*
X166483315Y-122347473D01*
X166419092Y-122365400D01*
X165580908Y-122365400D01*
X165513869Y-122345715D01*
X165468114Y-122292911D01*
X165458170Y-122223753D01*
X165485055Y-122162735D01*
X165539740Y-122096100D01*
X165568918Y-122060547D01*
X165662156Y-121886112D01*
X165719571Y-121696838D01*
X165738958Y-121500000D01*
X165719571Y-121303162D01*
X165662156Y-121113888D01*
X165568918Y-120939453D01*
X165568915Y-120939449D01*
X165443441Y-120786558D01*
X165290550Y-120661084D01*
X165290548Y-120661083D01*
X165290547Y-120661082D01*
X165116112Y-120567844D01*
X165021475Y-120539136D01*
X164926836Y-120510428D01*
X164730000Y-120491042D01*
X164533163Y-120510428D01*
X164343885Y-120567845D01*
X164169449Y-120661084D01*
X164016558Y-120786558D01*
X163891084Y-120939449D01*
X163797845Y-121113885D01*
X163740428Y-121303163D01*
X163721042Y-121500000D01*
X163740428Y-121696836D01*
X163797845Y-121886114D01*
X163891084Y-122060550D01*
X163974945Y-122162735D01*
X164002258Y-122227045D01*
X163990467Y-122295913D01*
X163943315Y-122347473D01*
X163879092Y-122365400D01*
X163040908Y-122365400D01*
X162973869Y-122345715D01*
X162928114Y-122292911D01*
X162918170Y-122223753D01*
X162945055Y-122162735D01*
X162999740Y-122096100D01*
X163028918Y-122060547D01*
X163122156Y-121886112D01*
X163179571Y-121696838D01*
X163198958Y-121500000D01*
X163179571Y-121303162D01*
X163122156Y-121113888D01*
X163028918Y-120939453D01*
X163028915Y-120939449D01*
X162903441Y-120786558D01*
X162750550Y-120661084D01*
X162750548Y-120661083D01*
X162750547Y-120661082D01*
X162576112Y-120567844D01*
X162481475Y-120539136D01*
X162386836Y-120510428D01*
X162190000Y-120491042D01*
X161993163Y-120510428D01*
X161803885Y-120567845D01*
X161629449Y-120661084D01*
X161476558Y-120786558D01*
X161351084Y-120939449D01*
X161257845Y-121113885D01*
X161200428Y-121303163D01*
X161181042Y-121500000D01*
X161200428Y-121696836D01*
X161257845Y-121886114D01*
X161351084Y-122060550D01*
X161434945Y-122162735D01*
X161462258Y-122227045D01*
X161450467Y-122295913D01*
X161403315Y-122347473D01*
X161339092Y-122365400D01*
X160500908Y-122365400D01*
X160433869Y-122345715D01*
X160388114Y-122292911D01*
X160378170Y-122223753D01*
X160405055Y-122162735D01*
X160459740Y-122096100D01*
X160488918Y-122060547D01*
X160582156Y-121886112D01*
X160639571Y-121696838D01*
X160658958Y-121500000D01*
X160639571Y-121303162D01*
X160582156Y-121113888D01*
X160488918Y-120939453D01*
X160488915Y-120939449D01*
X160363441Y-120786558D01*
X160210550Y-120661084D01*
X160210548Y-120661083D01*
X160210547Y-120661082D01*
X160036112Y-120567844D01*
X159941475Y-120539136D01*
X159846836Y-120510428D01*
X159650000Y-120491042D01*
X159453163Y-120510428D01*
X159263885Y-120567845D01*
X159089449Y-120661084D01*
X158936558Y-120786558D01*
X158811084Y-120939449D01*
X158717845Y-121113885D01*
X158660428Y-121303163D01*
X158641042Y-121500000D01*
X158660428Y-121696836D01*
X158717845Y-121886114D01*
X158811084Y-122060550D01*
X158894945Y-122162735D01*
X158922258Y-122227045D01*
X158910467Y-122295913D01*
X158863315Y-122347473D01*
X158799092Y-122365400D01*
X157960908Y-122365400D01*
X157893869Y-122345715D01*
X157848114Y-122292911D01*
X157838170Y-122223753D01*
X157865055Y-122162735D01*
X157919740Y-122096100D01*
X157948918Y-122060547D01*
X158042156Y-121886112D01*
X158099571Y-121696838D01*
X158118958Y-121500000D01*
X158099571Y-121303162D01*
X158042156Y-121113888D01*
X157948918Y-120939453D01*
X157948915Y-120939449D01*
X157823441Y-120786558D01*
X157670550Y-120661084D01*
X157670548Y-120661083D01*
X157670547Y-120661082D01*
X157496112Y-120567844D01*
X157401475Y-120539136D01*
X157306836Y-120510428D01*
X157110000Y-120491042D01*
X156913163Y-120510428D01*
X156723885Y-120567845D01*
X156549449Y-120661084D01*
X156396558Y-120786558D01*
X156271084Y-120939449D01*
X156177845Y-121113885D01*
X156120428Y-121303163D01*
X156101042Y-121500000D01*
X156120428Y-121696836D01*
X156177845Y-121886114D01*
X156271084Y-122060550D01*
X156354945Y-122162735D01*
X156382258Y-122227045D01*
X156370467Y-122295913D01*
X156323315Y-122347473D01*
X156259092Y-122365400D01*
X155420908Y-122365400D01*
X155353869Y-122345715D01*
X155308114Y-122292911D01*
X155298170Y-122223753D01*
X155325055Y-122162735D01*
X155379740Y-122096100D01*
X155408918Y-122060547D01*
X155502156Y-121886112D01*
X155559571Y-121696838D01*
X155578958Y-121500000D01*
X155559571Y-121303162D01*
X155502156Y-121113888D01*
X155408918Y-120939453D01*
X155408915Y-120939449D01*
X155283441Y-120786558D01*
X155130550Y-120661084D01*
X155130548Y-120661083D01*
X155130547Y-120661082D01*
X154956112Y-120567844D01*
X154861475Y-120539136D01*
X154766836Y-120510428D01*
X154570000Y-120491042D01*
X154373163Y-120510428D01*
X154183885Y-120567845D01*
X154009449Y-120661084D01*
X153856558Y-120786558D01*
X153731084Y-120939449D01*
X153637845Y-121113885D01*
X153580428Y-121303163D01*
X153561042Y-121500000D01*
X153580428Y-121696836D01*
X153637845Y-121886114D01*
X153731084Y-122060550D01*
X153814945Y-122162735D01*
X153842258Y-122227045D01*
X153830467Y-122295913D01*
X153783315Y-122347473D01*
X153719092Y-122365400D01*
X152880908Y-122365400D01*
X152813869Y-122345715D01*
X152768114Y-122292911D01*
X152758170Y-122223753D01*
X152785055Y-122162735D01*
X152839740Y-122096100D01*
X152868918Y-122060547D01*
X152962156Y-121886112D01*
X153019571Y-121696838D01*
X153038958Y-121500000D01*
X153019571Y-121303162D01*
X152962156Y-121113888D01*
X152868918Y-120939453D01*
X152868915Y-120939449D01*
X152743441Y-120786558D01*
X152590550Y-120661084D01*
X152590548Y-120661083D01*
X152590547Y-120661082D01*
X152416112Y-120567844D01*
X152321475Y-120539136D01*
X152226836Y-120510428D01*
X152030000Y-120491042D01*
X151833163Y-120510428D01*
X151643885Y-120567845D01*
X151469449Y-120661084D01*
X151316558Y-120786558D01*
X151191084Y-120939449D01*
X151097845Y-121113885D01*
X151040428Y-121303163D01*
X151021042Y-121500000D01*
X151040428Y-121696836D01*
X151097845Y-121886114D01*
X151191084Y-122060550D01*
X151274945Y-122162735D01*
X151302258Y-122227045D01*
X151290467Y-122295913D01*
X151243315Y-122347473D01*
X151179092Y-122365400D01*
X151029723Y-122365400D01*
X150962684Y-122345715D01*
X150942042Y-122329081D01*
X150492611Y-121879650D01*
X150459126Y-121818327D01*
X150461631Y-121755974D01*
X150479571Y-121696838D01*
X150498958Y-121500000D01*
X150479571Y-121303162D01*
X150422156Y-121113888D01*
X150328918Y-120939453D01*
X150328915Y-120939449D01*
X150203441Y-120786558D01*
X150050550Y-120661084D01*
X150050548Y-120661083D01*
X150050547Y-120661082D01*
X149876112Y-120567844D01*
X149781475Y-120539136D01*
X149686836Y-120510428D01*
X149490000Y-120491042D01*
X149293163Y-120510428D01*
X149103885Y-120567845D01*
X148929449Y-120661084D01*
X148776558Y-120786558D01*
X148651084Y-120939449D01*
X148557845Y-121113885D01*
X148500428Y-121303163D01*
X148481042Y-121500000D01*
X148500428Y-121696836D01*
X148557845Y-121886114D01*
X148651084Y-122060550D01*
X148776558Y-122213441D01*
X148929449Y-122338915D01*
X148929453Y-122338918D01*
X149103888Y-122432156D01*
X149293162Y-122489571D01*
X149490000Y-122508958D01*
X149686838Y-122489571D01*
X149745974Y-122471631D01*
X149815839Y-122471007D01*
X149869650Y-122502611D01*
X150443412Y-123076373D01*
X150525427Y-123158388D01*
X150625873Y-123216381D01*
X150737906Y-123246400D01*
X150737907Y-123246400D01*
X150737908Y-123246400D01*
X183159191Y-123246400D01*
X183159193Y-123246400D01*
X183271227Y-123216381D01*
X183371673Y-123158388D01*
X184159719Y-122370342D01*
X184221042Y-122336857D01*
X184290734Y-122341841D01*
X184346667Y-122383713D01*
X184371084Y-122449177D01*
X184371400Y-122458023D01*
X184371400Y-125990777D01*
X184351715Y-126057816D01*
X184335081Y-126078458D01*
X169922258Y-140491281D01*
X169860935Y-140524766D01*
X169834577Y-140527600D01*
X168907207Y-140527600D01*
X168795171Y-140557619D01*
X168694727Y-140615612D01*
X168694724Y-140615614D01*
X167278581Y-142031758D01*
X167217258Y-142065243D01*
X167147566Y-142060259D01*
X167091633Y-142018387D01*
X167067216Y-141952923D01*
X167066900Y-141944077D01*
X167066900Y-141123223D01*
X167086585Y-141056184D01*
X167103219Y-141035542D01*
X169289861Y-138848900D01*
X173559988Y-134578773D01*
X173617981Y-134478327D01*
X173648000Y-134366293D01*
X173648000Y-134250307D01*
X173648000Y-133184822D01*
X173667685Y-133117783D01*
X173684314Y-133097146D01*
X180847366Y-125934093D01*
X180868003Y-125917464D01*
X180870233Y-125916031D01*
X180898514Y-125883391D01*
X180904519Y-125876940D01*
X180931287Y-125850174D01*
X180933331Y-125846634D01*
X180947007Y-125827427D01*
X180953183Y-125820301D01*
X180968323Y-125787146D01*
X180973731Y-125776658D01*
X180989279Y-125749730D01*
X180989278Y-125749730D01*
X180989281Y-125749727D01*
X180992093Y-125739227D01*
X180999070Y-125719819D01*
X181005803Y-125705079D01*
X181010032Y-125675660D01*
X181012991Y-125661236D01*
X181019300Y-125637694D01*
X181019300Y-125620076D01*
X181020562Y-125602429D01*
X181023830Y-125579699D01*
X181020562Y-125556969D01*
X181019300Y-125539323D01*
X181019300Y-125521710D01*
X181019299Y-125521703D01*
X181012994Y-125498171D01*
X181010031Y-125483726D01*
X181009661Y-125481153D01*
X181005803Y-125454321D01*
X180999072Y-125439582D01*
X180992092Y-125420164D01*
X180989281Y-125409675D01*
X180989281Y-125409674D01*
X180973728Y-125382736D01*
X180968323Y-125372250D01*
X180953185Y-125339104D01*
X180953183Y-125339099D01*
X180947003Y-125331967D01*
X180933332Y-125312769D01*
X180931287Y-125309227D01*
X180904530Y-125282470D01*
X180898526Y-125276022D01*
X180870233Y-125243369D01*
X180870227Y-125243364D01*
X180868000Y-125241933D01*
X180855778Y-125232083D01*
X180855720Y-125232160D01*
X180849273Y-125227213D01*
X180810690Y-125204936D01*
X180805668Y-125201875D01*
X180763672Y-125174886D01*
X180763668Y-125174885D01*
X180762314Y-125174266D01*
X180753543Y-125171171D01*
X180748837Y-125169222D01*
X180748822Y-125169218D01*
X180699252Y-125155935D01*
X180696516Y-125155167D01*
X180642134Y-125139200D01*
X180515466Y-125139200D01*
X180461127Y-125155154D01*
X180458290Y-125155950D01*
X180408774Y-125169218D01*
X180404052Y-125171174D01*
X180395276Y-125174269D01*
X180393930Y-125174884D01*
X180351934Y-125201872D01*
X180346902Y-125204939D01*
X180308324Y-125227213D01*
X180301884Y-125232156D01*
X180301826Y-125232081D01*
X180289604Y-125241930D01*
X180287375Y-125243362D01*
X180287364Y-125243371D01*
X180259085Y-125276006D01*
X180253056Y-125282481D01*
X172937027Y-132598512D01*
X172855014Y-132680524D01*
X172855012Y-132680527D01*
X172797019Y-132780971D01*
X172767000Y-132893007D01*
X172767000Y-134074477D01*
X172747315Y-134141516D01*
X172730681Y-134162158D01*
X170582710Y-136310128D01*
X170521387Y-136343613D01*
X170451695Y-136338629D01*
X170395762Y-136296757D01*
X170371345Y-136231293D01*
X170372555Y-136203054D01*
X170390500Y-136089759D01*
X170390500Y-135910240D01*
X170362417Y-135732932D01*
X170362416Y-135732928D01*
X170362416Y-135732927D01*
X170306944Y-135562202D01*
X170304625Y-135557651D01*
X170225443Y-135402248D01*
X170218663Y-135392916D01*
X170119930Y-135257019D01*
X169992980Y-135130069D01*
X169847755Y-135024559D01*
X169847754Y-135024558D01*
X169847752Y-135024557D01*
X169767776Y-134983807D01*
X169687797Y-134943055D01*
X169517071Y-134887583D01*
X169384087Y-134866520D01*
X169339760Y-134859500D01*
X169160241Y-134859500D01*
X169101138Y-134868861D01*
X168982930Y-134887583D01*
X168812202Y-134943055D01*
X168652244Y-135024559D01*
X168507019Y-135130069D01*
X163530069Y-140107019D01*
X163424559Y-140252244D01*
X163343055Y-140412202D01*
X163287583Y-140582930D01*
X163259500Y-140760241D01*
X163259500Y-148082800D01*
X163239815Y-148149839D01*
X163187011Y-148195594D01*
X163135500Y-148206800D01*
X151134530Y-148206800D01*
X151067491Y-148187115D01*
X151046849Y-148170481D01*
X150263481Y-147387113D01*
X150263476Y-147387109D01*
X150162922Y-147329055D01*
X150162921Y-147329054D01*
X150101144Y-147312501D01*
X150050759Y-147299000D01*
X148771941Y-147299000D01*
X148767658Y-147299000D01*
X148760019Y-147299500D01*
X147961634Y-147299500D01*
X147961611Y-147299502D01*
X147937340Y-147302317D01*
X147937337Y-147302318D01*
X147837984Y-147346186D01*
X147761187Y-147422983D01*
X147717318Y-147522335D01*
X147717318Y-147522337D01*
X147714500Y-147546625D01*
X147714500Y-147556346D01*
X147694815Y-147623385D01*
X147642011Y-147669140D01*
X147572853Y-147679084D01*
X147509297Y-147650059D01*
X147496794Y-147637557D01*
X147492914Y-147633080D01*
X147479231Y-147613866D01*
X147477188Y-147610327D01*
X147450438Y-147583577D01*
X147444419Y-147577113D01*
X147416133Y-147544469D01*
X147416132Y-147544468D01*
X147413905Y-147543037D01*
X147401677Y-147533182D01*
X147401619Y-147533259D01*
X147395169Y-147528309D01*
X147356571Y-147506024D01*
X147351533Y-147502953D01*
X147309572Y-147475986D01*
X147309568Y-147475985D01*
X147308222Y-147475369D01*
X147299450Y-147472275D01*
X147294722Y-147470317D01*
X147245180Y-147457042D01*
X147242341Y-147456245D01*
X147188036Y-147440300D01*
X147188034Y-147440300D01*
X147182693Y-147440300D01*
X145017492Y-147440300D01*
X144950453Y-147420615D01*
X144929811Y-147403982D01*
X144872015Y-147346186D01*
X144772663Y-147302318D01*
X144748374Y-147299500D01*
X144748373Y-147299500D01*
X143937994Y-147299500D01*
X143937993Y-147299500D01*
X143574223Y-147299500D01*
X143507184Y-147279815D01*
X143486542Y-147263181D01*
X143345542Y-147122181D01*
X143312057Y-147060858D01*
X143317041Y-146991166D01*
X143358913Y-146935233D01*
X143424377Y-146910816D01*
X143433223Y-146910500D01*
X143962656Y-146910500D01*
X143962660Y-146910499D01*
X144748366Y-146910499D01*
X144748372Y-146910499D01*
X144772662Y-146907682D01*
X144872016Y-146863813D01*
X144948813Y-146787016D01*
X144992682Y-146687662D01*
X144995500Y-146663373D01*
X144995499Y-146276628D01*
X144995499Y-146276625D01*
X147714500Y-146276625D01*
X147714500Y-146663365D01*
X147714502Y-146663388D01*
X147717317Y-146687659D01*
X147717318Y-146687662D01*
X147761186Y-146787015D01*
X147761187Y-146787016D01*
X147837984Y-146863813D01*
X147937338Y-146907682D01*
X147961627Y-146910500D01*
X148760003Y-146910499D01*
X148767643Y-146911000D01*
X148771941Y-146911000D01*
X148892363Y-146911000D01*
X148899997Y-146910499D01*
X149698366Y-146910499D01*
X149698372Y-146910499D01*
X149722662Y-146907682D01*
X149822016Y-146863813D01*
X149898813Y-146787016D01*
X149925748Y-146726014D01*
X149970833Y-146672638D01*
X150037620Y-146652110D01*
X150039182Y-146652100D01*
X151239557Y-146652100D01*
X151243029Y-146651600D01*
X151243034Y-146651600D01*
X151277277Y-146641545D01*
X151280023Y-146640775D01*
X151319721Y-146630138D01*
X151349920Y-146622046D01*
X151357428Y-146618936D01*
X151357511Y-146619137D01*
X151364565Y-146615915D01*
X151364572Y-146615914D01*
X151397729Y-146594603D01*
X151402719Y-146591561D01*
X151450480Y-146563988D01*
X151450486Y-146563981D01*
X151451741Y-146563019D01*
X151470886Y-146547589D01*
X151471133Y-146547431D01*
X151494826Y-146520085D01*
X151500830Y-146513636D01*
X151532588Y-146481880D01*
X151535957Y-146476042D01*
X151549640Y-146456827D01*
X151554083Y-146451701D01*
X151567040Y-146423325D01*
X151572448Y-146412838D01*
X151580131Y-146399531D01*
X151590646Y-146381320D01*
X151594243Y-146367896D01*
X151601226Y-146348471D01*
X151606701Y-146336483D01*
X151606703Y-146336479D01*
X151610332Y-146311228D01*
X151613290Y-146296808D01*
X151620700Y-146269159D01*
X151620700Y-146247998D01*
X151621962Y-146230351D01*
X151621964Y-146230335D01*
X151624730Y-146211100D01*
X151621962Y-146191848D01*
X151620700Y-146174201D01*
X151620700Y-146153041D01*
X151613294Y-146125405D01*
X151610330Y-146110952D01*
X151606703Y-146085721D01*
X151601218Y-146073710D01*
X151594245Y-146054311D01*
X151590646Y-146040880D01*
X151572442Y-146009350D01*
X151567036Y-145998862D01*
X151554083Y-145970500D01*
X151554083Y-145970499D01*
X151549638Y-145965369D01*
X151535958Y-145946159D01*
X151532588Y-145940320D01*
X151532586Y-145940318D01*
X151532585Y-145940316D01*
X151500849Y-145908580D01*
X151494816Y-145902101D01*
X151471134Y-145874770D01*
X151471133Y-145874769D01*
X151470877Y-145874604D01*
X151451694Y-145859144D01*
X151450483Y-145858215D01*
X151450480Y-145858212D01*
X151402745Y-145830652D01*
X151397725Y-145827592D01*
X151364572Y-145806286D01*
X151364570Y-145806285D01*
X151364568Y-145806284D01*
X151357512Y-145803061D01*
X151357429Y-145803264D01*
X151349920Y-145800154D01*
X151280042Y-145781429D01*
X151277230Y-145780639D01*
X151243034Y-145770600D01*
X151239555Y-145770100D01*
X151237759Y-145770100D01*
X149030841Y-145770100D01*
X148974760Y-145785127D01*
X148918678Y-145800154D01*
X148918677Y-145800155D01*
X148818123Y-145858209D01*
X148818120Y-145858212D01*
X148683148Y-145993182D01*
X148621827Y-146026666D01*
X148595469Y-146029500D01*
X147961634Y-146029500D01*
X147961611Y-146029502D01*
X147937340Y-146032317D01*
X147937337Y-146032318D01*
X147837984Y-146076186D01*
X147761187Y-146152983D01*
X147717318Y-146252335D01*
X147717318Y-146252337D01*
X147714500Y-146276625D01*
X144995499Y-146276625D01*
X144992682Y-146252338D01*
X144948813Y-146152984D01*
X144872016Y-146076187D01*
X144822447Y-146054300D01*
X144772663Y-146032318D01*
X144748374Y-146029500D01*
X144748373Y-146029500D01*
X143937994Y-146029500D01*
X143937993Y-146029500D01*
X143552923Y-146029500D01*
X143485884Y-146009815D01*
X143465242Y-145993181D01*
X143324242Y-145852181D01*
X143290757Y-145790858D01*
X143295741Y-145721166D01*
X143337613Y-145665233D01*
X143403077Y-145640816D01*
X143411923Y-145640500D01*
X143962656Y-145640500D01*
X143962660Y-145640499D01*
X144748366Y-145640499D01*
X144748372Y-145640499D01*
X144772662Y-145637682D01*
X144872016Y-145593813D01*
X144948813Y-145517016D01*
X144992682Y-145417662D01*
X144995500Y-145393373D01*
X144995499Y-145006628D01*
X144992682Y-144982338D01*
X144948813Y-144882984D01*
X144872016Y-144806187D01*
X144804152Y-144776222D01*
X144772663Y-144762318D01*
X144748374Y-144759500D01*
X144748373Y-144759500D01*
X143937994Y-144759500D01*
X143937993Y-144759500D01*
X143529323Y-144759500D01*
X143462284Y-144739815D01*
X143441642Y-144723181D01*
X143300641Y-144582180D01*
X143267156Y-144520857D01*
X143272140Y-144451165D01*
X143314012Y-144395232D01*
X143379476Y-144370815D01*
X143388322Y-144370499D01*
X143807565Y-144370499D01*
X143807573Y-144370500D01*
X143822007Y-144370500D01*
X143962656Y-144370500D01*
X143962660Y-144370499D01*
X144748366Y-144370499D01*
X144748372Y-144370499D01*
X144772662Y-144367682D01*
X144872016Y-144323813D01*
X144948813Y-144247016D01*
X144992682Y-144147662D01*
X144995500Y-144123373D01*
X144995499Y-143736628D01*
X144995499Y-143736625D01*
X147714500Y-143736625D01*
X147714500Y-144123365D01*
X147714502Y-144123388D01*
X147717317Y-144147659D01*
X147717318Y-144147662D01*
X147761186Y-144247015D01*
X147761187Y-144247016D01*
X147837984Y-144323813D01*
X147937338Y-144367682D01*
X147961627Y-144370500D01*
X148760003Y-144370499D01*
X148767643Y-144371000D01*
X148771941Y-144371000D01*
X148892363Y-144371000D01*
X148899997Y-144370499D01*
X149698366Y-144370499D01*
X149698372Y-144370499D01*
X149722662Y-144367682D01*
X149822016Y-144323813D01*
X149835910Y-144309919D01*
X149897233Y-144276434D01*
X149923591Y-144273600D01*
X151162558Y-144273600D01*
X151162559Y-144273600D01*
X151339868Y-144245517D01*
X151510600Y-144190043D01*
X151670552Y-144108543D01*
X151756582Y-144046039D01*
X151815780Y-144003030D01*
X151815782Y-144003027D01*
X151815786Y-144003025D01*
X151942725Y-143876086D01*
X151942727Y-143876082D01*
X151942730Y-143876080D01*
X151990793Y-143809925D01*
X152048243Y-143730852D01*
X152129743Y-143570900D01*
X152185217Y-143400168D01*
X152213300Y-143222859D01*
X152213300Y-143043341D01*
X152185217Y-142866032D01*
X152129743Y-142695300D01*
X152048243Y-142535348D01*
X152024160Y-142502200D01*
X151942730Y-142390119D01*
X151815780Y-142263169D01*
X151670555Y-142157659D01*
X151670554Y-142157658D01*
X151670552Y-142157657D01*
X151590576Y-142116907D01*
X151510597Y-142076155D01*
X151339869Y-142020683D01*
X151251213Y-142006641D01*
X151162559Y-141992600D01*
X149537141Y-141992600D01*
X149478038Y-142001961D01*
X149359830Y-142020683D01*
X149189102Y-142076155D01*
X149029144Y-142157659D01*
X148883919Y-142263169D01*
X148756969Y-142390119D01*
X148651459Y-142535344D01*
X148569955Y-142695302D01*
X148514483Y-142866030D01*
X148486400Y-143043341D01*
X148486400Y-143222859D01*
X148486399Y-143222859D01*
X148505919Y-143346103D01*
X148496964Y-143415396D01*
X148451967Y-143468848D01*
X148385216Y-143489487D01*
X148383446Y-143489500D01*
X147961634Y-143489500D01*
X147961611Y-143489502D01*
X147937340Y-143492317D01*
X147937337Y-143492318D01*
X147837984Y-143536186D01*
X147761187Y-143612983D01*
X147717318Y-143712335D01*
X147717318Y-143712337D01*
X147714500Y-143736625D01*
X144995499Y-143736625D01*
X144992682Y-143712338D01*
X144948813Y-143612984D01*
X144872016Y-143536187D01*
X144860599Y-143531146D01*
X144772663Y-143492318D01*
X144748374Y-143489500D01*
X144748373Y-143489500D01*
X144623800Y-143489500D01*
X144556761Y-143469815D01*
X144511006Y-143417011D01*
X144499800Y-143365500D01*
X144499800Y-136500000D01*
X147154870Y-136500000D01*
X147173338Y-136675713D01*
X147173339Y-136675715D01*
X147227935Y-136843747D01*
X147227936Y-136843748D01*
X147316272Y-136996750D01*
X147316275Y-136996755D01*
X147434498Y-137128054D01*
X147577435Y-137231904D01*
X147738835Y-137303764D01*
X147738840Y-137303766D01*
X147911660Y-137340500D01*
X147911661Y-137340500D01*
X148088338Y-137340500D01*
X148088340Y-137340500D01*
X148261160Y-137303766D01*
X148422565Y-137231904D01*
X148565502Y-137128054D01*
X148683725Y-136996755D01*
X148772065Y-136843745D01*
X148826662Y-136675712D01*
X148845130Y-136500000D01*
X148826662Y-136324288D01*
X148772065Y-136156255D01*
X148772064Y-136156254D01*
X148772064Y-136156252D01*
X148772063Y-136156251D01*
X148683727Y-136003249D01*
X148683725Y-136003245D01*
X148565502Y-135871946D01*
X148422565Y-135768096D01*
X148422564Y-135768095D01*
X148261164Y-135696235D01*
X148261159Y-135696233D01*
X148125073Y-135667307D01*
X148088340Y-135659500D01*
X147911660Y-135659500D01*
X147881366Y-135665939D01*
X147738840Y-135696233D01*
X147738835Y-135696235D01*
X147577435Y-135768095D01*
X147434499Y-135871945D01*
X147434498Y-135871946D01*
X147316275Y-136003245D01*
X147316273Y-136003246D01*
X147316272Y-136003249D01*
X147227936Y-136156251D01*
X147227935Y-136156252D01*
X147173339Y-136324284D01*
X147173338Y-136324286D01*
X147154870Y-136500000D01*
X144499800Y-136500000D01*
X144499800Y-133581309D01*
X144499800Y-133581307D01*
X144469781Y-133469273D01*
X144411788Y-133368827D01*
X144329773Y-133286812D01*
X143785821Y-132742860D01*
X143752336Y-132681537D01*
X143750181Y-132642226D01*
X143765130Y-132500000D01*
X143746662Y-132324288D01*
X143692065Y-132156255D01*
X143692064Y-132156254D01*
X143692064Y-132156252D01*
X143692063Y-132156251D01*
X143603727Y-132003249D01*
X143603725Y-132003245D01*
X143485502Y-131871946D01*
X143342565Y-131768096D01*
X143342564Y-131768095D01*
X143181164Y-131696235D01*
X143181159Y-131696233D01*
X143045073Y-131667307D01*
X143008340Y-131659500D01*
X142831660Y-131659500D01*
X142801366Y-131665939D01*
X142658840Y-131696233D01*
X142658835Y-131696235D01*
X142497435Y-131768095D01*
X142354499Y-131871945D01*
X142354498Y-131871946D01*
X142236275Y-132003245D01*
X142236273Y-132003246D01*
X142236272Y-132003249D01*
X142147936Y-132156251D01*
X142147935Y-132156252D01*
X142093339Y-132324284D01*
X142093338Y-132324286D01*
X142074870Y-132500000D01*
X142093338Y-132675713D01*
X142093339Y-132675715D01*
X142147935Y-132843747D01*
X142147936Y-132843748D01*
X142176376Y-132893007D01*
X142236275Y-132996755D01*
X142354498Y-133128054D01*
X142497435Y-133231904D01*
X142658835Y-133303764D01*
X142658840Y-133303766D01*
X142831660Y-133340500D01*
X142831661Y-133340500D01*
X143008336Y-133340500D01*
X143008340Y-133340500D01*
X143049036Y-133331849D01*
X143118700Y-133337164D01*
X143162497Y-133365458D01*
X143582481Y-133785442D01*
X143615966Y-133846765D01*
X143618800Y-133873123D01*
X143618800Y-143365500D01*
X143599115Y-143432539D01*
X143546311Y-143478294D01*
X143494800Y-143489500D01*
X143011634Y-143489500D01*
X143011611Y-143489502D01*
X142987340Y-143492317D01*
X142987337Y-143492318D01*
X142887984Y-143536186D01*
X142811187Y-143612983D01*
X142767318Y-143712335D01*
X142767318Y-143712337D01*
X142764500Y-143736625D01*
X142764500Y-143746677D01*
X142744815Y-143813716D01*
X142692011Y-143859471D01*
X142622853Y-143869415D01*
X142559297Y-143840390D01*
X142552819Y-143834358D01*
X138511519Y-139793058D01*
X138478034Y-139731735D01*
X138475200Y-139705377D01*
X138475200Y-121500000D01*
X140861042Y-121500000D01*
X140880428Y-121696836D01*
X140937845Y-121886114D01*
X141031084Y-122060550D01*
X141156558Y-122213441D01*
X141309449Y-122338915D01*
X141309453Y-122338918D01*
X141483888Y-122432156D01*
X141673162Y-122489571D01*
X141870000Y-122508958D01*
X142066838Y-122489571D01*
X142256112Y-122432156D01*
X142430547Y-122338918D01*
X142583441Y-122213441D01*
X142708918Y-122060547D01*
X142802156Y-121886112D01*
X142859571Y-121696838D01*
X142878958Y-121500000D01*
X143401042Y-121500000D01*
X143420428Y-121696836D01*
X143477845Y-121886114D01*
X143571084Y-122060550D01*
X143696558Y-122213441D01*
X143849449Y-122338915D01*
X143849453Y-122338918D01*
X144023888Y-122432156D01*
X144213162Y-122489571D01*
X144410000Y-122508958D01*
X144606838Y-122489571D01*
X144796112Y-122432156D01*
X144970547Y-122338918D01*
X145123441Y-122213441D01*
X145248918Y-122060547D01*
X145342156Y-121886112D01*
X145399571Y-121696838D01*
X145418958Y-121500000D01*
X145941042Y-121500000D01*
X145960428Y-121696836D01*
X146017845Y-121886114D01*
X146111084Y-122060550D01*
X146236558Y-122213441D01*
X146389449Y-122338915D01*
X146389453Y-122338918D01*
X146563888Y-122432156D01*
X146753162Y-122489571D01*
X146950000Y-122508958D01*
X147146838Y-122489571D01*
X147336112Y-122432156D01*
X147510547Y-122338918D01*
X147663441Y-122213441D01*
X147788918Y-122060547D01*
X147882156Y-121886112D01*
X147939571Y-121696838D01*
X147958958Y-121500000D01*
X147939571Y-121303162D01*
X147882156Y-121113888D01*
X147788918Y-120939453D01*
X147788915Y-120939449D01*
X147663441Y-120786558D01*
X147510550Y-120661084D01*
X147510548Y-120661083D01*
X147510547Y-120661082D01*
X147336112Y-120567844D01*
X147241475Y-120539136D01*
X147146836Y-120510428D01*
X146950000Y-120491042D01*
X146753163Y-120510428D01*
X146563885Y-120567845D01*
X146389449Y-120661084D01*
X146236558Y-120786558D01*
X146111084Y-120939449D01*
X146017845Y-121113885D01*
X145960428Y-121303163D01*
X145941042Y-121500000D01*
X145418958Y-121500000D01*
X145399571Y-121303162D01*
X145342156Y-121113888D01*
X145248918Y-120939453D01*
X145248915Y-120939449D01*
X145123441Y-120786558D01*
X144970550Y-120661084D01*
X144970548Y-120661083D01*
X144970547Y-120661082D01*
X144796112Y-120567844D01*
X144701475Y-120539136D01*
X144606836Y-120510428D01*
X144410000Y-120491042D01*
X144213163Y-120510428D01*
X144023885Y-120567845D01*
X143849449Y-120661084D01*
X143696558Y-120786558D01*
X143571084Y-120939449D01*
X143477845Y-121113885D01*
X143420428Y-121303163D01*
X143401042Y-121500000D01*
X142878958Y-121500000D01*
X142859571Y-121303162D01*
X142802156Y-121113888D01*
X142708918Y-120939453D01*
X142708915Y-120939449D01*
X142583441Y-120786558D01*
X142430550Y-120661084D01*
X142430548Y-120661083D01*
X142430547Y-120661082D01*
X142256112Y-120567844D01*
X142161475Y-120539136D01*
X142066836Y-120510428D01*
X141870000Y-120491042D01*
X141673163Y-120510428D01*
X141483885Y-120567845D01*
X141309449Y-120661084D01*
X141156558Y-120786558D01*
X141031084Y-120939449D01*
X140937845Y-121113885D01*
X140880428Y-121303163D01*
X140861042Y-121500000D01*
X138475200Y-121500000D01*
X138475200Y-118960000D01*
X140861042Y-118960000D01*
X140880428Y-119156836D01*
X140937845Y-119346114D01*
X141031084Y-119520550D01*
X141156558Y-119673441D01*
X141309449Y-119798915D01*
X141309453Y-119798918D01*
X141483888Y-119892156D01*
X141673162Y-119949571D01*
X141870000Y-119968958D01*
X142066838Y-119949571D01*
X142256112Y-119892156D01*
X142430547Y-119798918D01*
X142583441Y-119673441D01*
X142708918Y-119520547D01*
X142802156Y-119346112D01*
X142859571Y-119156838D01*
X142878958Y-118960000D01*
X143401042Y-118960000D01*
X143420428Y-119156836D01*
X143477845Y-119346114D01*
X143571084Y-119520550D01*
X143696558Y-119673441D01*
X143849449Y-119798915D01*
X143849453Y-119798918D01*
X144023888Y-119892156D01*
X144213162Y-119949571D01*
X144410000Y-119968958D01*
X144606838Y-119949571D01*
X144796112Y-119892156D01*
X144970547Y-119798918D01*
X145123441Y-119673441D01*
X145248918Y-119520547D01*
X145342156Y-119346112D01*
X145399571Y-119156838D01*
X145418958Y-118960000D01*
X145941042Y-118960000D01*
X145960428Y-119156836D01*
X146017845Y-119346114D01*
X146111084Y-119520550D01*
X146236558Y-119673441D01*
X146389449Y-119798915D01*
X146389453Y-119798918D01*
X146563888Y-119892156D01*
X146753162Y-119949571D01*
X146950000Y-119968958D01*
X147146838Y-119949571D01*
X147336112Y-119892156D01*
X147510547Y-119798918D01*
X147663441Y-119673441D01*
X147788918Y-119520547D01*
X147882156Y-119346112D01*
X147939571Y-119156838D01*
X147958958Y-118960000D01*
X148481042Y-118960000D01*
X148500428Y-119156836D01*
X148557845Y-119346114D01*
X148651084Y-119520550D01*
X148776558Y-119673441D01*
X148929449Y-119798915D01*
X148929453Y-119798918D01*
X149103888Y-119892156D01*
X149293162Y-119949571D01*
X149490000Y-119968958D01*
X149686838Y-119949571D01*
X149876112Y-119892156D01*
X150050547Y-119798918D01*
X150203441Y-119673441D01*
X150328918Y-119520547D01*
X150422156Y-119346112D01*
X150479571Y-119156838D01*
X150498958Y-118960000D01*
X151021042Y-118960000D01*
X151040428Y-119156836D01*
X151097845Y-119346114D01*
X151191084Y-119520550D01*
X151316558Y-119673441D01*
X151469449Y-119798915D01*
X151469453Y-119798918D01*
X151643888Y-119892156D01*
X151833162Y-119949571D01*
X152030000Y-119968958D01*
X152226838Y-119949571D01*
X152416112Y-119892156D01*
X152590547Y-119798918D01*
X152743441Y-119673441D01*
X152868918Y-119520547D01*
X152962156Y-119346112D01*
X153019571Y-119156838D01*
X153038958Y-118960000D01*
X153561042Y-118960000D01*
X153580428Y-119156836D01*
X153637845Y-119346114D01*
X153731084Y-119520550D01*
X153856558Y-119673441D01*
X154009449Y-119798915D01*
X154009453Y-119798918D01*
X154183888Y-119892156D01*
X154373162Y-119949571D01*
X154570000Y-119968958D01*
X154766838Y-119949571D01*
X154956112Y-119892156D01*
X155130547Y-119798918D01*
X155283441Y-119673441D01*
X155408918Y-119520547D01*
X155502156Y-119346112D01*
X155559571Y-119156838D01*
X155578958Y-118960000D01*
X156101042Y-118960000D01*
X156120428Y-119156836D01*
X156177845Y-119346114D01*
X156271084Y-119520550D01*
X156396558Y-119673441D01*
X156549449Y-119798915D01*
X156549453Y-119798918D01*
X156723888Y-119892156D01*
X156913162Y-119949571D01*
X157110000Y-119968958D01*
X157306838Y-119949571D01*
X157496112Y-119892156D01*
X157670547Y-119798918D01*
X157823441Y-119673441D01*
X157948918Y-119520547D01*
X158042156Y-119346112D01*
X158099571Y-119156838D01*
X158118958Y-118960000D01*
X158641042Y-118960000D01*
X158660428Y-119156836D01*
X158717845Y-119346114D01*
X158811084Y-119520550D01*
X158936558Y-119673441D01*
X159089449Y-119798915D01*
X159089453Y-119798918D01*
X159263888Y-119892156D01*
X159453162Y-119949571D01*
X159650000Y-119968958D01*
X159846838Y-119949571D01*
X160036112Y-119892156D01*
X160210547Y-119798918D01*
X160363441Y-119673441D01*
X160488918Y-119520547D01*
X160582156Y-119346112D01*
X160639571Y-119156838D01*
X160658958Y-118960000D01*
X161181042Y-118960000D01*
X161200428Y-119156836D01*
X161257845Y-119346114D01*
X161351084Y-119520550D01*
X161476558Y-119673441D01*
X161629449Y-119798915D01*
X161629453Y-119798918D01*
X161803888Y-119892156D01*
X161993162Y-119949571D01*
X162190000Y-119968958D01*
X162386838Y-119949571D01*
X162576112Y-119892156D01*
X162750547Y-119798918D01*
X162903441Y-119673441D01*
X163028918Y-119520547D01*
X163122156Y-119346112D01*
X163179571Y-119156838D01*
X163198958Y-118960000D01*
X163721042Y-118960000D01*
X163740428Y-119156836D01*
X163797845Y-119346114D01*
X163891084Y-119520550D01*
X164016558Y-119673441D01*
X164169449Y-119798915D01*
X164169453Y-119798918D01*
X164343888Y-119892156D01*
X164533162Y-119949571D01*
X164730000Y-119968958D01*
X164926838Y-119949571D01*
X165116112Y-119892156D01*
X165290547Y-119798918D01*
X165443441Y-119673441D01*
X165568918Y-119520547D01*
X165662156Y-119346112D01*
X165719571Y-119156838D01*
X165738958Y-118960000D01*
X166261042Y-118960000D01*
X166280428Y-119156836D01*
X166337845Y-119346114D01*
X166431084Y-119520550D01*
X166556558Y-119673441D01*
X166709449Y-119798915D01*
X166709453Y-119798918D01*
X166883888Y-119892156D01*
X167073162Y-119949571D01*
X167270000Y-119968958D01*
X167466838Y-119949571D01*
X167656112Y-119892156D01*
X167830547Y-119798918D01*
X167983441Y-119673441D01*
X168108918Y-119520547D01*
X168202156Y-119346112D01*
X168259571Y-119156838D01*
X168278958Y-118960000D01*
X168801042Y-118960000D01*
X168820428Y-119156836D01*
X168877845Y-119346114D01*
X168971084Y-119520550D01*
X169096558Y-119673441D01*
X169249449Y-119798915D01*
X169249453Y-119798918D01*
X169423888Y-119892156D01*
X169613162Y-119949571D01*
X169810000Y-119968958D01*
X170006838Y-119949571D01*
X170196112Y-119892156D01*
X170370547Y-119798918D01*
X170523441Y-119673441D01*
X170648918Y-119520547D01*
X170742156Y-119346112D01*
X170799571Y-119156838D01*
X170818958Y-118960000D01*
X171341042Y-118960000D01*
X171360428Y-119156836D01*
X171417845Y-119346114D01*
X171511084Y-119520550D01*
X171636558Y-119673441D01*
X171789449Y-119798915D01*
X171789453Y-119798918D01*
X171963888Y-119892156D01*
X172153162Y-119949571D01*
X172350000Y-119968958D01*
X172546838Y-119949571D01*
X172736112Y-119892156D01*
X172910547Y-119798918D01*
X173063441Y-119673441D01*
X173188918Y-119520547D01*
X173282156Y-119346112D01*
X173339571Y-119156838D01*
X173358958Y-118960000D01*
X173881042Y-118960000D01*
X173900428Y-119156836D01*
X173957845Y-119346114D01*
X174051084Y-119520550D01*
X174176558Y-119673441D01*
X174329449Y-119798915D01*
X174329453Y-119798918D01*
X174503888Y-119892156D01*
X174693162Y-119949571D01*
X174890000Y-119968958D01*
X175086838Y-119949571D01*
X175276112Y-119892156D01*
X175450547Y-119798918D01*
X175603441Y-119673441D01*
X175728918Y-119520547D01*
X175822156Y-119346112D01*
X175879571Y-119156838D01*
X175898958Y-118960000D01*
X176421042Y-118960000D01*
X176440428Y-119156836D01*
X176497845Y-119346114D01*
X176591084Y-119520550D01*
X176716558Y-119673441D01*
X176869449Y-119798915D01*
X176869453Y-119798918D01*
X177043888Y-119892156D01*
X177233162Y-119949571D01*
X177430000Y-119968958D01*
X177626838Y-119949571D01*
X177816112Y-119892156D01*
X177990547Y-119798918D01*
X178143441Y-119673441D01*
X178268918Y-119520547D01*
X178362156Y-119346112D01*
X178419571Y-119156838D01*
X178438958Y-118960000D01*
X178961042Y-118960000D01*
X178980428Y-119156836D01*
X179037845Y-119346114D01*
X179131084Y-119520550D01*
X179256558Y-119673441D01*
X179409449Y-119798915D01*
X179409453Y-119798918D01*
X179583888Y-119892156D01*
X179773162Y-119949571D01*
X179970000Y-119968958D01*
X180166838Y-119949571D01*
X180356112Y-119892156D01*
X180530547Y-119798918D01*
X180683441Y-119673441D01*
X180808918Y-119520547D01*
X180902156Y-119346112D01*
X180959571Y-119156838D01*
X180978958Y-118960000D01*
X180959571Y-118763162D01*
X180902156Y-118573888D01*
X180808918Y-118399453D01*
X180734445Y-118308707D01*
X180683441Y-118246558D01*
X180530550Y-118121084D01*
X180530548Y-118121083D01*
X180530547Y-118121082D01*
X180356112Y-118027844D01*
X180261475Y-117999136D01*
X180166836Y-117970428D01*
X179970000Y-117951042D01*
X179773163Y-117970428D01*
X179583885Y-118027845D01*
X179409449Y-118121084D01*
X179256558Y-118246558D01*
X179131084Y-118399449D01*
X179037845Y-118573885D01*
X178980428Y-118763163D01*
X178961042Y-118960000D01*
X178438958Y-118960000D01*
X178419571Y-118763162D01*
X178362156Y-118573888D01*
X178268918Y-118399453D01*
X178194445Y-118308707D01*
X178143441Y-118246558D01*
X177990550Y-118121084D01*
X177990548Y-118121083D01*
X177990547Y-118121082D01*
X177816112Y-118027844D01*
X177721475Y-117999136D01*
X177626836Y-117970428D01*
X177430000Y-117951042D01*
X177233163Y-117970428D01*
X177043885Y-118027845D01*
X176869449Y-118121084D01*
X176716558Y-118246558D01*
X176591084Y-118399449D01*
X176497845Y-118573885D01*
X176440428Y-118763163D01*
X176421042Y-118960000D01*
X175898958Y-118960000D01*
X175879571Y-118763162D01*
X175822156Y-118573888D01*
X175728918Y-118399453D01*
X175654445Y-118308707D01*
X175603441Y-118246558D01*
X175450550Y-118121084D01*
X175450548Y-118121083D01*
X175450547Y-118121082D01*
X175276112Y-118027844D01*
X175181475Y-117999136D01*
X175086836Y-117970428D01*
X174890000Y-117951042D01*
X174693163Y-117970428D01*
X174503885Y-118027845D01*
X174329449Y-118121084D01*
X174176558Y-118246558D01*
X174051084Y-118399449D01*
X173957845Y-118573885D01*
X173900428Y-118763163D01*
X173881042Y-118960000D01*
X173358958Y-118960000D01*
X173339571Y-118763162D01*
X173282156Y-118573888D01*
X173188918Y-118399453D01*
X173114445Y-118308707D01*
X173063441Y-118246558D01*
X172910550Y-118121084D01*
X172910548Y-118121083D01*
X172910547Y-118121082D01*
X172736112Y-118027844D01*
X172641475Y-117999136D01*
X172546836Y-117970428D01*
X172350000Y-117951042D01*
X172153163Y-117970428D01*
X171963885Y-118027845D01*
X171789449Y-118121084D01*
X171636558Y-118246558D01*
X171511084Y-118399449D01*
X171417845Y-118573885D01*
X171360428Y-118763163D01*
X171341042Y-118960000D01*
X170818958Y-118960000D01*
X170799571Y-118763162D01*
X170742156Y-118573888D01*
X170648918Y-118399453D01*
X170574445Y-118308707D01*
X170523441Y-118246558D01*
X170370550Y-118121084D01*
X170370548Y-118121083D01*
X170370547Y-118121082D01*
X170196112Y-118027844D01*
X170101475Y-117999136D01*
X170006836Y-117970428D01*
X169810000Y-117951042D01*
X169613163Y-117970428D01*
X169423885Y-118027845D01*
X169249449Y-118121084D01*
X169096558Y-118246558D01*
X168971084Y-118399449D01*
X168877845Y-118573885D01*
X168820428Y-118763163D01*
X168801042Y-118960000D01*
X168278958Y-118960000D01*
X168259571Y-118763162D01*
X168202156Y-118573888D01*
X168108918Y-118399453D01*
X168034445Y-118308707D01*
X167983441Y-118246558D01*
X167830550Y-118121084D01*
X167830548Y-118121083D01*
X167830547Y-118121082D01*
X167656112Y-118027844D01*
X167561475Y-117999136D01*
X167466836Y-117970428D01*
X167270000Y-117951042D01*
X167073163Y-117970428D01*
X166883885Y-118027845D01*
X166709449Y-118121084D01*
X166556558Y-118246558D01*
X166431084Y-118399449D01*
X166337845Y-118573885D01*
X166280428Y-118763163D01*
X166261042Y-118960000D01*
X165738958Y-118960000D01*
X165719571Y-118763162D01*
X165662156Y-118573888D01*
X165568918Y-118399453D01*
X165494445Y-118308707D01*
X165443441Y-118246558D01*
X165290550Y-118121084D01*
X165290548Y-118121083D01*
X165290547Y-118121082D01*
X165116112Y-118027844D01*
X165021475Y-117999136D01*
X164926836Y-117970428D01*
X164730000Y-117951042D01*
X164533163Y-117970428D01*
X164343885Y-118027845D01*
X164169449Y-118121084D01*
X164016558Y-118246558D01*
X163891084Y-118399449D01*
X163797845Y-118573885D01*
X163740428Y-118763163D01*
X163721042Y-118960000D01*
X163198958Y-118960000D01*
X163179571Y-118763162D01*
X163122156Y-118573888D01*
X163028918Y-118399453D01*
X162954445Y-118308707D01*
X162903441Y-118246558D01*
X162750550Y-118121084D01*
X162750548Y-118121083D01*
X162750547Y-118121082D01*
X162576112Y-118027844D01*
X162481475Y-117999136D01*
X162386836Y-117970428D01*
X162190000Y-117951042D01*
X161993163Y-117970428D01*
X161803885Y-118027845D01*
X161629449Y-118121084D01*
X161476558Y-118246558D01*
X161351084Y-118399449D01*
X161257845Y-118573885D01*
X161200428Y-118763163D01*
X161181042Y-118960000D01*
X160658958Y-118960000D01*
X160639571Y-118763162D01*
X160582156Y-118573888D01*
X160488918Y-118399453D01*
X160414445Y-118308707D01*
X160363441Y-118246558D01*
X160210550Y-118121084D01*
X160210548Y-118121083D01*
X160210547Y-118121082D01*
X160036112Y-118027844D01*
X159941475Y-117999136D01*
X159846836Y-117970428D01*
X159650000Y-117951042D01*
X159453163Y-117970428D01*
X159263885Y-118027845D01*
X159089449Y-118121084D01*
X158936558Y-118246558D01*
X158811084Y-118399449D01*
X158717845Y-118573885D01*
X158660428Y-118763163D01*
X158641042Y-118960000D01*
X158118958Y-118960000D01*
X158099571Y-118763162D01*
X158042156Y-118573888D01*
X157948918Y-118399453D01*
X157874445Y-118308707D01*
X157823441Y-118246558D01*
X157670550Y-118121084D01*
X157670548Y-118121083D01*
X157670547Y-118121082D01*
X157496112Y-118027844D01*
X157401475Y-117999136D01*
X157306836Y-117970428D01*
X157110000Y-117951042D01*
X156913163Y-117970428D01*
X156723885Y-118027845D01*
X156549449Y-118121084D01*
X156396558Y-118246558D01*
X156271084Y-118399449D01*
X156177845Y-118573885D01*
X156120428Y-118763163D01*
X156101042Y-118960000D01*
X155578958Y-118960000D01*
X155559571Y-118763162D01*
X155502156Y-118573888D01*
X155408918Y-118399453D01*
X155334445Y-118308707D01*
X155283441Y-118246558D01*
X155130550Y-118121084D01*
X155130548Y-118121083D01*
X155130547Y-118121082D01*
X154956112Y-118027844D01*
X154861475Y-117999136D01*
X154766836Y-117970428D01*
X154570000Y-117951042D01*
X154373163Y-117970428D01*
X154183885Y-118027845D01*
X154009449Y-118121084D01*
X153856558Y-118246558D01*
X153731084Y-118399449D01*
X153637845Y-118573885D01*
X153580428Y-118763163D01*
X153561042Y-118960000D01*
X153038958Y-118960000D01*
X153019571Y-118763162D01*
X152962156Y-118573888D01*
X152868918Y-118399453D01*
X152794445Y-118308707D01*
X152743441Y-118246558D01*
X152590548Y-118121082D01*
X152536045Y-118091949D01*
X152486202Y-118042986D01*
X152470500Y-117982592D01*
X152470500Y-117730223D01*
X152490185Y-117663184D01*
X152506819Y-117642542D01*
X155708814Y-114440547D01*
X158952488Y-111196873D01*
X159010481Y-111096427D01*
X159040500Y-110984393D01*
X159040500Y-110868407D01*
X159040500Y-104761986D01*
X159060185Y-104694947D01*
X159106047Y-104652628D01*
X159152955Y-104627556D01*
X159303778Y-104503778D01*
X159427556Y-104352955D01*
X159479271Y-104256203D01*
X159519528Y-104180888D01*
X159519528Y-104180887D01*
X159519531Y-104180882D01*
X159576169Y-103994172D01*
X159595293Y-103800000D01*
X160144707Y-103800000D01*
X160163830Y-103994169D01*
X160220471Y-104180888D01*
X160312440Y-104352949D01*
X160312444Y-104352956D01*
X160436221Y-104503778D01*
X160587043Y-104627555D01*
X160587050Y-104627559D01*
X160759111Y-104719528D01*
X160759114Y-104719528D01*
X160759118Y-104719531D01*
X160945828Y-104776169D01*
X161140000Y-104795293D01*
X161334172Y-104776169D01*
X161520882Y-104719531D01*
X161566876Y-104694947D01*
X161646050Y-104652627D01*
X161692955Y-104627556D01*
X161843778Y-104503778D01*
X161967556Y-104352955D01*
X162019271Y-104256203D01*
X162059528Y-104180888D01*
X162059528Y-104180887D01*
X162059531Y-104180882D01*
X162116169Y-103994172D01*
X162135293Y-103800000D01*
X162684707Y-103800000D01*
X162703830Y-103994169D01*
X162760471Y-104180888D01*
X162852440Y-104352949D01*
X162852444Y-104352956D01*
X162976221Y-104503778D01*
X163127043Y-104627555D01*
X163127050Y-104627559D01*
X163299111Y-104719528D01*
X163299114Y-104719528D01*
X163299118Y-104719531D01*
X163485828Y-104776169D01*
X163680000Y-104795293D01*
X163874172Y-104776169D01*
X164060882Y-104719531D01*
X164106876Y-104694947D01*
X164186050Y-104652627D01*
X164232955Y-104627556D01*
X164383778Y-104503778D01*
X164507556Y-104352955D01*
X164559271Y-104256203D01*
X164599528Y-104180888D01*
X164599528Y-104180887D01*
X164599531Y-104180882D01*
X164656169Y-103994172D01*
X164675293Y-103800000D01*
X164656169Y-103605828D01*
X164599531Y-103419118D01*
X164599528Y-103419114D01*
X164599528Y-103419111D01*
X164507559Y-103247050D01*
X164507555Y-103247043D01*
X164383778Y-103096221D01*
X164232956Y-102972444D01*
X164232949Y-102972440D01*
X164060888Y-102880471D01*
X164060882Y-102880469D01*
X163874172Y-102823831D01*
X163874169Y-102823830D01*
X163680000Y-102804707D01*
X163485830Y-102823830D01*
X163299111Y-102880471D01*
X163127050Y-102972440D01*
X163127043Y-102972444D01*
X162976221Y-103096221D01*
X162852444Y-103247043D01*
X162852440Y-103247050D01*
X162760471Y-103419111D01*
X162703830Y-103605830D01*
X162684707Y-103800000D01*
X162135293Y-103800000D01*
X162116169Y-103605828D01*
X162059531Y-103419118D01*
X162059528Y-103419114D01*
X162059528Y-103419111D01*
X161967559Y-103247050D01*
X161967555Y-103247043D01*
X161843778Y-103096221D01*
X161692956Y-102972444D01*
X161692949Y-102972440D01*
X161520888Y-102880471D01*
X161520882Y-102880469D01*
X161334172Y-102823831D01*
X161334169Y-102823830D01*
X161140000Y-102804707D01*
X160945830Y-102823830D01*
X160759111Y-102880471D01*
X160587050Y-102972440D01*
X160587043Y-102972444D01*
X160436221Y-103096221D01*
X160312444Y-103247043D01*
X160312440Y-103247050D01*
X160220471Y-103419111D01*
X160163830Y-103605830D01*
X160144707Y-103800000D01*
X159595293Y-103800000D01*
X159576169Y-103605828D01*
X159519531Y-103419118D01*
X159519528Y-103419114D01*
X159519528Y-103419111D01*
X159427559Y-103247050D01*
X159427555Y-103247043D01*
X159303778Y-103096221D01*
X159152956Y-102972444D01*
X159152949Y-102972440D01*
X158980888Y-102880471D01*
X158980882Y-102880469D01*
X158794172Y-102823831D01*
X158794169Y-102823830D01*
X158600000Y-102804707D01*
X158405830Y-102823830D01*
X158219111Y-102880471D01*
X158047050Y-102972440D01*
X158047043Y-102972444D01*
X157896221Y-103096221D01*
X157772444Y-103247043D01*
X157772440Y-103247050D01*
X157680471Y-103419111D01*
X157623830Y-103605830D01*
X157604707Y-103800000D01*
X157623830Y-103994169D01*
X157680471Y-104180888D01*
X157772440Y-104352949D01*
X157772444Y-104352956D01*
X157896221Y-104503778D01*
X158047043Y-104627555D01*
X158047044Y-104627555D01*
X158047045Y-104627556D01*
X158093952Y-104652628D01*
X158143796Y-104701588D01*
X158159500Y-104761986D01*
X158159500Y-110692577D01*
X158139815Y-110759616D01*
X158123181Y-110780258D01*
X151677514Y-117225924D01*
X151677512Y-117225927D01*
X151619519Y-117326371D01*
X151589500Y-117438407D01*
X151589500Y-117982592D01*
X151569815Y-118049631D01*
X151523955Y-118091949D01*
X151469451Y-118121082D01*
X151316558Y-118246558D01*
X151191084Y-118399449D01*
X151097845Y-118573885D01*
X151040428Y-118763163D01*
X151021042Y-118960000D01*
X150498958Y-118960000D01*
X150479571Y-118763162D01*
X150422156Y-118573888D01*
X150328918Y-118399453D01*
X150254445Y-118308707D01*
X150203441Y-118246558D01*
X150050550Y-118121084D01*
X150050548Y-118121083D01*
X150050547Y-118121082D01*
X149876112Y-118027844D01*
X149781475Y-117999136D01*
X149686836Y-117970428D01*
X149490000Y-117951042D01*
X149293163Y-117970428D01*
X149103885Y-118027845D01*
X148929449Y-118121084D01*
X148776558Y-118246558D01*
X148651084Y-118399449D01*
X148557845Y-118573885D01*
X148500428Y-118763163D01*
X148481042Y-118960000D01*
X147958958Y-118960000D01*
X147939571Y-118763162D01*
X147882156Y-118573888D01*
X147788918Y-118399453D01*
X147714445Y-118308707D01*
X147663441Y-118246558D01*
X147510550Y-118121084D01*
X147510548Y-118121083D01*
X147510547Y-118121082D01*
X147336112Y-118027844D01*
X147241475Y-117999136D01*
X147146836Y-117970428D01*
X146950000Y-117951042D01*
X146753163Y-117970428D01*
X146563885Y-118027845D01*
X146389449Y-118121084D01*
X146236558Y-118246558D01*
X146111084Y-118399449D01*
X146017845Y-118573885D01*
X145960428Y-118763163D01*
X145941042Y-118960000D01*
X145418958Y-118960000D01*
X145399571Y-118763162D01*
X145342156Y-118573888D01*
X145248918Y-118399453D01*
X145174445Y-118308707D01*
X145123441Y-118246558D01*
X144970550Y-118121084D01*
X144970548Y-118121083D01*
X144970547Y-118121082D01*
X144796112Y-118027844D01*
X144701475Y-117999136D01*
X144606836Y-117970428D01*
X144410000Y-117951042D01*
X144213163Y-117970428D01*
X144023885Y-118027845D01*
X143849449Y-118121084D01*
X143696558Y-118246558D01*
X143571084Y-118399449D01*
X143477845Y-118573885D01*
X143420428Y-118763163D01*
X143401042Y-118960000D01*
X142878958Y-118960000D01*
X142859571Y-118763162D01*
X142802156Y-118573888D01*
X142708918Y-118399453D01*
X142634445Y-118308707D01*
X142583441Y-118246558D01*
X142430550Y-118121084D01*
X142430548Y-118121083D01*
X142430547Y-118121082D01*
X142256112Y-118027844D01*
X142161475Y-117999136D01*
X142066836Y-117970428D01*
X141870000Y-117951042D01*
X141673163Y-117970428D01*
X141483885Y-118027845D01*
X141309449Y-118121084D01*
X141156558Y-118246558D01*
X141031084Y-118399449D01*
X140937845Y-118573885D01*
X140880428Y-118763163D01*
X140861042Y-118960000D01*
X138475200Y-118960000D01*
X138475200Y-114657123D01*
X138494885Y-114590084D01*
X138511519Y-114569442D01*
X149280961Y-103800000D01*
X155064707Y-103800000D01*
X155083830Y-103994169D01*
X155140471Y-104180888D01*
X155232440Y-104352949D01*
X155232444Y-104352956D01*
X155356221Y-104503778D01*
X155507043Y-104627555D01*
X155507050Y-104627559D01*
X155679111Y-104719528D01*
X155679114Y-104719528D01*
X155679118Y-104719531D01*
X155865828Y-104776169D01*
X156060000Y-104795293D01*
X156254172Y-104776169D01*
X156440882Y-104719531D01*
X156486876Y-104694947D01*
X156566050Y-104652627D01*
X156612955Y-104627556D01*
X156763778Y-104503778D01*
X156887556Y-104352955D01*
X156939271Y-104256203D01*
X156979528Y-104180888D01*
X156979528Y-104180887D01*
X156979531Y-104180882D01*
X157036169Y-103994172D01*
X157055293Y-103800000D01*
X157036169Y-103605828D01*
X156979531Y-103419118D01*
X156979528Y-103419114D01*
X156979528Y-103419111D01*
X156887559Y-103247050D01*
X156887555Y-103247043D01*
X156763778Y-103096221D01*
X156612956Y-102972444D01*
X156612949Y-102972440D01*
X156440888Y-102880471D01*
X156440882Y-102880469D01*
X156254172Y-102823831D01*
X156254169Y-102823830D01*
X156060000Y-102804707D01*
X155865830Y-102823830D01*
X155679111Y-102880471D01*
X155507050Y-102972440D01*
X155507043Y-102972444D01*
X155356221Y-103096221D01*
X155232444Y-103247043D01*
X155232440Y-103247050D01*
X155140471Y-103419111D01*
X155083830Y-103605830D01*
X155064707Y-103800000D01*
X149280961Y-103800000D01*
X151900961Y-101180000D01*
X181501042Y-101180000D01*
X181520428Y-101376836D01*
X181577845Y-101566114D01*
X181671084Y-101740550D01*
X181796558Y-101893441D01*
X181949449Y-102018915D01*
X181949453Y-102018918D01*
X182123888Y-102112156D01*
X182313162Y-102169571D01*
X182510000Y-102188958D01*
X182706838Y-102169571D01*
X182896112Y-102112156D01*
X183070547Y-102018918D01*
X183223441Y-101893441D01*
X183348918Y-101740547D01*
X183442156Y-101566112D01*
X183499571Y-101376838D01*
X183518958Y-101180000D01*
X183499571Y-100983162D01*
X183442156Y-100793888D01*
X183348918Y-100619453D01*
X183348915Y-100619449D01*
X183223441Y-100466558D01*
X183070550Y-100341084D01*
X183070548Y-100341083D01*
X183070547Y-100341082D01*
X182896112Y-100247844D01*
X182801475Y-100219136D01*
X182706836Y-100190428D01*
X182510000Y-100171042D01*
X182313163Y-100190428D01*
X182123885Y-100247845D01*
X181949449Y-100341084D01*
X181796558Y-100466558D01*
X181671084Y-100619449D01*
X181577845Y-100793885D01*
X181520428Y-100983163D01*
X181501042Y-101180000D01*
X151900961Y-101180000D01*
X154440961Y-98640000D01*
X181501042Y-98640000D01*
X181520428Y-98836836D01*
X181577845Y-99026114D01*
X181671084Y-99200550D01*
X181796558Y-99353441D01*
X181949449Y-99478915D01*
X181949453Y-99478918D01*
X182123888Y-99572156D01*
X182313162Y-99629571D01*
X182510000Y-99648958D01*
X182706838Y-99629571D01*
X182896112Y-99572156D01*
X183070547Y-99478918D01*
X183223441Y-99353441D01*
X183348918Y-99200547D01*
X183442156Y-99026112D01*
X183499571Y-98836838D01*
X183518958Y-98640000D01*
X183499571Y-98443162D01*
X183442156Y-98253888D01*
X183348918Y-98079453D01*
X183348915Y-98079449D01*
X183223441Y-97926558D01*
X183070550Y-97801084D01*
X183070548Y-97801083D01*
X183070547Y-97801082D01*
X182896112Y-97707844D01*
X182801475Y-97679136D01*
X182706836Y-97650428D01*
X182510000Y-97631042D01*
X182313163Y-97650428D01*
X182123885Y-97707845D01*
X181949449Y-97801084D01*
X181796558Y-97926558D01*
X181671084Y-98079449D01*
X181577845Y-98253885D01*
X181520428Y-98443163D01*
X181501042Y-98640000D01*
X154440961Y-98640000D01*
X156980961Y-96100000D01*
X181501042Y-96100000D01*
X181520428Y-96296836D01*
X181577845Y-96486114D01*
X181671084Y-96660550D01*
X181796558Y-96813441D01*
X181949449Y-96938915D01*
X181949453Y-96938918D01*
X182123888Y-97032156D01*
X182313162Y-97089571D01*
X182510000Y-97108958D01*
X182706838Y-97089571D01*
X182896112Y-97032156D01*
X183070547Y-96938918D01*
X183223441Y-96813441D01*
X183348918Y-96660547D01*
X183442156Y-96486112D01*
X183499571Y-96296838D01*
X183518958Y-96100000D01*
X183499571Y-95903162D01*
X183442156Y-95713888D01*
X183348918Y-95539453D01*
X183348915Y-95539449D01*
X183223441Y-95386558D01*
X183070550Y-95261084D01*
X183070548Y-95261083D01*
X183070547Y-95261082D01*
X182896112Y-95167844D01*
X182801475Y-95139136D01*
X182706836Y-95110428D01*
X182510000Y-95091042D01*
X182313163Y-95110428D01*
X182123885Y-95167845D01*
X181949449Y-95261084D01*
X181796558Y-95386558D01*
X181671084Y-95539449D01*
X181577845Y-95713885D01*
X181520428Y-95903163D01*
X181501042Y-96100000D01*
X156980961Y-96100000D01*
X159520961Y-93560000D01*
X181501042Y-93560000D01*
X181520428Y-93756836D01*
X181577845Y-93946114D01*
X181671084Y-94120550D01*
X181796558Y-94273441D01*
X181949449Y-94398915D01*
X181949453Y-94398918D01*
X182123888Y-94492156D01*
X182313162Y-94549571D01*
X182510000Y-94568958D01*
X182706838Y-94549571D01*
X182896112Y-94492156D01*
X183070547Y-94398918D01*
X183223441Y-94273441D01*
X183348918Y-94120547D01*
X183442156Y-93946112D01*
X183499571Y-93756838D01*
X183518958Y-93560000D01*
X183499571Y-93363162D01*
X183442156Y-93173888D01*
X183348918Y-92999453D01*
X183300224Y-92940119D01*
X183223441Y-92846558D01*
X183070550Y-92721084D01*
X183070548Y-92721083D01*
X183070547Y-92721082D01*
X182896112Y-92627844D01*
X182801475Y-92599136D01*
X182706836Y-92570428D01*
X182510000Y-92551042D01*
X182313163Y-92570428D01*
X182123885Y-92627845D01*
X181949449Y-92721084D01*
X181796558Y-92846558D01*
X181671084Y-92999449D01*
X181577845Y-93173885D01*
X181520428Y-93363163D01*
X181501042Y-93560000D01*
X159520961Y-93560000D01*
X160140842Y-92940119D01*
X160202165Y-92906634D01*
X160228523Y-92903800D01*
X162801991Y-92903800D01*
X162801993Y-92903800D01*
X162914027Y-92873781D01*
X163014473Y-92815788D01*
X164330988Y-91499273D01*
X164388981Y-91398827D01*
X164419000Y-91286793D01*
X164419000Y-90898711D01*
X165419500Y-90898711D01*
X165419500Y-91141288D01*
X165451161Y-91381785D01*
X165513947Y-91616104D01*
X165562550Y-91733441D01*
X165606776Y-91840212D01*
X165728064Y-92050289D01*
X165728066Y-92050292D01*
X165728067Y-92050293D01*
X165875733Y-92242736D01*
X165875739Y-92242743D01*
X166047256Y-92414260D01*
X166047262Y-92414265D01*
X166239711Y-92561936D01*
X166449788Y-92683224D01*
X166673900Y-92776054D01*
X166908211Y-92838838D01*
X167088586Y-92862584D01*
X167148711Y-92870500D01*
X167148712Y-92870500D01*
X167391289Y-92870500D01*
X167439388Y-92864167D01*
X167631789Y-92838838D01*
X167866100Y-92776054D01*
X168090212Y-92683224D01*
X168300289Y-92561936D01*
X168492738Y-92414265D01*
X168664265Y-92242738D01*
X168811936Y-92050289D01*
X168933224Y-91840212D01*
X169026054Y-91616100D01*
X169088838Y-91381789D01*
X169120500Y-91141288D01*
X169120500Y-90898712D01*
X169088838Y-90658211D01*
X169026054Y-90423900D01*
X168933224Y-90199788D01*
X168811936Y-89989711D01*
X168664265Y-89797262D01*
X168664260Y-89797256D01*
X168492743Y-89625739D01*
X168492736Y-89625733D01*
X168300293Y-89478067D01*
X168300292Y-89478066D01*
X168300289Y-89478064D01*
X168090212Y-89356776D01*
X168090205Y-89356773D01*
X167866104Y-89263947D01*
X167631785Y-89201161D01*
X167391289Y-89169500D01*
X167391288Y-89169500D01*
X167148712Y-89169500D01*
X167148711Y-89169500D01*
X166908214Y-89201161D01*
X166673895Y-89263947D01*
X166449794Y-89356773D01*
X166449785Y-89356777D01*
X166239706Y-89478067D01*
X166047263Y-89625733D01*
X166047256Y-89625739D01*
X165875739Y-89797256D01*
X165875733Y-89797263D01*
X165728067Y-89989706D01*
X165606777Y-90199785D01*
X165606773Y-90199794D01*
X165513947Y-90423895D01*
X165451161Y-90658214D01*
X165419500Y-90898711D01*
X164419000Y-90898711D01*
X164419000Y-90541723D01*
X164438685Y-90474684D01*
X164455319Y-90454042D01*
X166429361Y-88480000D01*
X181501042Y-88480000D01*
X181520428Y-88676836D01*
X181520429Y-88676838D01*
X181577844Y-88866112D01*
X181645728Y-88993114D01*
X181671084Y-89040550D01*
X181796558Y-89193441D01*
X181949449Y-89318915D01*
X181949453Y-89318918D01*
X182123888Y-89412156D01*
X182313162Y-89469571D01*
X182510000Y-89488958D01*
X182706838Y-89469571D01*
X182896112Y-89412156D01*
X183070547Y-89318918D01*
X183223441Y-89193441D01*
X183348918Y-89040547D01*
X183442156Y-88866112D01*
X183499571Y-88676838D01*
X183518958Y-88480000D01*
X183499571Y-88283162D01*
X183442156Y-88093888D01*
X183348918Y-87919453D01*
X183348915Y-87919449D01*
X183223441Y-87766558D01*
X183070550Y-87641084D01*
X183070548Y-87641083D01*
X183070547Y-87641082D01*
X182896112Y-87547844D01*
X182801475Y-87519136D01*
X182706836Y-87490428D01*
X182510000Y-87471042D01*
X182313163Y-87490428D01*
X182123885Y-87547845D01*
X181949449Y-87641084D01*
X181796558Y-87766558D01*
X181671084Y-87919449D01*
X181577845Y-88093885D01*
X181520428Y-88283163D01*
X181501042Y-88480000D01*
X166429361Y-88480000D01*
X168969361Y-85940000D01*
X181501042Y-85940000D01*
X181520428Y-86136836D01*
X181577845Y-86326114D01*
X181671084Y-86500550D01*
X181796558Y-86653441D01*
X181949449Y-86778915D01*
X181949453Y-86778918D01*
X182123888Y-86872156D01*
X182313162Y-86929571D01*
X182510000Y-86948958D01*
X182706838Y-86929571D01*
X182896112Y-86872156D01*
X183070547Y-86778918D01*
X183223441Y-86653441D01*
X183348918Y-86500547D01*
X183442156Y-86326112D01*
X183499571Y-86136838D01*
X183518958Y-85940000D01*
X183499571Y-85743162D01*
X183442156Y-85553888D01*
X183348918Y-85379453D01*
X183348915Y-85379449D01*
X183223441Y-85226558D01*
X183070550Y-85101084D01*
X183070548Y-85101083D01*
X183070547Y-85101082D01*
X182896112Y-85007844D01*
X182801475Y-84979136D01*
X182706836Y-84950428D01*
X182510000Y-84931042D01*
X182313163Y-84950428D01*
X182123885Y-85007845D01*
X181949449Y-85101084D01*
X181796558Y-85226558D01*
X181671084Y-85379449D01*
X181577845Y-85553885D01*
X181520428Y-85743163D01*
X181501042Y-85940000D01*
X168969361Y-85940000D01*
X171509361Y-83400000D01*
X181501042Y-83400000D01*
X181520428Y-83596836D01*
X181536225Y-83648911D01*
X181568666Y-83755857D01*
X181577845Y-83786114D01*
X181671084Y-83960550D01*
X181796558Y-84113441D01*
X181829530Y-84140500D01*
X181949453Y-84238918D01*
X182123888Y-84332156D01*
X182313162Y-84389571D01*
X182510000Y-84408958D01*
X182706838Y-84389571D01*
X182896112Y-84332156D01*
X183070547Y-84238918D01*
X183223441Y-84113441D01*
X183348918Y-83960547D01*
X183442156Y-83786112D01*
X183499571Y-83596838D01*
X183518958Y-83400000D01*
X183499571Y-83203162D01*
X183442156Y-83013888D01*
X183348918Y-82839453D01*
X183348915Y-82839449D01*
X183223441Y-82686558D01*
X183070550Y-82561084D01*
X183070548Y-82561083D01*
X183070547Y-82561082D01*
X182896112Y-82467844D01*
X182801475Y-82439136D01*
X182706836Y-82410428D01*
X182510000Y-82391042D01*
X182313163Y-82410428D01*
X182123885Y-82467845D01*
X181949449Y-82561084D01*
X181796558Y-82686558D01*
X181671084Y-82839449D01*
X181577845Y-83013885D01*
X181520428Y-83203163D01*
X181501042Y-83400000D01*
X171509361Y-83400000D01*
X174049361Y-80860000D01*
X181501042Y-80860000D01*
X181520428Y-81056836D01*
X181577845Y-81246114D01*
X181671084Y-81420550D01*
X181796558Y-81573441D01*
X181917277Y-81672512D01*
X181949453Y-81698918D01*
X182123888Y-81792156D01*
X182313162Y-81849571D01*
X182510000Y-81868958D01*
X182706838Y-81849571D01*
X182896112Y-81792156D01*
X183070547Y-81698918D01*
X183223441Y-81573441D01*
X183348918Y-81420547D01*
X183442156Y-81246112D01*
X183499571Y-81056838D01*
X183518958Y-80860000D01*
X183499571Y-80663162D01*
X183442156Y-80473888D01*
X183348918Y-80299453D01*
X183340639Y-80289365D01*
X183223441Y-80146558D01*
X183070550Y-80021084D01*
X183070548Y-80021083D01*
X183070547Y-80021082D01*
X182896112Y-79927844D01*
X182801475Y-79899136D01*
X182706836Y-79870428D01*
X182510000Y-79851042D01*
X182313163Y-79870428D01*
X182123885Y-79927845D01*
X181949449Y-80021084D01*
X181796558Y-80146558D01*
X181671084Y-80299449D01*
X181577845Y-80473885D01*
X181520428Y-80663163D01*
X181501042Y-80860000D01*
X174049361Y-80860000D01*
X176589361Y-78320000D01*
X181501042Y-78320000D01*
X181520428Y-78516836D01*
X181520429Y-78516838D01*
X181577394Y-78704630D01*
X181577845Y-78706114D01*
X181671084Y-78880550D01*
X181796558Y-79033441D01*
X181899710Y-79118095D01*
X181949453Y-79158918D01*
X182123888Y-79252156D01*
X182313162Y-79309571D01*
X182510000Y-79328958D01*
X182706838Y-79309571D01*
X182896112Y-79252156D01*
X183070547Y-79158918D01*
X183223441Y-79033441D01*
X183348918Y-78880547D01*
X183442156Y-78706112D01*
X183499571Y-78516838D01*
X183518958Y-78320000D01*
X183499571Y-78123162D01*
X183442156Y-77933888D01*
X183348918Y-77759453D01*
X183324264Y-77729412D01*
X183223441Y-77606558D01*
X183070550Y-77481084D01*
X183070548Y-77481083D01*
X183070547Y-77481082D01*
X182896112Y-77387844D01*
X182801475Y-77359136D01*
X182706836Y-77330428D01*
X182510000Y-77311042D01*
X182313163Y-77330428D01*
X182123885Y-77387845D01*
X181949449Y-77481084D01*
X181796558Y-77606558D01*
X181671084Y-77759449D01*
X181577845Y-77933885D01*
X181520428Y-78123163D01*
X181501042Y-78320000D01*
X176589361Y-78320000D01*
X181192542Y-73716819D01*
X181253865Y-73683334D01*
X181280223Y-73680500D01*
X181532593Y-73680500D01*
X181599632Y-73700185D01*
X181641949Y-73746044D01*
X181671082Y-73800547D01*
X181671084Y-73800550D01*
X181796558Y-73953441D01*
X181949449Y-74078915D01*
X181949453Y-74078918D01*
X182123888Y-74172156D01*
X182313162Y-74229571D01*
X182510000Y-74248958D01*
X182706838Y-74229571D01*
X182896112Y-74172156D01*
X183070547Y-74078918D01*
X183223441Y-73953441D01*
X183348918Y-73800547D01*
X183442156Y-73626112D01*
X183499571Y-73436838D01*
X183518958Y-73240000D01*
X183499571Y-73043162D01*
X183442156Y-72853888D01*
X183348918Y-72679453D01*
X183348915Y-72679449D01*
X183223441Y-72526558D01*
X183070550Y-72401084D01*
X183070548Y-72401083D01*
X183070547Y-72401082D01*
X182896112Y-72307844D01*
X182801475Y-72279136D01*
X182706836Y-72250428D01*
X182510000Y-72231042D01*
X182313163Y-72250428D01*
X182123885Y-72307845D01*
X181949449Y-72401084D01*
X181796558Y-72526558D01*
X181671084Y-72679449D01*
X181671082Y-72679453D01*
X181641949Y-72733955D01*
X181592989Y-72783798D01*
X181532593Y-72799500D01*
X180988407Y-72799500D01*
X180876371Y-72829519D01*
X180817256Y-72863650D01*
X180787698Y-72880716D01*
X180775930Y-72887510D01*
X180775924Y-72887514D01*
X163626014Y-90037424D01*
X163626012Y-90037427D01*
X163568019Y-90137871D01*
X163538000Y-90249907D01*
X163538000Y-90994976D01*
X163518315Y-91062015D01*
X163501681Y-91082657D01*
X163405717Y-91178621D01*
X163344394Y-91212106D01*
X163274702Y-91207122D01*
X163218769Y-91165250D01*
X163194633Y-91103096D01*
X163179571Y-90950162D01*
X163122156Y-90760888D01*
X163028918Y-90586453D01*
X162992209Y-90541723D01*
X162903441Y-90433558D01*
X162750550Y-90308084D01*
X162750548Y-90308083D01*
X162750547Y-90308082D01*
X162576112Y-90214844D01*
X162464819Y-90181084D01*
X162386836Y-90157428D01*
X162190000Y-90138042D01*
X161993163Y-90157428D01*
X161803885Y-90214845D01*
X161629449Y-90308084D01*
X161476558Y-90433558D01*
X161351084Y-90586449D01*
X161257845Y-90760885D01*
X161200428Y-90950163D01*
X161181042Y-91147000D01*
X161200428Y-91343836D01*
X161217110Y-91398828D01*
X161257844Y-91533112D01*
X161302204Y-91616104D01*
X161351084Y-91707550D01*
X161443480Y-91820135D01*
X161470793Y-91884445D01*
X161459002Y-91953313D01*
X161411850Y-92004873D01*
X161347627Y-92022800D01*
X160492373Y-92022800D01*
X160425334Y-92003115D01*
X160379579Y-91950311D01*
X160369635Y-91881153D01*
X160396520Y-91820135D01*
X160467667Y-91733441D01*
X160488918Y-91707547D01*
X160582156Y-91533112D01*
X160639571Y-91343838D01*
X160658958Y-91147000D01*
X160639571Y-90950162D01*
X160582156Y-90760888D01*
X160488918Y-90586453D01*
X160452209Y-90541723D01*
X160363441Y-90433558D01*
X160210550Y-90308084D01*
X160210548Y-90308083D01*
X160210547Y-90308082D01*
X160036112Y-90214844D01*
X159924819Y-90181084D01*
X159846836Y-90157428D01*
X159650000Y-90138042D01*
X159453163Y-90157428D01*
X159263885Y-90214845D01*
X159089449Y-90308084D01*
X158936558Y-90433558D01*
X158811084Y-90586449D01*
X158717845Y-90760885D01*
X158660428Y-90950163D01*
X158641042Y-91147000D01*
X158660428Y-91343836D01*
X158677110Y-91398828D01*
X158717844Y-91533112D01*
X158762204Y-91616104D01*
X158811084Y-91707550D01*
X158936558Y-91860441D01*
X159089449Y-91985915D01*
X159089453Y-91985918D01*
X159263888Y-92079156D01*
X159443402Y-92133610D01*
X159501839Y-92171906D01*
X159530295Y-92235719D01*
X159519735Y-92304786D01*
X159495086Y-92339951D01*
X137954981Y-113880057D01*
X137893658Y-113913542D01*
X137823966Y-113908558D01*
X137768033Y-113866686D01*
X137743616Y-113801222D01*
X137743300Y-113792376D01*
X137743300Y-106798222D01*
X137762985Y-106731183D01*
X137779614Y-106710546D01*
X155896122Y-88594037D01*
X155957443Y-88560554D01*
X156027135Y-88565538D01*
X156083068Y-88607410D01*
X156107204Y-88669566D01*
X156120428Y-88803836D01*
X156177845Y-88993114D01*
X156271084Y-89167550D01*
X156396558Y-89320441D01*
X156549449Y-89445915D01*
X156549453Y-89445918D01*
X156723888Y-89539156D01*
X156913162Y-89596571D01*
X157110000Y-89615958D01*
X157306838Y-89596571D01*
X157496112Y-89539156D01*
X157670547Y-89445918D01*
X157823441Y-89320441D01*
X157948918Y-89167547D01*
X158042156Y-88993112D01*
X158099571Y-88803838D01*
X158118958Y-88607000D01*
X158641042Y-88607000D01*
X158660428Y-88803836D01*
X158717845Y-88993114D01*
X158811084Y-89167550D01*
X158936558Y-89320441D01*
X159089449Y-89445915D01*
X159089453Y-89445918D01*
X159263888Y-89539156D01*
X159453162Y-89596571D01*
X159650000Y-89615958D01*
X159846838Y-89596571D01*
X160036112Y-89539156D01*
X160210547Y-89445918D01*
X160363441Y-89320441D01*
X160488918Y-89167547D01*
X160582156Y-88993112D01*
X160639571Y-88803838D01*
X160658958Y-88607000D01*
X161181042Y-88607000D01*
X161200428Y-88803836D01*
X161257845Y-88993114D01*
X161351084Y-89167550D01*
X161476558Y-89320441D01*
X161629449Y-89445915D01*
X161629453Y-89445918D01*
X161803888Y-89539156D01*
X161993162Y-89596571D01*
X162190000Y-89615958D01*
X162386838Y-89596571D01*
X162576112Y-89539156D01*
X162750547Y-89445918D01*
X162903441Y-89320441D01*
X163028918Y-89167547D01*
X163122156Y-88993112D01*
X163179571Y-88803838D01*
X163198958Y-88607000D01*
X163179571Y-88410162D01*
X163122156Y-88220888D01*
X163028918Y-88046453D01*
X162924692Y-87919453D01*
X162903441Y-87893558D01*
X162750550Y-87768084D01*
X162750548Y-87768083D01*
X162750547Y-87768082D01*
X162576112Y-87674844D01*
X162464819Y-87641084D01*
X162386836Y-87617428D01*
X162190000Y-87598042D01*
X161993163Y-87617428D01*
X161803885Y-87674845D01*
X161629449Y-87768084D01*
X161476558Y-87893558D01*
X161351084Y-88046449D01*
X161257845Y-88220885D01*
X161200428Y-88410163D01*
X161181042Y-88607000D01*
X160658958Y-88607000D01*
X160639571Y-88410162D01*
X160582156Y-88220888D01*
X160488918Y-88046453D01*
X160384692Y-87919453D01*
X160363441Y-87893558D01*
X160210550Y-87768084D01*
X160210548Y-87768083D01*
X160210547Y-87768082D01*
X160036112Y-87674844D01*
X159924819Y-87641084D01*
X159846836Y-87617428D01*
X159650000Y-87598042D01*
X159453163Y-87617428D01*
X159263885Y-87674845D01*
X159089449Y-87768084D01*
X158936558Y-87893558D01*
X158811084Y-88046449D01*
X158717845Y-88220885D01*
X158660428Y-88410163D01*
X158641042Y-88607000D01*
X158118958Y-88607000D01*
X158099571Y-88410162D01*
X158042156Y-88220888D01*
X157948918Y-88046453D01*
X157844692Y-87919453D01*
X157823441Y-87893558D01*
X157670550Y-87768084D01*
X157670548Y-87768083D01*
X157670547Y-87768082D01*
X157496112Y-87674844D01*
X157384819Y-87641084D01*
X157306836Y-87617428D01*
X157172566Y-87604204D01*
X157107778Y-87578043D01*
X157067420Y-87521008D01*
X157064303Y-87451208D01*
X157097037Y-87393122D01*
X159174142Y-85316019D01*
X159235465Y-85282534D01*
X159261823Y-85279700D01*
X166965191Y-85279700D01*
X166965193Y-85279700D01*
X167077227Y-85249681D01*
X167177673Y-85191688D01*
X181192542Y-71176819D01*
X181253865Y-71143334D01*
X181280223Y-71140500D01*
X181532593Y-71140500D01*
X181599632Y-71160185D01*
X181641949Y-71206044D01*
X181671082Y-71260547D01*
X181671084Y-71260550D01*
X181796558Y-71413441D01*
X181949449Y-71538915D01*
X181949453Y-71538918D01*
X182123888Y-71632156D01*
X182313162Y-71689571D01*
X182510000Y-71708958D01*
X182706838Y-71689571D01*
X182896112Y-71632156D01*
X183070547Y-71538918D01*
X183223441Y-71413441D01*
X183348918Y-71260547D01*
X183442156Y-71086112D01*
X183499571Y-70896838D01*
X183518958Y-70700000D01*
X183499571Y-70503162D01*
X183442156Y-70313888D01*
X183348918Y-70139453D01*
X183348915Y-70139449D01*
X183223441Y-69986558D01*
X183070550Y-69861084D01*
X183070548Y-69861083D01*
X183070547Y-69861082D01*
X182896112Y-69767844D01*
X182801475Y-69739136D01*
X182706836Y-69710428D01*
X182510000Y-69691042D01*
X182313163Y-69710428D01*
X182123885Y-69767845D01*
X181949449Y-69861084D01*
X181796558Y-69986558D01*
X181671084Y-70139449D01*
X181671082Y-70139453D01*
X181641949Y-70193955D01*
X181592989Y-70243798D01*
X181532593Y-70259500D01*
X180988406Y-70259500D01*
X180876372Y-70289519D01*
X180775927Y-70347512D01*
X180775924Y-70347514D01*
X166761058Y-84362381D01*
X166699735Y-84395866D01*
X166673377Y-84398700D01*
X159003622Y-84398700D01*
X158936583Y-84379015D01*
X158890828Y-84326211D01*
X158880884Y-84257053D01*
X158909909Y-84193497D01*
X158915940Y-84187020D01*
X158953189Y-84149770D01*
X159014509Y-84116286D01*
X159066646Y-84116162D01*
X159181149Y-84140500D01*
X159181150Y-84140500D01*
X159378849Y-84140500D01*
X159378851Y-84140500D01*
X159572232Y-84099396D01*
X159752841Y-84018984D01*
X159912784Y-83902778D01*
X160045072Y-83755857D01*
X160143923Y-83584643D01*
X160205016Y-83396618D01*
X160225681Y-83200000D01*
X160205016Y-83003382D01*
X160146825Y-82824288D01*
X160143925Y-82815362D01*
X160143922Y-82815356D01*
X160045072Y-82644143D01*
X159912784Y-82497222D01*
X159752841Y-82381016D01*
X159572232Y-82300604D01*
X159572230Y-82300603D01*
X159419292Y-82268096D01*
X159378851Y-82259500D01*
X159181149Y-82259500D01*
X159147251Y-82266705D01*
X158987768Y-82300603D01*
X158987762Y-82300605D01*
X158807160Y-82381016D01*
X158807155Y-82381018D01*
X158647217Y-82497220D01*
X158647210Y-82497226D01*
X158514927Y-82644144D01*
X158416077Y-82815356D01*
X158416074Y-82815362D01*
X158356083Y-83000000D01*
X158354984Y-83003382D01*
X158334319Y-83200000D01*
X158349427Y-83343748D01*
X158354985Y-83396624D01*
X158357360Y-83403933D01*
X158359353Y-83473774D01*
X158327109Y-83529928D01*
X158171956Y-83685082D01*
X158110636Y-83718566D01*
X158084277Y-83721400D01*
X155839962Y-83721400D01*
X155772923Y-83701715D01*
X155727168Y-83648911D01*
X155717224Y-83579753D01*
X155746249Y-83516197D01*
X155747812Y-83514428D01*
X155763725Y-83496755D01*
X155852065Y-83343745D01*
X155906662Y-83175712D01*
X155925130Y-83000000D01*
X155906662Y-82824288D01*
X155852065Y-82656255D01*
X155852064Y-82656254D01*
X155852064Y-82656252D01*
X155852063Y-82656251D01*
X155763727Y-82503249D01*
X155763725Y-82503245D01*
X155645502Y-82371946D01*
X155502565Y-82268096D01*
X155502564Y-82268095D01*
X155341164Y-82196235D01*
X155341159Y-82196233D01*
X155205073Y-82167307D01*
X155168340Y-82159500D01*
X154991660Y-82159500D01*
X154961366Y-82165939D01*
X154818840Y-82196233D01*
X154818835Y-82196235D01*
X154657435Y-82268095D01*
X154514496Y-82371947D01*
X154436649Y-82458405D01*
X154377163Y-82495053D01*
X154307306Y-82493722D01*
X154249258Y-82454835D01*
X154221448Y-82390738D01*
X154220500Y-82375432D01*
X154220500Y-81967009D01*
X154220500Y-81967007D01*
X154190481Y-81854973D01*
X154132488Y-81754527D01*
X154050473Y-81672512D01*
X152227961Y-79850000D01*
X154234870Y-79850000D01*
X154253338Y-80025713D01*
X154253339Y-80025715D01*
X154307935Y-80193747D01*
X154307936Y-80193748D01*
X154363141Y-80289365D01*
X154396275Y-80346755D01*
X154514498Y-80478054D01*
X154657435Y-80581904D01*
X154818835Y-80653764D01*
X154818840Y-80653766D01*
X154991660Y-80690500D01*
X154991661Y-80690500D01*
X155168338Y-80690500D01*
X155168340Y-80690500D01*
X155341160Y-80653766D01*
X155502565Y-80581904D01*
X155645502Y-80478054D01*
X155763725Y-80346755D01*
X155852065Y-80193745D01*
X155906662Y-80025712D01*
X155925130Y-79850000D01*
X155906662Y-79674288D01*
X155852065Y-79506255D01*
X155852064Y-79506254D01*
X155852064Y-79506252D01*
X155852063Y-79506251D01*
X155763727Y-79353249D01*
X155763725Y-79353245D01*
X155645502Y-79221946D01*
X155502565Y-79118096D01*
X155502564Y-79118095D01*
X155341164Y-79046235D01*
X155341159Y-79046233D01*
X155202143Y-79016685D01*
X155168340Y-79009500D01*
X154991660Y-79009500D01*
X154961366Y-79015939D01*
X154818840Y-79046233D01*
X154818835Y-79046235D01*
X154657435Y-79118095D01*
X154514499Y-79221945D01*
X154514498Y-79221946D01*
X154396275Y-79353245D01*
X154396273Y-79353246D01*
X154396272Y-79353249D01*
X154307936Y-79506251D01*
X154307935Y-79506252D01*
X154253339Y-79674284D01*
X154253338Y-79674286D01*
X154234870Y-79850000D01*
X152227961Y-79850000D01*
X147805473Y-75427512D01*
X147747230Y-75393885D01*
X147705028Y-75369519D01*
X147649010Y-75354509D01*
X147592993Y-75339500D01*
X147592992Y-75339500D01*
X135227407Y-75339500D01*
X135160368Y-75319815D01*
X135118050Y-75273955D01*
X135088918Y-75219453D01*
X135088915Y-75219449D01*
X134963441Y-75066558D01*
X134810550Y-74941084D01*
X134810548Y-74941083D01*
X134810547Y-74941082D01*
X134636112Y-74847844D01*
X134541475Y-74819136D01*
X134446836Y-74790428D01*
X134250000Y-74771042D01*
X134053163Y-74790428D01*
X133863885Y-74847845D01*
X133689449Y-74941084D01*
X133536558Y-75066558D01*
X133411084Y-75219449D01*
X133317845Y-75393885D01*
X133260428Y-75583163D01*
X133241042Y-75780000D01*
X133260428Y-75976836D01*
X133260429Y-75976838D01*
X133317844Y-76166112D01*
X133381950Y-76286046D01*
X133411084Y-76340550D01*
X133536558Y-76493441D01*
X133689449Y-76618915D01*
X133689453Y-76618918D01*
X133863888Y-76712156D01*
X134053162Y-76769571D01*
X134250000Y-76788958D01*
X134446838Y-76769571D01*
X134636112Y-76712156D01*
X134810547Y-76618918D01*
X134963441Y-76493441D01*
X135088918Y-76340547D01*
X135118050Y-76286044D01*
X135167011Y-76236202D01*
X135227407Y-76220500D01*
X147301177Y-76220500D01*
X147368216Y-76240185D01*
X147388858Y-76256819D01*
X149939753Y-78807714D01*
X149973238Y-78869037D01*
X149968254Y-78938729D01*
X149926382Y-78994662D01*
X149877854Y-79016685D01*
X149738839Y-79046234D01*
X149738835Y-79046235D01*
X149577435Y-79118095D01*
X149434499Y-79221945D01*
X149434498Y-79221946D01*
X149316275Y-79353245D01*
X149316273Y-79353246D01*
X149316272Y-79353249D01*
X149227936Y-79506251D01*
X149227935Y-79506252D01*
X149173339Y-79674284D01*
X149173338Y-79674286D01*
X149154870Y-79850000D01*
X149173338Y-80025713D01*
X149173339Y-80025715D01*
X149227935Y-80193747D01*
X149227936Y-80193748D01*
X149283141Y-80289365D01*
X149316275Y-80346755D01*
X149434498Y-80478054D01*
X149577435Y-80581904D01*
X149577438Y-80581906D01*
X149710570Y-80641179D01*
X149747817Y-80666778D01*
X153595427Y-84514388D01*
X153695873Y-84572381D01*
X153807906Y-84602400D01*
X153807907Y-84602400D01*
X153807908Y-84602400D01*
X158342477Y-84602400D01*
X158409516Y-84622085D01*
X158455271Y-84674889D01*
X158465215Y-84744047D01*
X158436190Y-84807603D01*
X158430158Y-84814081D01*
X136950314Y-106293924D01*
X136950312Y-106293927D01*
X136892319Y-106394371D01*
X136862300Y-106506407D01*
X136862300Y-128038771D01*
X136842615Y-128105810D01*
X136789811Y-128151565D01*
X136720653Y-128161509D01*
X136657097Y-128132484D01*
X136619323Y-128073706D01*
X136618525Y-128070864D01*
X136596180Y-127987471D01*
X136588410Y-127974013D01*
X136538188Y-127887027D01*
X136456173Y-127805012D01*
X132415819Y-123764658D01*
X132382334Y-123703335D01*
X132379500Y-123676977D01*
X132379500Y-122423973D01*
X132399185Y-122356934D01*
X132451989Y-122311179D01*
X132521147Y-122301235D01*
X132584703Y-122330260D01*
X132610886Y-122361971D01*
X132708064Y-122530289D01*
X132708066Y-122530292D01*
X132708067Y-122530293D01*
X132855733Y-122722736D01*
X132855739Y-122722743D01*
X133027256Y-122894260D01*
X133027262Y-122894265D01*
X133219711Y-123041936D01*
X133429788Y-123163224D01*
X133653900Y-123256054D01*
X133888211Y-123318838D01*
X134068586Y-123342584D01*
X134128711Y-123350500D01*
X134128712Y-123350500D01*
X134371289Y-123350500D01*
X134419388Y-123344167D01*
X134611789Y-123318838D01*
X134846100Y-123256054D01*
X135070212Y-123163224D01*
X135280289Y-123041936D01*
X135472738Y-122894265D01*
X135644265Y-122722738D01*
X135791936Y-122530289D01*
X135913224Y-122320212D01*
X136006054Y-122096100D01*
X136068838Y-121861789D01*
X136100500Y-121621288D01*
X136100500Y-121378712D01*
X136068838Y-121138211D01*
X136006054Y-120903900D01*
X135913224Y-120679788D01*
X135791936Y-120469711D01*
X135644265Y-120277262D01*
X135644260Y-120277256D01*
X135472743Y-120105739D01*
X135472736Y-120105733D01*
X135280293Y-119958067D01*
X135280292Y-119958066D01*
X135280289Y-119958064D01*
X135070212Y-119836776D01*
X135006967Y-119810579D01*
X134846104Y-119743947D01*
X134611785Y-119681161D01*
X134371289Y-119649500D01*
X134371288Y-119649500D01*
X134128712Y-119649500D01*
X134128711Y-119649500D01*
X133888214Y-119681161D01*
X133653895Y-119743947D01*
X133429794Y-119836773D01*
X133429785Y-119836777D01*
X133219706Y-119958067D01*
X133027263Y-120105733D01*
X133027256Y-120105739D01*
X132855739Y-120277256D01*
X132855733Y-120277263D01*
X132708067Y-120469706D01*
X132610887Y-120638026D01*
X132560320Y-120686242D01*
X132491713Y-120699464D01*
X132426848Y-120673496D01*
X132386320Y-120616582D01*
X132379500Y-120576026D01*
X132379500Y-116420000D01*
X133241042Y-116420000D01*
X133260428Y-116616836D01*
X133260429Y-116616838D01*
X133317844Y-116806112D01*
X133404823Y-116968838D01*
X133411084Y-116980550D01*
X133536558Y-117133441D01*
X133649253Y-117225927D01*
X133689453Y-117258918D01*
X133863888Y-117352156D01*
X134053162Y-117409571D01*
X134250000Y-117428958D01*
X134446838Y-117409571D01*
X134636112Y-117352156D01*
X134810547Y-117258918D01*
X134963441Y-117133441D01*
X135088918Y-116980547D01*
X135182156Y-116806112D01*
X135239571Y-116616838D01*
X135258958Y-116420000D01*
X135239571Y-116223162D01*
X135182156Y-116033888D01*
X135088918Y-115859453D01*
X134995895Y-115746104D01*
X134963441Y-115706558D01*
X134810550Y-115581084D01*
X134810548Y-115581083D01*
X134810547Y-115581082D01*
X134636112Y-115487844D01*
X134541475Y-115459136D01*
X134446836Y-115430428D01*
X134250000Y-115411042D01*
X134053163Y-115430428D01*
X133863885Y-115487845D01*
X133689449Y-115581084D01*
X133536558Y-115706558D01*
X133411084Y-115859449D01*
X133317845Y-116033885D01*
X133260428Y-116223163D01*
X133241042Y-116420000D01*
X132379500Y-116420000D01*
X132379500Y-113880000D01*
X133241042Y-113880000D01*
X133260428Y-114076836D01*
X133317845Y-114266114D01*
X133411084Y-114440550D01*
X133536558Y-114593441D01*
X133689449Y-114718915D01*
X133689453Y-114718918D01*
X133863888Y-114812156D01*
X134053162Y-114869571D01*
X134250000Y-114888958D01*
X134446838Y-114869571D01*
X134636112Y-114812156D01*
X134810547Y-114718918D01*
X134963441Y-114593441D01*
X135088918Y-114440547D01*
X135182156Y-114266112D01*
X135239571Y-114076838D01*
X135258958Y-113880000D01*
X135239571Y-113683162D01*
X135182156Y-113493888D01*
X135088918Y-113319453D01*
X135072543Y-113299500D01*
X134963441Y-113166558D01*
X134810550Y-113041084D01*
X134810548Y-113041083D01*
X134810547Y-113041082D01*
X134636112Y-112947844D01*
X134541475Y-112919136D01*
X134446836Y-112890428D01*
X134250000Y-112871042D01*
X134053163Y-112890428D01*
X133863885Y-112947845D01*
X133689449Y-113041084D01*
X133536558Y-113166558D01*
X133411084Y-113319449D01*
X133317845Y-113493885D01*
X133260428Y-113683163D01*
X133241042Y-113880000D01*
X132379500Y-113880000D01*
X132379500Y-111340000D01*
X133241042Y-111340000D01*
X133260428Y-111536836D01*
X133317845Y-111726114D01*
X133411084Y-111900550D01*
X133536558Y-112053441D01*
X133689449Y-112178915D01*
X133689453Y-112178918D01*
X133863888Y-112272156D01*
X134053162Y-112329571D01*
X134250000Y-112348958D01*
X134446838Y-112329571D01*
X134636112Y-112272156D01*
X134810547Y-112178918D01*
X134963441Y-112053441D01*
X135088918Y-111900547D01*
X135182156Y-111726112D01*
X135239571Y-111536838D01*
X135258958Y-111340000D01*
X135239571Y-111143162D01*
X135182156Y-110953888D01*
X135088918Y-110779453D01*
X135088915Y-110779449D01*
X134963441Y-110626558D01*
X134810550Y-110501084D01*
X134810548Y-110501083D01*
X134810547Y-110501082D01*
X134636112Y-110407844D01*
X134541475Y-110379136D01*
X134446836Y-110350428D01*
X134250000Y-110331042D01*
X134053163Y-110350428D01*
X133863885Y-110407845D01*
X133689449Y-110501084D01*
X133536558Y-110626558D01*
X133411084Y-110779449D01*
X133317845Y-110953885D01*
X133260428Y-111143163D01*
X133241042Y-111340000D01*
X132379500Y-111340000D01*
X132379500Y-108800000D01*
X133241042Y-108800000D01*
X133260428Y-108996836D01*
X133317845Y-109186114D01*
X133411084Y-109360550D01*
X133536558Y-109513441D01*
X133689449Y-109638915D01*
X133689453Y-109638918D01*
X133863888Y-109732156D01*
X134053162Y-109789571D01*
X134250000Y-109808958D01*
X134446838Y-109789571D01*
X134636112Y-109732156D01*
X134810547Y-109638918D01*
X134963441Y-109513441D01*
X135088918Y-109360547D01*
X135182156Y-109186112D01*
X135239571Y-108996838D01*
X135258958Y-108800000D01*
X135239571Y-108603162D01*
X135182156Y-108413888D01*
X135088918Y-108239453D01*
X135088915Y-108239449D01*
X134963441Y-108086558D01*
X134810550Y-107961084D01*
X134810548Y-107961083D01*
X134810547Y-107961082D01*
X134636112Y-107867844D01*
X134541475Y-107839136D01*
X134446836Y-107810428D01*
X134250000Y-107791042D01*
X134053163Y-107810428D01*
X133863885Y-107867845D01*
X133689449Y-107961084D01*
X133536558Y-108086558D01*
X133411084Y-108239449D01*
X133317845Y-108413885D01*
X133260428Y-108603163D01*
X133241042Y-108800000D01*
X132379500Y-108800000D01*
X132379500Y-106260000D01*
X133241042Y-106260000D01*
X133260428Y-106456836D01*
X133317845Y-106646114D01*
X133411084Y-106820550D01*
X133536558Y-106973441D01*
X133689449Y-107098915D01*
X133689453Y-107098918D01*
X133863888Y-107192156D01*
X134053162Y-107249571D01*
X134250000Y-107268958D01*
X134446838Y-107249571D01*
X134636112Y-107192156D01*
X134810547Y-107098918D01*
X134963441Y-106973441D01*
X135088918Y-106820547D01*
X135182156Y-106646112D01*
X135239571Y-106456838D01*
X135258958Y-106260000D01*
X135239571Y-106063162D01*
X135182156Y-105873888D01*
X135088918Y-105699453D01*
X135088915Y-105699449D01*
X134963441Y-105546558D01*
X134810550Y-105421084D01*
X134810548Y-105421083D01*
X134810547Y-105421082D01*
X134636112Y-105327844D01*
X134541475Y-105299136D01*
X134446836Y-105270428D01*
X134250000Y-105251042D01*
X134053163Y-105270428D01*
X133863885Y-105327845D01*
X133689449Y-105421084D01*
X133536558Y-105546558D01*
X133411084Y-105699449D01*
X133317845Y-105873885D01*
X133260428Y-106063163D01*
X133241042Y-106260000D01*
X132379500Y-106260000D01*
X132379500Y-103720000D01*
X133241042Y-103720000D01*
X133260428Y-103916836D01*
X133260429Y-103916838D01*
X133317844Y-104106112D01*
X133409089Y-104276819D01*
X133411084Y-104280550D01*
X133536558Y-104433441D01*
X133689449Y-104558915D01*
X133689453Y-104558918D01*
X133863888Y-104652156D01*
X134053162Y-104709571D01*
X134250000Y-104728958D01*
X134446838Y-104709571D01*
X134636112Y-104652156D01*
X134810547Y-104558918D01*
X134963441Y-104433441D01*
X135088918Y-104280547D01*
X135182156Y-104106112D01*
X135239571Y-103916838D01*
X135258958Y-103720000D01*
X135239571Y-103523162D01*
X135182156Y-103333888D01*
X135088918Y-103159453D01*
X135037025Y-103096221D01*
X134963441Y-103006558D01*
X134810550Y-102881084D01*
X134810548Y-102881083D01*
X134810547Y-102881082D01*
X134636112Y-102787844D01*
X134541475Y-102759136D01*
X134446836Y-102730428D01*
X134250000Y-102711042D01*
X134053163Y-102730428D01*
X133863885Y-102787845D01*
X133689449Y-102881084D01*
X133536558Y-103006558D01*
X133411084Y-103159449D01*
X133317845Y-103333885D01*
X133260428Y-103523163D01*
X133241042Y-103720000D01*
X132379500Y-103720000D01*
X132379500Y-101180000D01*
X133241042Y-101180000D01*
X133260428Y-101376836D01*
X133317845Y-101566114D01*
X133411084Y-101740550D01*
X133536558Y-101893441D01*
X133689449Y-102018915D01*
X133689453Y-102018918D01*
X133863888Y-102112156D01*
X134053162Y-102169571D01*
X134250000Y-102188958D01*
X134446838Y-102169571D01*
X134636112Y-102112156D01*
X134810547Y-102018918D01*
X134963441Y-101893441D01*
X135088918Y-101740547D01*
X135182156Y-101566112D01*
X135239571Y-101376838D01*
X135258958Y-101180000D01*
X135239571Y-100983162D01*
X135182156Y-100793888D01*
X135088918Y-100619453D01*
X135088915Y-100619449D01*
X134963441Y-100466558D01*
X134810550Y-100341084D01*
X134810548Y-100341083D01*
X134810547Y-100341082D01*
X134636112Y-100247844D01*
X134541475Y-100219136D01*
X134446836Y-100190428D01*
X134250000Y-100171042D01*
X134053163Y-100190428D01*
X133863885Y-100247845D01*
X133689449Y-100341084D01*
X133536558Y-100466558D01*
X133411084Y-100619449D01*
X133317845Y-100793885D01*
X133260428Y-100983163D01*
X133241042Y-101180000D01*
X132379500Y-101180000D01*
X132379500Y-98640000D01*
X133241042Y-98640000D01*
X133260428Y-98836836D01*
X133317845Y-99026114D01*
X133411084Y-99200550D01*
X133536558Y-99353441D01*
X133689449Y-99478915D01*
X133689453Y-99478918D01*
X133863888Y-99572156D01*
X134053162Y-99629571D01*
X134250000Y-99648958D01*
X134446838Y-99629571D01*
X134636112Y-99572156D01*
X134810547Y-99478918D01*
X134963441Y-99353441D01*
X135088918Y-99200547D01*
X135182156Y-99026112D01*
X135239571Y-98836838D01*
X135258958Y-98640000D01*
X135239571Y-98443162D01*
X135182156Y-98253888D01*
X135088918Y-98079453D01*
X135088915Y-98079449D01*
X134963441Y-97926558D01*
X134810550Y-97801084D01*
X134810548Y-97801083D01*
X134810547Y-97801082D01*
X134636112Y-97707844D01*
X134541475Y-97679136D01*
X134446836Y-97650428D01*
X134250000Y-97631042D01*
X134053163Y-97650428D01*
X133863885Y-97707845D01*
X133689449Y-97801084D01*
X133536558Y-97926558D01*
X133411084Y-98079449D01*
X133317845Y-98253885D01*
X133260428Y-98443163D01*
X133241042Y-98640000D01*
X132379500Y-98640000D01*
X132379500Y-93560000D01*
X133241042Y-93560000D01*
X133260428Y-93756836D01*
X133317845Y-93946114D01*
X133411084Y-94120550D01*
X133536558Y-94273441D01*
X133689449Y-94398915D01*
X133689453Y-94398918D01*
X133863888Y-94492156D01*
X134053162Y-94549571D01*
X134250000Y-94568958D01*
X134446838Y-94549571D01*
X134636112Y-94492156D01*
X134810547Y-94398918D01*
X134963441Y-94273441D01*
X135088918Y-94120547D01*
X135182156Y-93946112D01*
X135239571Y-93756838D01*
X135258958Y-93560000D01*
X135239571Y-93363162D01*
X135182156Y-93173888D01*
X135088918Y-92999453D01*
X135040224Y-92940119D01*
X134963441Y-92846558D01*
X134810550Y-92721084D01*
X134810548Y-92721083D01*
X134810547Y-92721082D01*
X134636112Y-92627844D01*
X134541475Y-92599136D01*
X134446836Y-92570428D01*
X134250000Y-92551042D01*
X134053163Y-92570428D01*
X133863885Y-92627845D01*
X133689449Y-92721084D01*
X133536558Y-92846558D01*
X133411084Y-92999449D01*
X133317845Y-93173885D01*
X133260428Y-93363163D01*
X133241042Y-93560000D01*
X132379500Y-93560000D01*
X132379500Y-91020000D01*
X133241042Y-91020000D01*
X133260428Y-91216836D01*
X133260429Y-91216838D01*
X133317844Y-91406112D01*
X133385728Y-91533114D01*
X133411084Y-91580550D01*
X133536558Y-91733441D01*
X133666662Y-91840214D01*
X133689453Y-91858918D01*
X133863888Y-91952156D01*
X134053162Y-92009571D01*
X134250000Y-92028958D01*
X134446838Y-92009571D01*
X134636112Y-91952156D01*
X134810547Y-91858918D01*
X134963441Y-91733441D01*
X135088918Y-91580547D01*
X135182156Y-91406112D01*
X135239571Y-91216838D01*
X135258958Y-91020000D01*
X135247012Y-90898711D01*
X137479500Y-90898711D01*
X137479500Y-91141288D01*
X137511161Y-91381785D01*
X137573947Y-91616104D01*
X137622550Y-91733441D01*
X137666776Y-91840212D01*
X137788064Y-92050289D01*
X137788066Y-92050292D01*
X137788067Y-92050293D01*
X137935733Y-92242736D01*
X137935739Y-92242743D01*
X138107256Y-92414260D01*
X138107262Y-92414265D01*
X138299711Y-92561936D01*
X138509788Y-92683224D01*
X138733900Y-92776054D01*
X138968211Y-92838838D01*
X139148586Y-92862584D01*
X139208711Y-92870500D01*
X139208712Y-92870500D01*
X139451289Y-92870500D01*
X139499388Y-92864167D01*
X139691789Y-92838838D01*
X139926100Y-92776054D01*
X140150212Y-92683224D01*
X140360289Y-92561936D01*
X140552738Y-92414265D01*
X140724265Y-92242738D01*
X140871936Y-92050289D01*
X140993224Y-91840212D01*
X141086054Y-91616100D01*
X141148838Y-91381789D01*
X141180500Y-91141288D01*
X141180500Y-90898712D01*
X141148838Y-90658211D01*
X141086054Y-90423900D01*
X140993224Y-90199788D01*
X140871936Y-89989711D01*
X140724265Y-89797262D01*
X140724260Y-89797256D01*
X140552743Y-89625739D01*
X140552736Y-89625733D01*
X140360293Y-89478067D01*
X140360292Y-89478066D01*
X140360289Y-89478064D01*
X140150212Y-89356776D01*
X140150205Y-89356773D01*
X139926104Y-89263947D01*
X139691785Y-89201161D01*
X139451289Y-89169500D01*
X139451288Y-89169500D01*
X139208712Y-89169500D01*
X139208711Y-89169500D01*
X138968214Y-89201161D01*
X138733895Y-89263947D01*
X138509794Y-89356773D01*
X138509785Y-89356777D01*
X138299706Y-89478067D01*
X138107263Y-89625733D01*
X138107256Y-89625739D01*
X137935739Y-89797256D01*
X137935733Y-89797263D01*
X137788067Y-89989706D01*
X137666777Y-90199785D01*
X137666773Y-90199794D01*
X137573947Y-90423895D01*
X137511161Y-90658214D01*
X137479500Y-90898711D01*
X135247012Y-90898711D01*
X135239571Y-90823162D01*
X135182156Y-90633888D01*
X135088918Y-90459453D01*
X135088915Y-90459449D01*
X134963441Y-90306558D01*
X134810550Y-90181084D01*
X134810548Y-90181083D01*
X134810547Y-90181082D01*
X134636112Y-90087844D01*
X134541475Y-90059136D01*
X134446836Y-90030428D01*
X134250000Y-90011042D01*
X134053163Y-90030428D01*
X133863885Y-90087845D01*
X133689449Y-90181084D01*
X133536558Y-90306558D01*
X133411084Y-90459449D01*
X133317845Y-90633885D01*
X133260428Y-90823163D01*
X133241042Y-91020000D01*
X132379500Y-91020000D01*
X132379500Y-88480000D01*
X133241042Y-88480000D01*
X133260428Y-88676836D01*
X133260429Y-88676838D01*
X133317844Y-88866112D01*
X133385728Y-88993114D01*
X133411084Y-89040550D01*
X133536558Y-89193441D01*
X133689449Y-89318915D01*
X133689453Y-89318918D01*
X133863888Y-89412156D01*
X134053162Y-89469571D01*
X134250000Y-89488958D01*
X134446838Y-89469571D01*
X134636112Y-89412156D01*
X134810547Y-89318918D01*
X134963441Y-89193441D01*
X135088918Y-89040547D01*
X135182156Y-88866112D01*
X135239571Y-88676838D01*
X135258958Y-88480000D01*
X135239571Y-88283162D01*
X135182156Y-88093888D01*
X135088918Y-87919453D01*
X135088915Y-87919449D01*
X134963441Y-87766558D01*
X134810550Y-87641084D01*
X134810548Y-87641083D01*
X134810547Y-87641082D01*
X134636112Y-87547844D01*
X134541475Y-87519136D01*
X134446836Y-87490428D01*
X134250000Y-87471042D01*
X134053163Y-87490428D01*
X133863885Y-87547845D01*
X133689449Y-87641084D01*
X133536558Y-87766558D01*
X133411084Y-87919449D01*
X133317845Y-88093885D01*
X133260428Y-88283163D01*
X133241042Y-88480000D01*
X132379500Y-88480000D01*
X132379500Y-85940000D01*
X133241042Y-85940000D01*
X133260428Y-86136836D01*
X133317845Y-86326114D01*
X133411084Y-86500550D01*
X133536558Y-86653441D01*
X133689449Y-86778915D01*
X133689453Y-86778918D01*
X133863888Y-86872156D01*
X134053162Y-86929571D01*
X134250000Y-86948958D01*
X134446838Y-86929571D01*
X134636112Y-86872156D01*
X134810547Y-86778918D01*
X134963441Y-86653441D01*
X135088918Y-86500547D01*
X135182156Y-86326112D01*
X135239571Y-86136838D01*
X135258958Y-85940000D01*
X135239571Y-85743162D01*
X135182156Y-85553888D01*
X135088918Y-85379453D01*
X135088915Y-85379449D01*
X134963441Y-85226558D01*
X134810550Y-85101084D01*
X134810548Y-85101083D01*
X134810547Y-85101082D01*
X134636112Y-85007844D01*
X134541475Y-84979136D01*
X134446836Y-84950428D01*
X134250000Y-84931042D01*
X134053163Y-84950428D01*
X133863885Y-85007845D01*
X133689449Y-85101084D01*
X133536558Y-85226558D01*
X133411084Y-85379449D01*
X133317845Y-85553885D01*
X133260428Y-85743163D01*
X133241042Y-85940000D01*
X132379500Y-85940000D01*
X132379500Y-83400000D01*
X133241042Y-83400000D01*
X133260428Y-83596836D01*
X133276225Y-83648911D01*
X133308666Y-83755857D01*
X133317845Y-83786114D01*
X133411084Y-83960550D01*
X133536558Y-84113441D01*
X133569530Y-84140500D01*
X133689453Y-84238918D01*
X133863888Y-84332156D01*
X134053162Y-84389571D01*
X134250000Y-84408958D01*
X134446838Y-84389571D01*
X134636112Y-84332156D01*
X134810547Y-84238918D01*
X134963441Y-84113441D01*
X135088918Y-83960547D01*
X135182156Y-83786112D01*
X135239571Y-83596838D01*
X135258958Y-83400000D01*
X135239571Y-83203162D01*
X135182156Y-83013888D01*
X135174733Y-83000000D01*
X149154870Y-83000000D01*
X149173338Y-83175713D01*
X149173339Y-83175715D01*
X149227935Y-83343747D01*
X149227936Y-83343748D01*
X149295161Y-83460185D01*
X149316275Y-83496755D01*
X149434498Y-83628054D01*
X149559077Y-83718566D01*
X149577435Y-83731904D01*
X149738835Y-83803764D01*
X149738840Y-83803766D01*
X149911660Y-83840500D01*
X149911661Y-83840500D01*
X150088338Y-83840500D01*
X150088340Y-83840500D01*
X150261160Y-83803766D01*
X150422565Y-83731904D01*
X150565502Y-83628054D01*
X150683725Y-83496755D01*
X150772065Y-83343745D01*
X150826662Y-83175712D01*
X150845130Y-83000000D01*
X150826662Y-82824288D01*
X150772065Y-82656255D01*
X150772064Y-82656254D01*
X150772064Y-82656252D01*
X150772063Y-82656251D01*
X150683727Y-82503249D01*
X150683725Y-82503245D01*
X150565502Y-82371946D01*
X150422565Y-82268096D01*
X150422564Y-82268095D01*
X150261164Y-82196235D01*
X150261159Y-82196233D01*
X150125073Y-82167307D01*
X150088340Y-82159500D01*
X149911660Y-82159500D01*
X149881366Y-82165939D01*
X149738840Y-82196233D01*
X149738835Y-82196235D01*
X149577435Y-82268095D01*
X149434499Y-82371945D01*
X149434498Y-82371946D01*
X149316275Y-82503245D01*
X149316273Y-82503246D01*
X149316272Y-82503249D01*
X149227936Y-82656251D01*
X149227935Y-82656252D01*
X149173339Y-82824284D01*
X149173338Y-82824286D01*
X149154870Y-83000000D01*
X135174733Y-83000000D01*
X135088918Y-82839453D01*
X135088915Y-82839449D01*
X134963441Y-82686558D01*
X134810550Y-82561084D01*
X134810548Y-82561083D01*
X134810547Y-82561082D01*
X134636112Y-82467844D01*
X134541475Y-82439136D01*
X134446836Y-82410428D01*
X134250000Y-82391042D01*
X134053163Y-82410428D01*
X133863885Y-82467845D01*
X133689449Y-82561084D01*
X133536558Y-82686558D01*
X133411084Y-82839449D01*
X133317845Y-83013885D01*
X133260428Y-83203163D01*
X133241042Y-83400000D01*
X132379500Y-83400000D01*
X132379500Y-80860000D01*
X133241042Y-80860000D01*
X133260428Y-81056836D01*
X133317845Y-81246114D01*
X133411084Y-81420550D01*
X133536558Y-81573441D01*
X133657277Y-81672512D01*
X133689453Y-81698918D01*
X133863888Y-81792156D01*
X134053162Y-81849571D01*
X134250000Y-81868958D01*
X134446838Y-81849571D01*
X134636112Y-81792156D01*
X134810547Y-81698918D01*
X134963441Y-81573441D01*
X135088918Y-81420547D01*
X135182156Y-81246112D01*
X135239571Y-81056838D01*
X135258958Y-80860000D01*
X135239571Y-80663162D01*
X135182156Y-80473888D01*
X135088918Y-80299453D01*
X135080639Y-80289365D01*
X134963441Y-80146558D01*
X134810550Y-80021084D01*
X134810548Y-80021083D01*
X134810547Y-80021082D01*
X134636112Y-79927844D01*
X134541475Y-79899136D01*
X134446836Y-79870428D01*
X134250000Y-79851042D01*
X134053163Y-79870428D01*
X133863885Y-79927845D01*
X133689449Y-80021084D01*
X133536558Y-80146558D01*
X133411084Y-80299449D01*
X133317845Y-80473885D01*
X133260428Y-80663163D01*
X133241042Y-80860000D01*
X132379500Y-80860000D01*
X132379500Y-78320000D01*
X133241042Y-78320000D01*
X133260428Y-78516836D01*
X133260429Y-78516838D01*
X133317394Y-78704630D01*
X133317845Y-78706114D01*
X133411084Y-78880550D01*
X133536558Y-79033441D01*
X133639710Y-79118095D01*
X133689453Y-79158918D01*
X133863888Y-79252156D01*
X134053162Y-79309571D01*
X134250000Y-79328958D01*
X134446838Y-79309571D01*
X134636112Y-79252156D01*
X134810547Y-79158918D01*
X134963441Y-79033441D01*
X135088918Y-78880547D01*
X135182156Y-78706112D01*
X135239571Y-78516838D01*
X135258958Y-78320000D01*
X135239571Y-78123162D01*
X135182156Y-77933888D01*
X135088918Y-77759453D01*
X135064264Y-77729412D01*
X134963441Y-77606558D01*
X134810550Y-77481084D01*
X134810548Y-77481083D01*
X134810547Y-77481082D01*
X134636112Y-77387844D01*
X134541475Y-77359136D01*
X134446836Y-77330428D01*
X134250000Y-77311042D01*
X134053163Y-77330428D01*
X133863885Y-77387845D01*
X133689449Y-77481084D01*
X133536558Y-77606558D01*
X133411084Y-77759449D01*
X133317845Y-77933885D01*
X133260428Y-78123163D01*
X133241042Y-78320000D01*
X132379500Y-78320000D01*
X132379500Y-70700000D01*
X133241042Y-70700000D01*
X133260428Y-70896836D01*
X133267599Y-70920475D01*
X133317844Y-71086112D01*
X133381950Y-71206046D01*
X133411084Y-71260550D01*
X133536558Y-71413441D01*
X133689449Y-71538915D01*
X133689453Y-71538918D01*
X133863888Y-71632156D01*
X134053162Y-71689571D01*
X134250000Y-71708958D01*
X134446838Y-71689571D01*
X134636112Y-71632156D01*
X134810547Y-71538918D01*
X134963441Y-71413441D01*
X135088918Y-71260547D01*
X135182156Y-71086112D01*
X135239571Y-70896838D01*
X135258958Y-70700000D01*
X135239571Y-70503162D01*
X135182156Y-70313888D01*
X135088918Y-70139453D01*
X135088915Y-70139449D01*
X134963441Y-69986558D01*
X134810550Y-69861084D01*
X134810548Y-69861083D01*
X134810547Y-69861082D01*
X134636112Y-69767844D01*
X134541475Y-69739136D01*
X134446836Y-69710428D01*
X134250000Y-69691042D01*
X134053163Y-69710428D01*
X133863885Y-69767845D01*
X133689449Y-69861084D01*
X133536558Y-69986558D01*
X133411084Y-70139449D01*
X133317845Y-70313885D01*
X133260428Y-70503163D01*
X133241042Y-70700000D01*
X132379500Y-70700000D01*
X132379500Y-68336160D01*
X150129500Y-68336160D01*
X150129500Y-70063836D01*
X150129501Y-70063839D01*
X150129501Y-70063840D01*
X150137651Y-70104821D01*
X150168705Y-70151295D01*
X150215179Y-70182349D01*
X150256159Y-70190500D01*
X150555500Y-70190499D01*
X150622539Y-70210183D01*
X150668294Y-70262987D01*
X150679500Y-70314499D01*
X150679500Y-70707992D01*
X150709519Y-70820028D01*
X150738515Y-70870250D01*
X150767512Y-70920473D01*
X150767514Y-70920475D01*
X158420654Y-78573615D01*
X158454139Y-78634938D01*
X158449155Y-78704630D01*
X158440361Y-78723295D01*
X158416076Y-78765357D01*
X158359745Y-78938729D01*
X158354984Y-78953382D01*
X158334319Y-79150000D01*
X158354984Y-79346618D01*
X158354985Y-79346621D01*
X158416074Y-79534637D01*
X158416077Y-79534643D01*
X158514928Y-79705857D01*
X158647216Y-79852778D01*
X158807159Y-79968984D01*
X158987768Y-80049396D01*
X159181149Y-80090500D01*
X159181150Y-80090500D01*
X159378849Y-80090500D01*
X159378851Y-80090500D01*
X159572232Y-80049396D01*
X159752841Y-79968984D01*
X159912784Y-79852778D01*
X160045072Y-79705857D01*
X160143923Y-79534643D01*
X160205016Y-79346618D01*
X160225681Y-79150000D01*
X160205016Y-78953382D01*
X160143923Y-78765357D01*
X160045072Y-78594143D01*
X159912784Y-78447222D01*
X159752841Y-78331016D01*
X159572232Y-78250604D01*
X159572230Y-78250603D01*
X159431048Y-78220594D01*
X159378851Y-78209500D01*
X159378850Y-78209500D01*
X159353823Y-78209500D01*
X159286784Y-78189815D01*
X159266142Y-78173181D01*
X151596819Y-70503858D01*
X151563334Y-70442535D01*
X151560500Y-70416177D01*
X151560500Y-70314499D01*
X151580185Y-70247460D01*
X151632989Y-70201705D01*
X151684500Y-70190499D01*
X151983836Y-70190499D01*
X151983840Y-70190499D01*
X152024821Y-70182349D01*
X152071295Y-70151295D01*
X152102349Y-70104821D01*
X152110500Y-70063841D01*
X152110499Y-69200000D01*
X152664707Y-69200000D01*
X152683830Y-69394169D01*
X152740471Y-69580888D01*
X152832440Y-69752949D01*
X152832444Y-69752956D01*
X152956221Y-69903778D01*
X153107043Y-70027555D01*
X153107050Y-70027559D01*
X153279111Y-70119528D01*
X153279114Y-70119528D01*
X153279118Y-70119531D01*
X153465828Y-70176169D01*
X153660000Y-70195293D01*
X153854172Y-70176169D01*
X154040882Y-70119531D01*
X154068403Y-70104821D01*
X154212949Y-70027559D01*
X154212955Y-70027556D01*
X154363778Y-69903778D01*
X154487556Y-69752955D01*
X154579531Y-69580882D01*
X154636169Y-69394172D01*
X154655293Y-69200000D01*
X155204707Y-69200000D01*
X155223830Y-69394169D01*
X155280471Y-69580888D01*
X155372440Y-69752949D01*
X155372444Y-69752956D01*
X155496221Y-69903778D01*
X155647043Y-70027555D01*
X155647050Y-70027559D01*
X155819111Y-70119528D01*
X155819114Y-70119528D01*
X155819118Y-70119531D01*
X156005828Y-70176169D01*
X156200000Y-70195293D01*
X156394172Y-70176169D01*
X156580882Y-70119531D01*
X156608403Y-70104821D01*
X156752949Y-70027559D01*
X156752955Y-70027556D01*
X156903778Y-69903778D01*
X157027556Y-69752955D01*
X157119531Y-69580882D01*
X157176169Y-69394172D01*
X157195293Y-69200000D01*
X157744707Y-69200000D01*
X157763830Y-69394169D01*
X157820471Y-69580888D01*
X157912440Y-69752949D01*
X157912444Y-69752956D01*
X158036221Y-69903778D01*
X158187043Y-70027555D01*
X158187050Y-70027559D01*
X158359111Y-70119528D01*
X158359114Y-70119528D01*
X158359118Y-70119531D01*
X158545828Y-70176169D01*
X158740000Y-70195293D01*
X158934172Y-70176169D01*
X159120882Y-70119531D01*
X159148403Y-70104821D01*
X159292949Y-70027559D01*
X159292955Y-70027556D01*
X159443778Y-69903778D01*
X159567556Y-69752955D01*
X159659531Y-69580882D01*
X159716169Y-69394172D01*
X159735293Y-69200000D01*
X160284707Y-69200000D01*
X160303830Y-69394169D01*
X160360471Y-69580888D01*
X160452440Y-69752949D01*
X160452444Y-69752956D01*
X160576221Y-69903778D01*
X160727043Y-70027555D01*
X160727050Y-70027559D01*
X160899111Y-70119528D01*
X160899114Y-70119528D01*
X160899118Y-70119531D01*
X161085828Y-70176169D01*
X161280000Y-70195293D01*
X161474172Y-70176169D01*
X161660882Y-70119531D01*
X161688403Y-70104821D01*
X161832949Y-70027559D01*
X161832955Y-70027556D01*
X161983778Y-69903778D01*
X162107556Y-69752955D01*
X162199531Y-69580882D01*
X162256169Y-69394172D01*
X162275293Y-69200000D01*
X162824707Y-69200000D01*
X162843830Y-69394169D01*
X162900471Y-69580888D01*
X162992440Y-69752949D01*
X162992444Y-69752956D01*
X163116221Y-69903778D01*
X163267043Y-70027555D01*
X163267050Y-70027559D01*
X163439111Y-70119528D01*
X163439114Y-70119528D01*
X163439118Y-70119531D01*
X163625828Y-70176169D01*
X163820000Y-70195293D01*
X164014172Y-70176169D01*
X164200882Y-70119531D01*
X164228403Y-70104821D01*
X164372949Y-70027559D01*
X164372955Y-70027556D01*
X164523778Y-69903778D01*
X164647556Y-69752955D01*
X164739531Y-69580882D01*
X164796169Y-69394172D01*
X164815293Y-69200000D01*
X164796169Y-69005828D01*
X164739531Y-68819118D01*
X164739528Y-68819114D01*
X164739528Y-68819111D01*
X164647559Y-68647050D01*
X164647555Y-68647043D01*
X164523778Y-68496221D01*
X164372956Y-68372444D01*
X164372949Y-68372440D01*
X164200888Y-68280471D01*
X164200882Y-68280469D01*
X164014172Y-68223831D01*
X164014169Y-68223830D01*
X163820000Y-68204707D01*
X163625830Y-68223830D01*
X163439111Y-68280471D01*
X163267050Y-68372440D01*
X163267043Y-68372444D01*
X163116221Y-68496221D01*
X162992444Y-68647043D01*
X162992440Y-68647050D01*
X162900471Y-68819111D01*
X162843830Y-69005830D01*
X162824707Y-69200000D01*
X162275293Y-69200000D01*
X162256169Y-69005828D01*
X162199531Y-68819118D01*
X162199528Y-68819114D01*
X162199528Y-68819111D01*
X162107559Y-68647050D01*
X162107555Y-68647043D01*
X161983778Y-68496221D01*
X161832956Y-68372444D01*
X161832949Y-68372440D01*
X161660888Y-68280471D01*
X161660882Y-68280469D01*
X161474172Y-68223831D01*
X161474169Y-68223830D01*
X161280000Y-68204707D01*
X161085830Y-68223830D01*
X160899111Y-68280471D01*
X160727050Y-68372440D01*
X160727043Y-68372444D01*
X160576221Y-68496221D01*
X160452444Y-68647043D01*
X160452440Y-68647050D01*
X160360471Y-68819111D01*
X160303830Y-69005830D01*
X160284707Y-69200000D01*
X159735293Y-69200000D01*
X159716169Y-69005828D01*
X159659531Y-68819118D01*
X159659528Y-68819114D01*
X159659528Y-68819111D01*
X159567559Y-68647050D01*
X159567555Y-68647043D01*
X159443778Y-68496221D01*
X159292956Y-68372444D01*
X159292949Y-68372440D01*
X159120888Y-68280471D01*
X159120882Y-68280469D01*
X158934172Y-68223831D01*
X158934169Y-68223830D01*
X158740000Y-68204707D01*
X158545830Y-68223830D01*
X158359111Y-68280471D01*
X158187050Y-68372440D01*
X158187043Y-68372444D01*
X158036221Y-68496221D01*
X157912444Y-68647043D01*
X157912440Y-68647050D01*
X157820471Y-68819111D01*
X157763830Y-69005830D01*
X157744707Y-69200000D01*
X157195293Y-69200000D01*
X157176169Y-69005828D01*
X157119531Y-68819118D01*
X157119528Y-68819114D01*
X157119528Y-68819111D01*
X157027559Y-68647050D01*
X157027555Y-68647043D01*
X156903778Y-68496221D01*
X156752956Y-68372444D01*
X156752949Y-68372440D01*
X156580888Y-68280471D01*
X156580882Y-68280469D01*
X156394172Y-68223831D01*
X156394169Y-68223830D01*
X156200000Y-68204707D01*
X156005830Y-68223830D01*
X155819111Y-68280471D01*
X155647050Y-68372440D01*
X155647043Y-68372444D01*
X155496221Y-68496221D01*
X155372444Y-68647043D01*
X155372440Y-68647050D01*
X155280471Y-68819111D01*
X155223830Y-69005830D01*
X155204707Y-69200000D01*
X154655293Y-69200000D01*
X154636169Y-69005828D01*
X154579531Y-68819118D01*
X154579528Y-68819114D01*
X154579528Y-68819111D01*
X154487559Y-68647050D01*
X154487555Y-68647043D01*
X154363778Y-68496221D01*
X154212956Y-68372444D01*
X154212949Y-68372440D01*
X154040888Y-68280471D01*
X154040882Y-68280469D01*
X153854172Y-68223831D01*
X153854169Y-68223830D01*
X153660000Y-68204707D01*
X153465830Y-68223830D01*
X153279111Y-68280471D01*
X153107050Y-68372440D01*
X153107043Y-68372444D01*
X152956221Y-68496221D01*
X152832444Y-68647043D01*
X152832440Y-68647050D01*
X152740471Y-68819111D01*
X152683830Y-69005830D01*
X152664707Y-69200000D01*
X152110499Y-69200000D01*
X152110499Y-68336160D01*
X152102349Y-68295179D01*
X152071295Y-68248705D01*
X152024821Y-68217651D01*
X151983841Y-68209500D01*
X151983839Y-68209500D01*
X150256163Y-68209500D01*
X150215179Y-68217651D01*
X150168705Y-68248705D01*
X150158401Y-68264124D01*
X150137651Y-68295178D01*
X150129500Y-68336160D01*
X132379500Y-68336160D01*
X132379500Y-66636000D01*
X181501042Y-66636000D01*
X181520428Y-66832836D01*
X181577845Y-67022114D01*
X181671084Y-67196550D01*
X181796558Y-67349441D01*
X181949449Y-67474915D01*
X181949453Y-67474918D01*
X182123888Y-67568156D01*
X182313162Y-67625571D01*
X182510000Y-67644958D01*
X182706838Y-67625571D01*
X182896112Y-67568156D01*
X183070547Y-67474918D01*
X183223441Y-67349441D01*
X183348918Y-67196547D01*
X183442156Y-67022112D01*
X183499571Y-66832838D01*
X183518958Y-66636000D01*
X183499571Y-66439162D01*
X183442156Y-66249888D01*
X183348918Y-66075453D01*
X183348915Y-66075449D01*
X183223441Y-65922558D01*
X183070550Y-65797084D01*
X183070548Y-65797083D01*
X183070547Y-65797082D01*
X182896112Y-65703844D01*
X182801475Y-65675136D01*
X182706836Y-65646428D01*
X182510000Y-65627042D01*
X182313163Y-65646428D01*
X182123885Y-65703845D01*
X181949449Y-65797084D01*
X181796558Y-65922558D01*
X181671084Y-66075449D01*
X181577845Y-66249885D01*
X181520428Y-66439163D01*
X181501042Y-66636000D01*
X132379500Y-66636000D01*
X132379500Y-64096000D01*
X181501042Y-64096000D01*
X181520428Y-64292836D01*
X181577845Y-64482114D01*
X181671084Y-64656550D01*
X181796558Y-64809441D01*
X181949449Y-64934915D01*
X181949453Y-64934918D01*
X182123888Y-65028156D01*
X182313162Y-65085571D01*
X182510000Y-65104958D01*
X182706838Y-65085571D01*
X182896112Y-65028156D01*
X183070547Y-64934918D01*
X183223441Y-64809441D01*
X183348918Y-64656547D01*
X183442156Y-64482112D01*
X183499571Y-64292838D01*
X183518958Y-64096000D01*
X183499571Y-63899162D01*
X183442156Y-63709888D01*
X183348918Y-63535453D01*
X183292013Y-63466114D01*
X183223441Y-63382558D01*
X183070550Y-63257084D01*
X183070548Y-63257083D01*
X183070547Y-63257082D01*
X182896112Y-63163844D01*
X182801475Y-63135136D01*
X182706836Y-63106428D01*
X182510000Y-63087042D01*
X182313163Y-63106428D01*
X182123885Y-63163845D01*
X181949449Y-63257084D01*
X181796558Y-63382558D01*
X181671084Y-63535449D01*
X181577845Y-63709885D01*
X181520428Y-63899163D01*
X181501042Y-64096000D01*
X132379500Y-64096000D01*
X132379500Y-63084822D01*
X132380916Y-63080000D01*
X133241042Y-63080000D01*
X133260428Y-63276836D01*
X133317845Y-63466114D01*
X133411084Y-63640550D01*
X133536558Y-63793441D01*
X133665380Y-63899162D01*
X133689453Y-63918918D01*
X133863888Y-64012156D01*
X134053162Y-64069571D01*
X134250000Y-64088958D01*
X134446838Y-64069571D01*
X134636112Y-64012156D01*
X134810547Y-63918918D01*
X134963441Y-63793441D01*
X135088918Y-63640547D01*
X135182156Y-63466112D01*
X135239571Y-63276838D01*
X135258958Y-63080000D01*
X135239571Y-62883162D01*
X135182156Y-62693888D01*
X135088918Y-62519453D01*
X135088915Y-62519449D01*
X134963441Y-62366558D01*
X134810550Y-62241084D01*
X134810548Y-62241083D01*
X134810547Y-62241082D01*
X134636112Y-62147844D01*
X134532948Y-62116550D01*
X134446836Y-62090428D01*
X134250000Y-62071042D01*
X134053163Y-62090428D01*
X133863885Y-62147845D01*
X133689449Y-62241084D01*
X133536558Y-62366558D01*
X133411084Y-62519449D01*
X133317845Y-62693885D01*
X133260428Y-62883163D01*
X133241042Y-63080000D01*
X132380916Y-63080000D01*
X132399185Y-63017783D01*
X132415814Y-62997146D01*
X133856959Y-61556000D01*
X181501042Y-61556000D01*
X181520428Y-61752836D01*
X181577845Y-61942114D01*
X181671084Y-62116550D01*
X181796558Y-62269441D01*
X181914896Y-62366558D01*
X181949453Y-62394918D01*
X182123888Y-62488156D01*
X182313162Y-62545571D01*
X182510000Y-62564958D01*
X182706838Y-62545571D01*
X182896112Y-62488156D01*
X183070547Y-62394918D01*
X183223441Y-62269441D01*
X183348918Y-62116547D01*
X183442156Y-61942112D01*
X183499571Y-61752838D01*
X183518958Y-61556000D01*
X183499571Y-61359162D01*
X183442156Y-61169888D01*
X183348918Y-60995453D01*
X183292013Y-60926114D01*
X183223441Y-60842558D01*
X183070550Y-60717084D01*
X183070548Y-60717083D01*
X183070547Y-60717082D01*
X182896112Y-60623844D01*
X182801475Y-60595136D01*
X182706836Y-60566428D01*
X182510000Y-60547042D01*
X182313163Y-60566428D01*
X182123885Y-60623845D01*
X181949449Y-60717084D01*
X181796558Y-60842558D01*
X181671084Y-60995449D01*
X181577845Y-61169885D01*
X181520428Y-61359163D01*
X181501042Y-61556000D01*
X133856959Y-61556000D01*
X133870350Y-61542609D01*
X133931671Y-61509126D01*
X133994025Y-61511632D01*
X134053159Y-61529570D01*
X134053161Y-61529571D01*
X134072548Y-61531480D01*
X134250000Y-61548958D01*
X134446838Y-61529571D01*
X134636112Y-61472156D01*
X134810547Y-61378918D01*
X134963441Y-61253441D01*
X135088918Y-61100547D01*
X135182156Y-60926112D01*
X135239571Y-60736838D01*
X135258958Y-60540000D01*
X135239571Y-60343162D01*
X135182156Y-60153888D01*
X135088918Y-59979453D01*
X135088915Y-59979449D01*
X134963441Y-59826558D01*
X134810550Y-59701084D01*
X134810548Y-59701083D01*
X134810547Y-59701082D01*
X134636112Y-59607844D01*
X134532948Y-59576550D01*
X134446836Y-59550428D01*
X134250000Y-59531042D01*
X134053163Y-59550428D01*
X133863885Y-59607845D01*
X133689449Y-59701084D01*
X133536558Y-59826558D01*
X133411084Y-59979449D01*
X133317845Y-60153885D01*
X133260428Y-60343163D01*
X133241042Y-60540000D01*
X133260428Y-60736838D01*
X133278367Y-60795975D01*
X133278990Y-60865842D01*
X133247387Y-60919650D01*
X131668527Y-62498512D01*
X131586514Y-62580524D01*
X131586512Y-62580527D01*
X131528519Y-62680971D01*
X131498500Y-62793007D01*
X129160500Y-62793007D01*
X129160500Y-59016000D01*
X181501042Y-59016000D01*
X181520428Y-59212836D01*
X181577845Y-59402114D01*
X181671084Y-59576550D01*
X181796558Y-59729441D01*
X181914896Y-59826558D01*
X181949453Y-59854918D01*
X182123888Y-59948156D01*
X182313162Y-60005571D01*
X182510000Y-60024958D01*
X182706838Y-60005571D01*
X182896112Y-59948156D01*
X183070547Y-59854918D01*
X183223441Y-59729441D01*
X183348918Y-59576547D01*
X183442156Y-59402112D01*
X183499571Y-59212838D01*
X183518958Y-59016000D01*
X183499571Y-58819162D01*
X183442156Y-58629888D01*
X183348918Y-58455453D01*
X183292013Y-58386114D01*
X183223441Y-58302558D01*
X183070550Y-58177084D01*
X183070548Y-58177083D01*
X183070547Y-58177082D01*
X182896112Y-58083844D01*
X182801475Y-58055136D01*
X182706836Y-58026428D01*
X182510000Y-58007042D01*
X182313163Y-58026428D01*
X182123885Y-58083845D01*
X181949449Y-58177084D01*
X181796558Y-58302558D01*
X181671084Y-58455449D01*
X181577845Y-58629885D01*
X181520428Y-58819163D01*
X181501042Y-59016000D01*
X129160500Y-59016000D01*
X129160500Y-58000000D01*
X133241042Y-58000000D01*
X133260428Y-58196836D01*
X133317845Y-58386114D01*
X133411084Y-58560550D01*
X133536558Y-58713441D01*
X133665380Y-58819162D01*
X133689453Y-58838918D01*
X133863888Y-58932156D01*
X134053162Y-58989571D01*
X134250000Y-59008958D01*
X134446838Y-58989571D01*
X134636112Y-58932156D01*
X134810547Y-58838918D01*
X134963441Y-58713441D01*
X135088918Y-58560547D01*
X135182156Y-58386112D01*
X135239571Y-58196838D01*
X135258958Y-58000000D01*
X135239571Y-57803162D01*
X135182156Y-57613888D01*
X135088918Y-57439453D01*
X135088915Y-57439449D01*
X134963441Y-57286558D01*
X134810550Y-57161084D01*
X134810548Y-57161083D01*
X134810547Y-57161082D01*
X134636112Y-57067844D01*
X134532948Y-57036550D01*
X134446836Y-57010428D01*
X134250000Y-56991042D01*
X134053163Y-57010428D01*
X133863885Y-57067845D01*
X133689449Y-57161084D01*
X133536558Y-57286558D01*
X133411084Y-57439449D01*
X133317845Y-57613885D01*
X133260428Y-57803163D01*
X133241042Y-58000000D01*
X129160500Y-58000000D01*
X129160500Y-55460000D01*
X133241042Y-55460000D01*
X133260428Y-55656836D01*
X133260429Y-55656838D01*
X133317844Y-55846112D01*
X133389880Y-55980882D01*
X133411084Y-56020550D01*
X133536558Y-56173441D01*
X133665380Y-56279162D01*
X133689453Y-56298918D01*
X133863888Y-56392156D01*
X134053162Y-56449571D01*
X134250000Y-56468958D01*
X134446838Y-56449571D01*
X134636112Y-56392156D01*
X134810547Y-56298918D01*
X134963441Y-56173441D01*
X135088918Y-56020547D01*
X135182156Y-55846112D01*
X135239571Y-55656838D01*
X135258958Y-55460000D01*
X135239571Y-55263162D01*
X135182156Y-55073888D01*
X135088918Y-54899453D01*
X135088915Y-54899449D01*
X134963441Y-54746558D01*
X134950771Y-54736160D01*
X152729500Y-54736160D01*
X152729500Y-56463836D01*
X152730519Y-56468958D01*
X152737651Y-56504821D01*
X152768705Y-56551295D01*
X152815179Y-56582349D01*
X152856159Y-56590500D01*
X154583840Y-56590499D01*
X154624821Y-56582349D01*
X154671295Y-56551295D01*
X154702349Y-56504821D01*
X154710500Y-56463841D01*
X154710499Y-55600000D01*
X155264707Y-55600000D01*
X155283830Y-55794169D01*
X155340471Y-55980888D01*
X155432440Y-56152949D01*
X155432444Y-56152956D01*
X155556221Y-56303778D01*
X155707043Y-56427555D01*
X155707050Y-56427559D01*
X155879111Y-56519528D01*
X155879114Y-56519528D01*
X155879118Y-56519531D01*
X156065828Y-56576169D01*
X156260000Y-56595293D01*
X156454172Y-56576169D01*
X156640882Y-56519531D01*
X156668403Y-56504821D01*
X156812949Y-56427559D01*
X156812955Y-56427556D01*
X156963778Y-56303778D01*
X157087556Y-56152955D01*
X157179531Y-55980882D01*
X157236169Y-55794172D01*
X157255293Y-55600000D01*
X157804707Y-55600000D01*
X157823830Y-55794169D01*
X157880471Y-55980888D01*
X157972440Y-56152949D01*
X157972444Y-56152956D01*
X158096221Y-56303778D01*
X158247043Y-56427555D01*
X158247050Y-56427559D01*
X158419111Y-56519528D01*
X158419114Y-56519528D01*
X158419118Y-56519531D01*
X158605828Y-56576169D01*
X158800000Y-56595293D01*
X158994172Y-56576169D01*
X159180882Y-56519531D01*
X159208403Y-56504821D01*
X159262323Y-56476000D01*
X181501042Y-56476000D01*
X181520428Y-56672836D01*
X181577845Y-56862114D01*
X181671084Y-57036550D01*
X181796558Y-57189441D01*
X181914896Y-57286558D01*
X181949453Y-57314918D01*
X182123888Y-57408156D01*
X182313162Y-57465571D01*
X182510000Y-57484958D01*
X182706838Y-57465571D01*
X182896112Y-57408156D01*
X183070547Y-57314918D01*
X183223441Y-57189441D01*
X183348918Y-57036547D01*
X183442156Y-56862112D01*
X183499571Y-56672838D01*
X183518958Y-56476000D01*
X183499571Y-56279162D01*
X183442156Y-56089888D01*
X183348918Y-55915453D01*
X183292013Y-55846114D01*
X183223441Y-55762558D01*
X183070550Y-55637084D01*
X183070548Y-55637083D01*
X183070547Y-55637082D01*
X182896112Y-55543844D01*
X182801475Y-55515136D01*
X182706836Y-55486428D01*
X182510000Y-55467042D01*
X182313163Y-55486428D01*
X182123885Y-55543845D01*
X181949449Y-55637084D01*
X181796558Y-55762558D01*
X181671084Y-55915449D01*
X181577845Y-56089885D01*
X181520428Y-56279163D01*
X181501042Y-56476000D01*
X159262323Y-56476000D01*
X159352949Y-56427559D01*
X159352955Y-56427556D01*
X159503778Y-56303778D01*
X159627556Y-56152955D01*
X159719531Y-55980882D01*
X159776169Y-55794172D01*
X159795293Y-55600000D01*
X159776169Y-55405828D01*
X159719531Y-55219118D01*
X159719528Y-55219114D01*
X159719528Y-55219111D01*
X159627559Y-55047050D01*
X159627555Y-55047043D01*
X159503778Y-54896221D01*
X159352956Y-54772444D01*
X159352949Y-54772440D01*
X159180888Y-54680471D01*
X159180882Y-54680469D01*
X158994172Y-54623831D01*
X158994169Y-54623830D01*
X158800000Y-54604707D01*
X158605830Y-54623830D01*
X158419111Y-54680471D01*
X158247050Y-54772440D01*
X158247043Y-54772444D01*
X158096221Y-54896221D01*
X157972444Y-55047043D01*
X157972440Y-55047050D01*
X157880471Y-55219111D01*
X157823830Y-55405830D01*
X157804707Y-55600000D01*
X157255293Y-55600000D01*
X157236169Y-55405828D01*
X157179531Y-55219118D01*
X157179528Y-55219114D01*
X157179528Y-55219111D01*
X157087559Y-55047050D01*
X157087555Y-55047043D01*
X156963778Y-54896221D01*
X156812956Y-54772444D01*
X156812949Y-54772440D01*
X156640888Y-54680471D01*
X156640882Y-54680469D01*
X156454172Y-54623831D01*
X156454169Y-54623830D01*
X156260000Y-54604707D01*
X156065830Y-54623830D01*
X155879111Y-54680471D01*
X155707050Y-54772440D01*
X155707043Y-54772444D01*
X155556221Y-54896221D01*
X155432444Y-55047043D01*
X155432440Y-55047050D01*
X155340471Y-55219111D01*
X155283830Y-55405830D01*
X155264707Y-55600000D01*
X154710499Y-55600000D01*
X154710499Y-55283821D01*
X154730184Y-55216783D01*
X154746813Y-55196146D01*
X156006959Y-53936000D01*
X181501042Y-53936000D01*
X181520428Y-54132836D01*
X181577845Y-54322114D01*
X181671084Y-54496550D01*
X181796558Y-54649441D01*
X181946438Y-54772444D01*
X181949453Y-54774918D01*
X182123888Y-54868156D01*
X182313162Y-54925571D01*
X182510000Y-54944958D01*
X182706838Y-54925571D01*
X182896112Y-54868156D01*
X183070547Y-54774918D01*
X183223441Y-54649441D01*
X183348918Y-54496547D01*
X183442156Y-54322112D01*
X183499571Y-54132838D01*
X183518958Y-53936000D01*
X183499571Y-53739162D01*
X183442156Y-53549888D01*
X183348918Y-53375453D01*
X183292013Y-53306114D01*
X183223441Y-53222558D01*
X183070550Y-53097084D01*
X183070548Y-53097083D01*
X183070547Y-53097082D01*
X182896112Y-53003844D01*
X182801475Y-52975136D01*
X182706836Y-52946428D01*
X182510000Y-52927042D01*
X182313163Y-52946428D01*
X182123885Y-53003845D01*
X181949449Y-53097084D01*
X181796558Y-53222558D01*
X181671084Y-53375449D01*
X181577845Y-53549885D01*
X181520428Y-53739163D01*
X181501042Y-53936000D01*
X156006959Y-53936000D01*
X161086961Y-48856000D01*
X181501042Y-48856000D01*
X181520428Y-49052836D01*
X181577845Y-49242114D01*
X181671084Y-49416550D01*
X181796558Y-49569441D01*
X181949449Y-49694915D01*
X181949453Y-49694918D01*
X182123888Y-49788156D01*
X182313162Y-49845571D01*
X182510000Y-49864958D01*
X182706838Y-49845571D01*
X182896112Y-49788156D01*
X183070547Y-49694918D01*
X183223441Y-49569441D01*
X183348918Y-49416547D01*
X183442156Y-49242112D01*
X183499571Y-49052838D01*
X183518958Y-48856000D01*
X183499571Y-48659162D01*
X183442156Y-48469888D01*
X183348918Y-48295453D01*
X183348915Y-48295449D01*
X183223441Y-48142558D01*
X183070550Y-48017084D01*
X183070548Y-48017083D01*
X183070547Y-48017082D01*
X182896112Y-47923844D01*
X182801475Y-47895136D01*
X182706836Y-47866428D01*
X182510000Y-47847042D01*
X182313163Y-47866428D01*
X182123885Y-47923845D01*
X181949449Y-48017084D01*
X181796558Y-48142558D01*
X181671084Y-48295449D01*
X181577845Y-48469885D01*
X181520428Y-48659163D01*
X181501042Y-48856000D01*
X161086961Y-48856000D01*
X163150142Y-46792819D01*
X163211465Y-46759334D01*
X163237823Y-46756500D01*
X181532593Y-46756500D01*
X181599632Y-46776185D01*
X181641949Y-46822044D01*
X181671082Y-46876547D01*
X181671084Y-46876550D01*
X181796558Y-47029441D01*
X181949449Y-47154915D01*
X181949453Y-47154918D01*
X182123888Y-47248156D01*
X182313162Y-47305571D01*
X182510000Y-47324958D01*
X182706838Y-47305571D01*
X182896112Y-47248156D01*
X183070547Y-47154918D01*
X183223441Y-47029441D01*
X183348918Y-46876547D01*
X183442156Y-46702112D01*
X183499571Y-46512838D01*
X183518958Y-46316000D01*
X183499571Y-46119162D01*
X183442156Y-45929888D01*
X183348918Y-45755453D01*
X183348915Y-45755449D01*
X183223441Y-45602558D01*
X183070550Y-45477084D01*
X183070548Y-45477083D01*
X183070547Y-45477082D01*
X182896112Y-45383844D01*
X182801475Y-45355136D01*
X182706836Y-45326428D01*
X182510000Y-45307042D01*
X182313163Y-45326428D01*
X182123885Y-45383845D01*
X181949449Y-45477084D01*
X181796558Y-45602558D01*
X181671084Y-45755449D01*
X181671082Y-45755453D01*
X181641949Y-45809955D01*
X181592989Y-45859798D01*
X181532593Y-45875500D01*
X162946007Y-45875500D01*
X162833971Y-45905519D01*
X162774856Y-45939650D01*
X162745298Y-45956716D01*
X162733530Y-45963510D01*
X162733524Y-45963514D01*
X154123856Y-54573181D01*
X154062533Y-54606666D01*
X154036175Y-54609500D01*
X152856163Y-54609500D01*
X152815179Y-54617651D01*
X152768705Y-54648705D01*
X152758401Y-54664124D01*
X152737651Y-54695178D01*
X152729500Y-54736160D01*
X134950771Y-54736160D01*
X134810550Y-54621084D01*
X134810548Y-54621083D01*
X134810547Y-54621082D01*
X134636112Y-54527844D01*
X134532948Y-54496550D01*
X134446836Y-54470428D01*
X134250000Y-54451042D01*
X134053163Y-54470428D01*
X133863885Y-54527845D01*
X133689449Y-54621084D01*
X133536558Y-54746558D01*
X133411084Y-54899449D01*
X133317845Y-55073885D01*
X133260428Y-55263163D01*
X133241042Y-55460000D01*
X129160500Y-55460000D01*
X129160500Y-52920000D01*
X133241042Y-52920000D01*
X133260428Y-53116836D01*
X133317845Y-53306114D01*
X133411084Y-53480550D01*
X133536558Y-53633441D01*
X133665380Y-53739162D01*
X133689453Y-53758918D01*
X133863888Y-53852156D01*
X134053162Y-53909571D01*
X134250000Y-53928958D01*
X134446838Y-53909571D01*
X134636112Y-53852156D01*
X134810547Y-53758918D01*
X134963441Y-53633441D01*
X135088918Y-53480547D01*
X135182156Y-53306112D01*
X135239571Y-53116838D01*
X135258958Y-52920000D01*
X135239571Y-52723162D01*
X135182156Y-52533888D01*
X135088918Y-52359453D01*
X135088915Y-52359449D01*
X134963441Y-52206558D01*
X134810550Y-52081084D01*
X134810548Y-52081083D01*
X134810547Y-52081082D01*
X134636112Y-51987844D01*
X134541475Y-51959136D01*
X134446836Y-51930428D01*
X134250000Y-51911042D01*
X134053163Y-51930428D01*
X133863885Y-51987845D01*
X133689449Y-52081084D01*
X133536558Y-52206558D01*
X133411084Y-52359449D01*
X133317845Y-52533885D01*
X133260428Y-52723163D01*
X133241042Y-52920000D01*
X129160500Y-52920000D01*
X129160500Y-43776000D01*
X181501042Y-43776000D01*
X181520428Y-43972836D01*
X181577845Y-44162114D01*
X181671084Y-44336550D01*
X181796558Y-44489441D01*
X181949449Y-44614915D01*
X181949453Y-44614918D01*
X182123888Y-44708156D01*
X182313162Y-44765571D01*
X182510000Y-44784958D01*
X182706838Y-44765571D01*
X182896112Y-44708156D01*
X183070547Y-44614918D01*
X183223441Y-44489441D01*
X183348918Y-44336547D01*
X183442156Y-44162112D01*
X183499571Y-43972838D01*
X183518958Y-43776000D01*
X183499571Y-43579162D01*
X183442156Y-43389888D01*
X183348918Y-43215453D01*
X183348915Y-43215449D01*
X183223441Y-43062558D01*
X183070550Y-42937084D01*
X183070548Y-42937083D01*
X183070547Y-42937082D01*
X182896112Y-42843844D01*
X182801475Y-42815136D01*
X182706836Y-42786428D01*
X182510000Y-42767042D01*
X182313163Y-42786428D01*
X182123885Y-42843845D01*
X181949449Y-42937084D01*
X181796558Y-43062558D01*
X181671084Y-43215449D01*
X181577845Y-43389885D01*
X181520428Y-43579163D01*
X181501042Y-43776000D01*
X129160500Y-43776000D01*
X129160500Y-38828711D01*
X132399500Y-38828711D01*
X132399500Y-39071288D01*
X132431161Y-39311785D01*
X132493947Y-39546104D01*
X132586773Y-39770205D01*
X132586776Y-39770212D01*
X132708064Y-39980289D01*
X132708066Y-39980292D01*
X132708067Y-39980293D01*
X132855733Y-40172736D01*
X132855739Y-40172743D01*
X133027256Y-40344260D01*
X133027262Y-40344265D01*
X133219711Y-40491936D01*
X133429788Y-40613224D01*
X133653900Y-40706054D01*
X133888211Y-40768838D01*
X134068586Y-40792584D01*
X134128711Y-40800500D01*
X134128712Y-40800500D01*
X134371289Y-40800500D01*
X134419388Y-40794167D01*
X134611789Y-40768838D01*
X134846100Y-40706054D01*
X135070212Y-40613224D01*
X135280289Y-40491936D01*
X135472738Y-40344265D01*
X135644265Y-40172738D01*
X135701068Y-40098711D01*
X180659500Y-40098711D01*
X180659500Y-40341288D01*
X180691161Y-40581785D01*
X180753947Y-40816104D01*
X180846773Y-41040205D01*
X180846776Y-41040212D01*
X180968064Y-41250289D01*
X180968066Y-41250292D01*
X180968067Y-41250293D01*
X181115733Y-41442736D01*
X181115739Y-41442743D01*
X181287256Y-41614260D01*
X181287262Y-41614265D01*
X181479711Y-41761936D01*
X181689788Y-41883224D01*
X181913900Y-41976054D01*
X182148211Y-42038838D01*
X182328586Y-42062584D01*
X182388711Y-42070500D01*
X182388712Y-42070500D01*
X182631289Y-42070500D01*
X182679388Y-42064167D01*
X182871789Y-42038838D01*
X183106100Y-41976054D01*
X183330212Y-41883224D01*
X183540289Y-41761936D01*
X183732738Y-41614265D01*
X183904265Y-41442738D01*
X184051936Y-41250289D01*
X184173224Y-41040212D01*
X184266054Y-40816100D01*
X184328838Y-40581789D01*
X184360500Y-40341288D01*
X184360500Y-40098712D01*
X184328838Y-39858211D01*
X184266054Y-39623900D01*
X184173224Y-39399788D01*
X184051936Y-39189711D01*
X183904265Y-38997262D01*
X183904260Y-38997256D01*
X183732743Y-38825739D01*
X183732736Y-38825733D01*
X183540293Y-38678067D01*
X183540292Y-38678066D01*
X183540289Y-38678064D01*
X183330212Y-38556776D01*
X183330205Y-38556773D01*
X183106104Y-38463947D01*
X182871785Y-38401161D01*
X182631289Y-38369500D01*
X182631288Y-38369500D01*
X182388712Y-38369500D01*
X182388711Y-38369500D01*
X182148214Y-38401161D01*
X181913895Y-38463947D01*
X181689794Y-38556773D01*
X181689785Y-38556777D01*
X181479706Y-38678067D01*
X181287263Y-38825733D01*
X181287256Y-38825739D01*
X181115739Y-38997256D01*
X181115733Y-38997263D01*
X180968067Y-39189706D01*
X180846777Y-39399785D01*
X180846773Y-39399794D01*
X180753947Y-39623895D01*
X180691161Y-39858214D01*
X180659500Y-40098711D01*
X135701068Y-40098711D01*
X135791936Y-39980289D01*
X135913224Y-39770212D01*
X136006054Y-39546100D01*
X136068838Y-39311789D01*
X136100500Y-39071288D01*
X136100500Y-38828712D01*
X136068838Y-38588211D01*
X136006054Y-38353900D01*
X135913224Y-38129788D01*
X135791936Y-37919711D01*
X135644265Y-37727262D01*
X135644260Y-37727256D01*
X135472743Y-37555739D01*
X135472736Y-37555733D01*
X135280293Y-37408067D01*
X135280292Y-37408066D01*
X135280289Y-37408064D01*
X135070212Y-37286776D01*
X135070205Y-37286773D01*
X134846104Y-37193947D01*
X134611785Y-37131161D01*
X134371289Y-37099500D01*
X134371288Y-37099500D01*
X134128712Y-37099500D01*
X134128711Y-37099500D01*
X133888214Y-37131161D01*
X133653895Y-37193947D01*
X133429794Y-37286773D01*
X133429785Y-37286777D01*
X133219706Y-37408067D01*
X133027263Y-37555733D01*
X133027256Y-37555739D01*
X132855739Y-37727256D01*
X132855733Y-37727263D01*
X132708067Y-37919706D01*
X132586777Y-38129785D01*
X132586773Y-38129794D01*
X132493947Y-38353895D01*
X132431161Y-38588214D01*
X132399500Y-38828711D01*
X129160500Y-38828711D01*
X129160500Y-24454500D01*
X129180185Y-24387461D01*
X129232989Y-24341706D01*
X129284500Y-24330500D01*
X187285500Y-24330500D01*
X187352539Y-24350185D01*
G37*
%TD.AperFunction*%
%TD*%
M02*
